G04 #@! TF.GenerationSoftware,KiCad,Pcbnew,5.1.5+dfsg1-2build2*
G04 #@! TF.CreationDate,2021-06-06T20:08:15-06:00*
G04 #@! TF.ProjectId,flicker_lamp,666c6963-6b65-4725-9f6c-616d702e6b69,rev?*
G04 #@! TF.SameCoordinates,Original*
G04 #@! TF.FileFunction,Paste,Top*
G04 #@! TF.FilePolarity,Positive*
%FSLAX46Y46*%
G04 Gerber Fmt 4.6, Leading zero omitted, Abs format (unit mm)*
G04 Created by KiCad (PCBNEW 5.1.5+dfsg1-2build2) date 2021-06-06 20:08:15*
%MOMM*%
%LPD*%
G04 APERTURE LIST*
%ADD10R,0.500000X0.600000*%
%ADD11R,0.500000X0.900000*%
%ADD12R,0.800000X0.800000*%
%ADD13R,1.200000X1.200000*%
%ADD14R,1.060000X0.650000*%
%ADD15R,3.402000X2.513000*%
%ADD16R,0.700000X1.700000*%
%ADD17R,0.400000X2.250000*%
%ADD18R,0.700000X1.300000*%
%ADD19R,1.250000X1.000000*%
%ADD20R,1.300000X0.700000*%
%ADD21R,1.000000X1.250000*%
G04 APERTURE END LIST*
D10*
X68000000Y-134630000D03*
X68000000Y-135730000D03*
D11*
X58900000Y-100780000D03*
X57400000Y-100780000D03*
X73900000Y-112380000D03*
X75400000Y-112380000D03*
X73900000Y-109330000D03*
X75400000Y-109330000D03*
D12*
X70000000Y-112380000D03*
X71600000Y-112380000D03*
D13*
X69700000Y-109330000D03*
X71900000Y-109330000D03*
D14*
X78700000Y-135730000D03*
X78700000Y-134780000D03*
X78700000Y-133830000D03*
X76500000Y-133830000D03*
X76500000Y-135730000D03*
X76500000Y-134780000D03*
X73400000Y-135730000D03*
X73400000Y-134780000D03*
X73400000Y-133830000D03*
X71200000Y-133830000D03*
X71200000Y-135730000D03*
X71200000Y-134780000D03*
D15*
X76250000Y-118330000D03*
D16*
X74345000Y-115580000D03*
X75615000Y-115580000D03*
X76885000Y-115580000D03*
X78155000Y-115580000D03*
X78155000Y-121080000D03*
X76885000Y-121080000D03*
X75615000Y-121080000D03*
X74345000Y-121080000D03*
D17*
X76300000Y-156005000D03*
X75650000Y-156005000D03*
X75000000Y-156005000D03*
X74350000Y-156005000D03*
X73700000Y-156005000D03*
D18*
X64300000Y-100780000D03*
X62400000Y-100780000D03*
D19*
X82000000Y-115580000D03*
X82000000Y-117580000D03*
D18*
X72200000Y-130980000D03*
X74100000Y-130980000D03*
D20*
X68000000Y-132980000D03*
X68000000Y-131080000D03*
D18*
X74200000Y-124180000D03*
X72300000Y-124180000D03*
D21*
X78200000Y-124180000D03*
X76200000Y-124180000D03*
M02*
