G04 #@! TF.GenerationSoftware,KiCad,Pcbnew,5.1.5+dfsg1-2build2*
G04 #@! TF.CreationDate,2021-06-06T20:08:15-06:00*
G04 #@! TF.ProjectId,flicker_lamp,666c6963-6b65-4725-9f6c-616d702e6b69,rev?*
G04 #@! TF.SameCoordinates,Original*
G04 #@! TF.FileFunction,Soldermask,Top*
G04 #@! TF.FilePolarity,Negative*
%FSLAX46Y46*%
G04 Gerber Fmt 4.6, Leading zero omitted, Abs format (unit mm)*
G04 Created by KiCad (PCBNEW 5.1.5+dfsg1-2build2) date 2021-06-06 20:08:15*
%MOMM*%
%LPD*%
G04 APERTURE LIST*
%ADD10C,0.100000*%
G04 APERTURE END LIST*
D10*
G36*
X71537381Y-158039341D02*
G01*
X71669482Y-158079413D01*
X71791227Y-158144487D01*
X71897938Y-158232062D01*
X71985513Y-158338773D01*
X72050587Y-158460518D01*
X72090659Y-158592619D01*
X72100800Y-158695581D01*
X72100800Y-159564419D01*
X72090659Y-159667381D01*
X72050587Y-159799482D01*
X71985513Y-159921227D01*
X71897937Y-160027938D01*
X71791226Y-160115513D01*
X71669481Y-160180587D01*
X71537380Y-160220659D01*
X71400000Y-160234190D01*
X71262619Y-160220659D01*
X71130518Y-160180587D01*
X71008773Y-160115513D01*
X70902062Y-160027937D01*
X70814487Y-159921226D01*
X70749413Y-159799481D01*
X70709341Y-159667380D01*
X70699200Y-159564418D01*
X70699200Y-158695581D01*
X70709341Y-158592619D01*
X70749414Y-158460518D01*
X70814488Y-158338773D01*
X70902063Y-158232062D01*
X71008774Y-158144487D01*
X71130519Y-158079413D01*
X71262620Y-158039341D01*
X71400000Y-158025810D01*
X71537381Y-158039341D01*
G37*
G36*
X78737381Y-158039341D02*
G01*
X78869482Y-158079413D01*
X78991227Y-158144487D01*
X79097938Y-158232062D01*
X79185513Y-158338773D01*
X79250587Y-158460518D01*
X79290659Y-158592619D01*
X79300800Y-158695581D01*
X79300800Y-159564419D01*
X79290659Y-159667381D01*
X79250587Y-159799482D01*
X79185513Y-159921227D01*
X79097937Y-160027938D01*
X78991226Y-160115513D01*
X78869481Y-160180587D01*
X78737380Y-160220659D01*
X78600000Y-160234190D01*
X78462619Y-160220659D01*
X78330518Y-160180587D01*
X78208773Y-160115513D01*
X78102062Y-160027937D01*
X78014487Y-159921226D01*
X77949413Y-159799481D01*
X77909341Y-159667380D01*
X77899200Y-159564418D01*
X77899200Y-158695581D01*
X77909341Y-158592619D01*
X77949414Y-158460518D01*
X78014488Y-158338773D01*
X78102063Y-158232062D01*
X78208774Y-158144487D01*
X78330519Y-158079413D01*
X78462620Y-158039341D01*
X78600000Y-158025810D01*
X78737381Y-158039341D01*
G37*
G36*
X72779416Y-155806131D02*
G01*
X72779419Y-155806132D01*
X72779418Y-155806132D01*
X72906953Y-155858959D01*
X73021732Y-155935651D01*
X73119349Y-156033268D01*
X73196042Y-156148048D01*
X73236901Y-156246691D01*
X73248869Y-156275584D01*
X73275800Y-156410977D01*
X73275800Y-156549023D01*
X73248869Y-156684416D01*
X73248868Y-156684418D01*
X73196042Y-156811952D01*
X73119349Y-156926732D01*
X73021734Y-157024347D01*
X72906953Y-157101041D01*
X72779416Y-157153869D01*
X72644023Y-157180800D01*
X72505977Y-157180800D01*
X72370584Y-157153869D01*
X72243047Y-157101041D01*
X72128266Y-157024347D01*
X72030651Y-156926732D01*
X71953958Y-156811952D01*
X71901132Y-156684418D01*
X71901131Y-156684416D01*
X71874200Y-156549023D01*
X71874200Y-156410977D01*
X71901131Y-156275584D01*
X71913099Y-156246691D01*
X71953958Y-156148048D01*
X72030651Y-156033268D01*
X72128268Y-155935651D01*
X72243047Y-155858959D01*
X72370582Y-155806132D01*
X72370581Y-155806132D01*
X72370584Y-155806131D01*
X72505977Y-155779200D01*
X72644023Y-155779200D01*
X72779416Y-155806131D01*
G37*
G36*
X73950800Y-157180800D02*
G01*
X73449200Y-157180800D01*
X73449200Y-154829200D01*
X73950800Y-154829200D01*
X73950800Y-157180800D01*
G37*
G36*
X74600800Y-157180800D02*
G01*
X74099200Y-157180800D01*
X74099200Y-154829200D01*
X74600800Y-154829200D01*
X74600800Y-157180800D01*
G37*
G36*
X75250800Y-157180800D02*
G01*
X74749200Y-157180800D01*
X74749200Y-154829200D01*
X75250800Y-154829200D01*
X75250800Y-157180800D01*
G37*
G36*
X75900800Y-157180800D02*
G01*
X75399200Y-157180800D01*
X75399200Y-154829200D01*
X75900800Y-154829200D01*
X75900800Y-157180800D01*
G37*
G36*
X76550800Y-157180800D02*
G01*
X76049200Y-157180800D01*
X76049200Y-154829200D01*
X76550800Y-154829200D01*
X76550800Y-157180800D01*
G37*
G36*
X77629416Y-155806131D02*
G01*
X77629419Y-155806132D01*
X77629418Y-155806132D01*
X77756953Y-155858959D01*
X77871732Y-155935651D01*
X77969349Y-156033268D01*
X78046042Y-156148048D01*
X78086901Y-156246691D01*
X78098869Y-156275584D01*
X78125800Y-156410977D01*
X78125800Y-156549023D01*
X78098869Y-156684416D01*
X78098868Y-156684418D01*
X78046042Y-156811952D01*
X77969349Y-156926732D01*
X77871734Y-157024347D01*
X77756953Y-157101041D01*
X77629416Y-157153869D01*
X77494023Y-157180800D01*
X77355977Y-157180800D01*
X77220584Y-157153869D01*
X77093047Y-157101041D01*
X76978266Y-157024347D01*
X76880651Y-156926732D01*
X76803958Y-156811952D01*
X76751132Y-156684418D01*
X76751131Y-156684416D01*
X76724200Y-156549023D01*
X76724200Y-156410977D01*
X76751131Y-156275584D01*
X76763099Y-156246691D01*
X76803958Y-156148048D01*
X76880651Y-156033268D01*
X76978268Y-155935651D01*
X77093047Y-155858959D01*
X77220582Y-155806132D01*
X77220581Y-155806132D01*
X77220584Y-155806131D01*
X77355977Y-155779200D01*
X77494023Y-155779200D01*
X77629416Y-155806131D01*
G37*
G36*
X93211183Y-151683823D02*
G01*
X93211186Y-151683824D01*
X93211185Y-151683824D01*
X93342942Y-151738399D01*
X93461521Y-151817631D01*
X93562369Y-151918479D01*
X93641602Y-152037059D01*
X93689205Y-152151985D01*
X93696177Y-152168817D01*
X93724000Y-152308692D01*
X93724000Y-152451308D01*
X93696177Y-152591183D01*
X93696176Y-152591185D01*
X93641602Y-152722941D01*
X93562369Y-152841521D01*
X93461522Y-152942368D01*
X93342942Y-153021601D01*
X93241033Y-153063813D01*
X93211183Y-153076177D01*
X93071308Y-153104000D01*
X92928692Y-153104000D01*
X92788817Y-153076177D01*
X92758967Y-153063813D01*
X92657058Y-153021601D01*
X92538478Y-152942368D01*
X92437631Y-152841521D01*
X92358398Y-152722941D01*
X92303824Y-152591185D01*
X92303823Y-152591183D01*
X92276000Y-152451308D01*
X92276000Y-152308692D01*
X92303823Y-152168817D01*
X92310795Y-152151985D01*
X92358398Y-152037059D01*
X92437631Y-151918479D01*
X92538479Y-151817631D01*
X92657058Y-151738399D01*
X92788815Y-151683824D01*
X92788814Y-151683824D01*
X92788817Y-151683823D01*
X92928692Y-151656000D01*
X93071308Y-151656000D01*
X93211183Y-151683823D01*
G37*
G36*
X57211183Y-151683823D02*
G01*
X57211186Y-151683824D01*
X57211185Y-151683824D01*
X57342942Y-151738399D01*
X57461521Y-151817631D01*
X57562369Y-151918479D01*
X57641602Y-152037059D01*
X57689205Y-152151985D01*
X57696177Y-152168817D01*
X57724000Y-152308692D01*
X57724000Y-152451308D01*
X57696177Y-152591183D01*
X57696176Y-152591185D01*
X57641602Y-152722941D01*
X57562369Y-152841521D01*
X57461522Y-152942368D01*
X57342942Y-153021601D01*
X57241033Y-153063813D01*
X57211183Y-153076177D01*
X57071308Y-153104000D01*
X56928692Y-153104000D01*
X56788817Y-153076177D01*
X56758967Y-153063813D01*
X56657058Y-153021601D01*
X56538478Y-152942368D01*
X56437631Y-152841521D01*
X56358398Y-152722941D01*
X56303824Y-152591185D01*
X56303823Y-152591183D01*
X56276000Y-152451308D01*
X56276000Y-152308692D01*
X56303823Y-152168817D01*
X56310795Y-152151985D01*
X56358398Y-152037059D01*
X56437631Y-151918479D01*
X56538479Y-151817631D01*
X56657058Y-151738399D01*
X56788815Y-151683824D01*
X56788814Y-151683824D01*
X56788817Y-151683823D01*
X56928692Y-151656000D01*
X57071308Y-151656000D01*
X57211183Y-151683823D01*
G37*
G36*
X75573403Y-145609744D02*
G01*
X75931156Y-145757930D01*
X76253125Y-145973063D01*
X76526937Y-146246875D01*
X76742070Y-146568844D01*
X76890256Y-146926597D01*
X76965800Y-147306386D01*
X76965800Y-147693614D01*
X76890256Y-148073403D01*
X76742070Y-148431156D01*
X76526937Y-148753125D01*
X76253125Y-149026937D01*
X75931156Y-149242070D01*
X75573403Y-149390256D01*
X75193614Y-149465800D01*
X74806386Y-149465800D01*
X74426597Y-149390256D01*
X74068844Y-149242070D01*
X73746875Y-149026937D01*
X73473063Y-148753125D01*
X73257930Y-148431156D01*
X73109744Y-148073403D01*
X73034200Y-147693614D01*
X73034200Y-147306386D01*
X73109744Y-146926597D01*
X73257930Y-146568844D01*
X73473063Y-146246875D01*
X73746875Y-145973063D01*
X74068844Y-145757930D01*
X74426597Y-145609744D01*
X74806386Y-145534200D01*
X75193614Y-145534200D01*
X75573403Y-145609744D01*
G37*
G36*
X73033403Y-137989744D02*
G01*
X73391156Y-138137930D01*
X73713125Y-138353063D01*
X73986937Y-138626875D01*
X74202070Y-138948844D01*
X74350256Y-139306597D01*
X74425800Y-139686386D01*
X74425800Y-140073614D01*
X74350256Y-140453403D01*
X74202070Y-140811156D01*
X73986937Y-141133125D01*
X73713125Y-141406937D01*
X73391156Y-141622070D01*
X73033403Y-141770256D01*
X72653614Y-141845800D01*
X72266386Y-141845800D01*
X71886597Y-141770256D01*
X71528844Y-141622070D01*
X71206875Y-141406937D01*
X70933063Y-141133125D01*
X70717930Y-140811156D01*
X70569744Y-140453403D01*
X70494200Y-140073614D01*
X70494200Y-139686386D01*
X70569744Y-139306597D01*
X70717930Y-138948844D01*
X70933063Y-138626875D01*
X71206875Y-138353063D01*
X71528844Y-138137930D01*
X71886597Y-137989744D01*
X72266386Y-137914200D01*
X72653614Y-137914200D01*
X73033403Y-137989744D01*
G37*
G36*
X78113403Y-137989744D02*
G01*
X78471156Y-138137930D01*
X78793125Y-138353063D01*
X79066937Y-138626875D01*
X79282070Y-138948844D01*
X79430256Y-139306597D01*
X79505800Y-139686386D01*
X79505800Y-140073614D01*
X79430256Y-140453403D01*
X79282070Y-140811156D01*
X79066937Y-141133125D01*
X78793125Y-141406937D01*
X78471156Y-141622070D01*
X78113403Y-141770256D01*
X77733614Y-141845800D01*
X77346386Y-141845800D01*
X76966597Y-141770256D01*
X76608844Y-141622070D01*
X76286875Y-141406937D01*
X76013063Y-141133125D01*
X75797930Y-140811156D01*
X75649744Y-140453403D01*
X75574200Y-140073614D01*
X75574200Y-139686386D01*
X75649744Y-139306597D01*
X75797930Y-138948844D01*
X76013063Y-138626875D01*
X76286875Y-138353063D01*
X76608844Y-138137930D01*
X76966597Y-137989744D01*
X77346386Y-137914200D01*
X77733614Y-137914200D01*
X78113403Y-137989744D01*
G37*
G36*
X79280800Y-136105800D02*
G01*
X78119200Y-136105800D01*
X78119200Y-135354200D01*
X79280800Y-135354200D01*
X79280800Y-136105800D01*
G37*
G36*
X77080800Y-136105800D02*
G01*
X75919200Y-136105800D01*
X75919200Y-135354200D01*
X77080800Y-135354200D01*
X77080800Y-136105800D01*
G37*
G36*
X73980800Y-136105800D02*
G01*
X72819200Y-136105800D01*
X72819200Y-135354200D01*
X73980800Y-135354200D01*
X73980800Y-136105800D01*
G37*
G36*
X71780800Y-136105800D02*
G01*
X70619200Y-136105800D01*
X70619200Y-135354200D01*
X71780800Y-135354200D01*
X71780800Y-136105800D01*
G37*
G36*
X68300800Y-136080800D02*
G01*
X67699200Y-136080800D01*
X67699200Y-135379200D01*
X68300800Y-135379200D01*
X68300800Y-136080800D01*
G37*
G36*
X73980800Y-135155800D02*
G01*
X72819200Y-135155800D01*
X72819200Y-134404200D01*
X73980800Y-134404200D01*
X73980800Y-135155800D01*
G37*
G36*
X71780800Y-135155800D02*
G01*
X70619200Y-135155800D01*
X70619200Y-134404200D01*
X71780800Y-134404200D01*
X71780800Y-135155800D01*
G37*
G36*
X77080800Y-135155800D02*
G01*
X75919200Y-135155800D01*
X75919200Y-134404200D01*
X77080800Y-134404200D01*
X77080800Y-135155800D01*
G37*
G36*
X79280800Y-135155800D02*
G01*
X78119200Y-135155800D01*
X78119200Y-134404200D01*
X79280800Y-134404200D01*
X79280800Y-135155800D01*
G37*
G36*
X68300800Y-134980800D02*
G01*
X67699200Y-134980800D01*
X67699200Y-134279200D01*
X68300800Y-134279200D01*
X68300800Y-134980800D01*
G37*
G36*
X71780800Y-134205800D02*
G01*
X70619200Y-134205800D01*
X70619200Y-133454200D01*
X71780800Y-133454200D01*
X71780800Y-134205800D01*
G37*
G36*
X79280800Y-134205800D02*
G01*
X78119200Y-134205800D01*
X78119200Y-133454200D01*
X79280800Y-133454200D01*
X79280800Y-134205800D01*
G37*
G36*
X73980800Y-134205800D02*
G01*
X72819200Y-134205800D01*
X72819200Y-133454200D01*
X73980800Y-133454200D01*
X73980800Y-134205800D01*
G37*
G36*
X77080800Y-134205800D02*
G01*
X75919200Y-134205800D01*
X75919200Y-133454200D01*
X77080800Y-133454200D01*
X77080800Y-134205800D01*
G37*
G36*
X68700800Y-133380800D02*
G01*
X67299200Y-133380800D01*
X67299200Y-132579200D01*
X68700800Y-132579200D01*
X68700800Y-133380800D01*
G37*
G36*
X59700800Y-131680800D02*
G01*
X57899200Y-131680800D01*
X57899200Y-129879200D01*
X59700800Y-129879200D01*
X59700800Y-131680800D01*
G37*
G36*
X72600800Y-131680800D02*
G01*
X71799200Y-131680800D01*
X71799200Y-130279200D01*
X72600800Y-130279200D01*
X72600800Y-131680800D01*
G37*
G36*
X74500800Y-131680800D02*
G01*
X73699200Y-131680800D01*
X73699200Y-130279200D01*
X74500800Y-130279200D01*
X74500800Y-131680800D01*
G37*
G36*
X68700800Y-131480800D02*
G01*
X67299200Y-131480800D01*
X67299200Y-130679200D01*
X68700800Y-130679200D01*
X68700800Y-131480800D01*
G37*
G36*
X68156983Y-126340788D02*
G01*
X68307937Y-126386579D01*
X68432774Y-126453306D01*
X68447052Y-126460938D01*
X68568990Y-126561010D01*
X68669062Y-126682947D01*
X68669063Y-126682949D01*
X68743421Y-126822062D01*
X68789212Y-126973014D01*
X68789212Y-126973016D01*
X68800800Y-127090668D01*
X68800800Y-128669332D01*
X68789212Y-128786984D01*
X68743422Y-128937935D01*
X68669062Y-129077053D01*
X68568990Y-129198990D01*
X68447053Y-129299062D01*
X68447051Y-129299063D01*
X68307938Y-129373421D01*
X68307935Y-129373422D01*
X68156984Y-129419212D01*
X68000000Y-129434674D01*
X67843017Y-129419212D01*
X67692063Y-129373421D01*
X67552950Y-129299063D01*
X67552948Y-129299062D01*
X67431011Y-129198990D01*
X67330939Y-129077053D01*
X67256579Y-128937935D01*
X67210789Y-128786984D01*
X67199201Y-128669332D01*
X67199200Y-127090669D01*
X67210788Y-126973017D01*
X67256578Y-126822066D01*
X67256579Y-126822063D01*
X67330937Y-126682950D01*
X67330938Y-126682948D01*
X67431010Y-126561010D01*
X67552947Y-126460938D01*
X67567225Y-126453306D01*
X67692062Y-126386579D01*
X67843016Y-126340788D01*
X68000000Y-126325326D01*
X68156983Y-126340788D01*
G37*
G36*
X82156983Y-126340788D02*
G01*
X82307937Y-126386579D01*
X82432774Y-126453306D01*
X82447052Y-126460938D01*
X82568990Y-126561010D01*
X82669062Y-126682947D01*
X82669063Y-126682949D01*
X82743421Y-126822062D01*
X82789212Y-126973014D01*
X82789212Y-126973016D01*
X82800800Y-127090668D01*
X82800800Y-128669332D01*
X82789212Y-128786984D01*
X82743422Y-128937935D01*
X82669062Y-129077053D01*
X82568990Y-129198990D01*
X82447053Y-129299062D01*
X82447051Y-129299063D01*
X82307938Y-129373421D01*
X82307935Y-129373422D01*
X82156984Y-129419212D01*
X82000000Y-129434674D01*
X81843017Y-129419212D01*
X81692063Y-129373421D01*
X81552950Y-129299063D01*
X81552948Y-129299062D01*
X81431011Y-129198990D01*
X81330939Y-129077053D01*
X81256579Y-128937935D01*
X81210789Y-128786984D01*
X81199201Y-128669332D01*
X81199200Y-127090669D01*
X81210788Y-126973017D01*
X81256578Y-126822066D01*
X81256579Y-126822063D01*
X81330937Y-126682950D01*
X81330938Y-126682948D01*
X81431010Y-126561010D01*
X81552947Y-126460938D01*
X81567225Y-126453306D01*
X81692062Y-126386579D01*
X81843016Y-126340788D01*
X82000000Y-126325326D01*
X82156983Y-126340788D01*
G37*
G36*
X59062754Y-127373817D02*
G01*
X59226689Y-127441721D01*
X59300708Y-127491179D01*
X59374225Y-127540301D01*
X59499699Y-127665775D01*
X59565121Y-127763687D01*
X59598279Y-127813311D01*
X59666183Y-127977246D01*
X59700800Y-128151279D01*
X59700800Y-128328721D01*
X59666183Y-128502754D01*
X59598279Y-128666689D01*
X59565121Y-128716313D01*
X59499699Y-128814225D01*
X59374227Y-128939697D01*
X59226689Y-129038279D01*
X59062754Y-129106183D01*
X58888721Y-129140800D01*
X58711279Y-129140800D01*
X58537246Y-129106183D01*
X58373311Y-129038279D01*
X58225773Y-128939697D01*
X58100301Y-128814225D01*
X58034879Y-128716313D01*
X58001721Y-128666689D01*
X57933817Y-128502754D01*
X57899200Y-128328721D01*
X57899200Y-128151279D01*
X57933817Y-127977246D01*
X58001721Y-127813311D01*
X58034879Y-127763687D01*
X58100301Y-127665775D01*
X58225775Y-127540301D01*
X58299292Y-127491179D01*
X58373311Y-127441721D01*
X58537246Y-127373817D01*
X58711279Y-127339200D01*
X58888721Y-127339200D01*
X59062754Y-127373817D01*
G37*
G36*
X74600800Y-124880800D02*
G01*
X73799200Y-124880800D01*
X73799200Y-123479200D01*
X74600800Y-123479200D01*
X74600800Y-124880800D01*
G37*
G36*
X72700800Y-124880800D02*
G01*
X71899200Y-124880800D01*
X71899200Y-123479200D01*
X72700800Y-123479200D01*
X72700800Y-124880800D01*
G37*
G36*
X78750800Y-124855800D02*
G01*
X77649200Y-124855800D01*
X77649200Y-123504200D01*
X78750800Y-123504200D01*
X78750800Y-124855800D01*
G37*
G36*
X76750800Y-124855800D02*
G01*
X75649200Y-124855800D01*
X75649200Y-123504200D01*
X76750800Y-123504200D01*
X76750800Y-124855800D01*
G37*
G36*
X74745800Y-121980800D02*
G01*
X73944200Y-121980800D01*
X73944200Y-120179200D01*
X74745800Y-120179200D01*
X74745800Y-121980800D01*
G37*
G36*
X76015800Y-121980800D02*
G01*
X75214200Y-121980800D01*
X75214200Y-120179200D01*
X76015800Y-120179200D01*
X76015800Y-121980800D01*
G37*
G36*
X77285800Y-121980800D02*
G01*
X76484200Y-121980800D01*
X76484200Y-120179200D01*
X77285800Y-120179200D01*
X77285800Y-121980800D01*
G37*
G36*
X78555800Y-121980800D02*
G01*
X77754200Y-121980800D01*
X77754200Y-120179200D01*
X78555800Y-120179200D01*
X78555800Y-121980800D01*
G37*
G36*
X58982754Y-119853817D02*
G01*
X59146689Y-119921721D01*
X59220708Y-119971179D01*
X59294225Y-120020301D01*
X59419699Y-120145775D01*
X59485121Y-120243687D01*
X59518279Y-120293311D01*
X59586183Y-120457246D01*
X59620800Y-120631279D01*
X59620800Y-120808721D01*
X59586183Y-120982754D01*
X59586182Y-120982756D01*
X59518280Y-121146687D01*
X59419699Y-121294225D01*
X59294227Y-121419697D01*
X59146689Y-121518279D01*
X58982754Y-121586183D01*
X58808721Y-121620800D01*
X58631279Y-121620800D01*
X58457246Y-121586183D01*
X58293311Y-121518279D01*
X58145773Y-121419697D01*
X58020301Y-121294225D01*
X57921720Y-121146687D01*
X57853818Y-120982756D01*
X57853817Y-120982754D01*
X57819200Y-120808721D01*
X57819200Y-120631279D01*
X57853817Y-120457246D01*
X57921721Y-120293311D01*
X57954879Y-120243687D01*
X58020301Y-120145775D01*
X58145775Y-120020301D01*
X58219292Y-119971179D01*
X58293311Y-119921721D01*
X58457246Y-119853817D01*
X58631279Y-119819200D01*
X58808721Y-119819200D01*
X58982754Y-119853817D01*
G37*
G36*
X61522754Y-119853817D02*
G01*
X61686689Y-119921721D01*
X61760708Y-119971179D01*
X61834225Y-120020301D01*
X61959699Y-120145775D01*
X62025121Y-120243687D01*
X62058279Y-120293311D01*
X62126183Y-120457246D01*
X62160800Y-120631279D01*
X62160800Y-120808721D01*
X62126183Y-120982754D01*
X62126182Y-120982756D01*
X62058280Y-121146687D01*
X61959699Y-121294225D01*
X61834227Y-121419697D01*
X61686689Y-121518279D01*
X61522754Y-121586183D01*
X61348721Y-121620800D01*
X61171279Y-121620800D01*
X60997246Y-121586183D01*
X60833311Y-121518279D01*
X60685773Y-121419697D01*
X60560301Y-121294225D01*
X60461720Y-121146687D01*
X60393818Y-120982756D01*
X60393817Y-120982754D01*
X60359200Y-120808721D01*
X60359200Y-120631279D01*
X60393817Y-120457246D01*
X60461721Y-120293311D01*
X60494879Y-120243687D01*
X60560301Y-120145775D01*
X60685775Y-120020301D01*
X60759292Y-119971179D01*
X60833311Y-119921721D01*
X60997246Y-119853817D01*
X61171279Y-119819200D01*
X61348721Y-119819200D01*
X61522754Y-119853817D01*
G37*
G36*
X64062754Y-119853817D02*
G01*
X64226689Y-119921721D01*
X64300708Y-119971179D01*
X64374225Y-120020301D01*
X64499699Y-120145775D01*
X64565121Y-120243687D01*
X64598279Y-120293311D01*
X64666183Y-120457246D01*
X64700800Y-120631279D01*
X64700800Y-120808721D01*
X64666183Y-120982754D01*
X64666182Y-120982756D01*
X64598280Y-121146687D01*
X64499699Y-121294225D01*
X64374227Y-121419697D01*
X64226689Y-121518279D01*
X64062754Y-121586183D01*
X63888721Y-121620800D01*
X63711279Y-121620800D01*
X63537246Y-121586183D01*
X63373311Y-121518279D01*
X63225773Y-121419697D01*
X63100301Y-121294225D01*
X63001720Y-121146687D01*
X62933818Y-120982756D01*
X62933817Y-120982754D01*
X62899200Y-120808721D01*
X62899200Y-120631279D01*
X62933817Y-120457246D01*
X63001721Y-120293311D01*
X63034879Y-120243687D01*
X63100301Y-120145775D01*
X63225775Y-120020301D01*
X63299292Y-119971179D01*
X63373311Y-119921721D01*
X63537246Y-119853817D01*
X63711279Y-119819200D01*
X63888721Y-119819200D01*
X64062754Y-119853817D01*
G37*
G36*
X78001800Y-119637300D02*
G01*
X74498200Y-119637300D01*
X74498200Y-117022700D01*
X78001800Y-117022700D01*
X78001800Y-119637300D01*
G37*
G36*
X64700800Y-119080800D02*
G01*
X62899200Y-119080800D01*
X62899200Y-117279200D01*
X64700800Y-117279200D01*
X64700800Y-119080800D01*
G37*
G36*
X61522754Y-117313817D02*
G01*
X61686689Y-117381721D01*
X61760708Y-117431179D01*
X61834225Y-117480301D01*
X61959699Y-117605775D01*
X62025121Y-117703687D01*
X62058279Y-117753311D01*
X62126183Y-117917246D01*
X62160800Y-118091279D01*
X62160800Y-118268721D01*
X62126183Y-118442754D01*
X62126182Y-118442756D01*
X62058280Y-118606687D01*
X61959699Y-118754225D01*
X61834227Y-118879697D01*
X61686689Y-118978279D01*
X61522754Y-119046183D01*
X61348721Y-119080800D01*
X61171279Y-119080800D01*
X60997246Y-119046183D01*
X60833311Y-118978279D01*
X60685773Y-118879697D01*
X60560301Y-118754225D01*
X60461720Y-118606687D01*
X60393818Y-118442756D01*
X60393817Y-118442754D01*
X60359200Y-118268721D01*
X60359200Y-118091279D01*
X60393817Y-117917246D01*
X60461721Y-117753311D01*
X60494879Y-117703687D01*
X60560301Y-117605775D01*
X60685775Y-117480301D01*
X60759292Y-117431179D01*
X60833311Y-117381721D01*
X60997246Y-117313817D01*
X61171279Y-117279200D01*
X61348721Y-117279200D01*
X61522754Y-117313817D01*
G37*
G36*
X58982754Y-117313817D02*
G01*
X59146689Y-117381721D01*
X59220708Y-117431179D01*
X59294225Y-117480301D01*
X59419699Y-117605775D01*
X59485121Y-117703687D01*
X59518279Y-117753311D01*
X59586183Y-117917246D01*
X59620800Y-118091279D01*
X59620800Y-118268721D01*
X59586183Y-118442754D01*
X59586182Y-118442756D01*
X59518280Y-118606687D01*
X59419699Y-118754225D01*
X59294227Y-118879697D01*
X59146689Y-118978279D01*
X58982754Y-119046183D01*
X58808721Y-119080800D01*
X58631279Y-119080800D01*
X58457246Y-119046183D01*
X58293311Y-118978279D01*
X58145773Y-118879697D01*
X58020301Y-118754225D01*
X57921720Y-118606687D01*
X57853818Y-118442756D01*
X57853817Y-118442754D01*
X57819200Y-118268721D01*
X57819200Y-118091279D01*
X57853817Y-117917246D01*
X57921721Y-117753311D01*
X57954879Y-117703687D01*
X58020301Y-117605775D01*
X58145775Y-117480301D01*
X58219292Y-117431179D01*
X58293311Y-117381721D01*
X58457246Y-117313817D01*
X58631279Y-117279200D01*
X58808721Y-117279200D01*
X58982754Y-117313817D01*
G37*
G36*
X82675800Y-118130800D02*
G01*
X81324200Y-118130800D01*
X81324200Y-117029200D01*
X82675800Y-117029200D01*
X82675800Y-118130800D01*
G37*
G36*
X76015800Y-116480800D02*
G01*
X75214200Y-116480800D01*
X75214200Y-114679200D01*
X76015800Y-114679200D01*
X76015800Y-116480800D01*
G37*
G36*
X77285800Y-116480800D02*
G01*
X76484200Y-116480800D01*
X76484200Y-114679200D01*
X77285800Y-114679200D01*
X77285800Y-116480800D01*
G37*
G36*
X74745800Y-116480800D02*
G01*
X73944200Y-116480800D01*
X73944200Y-114679200D01*
X74745800Y-114679200D01*
X74745800Y-116480800D01*
G37*
G36*
X78555800Y-116480800D02*
G01*
X77754200Y-116480800D01*
X77754200Y-114679200D01*
X78555800Y-114679200D01*
X78555800Y-116480800D01*
G37*
G36*
X82675800Y-116130800D02*
G01*
X81324200Y-116130800D01*
X81324200Y-115029200D01*
X82675800Y-115029200D01*
X82675800Y-116130800D01*
G37*
G36*
X57428169Y-112181895D02*
G01*
X57428172Y-112181896D01*
X57428171Y-112181896D01*
X57583004Y-112246030D01*
X57583005Y-112246031D01*
X57722354Y-112339140D01*
X57840860Y-112457646D01*
X57840861Y-112457648D01*
X57933971Y-112596997D01*
X57989912Y-112732052D01*
X57998105Y-112751831D01*
X58030800Y-112916203D01*
X58030800Y-113083797D01*
X57998105Y-113248169D01*
X57998104Y-113248171D01*
X57933971Y-113403003D01*
X57872178Y-113495483D01*
X57840860Y-113542354D01*
X57722354Y-113660860D01*
X57629244Y-113723073D01*
X57583004Y-113753970D01*
X57463246Y-113803576D01*
X57428169Y-113818105D01*
X57263797Y-113850800D01*
X57096203Y-113850800D01*
X56931831Y-113818105D01*
X56896754Y-113803576D01*
X56776996Y-113753970D01*
X56730756Y-113723073D01*
X56637646Y-113660860D01*
X56519140Y-113542354D01*
X56487822Y-113495483D01*
X56426029Y-113403003D01*
X56361896Y-113248171D01*
X56361895Y-113248169D01*
X56329200Y-113083797D01*
X56329200Y-112916203D01*
X56361895Y-112751831D01*
X56370088Y-112732052D01*
X56426029Y-112596997D01*
X56519139Y-112457648D01*
X56519140Y-112457646D01*
X56637646Y-112339140D01*
X56776995Y-112246031D01*
X56776996Y-112246030D01*
X56931829Y-112181896D01*
X56931828Y-112181896D01*
X56931831Y-112181895D01*
X57096203Y-112149200D01*
X57263797Y-112149200D01*
X57428169Y-112181895D01*
G37*
G36*
X65048169Y-112181895D02*
G01*
X65048172Y-112181896D01*
X65048171Y-112181896D01*
X65203004Y-112246030D01*
X65203005Y-112246031D01*
X65342354Y-112339140D01*
X65460860Y-112457646D01*
X65460861Y-112457648D01*
X65553971Y-112596997D01*
X65609912Y-112732052D01*
X65618105Y-112751831D01*
X65650800Y-112916203D01*
X65650800Y-113083797D01*
X65618105Y-113248169D01*
X65618104Y-113248171D01*
X65553971Y-113403003D01*
X65492178Y-113495483D01*
X65460860Y-113542354D01*
X65342354Y-113660860D01*
X65249244Y-113723073D01*
X65203004Y-113753970D01*
X65083246Y-113803576D01*
X65048169Y-113818105D01*
X64883797Y-113850800D01*
X64716203Y-113850800D01*
X64551831Y-113818105D01*
X64516754Y-113803576D01*
X64396996Y-113753970D01*
X64350756Y-113723073D01*
X64257646Y-113660860D01*
X64139140Y-113542354D01*
X64107822Y-113495483D01*
X64046029Y-113403003D01*
X63981896Y-113248171D01*
X63981895Y-113248169D01*
X63949200Y-113083797D01*
X63949200Y-112916203D01*
X63981895Y-112751831D01*
X63990088Y-112732052D01*
X64046029Y-112596997D01*
X64139139Y-112457648D01*
X64139140Y-112457646D01*
X64257646Y-112339140D01*
X64396995Y-112246031D01*
X64396996Y-112246030D01*
X64551829Y-112181896D01*
X64551828Y-112181896D01*
X64551831Y-112181895D01*
X64716203Y-112149200D01*
X64883797Y-112149200D01*
X65048169Y-112181895D01*
G37*
G36*
X74200800Y-112880800D02*
G01*
X73599200Y-112880800D01*
X73599200Y-111879200D01*
X74200800Y-111879200D01*
X74200800Y-112880800D01*
G37*
G36*
X75700800Y-112880800D02*
G01*
X75099200Y-112880800D01*
X75099200Y-111879200D01*
X75700800Y-111879200D01*
X75700800Y-112880800D01*
G37*
G36*
X70450800Y-112830800D02*
G01*
X69549200Y-112830800D01*
X69549200Y-111929200D01*
X70450800Y-111929200D01*
X70450800Y-112830800D01*
G37*
G36*
X72050800Y-112830800D02*
G01*
X71149200Y-112830800D01*
X71149200Y-111929200D01*
X72050800Y-111929200D01*
X72050800Y-112830800D01*
G37*
G36*
X65048169Y-109641895D02*
G01*
X65048172Y-109641896D01*
X65048171Y-109641896D01*
X65203004Y-109706030D01*
X65203005Y-109706031D01*
X65342354Y-109799140D01*
X65460860Y-109917646D01*
X65460861Y-109917648D01*
X65553971Y-110056997D01*
X65609912Y-110192052D01*
X65618105Y-110211831D01*
X65650800Y-110376203D01*
X65650800Y-110543797D01*
X65618105Y-110708169D01*
X65618104Y-110708171D01*
X65553971Y-110863003D01*
X65492178Y-110955483D01*
X65460860Y-111002354D01*
X65342354Y-111120860D01*
X65249244Y-111183073D01*
X65203004Y-111213970D01*
X65083246Y-111263576D01*
X65048169Y-111278105D01*
X64883797Y-111310800D01*
X64716203Y-111310800D01*
X64551831Y-111278105D01*
X64516754Y-111263576D01*
X64396996Y-111213970D01*
X64350756Y-111183073D01*
X64257646Y-111120860D01*
X64139140Y-111002354D01*
X64107822Y-110955483D01*
X64046029Y-110863003D01*
X63981896Y-110708171D01*
X63981895Y-110708169D01*
X63949200Y-110543797D01*
X63949200Y-110376203D01*
X63981895Y-110211831D01*
X63990088Y-110192052D01*
X64046029Y-110056997D01*
X64139139Y-109917648D01*
X64139140Y-109917646D01*
X64257646Y-109799140D01*
X64396995Y-109706031D01*
X64396996Y-109706030D01*
X64551829Y-109641896D01*
X64551828Y-109641896D01*
X64551831Y-109641895D01*
X64716203Y-109609200D01*
X64883797Y-109609200D01*
X65048169Y-109641895D01*
G37*
G36*
X57428169Y-109641895D02*
G01*
X57428172Y-109641896D01*
X57428171Y-109641896D01*
X57583004Y-109706030D01*
X57583005Y-109706031D01*
X57722354Y-109799140D01*
X57840860Y-109917646D01*
X57840861Y-109917648D01*
X57933971Y-110056997D01*
X57989912Y-110192052D01*
X57998105Y-110211831D01*
X58030800Y-110376203D01*
X58030800Y-110543797D01*
X57998105Y-110708169D01*
X57998104Y-110708171D01*
X57933971Y-110863003D01*
X57872178Y-110955483D01*
X57840860Y-111002354D01*
X57722354Y-111120860D01*
X57629244Y-111183073D01*
X57583004Y-111213970D01*
X57463246Y-111263576D01*
X57428169Y-111278105D01*
X57263797Y-111310800D01*
X57096203Y-111310800D01*
X56931831Y-111278105D01*
X56896754Y-111263576D01*
X56776996Y-111213970D01*
X56730756Y-111183073D01*
X56637646Y-111120860D01*
X56519140Y-111002354D01*
X56487822Y-110955483D01*
X56426029Y-110863003D01*
X56361896Y-110708171D01*
X56361895Y-110708169D01*
X56329200Y-110543797D01*
X56329200Y-110376203D01*
X56361895Y-110211831D01*
X56370088Y-110192052D01*
X56426029Y-110056997D01*
X56519139Y-109917648D01*
X56519140Y-109917646D01*
X56637646Y-109799140D01*
X56776995Y-109706031D01*
X56776996Y-109706030D01*
X56931829Y-109641896D01*
X56931828Y-109641896D01*
X56931831Y-109641895D01*
X57096203Y-109609200D01*
X57263797Y-109609200D01*
X57428169Y-109641895D01*
G37*
G36*
X72550800Y-109980800D02*
G01*
X71249200Y-109980800D01*
X71249200Y-108679200D01*
X72550800Y-108679200D01*
X72550800Y-109980800D01*
G37*
G36*
X70350800Y-109980800D02*
G01*
X69049200Y-109980800D01*
X69049200Y-108679200D01*
X70350800Y-108679200D01*
X70350800Y-109980800D01*
G37*
G36*
X75700800Y-109830800D02*
G01*
X75099200Y-109830800D01*
X75099200Y-108829200D01*
X75700800Y-108829200D01*
X75700800Y-109830800D01*
G37*
G36*
X74200800Y-109830800D02*
G01*
X73599200Y-109830800D01*
X73599200Y-108829200D01*
X74200800Y-108829200D01*
X74200800Y-109830800D01*
G37*
G36*
X57428169Y-107101895D02*
G01*
X57428172Y-107101896D01*
X57428171Y-107101896D01*
X57583004Y-107166030D01*
X57583005Y-107166031D01*
X57722354Y-107259140D01*
X57840860Y-107377646D01*
X57840861Y-107377648D01*
X57933971Y-107516997D01*
X57989912Y-107652052D01*
X57998105Y-107671831D01*
X58030800Y-107836203D01*
X58030800Y-108003797D01*
X57998105Y-108168169D01*
X57998104Y-108168171D01*
X57933971Y-108323003D01*
X57872178Y-108415483D01*
X57840860Y-108462354D01*
X57722354Y-108580860D01*
X57629244Y-108643073D01*
X57583004Y-108673970D01*
X57463246Y-108723576D01*
X57428169Y-108738105D01*
X57263797Y-108770800D01*
X57096203Y-108770800D01*
X56931831Y-108738105D01*
X56896754Y-108723576D01*
X56776996Y-108673970D01*
X56730756Y-108643073D01*
X56637646Y-108580860D01*
X56519140Y-108462354D01*
X56487822Y-108415483D01*
X56426029Y-108323003D01*
X56361896Y-108168171D01*
X56361895Y-108168169D01*
X56329200Y-108003797D01*
X56329200Y-107836203D01*
X56361895Y-107671831D01*
X56370088Y-107652052D01*
X56426029Y-107516997D01*
X56519139Y-107377648D01*
X56519140Y-107377646D01*
X56637646Y-107259140D01*
X56776995Y-107166031D01*
X56776996Y-107166030D01*
X56931829Y-107101896D01*
X56931828Y-107101896D01*
X56931831Y-107101895D01*
X57096203Y-107069200D01*
X57263797Y-107069200D01*
X57428169Y-107101895D01*
G37*
G36*
X65048169Y-107101895D02*
G01*
X65048172Y-107101896D01*
X65048171Y-107101896D01*
X65203004Y-107166030D01*
X65203005Y-107166031D01*
X65342354Y-107259140D01*
X65460860Y-107377646D01*
X65460861Y-107377648D01*
X65553971Y-107516997D01*
X65609912Y-107652052D01*
X65618105Y-107671831D01*
X65650800Y-107836203D01*
X65650800Y-108003797D01*
X65618105Y-108168169D01*
X65618104Y-108168171D01*
X65553971Y-108323003D01*
X65492178Y-108415483D01*
X65460860Y-108462354D01*
X65342354Y-108580860D01*
X65249244Y-108643073D01*
X65203004Y-108673970D01*
X65083246Y-108723576D01*
X65048169Y-108738105D01*
X64883797Y-108770800D01*
X64716203Y-108770800D01*
X64551831Y-108738105D01*
X64516754Y-108723576D01*
X64396996Y-108673970D01*
X64350756Y-108643073D01*
X64257646Y-108580860D01*
X64139140Y-108462354D01*
X64107822Y-108415483D01*
X64046029Y-108323003D01*
X63981896Y-108168171D01*
X63981895Y-108168169D01*
X63949200Y-108003797D01*
X63949200Y-107836203D01*
X63981895Y-107671831D01*
X63990088Y-107652052D01*
X64046029Y-107516997D01*
X64139139Y-107377648D01*
X64139140Y-107377646D01*
X64257646Y-107259140D01*
X64396995Y-107166031D01*
X64396996Y-107166030D01*
X64551829Y-107101896D01*
X64551828Y-107101896D01*
X64551831Y-107101895D01*
X64716203Y-107069200D01*
X64883797Y-107069200D01*
X65048169Y-107101895D01*
G37*
G36*
X82156983Y-104340788D02*
G01*
X82307937Y-104386579D01*
X82432774Y-104453306D01*
X82447052Y-104460938D01*
X82568990Y-104561010D01*
X82669062Y-104682947D01*
X82669063Y-104682949D01*
X82743421Y-104822062D01*
X82789212Y-104973014D01*
X82789212Y-104973016D01*
X82800800Y-105090668D01*
X82800800Y-106669332D01*
X82789212Y-106786984D01*
X82743422Y-106937935D01*
X82669062Y-107077053D01*
X82568990Y-107198990D01*
X82447053Y-107299062D01*
X82447051Y-107299063D01*
X82307938Y-107373421D01*
X82307935Y-107373422D01*
X82156984Y-107419212D01*
X82000000Y-107434674D01*
X81843017Y-107419212D01*
X81692066Y-107373422D01*
X81692063Y-107373421D01*
X81552950Y-107299063D01*
X81552948Y-107299062D01*
X81431011Y-107198990D01*
X81330939Y-107077053D01*
X81256579Y-106937935D01*
X81210789Y-106786984D01*
X81199201Y-106669332D01*
X81199200Y-105090669D01*
X81210788Y-104973017D01*
X81256578Y-104822066D01*
X81256579Y-104822063D01*
X81330937Y-104682950D01*
X81330938Y-104682948D01*
X81431010Y-104561010D01*
X81552947Y-104460938D01*
X81567225Y-104453306D01*
X81692062Y-104386579D01*
X81843016Y-104340788D01*
X82000000Y-104325326D01*
X82156983Y-104340788D01*
G37*
G36*
X68156983Y-104340788D02*
G01*
X68307937Y-104386579D01*
X68432774Y-104453306D01*
X68447052Y-104460938D01*
X68568990Y-104561010D01*
X68669062Y-104682947D01*
X68669063Y-104682949D01*
X68743421Y-104822062D01*
X68789212Y-104973014D01*
X68789212Y-104973016D01*
X68800800Y-105090668D01*
X68800800Y-106669332D01*
X68789212Y-106786984D01*
X68743422Y-106937935D01*
X68669062Y-107077053D01*
X68568990Y-107198990D01*
X68447053Y-107299062D01*
X68447051Y-107299063D01*
X68307938Y-107373421D01*
X68307935Y-107373422D01*
X68156984Y-107419212D01*
X68000000Y-107434674D01*
X67843017Y-107419212D01*
X67692066Y-107373422D01*
X67692063Y-107373421D01*
X67552950Y-107299063D01*
X67552948Y-107299062D01*
X67431011Y-107198990D01*
X67330939Y-107077053D01*
X67256579Y-106937935D01*
X67210789Y-106786984D01*
X67199201Y-106669332D01*
X67199200Y-105090669D01*
X67210788Y-104973017D01*
X67256578Y-104822066D01*
X67256579Y-104822063D01*
X67330937Y-104682950D01*
X67330938Y-104682948D01*
X67431010Y-104561010D01*
X67552947Y-104460938D01*
X67567225Y-104453306D01*
X67692062Y-104386579D01*
X67843016Y-104340788D01*
X68000000Y-104325326D01*
X68156983Y-104340788D01*
G37*
G36*
X65048169Y-104561895D02*
G01*
X65048172Y-104561896D01*
X65048171Y-104561896D01*
X65203004Y-104626030D01*
X65203005Y-104626031D01*
X65342354Y-104719140D01*
X65460860Y-104837646D01*
X65460861Y-104837648D01*
X65553971Y-104976997D01*
X65601054Y-105090666D01*
X65618105Y-105131831D01*
X65650800Y-105296203D01*
X65650800Y-105463797D01*
X65618105Y-105628169D01*
X65618104Y-105628171D01*
X65553971Y-105783003D01*
X65492178Y-105875483D01*
X65460860Y-105922354D01*
X65342354Y-106040860D01*
X65249244Y-106103073D01*
X65203004Y-106133970D01*
X65083246Y-106183576D01*
X65048169Y-106198105D01*
X64883797Y-106230800D01*
X64716203Y-106230800D01*
X64551831Y-106198105D01*
X64516754Y-106183576D01*
X64396996Y-106133970D01*
X64350756Y-106103073D01*
X64257646Y-106040860D01*
X64139140Y-105922354D01*
X64107822Y-105875483D01*
X64046029Y-105783003D01*
X63981896Y-105628171D01*
X63981895Y-105628169D01*
X63949200Y-105463797D01*
X63949200Y-105296203D01*
X63981895Y-105131831D01*
X63998946Y-105090666D01*
X64046029Y-104976997D01*
X64139139Y-104837648D01*
X64139140Y-104837646D01*
X64257646Y-104719140D01*
X64396995Y-104626031D01*
X64396996Y-104626030D01*
X64551829Y-104561896D01*
X64551828Y-104561896D01*
X64551831Y-104561895D01*
X64716203Y-104529200D01*
X64883797Y-104529200D01*
X65048169Y-104561895D01*
G37*
G36*
X58030800Y-106230800D02*
G01*
X56329200Y-106230800D01*
X56329200Y-104529200D01*
X58030800Y-104529200D01*
X58030800Y-106230800D01*
G37*
G36*
X62800800Y-101480800D02*
G01*
X61999200Y-101480800D01*
X61999200Y-100079200D01*
X62800800Y-100079200D01*
X62800800Y-101480800D01*
G37*
G36*
X64700800Y-101480800D02*
G01*
X63899200Y-101480800D01*
X63899200Y-100079200D01*
X64700800Y-100079200D01*
X64700800Y-101480800D01*
G37*
G36*
X57700800Y-101280800D02*
G01*
X57099200Y-101280800D01*
X57099200Y-100279200D01*
X57700800Y-100279200D01*
X57700800Y-101280800D01*
G37*
G36*
X59200800Y-101280800D02*
G01*
X58599200Y-101280800D01*
X58599200Y-100279200D01*
X59200800Y-100279200D01*
X59200800Y-101280800D01*
G37*
G36*
X58806507Y-95269582D02*
G01*
X58806510Y-95269583D01*
X58806509Y-95269583D01*
X58997740Y-95348793D01*
X59169844Y-95463789D01*
X59316211Y-95610156D01*
X59431208Y-95782261D01*
X59457526Y-95845800D01*
X59510418Y-95973493D01*
X59550800Y-96176505D01*
X59550800Y-96383495D01*
X59510418Y-96586507D01*
X59510417Y-96586509D01*
X59431208Y-96777739D01*
X59316211Y-96949844D01*
X59169846Y-97096209D01*
X58997740Y-97211207D01*
X58806507Y-97290418D01*
X58603495Y-97330800D01*
X58396505Y-97330800D01*
X58193493Y-97290418D01*
X58002260Y-97211207D01*
X57830154Y-97096209D01*
X57683789Y-96949844D01*
X57568792Y-96777739D01*
X57489583Y-96586509D01*
X57489582Y-96586507D01*
X57449200Y-96383495D01*
X57449200Y-96176505D01*
X57489582Y-95973493D01*
X57542474Y-95845800D01*
X57568792Y-95782261D01*
X57683789Y-95610156D01*
X57830156Y-95463789D01*
X58002260Y-95348793D01*
X58193491Y-95269583D01*
X58193490Y-95269583D01*
X58193493Y-95269582D01*
X58396505Y-95229200D01*
X58603495Y-95229200D01*
X58806507Y-95269582D01*
G37*
G36*
X63306507Y-95269582D02*
G01*
X63306510Y-95269583D01*
X63306509Y-95269583D01*
X63497740Y-95348793D01*
X63669844Y-95463789D01*
X63816211Y-95610156D01*
X63931208Y-95782261D01*
X63957526Y-95845800D01*
X64010418Y-95973493D01*
X64050800Y-96176505D01*
X64050800Y-96383495D01*
X64010418Y-96586507D01*
X64010417Y-96586509D01*
X63931208Y-96777739D01*
X63816211Y-96949844D01*
X63669846Y-97096209D01*
X63497740Y-97211207D01*
X63306507Y-97290418D01*
X63103495Y-97330800D01*
X62896505Y-97330800D01*
X62693493Y-97290418D01*
X62502260Y-97211207D01*
X62330154Y-97096209D01*
X62183789Y-96949844D01*
X62068792Y-96777739D01*
X61989583Y-96586509D01*
X61989582Y-96586507D01*
X61949200Y-96383495D01*
X61949200Y-96176505D01*
X61989582Y-95973493D01*
X62042474Y-95845800D01*
X62068792Y-95782261D01*
X62183789Y-95610156D01*
X62330156Y-95463789D01*
X62502260Y-95348793D01*
X62693491Y-95269583D01*
X62693490Y-95269583D01*
X62693493Y-95269582D01*
X62896505Y-95229200D01*
X63103495Y-95229200D01*
X63306507Y-95269582D01*
G37*
G36*
X73033403Y-91989744D02*
G01*
X73391156Y-92137930D01*
X73713125Y-92353063D01*
X73986937Y-92626875D01*
X74202070Y-92948844D01*
X74350256Y-93306597D01*
X74425800Y-93686386D01*
X74425800Y-94073614D01*
X74350256Y-94453403D01*
X74202070Y-94811156D01*
X73986937Y-95133125D01*
X73713125Y-95406937D01*
X73391156Y-95622070D01*
X73033403Y-95770256D01*
X72653614Y-95845800D01*
X72266386Y-95845800D01*
X71886597Y-95770256D01*
X71528844Y-95622070D01*
X71206875Y-95406937D01*
X70933063Y-95133125D01*
X70717930Y-94811156D01*
X70569744Y-94453403D01*
X70494200Y-94073614D01*
X70494200Y-93686386D01*
X70569744Y-93306597D01*
X70717930Y-92948844D01*
X70933063Y-92626875D01*
X71206875Y-92353063D01*
X71528844Y-92137930D01*
X71886597Y-91989744D01*
X72266386Y-91914200D01*
X72653614Y-91914200D01*
X73033403Y-91989744D01*
G37*
G36*
X78113403Y-91989744D02*
G01*
X78471156Y-92137930D01*
X78793125Y-92353063D01*
X79066937Y-92626875D01*
X79282070Y-92948844D01*
X79430256Y-93306597D01*
X79505800Y-93686386D01*
X79505800Y-94073614D01*
X79430256Y-94453403D01*
X79282070Y-94811156D01*
X79066937Y-95133125D01*
X78793125Y-95406937D01*
X78471156Y-95622070D01*
X78113403Y-95770256D01*
X77733614Y-95845800D01*
X77346386Y-95845800D01*
X76966597Y-95770256D01*
X76608844Y-95622070D01*
X76286875Y-95406937D01*
X76013063Y-95133125D01*
X75797930Y-94811156D01*
X75649744Y-94453403D01*
X75574200Y-94073614D01*
X75574200Y-93686386D01*
X75649744Y-93306597D01*
X75797930Y-92948844D01*
X76013063Y-92626875D01*
X76286875Y-92353063D01*
X76608844Y-92137930D01*
X76966597Y-91989744D01*
X77346386Y-91914200D01*
X77733614Y-91914200D01*
X78113403Y-91989744D01*
G37*
G36*
X63306507Y-88769582D02*
G01*
X63306510Y-88769583D01*
X63306509Y-88769583D01*
X63497740Y-88848793D01*
X63669844Y-88963789D01*
X63816211Y-89110156D01*
X63931208Y-89282261D01*
X63992473Y-89430169D01*
X64010418Y-89473493D01*
X64050800Y-89676505D01*
X64050800Y-89883495D01*
X64010418Y-90086507D01*
X64010417Y-90086509D01*
X63931208Y-90277739D01*
X63816211Y-90449844D01*
X63669846Y-90596209D01*
X63497740Y-90711207D01*
X63306507Y-90790418D01*
X63103495Y-90830800D01*
X62896505Y-90830800D01*
X62693493Y-90790418D01*
X62502260Y-90711207D01*
X62330154Y-90596209D01*
X62183789Y-90449844D01*
X62068792Y-90277739D01*
X61989583Y-90086509D01*
X61989582Y-90086507D01*
X61949200Y-89883495D01*
X61949200Y-89676505D01*
X61989582Y-89473493D01*
X62007527Y-89430169D01*
X62068792Y-89282261D01*
X62183789Y-89110156D01*
X62330156Y-88963789D01*
X62502260Y-88848793D01*
X62693491Y-88769583D01*
X62693490Y-88769583D01*
X62693493Y-88769582D01*
X62896505Y-88729200D01*
X63103495Y-88729200D01*
X63306507Y-88769582D01*
G37*
G36*
X58806507Y-88769582D02*
G01*
X58806510Y-88769583D01*
X58806509Y-88769583D01*
X58997740Y-88848793D01*
X59169844Y-88963789D01*
X59316211Y-89110156D01*
X59431208Y-89282261D01*
X59492473Y-89430169D01*
X59510418Y-89473493D01*
X59550800Y-89676505D01*
X59550800Y-89883495D01*
X59510418Y-90086507D01*
X59510417Y-90086509D01*
X59431208Y-90277739D01*
X59316211Y-90449844D01*
X59169846Y-90596209D01*
X58997740Y-90711207D01*
X58806507Y-90790418D01*
X58603495Y-90830800D01*
X58396505Y-90830800D01*
X58193493Y-90790418D01*
X58002260Y-90711207D01*
X57830154Y-90596209D01*
X57683789Y-90449844D01*
X57568792Y-90277739D01*
X57489583Y-90086509D01*
X57489582Y-90086507D01*
X57449200Y-89883495D01*
X57449200Y-89676505D01*
X57489582Y-89473493D01*
X57507527Y-89430169D01*
X57568792Y-89282261D01*
X57683789Y-89110156D01*
X57830156Y-88963789D01*
X58002260Y-88848793D01*
X58193491Y-88769583D01*
X58193490Y-88769583D01*
X58193493Y-88769582D01*
X58396505Y-88729200D01*
X58603495Y-88729200D01*
X58806507Y-88769582D01*
G37*
G36*
X75573403Y-84369744D02*
G01*
X75931156Y-84517930D01*
X76253125Y-84733063D01*
X76526937Y-85006875D01*
X76742070Y-85328844D01*
X76890256Y-85686597D01*
X76965800Y-86066386D01*
X76965800Y-86453614D01*
X76890256Y-86833403D01*
X76742070Y-87191156D01*
X76526937Y-87513125D01*
X76253125Y-87786937D01*
X75931156Y-88002070D01*
X75573403Y-88150256D01*
X75193614Y-88225800D01*
X74806386Y-88225800D01*
X74426597Y-88150256D01*
X74068844Y-88002070D01*
X73746875Y-87786937D01*
X73473063Y-87513125D01*
X73257930Y-87191156D01*
X73109744Y-86833403D01*
X73034200Y-86453614D01*
X73034200Y-86066386D01*
X73109744Y-85686597D01*
X73257930Y-85328844D01*
X73473063Y-85006875D01*
X73746875Y-84733063D01*
X74068844Y-84517930D01*
X74426597Y-84369744D01*
X74806386Y-84294200D01*
X75193614Y-84294200D01*
X75573403Y-84369744D01*
G37*
G36*
X58982754Y-83313817D02*
G01*
X59146689Y-83381721D01*
X59220708Y-83431179D01*
X59294225Y-83480301D01*
X59419699Y-83605775D01*
X59485121Y-83703687D01*
X59518279Y-83753311D01*
X59586183Y-83917246D01*
X59620800Y-84091279D01*
X59620800Y-84268721D01*
X59586183Y-84442754D01*
X59586182Y-84442756D01*
X59518280Y-84606687D01*
X59419699Y-84754225D01*
X59294227Y-84879697D01*
X59146689Y-84978279D01*
X58982754Y-85046183D01*
X58808721Y-85080800D01*
X58631279Y-85080800D01*
X58457246Y-85046183D01*
X58293311Y-84978279D01*
X58145773Y-84879697D01*
X58020301Y-84754225D01*
X57921720Y-84606687D01*
X57853818Y-84442756D01*
X57853817Y-84442754D01*
X57819200Y-84268721D01*
X57819200Y-84091279D01*
X57853817Y-83917246D01*
X57921721Y-83753311D01*
X57954879Y-83703687D01*
X58020301Y-83605775D01*
X58145775Y-83480301D01*
X58219292Y-83431179D01*
X58293311Y-83381721D01*
X58457246Y-83313817D01*
X58631279Y-83279200D01*
X58808721Y-83279200D01*
X58982754Y-83313817D01*
G37*
G36*
X64700800Y-85080800D02*
G01*
X62899200Y-85080800D01*
X62899200Y-83279200D01*
X64700800Y-83279200D01*
X64700800Y-85080800D01*
G37*
G36*
X61522754Y-83313817D02*
G01*
X61686689Y-83381721D01*
X61760708Y-83431179D01*
X61834225Y-83480301D01*
X61959699Y-83605775D01*
X62025121Y-83703687D01*
X62058279Y-83753311D01*
X62126183Y-83917246D01*
X62160800Y-84091279D01*
X62160800Y-84268721D01*
X62126183Y-84442754D01*
X62126182Y-84442756D01*
X62058280Y-84606687D01*
X61959699Y-84754225D01*
X61834227Y-84879697D01*
X61686689Y-84978279D01*
X61522754Y-85046183D01*
X61348721Y-85080800D01*
X61171279Y-85080800D01*
X60997246Y-85046183D01*
X60833311Y-84978279D01*
X60685773Y-84879697D01*
X60560301Y-84754225D01*
X60461720Y-84606687D01*
X60393818Y-84442756D01*
X60393817Y-84442754D01*
X60359200Y-84268721D01*
X60359200Y-84091279D01*
X60393817Y-83917246D01*
X60461721Y-83753311D01*
X60494879Y-83703687D01*
X60560301Y-83605775D01*
X60685775Y-83480301D01*
X60759292Y-83431179D01*
X60833311Y-83381721D01*
X60997246Y-83313817D01*
X61171279Y-83279200D01*
X61348721Y-83279200D01*
X61522754Y-83313817D01*
G37*
G36*
X93211183Y-81683823D02*
G01*
X93211186Y-81683824D01*
X93211185Y-81683824D01*
X93342942Y-81738399D01*
X93461521Y-81817631D01*
X93562369Y-81918479D01*
X93641602Y-82037059D01*
X93689205Y-82151985D01*
X93696177Y-82168817D01*
X93724000Y-82308692D01*
X93724000Y-82451308D01*
X93696177Y-82591183D01*
X93696176Y-82591185D01*
X93641602Y-82722941D01*
X93562369Y-82841521D01*
X93461522Y-82942368D01*
X93342942Y-83021601D01*
X93241033Y-83063813D01*
X93211183Y-83076177D01*
X93071308Y-83104000D01*
X92928692Y-83104000D01*
X92788817Y-83076177D01*
X92758967Y-83063813D01*
X92657058Y-83021601D01*
X92538478Y-82942368D01*
X92437631Y-82841521D01*
X92358398Y-82722941D01*
X92303824Y-82591185D01*
X92303823Y-82591183D01*
X92276000Y-82451308D01*
X92276000Y-82308692D01*
X92303823Y-82168817D01*
X92310795Y-82151985D01*
X92358398Y-82037059D01*
X92437631Y-81918479D01*
X92538479Y-81817631D01*
X92657058Y-81738399D01*
X92788815Y-81683824D01*
X92788814Y-81683824D01*
X92788817Y-81683823D01*
X92928692Y-81656000D01*
X93071308Y-81656000D01*
X93211183Y-81683823D01*
G37*
M02*
