G04 #@! TF.GenerationSoftware,KiCad,Pcbnew,5.1.5+dfsg1-2build2*
G04 #@! TF.CreationDate,2021-06-06T20:08:15-06:00*
G04 #@! TF.ProjectId,flicker_lamp,666c6963-6b65-4725-9f6c-616d702e6b69,rev?*
G04 #@! TF.SameCoordinates,Original*
G04 #@! TF.FileFunction,Copper,L1,Top*
G04 #@! TF.FilePolarity,Positive*
%FSLAX46Y46*%
G04 Gerber Fmt 4.6, Leading zero omitted, Abs format (unit mm)*
G04 Created by KiCad (PCBNEW 5.1.5+dfsg1-2build2) date 2021-06-06 20:08:15*
%MOMM*%
%LPD*%
G04 APERTURE LIST*
%ADD10R,0.500000X0.600000*%
%ADD11R,0.500000X0.900000*%
%ADD12R,0.800000X0.800000*%
%ADD13R,1.200000X1.200000*%
%ADD14R,1.060000X0.650000*%
%ADD15R,3.402000X2.513000*%
%ADD16R,0.700000X1.700000*%
%ADD17O,1.300000X2.100000*%
%ADD18R,0.400000X2.250000*%
%ADD19C,1.300000*%
%ADD20R,1.600000X1.600000*%
%ADD21O,1.600000X1.600000*%
%ADD22C,3.830000*%
%ADD23C,2.000000*%
%ADD24R,0.700000X1.300000*%
%ADD25R,1.250000X1.000000*%
%ADD26R,1.700000X1.700000*%
%ADD27O,1.700000X1.700000*%
%ADD28R,1.300000X0.700000*%
%ADD29R,1.000000X1.250000*%
%ADD30C,0.685800*%
%ADD31C,0.152400*%
%ADD32C,0.304800*%
%ADD33C,0.254000*%
G04 APERTURE END LIST*
D10*
X68000000Y-134630000D03*
X68000000Y-135730000D03*
D11*
X58900000Y-100780000D03*
X57400000Y-100780000D03*
X73900000Y-112380000D03*
X75400000Y-112380000D03*
X73900000Y-109330000D03*
X75400000Y-109330000D03*
D12*
X70000000Y-112380000D03*
X71600000Y-112380000D03*
D13*
X69700000Y-109330000D03*
X71900000Y-109330000D03*
D14*
X78700000Y-135730000D03*
X78700000Y-134780000D03*
X78700000Y-133830000D03*
X76500000Y-133830000D03*
X76500000Y-135730000D03*
X76500000Y-134780000D03*
X73400000Y-135730000D03*
X73400000Y-134780000D03*
X73400000Y-133830000D03*
X71200000Y-133830000D03*
X71200000Y-135730000D03*
X71200000Y-134780000D03*
D15*
X76250000Y-118330000D03*
D16*
X74345000Y-115580000D03*
X75615000Y-115580000D03*
X76885000Y-115580000D03*
X78155000Y-115580000D03*
X78155000Y-121080000D03*
X76885000Y-121080000D03*
X75615000Y-121080000D03*
X74345000Y-121080000D03*
D17*
X78600000Y-159130000D03*
X71400000Y-159130000D03*
D18*
X76300000Y-156005000D03*
X75650000Y-156005000D03*
X75000000Y-156005000D03*
X74350000Y-156005000D03*
X73700000Y-156005000D03*
D19*
X72575000Y-156480000D03*
X77425000Y-156480000D03*
D20*
X57180000Y-105380000D03*
D21*
X64800000Y-113000000D03*
X57180000Y-107920000D03*
X64800000Y-110460000D03*
X57180000Y-110460000D03*
X64800000Y-107920000D03*
X57180000Y-113000000D03*
X64800000Y-105380000D03*
D22*
X77540000Y-139880000D03*
X72460000Y-139880000D03*
X75000000Y-147500000D03*
X75000000Y-86260000D03*
X72460000Y-93880000D03*
X77540000Y-93880000D03*
D23*
X58500000Y-89780000D03*
X63000000Y-89780000D03*
X58500000Y-96280000D03*
X63000000Y-96280000D03*
D24*
X64300000Y-100780000D03*
X62400000Y-100780000D03*
D25*
X82000000Y-115580000D03*
X82000000Y-117580000D03*
D26*
X63800000Y-84180000D03*
D27*
X61260000Y-84180000D03*
X58720000Y-84180000D03*
D26*
X58800000Y-130780000D03*
D27*
X58800000Y-128240000D03*
D24*
X72200000Y-130980000D03*
X74100000Y-130980000D03*
D28*
X68000000Y-132980000D03*
X68000000Y-131080000D03*
D24*
X74200000Y-124180000D03*
X72300000Y-124180000D03*
D26*
X63800000Y-118180000D03*
D27*
X63800000Y-120720000D03*
X61260000Y-118180000D03*
X61260000Y-120720000D03*
X58720000Y-118180000D03*
X58720000Y-120720000D03*
D29*
X78200000Y-124180000D03*
X76200000Y-124180000D03*
D30*
X70000000Y-110780000D03*
X72400000Y-115580000D03*
X78000000Y-122780000D03*
X72600000Y-153380000D03*
X80200000Y-115580000D03*
X70800000Y-129180000D03*
X66400000Y-100780000D03*
X60400000Y-100780000D03*
D31*
X61260000Y-84180000D02*
X61200000Y-84240000D01*
D32*
X74754800Y-130980000D02*
X74100000Y-130980000D01*
X78700000Y-133200200D02*
X76479800Y-130980000D01*
X78700000Y-133830000D02*
X78700000Y-133200200D01*
X76200000Y-130980000D02*
X74754800Y-130980000D01*
X76479800Y-130980000D02*
X76200000Y-130980000D01*
X74100000Y-130980000D02*
X74100000Y-129480000D01*
X72300000Y-127680000D02*
X72300000Y-124980000D01*
X74100000Y-129480000D02*
X72300000Y-127680000D01*
X73690200Y-121080000D02*
X74345000Y-121080000D01*
X72300000Y-122470200D02*
X73690200Y-121080000D01*
X72300000Y-124180000D02*
X72300000Y-122470200D01*
X76885000Y-122234800D02*
X76885000Y-121080000D01*
X76885000Y-122565200D02*
X76885000Y-122234800D01*
X76200000Y-123250200D02*
X76885000Y-122565200D01*
X76200000Y-124180000D02*
X76200000Y-123250200D01*
X57180000Y-120382081D02*
X57180000Y-113000000D01*
X57517919Y-120720000D02*
X57180000Y-120382081D01*
X58720000Y-120720000D02*
X57517919Y-120720000D01*
X58720000Y-89560000D02*
X58500000Y-89780000D01*
X58720000Y-84180000D02*
X58720000Y-89560000D01*
X58500000Y-89780000D02*
X58500000Y-96280000D01*
X82000000Y-124380000D02*
X76200000Y-130180000D01*
X76200000Y-130180000D02*
X76200000Y-130980000D01*
X76200000Y-124980000D02*
X76200000Y-130180000D01*
X76885000Y-118965000D02*
X76250000Y-118330000D01*
X76885000Y-121080000D02*
X76885000Y-118965000D01*
X76250000Y-118330000D02*
X75750000Y-118330000D01*
X76250000Y-118330000D02*
X76050000Y-118330000D01*
X76250000Y-118330000D02*
X75850000Y-118330000D01*
X76250000Y-118330000D02*
X76850000Y-118330000D01*
X76250000Y-118330000D02*
X76750000Y-118330000D01*
X71400000Y-157655000D02*
X72575000Y-156480000D01*
X71400000Y-159130000D02*
X71400000Y-157655000D01*
X78600000Y-157655000D02*
X77425000Y-156480000D01*
X78600000Y-159130000D02*
X78600000Y-157655000D01*
X76325000Y-156480000D02*
X76300000Y-156505000D01*
X77425000Y-156480000D02*
X76325000Y-156480000D01*
X79534800Y-133830000D02*
X78700000Y-133830000D01*
X81000000Y-135295200D02*
X79534800Y-133830000D01*
X81000000Y-152905000D02*
X81000000Y-135295200D01*
X77425000Y-156480000D02*
X81000000Y-152905000D01*
X57400000Y-97380000D02*
X58500000Y-96280000D01*
X57400000Y-100780000D02*
X57400000Y-97380000D01*
X59000000Y-111180000D02*
X57180000Y-113000000D01*
X59000000Y-103380000D02*
X59000000Y-111180000D01*
X57400000Y-101780000D02*
X59000000Y-103380000D01*
X57400000Y-100780000D02*
X57400000Y-101780000D01*
X82000000Y-117580000D02*
X82000000Y-124380000D01*
X60600000Y-122580000D02*
X72300000Y-122580000D01*
X60580000Y-122580000D02*
X60600000Y-122580000D01*
X58720000Y-120720000D02*
X60580000Y-122580000D01*
D31*
X63800000Y-117102400D02*
X63800000Y-118180000D01*
X63400000Y-116702400D02*
X63800000Y-117102400D01*
X63400000Y-111860000D02*
X63400000Y-111980000D01*
X64800000Y-110460000D02*
X63400000Y-111860000D01*
X63400000Y-116702400D02*
X63400000Y-111980000D01*
X62800000Y-116640000D02*
X61260000Y-118180000D01*
X62800000Y-109920000D02*
X62800000Y-109980000D01*
X64800000Y-107920000D02*
X62800000Y-109920000D01*
X62800000Y-109980000D02*
X62800000Y-116640000D01*
D32*
X70000000Y-109330000D02*
X70000000Y-110780000D01*
X70000000Y-112380000D02*
X70000000Y-110780000D01*
X74345000Y-115580000D02*
X72400000Y-115580000D01*
X78155000Y-124135000D02*
X78200000Y-124180000D01*
X78155000Y-122735000D02*
X78045000Y-122735000D01*
X78155000Y-121080000D02*
X78155000Y-122735000D01*
X78045000Y-122735000D02*
X78000000Y-122780000D01*
X78155000Y-122735000D02*
X78155000Y-124135000D01*
X73700000Y-154380000D02*
X73700000Y-156505000D01*
X72600000Y-153380000D02*
X73700000Y-154380000D01*
X78155000Y-115580000D02*
X79000000Y-115580000D01*
X79000000Y-115580000D02*
X80200000Y-115580000D01*
X80200000Y-115580000D02*
X82000000Y-115580000D01*
X68900000Y-131080000D02*
X68000000Y-131080000D01*
X70800000Y-129180000D02*
X68900000Y-131080000D01*
X59100000Y-131080000D02*
X58800000Y-130780000D01*
X68000000Y-131080000D02*
X59100000Y-131080000D01*
X66400000Y-100780000D02*
X64300000Y-100780000D01*
D31*
X58900000Y-100780000D02*
X60400000Y-100780000D01*
X60400000Y-100780000D02*
X62400000Y-100780000D01*
D32*
X77540000Y-138440000D02*
X77540000Y-140380000D01*
X78700000Y-137280000D02*
X77540000Y-138440000D01*
X78700000Y-135730000D02*
X78700000Y-137280000D01*
X77540000Y-138440000D02*
X77540000Y-138320000D01*
X77540000Y-138320000D02*
X76600000Y-137380000D01*
X72200000Y-137359800D02*
X72200000Y-137380000D01*
X71200000Y-135730000D02*
X71200000Y-136359800D01*
X76600000Y-137380000D02*
X72200000Y-137380000D01*
X71600000Y-136780000D02*
X72200000Y-137359800D01*
X71200000Y-136359800D02*
X71600000Y-136780000D01*
X71200000Y-135730000D02*
X68000000Y-135730000D01*
D31*
X72717600Y-134780000D02*
X72200000Y-134262400D01*
X73400000Y-134780000D02*
X72717600Y-134780000D01*
X72200000Y-134262400D02*
X72200000Y-130980000D01*
X73400000Y-135730000D02*
X76500000Y-135730000D01*
X73400000Y-133830000D02*
X76500000Y-133830000D01*
D32*
X68000000Y-132980000D02*
X68000000Y-134630000D01*
X68150000Y-134780000D02*
X68000000Y-134630000D01*
X71200000Y-134780000D02*
X68150000Y-134780000D01*
D31*
X71600000Y-109330000D02*
X73700000Y-109330000D01*
X71600000Y-112380000D02*
X73700000Y-112380000D01*
X76885000Y-111665000D02*
X76885000Y-115580000D01*
X75600000Y-110380000D02*
X76885000Y-111665000D01*
X75600000Y-109330000D02*
X75600000Y-110380000D01*
X75600000Y-115565000D02*
X75615000Y-115580000D01*
X75600000Y-112380000D02*
X75600000Y-115565000D01*
X75615000Y-121080000D02*
X75615000Y-122365000D01*
X75615000Y-122365000D02*
X75200000Y-122780000D01*
X74702400Y-124180000D02*
X74200000Y-124180000D01*
X75200000Y-123682400D02*
X74702400Y-124180000D01*
X75200000Y-122780000D02*
X75200000Y-123682400D01*
D33*
G36*
X79273000Y-119453000D02*
G01*
X73127000Y-119453000D01*
X73127000Y-117307000D01*
X79273000Y-117307000D01*
X79273000Y-119453000D01*
G37*
X79273000Y-119453000D02*
X73127000Y-119453000D01*
X73127000Y-117307000D01*
X79273000Y-117307000D01*
X79273000Y-119453000D01*
G36*
X83315001Y-79346343D02*
G01*
X83311686Y-79380000D01*
X83324912Y-79514283D01*
X83364081Y-79643406D01*
X83427688Y-79762407D01*
X83513289Y-79866711D01*
X83617593Y-79952312D01*
X83736594Y-80015919D01*
X83865717Y-80055088D01*
X83966353Y-80065000D01*
X84000000Y-80068314D01*
X84033647Y-80065000D01*
X94315001Y-80065000D01*
X94315000Y-153695000D01*
X84033647Y-153695000D01*
X84000000Y-153691686D01*
X83966353Y-153695000D01*
X83865717Y-153704912D01*
X83736594Y-153744081D01*
X83617593Y-153807688D01*
X83513289Y-153893289D01*
X83427688Y-153997593D01*
X83364081Y-154116594D01*
X83324912Y-154245717D01*
X83311686Y-154380000D01*
X83315001Y-154413657D01*
X83315000Y-160195000D01*
X79701194Y-160195000D01*
X79738585Y-160139081D01*
X79835533Y-159905251D01*
X79885000Y-159657000D01*
X79885000Y-159257000D01*
X78727000Y-159257000D01*
X78727000Y-159277000D01*
X78473000Y-159277000D01*
X78473000Y-159257000D01*
X77315000Y-159257000D01*
X77315000Y-159657000D01*
X77364467Y-159905251D01*
X77461415Y-160139081D01*
X77498806Y-160195000D01*
X72501194Y-160195000D01*
X72538585Y-160139081D01*
X72635533Y-159905251D01*
X72685000Y-159657000D01*
X72685000Y-159257000D01*
X71527000Y-159257000D01*
X71527000Y-159277000D01*
X71273000Y-159277000D01*
X71273000Y-159257000D01*
X70115000Y-159257000D01*
X70115000Y-159657000D01*
X70164467Y-159905251D01*
X70261415Y-160139081D01*
X70298806Y-160195000D01*
X66685000Y-160195000D01*
X66685000Y-158603000D01*
X70115000Y-158603000D01*
X70115000Y-159003000D01*
X71273000Y-159003000D01*
X71273000Y-157610933D01*
X71527000Y-157610933D01*
X71527000Y-159003000D01*
X72685000Y-159003000D01*
X72685000Y-158603000D01*
X72635533Y-158354749D01*
X72538585Y-158120919D01*
X72397882Y-157910495D01*
X72218830Y-157731564D01*
X72182523Y-157707322D01*
X72398524Y-157759102D01*
X72651455Y-157768952D01*
X72901449Y-157729270D01*
X73127522Y-157645778D01*
X73145506Y-157660537D01*
X73255820Y-157719502D01*
X73375518Y-157755812D01*
X73500000Y-157768072D01*
X73900000Y-157768072D01*
X74024482Y-157755812D01*
X74025000Y-157755655D01*
X74025518Y-157755812D01*
X74150000Y-157768072D01*
X74550000Y-157768072D01*
X74674482Y-157755812D01*
X74675000Y-157755655D01*
X74675518Y-157755812D01*
X74800000Y-157768072D01*
X75200000Y-157768072D01*
X75324482Y-157755812D01*
X75325000Y-157755655D01*
X75325518Y-157755812D01*
X75450000Y-157768072D01*
X75850000Y-157768072D01*
X75974482Y-157755812D01*
X75976401Y-157755230D01*
X76068250Y-157765000D01*
X76136218Y-157697032D01*
X76204494Y-157660537D01*
X76301185Y-157581185D01*
X76373000Y-157493678D01*
X76373000Y-157606250D01*
X76531750Y-157765000D01*
X76631361Y-157754404D01*
X76750652Y-157716779D01*
X76860311Y-157656604D01*
X76877192Y-157642437D01*
X77002374Y-157700095D01*
X77248524Y-157759102D01*
X77501455Y-157768952D01*
X77751449Y-157729270D01*
X77825645Y-157701868D01*
X77781170Y-157731564D01*
X77602118Y-157910495D01*
X77461415Y-158120919D01*
X77364467Y-158354749D01*
X77315000Y-158603000D01*
X77315000Y-159003000D01*
X78473000Y-159003000D01*
X78473000Y-157610933D01*
X78727000Y-157610933D01*
X78727000Y-159003000D01*
X79885000Y-159003000D01*
X79885000Y-158603000D01*
X79835533Y-158354749D01*
X79738585Y-158120919D01*
X79597882Y-157910495D01*
X79418830Y-157731564D01*
X79208311Y-157591003D01*
X78974415Y-157494213D01*
X78925471Y-157486901D01*
X78727000Y-157610933D01*
X78473000Y-157610933D01*
X78274529Y-157486901D01*
X78225585Y-157494213D01*
X78087541Y-157551338D01*
X78130922Y-157365527D01*
X77425000Y-156659605D01*
X77410858Y-156673748D01*
X77231253Y-156494143D01*
X77245395Y-156480000D01*
X77604605Y-156480000D01*
X78310527Y-157185922D01*
X78539201Y-157132534D01*
X78645095Y-156902626D01*
X78704102Y-156656476D01*
X78713952Y-156403545D01*
X78674270Y-156153551D01*
X78586578Y-155916104D01*
X78539201Y-155827466D01*
X78310527Y-155774078D01*
X77604605Y-156480000D01*
X77245395Y-156480000D01*
X77231253Y-156465858D01*
X77410858Y-156286253D01*
X77425000Y-156300395D01*
X78130922Y-155594473D01*
X78077534Y-155365799D01*
X77847626Y-155259905D01*
X77601476Y-155200898D01*
X77348545Y-155191048D01*
X77136803Y-155224658D01*
X77138033Y-154887022D01*
X77127144Y-154762413D01*
X77092153Y-154642322D01*
X77034406Y-154531366D01*
X76956123Y-154433807D01*
X76860311Y-154353396D01*
X76750652Y-154293221D01*
X76631361Y-154255596D01*
X76531750Y-154245000D01*
X76373000Y-154403750D01*
X76373000Y-154516322D01*
X76301185Y-154428815D01*
X76204494Y-154349463D01*
X76136218Y-154312968D01*
X76068250Y-154245000D01*
X75976401Y-154254770D01*
X75974482Y-154254188D01*
X75850000Y-154241928D01*
X75450000Y-154241928D01*
X75325518Y-154254188D01*
X75325000Y-154254345D01*
X75324482Y-154254188D01*
X75200000Y-154241928D01*
X74800000Y-154241928D01*
X74675518Y-154254188D01*
X74675000Y-154254345D01*
X74674482Y-154254188D01*
X74550000Y-154241928D01*
X74477610Y-154241928D01*
X74476006Y-154225643D01*
X74470526Y-154207578D01*
X74467785Y-154188906D01*
X74448057Y-154133506D01*
X74430982Y-154077217D01*
X74422085Y-154060571D01*
X74415753Y-154042791D01*
X74385588Y-153992292D01*
X74357866Y-153940428D01*
X74345894Y-153925840D01*
X74336213Y-153909633D01*
X74296774Y-153865987D01*
X74259469Y-153820531D01*
X74214945Y-153783991D01*
X73558760Y-153187460D01*
X73540320Y-153094757D01*
X73466604Y-152916790D01*
X73359585Y-152756625D01*
X73223375Y-152620415D01*
X73063210Y-152513396D01*
X72885243Y-152439680D01*
X72696315Y-152402100D01*
X72503685Y-152402100D01*
X72314757Y-152439680D01*
X72136790Y-152513396D01*
X71976625Y-152620415D01*
X71840415Y-152756625D01*
X71733396Y-152916790D01*
X71659680Y-153094757D01*
X71622100Y-153283685D01*
X71622100Y-153476315D01*
X71659680Y-153665243D01*
X71733396Y-153843210D01*
X71840415Y-154003375D01*
X71976625Y-154139585D01*
X72136790Y-154246604D01*
X72314757Y-154320320D01*
X72503685Y-154357900D01*
X72505136Y-154357900D01*
X72888958Y-154706829D01*
X72874188Y-154755518D01*
X72861928Y-154880000D01*
X72861928Y-155227376D01*
X72751476Y-155200898D01*
X72498545Y-155191048D01*
X72248551Y-155230730D01*
X72011104Y-155318422D01*
X71922466Y-155365799D01*
X71869078Y-155594473D01*
X72575000Y-156300395D01*
X72589143Y-156286253D01*
X72768748Y-156465858D01*
X72754605Y-156480000D01*
X72768748Y-156494143D01*
X72589143Y-156673748D01*
X72575000Y-156659605D01*
X71869078Y-157365527D01*
X71912459Y-157551338D01*
X71774415Y-157494213D01*
X71725471Y-157486901D01*
X71527000Y-157610933D01*
X71273000Y-157610933D01*
X71074529Y-157486901D01*
X71025585Y-157494213D01*
X70791689Y-157591003D01*
X70581170Y-157731564D01*
X70402118Y-157910495D01*
X70261415Y-158120919D01*
X70164467Y-158354749D01*
X70115000Y-158603000D01*
X66685000Y-158603000D01*
X66685000Y-156556455D01*
X71286048Y-156556455D01*
X71325730Y-156806449D01*
X71413422Y-157043896D01*
X71460799Y-157132534D01*
X71689473Y-157185922D01*
X72395395Y-156480000D01*
X71689473Y-155774078D01*
X71460799Y-155827466D01*
X71354905Y-156057374D01*
X71295898Y-156303524D01*
X71286048Y-156556455D01*
X66685000Y-156556455D01*
X66685000Y-154413646D01*
X66688314Y-154380000D01*
X66675088Y-154245717D01*
X66635919Y-154116594D01*
X66572312Y-153997593D01*
X66486711Y-153893289D01*
X66382407Y-153807688D01*
X66263406Y-153744081D01*
X66134283Y-153704912D01*
X66033647Y-153695000D01*
X66000000Y-153691686D01*
X65966353Y-153695000D01*
X55685000Y-153695000D01*
X55685000Y-152260727D01*
X55789000Y-152260727D01*
X55789000Y-152499273D01*
X55835538Y-152733236D01*
X55926825Y-152953624D01*
X56059354Y-153151968D01*
X56228032Y-153320646D01*
X56426376Y-153453175D01*
X56646764Y-153544462D01*
X56880727Y-153591000D01*
X57119273Y-153591000D01*
X57353236Y-153544462D01*
X57573624Y-153453175D01*
X57771968Y-153320646D01*
X57940646Y-153151968D01*
X58073175Y-152953624D01*
X58164462Y-152733236D01*
X58211000Y-152499273D01*
X58211000Y-152260727D01*
X91789000Y-152260727D01*
X91789000Y-152499273D01*
X91835538Y-152733236D01*
X91926825Y-152953624D01*
X92059354Y-153151968D01*
X92228032Y-153320646D01*
X92426376Y-153453175D01*
X92646764Y-153544462D01*
X92880727Y-153591000D01*
X93119273Y-153591000D01*
X93353236Y-153544462D01*
X93573624Y-153453175D01*
X93771968Y-153320646D01*
X93940646Y-153151968D01*
X94073175Y-152953624D01*
X94164462Y-152733236D01*
X94211000Y-152499273D01*
X94211000Y-152260727D01*
X94164462Y-152026764D01*
X94073175Y-151806376D01*
X93940646Y-151608032D01*
X93771968Y-151439354D01*
X93573624Y-151306825D01*
X93353236Y-151215538D01*
X93119273Y-151169000D01*
X92880727Y-151169000D01*
X92646764Y-151215538D01*
X92426376Y-151306825D01*
X92228032Y-151439354D01*
X92059354Y-151608032D01*
X91926825Y-151806376D01*
X91835538Y-152026764D01*
X91789000Y-152260727D01*
X58211000Y-152260727D01*
X58164462Y-152026764D01*
X58073175Y-151806376D01*
X57940646Y-151608032D01*
X57771968Y-151439354D01*
X57573624Y-151306825D01*
X57353236Y-151215538D01*
X57119273Y-151169000D01*
X56880727Y-151169000D01*
X56646764Y-151215538D01*
X56426376Y-151306825D01*
X56228032Y-151439354D01*
X56059354Y-151608032D01*
X55926825Y-151806376D01*
X55835538Y-152026764D01*
X55789000Y-152260727D01*
X55685000Y-152260727D01*
X55685000Y-147248847D01*
X72450000Y-147248847D01*
X72450000Y-147751153D01*
X72547995Y-148243807D01*
X72740220Y-148707878D01*
X73019286Y-149125530D01*
X73374470Y-149480714D01*
X73792122Y-149759780D01*
X74256193Y-149952005D01*
X74748847Y-150050000D01*
X75251153Y-150050000D01*
X75743807Y-149952005D01*
X76207878Y-149759780D01*
X76625530Y-149480714D01*
X76980714Y-149125530D01*
X77259780Y-148707878D01*
X77452005Y-148243807D01*
X77550000Y-147751153D01*
X77550000Y-147248847D01*
X77452005Y-146756193D01*
X77259780Y-146292122D01*
X76980714Y-145874470D01*
X76625530Y-145519286D01*
X76207878Y-145240220D01*
X75743807Y-145047995D01*
X75251153Y-144950000D01*
X74748847Y-144950000D01*
X74256193Y-145047995D01*
X73792122Y-145240220D01*
X73374470Y-145519286D01*
X73019286Y-145874470D01*
X72740220Y-146292122D01*
X72547995Y-146756193D01*
X72450000Y-147248847D01*
X55685000Y-147248847D01*
X55685000Y-129930000D01*
X57311928Y-129930000D01*
X57311928Y-131630000D01*
X57324188Y-131754482D01*
X57360498Y-131874180D01*
X57419463Y-131984494D01*
X57498815Y-132081185D01*
X57595506Y-132160537D01*
X57705820Y-132219502D01*
X57825518Y-132255812D01*
X57950000Y-132268072D01*
X59650000Y-132268072D01*
X59774482Y-132255812D01*
X59894180Y-132219502D01*
X60004494Y-132160537D01*
X60101185Y-132081185D01*
X60180537Y-131984494D01*
X60239502Y-131874180D01*
X60241559Y-131867400D01*
X66887502Y-131867400D01*
X66898815Y-131881185D01*
X66995506Y-131960537D01*
X67105820Y-132019502D01*
X67140427Y-132030000D01*
X67105820Y-132040498D01*
X66995506Y-132099463D01*
X66898815Y-132178815D01*
X66819463Y-132275506D01*
X66760498Y-132385820D01*
X66724188Y-132505518D01*
X66711928Y-132630000D01*
X66711928Y-133330000D01*
X66724188Y-133454482D01*
X66760498Y-133574180D01*
X66819463Y-133684494D01*
X66898815Y-133781185D01*
X66995506Y-133860537D01*
X67105820Y-133919502D01*
X67212601Y-133951894D01*
X67212601Y-133988344D01*
X67160498Y-134085820D01*
X67124188Y-134205518D01*
X67111928Y-134330000D01*
X67111928Y-134930000D01*
X67124188Y-135054482D01*
X67160498Y-135174180D01*
X67163609Y-135180000D01*
X67160498Y-135185820D01*
X67124188Y-135305518D01*
X67111928Y-135430000D01*
X67111928Y-136030000D01*
X67124188Y-136154482D01*
X67160498Y-136274180D01*
X67219463Y-136384494D01*
X67298815Y-136481185D01*
X67395506Y-136560537D01*
X67505820Y-136619502D01*
X67625518Y-136655812D01*
X67750000Y-136668072D01*
X68250000Y-136668072D01*
X68374482Y-136655812D01*
X68494180Y-136619502D01*
X68604494Y-136560537D01*
X68657057Y-136517400D01*
X70232481Y-136517400D01*
X70315506Y-136585537D01*
X70425820Y-136644502D01*
X70467355Y-136657102D01*
X70469018Y-136662583D01*
X70501009Y-136722433D01*
X70531511Y-136783041D01*
X70537527Y-136790750D01*
X70542135Y-136799372D01*
X70585183Y-136851826D01*
X70603021Y-136874687D01*
X70609719Y-136881723D01*
X70640532Y-136919269D01*
X70663057Y-136937755D01*
X71014375Y-137306814D01*
X71025028Y-137319351D01*
X71041018Y-137334802D01*
X71056350Y-137350909D01*
X71068808Y-137361657D01*
X71311098Y-137595791D01*
X71252122Y-137620220D01*
X70834470Y-137899286D01*
X70479286Y-138254470D01*
X70200220Y-138672122D01*
X70007995Y-139136193D01*
X69910000Y-139628847D01*
X69910000Y-140131153D01*
X70007995Y-140623807D01*
X70200220Y-141087878D01*
X70479286Y-141505530D01*
X70834470Y-141860714D01*
X71252122Y-142139780D01*
X71716193Y-142332005D01*
X72208847Y-142430000D01*
X72711153Y-142430000D01*
X73203807Y-142332005D01*
X73667878Y-142139780D01*
X74085530Y-141860714D01*
X74440714Y-141505530D01*
X74719780Y-141087878D01*
X74912005Y-140623807D01*
X75000000Y-140181426D01*
X75087995Y-140623807D01*
X75280220Y-141087878D01*
X75559286Y-141505530D01*
X75914470Y-141860714D01*
X76332122Y-142139780D01*
X76796193Y-142332005D01*
X77288847Y-142430000D01*
X77791153Y-142430000D01*
X78283807Y-142332005D01*
X78747878Y-142139780D01*
X79165530Y-141860714D01*
X79520714Y-141505530D01*
X79799780Y-141087878D01*
X79992005Y-140623807D01*
X80090000Y-140131153D01*
X80090000Y-139628847D01*
X79992005Y-139136193D01*
X79799780Y-138672122D01*
X79520714Y-138254470D01*
X79179898Y-137913654D01*
X79229433Y-137864119D01*
X79259469Y-137839469D01*
X79284119Y-137809433D01*
X79284122Y-137809430D01*
X79357866Y-137719573D01*
X79430982Y-137582783D01*
X79476006Y-137434357D01*
X79477551Y-137418672D01*
X79487400Y-137318673D01*
X79487400Y-137318665D01*
X79491208Y-137280000D01*
X79487400Y-137241335D01*
X79487400Y-136637436D01*
X79584494Y-136585537D01*
X79681185Y-136506185D01*
X79760537Y-136409494D01*
X79819502Y-136299180D01*
X79855812Y-136179482D01*
X79868072Y-136055000D01*
X79868072Y-135405000D01*
X79855812Y-135280518D01*
X79848071Y-135255000D01*
X79855812Y-135229482D01*
X79868072Y-135105000D01*
X79868072Y-134455000D01*
X79855812Y-134330518D01*
X79848071Y-134305000D01*
X79855812Y-134279482D01*
X79868072Y-134155000D01*
X79865000Y-134115750D01*
X79706250Y-133957000D01*
X79624141Y-133957000D01*
X79584494Y-133924463D01*
X79474180Y-133865498D01*
X79354482Y-133829188D01*
X79230000Y-133816928D01*
X78553000Y-133816928D01*
X78553000Y-133703000D01*
X78573000Y-133703000D01*
X78573000Y-133028750D01*
X78827000Y-133028750D01*
X78827000Y-133703000D01*
X79706250Y-133703000D01*
X79865000Y-133544250D01*
X79868072Y-133505000D01*
X79855812Y-133380518D01*
X79819502Y-133260820D01*
X79760537Y-133150506D01*
X79681185Y-133053815D01*
X79584494Y-132974463D01*
X79474180Y-132915498D01*
X79354482Y-132879188D01*
X79230000Y-132866928D01*
X78985750Y-132870000D01*
X78827000Y-133028750D01*
X78573000Y-133028750D01*
X78414250Y-132870000D01*
X78170000Y-132866928D01*
X78045518Y-132879188D01*
X77925820Y-132915498D01*
X77815506Y-132974463D01*
X77718815Y-133053815D01*
X77639463Y-133150506D01*
X77600000Y-133224335D01*
X77560537Y-133150506D01*
X77481185Y-133053815D01*
X77384494Y-132974463D01*
X77274180Y-132915498D01*
X77154482Y-132879188D01*
X77030000Y-132866928D01*
X75970000Y-132866928D01*
X75845518Y-132879188D01*
X75725820Y-132915498D01*
X75615506Y-132974463D01*
X75518815Y-133053815D01*
X75465483Y-133118800D01*
X74434517Y-133118800D01*
X74381185Y-133053815D01*
X74284494Y-132974463D01*
X74174180Y-132915498D01*
X74054482Y-132879188D01*
X73930000Y-132866928D01*
X72911200Y-132866928D01*
X72911200Y-132155034D01*
X73001185Y-132081185D01*
X73080537Y-131984494D01*
X73139502Y-131874180D01*
X73150000Y-131839573D01*
X73160498Y-131874180D01*
X73219463Y-131984494D01*
X73298815Y-132081185D01*
X73395506Y-132160537D01*
X73505820Y-132219502D01*
X73625518Y-132255812D01*
X73750000Y-132268072D01*
X73814250Y-132265000D01*
X73973000Y-132106250D01*
X73973000Y-131107000D01*
X74227000Y-131107000D01*
X74227000Y-132106250D01*
X74385750Y-132265000D01*
X74450000Y-132268072D01*
X74574482Y-132255812D01*
X74694180Y-132219502D01*
X74804494Y-132160537D01*
X74901185Y-132081185D01*
X74980537Y-131984494D01*
X75039502Y-131874180D01*
X75075812Y-131754482D01*
X75088072Y-131630000D01*
X75085000Y-131265750D01*
X74926250Y-131107000D01*
X74227000Y-131107000D01*
X73973000Y-131107000D01*
X73953000Y-131107000D01*
X73953000Y-130853000D01*
X73973000Y-130853000D01*
X73973000Y-129853750D01*
X74227000Y-129853750D01*
X74227000Y-130853000D01*
X74926250Y-130853000D01*
X75085000Y-130694250D01*
X75088072Y-130330000D01*
X75075812Y-130205518D01*
X75039502Y-130085820D01*
X74980537Y-129975506D01*
X74901185Y-129878815D01*
X74804494Y-129799463D01*
X74694180Y-129740498D01*
X74574482Y-129704188D01*
X74450000Y-129691928D01*
X74385750Y-129695000D01*
X74227000Y-129853750D01*
X73973000Y-129853750D01*
X73814250Y-129695000D01*
X73750000Y-129691928D01*
X73625518Y-129704188D01*
X73505820Y-129740498D01*
X73395506Y-129799463D01*
X73298815Y-129878815D01*
X73219463Y-129975506D01*
X73160498Y-130085820D01*
X73150000Y-130120427D01*
X73139502Y-130085820D01*
X73080537Y-129975506D01*
X73001185Y-129878815D01*
X72904494Y-129799463D01*
X72794180Y-129740498D01*
X72674482Y-129704188D01*
X72550000Y-129691928D01*
X71850000Y-129691928D01*
X71725518Y-129704188D01*
X71605820Y-129740498D01*
X71599253Y-129744008D01*
X71666604Y-129643210D01*
X71740320Y-129465243D01*
X71777900Y-129276315D01*
X71777900Y-129083685D01*
X71740320Y-128894757D01*
X71666604Y-128716790D01*
X71559585Y-128556625D01*
X71423375Y-128420415D01*
X71263210Y-128313396D01*
X71085243Y-128239680D01*
X70896315Y-128202100D01*
X70703685Y-128202100D01*
X70514757Y-128239680D01*
X70336790Y-128313396D01*
X70176625Y-128420415D01*
X70040415Y-128556625D01*
X69933396Y-128716790D01*
X69859680Y-128894757D01*
X69831867Y-129034582D01*
X68763357Y-130103092D01*
X68650000Y-130091928D01*
X67350000Y-130091928D01*
X67225518Y-130104188D01*
X67105820Y-130140498D01*
X66995506Y-130199463D01*
X66898815Y-130278815D01*
X66887502Y-130292600D01*
X60288072Y-130292600D01*
X60288072Y-129930000D01*
X60275812Y-129805518D01*
X60239502Y-129685820D01*
X60180537Y-129575506D01*
X60101185Y-129478815D01*
X60004494Y-129399463D01*
X59894180Y-129340498D01*
X59821620Y-129318487D01*
X59953475Y-129186632D01*
X60115990Y-128943411D01*
X60227932Y-128673158D01*
X60285000Y-128386260D01*
X60285000Y-128093740D01*
X60227932Y-127806842D01*
X60115990Y-127536589D01*
X59953475Y-127293368D01*
X59746632Y-127086525D01*
X59709874Y-127061964D01*
X66615000Y-127061964D01*
X66615000Y-128698037D01*
X66635040Y-128901507D01*
X66714237Y-129162581D01*
X66842844Y-129403188D01*
X67015920Y-129614081D01*
X67226813Y-129787157D01*
X67467420Y-129915764D01*
X67728494Y-129994960D01*
X68000000Y-130021701D01*
X68271507Y-129994960D01*
X68532581Y-129915764D01*
X68773188Y-129787157D01*
X68984081Y-129614081D01*
X69157157Y-129403188D01*
X69285764Y-129162581D01*
X69364960Y-128901507D01*
X69385000Y-128698037D01*
X69385000Y-127061964D01*
X80615000Y-127061964D01*
X80615000Y-128698037D01*
X80635040Y-128901507D01*
X80714237Y-129162581D01*
X80842844Y-129403188D01*
X81015920Y-129614081D01*
X81226813Y-129787157D01*
X81467420Y-129915764D01*
X81728494Y-129994960D01*
X82000000Y-130021701D01*
X82271507Y-129994960D01*
X82532581Y-129915764D01*
X82773188Y-129787157D01*
X82984081Y-129614081D01*
X83157157Y-129403188D01*
X83285764Y-129162581D01*
X83364960Y-128901507D01*
X83385000Y-128698037D01*
X83385000Y-127061963D01*
X83364960Y-126858493D01*
X83285764Y-126597419D01*
X83157157Y-126356812D01*
X82984080Y-126145919D01*
X82773187Y-125972843D01*
X82532580Y-125844236D01*
X82271506Y-125765040D01*
X82000000Y-125738299D01*
X81728493Y-125765040D01*
X81467419Y-125844236D01*
X81226812Y-125972843D01*
X81015919Y-126145920D01*
X80842843Y-126356813D01*
X80714236Y-126597420D01*
X80635040Y-126858494D01*
X80615000Y-127061964D01*
X69385000Y-127061964D01*
X69385000Y-127061963D01*
X69364960Y-126858493D01*
X69285764Y-126597419D01*
X69157157Y-126356812D01*
X68984080Y-126145919D01*
X68773187Y-125972843D01*
X68532580Y-125844236D01*
X68271506Y-125765040D01*
X68000000Y-125738299D01*
X67728493Y-125765040D01*
X67467419Y-125844236D01*
X67226812Y-125972843D01*
X67015919Y-126145920D01*
X66842843Y-126356813D01*
X66714236Y-126597420D01*
X66635040Y-126858494D01*
X66615000Y-127061964D01*
X59709874Y-127061964D01*
X59503411Y-126924010D01*
X59233158Y-126812068D01*
X58946260Y-126755000D01*
X58653740Y-126755000D01*
X58366842Y-126812068D01*
X58096589Y-126924010D01*
X57853368Y-127086525D01*
X57646525Y-127293368D01*
X57484010Y-127536589D01*
X57372068Y-127806842D01*
X57315000Y-128093740D01*
X57315000Y-128386260D01*
X57372068Y-128673158D01*
X57484010Y-128943411D01*
X57646525Y-129186632D01*
X57778380Y-129318487D01*
X57705820Y-129340498D01*
X57595506Y-129399463D01*
X57498815Y-129478815D01*
X57419463Y-129575506D01*
X57360498Y-129685820D01*
X57324188Y-129805518D01*
X57311928Y-129930000D01*
X55685000Y-129930000D01*
X55685000Y-124830000D01*
X71311928Y-124830000D01*
X71324188Y-124954482D01*
X71360498Y-125074180D01*
X71419463Y-125184494D01*
X71498815Y-125281185D01*
X71595506Y-125360537D01*
X71705820Y-125419502D01*
X71825518Y-125455812D01*
X71950000Y-125468072D01*
X72014250Y-125465000D01*
X72173000Y-125306250D01*
X72173000Y-124307000D01*
X71473750Y-124307000D01*
X71315000Y-124465750D01*
X71311928Y-124830000D01*
X55685000Y-124830000D01*
X55685000Y-123530000D01*
X71311928Y-123530000D01*
X71315000Y-123894250D01*
X71473750Y-124053000D01*
X72173000Y-124053000D01*
X72173000Y-123053750D01*
X72427000Y-123053750D01*
X72427000Y-124053000D01*
X72447000Y-124053000D01*
X72447000Y-124307000D01*
X72427000Y-124307000D01*
X72427000Y-125306250D01*
X72585750Y-125465000D01*
X72650000Y-125468072D01*
X72774482Y-125455812D01*
X72894180Y-125419502D01*
X73004494Y-125360537D01*
X73101185Y-125281185D01*
X73180537Y-125184494D01*
X73239502Y-125074180D01*
X73250000Y-125039573D01*
X73260498Y-125074180D01*
X73319463Y-125184494D01*
X73398815Y-125281185D01*
X73495506Y-125360537D01*
X73605820Y-125419502D01*
X73725518Y-125455812D01*
X73850000Y-125468072D01*
X74550000Y-125468072D01*
X74674482Y-125455812D01*
X74794180Y-125419502D01*
X74904494Y-125360537D01*
X75001185Y-125281185D01*
X75080537Y-125184494D01*
X75131681Y-125088811D01*
X75169463Y-125159494D01*
X75248815Y-125256185D01*
X75345506Y-125335537D01*
X75455820Y-125394502D01*
X75575518Y-125430812D01*
X75700000Y-125443072D01*
X75914250Y-125440000D01*
X76073000Y-125281250D01*
X76073000Y-124307000D01*
X76053000Y-124307000D01*
X76053000Y-124053000D01*
X76073000Y-124053000D01*
X76073000Y-123078750D01*
X75990019Y-122995769D01*
X76093190Y-122892598D01*
X76120327Y-122870327D01*
X76209202Y-122762033D01*
X76218272Y-122745064D01*
X76275242Y-122638482D01*
X76309605Y-122525200D01*
X76410518Y-122555812D01*
X76535000Y-122568072D01*
X76599250Y-122565000D01*
X76758000Y-122406250D01*
X76758000Y-121207000D01*
X76738000Y-121207000D01*
X76738000Y-120953000D01*
X76758000Y-120953000D01*
X76758000Y-120933000D01*
X77012000Y-120933000D01*
X77012000Y-120953000D01*
X77032000Y-120953000D01*
X77032000Y-121207000D01*
X77012000Y-121207000D01*
X77012000Y-122406250D01*
X77071638Y-122465888D01*
X77059680Y-122494757D01*
X77022100Y-122683685D01*
X77022100Y-122876315D01*
X77051220Y-123022713D01*
X76944180Y-122965498D01*
X76824482Y-122929188D01*
X76700000Y-122916928D01*
X76485750Y-122920000D01*
X76327000Y-123078750D01*
X76327000Y-124053000D01*
X76347000Y-124053000D01*
X76347000Y-124307000D01*
X76327000Y-124307000D01*
X76327000Y-125281250D01*
X76485750Y-125440000D01*
X76700000Y-125443072D01*
X76824482Y-125430812D01*
X76944180Y-125394502D01*
X77054494Y-125335537D01*
X77151185Y-125256185D01*
X77200000Y-125196704D01*
X77248815Y-125256185D01*
X77345506Y-125335537D01*
X77455820Y-125394502D01*
X77575518Y-125430812D01*
X77700000Y-125443072D01*
X78700000Y-125443072D01*
X78824482Y-125430812D01*
X78944180Y-125394502D01*
X79054494Y-125335537D01*
X79151185Y-125256185D01*
X79230537Y-125159494D01*
X79289502Y-125049180D01*
X79325812Y-124929482D01*
X79338072Y-124805000D01*
X79338072Y-123555000D01*
X79325812Y-123430518D01*
X79289502Y-123310820D01*
X79230537Y-123200506D01*
X79151185Y-123103815D01*
X79054494Y-123024463D01*
X78958625Y-122973219D01*
X78977900Y-122876315D01*
X78977900Y-122683685D01*
X78942400Y-122505214D01*
X78942400Y-122392498D01*
X78956185Y-122381185D01*
X79035537Y-122284494D01*
X79094502Y-122174180D01*
X79130812Y-122054482D01*
X79143072Y-121930000D01*
X79143072Y-120230000D01*
X79130812Y-120105518D01*
X79094502Y-119985820D01*
X79035537Y-119875506D01*
X78956185Y-119778815D01*
X78859494Y-119699463D01*
X78749180Y-119640498D01*
X78629482Y-119604188D01*
X78587735Y-119600076D01*
X78589072Y-119586500D01*
X78586000Y-118615750D01*
X78427250Y-118457000D01*
X76377000Y-118457000D01*
X76377000Y-118477000D01*
X76123000Y-118477000D01*
X76123000Y-118457000D01*
X74072750Y-118457000D01*
X73914000Y-118615750D01*
X73910928Y-119586500D01*
X73912265Y-119600076D01*
X73870518Y-119604188D01*
X73750820Y-119640498D01*
X73640506Y-119699463D01*
X73543815Y-119778815D01*
X73464463Y-119875506D01*
X73405498Y-119985820D01*
X73369188Y-120105518D01*
X73356928Y-120230000D01*
X73360000Y-120794250D01*
X73518750Y-120953000D01*
X74218000Y-120953000D01*
X74218000Y-120933000D01*
X74472000Y-120933000D01*
X74472000Y-120953000D01*
X74492000Y-120953000D01*
X74492000Y-121207000D01*
X74472000Y-121207000D01*
X74472000Y-122406250D01*
X74551083Y-122485333D01*
X74539758Y-122506520D01*
X74499091Y-122640581D01*
X74488800Y-122745065D01*
X74488800Y-122745074D01*
X74485360Y-122780000D01*
X74488800Y-122814926D01*
X74488800Y-122891928D01*
X73850000Y-122891928D01*
X73725518Y-122904188D01*
X73605820Y-122940498D01*
X73495506Y-122999463D01*
X73398815Y-123078815D01*
X73319463Y-123175506D01*
X73260498Y-123285820D01*
X73250000Y-123320427D01*
X73239502Y-123285820D01*
X73180537Y-123175506D01*
X73101185Y-123078815D01*
X73004494Y-122999463D01*
X72894180Y-122940498D01*
X72774482Y-122904188D01*
X72650000Y-122891928D01*
X72585750Y-122895000D01*
X72427000Y-123053750D01*
X72173000Y-123053750D01*
X72014250Y-122895000D01*
X71950000Y-122891928D01*
X71825518Y-122904188D01*
X71705820Y-122940498D01*
X71595506Y-122999463D01*
X71498815Y-123078815D01*
X71419463Y-123175506D01*
X71360498Y-123285820D01*
X71324188Y-123405518D01*
X71311928Y-123530000D01*
X55685000Y-123530000D01*
X55685000Y-121076891D01*
X57278519Y-121076891D01*
X57375843Y-121351252D01*
X57524822Y-121601355D01*
X57719731Y-121817588D01*
X57953080Y-121991641D01*
X58215901Y-122116825D01*
X58363110Y-122161476D01*
X58593000Y-122040155D01*
X58593000Y-120847000D01*
X57399186Y-120847000D01*
X57278519Y-121076891D01*
X55685000Y-121076891D01*
X55685000Y-118033740D01*
X57235000Y-118033740D01*
X57235000Y-118326260D01*
X57292068Y-118613158D01*
X57404010Y-118883411D01*
X57566525Y-119126632D01*
X57773368Y-119333475D01*
X57949406Y-119451100D01*
X57719731Y-119622412D01*
X57524822Y-119838645D01*
X57375843Y-120088748D01*
X57278519Y-120363109D01*
X57399186Y-120593000D01*
X58593000Y-120593000D01*
X58593000Y-120573000D01*
X58847000Y-120573000D01*
X58847000Y-120593000D01*
X58867000Y-120593000D01*
X58867000Y-120847000D01*
X58847000Y-120847000D01*
X58847000Y-122040155D01*
X59076890Y-122161476D01*
X59224099Y-122116825D01*
X59486920Y-121991641D01*
X59720269Y-121817588D01*
X59915178Y-121601355D01*
X59984805Y-121484466D01*
X60106525Y-121666632D01*
X60313368Y-121873475D01*
X60556589Y-122035990D01*
X60826842Y-122147932D01*
X61113740Y-122205000D01*
X61406260Y-122205000D01*
X61693158Y-122147932D01*
X61963411Y-122035990D01*
X62206632Y-121873475D01*
X62413475Y-121666632D01*
X62530000Y-121492240D01*
X62646525Y-121666632D01*
X62853368Y-121873475D01*
X63096589Y-122035990D01*
X63366842Y-122147932D01*
X63653740Y-122205000D01*
X63946260Y-122205000D01*
X64233158Y-122147932D01*
X64503411Y-122035990D01*
X64662036Y-121930000D01*
X73356928Y-121930000D01*
X73369188Y-122054482D01*
X73405498Y-122174180D01*
X73464463Y-122284494D01*
X73543815Y-122381185D01*
X73640506Y-122460537D01*
X73750820Y-122519502D01*
X73870518Y-122555812D01*
X73995000Y-122568072D01*
X74059250Y-122565000D01*
X74218000Y-122406250D01*
X74218000Y-121207000D01*
X73518750Y-121207000D01*
X73360000Y-121365750D01*
X73356928Y-121930000D01*
X64662036Y-121930000D01*
X64746632Y-121873475D01*
X64953475Y-121666632D01*
X65115990Y-121423411D01*
X65227932Y-121153158D01*
X65285000Y-120866260D01*
X65285000Y-120573740D01*
X65227932Y-120286842D01*
X65115990Y-120016589D01*
X64953475Y-119773368D01*
X64821620Y-119641513D01*
X64894180Y-119619502D01*
X65004494Y-119560537D01*
X65101185Y-119481185D01*
X65180537Y-119384494D01*
X65239502Y-119274180D01*
X65275812Y-119154482D01*
X65288072Y-119030000D01*
X65288072Y-117330000D01*
X65275812Y-117205518D01*
X65239502Y-117085820D01*
X65180537Y-116975506D01*
X65101185Y-116878815D01*
X65004494Y-116799463D01*
X64894180Y-116740498D01*
X64774482Y-116704188D01*
X64650000Y-116691928D01*
X64383173Y-116691928D01*
X64340556Y-116640000D01*
X64327597Y-116624209D01*
X64327593Y-116624205D01*
X64305326Y-116597073D01*
X64278195Y-116574807D01*
X64111200Y-116407812D01*
X64111200Y-114265618D01*
X64120273Y-114271680D01*
X64381426Y-114379853D01*
X64658665Y-114435000D01*
X64941335Y-114435000D01*
X65218574Y-114379853D01*
X65479727Y-114271680D01*
X65714759Y-114114637D01*
X65914637Y-113914759D01*
X66071680Y-113679727D01*
X66179853Y-113418574D01*
X66235000Y-113141335D01*
X66235000Y-112858665D01*
X66179853Y-112581426D01*
X66071680Y-112320273D01*
X65914637Y-112085241D01*
X65714759Y-111885363D01*
X65482241Y-111730000D01*
X65714759Y-111574637D01*
X65914637Y-111374759D01*
X66071680Y-111139727D01*
X66179853Y-110878574D01*
X66235000Y-110601335D01*
X66235000Y-110318665D01*
X66179853Y-110041426D01*
X66071680Y-109780273D01*
X65914637Y-109545241D01*
X65714759Y-109345363D01*
X65482241Y-109190000D01*
X65714759Y-109034637D01*
X65914637Y-108834759D01*
X65984634Y-108730000D01*
X68461928Y-108730000D01*
X68461928Y-109930000D01*
X68474188Y-110054482D01*
X68510498Y-110174180D01*
X68569463Y-110284494D01*
X68648815Y-110381185D01*
X68745506Y-110460537D01*
X68855820Y-110519502D01*
X68975518Y-110555812D01*
X69046152Y-110562769D01*
X69022100Y-110683685D01*
X69022100Y-110876315D01*
X69059680Y-111065243D01*
X69133396Y-111243210D01*
X69212601Y-111361748D01*
X69212601Y-111476468D01*
X69148815Y-111528815D01*
X69069463Y-111625506D01*
X69010498Y-111735820D01*
X68974188Y-111855518D01*
X68961928Y-111980000D01*
X68961928Y-112780000D01*
X68974188Y-112904482D01*
X69010498Y-113024180D01*
X69069463Y-113134494D01*
X69148815Y-113231185D01*
X69245506Y-113310537D01*
X69355820Y-113369502D01*
X69475518Y-113405812D01*
X69600000Y-113418072D01*
X70400000Y-113418072D01*
X70524482Y-113405812D01*
X70644180Y-113369502D01*
X70754494Y-113310537D01*
X70800000Y-113273191D01*
X70845506Y-113310537D01*
X70955820Y-113369502D01*
X71075518Y-113405812D01*
X71200000Y-113418072D01*
X72000000Y-113418072D01*
X72124482Y-113405812D01*
X72244180Y-113369502D01*
X72354494Y-113310537D01*
X72451185Y-113231185D01*
X72530537Y-113134494D01*
X72553678Y-113091200D01*
X73069596Y-113091200D01*
X73119463Y-113184494D01*
X73198815Y-113281185D01*
X73295506Y-113360537D01*
X73405820Y-113419502D01*
X73525518Y-113455812D01*
X73650000Y-113468072D01*
X74150000Y-113468072D01*
X74274482Y-113455812D01*
X74394180Y-113419502D01*
X74504494Y-113360537D01*
X74601185Y-113281185D01*
X74650000Y-113221704D01*
X74698815Y-113281185D01*
X74795506Y-113360537D01*
X74888800Y-113410405D01*
X74888801Y-114125216D01*
X74819482Y-114104188D01*
X74695000Y-114091928D01*
X73995000Y-114091928D01*
X73870518Y-114104188D01*
X73750820Y-114140498D01*
X73640506Y-114199463D01*
X73543815Y-114278815D01*
X73464463Y-114375506D01*
X73405498Y-114485820D01*
X73369188Y-114605518D01*
X73356928Y-114730000D01*
X73356928Y-114792600D01*
X72981747Y-114792600D01*
X72863210Y-114713396D01*
X72685243Y-114639680D01*
X72496315Y-114602100D01*
X72303685Y-114602100D01*
X72114757Y-114639680D01*
X71936790Y-114713396D01*
X71776625Y-114820415D01*
X71640415Y-114956625D01*
X71533396Y-115116790D01*
X71459680Y-115294757D01*
X71422100Y-115483685D01*
X71422100Y-115676315D01*
X71459680Y-115865243D01*
X71533396Y-116043210D01*
X71640415Y-116203375D01*
X71776625Y-116339585D01*
X71936790Y-116446604D01*
X72114757Y-116520320D01*
X72303685Y-116557900D01*
X72496315Y-116557900D01*
X72685243Y-116520320D01*
X72863210Y-116446604D01*
X72981747Y-116367400D01*
X73356928Y-116367400D01*
X73356928Y-116430000D01*
X73369188Y-116554482D01*
X73405498Y-116674180D01*
X73464463Y-116784494D01*
X73543815Y-116881185D01*
X73640506Y-116960537D01*
X73750820Y-117019502D01*
X73870518Y-117055812D01*
X73912265Y-117059924D01*
X73910928Y-117073500D01*
X73914000Y-118044250D01*
X74072750Y-118203000D01*
X76123000Y-118203000D01*
X76123000Y-118183000D01*
X76377000Y-118183000D01*
X76377000Y-118203000D01*
X78427250Y-118203000D01*
X78550250Y-118080000D01*
X80736928Y-118080000D01*
X80749188Y-118204482D01*
X80785498Y-118324180D01*
X80844463Y-118434494D01*
X80923815Y-118531185D01*
X81020506Y-118610537D01*
X81130820Y-118669502D01*
X81250518Y-118705812D01*
X81375000Y-118718072D01*
X81714250Y-118715000D01*
X81873000Y-118556250D01*
X81873000Y-117707000D01*
X82127000Y-117707000D01*
X82127000Y-118556250D01*
X82285750Y-118715000D01*
X82625000Y-118718072D01*
X82749482Y-118705812D01*
X82869180Y-118669502D01*
X82979494Y-118610537D01*
X83076185Y-118531185D01*
X83155537Y-118434494D01*
X83214502Y-118324180D01*
X83250812Y-118204482D01*
X83263072Y-118080000D01*
X83260000Y-117865750D01*
X83101250Y-117707000D01*
X82127000Y-117707000D01*
X81873000Y-117707000D01*
X80898750Y-117707000D01*
X80740000Y-117865750D01*
X80736928Y-118080000D01*
X78550250Y-118080000D01*
X78586000Y-118044250D01*
X78589072Y-117073500D01*
X78587735Y-117059924D01*
X78629482Y-117055812D01*
X78749180Y-117019502D01*
X78859494Y-116960537D01*
X78956185Y-116881185D01*
X79035537Y-116784494D01*
X79094502Y-116674180D01*
X79130812Y-116554482D01*
X79143072Y-116430000D01*
X79143072Y-116367400D01*
X79618253Y-116367400D01*
X79736790Y-116446604D01*
X79914757Y-116520320D01*
X80103685Y-116557900D01*
X80296315Y-116557900D01*
X80485243Y-116520320D01*
X80663210Y-116446604D01*
X80781747Y-116367400D01*
X80808600Y-116367400D01*
X80844463Y-116434494D01*
X80923815Y-116531185D01*
X80983296Y-116580000D01*
X80923815Y-116628815D01*
X80844463Y-116725506D01*
X80785498Y-116835820D01*
X80749188Y-116955518D01*
X80736928Y-117080000D01*
X80740000Y-117294250D01*
X80898750Y-117453000D01*
X81873000Y-117453000D01*
X81873000Y-117433000D01*
X82127000Y-117433000D01*
X82127000Y-117453000D01*
X83101250Y-117453000D01*
X83260000Y-117294250D01*
X83263072Y-117080000D01*
X83250812Y-116955518D01*
X83214502Y-116835820D01*
X83155537Y-116725506D01*
X83076185Y-116628815D01*
X83016704Y-116580000D01*
X83076185Y-116531185D01*
X83155537Y-116434494D01*
X83214502Y-116324180D01*
X83250812Y-116204482D01*
X83263072Y-116080000D01*
X83263072Y-115080000D01*
X83250812Y-114955518D01*
X83214502Y-114835820D01*
X83155537Y-114725506D01*
X83076185Y-114628815D01*
X82979494Y-114549463D01*
X82869180Y-114490498D01*
X82749482Y-114454188D01*
X82625000Y-114441928D01*
X81375000Y-114441928D01*
X81250518Y-114454188D01*
X81130820Y-114490498D01*
X81020506Y-114549463D01*
X80923815Y-114628815D01*
X80844463Y-114725506D01*
X80808600Y-114792600D01*
X80781747Y-114792600D01*
X80663210Y-114713396D01*
X80485243Y-114639680D01*
X80296315Y-114602100D01*
X80103685Y-114602100D01*
X79914757Y-114639680D01*
X79736790Y-114713396D01*
X79618253Y-114792600D01*
X79143072Y-114792600D01*
X79143072Y-114730000D01*
X79130812Y-114605518D01*
X79094502Y-114485820D01*
X79035537Y-114375506D01*
X78956185Y-114278815D01*
X78859494Y-114199463D01*
X78749180Y-114140498D01*
X78629482Y-114104188D01*
X78505000Y-114091928D01*
X77805000Y-114091928D01*
X77680518Y-114104188D01*
X77596200Y-114129766D01*
X77596200Y-111699917D01*
X77599639Y-111664999D01*
X77596200Y-111630081D01*
X77596200Y-111630064D01*
X77585909Y-111525580D01*
X77545242Y-111391519D01*
X77479202Y-111267967D01*
X77477062Y-111265359D01*
X77412597Y-111186808D01*
X77412588Y-111186799D01*
X77390326Y-111159673D01*
X77363201Y-111137412D01*
X76311200Y-110085413D01*
X76311200Y-109295064D01*
X76300909Y-109190580D01*
X76288072Y-109148262D01*
X76288072Y-108880000D01*
X76275812Y-108755518D01*
X76239502Y-108635820D01*
X76180537Y-108525506D01*
X76101185Y-108428815D01*
X76004494Y-108349463D01*
X75894180Y-108290498D01*
X75774482Y-108254188D01*
X75650000Y-108241928D01*
X75150000Y-108241928D01*
X75025518Y-108254188D01*
X74905820Y-108290498D01*
X74795506Y-108349463D01*
X74698815Y-108428815D01*
X74650000Y-108488296D01*
X74601185Y-108428815D01*
X74504494Y-108349463D01*
X74394180Y-108290498D01*
X74274482Y-108254188D01*
X74150000Y-108241928D01*
X73650000Y-108241928D01*
X73525518Y-108254188D01*
X73405820Y-108290498D01*
X73295506Y-108349463D01*
X73198815Y-108428815D01*
X73119463Y-108525506D01*
X73108029Y-108546896D01*
X73089502Y-108485820D01*
X73030537Y-108375506D01*
X72951185Y-108278815D01*
X72854494Y-108199463D01*
X72744180Y-108140498D01*
X72624482Y-108104188D01*
X72500000Y-108091928D01*
X71300000Y-108091928D01*
X71175518Y-108104188D01*
X71055820Y-108140498D01*
X70945506Y-108199463D01*
X70848815Y-108278815D01*
X70800000Y-108338296D01*
X70751185Y-108278815D01*
X70654494Y-108199463D01*
X70544180Y-108140498D01*
X70424482Y-108104188D01*
X70300000Y-108091928D01*
X69100000Y-108091928D01*
X68975518Y-108104188D01*
X68855820Y-108140498D01*
X68745506Y-108199463D01*
X68648815Y-108278815D01*
X68569463Y-108375506D01*
X68510498Y-108485820D01*
X68474188Y-108605518D01*
X68461928Y-108730000D01*
X65984634Y-108730000D01*
X66071680Y-108599727D01*
X66179853Y-108338574D01*
X66235000Y-108061335D01*
X66235000Y-107778665D01*
X66179853Y-107501426D01*
X66071680Y-107240273D01*
X65914637Y-107005241D01*
X65714759Y-106805363D01*
X65482241Y-106650000D01*
X65714759Y-106494637D01*
X65914637Y-106294759D01*
X66071680Y-106059727D01*
X66179853Y-105798574D01*
X66235000Y-105521335D01*
X66235000Y-105238665D01*
X66199852Y-105061964D01*
X66615000Y-105061964D01*
X66615000Y-106698037D01*
X66635040Y-106901507D01*
X66714237Y-107162581D01*
X66842844Y-107403188D01*
X67015920Y-107614081D01*
X67226813Y-107787157D01*
X67467420Y-107915764D01*
X67728494Y-107994960D01*
X68000000Y-108021701D01*
X68271507Y-107994960D01*
X68532581Y-107915764D01*
X68773188Y-107787157D01*
X68984081Y-107614081D01*
X69157157Y-107403188D01*
X69285764Y-107162581D01*
X69364960Y-106901507D01*
X69385000Y-106698037D01*
X69385000Y-105061964D01*
X80615000Y-105061964D01*
X80615000Y-106698037D01*
X80635040Y-106901507D01*
X80714237Y-107162581D01*
X80842844Y-107403188D01*
X81015920Y-107614081D01*
X81226813Y-107787157D01*
X81467420Y-107915764D01*
X81728494Y-107994960D01*
X82000000Y-108021701D01*
X82271507Y-107994960D01*
X82532581Y-107915764D01*
X82773188Y-107787157D01*
X82984081Y-107614081D01*
X83157157Y-107403188D01*
X83285764Y-107162581D01*
X83364960Y-106901507D01*
X83385000Y-106698037D01*
X83385000Y-105061963D01*
X83364960Y-104858493D01*
X83285764Y-104597419D01*
X83157157Y-104356812D01*
X82984080Y-104145919D01*
X82773187Y-103972843D01*
X82532580Y-103844236D01*
X82271506Y-103765040D01*
X82000000Y-103738299D01*
X81728493Y-103765040D01*
X81467419Y-103844236D01*
X81226812Y-103972843D01*
X81015919Y-104145920D01*
X80842843Y-104356813D01*
X80714236Y-104597420D01*
X80635040Y-104858494D01*
X80615000Y-105061964D01*
X69385000Y-105061964D01*
X69385000Y-105061963D01*
X69364960Y-104858493D01*
X69285764Y-104597419D01*
X69157157Y-104356812D01*
X68984080Y-104145919D01*
X68773187Y-103972843D01*
X68532580Y-103844236D01*
X68271506Y-103765040D01*
X68000000Y-103738299D01*
X67728493Y-103765040D01*
X67467419Y-103844236D01*
X67226812Y-103972843D01*
X67015919Y-104145920D01*
X66842843Y-104356813D01*
X66714236Y-104597420D01*
X66635040Y-104858494D01*
X66615000Y-105061964D01*
X66199852Y-105061964D01*
X66179853Y-104961426D01*
X66071680Y-104700273D01*
X65914637Y-104465241D01*
X65714759Y-104265363D01*
X65479727Y-104108320D01*
X65218574Y-104000147D01*
X64941335Y-103945000D01*
X64658665Y-103945000D01*
X64381426Y-104000147D01*
X64120273Y-104108320D01*
X63885241Y-104265363D01*
X63685363Y-104465241D01*
X63528320Y-104700273D01*
X63420147Y-104961426D01*
X63365000Y-105238665D01*
X63365000Y-105521335D01*
X63420147Y-105798574D01*
X63528320Y-106059727D01*
X63685363Y-106294759D01*
X63885241Y-106494637D01*
X64117759Y-106650000D01*
X63885241Y-106805363D01*
X63685363Y-107005241D01*
X63528320Y-107240273D01*
X63420147Y-107501426D01*
X63365000Y-107778665D01*
X63365000Y-108061335D01*
X63412762Y-108301450D01*
X62321811Y-109392402D01*
X62294673Y-109414674D01*
X62205798Y-109522968D01*
X62139758Y-109646520D01*
X62099091Y-109780581D01*
X62088800Y-109885065D01*
X62088800Y-109885074D01*
X62085360Y-109920000D01*
X62088800Y-109954926D01*
X62088801Y-116345411D01*
X61683972Y-116750241D01*
X61406260Y-116695000D01*
X61113740Y-116695000D01*
X60826842Y-116752068D01*
X60556589Y-116864010D01*
X60313368Y-117026525D01*
X60106525Y-117233368D01*
X59990000Y-117407760D01*
X59873475Y-117233368D01*
X59666632Y-117026525D01*
X59423411Y-116864010D01*
X59153158Y-116752068D01*
X58866260Y-116695000D01*
X58573740Y-116695000D01*
X58286842Y-116752068D01*
X58016589Y-116864010D01*
X57773368Y-117026525D01*
X57566525Y-117233368D01*
X57404010Y-117476589D01*
X57292068Y-117746842D01*
X57235000Y-118033740D01*
X55685000Y-118033740D01*
X55685000Y-113349039D01*
X55788096Y-113349039D01*
X55828754Y-113483087D01*
X55948963Y-113737420D01*
X56116481Y-113963414D01*
X56324869Y-114152385D01*
X56566119Y-114297070D01*
X56830960Y-114391909D01*
X57053000Y-114270624D01*
X57053000Y-113127000D01*
X57307000Y-113127000D01*
X57307000Y-114270624D01*
X57529040Y-114391909D01*
X57793881Y-114297070D01*
X58035131Y-114152385D01*
X58243519Y-113963414D01*
X58411037Y-113737420D01*
X58531246Y-113483087D01*
X58571904Y-113349039D01*
X58449915Y-113127000D01*
X57307000Y-113127000D01*
X57053000Y-113127000D01*
X55910085Y-113127000D01*
X55788096Y-113349039D01*
X55685000Y-113349039D01*
X55685000Y-104580000D01*
X55741928Y-104580000D01*
X55741928Y-106180000D01*
X55754188Y-106304482D01*
X55790498Y-106424180D01*
X55849463Y-106534494D01*
X55928815Y-106631185D01*
X56025506Y-106710537D01*
X56135820Y-106769502D01*
X56255518Y-106805812D01*
X56263961Y-106806643D01*
X56065363Y-107005241D01*
X55908320Y-107240273D01*
X55800147Y-107501426D01*
X55745000Y-107778665D01*
X55745000Y-108061335D01*
X55800147Y-108338574D01*
X55908320Y-108599727D01*
X56065363Y-108834759D01*
X56265241Y-109034637D01*
X56497759Y-109190000D01*
X56265241Y-109345363D01*
X56065363Y-109545241D01*
X55908320Y-109780273D01*
X55800147Y-110041426D01*
X55745000Y-110318665D01*
X55745000Y-110601335D01*
X55800147Y-110878574D01*
X55908320Y-111139727D01*
X56065363Y-111374759D01*
X56265241Y-111574637D01*
X56500273Y-111731680D01*
X56510865Y-111736067D01*
X56324869Y-111847615D01*
X56116481Y-112036586D01*
X55948963Y-112262580D01*
X55828754Y-112516913D01*
X55788096Y-112650961D01*
X55910085Y-112873000D01*
X57053000Y-112873000D01*
X57053000Y-112853000D01*
X57307000Y-112853000D01*
X57307000Y-112873000D01*
X58449915Y-112873000D01*
X58571904Y-112650961D01*
X58531246Y-112516913D01*
X58411037Y-112262580D01*
X58243519Y-112036586D01*
X58035131Y-111847615D01*
X57849135Y-111736067D01*
X57859727Y-111731680D01*
X58094759Y-111574637D01*
X58294637Y-111374759D01*
X58451680Y-111139727D01*
X58559853Y-110878574D01*
X58615000Y-110601335D01*
X58615000Y-110318665D01*
X58559853Y-110041426D01*
X58451680Y-109780273D01*
X58294637Y-109545241D01*
X58094759Y-109345363D01*
X57862241Y-109190000D01*
X58094759Y-109034637D01*
X58294637Y-108834759D01*
X58451680Y-108599727D01*
X58559853Y-108338574D01*
X58615000Y-108061335D01*
X58615000Y-107778665D01*
X58559853Y-107501426D01*
X58451680Y-107240273D01*
X58294637Y-107005241D01*
X58096039Y-106806643D01*
X58104482Y-106805812D01*
X58224180Y-106769502D01*
X58334494Y-106710537D01*
X58431185Y-106631185D01*
X58510537Y-106534494D01*
X58569502Y-106424180D01*
X58605812Y-106304482D01*
X58618072Y-106180000D01*
X58618072Y-104580000D01*
X58605812Y-104455518D01*
X58569502Y-104335820D01*
X58510537Y-104225506D01*
X58431185Y-104128815D01*
X58334494Y-104049463D01*
X58224180Y-103990498D01*
X58104482Y-103954188D01*
X57980000Y-103941928D01*
X56380000Y-103941928D01*
X56255518Y-103954188D01*
X56135820Y-103990498D01*
X56025506Y-104049463D01*
X55928815Y-104128815D01*
X55849463Y-104225506D01*
X55790498Y-104335820D01*
X55754188Y-104455518D01*
X55741928Y-104580000D01*
X55685000Y-104580000D01*
X55685000Y-101216805D01*
X56512064Y-101216805D01*
X56521748Y-101341514D01*
X56555575Y-101461937D01*
X56612245Y-101573447D01*
X56689581Y-101671758D01*
X56784611Y-101753093D01*
X56893682Y-101814326D01*
X57012603Y-101853104D01*
X57118250Y-101865000D01*
X57277000Y-101706250D01*
X57277000Y-100907000D01*
X56673750Y-100907000D01*
X56515000Y-101065750D01*
X56512064Y-101216805D01*
X55685000Y-101216805D01*
X55685000Y-100343195D01*
X56512064Y-100343195D01*
X56515000Y-100494250D01*
X56673750Y-100653000D01*
X57277000Y-100653000D01*
X57277000Y-99853750D01*
X57523000Y-99853750D01*
X57523000Y-100653000D01*
X57547000Y-100653000D01*
X57547000Y-100907000D01*
X57523000Y-100907000D01*
X57523000Y-101706250D01*
X57681750Y-101865000D01*
X57787397Y-101853104D01*
X57906318Y-101814326D01*
X58015389Y-101753093D01*
X58110419Y-101671758D01*
X58149895Y-101621575D01*
X58198815Y-101681185D01*
X58295506Y-101760537D01*
X58405820Y-101819502D01*
X58525518Y-101855812D01*
X58650000Y-101868072D01*
X59150000Y-101868072D01*
X59274482Y-101855812D01*
X59394180Y-101819502D01*
X59504494Y-101760537D01*
X59601185Y-101681185D01*
X59680537Y-101584494D01*
X59729651Y-101492611D01*
X59776625Y-101539585D01*
X59936790Y-101646604D01*
X60114757Y-101720320D01*
X60303685Y-101757900D01*
X60496315Y-101757900D01*
X60685243Y-101720320D01*
X60863210Y-101646604D01*
X61023375Y-101539585D01*
X61071760Y-101491200D01*
X61417955Y-101491200D01*
X61424188Y-101554482D01*
X61460498Y-101674180D01*
X61519463Y-101784494D01*
X61598815Y-101881185D01*
X61695506Y-101960537D01*
X61805820Y-102019502D01*
X61925518Y-102055812D01*
X62050000Y-102068072D01*
X62750000Y-102068072D01*
X62874482Y-102055812D01*
X62994180Y-102019502D01*
X63104494Y-101960537D01*
X63201185Y-101881185D01*
X63280537Y-101784494D01*
X63339502Y-101674180D01*
X63350000Y-101639573D01*
X63360498Y-101674180D01*
X63419463Y-101784494D01*
X63498815Y-101881185D01*
X63595506Y-101960537D01*
X63705820Y-102019502D01*
X63825518Y-102055812D01*
X63950000Y-102068072D01*
X64650000Y-102068072D01*
X64774482Y-102055812D01*
X64894180Y-102019502D01*
X65004494Y-101960537D01*
X65101185Y-101881185D01*
X65180537Y-101784494D01*
X65239502Y-101674180D01*
X65271893Y-101567400D01*
X65818253Y-101567400D01*
X65936790Y-101646604D01*
X66114757Y-101720320D01*
X66303685Y-101757900D01*
X66496315Y-101757900D01*
X66685243Y-101720320D01*
X66863210Y-101646604D01*
X67023375Y-101539585D01*
X67159585Y-101403375D01*
X67266604Y-101243210D01*
X67340320Y-101065243D01*
X67377900Y-100876315D01*
X67377900Y-100683685D01*
X67340320Y-100494757D01*
X67266604Y-100316790D01*
X67159585Y-100156625D01*
X67023375Y-100020415D01*
X66863210Y-99913396D01*
X66685243Y-99839680D01*
X66496315Y-99802100D01*
X66303685Y-99802100D01*
X66114757Y-99839680D01*
X65936790Y-99913396D01*
X65818253Y-99992600D01*
X65271893Y-99992600D01*
X65239502Y-99885820D01*
X65180537Y-99775506D01*
X65101185Y-99678815D01*
X65004494Y-99599463D01*
X64894180Y-99540498D01*
X64774482Y-99504188D01*
X64650000Y-99491928D01*
X63950000Y-99491928D01*
X63825518Y-99504188D01*
X63705820Y-99540498D01*
X63595506Y-99599463D01*
X63498815Y-99678815D01*
X63419463Y-99775506D01*
X63360498Y-99885820D01*
X63350000Y-99920427D01*
X63339502Y-99885820D01*
X63280537Y-99775506D01*
X63201185Y-99678815D01*
X63104494Y-99599463D01*
X62994180Y-99540498D01*
X62874482Y-99504188D01*
X62750000Y-99491928D01*
X62050000Y-99491928D01*
X61925518Y-99504188D01*
X61805820Y-99540498D01*
X61695506Y-99599463D01*
X61598815Y-99678815D01*
X61519463Y-99775506D01*
X61460498Y-99885820D01*
X61424188Y-100005518D01*
X61417955Y-100068800D01*
X61071760Y-100068800D01*
X61023375Y-100020415D01*
X60863210Y-99913396D01*
X60685243Y-99839680D01*
X60496315Y-99802100D01*
X60303685Y-99802100D01*
X60114757Y-99839680D01*
X59936790Y-99913396D01*
X59776625Y-100020415D01*
X59729651Y-100067389D01*
X59680537Y-99975506D01*
X59601185Y-99878815D01*
X59504494Y-99799463D01*
X59394180Y-99740498D01*
X59274482Y-99704188D01*
X59150000Y-99691928D01*
X58650000Y-99691928D01*
X58525518Y-99704188D01*
X58405820Y-99740498D01*
X58295506Y-99799463D01*
X58198815Y-99878815D01*
X58149895Y-99938425D01*
X58110419Y-99888242D01*
X58015389Y-99806907D01*
X57906318Y-99745674D01*
X57787397Y-99706896D01*
X57681750Y-99695000D01*
X57523000Y-99853750D01*
X57277000Y-99853750D01*
X57118250Y-99695000D01*
X57012603Y-99706896D01*
X56893682Y-99745674D01*
X56784611Y-99806907D01*
X56689581Y-99888242D01*
X56612245Y-99986553D01*
X56555575Y-100098063D01*
X56521748Y-100218486D01*
X56512064Y-100343195D01*
X55685000Y-100343195D01*
X55685000Y-97415413D01*
X57544192Y-97415413D01*
X57639956Y-97679814D01*
X57929571Y-97820704D01*
X58241108Y-97902384D01*
X58562595Y-97921718D01*
X58881675Y-97877961D01*
X59186088Y-97772795D01*
X59360044Y-97679814D01*
X59455808Y-97415413D01*
X58500000Y-96459605D01*
X57544192Y-97415413D01*
X55685000Y-97415413D01*
X55685000Y-96342595D01*
X56858282Y-96342595D01*
X56902039Y-96661675D01*
X57007205Y-96966088D01*
X57100186Y-97140044D01*
X57364587Y-97235808D01*
X58320395Y-96280000D01*
X58679605Y-96280000D01*
X59635413Y-97235808D01*
X59899814Y-97140044D01*
X60040704Y-96850429D01*
X60122384Y-96538892D01*
X60141718Y-96217405D01*
X60128219Y-96118967D01*
X61365000Y-96118967D01*
X61365000Y-96441033D01*
X61427832Y-96756912D01*
X61551082Y-97054463D01*
X61730013Y-97322252D01*
X61957748Y-97549987D01*
X62225537Y-97728918D01*
X62523088Y-97852168D01*
X62838967Y-97915000D01*
X63161033Y-97915000D01*
X63476912Y-97852168D01*
X63774463Y-97728918D01*
X64042252Y-97549987D01*
X64269987Y-97322252D01*
X64448918Y-97054463D01*
X64572168Y-96756912D01*
X64635000Y-96441033D01*
X64635000Y-96118967D01*
X64572168Y-95803088D01*
X64448918Y-95505537D01*
X64269987Y-95237748D01*
X64042252Y-95010013D01*
X63774463Y-94831082D01*
X63476912Y-94707832D01*
X63161033Y-94645000D01*
X62838967Y-94645000D01*
X62523088Y-94707832D01*
X62225537Y-94831082D01*
X61957748Y-95010013D01*
X61730013Y-95237748D01*
X61551082Y-95505537D01*
X61427832Y-95803088D01*
X61365000Y-96118967D01*
X60128219Y-96118967D01*
X60097961Y-95898325D01*
X59992795Y-95593912D01*
X59899814Y-95419956D01*
X59635413Y-95324192D01*
X58679605Y-96280000D01*
X58320395Y-96280000D01*
X57364587Y-95324192D01*
X57100186Y-95419956D01*
X56959296Y-95709571D01*
X56877616Y-96021108D01*
X56858282Y-96342595D01*
X55685000Y-96342595D01*
X55685000Y-95144587D01*
X57544192Y-95144587D01*
X58500000Y-96100395D01*
X59455808Y-95144587D01*
X59360044Y-94880186D01*
X59070429Y-94739296D01*
X58758892Y-94657616D01*
X58437405Y-94638282D01*
X58118325Y-94682039D01*
X57813912Y-94787205D01*
X57639956Y-94880186D01*
X57544192Y-95144587D01*
X55685000Y-95144587D01*
X55685000Y-93628847D01*
X69910000Y-93628847D01*
X69910000Y-94131153D01*
X70007995Y-94623807D01*
X70200220Y-95087878D01*
X70479286Y-95505530D01*
X70834470Y-95860714D01*
X71252122Y-96139780D01*
X71716193Y-96332005D01*
X72208847Y-96430000D01*
X72711153Y-96430000D01*
X73203807Y-96332005D01*
X73667878Y-96139780D01*
X74085530Y-95860714D01*
X74440714Y-95505530D01*
X74719780Y-95087878D01*
X74912005Y-94623807D01*
X75000000Y-94181426D01*
X75087995Y-94623807D01*
X75280220Y-95087878D01*
X75559286Y-95505530D01*
X75914470Y-95860714D01*
X76332122Y-96139780D01*
X76796193Y-96332005D01*
X77288847Y-96430000D01*
X77791153Y-96430000D01*
X78283807Y-96332005D01*
X78747878Y-96139780D01*
X79165530Y-95860714D01*
X79520714Y-95505530D01*
X79799780Y-95087878D01*
X79992005Y-94623807D01*
X80090000Y-94131153D01*
X80090000Y-93628847D01*
X79992005Y-93136193D01*
X79799780Y-92672122D01*
X79520714Y-92254470D01*
X79165530Y-91899286D01*
X78747878Y-91620220D01*
X78283807Y-91427995D01*
X77791153Y-91330000D01*
X77288847Y-91330000D01*
X76796193Y-91427995D01*
X76332122Y-91620220D01*
X75914470Y-91899286D01*
X75559286Y-92254470D01*
X75280220Y-92672122D01*
X75087995Y-93136193D01*
X75000000Y-93578574D01*
X74912005Y-93136193D01*
X74719780Y-92672122D01*
X74440714Y-92254470D01*
X74085530Y-91899286D01*
X73667878Y-91620220D01*
X73203807Y-91427995D01*
X72711153Y-91330000D01*
X72208847Y-91330000D01*
X71716193Y-91427995D01*
X71252122Y-91620220D01*
X70834470Y-91899286D01*
X70479286Y-92254470D01*
X70200220Y-92672122D01*
X70007995Y-93136193D01*
X69910000Y-93628847D01*
X55685000Y-93628847D01*
X55685000Y-90915413D01*
X57544192Y-90915413D01*
X57639956Y-91179814D01*
X57929571Y-91320704D01*
X58241108Y-91402384D01*
X58562595Y-91421718D01*
X58881675Y-91377961D01*
X59186088Y-91272795D01*
X59360044Y-91179814D01*
X59455808Y-90915413D01*
X58500000Y-89959605D01*
X57544192Y-90915413D01*
X55685000Y-90915413D01*
X55685000Y-89842595D01*
X56858282Y-89842595D01*
X56902039Y-90161675D01*
X57007205Y-90466088D01*
X57100186Y-90640044D01*
X57364587Y-90735808D01*
X58320395Y-89780000D01*
X58679605Y-89780000D01*
X59635413Y-90735808D01*
X59899814Y-90640044D01*
X60040704Y-90350429D01*
X60122384Y-90038892D01*
X60141718Y-89717405D01*
X60128219Y-89618967D01*
X61365000Y-89618967D01*
X61365000Y-89941033D01*
X61427832Y-90256912D01*
X61551082Y-90554463D01*
X61730013Y-90822252D01*
X61957748Y-91049987D01*
X62225537Y-91228918D01*
X62523088Y-91352168D01*
X62838967Y-91415000D01*
X63161033Y-91415000D01*
X63476912Y-91352168D01*
X63774463Y-91228918D01*
X64042252Y-91049987D01*
X64269987Y-90822252D01*
X64448918Y-90554463D01*
X64572168Y-90256912D01*
X64635000Y-89941033D01*
X64635000Y-89618967D01*
X64572168Y-89303088D01*
X64448918Y-89005537D01*
X64269987Y-88737748D01*
X64042252Y-88510013D01*
X63774463Y-88331082D01*
X63476912Y-88207832D01*
X63161033Y-88145000D01*
X62838967Y-88145000D01*
X62523088Y-88207832D01*
X62225537Y-88331082D01*
X61957748Y-88510013D01*
X61730013Y-88737748D01*
X61551082Y-89005537D01*
X61427832Y-89303088D01*
X61365000Y-89618967D01*
X60128219Y-89618967D01*
X60097961Y-89398325D01*
X59992795Y-89093912D01*
X59899814Y-88919956D01*
X59635413Y-88824192D01*
X58679605Y-89780000D01*
X58320395Y-89780000D01*
X57364587Y-88824192D01*
X57100186Y-88919956D01*
X56959296Y-89209571D01*
X56877616Y-89521108D01*
X56858282Y-89842595D01*
X55685000Y-89842595D01*
X55685000Y-88644587D01*
X57544192Y-88644587D01*
X58500000Y-89600395D01*
X59455808Y-88644587D01*
X59360044Y-88380186D01*
X59070429Y-88239296D01*
X58758892Y-88157616D01*
X58437405Y-88138282D01*
X58118325Y-88182039D01*
X57813912Y-88287205D01*
X57639956Y-88380186D01*
X57544192Y-88644587D01*
X55685000Y-88644587D01*
X55685000Y-86008847D01*
X72450000Y-86008847D01*
X72450000Y-86511153D01*
X72547995Y-87003807D01*
X72740220Y-87467878D01*
X73019286Y-87885530D01*
X73374470Y-88240714D01*
X73792122Y-88519780D01*
X74256193Y-88712005D01*
X74748847Y-88810000D01*
X75251153Y-88810000D01*
X75743807Y-88712005D01*
X76207878Y-88519780D01*
X76625530Y-88240714D01*
X76980714Y-87885530D01*
X77259780Y-87467878D01*
X77452005Y-87003807D01*
X77550000Y-86511153D01*
X77550000Y-86008847D01*
X77452005Y-85516193D01*
X77259780Y-85052122D01*
X76980714Y-84634470D01*
X76625530Y-84279286D01*
X76207878Y-84000220D01*
X75743807Y-83807995D01*
X75251153Y-83710000D01*
X74748847Y-83710000D01*
X74256193Y-83807995D01*
X73792122Y-84000220D01*
X73374470Y-84279286D01*
X73019286Y-84634470D01*
X72740220Y-85052122D01*
X72547995Y-85516193D01*
X72450000Y-86008847D01*
X55685000Y-86008847D01*
X55685000Y-84536891D01*
X57278519Y-84536891D01*
X57375843Y-84811252D01*
X57524822Y-85061355D01*
X57719731Y-85277588D01*
X57953080Y-85451641D01*
X58215901Y-85576825D01*
X58363110Y-85621476D01*
X58593000Y-85500155D01*
X58593000Y-84307000D01*
X57399186Y-84307000D01*
X57278519Y-84536891D01*
X55685000Y-84536891D01*
X55685000Y-83823109D01*
X57278519Y-83823109D01*
X57399186Y-84053000D01*
X58593000Y-84053000D01*
X58593000Y-82859845D01*
X58847000Y-82859845D01*
X58847000Y-84053000D01*
X58867000Y-84053000D01*
X58867000Y-84307000D01*
X58847000Y-84307000D01*
X58847000Y-85500155D01*
X59076890Y-85621476D01*
X59224099Y-85576825D01*
X59486920Y-85451641D01*
X59720269Y-85277588D01*
X59915178Y-85061355D01*
X59984805Y-84944466D01*
X60106525Y-85126632D01*
X60313368Y-85333475D01*
X60556589Y-85495990D01*
X60826842Y-85607932D01*
X61113740Y-85665000D01*
X61406260Y-85665000D01*
X61693158Y-85607932D01*
X61963411Y-85495990D01*
X62206632Y-85333475D01*
X62338487Y-85201620D01*
X62360498Y-85274180D01*
X62419463Y-85384494D01*
X62498815Y-85481185D01*
X62595506Y-85560537D01*
X62705820Y-85619502D01*
X62825518Y-85655812D01*
X62950000Y-85668072D01*
X64650000Y-85668072D01*
X64774482Y-85655812D01*
X64894180Y-85619502D01*
X65004494Y-85560537D01*
X65101185Y-85481185D01*
X65180537Y-85384494D01*
X65239502Y-85274180D01*
X65275812Y-85154482D01*
X65288072Y-85030000D01*
X65288072Y-83330000D01*
X65275812Y-83205518D01*
X65239502Y-83085820D01*
X65180537Y-82975506D01*
X65101185Y-82878815D01*
X65004494Y-82799463D01*
X64894180Y-82740498D01*
X64774482Y-82704188D01*
X64650000Y-82691928D01*
X62950000Y-82691928D01*
X62825518Y-82704188D01*
X62705820Y-82740498D01*
X62595506Y-82799463D01*
X62498815Y-82878815D01*
X62419463Y-82975506D01*
X62360498Y-83085820D01*
X62338487Y-83158380D01*
X62206632Y-83026525D01*
X61963411Y-82864010D01*
X61693158Y-82752068D01*
X61406260Y-82695000D01*
X61113740Y-82695000D01*
X60826842Y-82752068D01*
X60556589Y-82864010D01*
X60313368Y-83026525D01*
X60106525Y-83233368D01*
X59984805Y-83415534D01*
X59915178Y-83298645D01*
X59720269Y-83082412D01*
X59486920Y-82908359D01*
X59224099Y-82783175D01*
X59076890Y-82738524D01*
X58847000Y-82859845D01*
X58593000Y-82859845D01*
X58363110Y-82738524D01*
X58215901Y-82783175D01*
X57953080Y-82908359D01*
X57719731Y-83082412D01*
X57524822Y-83298645D01*
X57375843Y-83548748D01*
X57278519Y-83823109D01*
X55685000Y-83823109D01*
X55685000Y-82260727D01*
X91789000Y-82260727D01*
X91789000Y-82499273D01*
X91835538Y-82733236D01*
X91926825Y-82953624D01*
X92059354Y-83151968D01*
X92228032Y-83320646D01*
X92426376Y-83453175D01*
X92646764Y-83544462D01*
X92880727Y-83591000D01*
X93119273Y-83591000D01*
X93353236Y-83544462D01*
X93573624Y-83453175D01*
X93771968Y-83320646D01*
X93940646Y-83151968D01*
X94073175Y-82953624D01*
X94164462Y-82733236D01*
X94211000Y-82499273D01*
X94211000Y-82260727D01*
X94164462Y-82026764D01*
X94073175Y-81806376D01*
X93940646Y-81608032D01*
X93771968Y-81439354D01*
X93573624Y-81306825D01*
X93353236Y-81215538D01*
X93119273Y-81169000D01*
X92880727Y-81169000D01*
X92646764Y-81215538D01*
X92426376Y-81306825D01*
X92228032Y-81439354D01*
X92059354Y-81608032D01*
X91926825Y-81806376D01*
X91835538Y-82026764D01*
X91789000Y-82260727D01*
X55685000Y-82260727D01*
X55685000Y-80065000D01*
X65966353Y-80065000D01*
X66000000Y-80068314D01*
X66033647Y-80065000D01*
X66134283Y-80055088D01*
X66263406Y-80015919D01*
X66382407Y-79952312D01*
X66486711Y-79866711D01*
X66572312Y-79762407D01*
X66635919Y-79643406D01*
X66675088Y-79514283D01*
X66688314Y-79380000D01*
X66685000Y-79346353D01*
X66685000Y-75065000D01*
X83315000Y-75065000D01*
X83315001Y-79346343D01*
G37*
X83315001Y-79346343D02*
X83311686Y-79380000D01*
X83324912Y-79514283D01*
X83364081Y-79643406D01*
X83427688Y-79762407D01*
X83513289Y-79866711D01*
X83617593Y-79952312D01*
X83736594Y-80015919D01*
X83865717Y-80055088D01*
X83966353Y-80065000D01*
X84000000Y-80068314D01*
X84033647Y-80065000D01*
X94315001Y-80065000D01*
X94315000Y-153695000D01*
X84033647Y-153695000D01*
X84000000Y-153691686D01*
X83966353Y-153695000D01*
X83865717Y-153704912D01*
X83736594Y-153744081D01*
X83617593Y-153807688D01*
X83513289Y-153893289D01*
X83427688Y-153997593D01*
X83364081Y-154116594D01*
X83324912Y-154245717D01*
X83311686Y-154380000D01*
X83315001Y-154413657D01*
X83315000Y-160195000D01*
X79701194Y-160195000D01*
X79738585Y-160139081D01*
X79835533Y-159905251D01*
X79885000Y-159657000D01*
X79885000Y-159257000D01*
X78727000Y-159257000D01*
X78727000Y-159277000D01*
X78473000Y-159277000D01*
X78473000Y-159257000D01*
X77315000Y-159257000D01*
X77315000Y-159657000D01*
X77364467Y-159905251D01*
X77461415Y-160139081D01*
X77498806Y-160195000D01*
X72501194Y-160195000D01*
X72538585Y-160139081D01*
X72635533Y-159905251D01*
X72685000Y-159657000D01*
X72685000Y-159257000D01*
X71527000Y-159257000D01*
X71527000Y-159277000D01*
X71273000Y-159277000D01*
X71273000Y-159257000D01*
X70115000Y-159257000D01*
X70115000Y-159657000D01*
X70164467Y-159905251D01*
X70261415Y-160139081D01*
X70298806Y-160195000D01*
X66685000Y-160195000D01*
X66685000Y-158603000D01*
X70115000Y-158603000D01*
X70115000Y-159003000D01*
X71273000Y-159003000D01*
X71273000Y-157610933D01*
X71527000Y-157610933D01*
X71527000Y-159003000D01*
X72685000Y-159003000D01*
X72685000Y-158603000D01*
X72635533Y-158354749D01*
X72538585Y-158120919D01*
X72397882Y-157910495D01*
X72218830Y-157731564D01*
X72182523Y-157707322D01*
X72398524Y-157759102D01*
X72651455Y-157768952D01*
X72901449Y-157729270D01*
X73127522Y-157645778D01*
X73145506Y-157660537D01*
X73255820Y-157719502D01*
X73375518Y-157755812D01*
X73500000Y-157768072D01*
X73900000Y-157768072D01*
X74024482Y-157755812D01*
X74025000Y-157755655D01*
X74025518Y-157755812D01*
X74150000Y-157768072D01*
X74550000Y-157768072D01*
X74674482Y-157755812D01*
X74675000Y-157755655D01*
X74675518Y-157755812D01*
X74800000Y-157768072D01*
X75200000Y-157768072D01*
X75324482Y-157755812D01*
X75325000Y-157755655D01*
X75325518Y-157755812D01*
X75450000Y-157768072D01*
X75850000Y-157768072D01*
X75974482Y-157755812D01*
X75976401Y-157755230D01*
X76068250Y-157765000D01*
X76136218Y-157697032D01*
X76204494Y-157660537D01*
X76301185Y-157581185D01*
X76373000Y-157493678D01*
X76373000Y-157606250D01*
X76531750Y-157765000D01*
X76631361Y-157754404D01*
X76750652Y-157716779D01*
X76860311Y-157656604D01*
X76877192Y-157642437D01*
X77002374Y-157700095D01*
X77248524Y-157759102D01*
X77501455Y-157768952D01*
X77751449Y-157729270D01*
X77825645Y-157701868D01*
X77781170Y-157731564D01*
X77602118Y-157910495D01*
X77461415Y-158120919D01*
X77364467Y-158354749D01*
X77315000Y-158603000D01*
X77315000Y-159003000D01*
X78473000Y-159003000D01*
X78473000Y-157610933D01*
X78727000Y-157610933D01*
X78727000Y-159003000D01*
X79885000Y-159003000D01*
X79885000Y-158603000D01*
X79835533Y-158354749D01*
X79738585Y-158120919D01*
X79597882Y-157910495D01*
X79418830Y-157731564D01*
X79208311Y-157591003D01*
X78974415Y-157494213D01*
X78925471Y-157486901D01*
X78727000Y-157610933D01*
X78473000Y-157610933D01*
X78274529Y-157486901D01*
X78225585Y-157494213D01*
X78087541Y-157551338D01*
X78130922Y-157365527D01*
X77425000Y-156659605D01*
X77410858Y-156673748D01*
X77231253Y-156494143D01*
X77245395Y-156480000D01*
X77604605Y-156480000D01*
X78310527Y-157185922D01*
X78539201Y-157132534D01*
X78645095Y-156902626D01*
X78704102Y-156656476D01*
X78713952Y-156403545D01*
X78674270Y-156153551D01*
X78586578Y-155916104D01*
X78539201Y-155827466D01*
X78310527Y-155774078D01*
X77604605Y-156480000D01*
X77245395Y-156480000D01*
X77231253Y-156465858D01*
X77410858Y-156286253D01*
X77425000Y-156300395D01*
X78130922Y-155594473D01*
X78077534Y-155365799D01*
X77847626Y-155259905D01*
X77601476Y-155200898D01*
X77348545Y-155191048D01*
X77136803Y-155224658D01*
X77138033Y-154887022D01*
X77127144Y-154762413D01*
X77092153Y-154642322D01*
X77034406Y-154531366D01*
X76956123Y-154433807D01*
X76860311Y-154353396D01*
X76750652Y-154293221D01*
X76631361Y-154255596D01*
X76531750Y-154245000D01*
X76373000Y-154403750D01*
X76373000Y-154516322D01*
X76301185Y-154428815D01*
X76204494Y-154349463D01*
X76136218Y-154312968D01*
X76068250Y-154245000D01*
X75976401Y-154254770D01*
X75974482Y-154254188D01*
X75850000Y-154241928D01*
X75450000Y-154241928D01*
X75325518Y-154254188D01*
X75325000Y-154254345D01*
X75324482Y-154254188D01*
X75200000Y-154241928D01*
X74800000Y-154241928D01*
X74675518Y-154254188D01*
X74675000Y-154254345D01*
X74674482Y-154254188D01*
X74550000Y-154241928D01*
X74477610Y-154241928D01*
X74476006Y-154225643D01*
X74470526Y-154207578D01*
X74467785Y-154188906D01*
X74448057Y-154133506D01*
X74430982Y-154077217D01*
X74422085Y-154060571D01*
X74415753Y-154042791D01*
X74385588Y-153992292D01*
X74357866Y-153940428D01*
X74345894Y-153925840D01*
X74336213Y-153909633D01*
X74296774Y-153865987D01*
X74259469Y-153820531D01*
X74214945Y-153783991D01*
X73558760Y-153187460D01*
X73540320Y-153094757D01*
X73466604Y-152916790D01*
X73359585Y-152756625D01*
X73223375Y-152620415D01*
X73063210Y-152513396D01*
X72885243Y-152439680D01*
X72696315Y-152402100D01*
X72503685Y-152402100D01*
X72314757Y-152439680D01*
X72136790Y-152513396D01*
X71976625Y-152620415D01*
X71840415Y-152756625D01*
X71733396Y-152916790D01*
X71659680Y-153094757D01*
X71622100Y-153283685D01*
X71622100Y-153476315D01*
X71659680Y-153665243D01*
X71733396Y-153843210D01*
X71840415Y-154003375D01*
X71976625Y-154139585D01*
X72136790Y-154246604D01*
X72314757Y-154320320D01*
X72503685Y-154357900D01*
X72505136Y-154357900D01*
X72888958Y-154706829D01*
X72874188Y-154755518D01*
X72861928Y-154880000D01*
X72861928Y-155227376D01*
X72751476Y-155200898D01*
X72498545Y-155191048D01*
X72248551Y-155230730D01*
X72011104Y-155318422D01*
X71922466Y-155365799D01*
X71869078Y-155594473D01*
X72575000Y-156300395D01*
X72589143Y-156286253D01*
X72768748Y-156465858D01*
X72754605Y-156480000D01*
X72768748Y-156494143D01*
X72589143Y-156673748D01*
X72575000Y-156659605D01*
X71869078Y-157365527D01*
X71912459Y-157551338D01*
X71774415Y-157494213D01*
X71725471Y-157486901D01*
X71527000Y-157610933D01*
X71273000Y-157610933D01*
X71074529Y-157486901D01*
X71025585Y-157494213D01*
X70791689Y-157591003D01*
X70581170Y-157731564D01*
X70402118Y-157910495D01*
X70261415Y-158120919D01*
X70164467Y-158354749D01*
X70115000Y-158603000D01*
X66685000Y-158603000D01*
X66685000Y-156556455D01*
X71286048Y-156556455D01*
X71325730Y-156806449D01*
X71413422Y-157043896D01*
X71460799Y-157132534D01*
X71689473Y-157185922D01*
X72395395Y-156480000D01*
X71689473Y-155774078D01*
X71460799Y-155827466D01*
X71354905Y-156057374D01*
X71295898Y-156303524D01*
X71286048Y-156556455D01*
X66685000Y-156556455D01*
X66685000Y-154413646D01*
X66688314Y-154380000D01*
X66675088Y-154245717D01*
X66635919Y-154116594D01*
X66572312Y-153997593D01*
X66486711Y-153893289D01*
X66382407Y-153807688D01*
X66263406Y-153744081D01*
X66134283Y-153704912D01*
X66033647Y-153695000D01*
X66000000Y-153691686D01*
X65966353Y-153695000D01*
X55685000Y-153695000D01*
X55685000Y-152260727D01*
X55789000Y-152260727D01*
X55789000Y-152499273D01*
X55835538Y-152733236D01*
X55926825Y-152953624D01*
X56059354Y-153151968D01*
X56228032Y-153320646D01*
X56426376Y-153453175D01*
X56646764Y-153544462D01*
X56880727Y-153591000D01*
X57119273Y-153591000D01*
X57353236Y-153544462D01*
X57573624Y-153453175D01*
X57771968Y-153320646D01*
X57940646Y-153151968D01*
X58073175Y-152953624D01*
X58164462Y-152733236D01*
X58211000Y-152499273D01*
X58211000Y-152260727D01*
X91789000Y-152260727D01*
X91789000Y-152499273D01*
X91835538Y-152733236D01*
X91926825Y-152953624D01*
X92059354Y-153151968D01*
X92228032Y-153320646D01*
X92426376Y-153453175D01*
X92646764Y-153544462D01*
X92880727Y-153591000D01*
X93119273Y-153591000D01*
X93353236Y-153544462D01*
X93573624Y-153453175D01*
X93771968Y-153320646D01*
X93940646Y-153151968D01*
X94073175Y-152953624D01*
X94164462Y-152733236D01*
X94211000Y-152499273D01*
X94211000Y-152260727D01*
X94164462Y-152026764D01*
X94073175Y-151806376D01*
X93940646Y-151608032D01*
X93771968Y-151439354D01*
X93573624Y-151306825D01*
X93353236Y-151215538D01*
X93119273Y-151169000D01*
X92880727Y-151169000D01*
X92646764Y-151215538D01*
X92426376Y-151306825D01*
X92228032Y-151439354D01*
X92059354Y-151608032D01*
X91926825Y-151806376D01*
X91835538Y-152026764D01*
X91789000Y-152260727D01*
X58211000Y-152260727D01*
X58164462Y-152026764D01*
X58073175Y-151806376D01*
X57940646Y-151608032D01*
X57771968Y-151439354D01*
X57573624Y-151306825D01*
X57353236Y-151215538D01*
X57119273Y-151169000D01*
X56880727Y-151169000D01*
X56646764Y-151215538D01*
X56426376Y-151306825D01*
X56228032Y-151439354D01*
X56059354Y-151608032D01*
X55926825Y-151806376D01*
X55835538Y-152026764D01*
X55789000Y-152260727D01*
X55685000Y-152260727D01*
X55685000Y-147248847D01*
X72450000Y-147248847D01*
X72450000Y-147751153D01*
X72547995Y-148243807D01*
X72740220Y-148707878D01*
X73019286Y-149125530D01*
X73374470Y-149480714D01*
X73792122Y-149759780D01*
X74256193Y-149952005D01*
X74748847Y-150050000D01*
X75251153Y-150050000D01*
X75743807Y-149952005D01*
X76207878Y-149759780D01*
X76625530Y-149480714D01*
X76980714Y-149125530D01*
X77259780Y-148707878D01*
X77452005Y-148243807D01*
X77550000Y-147751153D01*
X77550000Y-147248847D01*
X77452005Y-146756193D01*
X77259780Y-146292122D01*
X76980714Y-145874470D01*
X76625530Y-145519286D01*
X76207878Y-145240220D01*
X75743807Y-145047995D01*
X75251153Y-144950000D01*
X74748847Y-144950000D01*
X74256193Y-145047995D01*
X73792122Y-145240220D01*
X73374470Y-145519286D01*
X73019286Y-145874470D01*
X72740220Y-146292122D01*
X72547995Y-146756193D01*
X72450000Y-147248847D01*
X55685000Y-147248847D01*
X55685000Y-129930000D01*
X57311928Y-129930000D01*
X57311928Y-131630000D01*
X57324188Y-131754482D01*
X57360498Y-131874180D01*
X57419463Y-131984494D01*
X57498815Y-132081185D01*
X57595506Y-132160537D01*
X57705820Y-132219502D01*
X57825518Y-132255812D01*
X57950000Y-132268072D01*
X59650000Y-132268072D01*
X59774482Y-132255812D01*
X59894180Y-132219502D01*
X60004494Y-132160537D01*
X60101185Y-132081185D01*
X60180537Y-131984494D01*
X60239502Y-131874180D01*
X60241559Y-131867400D01*
X66887502Y-131867400D01*
X66898815Y-131881185D01*
X66995506Y-131960537D01*
X67105820Y-132019502D01*
X67140427Y-132030000D01*
X67105820Y-132040498D01*
X66995506Y-132099463D01*
X66898815Y-132178815D01*
X66819463Y-132275506D01*
X66760498Y-132385820D01*
X66724188Y-132505518D01*
X66711928Y-132630000D01*
X66711928Y-133330000D01*
X66724188Y-133454482D01*
X66760498Y-133574180D01*
X66819463Y-133684494D01*
X66898815Y-133781185D01*
X66995506Y-133860537D01*
X67105820Y-133919502D01*
X67212601Y-133951894D01*
X67212601Y-133988344D01*
X67160498Y-134085820D01*
X67124188Y-134205518D01*
X67111928Y-134330000D01*
X67111928Y-134930000D01*
X67124188Y-135054482D01*
X67160498Y-135174180D01*
X67163609Y-135180000D01*
X67160498Y-135185820D01*
X67124188Y-135305518D01*
X67111928Y-135430000D01*
X67111928Y-136030000D01*
X67124188Y-136154482D01*
X67160498Y-136274180D01*
X67219463Y-136384494D01*
X67298815Y-136481185D01*
X67395506Y-136560537D01*
X67505820Y-136619502D01*
X67625518Y-136655812D01*
X67750000Y-136668072D01*
X68250000Y-136668072D01*
X68374482Y-136655812D01*
X68494180Y-136619502D01*
X68604494Y-136560537D01*
X68657057Y-136517400D01*
X70232481Y-136517400D01*
X70315506Y-136585537D01*
X70425820Y-136644502D01*
X70467355Y-136657102D01*
X70469018Y-136662583D01*
X70501009Y-136722433D01*
X70531511Y-136783041D01*
X70537527Y-136790750D01*
X70542135Y-136799372D01*
X70585183Y-136851826D01*
X70603021Y-136874687D01*
X70609719Y-136881723D01*
X70640532Y-136919269D01*
X70663057Y-136937755D01*
X71014375Y-137306814D01*
X71025028Y-137319351D01*
X71041018Y-137334802D01*
X71056350Y-137350909D01*
X71068808Y-137361657D01*
X71311098Y-137595791D01*
X71252122Y-137620220D01*
X70834470Y-137899286D01*
X70479286Y-138254470D01*
X70200220Y-138672122D01*
X70007995Y-139136193D01*
X69910000Y-139628847D01*
X69910000Y-140131153D01*
X70007995Y-140623807D01*
X70200220Y-141087878D01*
X70479286Y-141505530D01*
X70834470Y-141860714D01*
X71252122Y-142139780D01*
X71716193Y-142332005D01*
X72208847Y-142430000D01*
X72711153Y-142430000D01*
X73203807Y-142332005D01*
X73667878Y-142139780D01*
X74085530Y-141860714D01*
X74440714Y-141505530D01*
X74719780Y-141087878D01*
X74912005Y-140623807D01*
X75000000Y-140181426D01*
X75087995Y-140623807D01*
X75280220Y-141087878D01*
X75559286Y-141505530D01*
X75914470Y-141860714D01*
X76332122Y-142139780D01*
X76796193Y-142332005D01*
X77288847Y-142430000D01*
X77791153Y-142430000D01*
X78283807Y-142332005D01*
X78747878Y-142139780D01*
X79165530Y-141860714D01*
X79520714Y-141505530D01*
X79799780Y-141087878D01*
X79992005Y-140623807D01*
X80090000Y-140131153D01*
X80090000Y-139628847D01*
X79992005Y-139136193D01*
X79799780Y-138672122D01*
X79520714Y-138254470D01*
X79179898Y-137913654D01*
X79229433Y-137864119D01*
X79259469Y-137839469D01*
X79284119Y-137809433D01*
X79284122Y-137809430D01*
X79357866Y-137719573D01*
X79430982Y-137582783D01*
X79476006Y-137434357D01*
X79477551Y-137418672D01*
X79487400Y-137318673D01*
X79487400Y-137318665D01*
X79491208Y-137280000D01*
X79487400Y-137241335D01*
X79487400Y-136637436D01*
X79584494Y-136585537D01*
X79681185Y-136506185D01*
X79760537Y-136409494D01*
X79819502Y-136299180D01*
X79855812Y-136179482D01*
X79868072Y-136055000D01*
X79868072Y-135405000D01*
X79855812Y-135280518D01*
X79848071Y-135255000D01*
X79855812Y-135229482D01*
X79868072Y-135105000D01*
X79868072Y-134455000D01*
X79855812Y-134330518D01*
X79848071Y-134305000D01*
X79855812Y-134279482D01*
X79868072Y-134155000D01*
X79865000Y-134115750D01*
X79706250Y-133957000D01*
X79624141Y-133957000D01*
X79584494Y-133924463D01*
X79474180Y-133865498D01*
X79354482Y-133829188D01*
X79230000Y-133816928D01*
X78553000Y-133816928D01*
X78553000Y-133703000D01*
X78573000Y-133703000D01*
X78573000Y-133028750D01*
X78827000Y-133028750D01*
X78827000Y-133703000D01*
X79706250Y-133703000D01*
X79865000Y-133544250D01*
X79868072Y-133505000D01*
X79855812Y-133380518D01*
X79819502Y-133260820D01*
X79760537Y-133150506D01*
X79681185Y-133053815D01*
X79584494Y-132974463D01*
X79474180Y-132915498D01*
X79354482Y-132879188D01*
X79230000Y-132866928D01*
X78985750Y-132870000D01*
X78827000Y-133028750D01*
X78573000Y-133028750D01*
X78414250Y-132870000D01*
X78170000Y-132866928D01*
X78045518Y-132879188D01*
X77925820Y-132915498D01*
X77815506Y-132974463D01*
X77718815Y-133053815D01*
X77639463Y-133150506D01*
X77600000Y-133224335D01*
X77560537Y-133150506D01*
X77481185Y-133053815D01*
X77384494Y-132974463D01*
X77274180Y-132915498D01*
X77154482Y-132879188D01*
X77030000Y-132866928D01*
X75970000Y-132866928D01*
X75845518Y-132879188D01*
X75725820Y-132915498D01*
X75615506Y-132974463D01*
X75518815Y-133053815D01*
X75465483Y-133118800D01*
X74434517Y-133118800D01*
X74381185Y-133053815D01*
X74284494Y-132974463D01*
X74174180Y-132915498D01*
X74054482Y-132879188D01*
X73930000Y-132866928D01*
X72911200Y-132866928D01*
X72911200Y-132155034D01*
X73001185Y-132081185D01*
X73080537Y-131984494D01*
X73139502Y-131874180D01*
X73150000Y-131839573D01*
X73160498Y-131874180D01*
X73219463Y-131984494D01*
X73298815Y-132081185D01*
X73395506Y-132160537D01*
X73505820Y-132219502D01*
X73625518Y-132255812D01*
X73750000Y-132268072D01*
X73814250Y-132265000D01*
X73973000Y-132106250D01*
X73973000Y-131107000D01*
X74227000Y-131107000D01*
X74227000Y-132106250D01*
X74385750Y-132265000D01*
X74450000Y-132268072D01*
X74574482Y-132255812D01*
X74694180Y-132219502D01*
X74804494Y-132160537D01*
X74901185Y-132081185D01*
X74980537Y-131984494D01*
X75039502Y-131874180D01*
X75075812Y-131754482D01*
X75088072Y-131630000D01*
X75085000Y-131265750D01*
X74926250Y-131107000D01*
X74227000Y-131107000D01*
X73973000Y-131107000D01*
X73953000Y-131107000D01*
X73953000Y-130853000D01*
X73973000Y-130853000D01*
X73973000Y-129853750D01*
X74227000Y-129853750D01*
X74227000Y-130853000D01*
X74926250Y-130853000D01*
X75085000Y-130694250D01*
X75088072Y-130330000D01*
X75075812Y-130205518D01*
X75039502Y-130085820D01*
X74980537Y-129975506D01*
X74901185Y-129878815D01*
X74804494Y-129799463D01*
X74694180Y-129740498D01*
X74574482Y-129704188D01*
X74450000Y-129691928D01*
X74385750Y-129695000D01*
X74227000Y-129853750D01*
X73973000Y-129853750D01*
X73814250Y-129695000D01*
X73750000Y-129691928D01*
X73625518Y-129704188D01*
X73505820Y-129740498D01*
X73395506Y-129799463D01*
X73298815Y-129878815D01*
X73219463Y-129975506D01*
X73160498Y-130085820D01*
X73150000Y-130120427D01*
X73139502Y-130085820D01*
X73080537Y-129975506D01*
X73001185Y-129878815D01*
X72904494Y-129799463D01*
X72794180Y-129740498D01*
X72674482Y-129704188D01*
X72550000Y-129691928D01*
X71850000Y-129691928D01*
X71725518Y-129704188D01*
X71605820Y-129740498D01*
X71599253Y-129744008D01*
X71666604Y-129643210D01*
X71740320Y-129465243D01*
X71777900Y-129276315D01*
X71777900Y-129083685D01*
X71740320Y-128894757D01*
X71666604Y-128716790D01*
X71559585Y-128556625D01*
X71423375Y-128420415D01*
X71263210Y-128313396D01*
X71085243Y-128239680D01*
X70896315Y-128202100D01*
X70703685Y-128202100D01*
X70514757Y-128239680D01*
X70336790Y-128313396D01*
X70176625Y-128420415D01*
X70040415Y-128556625D01*
X69933396Y-128716790D01*
X69859680Y-128894757D01*
X69831867Y-129034582D01*
X68763357Y-130103092D01*
X68650000Y-130091928D01*
X67350000Y-130091928D01*
X67225518Y-130104188D01*
X67105820Y-130140498D01*
X66995506Y-130199463D01*
X66898815Y-130278815D01*
X66887502Y-130292600D01*
X60288072Y-130292600D01*
X60288072Y-129930000D01*
X60275812Y-129805518D01*
X60239502Y-129685820D01*
X60180537Y-129575506D01*
X60101185Y-129478815D01*
X60004494Y-129399463D01*
X59894180Y-129340498D01*
X59821620Y-129318487D01*
X59953475Y-129186632D01*
X60115990Y-128943411D01*
X60227932Y-128673158D01*
X60285000Y-128386260D01*
X60285000Y-128093740D01*
X60227932Y-127806842D01*
X60115990Y-127536589D01*
X59953475Y-127293368D01*
X59746632Y-127086525D01*
X59709874Y-127061964D01*
X66615000Y-127061964D01*
X66615000Y-128698037D01*
X66635040Y-128901507D01*
X66714237Y-129162581D01*
X66842844Y-129403188D01*
X67015920Y-129614081D01*
X67226813Y-129787157D01*
X67467420Y-129915764D01*
X67728494Y-129994960D01*
X68000000Y-130021701D01*
X68271507Y-129994960D01*
X68532581Y-129915764D01*
X68773188Y-129787157D01*
X68984081Y-129614081D01*
X69157157Y-129403188D01*
X69285764Y-129162581D01*
X69364960Y-128901507D01*
X69385000Y-128698037D01*
X69385000Y-127061964D01*
X80615000Y-127061964D01*
X80615000Y-128698037D01*
X80635040Y-128901507D01*
X80714237Y-129162581D01*
X80842844Y-129403188D01*
X81015920Y-129614081D01*
X81226813Y-129787157D01*
X81467420Y-129915764D01*
X81728494Y-129994960D01*
X82000000Y-130021701D01*
X82271507Y-129994960D01*
X82532581Y-129915764D01*
X82773188Y-129787157D01*
X82984081Y-129614081D01*
X83157157Y-129403188D01*
X83285764Y-129162581D01*
X83364960Y-128901507D01*
X83385000Y-128698037D01*
X83385000Y-127061963D01*
X83364960Y-126858493D01*
X83285764Y-126597419D01*
X83157157Y-126356812D01*
X82984080Y-126145919D01*
X82773187Y-125972843D01*
X82532580Y-125844236D01*
X82271506Y-125765040D01*
X82000000Y-125738299D01*
X81728493Y-125765040D01*
X81467419Y-125844236D01*
X81226812Y-125972843D01*
X81015919Y-126145920D01*
X80842843Y-126356813D01*
X80714236Y-126597420D01*
X80635040Y-126858494D01*
X80615000Y-127061964D01*
X69385000Y-127061964D01*
X69385000Y-127061963D01*
X69364960Y-126858493D01*
X69285764Y-126597419D01*
X69157157Y-126356812D01*
X68984080Y-126145919D01*
X68773187Y-125972843D01*
X68532580Y-125844236D01*
X68271506Y-125765040D01*
X68000000Y-125738299D01*
X67728493Y-125765040D01*
X67467419Y-125844236D01*
X67226812Y-125972843D01*
X67015919Y-126145920D01*
X66842843Y-126356813D01*
X66714236Y-126597420D01*
X66635040Y-126858494D01*
X66615000Y-127061964D01*
X59709874Y-127061964D01*
X59503411Y-126924010D01*
X59233158Y-126812068D01*
X58946260Y-126755000D01*
X58653740Y-126755000D01*
X58366842Y-126812068D01*
X58096589Y-126924010D01*
X57853368Y-127086525D01*
X57646525Y-127293368D01*
X57484010Y-127536589D01*
X57372068Y-127806842D01*
X57315000Y-128093740D01*
X57315000Y-128386260D01*
X57372068Y-128673158D01*
X57484010Y-128943411D01*
X57646525Y-129186632D01*
X57778380Y-129318487D01*
X57705820Y-129340498D01*
X57595506Y-129399463D01*
X57498815Y-129478815D01*
X57419463Y-129575506D01*
X57360498Y-129685820D01*
X57324188Y-129805518D01*
X57311928Y-129930000D01*
X55685000Y-129930000D01*
X55685000Y-124830000D01*
X71311928Y-124830000D01*
X71324188Y-124954482D01*
X71360498Y-125074180D01*
X71419463Y-125184494D01*
X71498815Y-125281185D01*
X71595506Y-125360537D01*
X71705820Y-125419502D01*
X71825518Y-125455812D01*
X71950000Y-125468072D01*
X72014250Y-125465000D01*
X72173000Y-125306250D01*
X72173000Y-124307000D01*
X71473750Y-124307000D01*
X71315000Y-124465750D01*
X71311928Y-124830000D01*
X55685000Y-124830000D01*
X55685000Y-123530000D01*
X71311928Y-123530000D01*
X71315000Y-123894250D01*
X71473750Y-124053000D01*
X72173000Y-124053000D01*
X72173000Y-123053750D01*
X72427000Y-123053750D01*
X72427000Y-124053000D01*
X72447000Y-124053000D01*
X72447000Y-124307000D01*
X72427000Y-124307000D01*
X72427000Y-125306250D01*
X72585750Y-125465000D01*
X72650000Y-125468072D01*
X72774482Y-125455812D01*
X72894180Y-125419502D01*
X73004494Y-125360537D01*
X73101185Y-125281185D01*
X73180537Y-125184494D01*
X73239502Y-125074180D01*
X73250000Y-125039573D01*
X73260498Y-125074180D01*
X73319463Y-125184494D01*
X73398815Y-125281185D01*
X73495506Y-125360537D01*
X73605820Y-125419502D01*
X73725518Y-125455812D01*
X73850000Y-125468072D01*
X74550000Y-125468072D01*
X74674482Y-125455812D01*
X74794180Y-125419502D01*
X74904494Y-125360537D01*
X75001185Y-125281185D01*
X75080537Y-125184494D01*
X75131681Y-125088811D01*
X75169463Y-125159494D01*
X75248815Y-125256185D01*
X75345506Y-125335537D01*
X75455820Y-125394502D01*
X75575518Y-125430812D01*
X75700000Y-125443072D01*
X75914250Y-125440000D01*
X76073000Y-125281250D01*
X76073000Y-124307000D01*
X76053000Y-124307000D01*
X76053000Y-124053000D01*
X76073000Y-124053000D01*
X76073000Y-123078750D01*
X75990019Y-122995769D01*
X76093190Y-122892598D01*
X76120327Y-122870327D01*
X76209202Y-122762033D01*
X76218272Y-122745064D01*
X76275242Y-122638482D01*
X76309605Y-122525200D01*
X76410518Y-122555812D01*
X76535000Y-122568072D01*
X76599250Y-122565000D01*
X76758000Y-122406250D01*
X76758000Y-121207000D01*
X76738000Y-121207000D01*
X76738000Y-120953000D01*
X76758000Y-120953000D01*
X76758000Y-120933000D01*
X77012000Y-120933000D01*
X77012000Y-120953000D01*
X77032000Y-120953000D01*
X77032000Y-121207000D01*
X77012000Y-121207000D01*
X77012000Y-122406250D01*
X77071638Y-122465888D01*
X77059680Y-122494757D01*
X77022100Y-122683685D01*
X77022100Y-122876315D01*
X77051220Y-123022713D01*
X76944180Y-122965498D01*
X76824482Y-122929188D01*
X76700000Y-122916928D01*
X76485750Y-122920000D01*
X76327000Y-123078750D01*
X76327000Y-124053000D01*
X76347000Y-124053000D01*
X76347000Y-124307000D01*
X76327000Y-124307000D01*
X76327000Y-125281250D01*
X76485750Y-125440000D01*
X76700000Y-125443072D01*
X76824482Y-125430812D01*
X76944180Y-125394502D01*
X77054494Y-125335537D01*
X77151185Y-125256185D01*
X77200000Y-125196704D01*
X77248815Y-125256185D01*
X77345506Y-125335537D01*
X77455820Y-125394502D01*
X77575518Y-125430812D01*
X77700000Y-125443072D01*
X78700000Y-125443072D01*
X78824482Y-125430812D01*
X78944180Y-125394502D01*
X79054494Y-125335537D01*
X79151185Y-125256185D01*
X79230537Y-125159494D01*
X79289502Y-125049180D01*
X79325812Y-124929482D01*
X79338072Y-124805000D01*
X79338072Y-123555000D01*
X79325812Y-123430518D01*
X79289502Y-123310820D01*
X79230537Y-123200506D01*
X79151185Y-123103815D01*
X79054494Y-123024463D01*
X78958625Y-122973219D01*
X78977900Y-122876315D01*
X78977900Y-122683685D01*
X78942400Y-122505214D01*
X78942400Y-122392498D01*
X78956185Y-122381185D01*
X79035537Y-122284494D01*
X79094502Y-122174180D01*
X79130812Y-122054482D01*
X79143072Y-121930000D01*
X79143072Y-120230000D01*
X79130812Y-120105518D01*
X79094502Y-119985820D01*
X79035537Y-119875506D01*
X78956185Y-119778815D01*
X78859494Y-119699463D01*
X78749180Y-119640498D01*
X78629482Y-119604188D01*
X78587735Y-119600076D01*
X78589072Y-119586500D01*
X78586000Y-118615750D01*
X78427250Y-118457000D01*
X76377000Y-118457000D01*
X76377000Y-118477000D01*
X76123000Y-118477000D01*
X76123000Y-118457000D01*
X74072750Y-118457000D01*
X73914000Y-118615750D01*
X73910928Y-119586500D01*
X73912265Y-119600076D01*
X73870518Y-119604188D01*
X73750820Y-119640498D01*
X73640506Y-119699463D01*
X73543815Y-119778815D01*
X73464463Y-119875506D01*
X73405498Y-119985820D01*
X73369188Y-120105518D01*
X73356928Y-120230000D01*
X73360000Y-120794250D01*
X73518750Y-120953000D01*
X74218000Y-120953000D01*
X74218000Y-120933000D01*
X74472000Y-120933000D01*
X74472000Y-120953000D01*
X74492000Y-120953000D01*
X74492000Y-121207000D01*
X74472000Y-121207000D01*
X74472000Y-122406250D01*
X74551083Y-122485333D01*
X74539758Y-122506520D01*
X74499091Y-122640581D01*
X74488800Y-122745065D01*
X74488800Y-122745074D01*
X74485360Y-122780000D01*
X74488800Y-122814926D01*
X74488800Y-122891928D01*
X73850000Y-122891928D01*
X73725518Y-122904188D01*
X73605820Y-122940498D01*
X73495506Y-122999463D01*
X73398815Y-123078815D01*
X73319463Y-123175506D01*
X73260498Y-123285820D01*
X73250000Y-123320427D01*
X73239502Y-123285820D01*
X73180537Y-123175506D01*
X73101185Y-123078815D01*
X73004494Y-122999463D01*
X72894180Y-122940498D01*
X72774482Y-122904188D01*
X72650000Y-122891928D01*
X72585750Y-122895000D01*
X72427000Y-123053750D01*
X72173000Y-123053750D01*
X72014250Y-122895000D01*
X71950000Y-122891928D01*
X71825518Y-122904188D01*
X71705820Y-122940498D01*
X71595506Y-122999463D01*
X71498815Y-123078815D01*
X71419463Y-123175506D01*
X71360498Y-123285820D01*
X71324188Y-123405518D01*
X71311928Y-123530000D01*
X55685000Y-123530000D01*
X55685000Y-121076891D01*
X57278519Y-121076891D01*
X57375843Y-121351252D01*
X57524822Y-121601355D01*
X57719731Y-121817588D01*
X57953080Y-121991641D01*
X58215901Y-122116825D01*
X58363110Y-122161476D01*
X58593000Y-122040155D01*
X58593000Y-120847000D01*
X57399186Y-120847000D01*
X57278519Y-121076891D01*
X55685000Y-121076891D01*
X55685000Y-118033740D01*
X57235000Y-118033740D01*
X57235000Y-118326260D01*
X57292068Y-118613158D01*
X57404010Y-118883411D01*
X57566525Y-119126632D01*
X57773368Y-119333475D01*
X57949406Y-119451100D01*
X57719731Y-119622412D01*
X57524822Y-119838645D01*
X57375843Y-120088748D01*
X57278519Y-120363109D01*
X57399186Y-120593000D01*
X58593000Y-120593000D01*
X58593000Y-120573000D01*
X58847000Y-120573000D01*
X58847000Y-120593000D01*
X58867000Y-120593000D01*
X58867000Y-120847000D01*
X58847000Y-120847000D01*
X58847000Y-122040155D01*
X59076890Y-122161476D01*
X59224099Y-122116825D01*
X59486920Y-121991641D01*
X59720269Y-121817588D01*
X59915178Y-121601355D01*
X59984805Y-121484466D01*
X60106525Y-121666632D01*
X60313368Y-121873475D01*
X60556589Y-122035990D01*
X60826842Y-122147932D01*
X61113740Y-122205000D01*
X61406260Y-122205000D01*
X61693158Y-122147932D01*
X61963411Y-122035990D01*
X62206632Y-121873475D01*
X62413475Y-121666632D01*
X62530000Y-121492240D01*
X62646525Y-121666632D01*
X62853368Y-121873475D01*
X63096589Y-122035990D01*
X63366842Y-122147932D01*
X63653740Y-122205000D01*
X63946260Y-122205000D01*
X64233158Y-122147932D01*
X64503411Y-122035990D01*
X64662036Y-121930000D01*
X73356928Y-121930000D01*
X73369188Y-122054482D01*
X73405498Y-122174180D01*
X73464463Y-122284494D01*
X73543815Y-122381185D01*
X73640506Y-122460537D01*
X73750820Y-122519502D01*
X73870518Y-122555812D01*
X73995000Y-122568072D01*
X74059250Y-122565000D01*
X74218000Y-122406250D01*
X74218000Y-121207000D01*
X73518750Y-121207000D01*
X73360000Y-121365750D01*
X73356928Y-121930000D01*
X64662036Y-121930000D01*
X64746632Y-121873475D01*
X64953475Y-121666632D01*
X65115990Y-121423411D01*
X65227932Y-121153158D01*
X65285000Y-120866260D01*
X65285000Y-120573740D01*
X65227932Y-120286842D01*
X65115990Y-120016589D01*
X64953475Y-119773368D01*
X64821620Y-119641513D01*
X64894180Y-119619502D01*
X65004494Y-119560537D01*
X65101185Y-119481185D01*
X65180537Y-119384494D01*
X65239502Y-119274180D01*
X65275812Y-119154482D01*
X65288072Y-119030000D01*
X65288072Y-117330000D01*
X65275812Y-117205518D01*
X65239502Y-117085820D01*
X65180537Y-116975506D01*
X65101185Y-116878815D01*
X65004494Y-116799463D01*
X64894180Y-116740498D01*
X64774482Y-116704188D01*
X64650000Y-116691928D01*
X64383173Y-116691928D01*
X64340556Y-116640000D01*
X64327597Y-116624209D01*
X64327593Y-116624205D01*
X64305326Y-116597073D01*
X64278195Y-116574807D01*
X64111200Y-116407812D01*
X64111200Y-114265618D01*
X64120273Y-114271680D01*
X64381426Y-114379853D01*
X64658665Y-114435000D01*
X64941335Y-114435000D01*
X65218574Y-114379853D01*
X65479727Y-114271680D01*
X65714759Y-114114637D01*
X65914637Y-113914759D01*
X66071680Y-113679727D01*
X66179853Y-113418574D01*
X66235000Y-113141335D01*
X66235000Y-112858665D01*
X66179853Y-112581426D01*
X66071680Y-112320273D01*
X65914637Y-112085241D01*
X65714759Y-111885363D01*
X65482241Y-111730000D01*
X65714759Y-111574637D01*
X65914637Y-111374759D01*
X66071680Y-111139727D01*
X66179853Y-110878574D01*
X66235000Y-110601335D01*
X66235000Y-110318665D01*
X66179853Y-110041426D01*
X66071680Y-109780273D01*
X65914637Y-109545241D01*
X65714759Y-109345363D01*
X65482241Y-109190000D01*
X65714759Y-109034637D01*
X65914637Y-108834759D01*
X65984634Y-108730000D01*
X68461928Y-108730000D01*
X68461928Y-109930000D01*
X68474188Y-110054482D01*
X68510498Y-110174180D01*
X68569463Y-110284494D01*
X68648815Y-110381185D01*
X68745506Y-110460537D01*
X68855820Y-110519502D01*
X68975518Y-110555812D01*
X69046152Y-110562769D01*
X69022100Y-110683685D01*
X69022100Y-110876315D01*
X69059680Y-111065243D01*
X69133396Y-111243210D01*
X69212601Y-111361748D01*
X69212601Y-111476468D01*
X69148815Y-111528815D01*
X69069463Y-111625506D01*
X69010498Y-111735820D01*
X68974188Y-111855518D01*
X68961928Y-111980000D01*
X68961928Y-112780000D01*
X68974188Y-112904482D01*
X69010498Y-113024180D01*
X69069463Y-113134494D01*
X69148815Y-113231185D01*
X69245506Y-113310537D01*
X69355820Y-113369502D01*
X69475518Y-113405812D01*
X69600000Y-113418072D01*
X70400000Y-113418072D01*
X70524482Y-113405812D01*
X70644180Y-113369502D01*
X70754494Y-113310537D01*
X70800000Y-113273191D01*
X70845506Y-113310537D01*
X70955820Y-113369502D01*
X71075518Y-113405812D01*
X71200000Y-113418072D01*
X72000000Y-113418072D01*
X72124482Y-113405812D01*
X72244180Y-113369502D01*
X72354494Y-113310537D01*
X72451185Y-113231185D01*
X72530537Y-113134494D01*
X72553678Y-113091200D01*
X73069596Y-113091200D01*
X73119463Y-113184494D01*
X73198815Y-113281185D01*
X73295506Y-113360537D01*
X73405820Y-113419502D01*
X73525518Y-113455812D01*
X73650000Y-113468072D01*
X74150000Y-113468072D01*
X74274482Y-113455812D01*
X74394180Y-113419502D01*
X74504494Y-113360537D01*
X74601185Y-113281185D01*
X74650000Y-113221704D01*
X74698815Y-113281185D01*
X74795506Y-113360537D01*
X74888800Y-113410405D01*
X74888801Y-114125216D01*
X74819482Y-114104188D01*
X74695000Y-114091928D01*
X73995000Y-114091928D01*
X73870518Y-114104188D01*
X73750820Y-114140498D01*
X73640506Y-114199463D01*
X73543815Y-114278815D01*
X73464463Y-114375506D01*
X73405498Y-114485820D01*
X73369188Y-114605518D01*
X73356928Y-114730000D01*
X73356928Y-114792600D01*
X72981747Y-114792600D01*
X72863210Y-114713396D01*
X72685243Y-114639680D01*
X72496315Y-114602100D01*
X72303685Y-114602100D01*
X72114757Y-114639680D01*
X71936790Y-114713396D01*
X71776625Y-114820415D01*
X71640415Y-114956625D01*
X71533396Y-115116790D01*
X71459680Y-115294757D01*
X71422100Y-115483685D01*
X71422100Y-115676315D01*
X71459680Y-115865243D01*
X71533396Y-116043210D01*
X71640415Y-116203375D01*
X71776625Y-116339585D01*
X71936790Y-116446604D01*
X72114757Y-116520320D01*
X72303685Y-116557900D01*
X72496315Y-116557900D01*
X72685243Y-116520320D01*
X72863210Y-116446604D01*
X72981747Y-116367400D01*
X73356928Y-116367400D01*
X73356928Y-116430000D01*
X73369188Y-116554482D01*
X73405498Y-116674180D01*
X73464463Y-116784494D01*
X73543815Y-116881185D01*
X73640506Y-116960537D01*
X73750820Y-117019502D01*
X73870518Y-117055812D01*
X73912265Y-117059924D01*
X73910928Y-117073500D01*
X73914000Y-118044250D01*
X74072750Y-118203000D01*
X76123000Y-118203000D01*
X76123000Y-118183000D01*
X76377000Y-118183000D01*
X76377000Y-118203000D01*
X78427250Y-118203000D01*
X78550250Y-118080000D01*
X80736928Y-118080000D01*
X80749188Y-118204482D01*
X80785498Y-118324180D01*
X80844463Y-118434494D01*
X80923815Y-118531185D01*
X81020506Y-118610537D01*
X81130820Y-118669502D01*
X81250518Y-118705812D01*
X81375000Y-118718072D01*
X81714250Y-118715000D01*
X81873000Y-118556250D01*
X81873000Y-117707000D01*
X82127000Y-117707000D01*
X82127000Y-118556250D01*
X82285750Y-118715000D01*
X82625000Y-118718072D01*
X82749482Y-118705812D01*
X82869180Y-118669502D01*
X82979494Y-118610537D01*
X83076185Y-118531185D01*
X83155537Y-118434494D01*
X83214502Y-118324180D01*
X83250812Y-118204482D01*
X83263072Y-118080000D01*
X83260000Y-117865750D01*
X83101250Y-117707000D01*
X82127000Y-117707000D01*
X81873000Y-117707000D01*
X80898750Y-117707000D01*
X80740000Y-117865750D01*
X80736928Y-118080000D01*
X78550250Y-118080000D01*
X78586000Y-118044250D01*
X78589072Y-117073500D01*
X78587735Y-117059924D01*
X78629482Y-117055812D01*
X78749180Y-117019502D01*
X78859494Y-116960537D01*
X78956185Y-116881185D01*
X79035537Y-116784494D01*
X79094502Y-116674180D01*
X79130812Y-116554482D01*
X79143072Y-116430000D01*
X79143072Y-116367400D01*
X79618253Y-116367400D01*
X79736790Y-116446604D01*
X79914757Y-116520320D01*
X80103685Y-116557900D01*
X80296315Y-116557900D01*
X80485243Y-116520320D01*
X80663210Y-116446604D01*
X80781747Y-116367400D01*
X80808600Y-116367400D01*
X80844463Y-116434494D01*
X80923815Y-116531185D01*
X80983296Y-116580000D01*
X80923815Y-116628815D01*
X80844463Y-116725506D01*
X80785498Y-116835820D01*
X80749188Y-116955518D01*
X80736928Y-117080000D01*
X80740000Y-117294250D01*
X80898750Y-117453000D01*
X81873000Y-117453000D01*
X81873000Y-117433000D01*
X82127000Y-117433000D01*
X82127000Y-117453000D01*
X83101250Y-117453000D01*
X83260000Y-117294250D01*
X83263072Y-117080000D01*
X83250812Y-116955518D01*
X83214502Y-116835820D01*
X83155537Y-116725506D01*
X83076185Y-116628815D01*
X83016704Y-116580000D01*
X83076185Y-116531185D01*
X83155537Y-116434494D01*
X83214502Y-116324180D01*
X83250812Y-116204482D01*
X83263072Y-116080000D01*
X83263072Y-115080000D01*
X83250812Y-114955518D01*
X83214502Y-114835820D01*
X83155537Y-114725506D01*
X83076185Y-114628815D01*
X82979494Y-114549463D01*
X82869180Y-114490498D01*
X82749482Y-114454188D01*
X82625000Y-114441928D01*
X81375000Y-114441928D01*
X81250518Y-114454188D01*
X81130820Y-114490498D01*
X81020506Y-114549463D01*
X80923815Y-114628815D01*
X80844463Y-114725506D01*
X80808600Y-114792600D01*
X80781747Y-114792600D01*
X80663210Y-114713396D01*
X80485243Y-114639680D01*
X80296315Y-114602100D01*
X80103685Y-114602100D01*
X79914757Y-114639680D01*
X79736790Y-114713396D01*
X79618253Y-114792600D01*
X79143072Y-114792600D01*
X79143072Y-114730000D01*
X79130812Y-114605518D01*
X79094502Y-114485820D01*
X79035537Y-114375506D01*
X78956185Y-114278815D01*
X78859494Y-114199463D01*
X78749180Y-114140498D01*
X78629482Y-114104188D01*
X78505000Y-114091928D01*
X77805000Y-114091928D01*
X77680518Y-114104188D01*
X77596200Y-114129766D01*
X77596200Y-111699917D01*
X77599639Y-111664999D01*
X77596200Y-111630081D01*
X77596200Y-111630064D01*
X77585909Y-111525580D01*
X77545242Y-111391519D01*
X77479202Y-111267967D01*
X77477062Y-111265359D01*
X77412597Y-111186808D01*
X77412588Y-111186799D01*
X77390326Y-111159673D01*
X77363201Y-111137412D01*
X76311200Y-110085413D01*
X76311200Y-109295064D01*
X76300909Y-109190580D01*
X76288072Y-109148262D01*
X76288072Y-108880000D01*
X76275812Y-108755518D01*
X76239502Y-108635820D01*
X76180537Y-108525506D01*
X76101185Y-108428815D01*
X76004494Y-108349463D01*
X75894180Y-108290498D01*
X75774482Y-108254188D01*
X75650000Y-108241928D01*
X75150000Y-108241928D01*
X75025518Y-108254188D01*
X74905820Y-108290498D01*
X74795506Y-108349463D01*
X74698815Y-108428815D01*
X74650000Y-108488296D01*
X74601185Y-108428815D01*
X74504494Y-108349463D01*
X74394180Y-108290498D01*
X74274482Y-108254188D01*
X74150000Y-108241928D01*
X73650000Y-108241928D01*
X73525518Y-108254188D01*
X73405820Y-108290498D01*
X73295506Y-108349463D01*
X73198815Y-108428815D01*
X73119463Y-108525506D01*
X73108029Y-108546896D01*
X73089502Y-108485820D01*
X73030537Y-108375506D01*
X72951185Y-108278815D01*
X72854494Y-108199463D01*
X72744180Y-108140498D01*
X72624482Y-108104188D01*
X72500000Y-108091928D01*
X71300000Y-108091928D01*
X71175518Y-108104188D01*
X71055820Y-108140498D01*
X70945506Y-108199463D01*
X70848815Y-108278815D01*
X70800000Y-108338296D01*
X70751185Y-108278815D01*
X70654494Y-108199463D01*
X70544180Y-108140498D01*
X70424482Y-108104188D01*
X70300000Y-108091928D01*
X69100000Y-108091928D01*
X68975518Y-108104188D01*
X68855820Y-108140498D01*
X68745506Y-108199463D01*
X68648815Y-108278815D01*
X68569463Y-108375506D01*
X68510498Y-108485820D01*
X68474188Y-108605518D01*
X68461928Y-108730000D01*
X65984634Y-108730000D01*
X66071680Y-108599727D01*
X66179853Y-108338574D01*
X66235000Y-108061335D01*
X66235000Y-107778665D01*
X66179853Y-107501426D01*
X66071680Y-107240273D01*
X65914637Y-107005241D01*
X65714759Y-106805363D01*
X65482241Y-106650000D01*
X65714759Y-106494637D01*
X65914637Y-106294759D01*
X66071680Y-106059727D01*
X66179853Y-105798574D01*
X66235000Y-105521335D01*
X66235000Y-105238665D01*
X66199852Y-105061964D01*
X66615000Y-105061964D01*
X66615000Y-106698037D01*
X66635040Y-106901507D01*
X66714237Y-107162581D01*
X66842844Y-107403188D01*
X67015920Y-107614081D01*
X67226813Y-107787157D01*
X67467420Y-107915764D01*
X67728494Y-107994960D01*
X68000000Y-108021701D01*
X68271507Y-107994960D01*
X68532581Y-107915764D01*
X68773188Y-107787157D01*
X68984081Y-107614081D01*
X69157157Y-107403188D01*
X69285764Y-107162581D01*
X69364960Y-106901507D01*
X69385000Y-106698037D01*
X69385000Y-105061964D01*
X80615000Y-105061964D01*
X80615000Y-106698037D01*
X80635040Y-106901507D01*
X80714237Y-107162581D01*
X80842844Y-107403188D01*
X81015920Y-107614081D01*
X81226813Y-107787157D01*
X81467420Y-107915764D01*
X81728494Y-107994960D01*
X82000000Y-108021701D01*
X82271507Y-107994960D01*
X82532581Y-107915764D01*
X82773188Y-107787157D01*
X82984081Y-107614081D01*
X83157157Y-107403188D01*
X83285764Y-107162581D01*
X83364960Y-106901507D01*
X83385000Y-106698037D01*
X83385000Y-105061963D01*
X83364960Y-104858493D01*
X83285764Y-104597419D01*
X83157157Y-104356812D01*
X82984080Y-104145919D01*
X82773187Y-103972843D01*
X82532580Y-103844236D01*
X82271506Y-103765040D01*
X82000000Y-103738299D01*
X81728493Y-103765040D01*
X81467419Y-103844236D01*
X81226812Y-103972843D01*
X81015919Y-104145920D01*
X80842843Y-104356813D01*
X80714236Y-104597420D01*
X80635040Y-104858494D01*
X80615000Y-105061964D01*
X69385000Y-105061964D01*
X69385000Y-105061963D01*
X69364960Y-104858493D01*
X69285764Y-104597419D01*
X69157157Y-104356812D01*
X68984080Y-104145919D01*
X68773187Y-103972843D01*
X68532580Y-103844236D01*
X68271506Y-103765040D01*
X68000000Y-103738299D01*
X67728493Y-103765040D01*
X67467419Y-103844236D01*
X67226812Y-103972843D01*
X67015919Y-104145920D01*
X66842843Y-104356813D01*
X66714236Y-104597420D01*
X66635040Y-104858494D01*
X66615000Y-105061964D01*
X66199852Y-105061964D01*
X66179853Y-104961426D01*
X66071680Y-104700273D01*
X65914637Y-104465241D01*
X65714759Y-104265363D01*
X65479727Y-104108320D01*
X65218574Y-104000147D01*
X64941335Y-103945000D01*
X64658665Y-103945000D01*
X64381426Y-104000147D01*
X64120273Y-104108320D01*
X63885241Y-104265363D01*
X63685363Y-104465241D01*
X63528320Y-104700273D01*
X63420147Y-104961426D01*
X63365000Y-105238665D01*
X63365000Y-105521335D01*
X63420147Y-105798574D01*
X63528320Y-106059727D01*
X63685363Y-106294759D01*
X63885241Y-106494637D01*
X64117759Y-106650000D01*
X63885241Y-106805363D01*
X63685363Y-107005241D01*
X63528320Y-107240273D01*
X63420147Y-107501426D01*
X63365000Y-107778665D01*
X63365000Y-108061335D01*
X63412762Y-108301450D01*
X62321811Y-109392402D01*
X62294673Y-109414674D01*
X62205798Y-109522968D01*
X62139758Y-109646520D01*
X62099091Y-109780581D01*
X62088800Y-109885065D01*
X62088800Y-109885074D01*
X62085360Y-109920000D01*
X62088800Y-109954926D01*
X62088801Y-116345411D01*
X61683972Y-116750241D01*
X61406260Y-116695000D01*
X61113740Y-116695000D01*
X60826842Y-116752068D01*
X60556589Y-116864010D01*
X60313368Y-117026525D01*
X60106525Y-117233368D01*
X59990000Y-117407760D01*
X59873475Y-117233368D01*
X59666632Y-117026525D01*
X59423411Y-116864010D01*
X59153158Y-116752068D01*
X58866260Y-116695000D01*
X58573740Y-116695000D01*
X58286842Y-116752068D01*
X58016589Y-116864010D01*
X57773368Y-117026525D01*
X57566525Y-117233368D01*
X57404010Y-117476589D01*
X57292068Y-117746842D01*
X57235000Y-118033740D01*
X55685000Y-118033740D01*
X55685000Y-113349039D01*
X55788096Y-113349039D01*
X55828754Y-113483087D01*
X55948963Y-113737420D01*
X56116481Y-113963414D01*
X56324869Y-114152385D01*
X56566119Y-114297070D01*
X56830960Y-114391909D01*
X57053000Y-114270624D01*
X57053000Y-113127000D01*
X57307000Y-113127000D01*
X57307000Y-114270624D01*
X57529040Y-114391909D01*
X57793881Y-114297070D01*
X58035131Y-114152385D01*
X58243519Y-113963414D01*
X58411037Y-113737420D01*
X58531246Y-113483087D01*
X58571904Y-113349039D01*
X58449915Y-113127000D01*
X57307000Y-113127000D01*
X57053000Y-113127000D01*
X55910085Y-113127000D01*
X55788096Y-113349039D01*
X55685000Y-113349039D01*
X55685000Y-104580000D01*
X55741928Y-104580000D01*
X55741928Y-106180000D01*
X55754188Y-106304482D01*
X55790498Y-106424180D01*
X55849463Y-106534494D01*
X55928815Y-106631185D01*
X56025506Y-106710537D01*
X56135820Y-106769502D01*
X56255518Y-106805812D01*
X56263961Y-106806643D01*
X56065363Y-107005241D01*
X55908320Y-107240273D01*
X55800147Y-107501426D01*
X55745000Y-107778665D01*
X55745000Y-108061335D01*
X55800147Y-108338574D01*
X55908320Y-108599727D01*
X56065363Y-108834759D01*
X56265241Y-109034637D01*
X56497759Y-109190000D01*
X56265241Y-109345363D01*
X56065363Y-109545241D01*
X55908320Y-109780273D01*
X55800147Y-110041426D01*
X55745000Y-110318665D01*
X55745000Y-110601335D01*
X55800147Y-110878574D01*
X55908320Y-111139727D01*
X56065363Y-111374759D01*
X56265241Y-111574637D01*
X56500273Y-111731680D01*
X56510865Y-111736067D01*
X56324869Y-111847615D01*
X56116481Y-112036586D01*
X55948963Y-112262580D01*
X55828754Y-112516913D01*
X55788096Y-112650961D01*
X55910085Y-112873000D01*
X57053000Y-112873000D01*
X57053000Y-112853000D01*
X57307000Y-112853000D01*
X57307000Y-112873000D01*
X58449915Y-112873000D01*
X58571904Y-112650961D01*
X58531246Y-112516913D01*
X58411037Y-112262580D01*
X58243519Y-112036586D01*
X58035131Y-111847615D01*
X57849135Y-111736067D01*
X57859727Y-111731680D01*
X58094759Y-111574637D01*
X58294637Y-111374759D01*
X58451680Y-111139727D01*
X58559853Y-110878574D01*
X58615000Y-110601335D01*
X58615000Y-110318665D01*
X58559853Y-110041426D01*
X58451680Y-109780273D01*
X58294637Y-109545241D01*
X58094759Y-109345363D01*
X57862241Y-109190000D01*
X58094759Y-109034637D01*
X58294637Y-108834759D01*
X58451680Y-108599727D01*
X58559853Y-108338574D01*
X58615000Y-108061335D01*
X58615000Y-107778665D01*
X58559853Y-107501426D01*
X58451680Y-107240273D01*
X58294637Y-107005241D01*
X58096039Y-106806643D01*
X58104482Y-106805812D01*
X58224180Y-106769502D01*
X58334494Y-106710537D01*
X58431185Y-106631185D01*
X58510537Y-106534494D01*
X58569502Y-106424180D01*
X58605812Y-106304482D01*
X58618072Y-106180000D01*
X58618072Y-104580000D01*
X58605812Y-104455518D01*
X58569502Y-104335820D01*
X58510537Y-104225506D01*
X58431185Y-104128815D01*
X58334494Y-104049463D01*
X58224180Y-103990498D01*
X58104482Y-103954188D01*
X57980000Y-103941928D01*
X56380000Y-103941928D01*
X56255518Y-103954188D01*
X56135820Y-103990498D01*
X56025506Y-104049463D01*
X55928815Y-104128815D01*
X55849463Y-104225506D01*
X55790498Y-104335820D01*
X55754188Y-104455518D01*
X55741928Y-104580000D01*
X55685000Y-104580000D01*
X55685000Y-101216805D01*
X56512064Y-101216805D01*
X56521748Y-101341514D01*
X56555575Y-101461937D01*
X56612245Y-101573447D01*
X56689581Y-101671758D01*
X56784611Y-101753093D01*
X56893682Y-101814326D01*
X57012603Y-101853104D01*
X57118250Y-101865000D01*
X57277000Y-101706250D01*
X57277000Y-100907000D01*
X56673750Y-100907000D01*
X56515000Y-101065750D01*
X56512064Y-101216805D01*
X55685000Y-101216805D01*
X55685000Y-100343195D01*
X56512064Y-100343195D01*
X56515000Y-100494250D01*
X56673750Y-100653000D01*
X57277000Y-100653000D01*
X57277000Y-99853750D01*
X57523000Y-99853750D01*
X57523000Y-100653000D01*
X57547000Y-100653000D01*
X57547000Y-100907000D01*
X57523000Y-100907000D01*
X57523000Y-101706250D01*
X57681750Y-101865000D01*
X57787397Y-101853104D01*
X57906318Y-101814326D01*
X58015389Y-101753093D01*
X58110419Y-101671758D01*
X58149895Y-101621575D01*
X58198815Y-101681185D01*
X58295506Y-101760537D01*
X58405820Y-101819502D01*
X58525518Y-101855812D01*
X58650000Y-101868072D01*
X59150000Y-101868072D01*
X59274482Y-101855812D01*
X59394180Y-101819502D01*
X59504494Y-101760537D01*
X59601185Y-101681185D01*
X59680537Y-101584494D01*
X59729651Y-101492611D01*
X59776625Y-101539585D01*
X59936790Y-101646604D01*
X60114757Y-101720320D01*
X60303685Y-101757900D01*
X60496315Y-101757900D01*
X60685243Y-101720320D01*
X60863210Y-101646604D01*
X61023375Y-101539585D01*
X61071760Y-101491200D01*
X61417955Y-101491200D01*
X61424188Y-101554482D01*
X61460498Y-101674180D01*
X61519463Y-101784494D01*
X61598815Y-101881185D01*
X61695506Y-101960537D01*
X61805820Y-102019502D01*
X61925518Y-102055812D01*
X62050000Y-102068072D01*
X62750000Y-102068072D01*
X62874482Y-102055812D01*
X62994180Y-102019502D01*
X63104494Y-101960537D01*
X63201185Y-101881185D01*
X63280537Y-101784494D01*
X63339502Y-101674180D01*
X63350000Y-101639573D01*
X63360498Y-101674180D01*
X63419463Y-101784494D01*
X63498815Y-101881185D01*
X63595506Y-101960537D01*
X63705820Y-102019502D01*
X63825518Y-102055812D01*
X63950000Y-102068072D01*
X64650000Y-102068072D01*
X64774482Y-102055812D01*
X64894180Y-102019502D01*
X65004494Y-101960537D01*
X65101185Y-101881185D01*
X65180537Y-101784494D01*
X65239502Y-101674180D01*
X65271893Y-101567400D01*
X65818253Y-101567400D01*
X65936790Y-101646604D01*
X66114757Y-101720320D01*
X66303685Y-101757900D01*
X66496315Y-101757900D01*
X66685243Y-101720320D01*
X66863210Y-101646604D01*
X67023375Y-101539585D01*
X67159585Y-101403375D01*
X67266604Y-101243210D01*
X67340320Y-101065243D01*
X67377900Y-100876315D01*
X67377900Y-100683685D01*
X67340320Y-100494757D01*
X67266604Y-100316790D01*
X67159585Y-100156625D01*
X67023375Y-100020415D01*
X66863210Y-99913396D01*
X66685243Y-99839680D01*
X66496315Y-99802100D01*
X66303685Y-99802100D01*
X66114757Y-99839680D01*
X65936790Y-99913396D01*
X65818253Y-99992600D01*
X65271893Y-99992600D01*
X65239502Y-99885820D01*
X65180537Y-99775506D01*
X65101185Y-99678815D01*
X65004494Y-99599463D01*
X64894180Y-99540498D01*
X64774482Y-99504188D01*
X64650000Y-99491928D01*
X63950000Y-99491928D01*
X63825518Y-99504188D01*
X63705820Y-99540498D01*
X63595506Y-99599463D01*
X63498815Y-99678815D01*
X63419463Y-99775506D01*
X63360498Y-99885820D01*
X63350000Y-99920427D01*
X63339502Y-99885820D01*
X63280537Y-99775506D01*
X63201185Y-99678815D01*
X63104494Y-99599463D01*
X62994180Y-99540498D01*
X62874482Y-99504188D01*
X62750000Y-99491928D01*
X62050000Y-99491928D01*
X61925518Y-99504188D01*
X61805820Y-99540498D01*
X61695506Y-99599463D01*
X61598815Y-99678815D01*
X61519463Y-99775506D01*
X61460498Y-99885820D01*
X61424188Y-100005518D01*
X61417955Y-100068800D01*
X61071760Y-100068800D01*
X61023375Y-100020415D01*
X60863210Y-99913396D01*
X60685243Y-99839680D01*
X60496315Y-99802100D01*
X60303685Y-99802100D01*
X60114757Y-99839680D01*
X59936790Y-99913396D01*
X59776625Y-100020415D01*
X59729651Y-100067389D01*
X59680537Y-99975506D01*
X59601185Y-99878815D01*
X59504494Y-99799463D01*
X59394180Y-99740498D01*
X59274482Y-99704188D01*
X59150000Y-99691928D01*
X58650000Y-99691928D01*
X58525518Y-99704188D01*
X58405820Y-99740498D01*
X58295506Y-99799463D01*
X58198815Y-99878815D01*
X58149895Y-99938425D01*
X58110419Y-99888242D01*
X58015389Y-99806907D01*
X57906318Y-99745674D01*
X57787397Y-99706896D01*
X57681750Y-99695000D01*
X57523000Y-99853750D01*
X57277000Y-99853750D01*
X57118250Y-99695000D01*
X57012603Y-99706896D01*
X56893682Y-99745674D01*
X56784611Y-99806907D01*
X56689581Y-99888242D01*
X56612245Y-99986553D01*
X56555575Y-100098063D01*
X56521748Y-100218486D01*
X56512064Y-100343195D01*
X55685000Y-100343195D01*
X55685000Y-97415413D01*
X57544192Y-97415413D01*
X57639956Y-97679814D01*
X57929571Y-97820704D01*
X58241108Y-97902384D01*
X58562595Y-97921718D01*
X58881675Y-97877961D01*
X59186088Y-97772795D01*
X59360044Y-97679814D01*
X59455808Y-97415413D01*
X58500000Y-96459605D01*
X57544192Y-97415413D01*
X55685000Y-97415413D01*
X55685000Y-96342595D01*
X56858282Y-96342595D01*
X56902039Y-96661675D01*
X57007205Y-96966088D01*
X57100186Y-97140044D01*
X57364587Y-97235808D01*
X58320395Y-96280000D01*
X58679605Y-96280000D01*
X59635413Y-97235808D01*
X59899814Y-97140044D01*
X60040704Y-96850429D01*
X60122384Y-96538892D01*
X60141718Y-96217405D01*
X60128219Y-96118967D01*
X61365000Y-96118967D01*
X61365000Y-96441033D01*
X61427832Y-96756912D01*
X61551082Y-97054463D01*
X61730013Y-97322252D01*
X61957748Y-97549987D01*
X62225537Y-97728918D01*
X62523088Y-97852168D01*
X62838967Y-97915000D01*
X63161033Y-97915000D01*
X63476912Y-97852168D01*
X63774463Y-97728918D01*
X64042252Y-97549987D01*
X64269987Y-97322252D01*
X64448918Y-97054463D01*
X64572168Y-96756912D01*
X64635000Y-96441033D01*
X64635000Y-96118967D01*
X64572168Y-95803088D01*
X64448918Y-95505537D01*
X64269987Y-95237748D01*
X64042252Y-95010013D01*
X63774463Y-94831082D01*
X63476912Y-94707832D01*
X63161033Y-94645000D01*
X62838967Y-94645000D01*
X62523088Y-94707832D01*
X62225537Y-94831082D01*
X61957748Y-95010013D01*
X61730013Y-95237748D01*
X61551082Y-95505537D01*
X61427832Y-95803088D01*
X61365000Y-96118967D01*
X60128219Y-96118967D01*
X60097961Y-95898325D01*
X59992795Y-95593912D01*
X59899814Y-95419956D01*
X59635413Y-95324192D01*
X58679605Y-96280000D01*
X58320395Y-96280000D01*
X57364587Y-95324192D01*
X57100186Y-95419956D01*
X56959296Y-95709571D01*
X56877616Y-96021108D01*
X56858282Y-96342595D01*
X55685000Y-96342595D01*
X55685000Y-95144587D01*
X57544192Y-95144587D01*
X58500000Y-96100395D01*
X59455808Y-95144587D01*
X59360044Y-94880186D01*
X59070429Y-94739296D01*
X58758892Y-94657616D01*
X58437405Y-94638282D01*
X58118325Y-94682039D01*
X57813912Y-94787205D01*
X57639956Y-94880186D01*
X57544192Y-95144587D01*
X55685000Y-95144587D01*
X55685000Y-93628847D01*
X69910000Y-93628847D01*
X69910000Y-94131153D01*
X70007995Y-94623807D01*
X70200220Y-95087878D01*
X70479286Y-95505530D01*
X70834470Y-95860714D01*
X71252122Y-96139780D01*
X71716193Y-96332005D01*
X72208847Y-96430000D01*
X72711153Y-96430000D01*
X73203807Y-96332005D01*
X73667878Y-96139780D01*
X74085530Y-95860714D01*
X74440714Y-95505530D01*
X74719780Y-95087878D01*
X74912005Y-94623807D01*
X75000000Y-94181426D01*
X75087995Y-94623807D01*
X75280220Y-95087878D01*
X75559286Y-95505530D01*
X75914470Y-95860714D01*
X76332122Y-96139780D01*
X76796193Y-96332005D01*
X77288847Y-96430000D01*
X77791153Y-96430000D01*
X78283807Y-96332005D01*
X78747878Y-96139780D01*
X79165530Y-95860714D01*
X79520714Y-95505530D01*
X79799780Y-95087878D01*
X79992005Y-94623807D01*
X80090000Y-94131153D01*
X80090000Y-93628847D01*
X79992005Y-93136193D01*
X79799780Y-92672122D01*
X79520714Y-92254470D01*
X79165530Y-91899286D01*
X78747878Y-91620220D01*
X78283807Y-91427995D01*
X77791153Y-91330000D01*
X77288847Y-91330000D01*
X76796193Y-91427995D01*
X76332122Y-91620220D01*
X75914470Y-91899286D01*
X75559286Y-92254470D01*
X75280220Y-92672122D01*
X75087995Y-93136193D01*
X75000000Y-93578574D01*
X74912005Y-93136193D01*
X74719780Y-92672122D01*
X74440714Y-92254470D01*
X74085530Y-91899286D01*
X73667878Y-91620220D01*
X73203807Y-91427995D01*
X72711153Y-91330000D01*
X72208847Y-91330000D01*
X71716193Y-91427995D01*
X71252122Y-91620220D01*
X70834470Y-91899286D01*
X70479286Y-92254470D01*
X70200220Y-92672122D01*
X70007995Y-93136193D01*
X69910000Y-93628847D01*
X55685000Y-93628847D01*
X55685000Y-90915413D01*
X57544192Y-90915413D01*
X57639956Y-91179814D01*
X57929571Y-91320704D01*
X58241108Y-91402384D01*
X58562595Y-91421718D01*
X58881675Y-91377961D01*
X59186088Y-91272795D01*
X59360044Y-91179814D01*
X59455808Y-90915413D01*
X58500000Y-89959605D01*
X57544192Y-90915413D01*
X55685000Y-90915413D01*
X55685000Y-89842595D01*
X56858282Y-89842595D01*
X56902039Y-90161675D01*
X57007205Y-90466088D01*
X57100186Y-90640044D01*
X57364587Y-90735808D01*
X58320395Y-89780000D01*
X58679605Y-89780000D01*
X59635413Y-90735808D01*
X59899814Y-90640044D01*
X60040704Y-90350429D01*
X60122384Y-90038892D01*
X60141718Y-89717405D01*
X60128219Y-89618967D01*
X61365000Y-89618967D01*
X61365000Y-89941033D01*
X61427832Y-90256912D01*
X61551082Y-90554463D01*
X61730013Y-90822252D01*
X61957748Y-91049987D01*
X62225537Y-91228918D01*
X62523088Y-91352168D01*
X62838967Y-91415000D01*
X63161033Y-91415000D01*
X63476912Y-91352168D01*
X63774463Y-91228918D01*
X64042252Y-91049987D01*
X64269987Y-90822252D01*
X64448918Y-90554463D01*
X64572168Y-90256912D01*
X64635000Y-89941033D01*
X64635000Y-89618967D01*
X64572168Y-89303088D01*
X64448918Y-89005537D01*
X64269987Y-88737748D01*
X64042252Y-88510013D01*
X63774463Y-88331082D01*
X63476912Y-88207832D01*
X63161033Y-88145000D01*
X62838967Y-88145000D01*
X62523088Y-88207832D01*
X62225537Y-88331082D01*
X61957748Y-88510013D01*
X61730013Y-88737748D01*
X61551082Y-89005537D01*
X61427832Y-89303088D01*
X61365000Y-89618967D01*
X60128219Y-89618967D01*
X60097961Y-89398325D01*
X59992795Y-89093912D01*
X59899814Y-88919956D01*
X59635413Y-88824192D01*
X58679605Y-89780000D01*
X58320395Y-89780000D01*
X57364587Y-88824192D01*
X57100186Y-88919956D01*
X56959296Y-89209571D01*
X56877616Y-89521108D01*
X56858282Y-89842595D01*
X55685000Y-89842595D01*
X55685000Y-88644587D01*
X57544192Y-88644587D01*
X58500000Y-89600395D01*
X59455808Y-88644587D01*
X59360044Y-88380186D01*
X59070429Y-88239296D01*
X58758892Y-88157616D01*
X58437405Y-88138282D01*
X58118325Y-88182039D01*
X57813912Y-88287205D01*
X57639956Y-88380186D01*
X57544192Y-88644587D01*
X55685000Y-88644587D01*
X55685000Y-86008847D01*
X72450000Y-86008847D01*
X72450000Y-86511153D01*
X72547995Y-87003807D01*
X72740220Y-87467878D01*
X73019286Y-87885530D01*
X73374470Y-88240714D01*
X73792122Y-88519780D01*
X74256193Y-88712005D01*
X74748847Y-88810000D01*
X75251153Y-88810000D01*
X75743807Y-88712005D01*
X76207878Y-88519780D01*
X76625530Y-88240714D01*
X76980714Y-87885530D01*
X77259780Y-87467878D01*
X77452005Y-87003807D01*
X77550000Y-86511153D01*
X77550000Y-86008847D01*
X77452005Y-85516193D01*
X77259780Y-85052122D01*
X76980714Y-84634470D01*
X76625530Y-84279286D01*
X76207878Y-84000220D01*
X75743807Y-83807995D01*
X75251153Y-83710000D01*
X74748847Y-83710000D01*
X74256193Y-83807995D01*
X73792122Y-84000220D01*
X73374470Y-84279286D01*
X73019286Y-84634470D01*
X72740220Y-85052122D01*
X72547995Y-85516193D01*
X72450000Y-86008847D01*
X55685000Y-86008847D01*
X55685000Y-84536891D01*
X57278519Y-84536891D01*
X57375843Y-84811252D01*
X57524822Y-85061355D01*
X57719731Y-85277588D01*
X57953080Y-85451641D01*
X58215901Y-85576825D01*
X58363110Y-85621476D01*
X58593000Y-85500155D01*
X58593000Y-84307000D01*
X57399186Y-84307000D01*
X57278519Y-84536891D01*
X55685000Y-84536891D01*
X55685000Y-83823109D01*
X57278519Y-83823109D01*
X57399186Y-84053000D01*
X58593000Y-84053000D01*
X58593000Y-82859845D01*
X58847000Y-82859845D01*
X58847000Y-84053000D01*
X58867000Y-84053000D01*
X58867000Y-84307000D01*
X58847000Y-84307000D01*
X58847000Y-85500155D01*
X59076890Y-85621476D01*
X59224099Y-85576825D01*
X59486920Y-85451641D01*
X59720269Y-85277588D01*
X59915178Y-85061355D01*
X59984805Y-84944466D01*
X60106525Y-85126632D01*
X60313368Y-85333475D01*
X60556589Y-85495990D01*
X60826842Y-85607932D01*
X61113740Y-85665000D01*
X61406260Y-85665000D01*
X61693158Y-85607932D01*
X61963411Y-85495990D01*
X62206632Y-85333475D01*
X62338487Y-85201620D01*
X62360498Y-85274180D01*
X62419463Y-85384494D01*
X62498815Y-85481185D01*
X62595506Y-85560537D01*
X62705820Y-85619502D01*
X62825518Y-85655812D01*
X62950000Y-85668072D01*
X64650000Y-85668072D01*
X64774482Y-85655812D01*
X64894180Y-85619502D01*
X65004494Y-85560537D01*
X65101185Y-85481185D01*
X65180537Y-85384494D01*
X65239502Y-85274180D01*
X65275812Y-85154482D01*
X65288072Y-85030000D01*
X65288072Y-83330000D01*
X65275812Y-83205518D01*
X65239502Y-83085820D01*
X65180537Y-82975506D01*
X65101185Y-82878815D01*
X65004494Y-82799463D01*
X64894180Y-82740498D01*
X64774482Y-82704188D01*
X64650000Y-82691928D01*
X62950000Y-82691928D01*
X62825518Y-82704188D01*
X62705820Y-82740498D01*
X62595506Y-82799463D01*
X62498815Y-82878815D01*
X62419463Y-82975506D01*
X62360498Y-83085820D01*
X62338487Y-83158380D01*
X62206632Y-83026525D01*
X61963411Y-82864010D01*
X61693158Y-82752068D01*
X61406260Y-82695000D01*
X61113740Y-82695000D01*
X60826842Y-82752068D01*
X60556589Y-82864010D01*
X60313368Y-83026525D01*
X60106525Y-83233368D01*
X59984805Y-83415534D01*
X59915178Y-83298645D01*
X59720269Y-83082412D01*
X59486920Y-82908359D01*
X59224099Y-82783175D01*
X59076890Y-82738524D01*
X58847000Y-82859845D01*
X58593000Y-82859845D01*
X58363110Y-82738524D01*
X58215901Y-82783175D01*
X57953080Y-82908359D01*
X57719731Y-83082412D01*
X57524822Y-83298645D01*
X57375843Y-83548748D01*
X57278519Y-83823109D01*
X55685000Y-83823109D01*
X55685000Y-82260727D01*
X91789000Y-82260727D01*
X91789000Y-82499273D01*
X91835538Y-82733236D01*
X91926825Y-82953624D01*
X92059354Y-83151968D01*
X92228032Y-83320646D01*
X92426376Y-83453175D01*
X92646764Y-83544462D01*
X92880727Y-83591000D01*
X93119273Y-83591000D01*
X93353236Y-83544462D01*
X93573624Y-83453175D01*
X93771968Y-83320646D01*
X93940646Y-83151968D01*
X94073175Y-82953624D01*
X94164462Y-82733236D01*
X94211000Y-82499273D01*
X94211000Y-82260727D01*
X94164462Y-82026764D01*
X94073175Y-81806376D01*
X93940646Y-81608032D01*
X93771968Y-81439354D01*
X93573624Y-81306825D01*
X93353236Y-81215538D01*
X93119273Y-81169000D01*
X92880727Y-81169000D01*
X92646764Y-81215538D01*
X92426376Y-81306825D01*
X92228032Y-81439354D01*
X92059354Y-81608032D01*
X91926825Y-81806376D01*
X91835538Y-82026764D01*
X91789000Y-82260727D01*
X55685000Y-82260727D01*
X55685000Y-80065000D01*
X65966353Y-80065000D01*
X66000000Y-80068314D01*
X66033647Y-80065000D01*
X66134283Y-80055088D01*
X66263406Y-80015919D01*
X66382407Y-79952312D01*
X66486711Y-79866711D01*
X66572312Y-79762407D01*
X66635919Y-79643406D01*
X66675088Y-79514283D01*
X66688314Y-79380000D01*
X66685000Y-79346353D01*
X66685000Y-75065000D01*
X83315000Y-75065000D01*
X83315001Y-79346343D01*
M02*
