M48
; DRILL file {KiCad 5.1.5+dfsg1-2build2} date Sun 06 Jun 2021 08:08:18 PM MDT
; FORMAT={3:3/ absolute / metric / suppress leading zeros}
; #@! TF.CreationDate,2021-06-06T20:08:18-06:00
; #@! TF.GenerationSoftware,Kicad,Pcbnew,5.1.5+dfsg1-2build2
FMAT,2
METRIC,TZ
T1C0.330
T2C0.700
T3C0.800
T4C1.000
T5C1.100
T6C1.830
T7C1.152
T8C1.500
%
G90
G05
T1
X60400Y-100780
X66400Y-100780
X70000Y-110780
X70800Y-129180
X72400Y-115580
X72600Y-153380
X78000Y-122780
X80200Y-115580
T3
X57180Y-105380
X57180Y-107920
X57180Y-110460
X57180Y-113000
X64800Y-105380
X64800Y-107920
X64800Y-110460
X64800Y-113000
T4
X58720Y-118180
X58720Y-120720
X61260Y-118180
X61260Y-120720
X63800Y-118180
X63800Y-120720
X58720Y-84180
X61260Y-84180
X63800Y-84180
X58800Y-128240
X58800Y-130780
T5
X58500Y-89780
X58500Y-96280
X63000Y-89780
X63000Y-96280
T6
X72460Y-93880
X72460Y-139880
X75000Y-86260
X75000Y-147500
X77540Y-93880
X77540Y-139880
T7
X57000Y-152380
X93000Y-152380
X93000Y-82380
T2
G00X71400Y-159530
M15
G01X71400Y-158730
M16
G05
G00X72575Y-156480
M15
G01X72575Y-156480
M16
G05
G00X77425Y-156480
M15
G01X77425Y-156480
M16
G05
G00X78600Y-159530
M15
G01X78600Y-158730
M16
G05
T8
G00X82000Y-128630
M15
G01X82000Y-127130
M16
G05
G00X82000Y-106630
M15
G01X82000Y-105130
M16
G05
G00X68000Y-106630
M15
G01X68000Y-105130
M16
G05
G00X68000Y-128630
M15
G01X68000Y-127130
M16
G05
T0
M30
