G04 #@! TF.GenerationSoftware,KiCad,Pcbnew,5.1.5+dfsg1-2build2*
G04 #@! TF.CreationDate,2021-06-06T20:08:15-06:00*
G04 #@! TF.ProjectId,flicker_lamp,666c6963-6b65-4725-9f6c-616d702e6b69,rev?*
G04 #@! TF.SameCoordinates,Original*
G04 #@! TF.FileFunction,Legend,Top*
G04 #@! TF.FilePolarity,Positive*
%FSLAX46Y46*%
G04 Gerber Fmt 4.6, Leading zero omitted, Abs format (unit mm)*
G04 Created by KiCad (PCBNEW 5.1.5+dfsg1-2build2) date 2021-06-06 20:08:15*
%MOMM*%
%LPD*%
G04 APERTURE LIST*
%ADD10C,0.150000*%
%ADD11C,0.125000*%
%ADD12C,0.120000*%
%ADD13C,0.500000*%
%ADD14C,0.750000*%
G04 APERTURE END LIST*
D10*
X84000000Y-154380000D02*
X84000000Y-79380000D01*
X90000000Y-79380000D02*
X90000000Y-154380000D01*
D11*
X71800000Y-110580000D02*
X71800000Y-111380000D01*
X71200000Y-111380000D02*
X71200000Y-110580000D01*
X71800000Y-110980000D02*
X71200000Y-111380000D01*
X71800000Y-110980000D02*
X72400000Y-110980000D01*
X71200000Y-110580000D02*
X71800000Y-110980000D01*
X70600000Y-110980000D02*
X71200000Y-110980000D01*
X71714285Y-113633571D02*
X72285714Y-113633571D01*
X71714285Y-108033571D02*
X72285714Y-108033571D01*
X69314285Y-113633571D02*
X69885714Y-113633571D01*
X69600000Y-113919285D02*
X69600000Y-113347857D01*
X69314285Y-108033571D02*
X69885714Y-108033571D01*
X69600000Y-108319285D02*
X69600000Y-107747857D01*
X58452678Y-86405000D02*
X58381250Y-86369285D01*
X58274107Y-86369285D01*
X58166964Y-86405000D01*
X58095535Y-86476428D01*
X58059821Y-86547857D01*
X58024107Y-86690714D01*
X58024107Y-86797857D01*
X58059821Y-86940714D01*
X58095535Y-87012142D01*
X58166964Y-87083571D01*
X58274107Y-87119285D01*
X58345535Y-87119285D01*
X58452678Y-87083571D01*
X58488392Y-87047857D01*
X58488392Y-86797857D01*
X58345535Y-86797857D01*
X58809821Y-87119285D02*
X58809821Y-86369285D01*
X59238392Y-87119285D01*
X59238392Y-86369285D01*
X59595535Y-87119285D02*
X59595535Y-86369285D01*
X59774107Y-86369285D01*
X59881250Y-86405000D01*
X59952678Y-86476428D01*
X59988392Y-86547857D01*
X60024107Y-86690714D01*
X60024107Y-86797857D01*
X59988392Y-86940714D01*
X59952678Y-87012142D01*
X59881250Y-87083571D01*
X59774107Y-87119285D01*
X59595535Y-87119285D01*
X60381250Y-87083571D02*
X60381250Y-87119285D01*
X60345535Y-87190714D01*
X60309821Y-87226428D01*
X61059821Y-87119285D02*
X60702678Y-87119285D01*
X60702678Y-86369285D01*
X61309821Y-86726428D02*
X61559821Y-86726428D01*
X61666964Y-87119285D02*
X61309821Y-87119285D01*
X61309821Y-86369285D01*
X61666964Y-86369285D01*
X61988392Y-87119285D02*
X61988392Y-86369285D01*
X62166964Y-86369285D01*
X62274107Y-86405000D01*
X62345535Y-86476428D01*
X62381250Y-86547857D01*
X62416964Y-86690714D01*
X62416964Y-86797857D01*
X62381250Y-86940714D01*
X62345535Y-87012142D01*
X62274107Y-87083571D01*
X62166964Y-87119285D01*
X61988392Y-87119285D01*
X62774107Y-87083571D02*
X62774107Y-87119285D01*
X62738392Y-87190714D01*
X62702678Y-87226428D01*
X62988392Y-86369285D02*
X63238392Y-87119285D01*
X63488392Y-86369285D01*
X64166964Y-87047857D02*
X64131250Y-87083571D01*
X64024107Y-87119285D01*
X63952678Y-87119285D01*
X63845535Y-87083571D01*
X63774107Y-87012142D01*
X63738392Y-86940714D01*
X63702678Y-86797857D01*
X63702678Y-86690714D01*
X63738392Y-86547857D01*
X63774107Y-86476428D01*
X63845535Y-86405000D01*
X63952678Y-86369285D01*
X64024107Y-86369285D01*
X64131250Y-86405000D01*
X64166964Y-86440714D01*
X64916964Y-87047857D02*
X64881250Y-87083571D01*
X64774107Y-87119285D01*
X64702678Y-87119285D01*
X64595535Y-87083571D01*
X64524107Y-87012142D01*
X64488392Y-86940714D01*
X64452678Y-86797857D01*
X64452678Y-86690714D01*
X64488392Y-86547857D01*
X64524107Y-86476428D01*
X64595535Y-86405000D01*
X64702678Y-86369285D01*
X64774107Y-86369285D01*
X64881250Y-86405000D01*
X64916964Y-86440714D01*
X56739285Y-94320178D02*
X55989285Y-94320178D01*
X56525000Y-94070178D01*
X55989285Y-93820178D01*
X56739285Y-93820178D01*
X55989285Y-93320178D02*
X55989285Y-93177321D01*
X56025000Y-93105892D01*
X56096428Y-93034464D01*
X56239285Y-92998750D01*
X56489285Y-92998750D01*
X56632142Y-93034464D01*
X56703571Y-93105892D01*
X56739285Y-93177321D01*
X56739285Y-93320178D01*
X56703571Y-93391607D01*
X56632142Y-93463035D01*
X56489285Y-93498750D01*
X56239285Y-93498750D01*
X56096428Y-93463035D01*
X56025000Y-93391607D01*
X55989285Y-93320178D01*
X56739285Y-92677321D02*
X55989285Y-92677321D01*
X55989285Y-92498750D01*
X56025000Y-92391607D01*
X56096428Y-92320178D01*
X56167857Y-92284464D01*
X56310714Y-92248750D01*
X56417857Y-92248750D01*
X56560714Y-92284464D01*
X56632142Y-92320178D01*
X56703571Y-92391607D01*
X56739285Y-92498750D01*
X56739285Y-92677321D01*
X56346428Y-91927321D02*
X56346428Y-91677321D01*
X56739285Y-91570178D02*
X56739285Y-91927321D01*
X55989285Y-91927321D01*
X55989285Y-91570178D01*
X77031250Y-112219285D02*
X76459821Y-112433571D01*
X77031250Y-112647857D01*
X77959821Y-112219285D02*
X77388392Y-112433571D01*
X77959821Y-112647857D01*
X79316964Y-112647857D02*
X79281250Y-112683571D01*
X79174107Y-112719285D01*
X79102678Y-112719285D01*
X78995535Y-112683571D01*
X78924107Y-112612142D01*
X78888392Y-112540714D01*
X78852678Y-112397857D01*
X78852678Y-112290714D01*
X78888392Y-112147857D01*
X78924107Y-112076428D01*
X78995535Y-112005000D01*
X79102678Y-111969285D01*
X79174107Y-111969285D01*
X79281250Y-112005000D01*
X79316964Y-112040714D01*
X79638392Y-112719285D02*
X79638392Y-111969285D01*
X79638392Y-112326428D02*
X80066964Y-112326428D01*
X80066964Y-112719285D02*
X80066964Y-111969285D01*
X80388392Y-112505000D02*
X80745535Y-112505000D01*
X80316964Y-112719285D02*
X80566964Y-111969285D01*
X80816964Y-112719285D01*
X81495535Y-112719285D02*
X81245535Y-112362142D01*
X81066964Y-112719285D02*
X81066964Y-111969285D01*
X81352678Y-111969285D01*
X81424107Y-112005000D01*
X81459821Y-112040714D01*
X81495535Y-112112142D01*
X81495535Y-112219285D01*
X81459821Y-112290714D01*
X81424107Y-112326428D01*
X81352678Y-112362142D01*
X81066964Y-112362142D01*
X82209821Y-112005000D02*
X82138392Y-111969285D01*
X82031250Y-111969285D01*
X81924107Y-112005000D01*
X81852678Y-112076428D01*
X81816964Y-112147857D01*
X81781250Y-112290714D01*
X81781250Y-112397857D01*
X81816964Y-112540714D01*
X81852678Y-112612142D01*
X81924107Y-112683571D01*
X82031250Y-112719285D01*
X82102678Y-112719285D01*
X82209821Y-112683571D01*
X82245535Y-112647857D01*
X82245535Y-112397857D01*
X82102678Y-112397857D01*
X82566964Y-112326428D02*
X82816964Y-112326428D01*
X82924107Y-112719285D02*
X82566964Y-112719285D01*
X82566964Y-111969285D01*
X82924107Y-111969285D01*
X77031250Y-109019285D02*
X76459821Y-109233571D01*
X77031250Y-109447857D01*
X77959821Y-109019285D02*
X77388392Y-109233571D01*
X77959821Y-109447857D01*
X78888392Y-109519285D02*
X78888392Y-108769285D01*
X79066964Y-108769285D01*
X79174107Y-108805000D01*
X79245535Y-108876428D01*
X79281250Y-108947857D01*
X79316964Y-109090714D01*
X79316964Y-109197857D01*
X79281250Y-109340714D01*
X79245535Y-109412142D01*
X79174107Y-109483571D01*
X79066964Y-109519285D01*
X78888392Y-109519285D01*
X79781250Y-108769285D02*
X79924107Y-108769285D01*
X79995535Y-108805000D01*
X80066964Y-108876428D01*
X80102678Y-109019285D01*
X80102678Y-109269285D01*
X80066964Y-109412142D01*
X79995535Y-109483571D01*
X79924107Y-109519285D01*
X79781250Y-109519285D01*
X79709821Y-109483571D01*
X79638392Y-109412142D01*
X79602678Y-109269285D01*
X79602678Y-109019285D01*
X79638392Y-108876428D01*
X79709821Y-108805000D01*
X79781250Y-108769285D01*
X80424107Y-109519285D02*
X80424107Y-108769285D01*
X80852678Y-109519285D01*
X80852678Y-108769285D01*
X81209821Y-109126428D02*
X81459821Y-109126428D01*
X81566964Y-109519285D02*
X81209821Y-109519285D01*
X81209821Y-108769285D01*
X81566964Y-108769285D01*
X56616964Y-122744285D02*
X56259821Y-122744285D01*
X56224107Y-123101428D01*
X56259821Y-123065714D01*
X56331250Y-123030000D01*
X56509821Y-123030000D01*
X56581250Y-123065714D01*
X56616964Y-123101428D01*
X56652678Y-123172857D01*
X56652678Y-123351428D01*
X56616964Y-123422857D01*
X56581250Y-123458571D01*
X56509821Y-123494285D01*
X56331250Y-123494285D01*
X56259821Y-123458571D01*
X56224107Y-123422857D01*
X56974107Y-123422857D02*
X57009821Y-123458571D01*
X56974107Y-123494285D01*
X56938392Y-123458571D01*
X56974107Y-123422857D01*
X56974107Y-123494285D01*
X57759821Y-123494285D02*
X57509821Y-123137142D01*
X57331250Y-123494285D02*
X57331250Y-122744285D01*
X57616964Y-122744285D01*
X57688392Y-122780000D01*
X57724107Y-122815714D01*
X57759821Y-122887142D01*
X57759821Y-122994285D01*
X57724107Y-123065714D01*
X57688392Y-123101428D01*
X57616964Y-123137142D01*
X57331250Y-123137142D01*
X58045535Y-123458571D02*
X58152678Y-123494285D01*
X58331250Y-123494285D01*
X58402678Y-123458571D01*
X58438392Y-123422857D01*
X58474107Y-123351428D01*
X58474107Y-123280000D01*
X58438392Y-123208571D01*
X58402678Y-123172857D01*
X58331250Y-123137142D01*
X58188392Y-123101428D01*
X58116964Y-123065714D01*
X58081250Y-123030000D01*
X58045535Y-122958571D01*
X58045535Y-122887142D01*
X58081250Y-122815714D01*
X58116964Y-122780000D01*
X58188392Y-122744285D01*
X58366964Y-122744285D01*
X58474107Y-122780000D01*
X58688392Y-122744285D02*
X59116964Y-122744285D01*
X58902678Y-123494285D02*
X58902678Y-122744285D01*
X59866964Y-122744285D02*
X60331250Y-122744285D01*
X60081250Y-123030000D01*
X60188392Y-123030000D01*
X60259821Y-123065714D01*
X60295535Y-123101428D01*
X60331250Y-123172857D01*
X60331250Y-123351428D01*
X60295535Y-123422857D01*
X60259821Y-123458571D01*
X60188392Y-123494285D01*
X59974107Y-123494285D01*
X59902678Y-123458571D01*
X59866964Y-123422857D01*
X60652678Y-123422857D02*
X60688392Y-123458571D01*
X60652678Y-123494285D01*
X60616964Y-123458571D01*
X60652678Y-123422857D01*
X60652678Y-123494285D01*
X60974107Y-123458571D02*
X61081250Y-123494285D01*
X61259821Y-123494285D01*
X61331250Y-123458571D01*
X61366964Y-123422857D01*
X61402678Y-123351428D01*
X61402678Y-123280000D01*
X61366964Y-123208571D01*
X61331250Y-123172857D01*
X61259821Y-123137142D01*
X61116964Y-123101428D01*
X61045535Y-123065714D01*
X61009821Y-123030000D01*
X60974107Y-122958571D01*
X60974107Y-122887142D01*
X61009821Y-122815714D01*
X61045535Y-122780000D01*
X61116964Y-122744285D01*
X61295535Y-122744285D01*
X61402678Y-122780000D01*
X62152678Y-123422857D02*
X62116964Y-123458571D01*
X62009821Y-123494285D01*
X61938392Y-123494285D01*
X61831250Y-123458571D01*
X61759821Y-123387142D01*
X61724107Y-123315714D01*
X61688392Y-123172857D01*
X61688392Y-123065714D01*
X61724107Y-122922857D01*
X61759821Y-122851428D01*
X61831250Y-122780000D01*
X61938392Y-122744285D01*
X62009821Y-122744285D01*
X62116964Y-122780000D01*
X62152678Y-122815714D01*
X62474107Y-123494285D02*
X62474107Y-122744285D01*
X62902678Y-123494285D02*
X62581250Y-123065714D01*
X62902678Y-122744285D02*
X62474107Y-123172857D01*
X64188392Y-123494285D02*
X63759821Y-123494285D01*
X63974107Y-123494285D02*
X63974107Y-122744285D01*
X63902678Y-122851428D01*
X63831250Y-122922857D01*
X63759821Y-122958571D01*
X64509821Y-123422857D02*
X64545535Y-123458571D01*
X64509821Y-123494285D01*
X64474107Y-123458571D01*
X64509821Y-123422857D01*
X64509821Y-123494285D01*
X64866964Y-123494285D02*
X64866964Y-122744285D01*
X65116964Y-123280000D01*
X65366964Y-122744285D01*
X65366964Y-123494285D01*
X65724107Y-123494285D02*
X65724107Y-122744285D01*
X66045535Y-123458571D02*
X66152678Y-123494285D01*
X66331250Y-123494285D01*
X66402678Y-123458571D01*
X66438392Y-123422857D01*
X66474107Y-123351428D01*
X66474107Y-123280000D01*
X66438392Y-123208571D01*
X66402678Y-123172857D01*
X66331250Y-123137142D01*
X66188392Y-123101428D01*
X66116964Y-123065714D01*
X66081250Y-123030000D01*
X66045535Y-122958571D01*
X66045535Y-122887142D01*
X66081250Y-122815714D01*
X66116964Y-122780000D01*
X66188392Y-122744285D01*
X66366964Y-122744285D01*
X66474107Y-122780000D01*
X66938392Y-122744285D02*
X67081250Y-122744285D01*
X67152678Y-122780000D01*
X67224107Y-122851428D01*
X67259821Y-122994285D01*
X67259821Y-123244285D01*
X67224107Y-123387142D01*
X67152678Y-123458571D01*
X67081250Y-123494285D01*
X66938392Y-123494285D01*
X66866964Y-123458571D01*
X66795535Y-123387142D01*
X66759821Y-123244285D01*
X66759821Y-122994285D01*
X66795535Y-122851428D01*
X66866964Y-122780000D01*
X66938392Y-122744285D01*
X56581250Y-123994285D02*
X56438392Y-123994285D01*
X56366964Y-124030000D01*
X56331250Y-124065714D01*
X56259821Y-124172857D01*
X56224107Y-124315714D01*
X56224107Y-124601428D01*
X56259821Y-124672857D01*
X56295535Y-124708571D01*
X56366964Y-124744285D01*
X56509821Y-124744285D01*
X56581250Y-124708571D01*
X56616964Y-124672857D01*
X56652678Y-124601428D01*
X56652678Y-124422857D01*
X56616964Y-124351428D01*
X56581250Y-124315714D01*
X56509821Y-124280000D01*
X56366964Y-124280000D01*
X56295535Y-124315714D01*
X56259821Y-124351428D01*
X56224107Y-124422857D01*
X56974107Y-124672857D02*
X57009821Y-124708571D01*
X56974107Y-124744285D01*
X56938392Y-124708571D01*
X56974107Y-124672857D01*
X56974107Y-124744285D01*
X57724107Y-124030000D02*
X57652678Y-123994285D01*
X57545535Y-123994285D01*
X57438392Y-124030000D01*
X57366964Y-124101428D01*
X57331250Y-124172857D01*
X57295535Y-124315714D01*
X57295535Y-124422857D01*
X57331250Y-124565714D01*
X57366964Y-124637142D01*
X57438392Y-124708571D01*
X57545535Y-124744285D01*
X57616964Y-124744285D01*
X57724107Y-124708571D01*
X57759821Y-124672857D01*
X57759821Y-124422857D01*
X57616964Y-124422857D01*
X58081250Y-124744285D02*
X58081250Y-123994285D01*
X58509821Y-124744285D01*
X58509821Y-123994285D01*
X58866964Y-124744285D02*
X58866964Y-123994285D01*
X59045535Y-123994285D01*
X59152678Y-124030000D01*
X59224107Y-124101428D01*
X59259821Y-124172857D01*
X59295535Y-124315714D01*
X59295535Y-124422857D01*
X59259821Y-124565714D01*
X59224107Y-124637142D01*
X59152678Y-124708571D01*
X59045535Y-124744285D01*
X58866964Y-124744285D01*
X60509821Y-124244285D02*
X60509821Y-124744285D01*
X60331250Y-123958571D02*
X60152678Y-124494285D01*
X60616964Y-124494285D01*
X60902678Y-124672857D02*
X60938392Y-124708571D01*
X60902678Y-124744285D01*
X60866964Y-124708571D01*
X60902678Y-124672857D01*
X60902678Y-124744285D01*
X61259821Y-124744285D02*
X61259821Y-123994285D01*
X61509821Y-124530000D01*
X61759821Y-123994285D01*
X61759821Y-124744285D01*
X62259821Y-123994285D02*
X62402678Y-123994285D01*
X62474107Y-124030000D01*
X62545535Y-124101428D01*
X62581250Y-124244285D01*
X62581250Y-124494285D01*
X62545535Y-124637142D01*
X62474107Y-124708571D01*
X62402678Y-124744285D01*
X62259821Y-124744285D01*
X62188392Y-124708571D01*
X62116964Y-124637142D01*
X62081250Y-124494285D01*
X62081250Y-124244285D01*
X62116964Y-124101428D01*
X62188392Y-124030000D01*
X62259821Y-123994285D01*
X62866964Y-124708571D02*
X62974107Y-124744285D01*
X63152678Y-124744285D01*
X63224107Y-124708571D01*
X63259821Y-124672857D01*
X63295535Y-124601428D01*
X63295535Y-124530000D01*
X63259821Y-124458571D01*
X63224107Y-124422857D01*
X63152678Y-124387142D01*
X63009821Y-124351428D01*
X62938392Y-124315714D01*
X62902678Y-124280000D01*
X62866964Y-124208571D01*
X62866964Y-124137142D01*
X62902678Y-124065714D01*
X62938392Y-124030000D01*
X63009821Y-123994285D01*
X63188392Y-123994285D01*
X63295535Y-124030000D01*
X63616964Y-124744285D02*
X63616964Y-123994285D01*
X64509821Y-124065714D02*
X64545535Y-124030000D01*
X64616964Y-123994285D01*
X64795535Y-123994285D01*
X64866964Y-124030000D01*
X64902678Y-124065714D01*
X64938392Y-124137142D01*
X64938392Y-124208571D01*
X64902678Y-124315714D01*
X64474107Y-124744285D01*
X64938392Y-124744285D01*
X65259821Y-124672857D02*
X65295535Y-124708571D01*
X65259821Y-124744285D01*
X65224107Y-124708571D01*
X65259821Y-124672857D01*
X65259821Y-124744285D01*
X65509821Y-123994285D02*
X65759821Y-124744285D01*
X66009821Y-123994285D01*
X66688392Y-124672857D02*
X66652678Y-124708571D01*
X66545535Y-124744285D01*
X66474107Y-124744285D01*
X66366964Y-124708571D01*
X66295535Y-124637142D01*
X66259821Y-124565714D01*
X66224107Y-124422857D01*
X66224107Y-124315714D01*
X66259821Y-124172857D01*
X66295535Y-124101428D01*
X66366964Y-124030000D01*
X66474107Y-123994285D01*
X66545535Y-123994285D01*
X66652678Y-124030000D01*
X66688392Y-124065714D01*
X67438392Y-124672857D02*
X67402678Y-124708571D01*
X67295535Y-124744285D01*
X67224107Y-124744285D01*
X67116964Y-124708571D01*
X67045535Y-124637142D01*
X67009821Y-124565714D01*
X66974107Y-124422857D01*
X66974107Y-124315714D01*
X67009821Y-124172857D01*
X67045535Y-124101428D01*
X67116964Y-124030000D01*
X67224107Y-123994285D01*
X67295535Y-123994285D01*
X67402678Y-124030000D01*
X67438392Y-124065714D01*
X60616071Y-146022857D02*
X60616071Y-146356190D01*
X61139880Y-146356190D02*
X60139880Y-146356190D01*
X60139880Y-145880000D01*
X61139880Y-145356190D02*
X61092261Y-145451428D01*
X60997023Y-145499047D01*
X60139880Y-145499047D01*
X61139880Y-144975238D02*
X60473214Y-144975238D01*
X60139880Y-144975238D02*
X60187500Y-145022857D01*
X60235119Y-144975238D01*
X60187500Y-144927619D01*
X60139880Y-144975238D01*
X60235119Y-144975238D01*
X61092261Y-144070476D02*
X61139880Y-144165714D01*
X61139880Y-144356190D01*
X61092261Y-144451428D01*
X61044642Y-144499047D01*
X60949404Y-144546666D01*
X60663690Y-144546666D01*
X60568452Y-144499047D01*
X60520833Y-144451428D01*
X60473214Y-144356190D01*
X60473214Y-144165714D01*
X60520833Y-144070476D01*
X61139880Y-143641904D02*
X60139880Y-143641904D01*
X60758928Y-143546666D02*
X61139880Y-143260952D01*
X60473214Y-143260952D02*
X60854166Y-143641904D01*
X61092261Y-142451428D02*
X61139880Y-142546666D01*
X61139880Y-142737142D01*
X61092261Y-142832380D01*
X60997023Y-142880000D01*
X60616071Y-142880000D01*
X60520833Y-142832380D01*
X60473214Y-142737142D01*
X60473214Y-142546666D01*
X60520833Y-142451428D01*
X60616071Y-142403809D01*
X60711309Y-142403809D01*
X60806547Y-142880000D01*
X61139880Y-141975238D02*
X60473214Y-141975238D01*
X60663690Y-141975238D02*
X60568452Y-141927619D01*
X60520833Y-141880000D01*
X60473214Y-141784761D01*
X60473214Y-141689523D01*
X61139880Y-140451428D02*
X61092261Y-140546666D01*
X60997023Y-140594285D01*
X60139880Y-140594285D01*
X61139880Y-139641904D02*
X60616071Y-139641904D01*
X60520833Y-139689523D01*
X60473214Y-139784761D01*
X60473214Y-139975238D01*
X60520833Y-140070476D01*
X61092261Y-139641904D02*
X61139880Y-139737142D01*
X61139880Y-139975238D01*
X61092261Y-140070476D01*
X60997023Y-140118095D01*
X60901785Y-140118095D01*
X60806547Y-140070476D01*
X60758928Y-139975238D01*
X60758928Y-139737142D01*
X60711309Y-139641904D01*
X61139880Y-139165714D02*
X60473214Y-139165714D01*
X60568452Y-139165714D02*
X60520833Y-139118095D01*
X60473214Y-139022857D01*
X60473214Y-138880000D01*
X60520833Y-138784761D01*
X60616071Y-138737142D01*
X61139880Y-138737142D01*
X60616071Y-138737142D02*
X60520833Y-138689523D01*
X60473214Y-138594285D01*
X60473214Y-138451428D01*
X60520833Y-138356190D01*
X60616071Y-138308571D01*
X61139880Y-138308571D01*
X60473214Y-137832380D02*
X61473214Y-137832380D01*
X60520833Y-137832380D02*
X60473214Y-137737142D01*
X60473214Y-137546666D01*
X60520833Y-137451428D01*
X60568452Y-137403809D01*
X60663690Y-137356190D01*
X60949404Y-137356190D01*
X61044642Y-137403809D01*
X61092261Y-137451428D01*
X61139880Y-137546666D01*
X61139880Y-137737142D01*
X61092261Y-137832380D01*
X61764880Y-146880000D02*
X62764880Y-146546666D01*
X61764880Y-146213333D01*
X61764880Y-145975238D02*
X61764880Y-145356190D01*
X62145833Y-145689523D01*
X62145833Y-145546666D01*
X62193452Y-145451428D01*
X62241071Y-145403809D01*
X62336309Y-145356190D01*
X62574404Y-145356190D01*
X62669642Y-145403809D01*
X62717261Y-145451428D01*
X62764880Y-145546666D01*
X62764880Y-145832380D01*
X62717261Y-145927619D01*
X62669642Y-145975238D01*
X61860119Y-144213333D02*
X61812500Y-144165714D01*
X61764880Y-144070476D01*
X61764880Y-143832380D01*
X61812500Y-143737142D01*
X61860119Y-143689523D01*
X61955357Y-143641904D01*
X62050595Y-143641904D01*
X62193452Y-143689523D01*
X62764880Y-144260952D01*
X62764880Y-143641904D01*
X61764880Y-143022857D02*
X61764880Y-142927619D01*
X61812500Y-142832380D01*
X61860119Y-142784761D01*
X61955357Y-142737142D01*
X62145833Y-142689523D01*
X62383928Y-142689523D01*
X62574404Y-142737142D01*
X62669642Y-142784761D01*
X62717261Y-142832380D01*
X62764880Y-142927619D01*
X62764880Y-143022857D01*
X62717261Y-143118095D01*
X62669642Y-143165714D01*
X62574404Y-143213333D01*
X62383928Y-143260952D01*
X62145833Y-143260952D01*
X61955357Y-143213333D01*
X61860119Y-143165714D01*
X61812500Y-143118095D01*
X61764880Y-143022857D01*
X61860119Y-142308571D02*
X61812500Y-142260952D01*
X61764880Y-142165714D01*
X61764880Y-141927619D01*
X61812500Y-141832380D01*
X61860119Y-141784761D01*
X61955357Y-141737142D01*
X62050595Y-141737142D01*
X62193452Y-141784761D01*
X62764880Y-142356190D01*
X62764880Y-141737142D01*
X62764880Y-140784761D02*
X62764880Y-141356190D01*
X62764880Y-141070476D02*
X61764880Y-141070476D01*
X61907738Y-141165714D01*
X62002976Y-141260952D01*
X62050595Y-141356190D01*
X61764880Y-140165714D02*
X61764880Y-140070476D01*
X61812500Y-139975238D01*
X61860119Y-139927619D01*
X61955357Y-139880000D01*
X62145833Y-139832380D01*
X62383928Y-139832380D01*
X62574404Y-139880000D01*
X62669642Y-139927619D01*
X62717261Y-139975238D01*
X62764880Y-140070476D01*
X62764880Y-140165714D01*
X62717261Y-140260952D01*
X62669642Y-140308571D01*
X62574404Y-140356190D01*
X62383928Y-140403809D01*
X62145833Y-140403809D01*
X61955357Y-140356190D01*
X61860119Y-140308571D01*
X61812500Y-140260952D01*
X61764880Y-140165714D01*
X61764880Y-138975238D02*
X61764880Y-139165714D01*
X61812500Y-139260952D01*
X61860119Y-139308571D01*
X62002976Y-139403809D01*
X62193452Y-139451428D01*
X62574404Y-139451428D01*
X62669642Y-139403809D01*
X62717261Y-139356190D01*
X62764880Y-139260952D01*
X62764880Y-139070476D01*
X62717261Y-138975238D01*
X62669642Y-138927619D01*
X62574404Y-138880000D01*
X62336309Y-138880000D01*
X62241071Y-138927619D01*
X62193452Y-138975238D01*
X62145833Y-139070476D01*
X62145833Y-139260952D01*
X62193452Y-139356190D01*
X62241071Y-139403809D01*
X62336309Y-139451428D01*
X61764880Y-138260952D02*
X61764880Y-138165714D01*
X61812500Y-138070476D01*
X61860119Y-138022857D01*
X61955357Y-137975238D01*
X62145833Y-137927619D01*
X62383928Y-137927619D01*
X62574404Y-137975238D01*
X62669642Y-138022857D01*
X62717261Y-138070476D01*
X62764880Y-138165714D01*
X62764880Y-138260952D01*
X62717261Y-138356190D01*
X62669642Y-138403809D01*
X62574404Y-138451428D01*
X62383928Y-138499047D01*
X62145833Y-138499047D01*
X61955357Y-138451428D01*
X61860119Y-138403809D01*
X61812500Y-138356190D01*
X61764880Y-138260952D01*
X61764880Y-137070476D02*
X61764880Y-137260952D01*
X61812500Y-137356190D01*
X61860119Y-137403809D01*
X62002976Y-137499047D01*
X62193452Y-137546666D01*
X62574404Y-137546666D01*
X62669642Y-137499047D01*
X62717261Y-137451428D01*
X62764880Y-137356190D01*
X62764880Y-137165714D01*
X62717261Y-137070476D01*
X62669642Y-137022857D01*
X62574404Y-136975238D01*
X62336309Y-136975238D01*
X62241071Y-137022857D01*
X62193452Y-137070476D01*
X62145833Y-137165714D01*
X62145833Y-137356190D01*
X62193452Y-137451428D01*
X62241071Y-137499047D01*
X62336309Y-137546666D01*
D12*
X68470000Y-135430000D02*
X68470000Y-134930000D01*
X67530000Y-134930000D02*
X67530000Y-135430000D01*
X57650000Y-100100000D02*
X58650000Y-100100000D01*
X58650000Y-101460000D02*
X57650000Y-101460000D01*
X75150000Y-113060000D02*
X74150000Y-113060000D01*
X74150000Y-111700000D02*
X75150000Y-111700000D01*
X75150000Y-110010000D02*
X74150000Y-110010000D01*
X74150000Y-108650000D02*
X75150000Y-108650000D01*
X72100000Y-112880000D02*
X72100000Y-111880000D01*
X72100000Y-111880000D02*
X70000000Y-111880000D01*
X72100000Y-112880000D02*
X70000000Y-112880000D01*
X72600000Y-110030000D02*
X72600000Y-108630000D01*
X72600000Y-108630000D02*
X69800000Y-108630000D01*
X72600000Y-110030000D02*
X69800000Y-110030000D01*
D13*
X79640000Y-136300000D02*
G75*
G03X79640000Y-136300000I0J0D01*
G01*
D12*
X78500000Y-133170000D02*
X76700000Y-133170000D01*
X76700000Y-136390000D02*
X79150000Y-136390000D01*
D13*
X74340000Y-136300000D02*
G75*
G03X74340000Y-136300000I0J0D01*
G01*
D12*
X73200000Y-133170000D02*
X71400000Y-133170000D01*
X71400000Y-136390000D02*
X73850000Y-136390000D01*
D14*
X73210000Y-121390000D02*
G75*
G03X73210000Y-121390000I0J0D01*
G01*
D11*
X73700000Y-116330000D02*
X73700000Y-120330000D01*
X78800000Y-116330000D02*
X78800000Y-120330000D01*
D14*
X72392500Y-155040000D02*
G75*
G03X72392500Y-155040000I0J0D01*
G01*
D11*
X71350000Y-157880000D02*
X71350000Y-156200000D01*
X71350000Y-160880000D02*
X71350000Y-160380000D01*
X78650000Y-160380000D02*
X78650000Y-160880000D01*
X78650000Y-157880000D02*
X78650000Y-156200000D01*
X78150000Y-156200000D02*
X78650000Y-156200000D01*
X71850000Y-156200000D02*
X71350000Y-156200000D01*
D12*
X61990000Y-104050000D02*
G75*
G02X59990000Y-104050000I-1000000J0D01*
G01*
X59990000Y-104050000D02*
X58340000Y-104050000D01*
X58340000Y-104050000D02*
X58340000Y-114330000D01*
X58340000Y-114330000D02*
X63640000Y-114330000D01*
X63640000Y-114330000D02*
X63640000Y-104050000D01*
X63640000Y-104050000D02*
X61990000Y-104050000D01*
X57500000Y-90780000D02*
X57500000Y-95280000D01*
X61500000Y-89530000D02*
X60000000Y-89530000D01*
X64000000Y-95280000D02*
X64000000Y-90780000D01*
X60000000Y-96530000D02*
X61500000Y-96530000D01*
X62750000Y-99900000D02*
X63950000Y-99900000D01*
X63950000Y-101660000D02*
X62750000Y-101660000D01*
X82850000Y-117080000D02*
X82850000Y-116080000D01*
X81150000Y-116080000D02*
X81150000Y-117080000D01*
X57390000Y-82850000D02*
X57390000Y-85510000D01*
X62530000Y-82850000D02*
X57390000Y-82850000D01*
X62530000Y-85510000D02*
X57390000Y-85510000D01*
X62530000Y-82850000D02*
X62530000Y-85510000D01*
X63800000Y-82850000D02*
X65130000Y-82850000D01*
X65130000Y-82850000D02*
X65130000Y-84180000D01*
X60130000Y-126910000D02*
X57470000Y-126910000D01*
X60130000Y-129510000D02*
X60130000Y-126910000D01*
X57470000Y-129510000D02*
X57470000Y-126910000D01*
X60130000Y-129510000D02*
X57470000Y-129510000D01*
X60130000Y-130780000D02*
X60130000Y-132110000D01*
X60130000Y-132110000D02*
X58800000Y-132110000D01*
X73750000Y-131860000D02*
X72550000Y-131860000D01*
X72550000Y-130100000D02*
X73750000Y-130100000D01*
X68880000Y-131430000D02*
X68880000Y-132630000D01*
X67120000Y-132630000D02*
X67120000Y-131430000D01*
X72650000Y-123300000D02*
X73850000Y-123300000D01*
X73850000Y-125060000D02*
X72650000Y-125060000D01*
X57390000Y-116850000D02*
X57390000Y-122050000D01*
X62530000Y-116850000D02*
X57390000Y-116850000D01*
X65130000Y-122050000D02*
X57390000Y-122050000D01*
X62530000Y-116850000D02*
X62530000Y-119450000D01*
X62530000Y-119450000D02*
X65130000Y-119450000D01*
X65130000Y-119450000D02*
X65130000Y-122050000D01*
X63800000Y-116850000D02*
X65130000Y-116850000D01*
X65130000Y-116850000D02*
X65130000Y-118180000D01*
X76700000Y-125030000D02*
X77700000Y-125030000D01*
X77700000Y-123330000D02*
X76700000Y-123330000D01*
D11*
X67267857Y-135305000D02*
X67303571Y-135340714D01*
X67339285Y-135447857D01*
X67339285Y-135519285D01*
X67303571Y-135626428D01*
X67232142Y-135697857D01*
X67160714Y-135733571D01*
X67017857Y-135769285D01*
X66910714Y-135769285D01*
X66767857Y-135733571D01*
X66696428Y-135697857D01*
X66625000Y-135626428D01*
X66589285Y-135519285D01*
X66589285Y-135447857D01*
X66625000Y-135340714D01*
X66660714Y-135305000D01*
X66589285Y-135055000D02*
X66589285Y-134590714D01*
X66875000Y-134840714D01*
X66875000Y-134733571D01*
X66910714Y-134662142D01*
X66946428Y-134626428D01*
X67017857Y-134590714D01*
X67196428Y-134590714D01*
X67267857Y-134626428D01*
X67303571Y-134662142D01*
X67339285Y-134733571D01*
X67339285Y-134947857D01*
X67303571Y-135019285D01*
X67267857Y-135055000D01*
X58025000Y-99919285D02*
X57775000Y-99562142D01*
X57596428Y-99919285D02*
X57596428Y-99169285D01*
X57882142Y-99169285D01*
X57953571Y-99205000D01*
X57989285Y-99240714D01*
X58025000Y-99312142D01*
X58025000Y-99419285D01*
X57989285Y-99490714D01*
X57953571Y-99526428D01*
X57882142Y-99562142D01*
X57596428Y-99562142D01*
X58275000Y-99169285D02*
X58775000Y-99169285D01*
X58453571Y-99919285D01*
X74525000Y-111269285D02*
X74275000Y-110912142D01*
X74096428Y-111269285D02*
X74096428Y-110519285D01*
X74382142Y-110519285D01*
X74453571Y-110555000D01*
X74489285Y-110590714D01*
X74525000Y-110662142D01*
X74525000Y-110769285D01*
X74489285Y-110840714D01*
X74453571Y-110876428D01*
X74382142Y-110912142D01*
X74096428Y-110912142D01*
X74810714Y-110590714D02*
X74846428Y-110555000D01*
X74917857Y-110519285D01*
X75096428Y-110519285D01*
X75167857Y-110555000D01*
X75203571Y-110590714D01*
X75239285Y-110662142D01*
X75239285Y-110733571D01*
X75203571Y-110840714D01*
X74775000Y-111269285D01*
X75239285Y-111269285D01*
X74525000Y-108219285D02*
X74275000Y-107862142D01*
X74096428Y-108219285D02*
X74096428Y-107469285D01*
X74382142Y-107469285D01*
X74453571Y-107505000D01*
X74489285Y-107540714D01*
X74525000Y-107612142D01*
X74525000Y-107719285D01*
X74489285Y-107790714D01*
X74453571Y-107826428D01*
X74382142Y-107862142D01*
X74096428Y-107862142D01*
X75239285Y-108219285D02*
X74810714Y-108219285D01*
X75025000Y-108219285D02*
X75025000Y-107469285D01*
X74953571Y-107576428D01*
X74882142Y-107647857D01*
X74810714Y-107683571D01*
X70246428Y-113969285D02*
X70246428Y-113219285D01*
X70425000Y-113219285D01*
X70532142Y-113255000D01*
X70603571Y-113326428D01*
X70639285Y-113397857D01*
X70675000Y-113540714D01*
X70675000Y-113647857D01*
X70639285Y-113790714D01*
X70603571Y-113862142D01*
X70532142Y-113933571D01*
X70425000Y-113969285D01*
X70246428Y-113969285D01*
X70960714Y-113290714D02*
X70996428Y-113255000D01*
X71067857Y-113219285D01*
X71246428Y-113219285D01*
X71317857Y-113255000D01*
X71353571Y-113290714D01*
X71389285Y-113362142D01*
X71389285Y-113433571D01*
X71353571Y-113540714D01*
X70925000Y-113969285D01*
X71389285Y-113969285D01*
X70246428Y-108319285D02*
X70246428Y-107569285D01*
X70425000Y-107569285D01*
X70532142Y-107605000D01*
X70603571Y-107676428D01*
X70639285Y-107747857D01*
X70675000Y-107890714D01*
X70675000Y-107997857D01*
X70639285Y-108140714D01*
X70603571Y-108212142D01*
X70532142Y-108283571D01*
X70425000Y-108319285D01*
X70246428Y-108319285D01*
X71389285Y-108319285D02*
X70960714Y-108319285D01*
X71175000Y-108319285D02*
X71175000Y-107569285D01*
X71103571Y-107676428D01*
X71032142Y-107747857D01*
X70960714Y-107783571D01*
X77028571Y-136769285D02*
X77028571Y-137376428D01*
X77064285Y-137447857D01*
X77100000Y-137483571D01*
X77171428Y-137519285D01*
X77314285Y-137519285D01*
X77385714Y-137483571D01*
X77421428Y-137447857D01*
X77457142Y-137376428D01*
X77457142Y-136769285D01*
X77742857Y-136769285D02*
X78207142Y-136769285D01*
X77957142Y-137055000D01*
X78064285Y-137055000D01*
X78135714Y-137090714D01*
X78171428Y-137126428D01*
X78207142Y-137197857D01*
X78207142Y-137376428D01*
X78171428Y-137447857D01*
X78135714Y-137483571D01*
X78064285Y-137519285D01*
X77850000Y-137519285D01*
X77778571Y-137483571D01*
X77742857Y-137447857D01*
X71728571Y-136769285D02*
X71728571Y-137376428D01*
X71764285Y-137447857D01*
X71800000Y-137483571D01*
X71871428Y-137519285D01*
X72014285Y-137519285D01*
X72085714Y-137483571D01*
X72121428Y-137447857D01*
X72157142Y-137376428D01*
X72157142Y-136769285D01*
X72478571Y-136840714D02*
X72514285Y-136805000D01*
X72585714Y-136769285D01*
X72764285Y-136769285D01*
X72835714Y-136805000D01*
X72871428Y-136840714D01*
X72907142Y-136912142D01*
X72907142Y-136983571D01*
X72871428Y-137090714D01*
X72442857Y-137519285D01*
X72907142Y-137519285D01*
X72389285Y-118901428D02*
X72996428Y-118901428D01*
X73067857Y-118865714D01*
X73103571Y-118830000D01*
X73139285Y-118758571D01*
X73139285Y-118615714D01*
X73103571Y-118544285D01*
X73067857Y-118508571D01*
X72996428Y-118472857D01*
X72389285Y-118472857D01*
X73139285Y-117722857D02*
X73139285Y-118151428D01*
X73139285Y-117937142D02*
X72389285Y-117937142D01*
X72496428Y-118008571D01*
X72567857Y-118080000D01*
X72603571Y-118151428D01*
X74817500Y-153369285D02*
X74817500Y-153905000D01*
X74781785Y-154012142D01*
X74710357Y-154083571D01*
X74603214Y-154119285D01*
X74531785Y-154119285D01*
X75567500Y-154119285D02*
X75138928Y-154119285D01*
X75353214Y-154119285D02*
X75353214Y-153369285D01*
X75281785Y-153476428D01*
X75210357Y-153547857D01*
X75138928Y-153583571D01*
X60418571Y-102639285D02*
X60418571Y-103246428D01*
X60454285Y-103317857D01*
X60490000Y-103353571D01*
X60561428Y-103389285D01*
X60704285Y-103389285D01*
X60775714Y-103353571D01*
X60811428Y-103317857D01*
X60847142Y-103246428D01*
X60847142Y-102639285D01*
X61525714Y-102889285D02*
X61525714Y-103389285D01*
X61347142Y-102603571D02*
X61168571Y-103139285D01*
X61632857Y-103139285D01*
X65503571Y-94180000D02*
X65539285Y-94072857D01*
X65539285Y-93894285D01*
X65503571Y-93822857D01*
X65467857Y-93787142D01*
X65396428Y-93751428D01*
X65325000Y-93751428D01*
X65253571Y-93787142D01*
X65217857Y-93822857D01*
X65182142Y-93894285D01*
X65146428Y-94037142D01*
X65110714Y-94108571D01*
X65075000Y-94144285D01*
X65003571Y-94180000D01*
X64932142Y-94180000D01*
X64860714Y-94144285D01*
X64825000Y-94108571D01*
X64789285Y-94037142D01*
X64789285Y-93858571D01*
X64825000Y-93751428D01*
X64789285Y-93501428D02*
X65539285Y-93322857D01*
X65003571Y-93180000D01*
X65539285Y-93037142D01*
X64789285Y-92858571D01*
X65539285Y-92180000D02*
X65539285Y-92608571D01*
X65539285Y-92394285D02*
X64789285Y-92394285D01*
X64896428Y-92465714D01*
X64967857Y-92537142D01*
X65003571Y-92608571D01*
X63375000Y-99719285D02*
X63125000Y-99362142D01*
X62946428Y-99719285D02*
X62946428Y-98969285D01*
X63232142Y-98969285D01*
X63303571Y-99005000D01*
X63339285Y-99040714D01*
X63375000Y-99112142D01*
X63375000Y-99219285D01*
X63339285Y-99290714D01*
X63303571Y-99326428D01*
X63232142Y-99362142D01*
X62946428Y-99362142D01*
X64017857Y-98969285D02*
X63875000Y-98969285D01*
X63803571Y-99005000D01*
X63767857Y-99040714D01*
X63696428Y-99147857D01*
X63660714Y-99290714D01*
X63660714Y-99576428D01*
X63696428Y-99647857D01*
X63732142Y-99683571D01*
X63803571Y-99719285D01*
X63946428Y-99719285D01*
X64017857Y-99683571D01*
X64053571Y-99647857D01*
X64089285Y-99576428D01*
X64089285Y-99397857D01*
X64053571Y-99326428D01*
X64017857Y-99290714D01*
X63946428Y-99255000D01*
X63803571Y-99255000D01*
X63732142Y-99290714D01*
X63696428Y-99326428D01*
X63660714Y-99397857D01*
X80867857Y-116705000D02*
X80903571Y-116740714D01*
X80939285Y-116847857D01*
X80939285Y-116919285D01*
X80903571Y-117026428D01*
X80832142Y-117097857D01*
X80760714Y-117133571D01*
X80617857Y-117169285D01*
X80510714Y-117169285D01*
X80367857Y-117133571D01*
X80296428Y-117097857D01*
X80225000Y-117026428D01*
X80189285Y-116919285D01*
X80189285Y-116847857D01*
X80225000Y-116740714D01*
X80260714Y-116705000D01*
X80260714Y-116419285D02*
X80225000Y-116383571D01*
X80189285Y-116312142D01*
X80189285Y-116133571D01*
X80225000Y-116062142D01*
X80260714Y-116026428D01*
X80332142Y-115990714D01*
X80403571Y-115990714D01*
X80510714Y-116026428D01*
X80939285Y-116455000D01*
X80939285Y-115990714D01*
X65719285Y-84430000D02*
X66255000Y-84430000D01*
X66362142Y-84465714D01*
X66433571Y-84537142D01*
X66469285Y-84644285D01*
X66469285Y-84715714D01*
X65719285Y-84144285D02*
X65719285Y-83680000D01*
X66005000Y-83930000D01*
X66005000Y-83822857D01*
X66040714Y-83751428D01*
X66076428Y-83715714D01*
X66147857Y-83680000D01*
X66326428Y-83680000D01*
X66397857Y-83715714D01*
X66433571Y-83751428D01*
X66469285Y-83822857D01*
X66469285Y-84037142D01*
X66433571Y-84108571D01*
X66397857Y-84144285D01*
X56729285Y-84662142D02*
X56729285Y-85019285D01*
X55979285Y-85019285D01*
X56336428Y-84412142D02*
X56336428Y-84162142D01*
X56729285Y-84055000D02*
X56729285Y-84412142D01*
X55979285Y-84412142D01*
X55979285Y-84055000D01*
X56729285Y-83733571D02*
X55979285Y-83733571D01*
X55979285Y-83555000D01*
X56015000Y-83447857D01*
X56086428Y-83376428D01*
X56157857Y-83340714D01*
X56300714Y-83305000D01*
X56407857Y-83305000D01*
X56550714Y-83340714D01*
X56622142Y-83376428D01*
X56693571Y-83447857D01*
X56729285Y-83555000D01*
X56729285Y-83733571D01*
X60789285Y-129830000D02*
X61325000Y-129830000D01*
X61432142Y-129865714D01*
X61503571Y-129937142D01*
X61539285Y-130044285D01*
X61539285Y-130115714D01*
X60860714Y-129508571D02*
X60825000Y-129472857D01*
X60789285Y-129401428D01*
X60789285Y-129222857D01*
X60825000Y-129151428D01*
X60860714Y-129115714D01*
X60932142Y-129080000D01*
X61003571Y-129080000D01*
X61110714Y-129115714D01*
X61539285Y-129544285D01*
X61539285Y-129080000D01*
X56889285Y-130512142D02*
X56139285Y-130512142D01*
X56139285Y-130226428D01*
X56175000Y-130155000D01*
X56210714Y-130119285D01*
X56282142Y-130083571D01*
X56389285Y-130083571D01*
X56460714Y-130119285D01*
X56496428Y-130155000D01*
X56532142Y-130226428D01*
X56532142Y-130512142D01*
X56853571Y-129797857D02*
X56889285Y-129690714D01*
X56889285Y-129512142D01*
X56853571Y-129440714D01*
X56817857Y-129405000D01*
X56746428Y-129369285D01*
X56675000Y-129369285D01*
X56603571Y-129405000D01*
X56567857Y-129440714D01*
X56532142Y-129512142D01*
X56496428Y-129655000D01*
X56460714Y-129726428D01*
X56425000Y-129762142D01*
X56353571Y-129797857D01*
X56282142Y-129797857D01*
X56210714Y-129762142D01*
X56175000Y-129726428D01*
X56139285Y-129655000D01*
X56139285Y-129476428D01*
X56175000Y-129369285D01*
X56139285Y-129119285D02*
X56889285Y-128940714D01*
X56353571Y-128797857D01*
X56889285Y-128655000D01*
X56139285Y-128476428D01*
X72875000Y-129919285D02*
X72625000Y-129562142D01*
X72446428Y-129919285D02*
X72446428Y-129169285D01*
X72732142Y-129169285D01*
X72803571Y-129205000D01*
X72839285Y-129240714D01*
X72875000Y-129312142D01*
X72875000Y-129419285D01*
X72839285Y-129490714D01*
X72803571Y-129526428D01*
X72732142Y-129562142D01*
X72446428Y-129562142D01*
X73553571Y-129169285D02*
X73196428Y-129169285D01*
X73160714Y-129526428D01*
X73196428Y-129490714D01*
X73267857Y-129455000D01*
X73446428Y-129455000D01*
X73517857Y-129490714D01*
X73553571Y-129526428D01*
X73589285Y-129597857D01*
X73589285Y-129776428D01*
X73553571Y-129847857D01*
X73517857Y-129883571D01*
X73446428Y-129919285D01*
X73267857Y-129919285D01*
X73196428Y-129883571D01*
X73160714Y-129847857D01*
X66939285Y-132155000D02*
X66582142Y-132405000D01*
X66939285Y-132583571D02*
X66189285Y-132583571D01*
X66189285Y-132297857D01*
X66225000Y-132226428D01*
X66260714Y-132190714D01*
X66332142Y-132155000D01*
X66439285Y-132155000D01*
X66510714Y-132190714D01*
X66546428Y-132226428D01*
X66582142Y-132297857D01*
X66582142Y-132583571D01*
X66439285Y-131512142D02*
X66939285Y-131512142D01*
X66153571Y-131690714D02*
X66689285Y-131869285D01*
X66689285Y-131405000D01*
X73075000Y-126119285D02*
X72825000Y-125762142D01*
X72646428Y-126119285D02*
X72646428Y-125369285D01*
X72932142Y-125369285D01*
X73003571Y-125405000D01*
X73039285Y-125440714D01*
X73075000Y-125512142D01*
X73075000Y-125619285D01*
X73039285Y-125690714D01*
X73003571Y-125726428D01*
X72932142Y-125762142D01*
X72646428Y-125762142D01*
X73325000Y-125369285D02*
X73789285Y-125369285D01*
X73539285Y-125655000D01*
X73646428Y-125655000D01*
X73717857Y-125690714D01*
X73753571Y-125726428D01*
X73789285Y-125797857D01*
X73789285Y-125976428D01*
X73753571Y-126047857D01*
X73717857Y-126083571D01*
X73646428Y-126119285D01*
X73432142Y-126119285D01*
X73360714Y-126083571D01*
X73325000Y-126047857D01*
X65789285Y-119700000D02*
X66325000Y-119700000D01*
X66432142Y-119735714D01*
X66503571Y-119807142D01*
X66539285Y-119914285D01*
X66539285Y-119985714D01*
X66039285Y-119021428D02*
X66539285Y-119021428D01*
X65753571Y-119200000D02*
X66289285Y-119378571D01*
X66289285Y-118914285D01*
X56729285Y-120182142D02*
X55979285Y-120182142D01*
X56693571Y-119860714D02*
X56729285Y-119753571D01*
X56729285Y-119575000D01*
X56693571Y-119503571D01*
X56657857Y-119467857D01*
X56586428Y-119432142D01*
X56515000Y-119432142D01*
X56443571Y-119467857D01*
X56407857Y-119503571D01*
X56372142Y-119575000D01*
X56336428Y-119717857D01*
X56300714Y-119789285D01*
X56265000Y-119825000D01*
X56193571Y-119860714D01*
X56122142Y-119860714D01*
X56050714Y-119825000D01*
X56015000Y-119789285D01*
X55979285Y-119717857D01*
X55979285Y-119539285D01*
X56015000Y-119432142D01*
X56729285Y-119110714D02*
X55979285Y-119110714D01*
X55979285Y-118825000D01*
X56015000Y-118753571D01*
X56050714Y-118717857D01*
X56122142Y-118682142D01*
X56229285Y-118682142D01*
X56300714Y-118717857D01*
X56336428Y-118753571D01*
X56372142Y-118825000D01*
X56372142Y-119110714D01*
X77075000Y-126047857D02*
X77039285Y-126083571D01*
X76932142Y-126119285D01*
X76860714Y-126119285D01*
X76753571Y-126083571D01*
X76682142Y-126012142D01*
X76646428Y-125940714D01*
X76610714Y-125797857D01*
X76610714Y-125690714D01*
X76646428Y-125547857D01*
X76682142Y-125476428D01*
X76753571Y-125405000D01*
X76860714Y-125369285D01*
X76932142Y-125369285D01*
X77039285Y-125405000D01*
X77075000Y-125440714D01*
X77789285Y-126119285D02*
X77360714Y-126119285D01*
X77575000Y-126119285D02*
X77575000Y-125369285D01*
X77503571Y-125476428D01*
X77432142Y-125547857D01*
X77360714Y-125583571D01*
M02*
