G04 #@! TF.FileFunction,Copper,L1,Top,Signal*
%FSLAX46Y46*%
G04 Gerber Fmt 4.6, Leading zero omitted, Abs format (unit mm)*
G04 Created by KiCad (PCBNEW 4.0.7-e2-6376~61~ubuntu18.04.1) date Tue Jan 21 21:21:50 2020*
%MOMM*%
%LPD*%
G01*
G04 APERTURE LIST*
%ADD10C,0.100000*%
%ADD11R,1.700000X1.700000*%
%ADD12O,1.700000X1.700000*%
%ADD13R,1.600000X1.600000*%
%ADD14O,1.600000X1.600000*%
%ADD15C,0.304800*%
%ADD16C,0.152400*%
%ADD17C,0.254000*%
G04 APERTURE END LIST*
D10*
D11*
X160020000Y-73660000D03*
D12*
X157480000Y-73660000D03*
X154940000Y-73660000D03*
D11*
X144780000Y-115570000D03*
D12*
X144780000Y-118110000D03*
D11*
X144780000Y-113030000D03*
D12*
X144780000Y-110490000D03*
D13*
X152400000Y-107950000D03*
D14*
X160020000Y-115570000D03*
X152400000Y-110490000D03*
X160020000Y-113030000D03*
X152400000Y-113030000D03*
X160020000Y-110490000D03*
X152400000Y-115570000D03*
X160020000Y-107950000D03*
D11*
X157480000Y-119380000D03*
D12*
X157480000Y-121920000D03*
X154940000Y-119380000D03*
X154940000Y-121920000D03*
X152400000Y-119380000D03*
X152400000Y-121920000D03*
D15*
X160020000Y-73660000D02*
X160020000Y-76200000D01*
X160020000Y-76200000D02*
X160020000Y-107950000D01*
X160020000Y-107950000D02*
X161798000Y-109728000D01*
X157480000Y-121920000D02*
X155702000Y-123698000D01*
X146050000Y-118110000D02*
X144780000Y-118110000D01*
X151638000Y-123698000D02*
X146050000Y-118110000D01*
X155702000Y-123698000D02*
X151638000Y-123698000D01*
X160020000Y-121920000D02*
X157480000Y-121920000D01*
X161798000Y-120650000D02*
X160020000Y-121920000D01*
X161798000Y-109728000D02*
X161798000Y-120650000D01*
X149860000Y-106680000D02*
X157480000Y-99060000D01*
X157480000Y-99060000D02*
X157480000Y-73660000D01*
X152400000Y-113030000D02*
X149860000Y-110490000D01*
X149860000Y-110490000D02*
X149860000Y-106680000D01*
X144780000Y-113030000D02*
X144780000Y-115570000D01*
D16*
X152400000Y-107950000D02*
X154178000Y-109728000D01*
X154178000Y-117602000D02*
X152400000Y-119380000D01*
X154178000Y-109728000D02*
X154178000Y-117602000D01*
X160020000Y-115570000D02*
X160020000Y-119380000D01*
X156210000Y-120650000D02*
X154940000Y-121920000D01*
X158750000Y-120650000D02*
X156210000Y-120650000D01*
X160020000Y-119380000D02*
X158750000Y-120650000D01*
X160020000Y-113030000D02*
X158750000Y-113030000D01*
X157480000Y-114300000D02*
X157480000Y-119380000D01*
X158750000Y-113030000D02*
X157480000Y-114300000D01*
X156210000Y-116840000D02*
X156210000Y-118110000D01*
X156210000Y-118110000D02*
X154940000Y-119380000D01*
X160020000Y-110490000D02*
X157480000Y-110490000D01*
X156210000Y-111760000D02*
X156210000Y-116840000D01*
X156210000Y-116840000D02*
X156210000Y-116840000D01*
X157480000Y-110490000D02*
X156210000Y-111760000D01*
D17*
G36*
X164415000Y-72673736D02*
X164415000Y-136475000D01*
X148005000Y-136475000D01*
X148005000Y-124460000D01*
X147952857Y-124197862D01*
X147804368Y-123975632D01*
X144907000Y-121078264D01*
X144907000Y-119595000D01*
X144907002Y-119595000D01*
X144907002Y-119430820D01*
X145136892Y-119551486D01*
X145661358Y-119305183D01*
X146051645Y-118876924D01*
X146221476Y-118466890D01*
X146100155Y-118237000D01*
X144907000Y-118237000D01*
X144907000Y-117983000D01*
X146100155Y-117983000D01*
X146221476Y-117753110D01*
X146051645Y-117343076D01*
X145775499Y-117040063D01*
X145865317Y-117023162D01*
X146081441Y-116884090D01*
X146226431Y-116671890D01*
X146277440Y-116420000D01*
X146277440Y-114720000D01*
X146233162Y-114484683D01*
X146112985Y-114297923D01*
X146226431Y-114131890D01*
X146277440Y-113880000D01*
X146277440Y-112180000D01*
X146233162Y-111944683D01*
X146094090Y-111728559D01*
X145881890Y-111583569D01*
X145814459Y-111569914D01*
X145859147Y-111540054D01*
X146181054Y-111058285D01*
X146294093Y-110490000D01*
X146181054Y-109921715D01*
X145859147Y-109439946D01*
X145377378Y-109118039D01*
X144907000Y-109024475D01*
X144907000Y-107521736D01*
X145748736Y-106680000D01*
X149072600Y-106680000D01*
X149072600Y-110490000D01*
X149132537Y-110791325D01*
X149303224Y-111046776D01*
X150994883Y-112738435D01*
X150936887Y-113030000D01*
X151046120Y-113579151D01*
X151357189Y-114044698D01*
X151739275Y-114300000D01*
X151357189Y-114555302D01*
X151046120Y-115020849D01*
X150936887Y-115570000D01*
X151046120Y-116119151D01*
X151357189Y-116584698D01*
X151822736Y-116895767D01*
X152371887Y-117005000D01*
X152428113Y-117005000D01*
X152977264Y-116895767D01*
X153442811Y-116584698D01*
X153466800Y-116548796D01*
X153466800Y-117307411D01*
X152823971Y-117950240D01*
X152400000Y-117865907D01*
X151831715Y-117978946D01*
X151349946Y-118300853D01*
X151028039Y-118782622D01*
X150915000Y-119350907D01*
X150915000Y-119409093D01*
X151028039Y-119977378D01*
X151349946Y-120459147D01*
X151635578Y-120650000D01*
X151349946Y-120840853D01*
X151028039Y-121322622D01*
X150915000Y-121890907D01*
X150915000Y-121949093D01*
X151028039Y-122517378D01*
X151349946Y-122999147D01*
X151831715Y-123321054D01*
X152400000Y-123434093D01*
X152968285Y-123321054D01*
X153450054Y-122999147D01*
X153670000Y-122669974D01*
X153889946Y-122999147D01*
X154371715Y-123321054D01*
X154940000Y-123434093D01*
X155508285Y-123321054D01*
X155990054Y-122999147D01*
X156217702Y-122658447D01*
X156284817Y-122801358D01*
X156713076Y-123191645D01*
X157123110Y-123361476D01*
X157353000Y-123240155D01*
X157353000Y-122047000D01*
X157607000Y-122047000D01*
X157607000Y-123240155D01*
X157836890Y-123361476D01*
X158246924Y-123191645D01*
X158675183Y-122801358D01*
X158921486Y-122276892D01*
X158800819Y-122047000D01*
X157607000Y-122047000D01*
X157353000Y-122047000D01*
X157333000Y-122047000D01*
X157333000Y-121793000D01*
X157353000Y-121793000D01*
X157353000Y-121773000D01*
X157607000Y-121773000D01*
X157607000Y-121793000D01*
X158800819Y-121793000D01*
X158921486Y-121563108D01*
X158820115Y-121347253D01*
X159022165Y-121307063D01*
X159252894Y-121152894D01*
X160522894Y-119882895D01*
X160677063Y-119652165D01*
X160721091Y-119430819D01*
X160731200Y-119380000D01*
X160731200Y-116806274D01*
X161062811Y-116584698D01*
X161373880Y-116119151D01*
X161483113Y-115570000D01*
X161373880Y-115020849D01*
X161062811Y-114555302D01*
X160680725Y-114300000D01*
X161062811Y-114044698D01*
X161373880Y-113579151D01*
X161483113Y-113030000D01*
X161373880Y-112480849D01*
X161062811Y-112015302D01*
X160680725Y-111760000D01*
X161062811Y-111504698D01*
X161373880Y-111039151D01*
X161483113Y-110490000D01*
X161373880Y-109940849D01*
X161062811Y-109475302D01*
X160658297Y-109205014D01*
X160875134Y-109102389D01*
X161251041Y-108687423D01*
X161411904Y-108299039D01*
X161289915Y-108077000D01*
X160147000Y-108077000D01*
X160147000Y-108097000D01*
X159893000Y-108097000D01*
X159893000Y-108077000D01*
X158750085Y-108077000D01*
X158628096Y-108299039D01*
X158788959Y-108687423D01*
X159164866Y-109102389D01*
X159381703Y-109205014D01*
X158977189Y-109475302D01*
X158774398Y-109778800D01*
X157480000Y-109778800D01*
X157252990Y-109823955D01*
X157207835Y-109832937D01*
X156977105Y-109987106D01*
X155707106Y-111257106D01*
X155552937Y-111487835D01*
X155552937Y-111487836D01*
X155498800Y-111760000D01*
X155498800Y-117815411D01*
X155363971Y-117950240D01*
X154940000Y-117865907D01*
X154825341Y-117888714D01*
X154835063Y-117874164D01*
X154889200Y-117602000D01*
X154889200Y-109728000D01*
X154835063Y-109455836D01*
X154796044Y-109397440D01*
X154680895Y-109225106D01*
X153847440Y-108391651D01*
X153847440Y-107600961D01*
X158628096Y-107600961D01*
X158750085Y-107823000D01*
X159893000Y-107823000D01*
X159893000Y-106679371D01*
X160147000Y-106679371D01*
X160147000Y-107823000D01*
X161289915Y-107823000D01*
X161411904Y-107600961D01*
X161251041Y-107212577D01*
X160875134Y-106797611D01*
X160369041Y-106558086D01*
X160147000Y-106679371D01*
X159893000Y-106679371D01*
X159670959Y-106558086D01*
X159164866Y-106797611D01*
X158788959Y-107212577D01*
X158628096Y-107600961D01*
X153847440Y-107600961D01*
X153847440Y-107150000D01*
X153803162Y-106914683D01*
X153664090Y-106698559D01*
X153451890Y-106553569D01*
X153200000Y-106502560D01*
X151600000Y-106502560D01*
X151364683Y-106546838D01*
X151148559Y-106685910D01*
X151003569Y-106898110D01*
X150952560Y-107150000D01*
X150952560Y-108750000D01*
X150996838Y-108985317D01*
X151135910Y-109201441D01*
X151348110Y-109346431D01*
X151503089Y-109377815D01*
X151357189Y-109475302D01*
X151046120Y-109940849D01*
X150942970Y-110459418D01*
X150647400Y-110163848D01*
X150647400Y-107006152D01*
X158036776Y-99616776D01*
X158207463Y-99361325D01*
X158267400Y-99060000D01*
X158267400Y-74914646D01*
X158530054Y-74739147D01*
X158559403Y-74695223D01*
X158631673Y-74869698D01*
X158810301Y-75048327D01*
X159043690Y-75145000D01*
X159734250Y-75145000D01*
X159893000Y-74986250D01*
X159893000Y-73787000D01*
X160147000Y-73787000D01*
X160147000Y-74986250D01*
X160305750Y-75145000D01*
X160996310Y-75145000D01*
X161229699Y-75048327D01*
X161408327Y-74869698D01*
X161505000Y-74636309D01*
X161505000Y-73945750D01*
X161346250Y-73787000D01*
X160147000Y-73787000D01*
X159893000Y-73787000D01*
X159873000Y-73787000D01*
X159873000Y-73533000D01*
X159893000Y-73533000D01*
X159893000Y-72333750D01*
X160147000Y-72333750D01*
X160147000Y-73533000D01*
X161346250Y-73533000D01*
X161505000Y-73374250D01*
X161505000Y-72683691D01*
X161408327Y-72450302D01*
X161229699Y-72271673D01*
X160996310Y-72175000D01*
X160305750Y-72175000D01*
X160147000Y-72333750D01*
X159893000Y-72333750D01*
X159734250Y-72175000D01*
X159043690Y-72175000D01*
X158810301Y-72271673D01*
X158631673Y-72450302D01*
X158559403Y-72624777D01*
X158530054Y-72580853D01*
X158048285Y-72258946D01*
X157480000Y-72145907D01*
X156911715Y-72258946D01*
X156429946Y-72580853D01*
X156210000Y-72910026D01*
X155990054Y-72580853D01*
X155508285Y-72258946D01*
X154940000Y-72145907D01*
X154371715Y-72258946D01*
X153889946Y-72580853D01*
X153568039Y-73062622D01*
X153455000Y-73630907D01*
X153455000Y-73689093D01*
X153568039Y-74257378D01*
X153889946Y-74739147D01*
X154371715Y-75061054D01*
X154940000Y-75174093D01*
X155508285Y-75061054D01*
X155990054Y-74739147D01*
X156210000Y-74409974D01*
X156429946Y-74739147D01*
X156692600Y-74914646D01*
X156692600Y-98733848D01*
X149303224Y-106123224D01*
X149132537Y-106378675D01*
X149072600Y-106680000D01*
X145748736Y-106680000D01*
X147804368Y-104624368D01*
X147952857Y-104402138D01*
X148005000Y-104140000D01*
X148005000Y-82473000D01*
X149860000Y-82473000D01*
X150122138Y-82420857D01*
X150344368Y-82272368D01*
X150492857Y-82050138D01*
X150545000Y-81788000D01*
X150545000Y-72673736D01*
X151413736Y-71805000D01*
X163546264Y-71805000D01*
X164415000Y-72673736D01*
X164415000Y-72673736D01*
G37*
X164415000Y-72673736D02*
X164415000Y-136475000D01*
X148005000Y-136475000D01*
X148005000Y-124460000D01*
X147952857Y-124197862D01*
X147804368Y-123975632D01*
X144907000Y-121078264D01*
X144907000Y-119595000D01*
X144907002Y-119595000D01*
X144907002Y-119430820D01*
X145136892Y-119551486D01*
X145661358Y-119305183D01*
X146051645Y-118876924D01*
X146221476Y-118466890D01*
X146100155Y-118237000D01*
X144907000Y-118237000D01*
X144907000Y-117983000D01*
X146100155Y-117983000D01*
X146221476Y-117753110D01*
X146051645Y-117343076D01*
X145775499Y-117040063D01*
X145865317Y-117023162D01*
X146081441Y-116884090D01*
X146226431Y-116671890D01*
X146277440Y-116420000D01*
X146277440Y-114720000D01*
X146233162Y-114484683D01*
X146112985Y-114297923D01*
X146226431Y-114131890D01*
X146277440Y-113880000D01*
X146277440Y-112180000D01*
X146233162Y-111944683D01*
X146094090Y-111728559D01*
X145881890Y-111583569D01*
X145814459Y-111569914D01*
X145859147Y-111540054D01*
X146181054Y-111058285D01*
X146294093Y-110490000D01*
X146181054Y-109921715D01*
X145859147Y-109439946D01*
X145377378Y-109118039D01*
X144907000Y-109024475D01*
X144907000Y-107521736D01*
X145748736Y-106680000D01*
X149072600Y-106680000D01*
X149072600Y-110490000D01*
X149132537Y-110791325D01*
X149303224Y-111046776D01*
X150994883Y-112738435D01*
X150936887Y-113030000D01*
X151046120Y-113579151D01*
X151357189Y-114044698D01*
X151739275Y-114300000D01*
X151357189Y-114555302D01*
X151046120Y-115020849D01*
X150936887Y-115570000D01*
X151046120Y-116119151D01*
X151357189Y-116584698D01*
X151822736Y-116895767D01*
X152371887Y-117005000D01*
X152428113Y-117005000D01*
X152977264Y-116895767D01*
X153442811Y-116584698D01*
X153466800Y-116548796D01*
X153466800Y-117307411D01*
X152823971Y-117950240D01*
X152400000Y-117865907D01*
X151831715Y-117978946D01*
X151349946Y-118300853D01*
X151028039Y-118782622D01*
X150915000Y-119350907D01*
X150915000Y-119409093D01*
X151028039Y-119977378D01*
X151349946Y-120459147D01*
X151635578Y-120650000D01*
X151349946Y-120840853D01*
X151028039Y-121322622D01*
X150915000Y-121890907D01*
X150915000Y-121949093D01*
X151028039Y-122517378D01*
X151349946Y-122999147D01*
X151831715Y-123321054D01*
X152400000Y-123434093D01*
X152968285Y-123321054D01*
X153450054Y-122999147D01*
X153670000Y-122669974D01*
X153889946Y-122999147D01*
X154371715Y-123321054D01*
X154940000Y-123434093D01*
X155508285Y-123321054D01*
X155990054Y-122999147D01*
X156217702Y-122658447D01*
X156284817Y-122801358D01*
X156713076Y-123191645D01*
X157123110Y-123361476D01*
X157353000Y-123240155D01*
X157353000Y-122047000D01*
X157607000Y-122047000D01*
X157607000Y-123240155D01*
X157836890Y-123361476D01*
X158246924Y-123191645D01*
X158675183Y-122801358D01*
X158921486Y-122276892D01*
X158800819Y-122047000D01*
X157607000Y-122047000D01*
X157353000Y-122047000D01*
X157333000Y-122047000D01*
X157333000Y-121793000D01*
X157353000Y-121793000D01*
X157353000Y-121773000D01*
X157607000Y-121773000D01*
X157607000Y-121793000D01*
X158800819Y-121793000D01*
X158921486Y-121563108D01*
X158820115Y-121347253D01*
X159022165Y-121307063D01*
X159252894Y-121152894D01*
X160522894Y-119882895D01*
X160677063Y-119652165D01*
X160721091Y-119430819D01*
X160731200Y-119380000D01*
X160731200Y-116806274D01*
X161062811Y-116584698D01*
X161373880Y-116119151D01*
X161483113Y-115570000D01*
X161373880Y-115020849D01*
X161062811Y-114555302D01*
X160680725Y-114300000D01*
X161062811Y-114044698D01*
X161373880Y-113579151D01*
X161483113Y-113030000D01*
X161373880Y-112480849D01*
X161062811Y-112015302D01*
X160680725Y-111760000D01*
X161062811Y-111504698D01*
X161373880Y-111039151D01*
X161483113Y-110490000D01*
X161373880Y-109940849D01*
X161062811Y-109475302D01*
X160658297Y-109205014D01*
X160875134Y-109102389D01*
X161251041Y-108687423D01*
X161411904Y-108299039D01*
X161289915Y-108077000D01*
X160147000Y-108077000D01*
X160147000Y-108097000D01*
X159893000Y-108097000D01*
X159893000Y-108077000D01*
X158750085Y-108077000D01*
X158628096Y-108299039D01*
X158788959Y-108687423D01*
X159164866Y-109102389D01*
X159381703Y-109205014D01*
X158977189Y-109475302D01*
X158774398Y-109778800D01*
X157480000Y-109778800D01*
X157252990Y-109823955D01*
X157207835Y-109832937D01*
X156977105Y-109987106D01*
X155707106Y-111257106D01*
X155552937Y-111487835D01*
X155552937Y-111487836D01*
X155498800Y-111760000D01*
X155498800Y-117815411D01*
X155363971Y-117950240D01*
X154940000Y-117865907D01*
X154825341Y-117888714D01*
X154835063Y-117874164D01*
X154889200Y-117602000D01*
X154889200Y-109728000D01*
X154835063Y-109455836D01*
X154796044Y-109397440D01*
X154680895Y-109225106D01*
X153847440Y-108391651D01*
X153847440Y-107600961D01*
X158628096Y-107600961D01*
X158750085Y-107823000D01*
X159893000Y-107823000D01*
X159893000Y-106679371D01*
X160147000Y-106679371D01*
X160147000Y-107823000D01*
X161289915Y-107823000D01*
X161411904Y-107600961D01*
X161251041Y-107212577D01*
X160875134Y-106797611D01*
X160369041Y-106558086D01*
X160147000Y-106679371D01*
X159893000Y-106679371D01*
X159670959Y-106558086D01*
X159164866Y-106797611D01*
X158788959Y-107212577D01*
X158628096Y-107600961D01*
X153847440Y-107600961D01*
X153847440Y-107150000D01*
X153803162Y-106914683D01*
X153664090Y-106698559D01*
X153451890Y-106553569D01*
X153200000Y-106502560D01*
X151600000Y-106502560D01*
X151364683Y-106546838D01*
X151148559Y-106685910D01*
X151003569Y-106898110D01*
X150952560Y-107150000D01*
X150952560Y-108750000D01*
X150996838Y-108985317D01*
X151135910Y-109201441D01*
X151348110Y-109346431D01*
X151503089Y-109377815D01*
X151357189Y-109475302D01*
X151046120Y-109940849D01*
X150942970Y-110459418D01*
X150647400Y-110163848D01*
X150647400Y-107006152D01*
X158036776Y-99616776D01*
X158207463Y-99361325D01*
X158267400Y-99060000D01*
X158267400Y-74914646D01*
X158530054Y-74739147D01*
X158559403Y-74695223D01*
X158631673Y-74869698D01*
X158810301Y-75048327D01*
X159043690Y-75145000D01*
X159734250Y-75145000D01*
X159893000Y-74986250D01*
X159893000Y-73787000D01*
X160147000Y-73787000D01*
X160147000Y-74986250D01*
X160305750Y-75145000D01*
X160996310Y-75145000D01*
X161229699Y-75048327D01*
X161408327Y-74869698D01*
X161505000Y-74636309D01*
X161505000Y-73945750D01*
X161346250Y-73787000D01*
X160147000Y-73787000D01*
X159893000Y-73787000D01*
X159873000Y-73787000D01*
X159873000Y-73533000D01*
X159893000Y-73533000D01*
X159893000Y-72333750D01*
X160147000Y-72333750D01*
X160147000Y-73533000D01*
X161346250Y-73533000D01*
X161505000Y-73374250D01*
X161505000Y-72683691D01*
X161408327Y-72450302D01*
X161229699Y-72271673D01*
X160996310Y-72175000D01*
X160305750Y-72175000D01*
X160147000Y-72333750D01*
X159893000Y-72333750D01*
X159734250Y-72175000D01*
X159043690Y-72175000D01*
X158810301Y-72271673D01*
X158631673Y-72450302D01*
X158559403Y-72624777D01*
X158530054Y-72580853D01*
X158048285Y-72258946D01*
X157480000Y-72145907D01*
X156911715Y-72258946D01*
X156429946Y-72580853D01*
X156210000Y-72910026D01*
X155990054Y-72580853D01*
X155508285Y-72258946D01*
X154940000Y-72145907D01*
X154371715Y-72258946D01*
X153889946Y-72580853D01*
X153568039Y-73062622D01*
X153455000Y-73630907D01*
X153455000Y-73689093D01*
X153568039Y-74257378D01*
X153889946Y-74739147D01*
X154371715Y-75061054D01*
X154940000Y-75174093D01*
X155508285Y-75061054D01*
X155990054Y-74739147D01*
X156210000Y-74409974D01*
X156429946Y-74739147D01*
X156692600Y-74914646D01*
X156692600Y-98733848D01*
X149303224Y-106123224D01*
X149132537Y-106378675D01*
X149072600Y-106680000D01*
X145748736Y-106680000D01*
X147804368Y-104624368D01*
X147952857Y-104402138D01*
X148005000Y-104140000D01*
X148005000Y-82473000D01*
X149860000Y-82473000D01*
X150122138Y-82420857D01*
X150344368Y-82272368D01*
X150492857Y-82050138D01*
X150545000Y-81788000D01*
X150545000Y-72673736D01*
X151413736Y-71805000D01*
X163546264Y-71805000D01*
X164415000Y-72673736D01*
M02*
