G04 #@! TF.FileFunction,Copper,L1,Top,Signal*
%FSLAX46Y46*%
G04 Gerber Fmt 4.6, Leading zero omitted, Abs format (unit mm)*
G04 Created by KiCad (PCBNEW 4.0.7-e2-6376~61~ubuntu18.04.1) date Mon Jan 20 22:18:18 2020*
%MOMM*%
%LPD*%
G01*
G04 APERTURE LIST*
%ADD10C,0.100000*%
%ADD11R,1.700000X1.700000*%
%ADD12O,1.700000X1.700000*%
%ADD13R,1.600000X1.600000*%
%ADD14O,1.600000X1.600000*%
%ADD15C,0.304800*%
%ADD16C,0.152400*%
%ADD17C,0.254000*%
G04 APERTURE END LIST*
D10*
D11*
X17780000Y63500000D03*
D12*
X15240000Y63500000D03*
X12700000Y63500000D03*
D11*
X2540000Y21590000D03*
D12*
X2540000Y19050000D03*
D11*
X2540000Y24130000D03*
D12*
X2540000Y26670000D03*
D13*
X10160000Y29210000D03*
D14*
X17780000Y21590000D03*
X10160000Y26670000D03*
X17780000Y24130000D03*
X10160000Y24130000D03*
X17780000Y26670000D03*
X10160000Y21590000D03*
X17780000Y29210000D03*
D11*
X15240000Y17780000D03*
D12*
X15240000Y15240000D03*
X12700000Y17780000D03*
X12700000Y15240000D03*
X10160000Y17780000D03*
X10160000Y15240000D03*
D15*
X17780000Y63500000D02*
X17780000Y60960000D01*
X17780000Y60960000D02*
X17780000Y29210000D01*
X17780000Y29210000D02*
X19558000Y27432000D01*
X15240000Y15240000D02*
X13462000Y13462000D01*
X3810000Y19050000D02*
X2540000Y19050000D01*
X9398000Y13462000D02*
X3810000Y19050000D01*
X13462000Y13462000D02*
X9398000Y13462000D01*
X17780000Y15240000D02*
X15240000Y15240000D01*
X19558000Y16510000D02*
X17780000Y15240000D01*
X19558000Y27432000D02*
X19558000Y16510000D01*
X7620000Y30480000D02*
X15240000Y38100000D01*
X15240000Y38100000D02*
X15240000Y63500000D01*
X10160000Y24130000D02*
X7620000Y26670000D01*
X7620000Y26670000D02*
X7620000Y30480000D01*
X2540000Y24130000D02*
X2540000Y21590000D01*
D16*
X10160000Y29210000D02*
X11938000Y27432000D01*
X11938000Y19558000D02*
X10160000Y17780000D01*
X11938000Y27432000D02*
X11938000Y19558000D01*
X17780000Y21590000D02*
X17780000Y17780000D01*
X13970000Y16510000D02*
X12700000Y15240000D01*
X16510000Y16510000D02*
X13970000Y16510000D01*
X17780000Y17780000D02*
X16510000Y16510000D01*
X17780000Y24130000D02*
X16510000Y24130000D01*
X15240000Y22860000D02*
X15240000Y17780000D01*
X16510000Y24130000D02*
X15240000Y22860000D01*
X13970000Y20320000D02*
X13970000Y19050000D01*
X13970000Y19050000D02*
X12700000Y17780000D01*
X17780000Y26670000D02*
X15240000Y26670000D01*
X13970000Y25400000D02*
X13970000Y20320000D01*
X13970000Y20320000D02*
X13970000Y20320000D01*
X15240000Y26670000D02*
X13970000Y25400000D01*
D17*
G36*
X22175000Y64486264D02*
X22175000Y685000D01*
X5765000Y685000D01*
X5765000Y12700000D01*
X5712857Y12962138D01*
X5564368Y13184368D01*
X2667000Y16081736D01*
X2667000Y17565000D01*
X2667002Y17565000D01*
X2667002Y17729180D01*
X2896892Y17608514D01*
X3421358Y17854817D01*
X3811645Y18283076D01*
X3981476Y18693110D01*
X3860155Y18923000D01*
X2667000Y18923000D01*
X2667000Y19177000D01*
X3860155Y19177000D01*
X3981476Y19406890D01*
X3811645Y19816924D01*
X3535499Y20119937D01*
X3625317Y20136838D01*
X3841441Y20275910D01*
X3986431Y20488110D01*
X4037440Y20740000D01*
X4037440Y22440000D01*
X3993162Y22675317D01*
X3872985Y22862077D01*
X3986431Y23028110D01*
X4037440Y23280000D01*
X4037440Y24980000D01*
X3993162Y25215317D01*
X3854090Y25431441D01*
X3641890Y25576431D01*
X3574459Y25590086D01*
X3619147Y25619946D01*
X3941054Y26101715D01*
X4054093Y26670000D01*
X3941054Y27238285D01*
X3619147Y27720054D01*
X3137378Y28041961D01*
X2667000Y28135525D01*
X2667000Y29638264D01*
X3508736Y30480000D01*
X6832600Y30480000D01*
X6832600Y26670000D01*
X6892537Y26368675D01*
X7063224Y26113224D01*
X8754883Y24421565D01*
X8696887Y24130000D01*
X8806120Y23580849D01*
X9117189Y23115302D01*
X9499275Y22860000D01*
X9117189Y22604698D01*
X8806120Y22139151D01*
X8696887Y21590000D01*
X8806120Y21040849D01*
X9117189Y20575302D01*
X9582736Y20264233D01*
X10131887Y20155000D01*
X10188113Y20155000D01*
X10737264Y20264233D01*
X11202811Y20575302D01*
X11226800Y20611204D01*
X11226800Y19852589D01*
X10583971Y19209760D01*
X10160000Y19294093D01*
X9591715Y19181054D01*
X9109946Y18859147D01*
X8788039Y18377378D01*
X8675000Y17809093D01*
X8675000Y17750907D01*
X8788039Y17182622D01*
X9109946Y16700853D01*
X9395578Y16510000D01*
X9109946Y16319147D01*
X8788039Y15837378D01*
X8675000Y15269093D01*
X8675000Y15210907D01*
X8788039Y14642622D01*
X9109946Y14160853D01*
X9591715Y13838946D01*
X10160000Y13725907D01*
X10728285Y13838946D01*
X11210054Y14160853D01*
X11430000Y14490026D01*
X11649946Y14160853D01*
X12131715Y13838946D01*
X12700000Y13725907D01*
X13268285Y13838946D01*
X13750054Y14160853D01*
X13977702Y14501553D01*
X14044817Y14358642D01*
X14473076Y13968355D01*
X14883110Y13798524D01*
X15113000Y13919845D01*
X15113000Y15113000D01*
X15367000Y15113000D01*
X15367000Y13919845D01*
X15596890Y13798524D01*
X16006924Y13968355D01*
X16435183Y14358642D01*
X16681486Y14883108D01*
X16560819Y15113000D01*
X15367000Y15113000D01*
X15113000Y15113000D01*
X15093000Y15113000D01*
X15093000Y15367000D01*
X15113000Y15367000D01*
X15113000Y15387000D01*
X15367000Y15387000D01*
X15367000Y15367000D01*
X16560819Y15367000D01*
X16681486Y15596892D01*
X16580115Y15812747D01*
X16782165Y15852937D01*
X17012894Y16007106D01*
X18282894Y17277105D01*
X18437063Y17507835D01*
X18481091Y17729181D01*
X18491200Y17780000D01*
X18491200Y20353726D01*
X18822811Y20575302D01*
X19133880Y21040849D01*
X19243113Y21590000D01*
X19133880Y22139151D01*
X18822811Y22604698D01*
X18440725Y22860000D01*
X18822811Y23115302D01*
X19133880Y23580849D01*
X19243113Y24130000D01*
X19133880Y24679151D01*
X18822811Y25144698D01*
X18440725Y25400000D01*
X18822811Y25655302D01*
X19133880Y26120849D01*
X19243113Y26670000D01*
X19133880Y27219151D01*
X18822811Y27684698D01*
X18418297Y27954986D01*
X18635134Y28057611D01*
X19011041Y28472577D01*
X19171904Y28860961D01*
X19049915Y29083000D01*
X17907000Y29083000D01*
X17907000Y29063000D01*
X17653000Y29063000D01*
X17653000Y29083000D01*
X16510085Y29083000D01*
X16388096Y28860961D01*
X16548959Y28472577D01*
X16924866Y28057611D01*
X17141703Y27954986D01*
X16737189Y27684698D01*
X16534398Y27381200D01*
X15240000Y27381200D01*
X15012990Y27336045D01*
X14967835Y27327063D01*
X14737105Y27172894D01*
X13467106Y25902894D01*
X13312937Y25672165D01*
X13312937Y25672164D01*
X13258800Y25400000D01*
X13258800Y19344589D01*
X13123971Y19209760D01*
X12700000Y19294093D01*
X12585341Y19271286D01*
X12595063Y19285836D01*
X12649200Y19558000D01*
X12649200Y27432000D01*
X12595063Y27704164D01*
X12556044Y27762560D01*
X12440895Y27934894D01*
X11607440Y28768349D01*
X11607440Y29559039D01*
X16388096Y29559039D01*
X16510085Y29337000D01*
X17653000Y29337000D01*
X17653000Y30480629D01*
X17907000Y30480629D01*
X17907000Y29337000D01*
X19049915Y29337000D01*
X19171904Y29559039D01*
X19011041Y29947423D01*
X18635134Y30362389D01*
X18129041Y30601914D01*
X17907000Y30480629D01*
X17653000Y30480629D01*
X17430959Y30601914D01*
X16924866Y30362389D01*
X16548959Y29947423D01*
X16388096Y29559039D01*
X11607440Y29559039D01*
X11607440Y30010000D01*
X11563162Y30245317D01*
X11424090Y30461441D01*
X11211890Y30606431D01*
X10960000Y30657440D01*
X9360000Y30657440D01*
X9124683Y30613162D01*
X8908559Y30474090D01*
X8763569Y30261890D01*
X8712560Y30010000D01*
X8712560Y28410000D01*
X8756838Y28174683D01*
X8895910Y27958559D01*
X9108110Y27813569D01*
X9263089Y27782185D01*
X9117189Y27684698D01*
X8806120Y27219151D01*
X8702970Y26700582D01*
X8407400Y26996152D01*
X8407400Y30153848D01*
X15796776Y37543224D01*
X15967463Y37798675D01*
X16027400Y38100000D01*
X16027400Y62245354D01*
X16290054Y62420853D01*
X16319403Y62464777D01*
X16391673Y62290302D01*
X16570301Y62111673D01*
X16803690Y62015000D01*
X17494250Y62015000D01*
X17653000Y62173750D01*
X17653000Y63373000D01*
X17907000Y63373000D01*
X17907000Y62173750D01*
X18065750Y62015000D01*
X18756310Y62015000D01*
X18989699Y62111673D01*
X19168327Y62290302D01*
X19265000Y62523691D01*
X19265000Y63214250D01*
X19106250Y63373000D01*
X17907000Y63373000D01*
X17653000Y63373000D01*
X17633000Y63373000D01*
X17633000Y63627000D01*
X17653000Y63627000D01*
X17653000Y64826250D01*
X17907000Y64826250D01*
X17907000Y63627000D01*
X19106250Y63627000D01*
X19265000Y63785750D01*
X19265000Y64476309D01*
X19168327Y64709698D01*
X18989699Y64888327D01*
X18756310Y64985000D01*
X18065750Y64985000D01*
X17907000Y64826250D01*
X17653000Y64826250D01*
X17494250Y64985000D01*
X16803690Y64985000D01*
X16570301Y64888327D01*
X16391673Y64709698D01*
X16319403Y64535223D01*
X16290054Y64579147D01*
X15808285Y64901054D01*
X15240000Y65014093D01*
X14671715Y64901054D01*
X14189946Y64579147D01*
X13970000Y64249974D01*
X13750054Y64579147D01*
X13268285Y64901054D01*
X12700000Y65014093D01*
X12131715Y64901054D01*
X11649946Y64579147D01*
X11328039Y64097378D01*
X11215000Y63529093D01*
X11215000Y63470907D01*
X11328039Y62902622D01*
X11649946Y62420853D01*
X12131715Y62098946D01*
X12700000Y61985907D01*
X13268285Y62098946D01*
X13750054Y62420853D01*
X13970000Y62750026D01*
X14189946Y62420853D01*
X14452600Y62245354D01*
X14452600Y38426152D01*
X7063224Y31036776D01*
X6892537Y30781325D01*
X6832600Y30480000D01*
X3508736Y30480000D01*
X5564368Y32535632D01*
X5712857Y32757862D01*
X5765000Y33020000D01*
X5765000Y54687000D01*
X7620000Y54687000D01*
X7882138Y54739143D01*
X8104368Y54887632D01*
X8252857Y55109862D01*
X8305000Y55372000D01*
X8305000Y64486264D01*
X9173736Y65355000D01*
X21306264Y65355000D01*
X22175000Y64486264D01*
X22175000Y64486264D01*
G37*
X22175000Y64486264D02*
X22175000Y685000D01*
X5765000Y685000D01*
X5765000Y12700000D01*
X5712857Y12962138D01*
X5564368Y13184368D01*
X2667000Y16081736D01*
X2667000Y17565000D01*
X2667002Y17565000D01*
X2667002Y17729180D01*
X2896892Y17608514D01*
X3421358Y17854817D01*
X3811645Y18283076D01*
X3981476Y18693110D01*
X3860155Y18923000D01*
X2667000Y18923000D01*
X2667000Y19177000D01*
X3860155Y19177000D01*
X3981476Y19406890D01*
X3811645Y19816924D01*
X3535499Y20119937D01*
X3625317Y20136838D01*
X3841441Y20275910D01*
X3986431Y20488110D01*
X4037440Y20740000D01*
X4037440Y22440000D01*
X3993162Y22675317D01*
X3872985Y22862077D01*
X3986431Y23028110D01*
X4037440Y23280000D01*
X4037440Y24980000D01*
X3993162Y25215317D01*
X3854090Y25431441D01*
X3641890Y25576431D01*
X3574459Y25590086D01*
X3619147Y25619946D01*
X3941054Y26101715D01*
X4054093Y26670000D01*
X3941054Y27238285D01*
X3619147Y27720054D01*
X3137378Y28041961D01*
X2667000Y28135525D01*
X2667000Y29638264D01*
X3508736Y30480000D01*
X6832600Y30480000D01*
X6832600Y26670000D01*
X6892537Y26368675D01*
X7063224Y26113224D01*
X8754883Y24421565D01*
X8696887Y24130000D01*
X8806120Y23580849D01*
X9117189Y23115302D01*
X9499275Y22860000D01*
X9117189Y22604698D01*
X8806120Y22139151D01*
X8696887Y21590000D01*
X8806120Y21040849D01*
X9117189Y20575302D01*
X9582736Y20264233D01*
X10131887Y20155000D01*
X10188113Y20155000D01*
X10737264Y20264233D01*
X11202811Y20575302D01*
X11226800Y20611204D01*
X11226800Y19852589D01*
X10583971Y19209760D01*
X10160000Y19294093D01*
X9591715Y19181054D01*
X9109946Y18859147D01*
X8788039Y18377378D01*
X8675000Y17809093D01*
X8675000Y17750907D01*
X8788039Y17182622D01*
X9109946Y16700853D01*
X9395578Y16510000D01*
X9109946Y16319147D01*
X8788039Y15837378D01*
X8675000Y15269093D01*
X8675000Y15210907D01*
X8788039Y14642622D01*
X9109946Y14160853D01*
X9591715Y13838946D01*
X10160000Y13725907D01*
X10728285Y13838946D01*
X11210054Y14160853D01*
X11430000Y14490026D01*
X11649946Y14160853D01*
X12131715Y13838946D01*
X12700000Y13725907D01*
X13268285Y13838946D01*
X13750054Y14160853D01*
X13977702Y14501553D01*
X14044817Y14358642D01*
X14473076Y13968355D01*
X14883110Y13798524D01*
X15113000Y13919845D01*
X15113000Y15113000D01*
X15367000Y15113000D01*
X15367000Y13919845D01*
X15596890Y13798524D01*
X16006924Y13968355D01*
X16435183Y14358642D01*
X16681486Y14883108D01*
X16560819Y15113000D01*
X15367000Y15113000D01*
X15113000Y15113000D01*
X15093000Y15113000D01*
X15093000Y15367000D01*
X15113000Y15367000D01*
X15113000Y15387000D01*
X15367000Y15387000D01*
X15367000Y15367000D01*
X16560819Y15367000D01*
X16681486Y15596892D01*
X16580115Y15812747D01*
X16782165Y15852937D01*
X17012894Y16007106D01*
X18282894Y17277105D01*
X18437063Y17507835D01*
X18481091Y17729181D01*
X18491200Y17780000D01*
X18491200Y20353726D01*
X18822811Y20575302D01*
X19133880Y21040849D01*
X19243113Y21590000D01*
X19133880Y22139151D01*
X18822811Y22604698D01*
X18440725Y22860000D01*
X18822811Y23115302D01*
X19133880Y23580849D01*
X19243113Y24130000D01*
X19133880Y24679151D01*
X18822811Y25144698D01*
X18440725Y25400000D01*
X18822811Y25655302D01*
X19133880Y26120849D01*
X19243113Y26670000D01*
X19133880Y27219151D01*
X18822811Y27684698D01*
X18418297Y27954986D01*
X18635134Y28057611D01*
X19011041Y28472577D01*
X19171904Y28860961D01*
X19049915Y29083000D01*
X17907000Y29083000D01*
X17907000Y29063000D01*
X17653000Y29063000D01*
X17653000Y29083000D01*
X16510085Y29083000D01*
X16388096Y28860961D01*
X16548959Y28472577D01*
X16924866Y28057611D01*
X17141703Y27954986D01*
X16737189Y27684698D01*
X16534398Y27381200D01*
X15240000Y27381200D01*
X15012990Y27336045D01*
X14967835Y27327063D01*
X14737105Y27172894D01*
X13467106Y25902894D01*
X13312937Y25672165D01*
X13312937Y25672164D01*
X13258800Y25400000D01*
X13258800Y19344589D01*
X13123971Y19209760D01*
X12700000Y19294093D01*
X12585341Y19271286D01*
X12595063Y19285836D01*
X12649200Y19558000D01*
X12649200Y27432000D01*
X12595063Y27704164D01*
X12556044Y27762560D01*
X12440895Y27934894D01*
X11607440Y28768349D01*
X11607440Y29559039D01*
X16388096Y29559039D01*
X16510085Y29337000D01*
X17653000Y29337000D01*
X17653000Y30480629D01*
X17907000Y30480629D01*
X17907000Y29337000D01*
X19049915Y29337000D01*
X19171904Y29559039D01*
X19011041Y29947423D01*
X18635134Y30362389D01*
X18129041Y30601914D01*
X17907000Y30480629D01*
X17653000Y30480629D01*
X17430959Y30601914D01*
X16924866Y30362389D01*
X16548959Y29947423D01*
X16388096Y29559039D01*
X11607440Y29559039D01*
X11607440Y30010000D01*
X11563162Y30245317D01*
X11424090Y30461441D01*
X11211890Y30606431D01*
X10960000Y30657440D01*
X9360000Y30657440D01*
X9124683Y30613162D01*
X8908559Y30474090D01*
X8763569Y30261890D01*
X8712560Y30010000D01*
X8712560Y28410000D01*
X8756838Y28174683D01*
X8895910Y27958559D01*
X9108110Y27813569D01*
X9263089Y27782185D01*
X9117189Y27684698D01*
X8806120Y27219151D01*
X8702970Y26700582D01*
X8407400Y26996152D01*
X8407400Y30153848D01*
X15796776Y37543224D01*
X15967463Y37798675D01*
X16027400Y38100000D01*
X16027400Y62245354D01*
X16290054Y62420853D01*
X16319403Y62464777D01*
X16391673Y62290302D01*
X16570301Y62111673D01*
X16803690Y62015000D01*
X17494250Y62015000D01*
X17653000Y62173750D01*
X17653000Y63373000D01*
X17907000Y63373000D01*
X17907000Y62173750D01*
X18065750Y62015000D01*
X18756310Y62015000D01*
X18989699Y62111673D01*
X19168327Y62290302D01*
X19265000Y62523691D01*
X19265000Y63214250D01*
X19106250Y63373000D01*
X17907000Y63373000D01*
X17653000Y63373000D01*
X17633000Y63373000D01*
X17633000Y63627000D01*
X17653000Y63627000D01*
X17653000Y64826250D01*
X17907000Y64826250D01*
X17907000Y63627000D01*
X19106250Y63627000D01*
X19265000Y63785750D01*
X19265000Y64476309D01*
X19168327Y64709698D01*
X18989699Y64888327D01*
X18756310Y64985000D01*
X18065750Y64985000D01*
X17907000Y64826250D01*
X17653000Y64826250D01*
X17494250Y64985000D01*
X16803690Y64985000D01*
X16570301Y64888327D01*
X16391673Y64709698D01*
X16319403Y64535223D01*
X16290054Y64579147D01*
X15808285Y64901054D01*
X15240000Y65014093D01*
X14671715Y64901054D01*
X14189946Y64579147D01*
X13970000Y64249974D01*
X13750054Y64579147D01*
X13268285Y64901054D01*
X12700000Y65014093D01*
X12131715Y64901054D01*
X11649946Y64579147D01*
X11328039Y64097378D01*
X11215000Y63529093D01*
X11215000Y63470907D01*
X11328039Y62902622D01*
X11649946Y62420853D01*
X12131715Y62098946D01*
X12700000Y61985907D01*
X13268285Y62098946D01*
X13750054Y62420853D01*
X13970000Y62750026D01*
X14189946Y62420853D01*
X14452600Y62245354D01*
X14452600Y38426152D01*
X7063224Y31036776D01*
X6892537Y30781325D01*
X6832600Y30480000D01*
X3508736Y30480000D01*
X5564368Y32535632D01*
X5712857Y32757862D01*
X5765000Y33020000D01*
X5765000Y54687000D01*
X7620000Y54687000D01*
X7882138Y54739143D01*
X8104368Y54887632D01*
X8252857Y55109862D01*
X8305000Y55372000D01*
X8305000Y64486264D01*
X9173736Y65355000D01*
X21306264Y65355000D01*
X22175000Y64486264D01*
M02*
