M48
;DRILL file {KiCad 4.0.7-e2-6376~61~ubuntu18.04.1} date Mon Jan 20 22:18:21 2020
;FORMAT={3:3/ absolute / metric / suppress leading zeros}
FMAT,2
METRIC,TZ
T1C0.800
T2C1.000
%
G90
G05
M71
T1
X152400Y-107950
X152400Y-110490
X152400Y-113030
X152400Y-115570
X160020Y-107950
X160020Y-110490
X160020Y-113030
X160020Y-115570
T2
X144780Y-110490
X144780Y-113030
X144780Y-115570
X144780Y-118110
X152400Y-119380
X152400Y-121920
X154940Y-73660
X154940Y-119380
X154940Y-121920
X157480Y-73660
X157480Y-119380
X157480Y-121920
X160020Y-73660
T0
M30
