G04 #@! TF.FileFunction,Copper,L2,Bot,Signal*
%FSLAX46Y46*%
G04 Gerber Fmt 4.6, Leading zero omitted, Abs format (unit mm)*
G04 Created by KiCad (PCBNEW 4.0.7-e2-6376~61~ubuntu18.04.1) date Tue Jan 21 21:21:50 2020*
%MOMM*%
%LPD*%
G01*
G04 APERTURE LIST*
%ADD10C,0.100000*%
%ADD11R,1.700000X1.700000*%
%ADD12O,1.700000X1.700000*%
%ADD13R,1.600000X1.600000*%
%ADD14O,1.600000X1.600000*%
%ADD15C,0.304800*%
%ADD16C,0.254000*%
G04 APERTURE END LIST*
D10*
D11*
X160020000Y-73660000D03*
D12*
X157480000Y-73660000D03*
X154940000Y-73660000D03*
D11*
X144780000Y-115570000D03*
D12*
X144780000Y-118110000D03*
D11*
X144780000Y-113030000D03*
D12*
X144780000Y-110490000D03*
D13*
X152400000Y-107950000D03*
D14*
X160020000Y-115570000D03*
X152400000Y-110490000D03*
X160020000Y-113030000D03*
X152400000Y-113030000D03*
X160020000Y-110490000D03*
X152400000Y-115570000D03*
X160020000Y-107950000D03*
D11*
X157480000Y-119380000D03*
D12*
X157480000Y-121920000D03*
X154940000Y-119380000D03*
X154940000Y-121920000D03*
X152400000Y-119380000D03*
X152400000Y-121920000D03*
D15*
X154940000Y-73660000D02*
X154940000Y-101600000D01*
X149860000Y-106680000D02*
X149860000Y-113030000D01*
X154940000Y-101600000D02*
X149860000Y-106680000D01*
X152400000Y-115570000D02*
X149860000Y-113030000D01*
X149860000Y-113030000D02*
X147320000Y-110490000D01*
X147320000Y-110490000D02*
X144780000Y-110490000D01*
X152400000Y-115570000D02*
X151130000Y-116840000D01*
X151130000Y-116840000D02*
X149860000Y-118110000D01*
X149860000Y-118110000D02*
X149860000Y-119380000D01*
X149860000Y-119380000D02*
X152400000Y-121920000D01*
D16*
G36*
X164415000Y-72673736D02*
X164415000Y-136475000D01*
X148005000Y-136475000D01*
X148005000Y-124460000D01*
X147952857Y-124197862D01*
X147804368Y-123975632D01*
X146105628Y-122276892D01*
X150958514Y-122276892D01*
X151204817Y-122801358D01*
X151633076Y-123191645D01*
X152043110Y-123361476D01*
X152273000Y-123240155D01*
X152273000Y-122047000D01*
X151079181Y-122047000D01*
X150958514Y-122276892D01*
X146105628Y-122276892D01*
X144907000Y-121078264D01*
X144907000Y-119575525D01*
X145377378Y-119481961D01*
X145573514Y-119350907D01*
X150915000Y-119350907D01*
X150915000Y-119409093D01*
X151028039Y-119977378D01*
X151349946Y-120459147D01*
X151633101Y-120648345D01*
X151633076Y-120648355D01*
X151204817Y-121038642D01*
X150958514Y-121563108D01*
X151079181Y-121793000D01*
X152273000Y-121793000D01*
X152273000Y-121773000D01*
X152527000Y-121773000D01*
X152527000Y-121793000D01*
X152547000Y-121793000D01*
X152547000Y-122047000D01*
X152527000Y-122047000D01*
X152527000Y-123240155D01*
X152756890Y-123361476D01*
X153166924Y-123191645D01*
X153595183Y-122801358D01*
X153662298Y-122658447D01*
X153889946Y-122999147D01*
X154371715Y-123321054D01*
X154940000Y-123434093D01*
X155508285Y-123321054D01*
X155990054Y-122999147D01*
X156210000Y-122669974D01*
X156429946Y-122999147D01*
X156911715Y-123321054D01*
X157480000Y-123434093D01*
X158048285Y-123321054D01*
X158530054Y-122999147D01*
X158851961Y-122517378D01*
X158965000Y-121949093D01*
X158965000Y-121890907D01*
X158851961Y-121322622D01*
X158530054Y-120840853D01*
X158528821Y-120840029D01*
X158565317Y-120833162D01*
X158781441Y-120694090D01*
X158926431Y-120481890D01*
X158977440Y-120230000D01*
X158977440Y-118530000D01*
X158933162Y-118294683D01*
X158794090Y-118078559D01*
X158581890Y-117933569D01*
X158330000Y-117882560D01*
X156630000Y-117882560D01*
X156394683Y-117926838D01*
X156178559Y-118065910D01*
X156033569Y-118278110D01*
X156019914Y-118345541D01*
X155990054Y-118300853D01*
X155508285Y-117978946D01*
X154940000Y-117865907D01*
X154371715Y-117978946D01*
X153889946Y-118300853D01*
X153670000Y-118630026D01*
X153450054Y-118300853D01*
X152968285Y-117978946D01*
X152400000Y-117865907D01*
X151831715Y-117978946D01*
X151349946Y-118300853D01*
X151028039Y-118782622D01*
X150915000Y-119350907D01*
X145573514Y-119350907D01*
X145859147Y-119160054D01*
X146181054Y-118678285D01*
X146294093Y-118110000D01*
X146181054Y-117541715D01*
X145859147Y-117059946D01*
X145817548Y-117032150D01*
X145865317Y-117023162D01*
X146081441Y-116884090D01*
X146226431Y-116671890D01*
X146277440Y-116420000D01*
X146277440Y-115919039D01*
X151008096Y-115919039D01*
X151168959Y-116307423D01*
X151544866Y-116722389D01*
X152050959Y-116961914D01*
X152273000Y-116840629D01*
X152273000Y-115697000D01*
X152527000Y-115697000D01*
X152527000Y-116840629D01*
X152749041Y-116961914D01*
X153255134Y-116722389D01*
X153631041Y-116307423D01*
X153791904Y-115919039D01*
X153669915Y-115697000D01*
X152527000Y-115697000D01*
X152273000Y-115697000D01*
X151130085Y-115697000D01*
X151008096Y-115919039D01*
X146277440Y-115919039D01*
X146277440Y-114720000D01*
X146233162Y-114484683D01*
X146112985Y-114297923D01*
X146226431Y-114131890D01*
X146277440Y-113880000D01*
X146277440Y-112180000D01*
X146233162Y-111944683D01*
X146094090Y-111728559D01*
X145881890Y-111583569D01*
X145773893Y-111561699D01*
X146051645Y-111256924D01*
X146221476Y-110846890D01*
X146100155Y-110617000D01*
X144907000Y-110617000D01*
X144907000Y-110490000D01*
X150936887Y-110490000D01*
X151046120Y-111039151D01*
X151357189Y-111504698D01*
X151739275Y-111760000D01*
X151357189Y-112015302D01*
X151046120Y-112480849D01*
X150936887Y-113030000D01*
X151046120Y-113579151D01*
X151357189Y-114044698D01*
X151761703Y-114314986D01*
X151544866Y-114417611D01*
X151168959Y-114832577D01*
X151008096Y-115220961D01*
X151130085Y-115443000D01*
X152273000Y-115443000D01*
X152273000Y-115423000D01*
X152527000Y-115423000D01*
X152527000Y-115443000D01*
X153669915Y-115443000D01*
X153791904Y-115220961D01*
X153631041Y-114832577D01*
X153255134Y-114417611D01*
X153038297Y-114314986D01*
X153442811Y-114044698D01*
X153753880Y-113579151D01*
X153863113Y-113030000D01*
X153753880Y-112480849D01*
X153442811Y-112015302D01*
X153060725Y-111760000D01*
X153442811Y-111504698D01*
X153753880Y-111039151D01*
X153863113Y-110490000D01*
X153753880Y-109940849D01*
X153442811Y-109475302D01*
X153298535Y-109378899D01*
X153435317Y-109353162D01*
X153651441Y-109214090D01*
X153796431Y-109001890D01*
X153847440Y-108750000D01*
X153847440Y-107950000D01*
X158556887Y-107950000D01*
X158666120Y-108499151D01*
X158977189Y-108964698D01*
X159359275Y-109220000D01*
X158977189Y-109475302D01*
X158666120Y-109940849D01*
X158556887Y-110490000D01*
X158666120Y-111039151D01*
X158977189Y-111504698D01*
X159359275Y-111760000D01*
X158977189Y-112015302D01*
X158666120Y-112480849D01*
X158556887Y-113030000D01*
X158666120Y-113579151D01*
X158977189Y-114044698D01*
X159359275Y-114300000D01*
X158977189Y-114555302D01*
X158666120Y-115020849D01*
X158556887Y-115570000D01*
X158666120Y-116119151D01*
X158977189Y-116584698D01*
X159442736Y-116895767D01*
X159991887Y-117005000D01*
X160048113Y-117005000D01*
X160597264Y-116895767D01*
X161062811Y-116584698D01*
X161373880Y-116119151D01*
X161483113Y-115570000D01*
X161373880Y-115020849D01*
X161062811Y-114555302D01*
X160680725Y-114300000D01*
X161062811Y-114044698D01*
X161373880Y-113579151D01*
X161483113Y-113030000D01*
X161373880Y-112480849D01*
X161062811Y-112015302D01*
X160680725Y-111760000D01*
X161062811Y-111504698D01*
X161373880Y-111039151D01*
X161483113Y-110490000D01*
X161373880Y-109940849D01*
X161062811Y-109475302D01*
X160680725Y-109220000D01*
X161062811Y-108964698D01*
X161373880Y-108499151D01*
X161483113Y-107950000D01*
X161373880Y-107400849D01*
X161062811Y-106935302D01*
X160597264Y-106624233D01*
X160048113Y-106515000D01*
X159991887Y-106515000D01*
X159442736Y-106624233D01*
X158977189Y-106935302D01*
X158666120Y-107400849D01*
X158556887Y-107950000D01*
X153847440Y-107950000D01*
X153847440Y-107150000D01*
X153803162Y-106914683D01*
X153664090Y-106698559D01*
X153451890Y-106553569D01*
X153200000Y-106502560D01*
X151600000Y-106502560D01*
X151364683Y-106546838D01*
X151148559Y-106685910D01*
X151003569Y-106898110D01*
X150952560Y-107150000D01*
X150952560Y-108750000D01*
X150996838Y-108985317D01*
X151135910Y-109201441D01*
X151348110Y-109346431D01*
X151503089Y-109377815D01*
X151357189Y-109475302D01*
X151046120Y-109940849D01*
X150936887Y-110490000D01*
X144907000Y-110490000D01*
X144907000Y-110363000D01*
X146100155Y-110363000D01*
X146221476Y-110133110D01*
X146051645Y-109723076D01*
X145661358Y-109294817D01*
X145136892Y-109048514D01*
X144907002Y-109169180D01*
X144907002Y-109005000D01*
X144907000Y-109005000D01*
X144907000Y-107521736D01*
X147804368Y-104624368D01*
X147952857Y-104402138D01*
X148005000Y-104140000D01*
X148005000Y-82473000D01*
X149860000Y-82473000D01*
X150122138Y-82420857D01*
X150344368Y-82272368D01*
X150492857Y-82050138D01*
X150545000Y-81788000D01*
X150545000Y-74016892D01*
X153498514Y-74016892D01*
X153744817Y-74541358D01*
X154173076Y-74931645D01*
X154583110Y-75101476D01*
X154813000Y-74980155D01*
X154813000Y-73787000D01*
X153619181Y-73787000D01*
X153498514Y-74016892D01*
X150545000Y-74016892D01*
X150545000Y-73303108D01*
X153498514Y-73303108D01*
X153619181Y-73533000D01*
X154813000Y-73533000D01*
X154813000Y-72339845D01*
X155067000Y-72339845D01*
X155067000Y-73533000D01*
X155087000Y-73533000D01*
X155087000Y-73787000D01*
X155067000Y-73787000D01*
X155067000Y-74980155D01*
X155296890Y-75101476D01*
X155706924Y-74931645D01*
X156135183Y-74541358D01*
X156202298Y-74398447D01*
X156429946Y-74739147D01*
X156911715Y-75061054D01*
X157480000Y-75174093D01*
X158048285Y-75061054D01*
X158530054Y-74739147D01*
X158557850Y-74697548D01*
X158566838Y-74745317D01*
X158705910Y-74961441D01*
X158918110Y-75106431D01*
X159170000Y-75157440D01*
X160870000Y-75157440D01*
X161105317Y-75113162D01*
X161321441Y-74974090D01*
X161466431Y-74761890D01*
X161517440Y-74510000D01*
X161517440Y-72810000D01*
X161473162Y-72574683D01*
X161334090Y-72358559D01*
X161121890Y-72213569D01*
X160870000Y-72162560D01*
X159170000Y-72162560D01*
X158934683Y-72206838D01*
X158718559Y-72345910D01*
X158573569Y-72558110D01*
X158559914Y-72625541D01*
X158530054Y-72580853D01*
X158048285Y-72258946D01*
X157480000Y-72145907D01*
X156911715Y-72258946D01*
X156429946Y-72580853D01*
X156202298Y-72921553D01*
X156135183Y-72778642D01*
X155706924Y-72388355D01*
X155296890Y-72218524D01*
X155067000Y-72339845D01*
X154813000Y-72339845D01*
X154583110Y-72218524D01*
X154173076Y-72388355D01*
X153744817Y-72778642D01*
X153498514Y-73303108D01*
X150545000Y-73303108D01*
X150545000Y-72673736D01*
X151413736Y-71805000D01*
X163546264Y-71805000D01*
X164415000Y-72673736D01*
X164415000Y-72673736D01*
G37*
X164415000Y-72673736D02*
X164415000Y-136475000D01*
X148005000Y-136475000D01*
X148005000Y-124460000D01*
X147952857Y-124197862D01*
X147804368Y-123975632D01*
X146105628Y-122276892D01*
X150958514Y-122276892D01*
X151204817Y-122801358D01*
X151633076Y-123191645D01*
X152043110Y-123361476D01*
X152273000Y-123240155D01*
X152273000Y-122047000D01*
X151079181Y-122047000D01*
X150958514Y-122276892D01*
X146105628Y-122276892D01*
X144907000Y-121078264D01*
X144907000Y-119575525D01*
X145377378Y-119481961D01*
X145573514Y-119350907D01*
X150915000Y-119350907D01*
X150915000Y-119409093D01*
X151028039Y-119977378D01*
X151349946Y-120459147D01*
X151633101Y-120648345D01*
X151633076Y-120648355D01*
X151204817Y-121038642D01*
X150958514Y-121563108D01*
X151079181Y-121793000D01*
X152273000Y-121793000D01*
X152273000Y-121773000D01*
X152527000Y-121773000D01*
X152527000Y-121793000D01*
X152547000Y-121793000D01*
X152547000Y-122047000D01*
X152527000Y-122047000D01*
X152527000Y-123240155D01*
X152756890Y-123361476D01*
X153166924Y-123191645D01*
X153595183Y-122801358D01*
X153662298Y-122658447D01*
X153889946Y-122999147D01*
X154371715Y-123321054D01*
X154940000Y-123434093D01*
X155508285Y-123321054D01*
X155990054Y-122999147D01*
X156210000Y-122669974D01*
X156429946Y-122999147D01*
X156911715Y-123321054D01*
X157480000Y-123434093D01*
X158048285Y-123321054D01*
X158530054Y-122999147D01*
X158851961Y-122517378D01*
X158965000Y-121949093D01*
X158965000Y-121890907D01*
X158851961Y-121322622D01*
X158530054Y-120840853D01*
X158528821Y-120840029D01*
X158565317Y-120833162D01*
X158781441Y-120694090D01*
X158926431Y-120481890D01*
X158977440Y-120230000D01*
X158977440Y-118530000D01*
X158933162Y-118294683D01*
X158794090Y-118078559D01*
X158581890Y-117933569D01*
X158330000Y-117882560D01*
X156630000Y-117882560D01*
X156394683Y-117926838D01*
X156178559Y-118065910D01*
X156033569Y-118278110D01*
X156019914Y-118345541D01*
X155990054Y-118300853D01*
X155508285Y-117978946D01*
X154940000Y-117865907D01*
X154371715Y-117978946D01*
X153889946Y-118300853D01*
X153670000Y-118630026D01*
X153450054Y-118300853D01*
X152968285Y-117978946D01*
X152400000Y-117865907D01*
X151831715Y-117978946D01*
X151349946Y-118300853D01*
X151028039Y-118782622D01*
X150915000Y-119350907D01*
X145573514Y-119350907D01*
X145859147Y-119160054D01*
X146181054Y-118678285D01*
X146294093Y-118110000D01*
X146181054Y-117541715D01*
X145859147Y-117059946D01*
X145817548Y-117032150D01*
X145865317Y-117023162D01*
X146081441Y-116884090D01*
X146226431Y-116671890D01*
X146277440Y-116420000D01*
X146277440Y-115919039D01*
X151008096Y-115919039D01*
X151168959Y-116307423D01*
X151544866Y-116722389D01*
X152050959Y-116961914D01*
X152273000Y-116840629D01*
X152273000Y-115697000D01*
X152527000Y-115697000D01*
X152527000Y-116840629D01*
X152749041Y-116961914D01*
X153255134Y-116722389D01*
X153631041Y-116307423D01*
X153791904Y-115919039D01*
X153669915Y-115697000D01*
X152527000Y-115697000D01*
X152273000Y-115697000D01*
X151130085Y-115697000D01*
X151008096Y-115919039D01*
X146277440Y-115919039D01*
X146277440Y-114720000D01*
X146233162Y-114484683D01*
X146112985Y-114297923D01*
X146226431Y-114131890D01*
X146277440Y-113880000D01*
X146277440Y-112180000D01*
X146233162Y-111944683D01*
X146094090Y-111728559D01*
X145881890Y-111583569D01*
X145773893Y-111561699D01*
X146051645Y-111256924D01*
X146221476Y-110846890D01*
X146100155Y-110617000D01*
X144907000Y-110617000D01*
X144907000Y-110490000D01*
X150936887Y-110490000D01*
X151046120Y-111039151D01*
X151357189Y-111504698D01*
X151739275Y-111760000D01*
X151357189Y-112015302D01*
X151046120Y-112480849D01*
X150936887Y-113030000D01*
X151046120Y-113579151D01*
X151357189Y-114044698D01*
X151761703Y-114314986D01*
X151544866Y-114417611D01*
X151168959Y-114832577D01*
X151008096Y-115220961D01*
X151130085Y-115443000D01*
X152273000Y-115443000D01*
X152273000Y-115423000D01*
X152527000Y-115423000D01*
X152527000Y-115443000D01*
X153669915Y-115443000D01*
X153791904Y-115220961D01*
X153631041Y-114832577D01*
X153255134Y-114417611D01*
X153038297Y-114314986D01*
X153442811Y-114044698D01*
X153753880Y-113579151D01*
X153863113Y-113030000D01*
X153753880Y-112480849D01*
X153442811Y-112015302D01*
X153060725Y-111760000D01*
X153442811Y-111504698D01*
X153753880Y-111039151D01*
X153863113Y-110490000D01*
X153753880Y-109940849D01*
X153442811Y-109475302D01*
X153298535Y-109378899D01*
X153435317Y-109353162D01*
X153651441Y-109214090D01*
X153796431Y-109001890D01*
X153847440Y-108750000D01*
X153847440Y-107950000D01*
X158556887Y-107950000D01*
X158666120Y-108499151D01*
X158977189Y-108964698D01*
X159359275Y-109220000D01*
X158977189Y-109475302D01*
X158666120Y-109940849D01*
X158556887Y-110490000D01*
X158666120Y-111039151D01*
X158977189Y-111504698D01*
X159359275Y-111760000D01*
X158977189Y-112015302D01*
X158666120Y-112480849D01*
X158556887Y-113030000D01*
X158666120Y-113579151D01*
X158977189Y-114044698D01*
X159359275Y-114300000D01*
X158977189Y-114555302D01*
X158666120Y-115020849D01*
X158556887Y-115570000D01*
X158666120Y-116119151D01*
X158977189Y-116584698D01*
X159442736Y-116895767D01*
X159991887Y-117005000D01*
X160048113Y-117005000D01*
X160597264Y-116895767D01*
X161062811Y-116584698D01*
X161373880Y-116119151D01*
X161483113Y-115570000D01*
X161373880Y-115020849D01*
X161062811Y-114555302D01*
X160680725Y-114300000D01*
X161062811Y-114044698D01*
X161373880Y-113579151D01*
X161483113Y-113030000D01*
X161373880Y-112480849D01*
X161062811Y-112015302D01*
X160680725Y-111760000D01*
X161062811Y-111504698D01*
X161373880Y-111039151D01*
X161483113Y-110490000D01*
X161373880Y-109940849D01*
X161062811Y-109475302D01*
X160680725Y-109220000D01*
X161062811Y-108964698D01*
X161373880Y-108499151D01*
X161483113Y-107950000D01*
X161373880Y-107400849D01*
X161062811Y-106935302D01*
X160597264Y-106624233D01*
X160048113Y-106515000D01*
X159991887Y-106515000D01*
X159442736Y-106624233D01*
X158977189Y-106935302D01*
X158666120Y-107400849D01*
X158556887Y-107950000D01*
X153847440Y-107950000D01*
X153847440Y-107150000D01*
X153803162Y-106914683D01*
X153664090Y-106698559D01*
X153451890Y-106553569D01*
X153200000Y-106502560D01*
X151600000Y-106502560D01*
X151364683Y-106546838D01*
X151148559Y-106685910D01*
X151003569Y-106898110D01*
X150952560Y-107150000D01*
X150952560Y-108750000D01*
X150996838Y-108985317D01*
X151135910Y-109201441D01*
X151348110Y-109346431D01*
X151503089Y-109377815D01*
X151357189Y-109475302D01*
X151046120Y-109940849D01*
X150936887Y-110490000D01*
X144907000Y-110490000D01*
X144907000Y-110363000D01*
X146100155Y-110363000D01*
X146221476Y-110133110D01*
X146051645Y-109723076D01*
X145661358Y-109294817D01*
X145136892Y-109048514D01*
X144907002Y-109169180D01*
X144907002Y-109005000D01*
X144907000Y-109005000D01*
X144907000Y-107521736D01*
X147804368Y-104624368D01*
X147952857Y-104402138D01*
X148005000Y-104140000D01*
X148005000Y-82473000D01*
X149860000Y-82473000D01*
X150122138Y-82420857D01*
X150344368Y-82272368D01*
X150492857Y-82050138D01*
X150545000Y-81788000D01*
X150545000Y-74016892D01*
X153498514Y-74016892D01*
X153744817Y-74541358D01*
X154173076Y-74931645D01*
X154583110Y-75101476D01*
X154813000Y-74980155D01*
X154813000Y-73787000D01*
X153619181Y-73787000D01*
X153498514Y-74016892D01*
X150545000Y-74016892D01*
X150545000Y-73303108D01*
X153498514Y-73303108D01*
X153619181Y-73533000D01*
X154813000Y-73533000D01*
X154813000Y-72339845D01*
X155067000Y-72339845D01*
X155067000Y-73533000D01*
X155087000Y-73533000D01*
X155087000Y-73787000D01*
X155067000Y-73787000D01*
X155067000Y-74980155D01*
X155296890Y-75101476D01*
X155706924Y-74931645D01*
X156135183Y-74541358D01*
X156202298Y-74398447D01*
X156429946Y-74739147D01*
X156911715Y-75061054D01*
X157480000Y-75174093D01*
X158048285Y-75061054D01*
X158530054Y-74739147D01*
X158557850Y-74697548D01*
X158566838Y-74745317D01*
X158705910Y-74961441D01*
X158918110Y-75106431D01*
X159170000Y-75157440D01*
X160870000Y-75157440D01*
X161105317Y-75113162D01*
X161321441Y-74974090D01*
X161466431Y-74761890D01*
X161517440Y-74510000D01*
X161517440Y-72810000D01*
X161473162Y-72574683D01*
X161334090Y-72358559D01*
X161121890Y-72213569D01*
X160870000Y-72162560D01*
X159170000Y-72162560D01*
X158934683Y-72206838D01*
X158718559Y-72345910D01*
X158573569Y-72558110D01*
X158559914Y-72625541D01*
X158530054Y-72580853D01*
X158048285Y-72258946D01*
X157480000Y-72145907D01*
X156911715Y-72258946D01*
X156429946Y-72580853D01*
X156202298Y-72921553D01*
X156135183Y-72778642D01*
X155706924Y-72388355D01*
X155296890Y-72218524D01*
X155067000Y-72339845D01*
X154813000Y-72339845D01*
X154583110Y-72218524D01*
X154173076Y-72388355D01*
X153744817Y-72778642D01*
X153498514Y-73303108D01*
X150545000Y-73303108D01*
X150545000Y-72673736D01*
X151413736Y-71805000D01*
X163546264Y-71805000D01*
X164415000Y-72673736D01*
M02*
