<?xml version="1.0" standalone="no"?>
<!DOCTYPE svg PUBLIC "-//W3C//DTD SVG 1.1//EN" "http://www.w3.org/Graphics/SVG/1.1/DTD/svg11.dtd">
<svg width="1098mm" height="545mm" viewBox="-134 -134 1098 545" xmlns="http://www.w3.org/2000/svg" version="1.1">
<title>OpenSCAD Model</title>
<path d="
M 713.1,126.95 L 731.1,126.95 L 731.1,133.35 L 749.1,133.35 L 749.1,126.95 L 767.1,126.95
 L 767.1,133.35 L 785.1,133.35 L 785.1,126.95 L 803.1,126.95 L 803.1,133.35 L 821.1,133.35
 L 821.1,126.95 L 839.1,126.95 L 839.1,133.35 L 857.1,133.35 L 857.1,126.95 L 875.1,126.95
 L 875.1,133.35 L 893.1,133.35 L 893.1,126.95 L 911.1,126.95 L 911.1,133.35 L 929.1,133.35
 L 929.1,126.95 L 947.1,126.95 L 947.1,133.35 L 957.05,133.35 L 957.05,99 L 963.45,99
 L 963.45,81 L 957.05,81 L 957.05,63 L 963.45,63 L 963.45,45 L 957.05,45
 L 957.05,27 L 963.45,27 L 963.45,9 L 957.05,9 L 957.05,-9 L 963.45,-9
 L 963.45,-27 L 957.05,-27 L 957.05,-45 L 963.45,-45 L 963.45,-63 L 957.05,-63
 L 957.05,-81 L 963.45,-81 L 963.45,-99 L 957.05,-99 L 957.05,-133.35 L 703.15,-133.35
 L 703.15,-99 L 696.75,-99 L 696.75,-81 L 703.15,-81 L 703.15,-63 L 696.75,-63
 L 696.75,-45 L 703.15,-45 L 703.15,-27 L 696.75,-27 L 696.75,-9 L 703.15,-9
 L 703.15,9 L 696.75,9 L 696.75,27 L 703.15,27 L 703.15,45 L 696.75,45
 L 696.75,63 L 703.15,63 L 703.15,81 L 696.75,81 L 696.75,99 L 703.15,99
 L 703.15,133.35 L 713.1,133.35 z
M 797.022,-82.6196 L 794.425,-83.1716 L 792,-84.2515 L 789.852,-85.8121 L 788.075,-87.7851 L 786.748,-90.0844
 L 785.928,-92.6095 L 785.65,-95.25 L 785.928,-97.8905 L 786.748,-100.416 L 788.075,-102.715 L 789.852,-104.688
 L 792,-106.249 L 794.425,-107.328 L 797.022,-107.88 L 863.178,-107.88 L 865.775,-107.328 L 868.2,-106.249
 L 870.348,-104.688 L 872.125,-102.715 L 873.452,-100.416 L 874.272,-97.8905 L 874.55,-95.25 L 874.272,-92.6095
 L 873.452,-90.0844 L 872.125,-87.7851 L 870.348,-85.8121 L 868.2,-84.2515 L 865.775,-83.1716 L 863.178,-82.6196
 z
M -99,126.95 L -81,126.95 L -81,133.35 L -63,133.35 L -63,126.95 L -45,126.95
 L -45,133.35 L -27,133.35 L -27,126.95 L -9,126.95 L -9,133.35 L 9,133.35
 L 9,126.95 L 27,126.95 L 27,133.35 L 45,133.35 L 45,126.95 L 63,126.95
 L 63,133.35 L 81,133.35 L 81,126.95 L 99,126.95 L 99,133.35 L 133.35,133.35
 L 133.35,99 L 126.95,99 L 126.95,81 L 133.35,81 L 133.35,63 L 126.95,63
 L 126.95,45 L 133.35,45 L 133.35,27 L 126.95,27 L 126.95,9 L 133.35,9
 L 133.35,-9 L 126.95,-9 L 126.95,-27 L 133.35,-27 L 133.35,-45 L 126.95,-45
 L 126.95,-63 L 133.35,-63 L 133.35,-81 L 126.95,-81 L 126.95,-99 L 133.35,-99
 L 133.35,-133.35 L -133.35,-133.35 L -133.35,-99 L -126.95,-99 L -126.95,-81 L -133.35,-81
 L -133.35,-63 L -126.95,-63 L -126.95,-45 L -133.35,-45 L -133.35,-27 L -126.95,-27
 L -126.95,-9 L -133.35,-9 L -133.35,9 L -126.95,9 L -126.95,27 L -133.35,27
 L -133.35,45 L -126.95,45 L -126.95,63 L -133.35,63 L -133.35,81 L -126.95,81
 L -126.95,99 L -133.35,99 L -133.35,133.35 L -99,133.35 z
M 159.7,126.95 L 177.7,126.95 L 177.7,133.35 L 195.7,133.35 L 195.7,126.95 L 213.7,126.95
 L 213.7,133.35 L 231.7,133.35 L 231.7,126.95 L 249.7,126.95 L 249.7,133.35 L 267.7,133.35
 L 267.7,126.95 L 285.7,126.95 L 285.7,133.35 L 303.7,133.35 L 303.7,126.95 L 321.7,126.95
 L 321.7,133.35 L 339.7,133.35 L 339.7,126.95 L 357.7,126.95 L 357.7,133.35 L 375.7,133.35
 L 375.7,126.95 L 393.7,126.95 L 393.7,133.35 L 403.65,133.35 L 403.65,99 L 410.05,99
 L 410.05,81 L 403.65,81 L 403.65,63 L 410.05,63 L 410.05,45 L 403.65,45
 L 403.65,27 L 410.05,27 L 410.05,9 L 403.65,9 L 403.65,-9 L 410.05,-9
 L 410.05,-27 L 403.65,-27 L 403.65,-45 L 410.05,-45 L 410.05,-63 L 403.65,-63
 L 403.65,-81 L 410.05,-81 L 410.05,-99 L 403.65,-99 L 403.65,-133.35 L 149.75,-133.35
 L 149.75,-99 L 143.35,-99 L 143.35,-81 L 149.75,-81 L 149.75,-63 L 143.35,-63
 L 143.35,-45 L 149.75,-45 L 149.75,-27 L 143.35,-27 L 143.35,-9 L 149.75,-9
 L 149.75,9 L 143.35,9 L 143.35,27 L 149.75,27 L 149.75,45 L 143.35,45
 L 143.35,63 L 149.75,63 L 149.75,81 L 143.35,81 L 143.35,99 L 149.75,99
 L 149.75,133.35 L 159.7,133.35 z
M 243.622,-82.6196 L 241.025,-83.1716 L 238.6,-84.2515 L 236.452,-85.8121 L 234.675,-87.7851 L 233.348,-90.0844
 L 232.528,-92.6095 L 232.25,-95.25 L 232.528,-97.8905 L 233.348,-100.416 L 234.675,-102.715 L 236.452,-104.688
 L 238.6,-106.249 L 241.025,-107.328 L 243.622,-107.88 L 309.777,-107.88 L 312.375,-107.328 L 314.8,-106.249
 L 316.948,-104.688 L 318.725,-102.715 L 320.052,-100.416 L 320.872,-97.8905 L 321.15,-95.25 L 320.872,-92.6095
 L 320.052,-90.0844 L 318.725,-87.7851 L 316.948,-85.8121 L 314.8,-84.2515 L 312.375,-83.1716 L 309.777,-82.6196
 z
M 454.4,126.95 L 472.4,126.95 L 472.4,133.35 L 490.4,133.35 L 490.4,126.95 L 508.4,126.95
 L 508.4,133.35 L 526.4,133.35 L 526.4,126.95 L 544.4,126.95 L 544.4,133.35 L 562.4,133.35
 L 562.4,126.95 L 580.4,126.95 L 580.4,133.35 L 598.4,133.35 L 598.4,126.95 L 616.4,126.95
 L 616.4,133.35 L 634.4,133.35 L 634.4,126.95 L 652.4,126.95 L 652.4,133.35 L 686.75,133.35
 L 686.75,99 L 680.35,99 L 680.35,81 L 686.75,81 L 686.75,63 L 680.35,63
 L 680.35,45 L 686.75,45 L 686.75,27 L 680.35,27 L 680.35,9 L 686.75,9
 L 686.75,-9 L 680.35,-9 L 680.35,-27 L 686.75,-27 L 686.75,-45 L 680.35,-45
 L 680.35,-63 L 686.75,-63 L 686.75,-81 L 680.35,-81 L 680.35,-99 L 686.75,-99
 L 686.75,-133.35 L 420.05,-133.35 L 420.05,-99 L 426.45,-99 L 426.45,-81 L 420.05,-81
 L 420.05,-63 L 426.45,-63 L 426.45,-45 L 420.05,-45 L 420.05,-27 L 426.45,-27
 L 426.45,-9 L 420.05,-9 L 420.05,9 L 426.45,9 L 426.45,27 L 420.05,27
 L 420.05,45 L 426.45,45 L 426.45,63 L 420.05,63 L 420.05,81 L 426.45,81
 L 426.45,99 L 420.05,99 L 420.05,133.35 L 454.4,133.35 z
M 667.65,143.35 L 439.15,143.35 L 426.45,156.05 L 680.35,156.05 z
M 390.95,143.35 L 162.45,143.35 L 149.75,156.05 L 403.65,156.05 z
M -81,403.65 L -63,403.65 L -63,410.05 L -45,410.05 L -45,403.65 L -27,403.65
 L -27,410.05 L -9,410.05 L -9,403.65 L 9,403.65 L 9,410.05 L 27,410.05
 L 27,403.65 L 45,403.65 L 45,410.05 L 63,410.05 L 63,403.65 L 81,403.65
 L 81,410.05 L 99,410.05 L 99,403.65 L 126.95,403.65 L 126.95,393.7 L 133.35,393.7
 L 133.35,375.7 L 126.95,375.7 L 126.95,357.7 L 133.35,357.7 L 133.35,339.7 L 126.95,339.7
 L 126.95,321.7 L 133.35,321.7 L 133.35,303.7 L 126.95,303.7 L 126.95,285.7 L 133.35,285.7
 L 133.35,267.7 L 126.95,267.7 L 126.95,249.7 L 133.35,249.7 L 133.35,231.7 L 126.95,231.7
 L 126.95,213.7 L 133.35,213.7 L 133.35,195.7 L 126.95,195.7 L 126.95,177.7 L 133.35,177.7
 L 133.35,159.7 L 126.95,159.7 L 126.95,149.75 L 99,149.75 L 99,143.35 L 81,143.35
 L 81,149.75 L 63,149.75 L 63,143.35 L 45,143.35 L 45,149.75 L 27,149.75
 L 27,143.35 L 9,143.35 L 9,149.75 L -9,149.75 L -9,143.35 L -27,143.35
 L -27,149.75 L -45,149.75 L -45,143.35 L -63,143.35 L -63,149.75 L -81,149.75
 L -81,143.35 L -99,143.35 L -99,149.75 L -126.95,149.75 L -126.95,159.7 L -133.35,159.7
 L -133.35,177.7 L -126.95,177.7 L -126.95,195.7 L -133.35,195.7 L -133.35,213.7 L -126.95,213.7
 L -126.95,231.7 L -133.35,231.7 L -133.35,249.7 L -126.95,249.7 L -126.95,267.7 L -133.35,267.7
 L -133.35,285.7 L -126.95,285.7 L -126.95,303.7 L -133.35,303.7 L -133.35,321.7 L -126.95,321.7
 L -126.95,339.7 L -133.35,339.7 L -133.35,357.7 L -126.95,357.7 L -126.95,375.7 L -133.35,375.7
 L -133.35,393.7 L -126.95,393.7 L -126.95,403.65 L -99,403.65 L -99,410.05 L -81,410.05
 z
M 667.65,166.05 L 439.15,166.05 L 426.45,178.75 L 680.35,178.75 z
M 390.95,166.05 L 162.45,166.05 L 149.75,178.75 L 403.65,178.75 z
M 403.65,192.35 L 149.75,192.35 L 149.75,198.75 L 403.65,198.75 z
M 403.65,208.75 L 149.75,208.75 L 149.75,215.15 L 403.65,215.15 z
M 403.65,225.15 L 149.75,225.15 L 149.75,231.55 L 403.65,231.55 z
M 403.65,241.55 L 149.75,241.55 L 149.75,247.95 L 403.65,247.95 z
" stroke="black" fill="lightgray" stroke-width="0.5"/>
</svg>
