<?xml version="1.0" encoding="UTF-8" standalone="no"?>
<svg
   xmlns:dc="http://purl.org/dc/elements/1.1/"
   xmlns:cc="http://creativecommons.org/ns#"
   xmlns:rdf="http://www.w3.org/1999/02/22-rdf-syntax-ns#"
   xmlns:svg="http://www.w3.org/2000/svg"
   xmlns="http://www.w3.org/2000/svg"
   xmlns:sodipodi="http://sodipodi.sourceforge.net/DTD/sodipodi-0.dtd"
   xmlns:inkscape="http://www.inkscape.org/namespaces/inkscape"
   width="2979mm"
   height="1589mm"
   viewBox="-178 -1411 2979 1589"
   version="1.1"
   id="svg6"
   sodipodi:docname="box-feastware.svg"
   inkscape:version="0.92.3 (2405546, 2018-03-11)">
  <metadata
     id="metadata12">
    <rdf:RDF>
      <cc:Work
         rdf:about="">
        <dc:format>image/svg+xml</dc:format>
        <dc:type
           rdf:resource="http://purl.org/dc/dcmitype/StillImage" />
        <dc:title>OpenSCAD Model</dc:title>
      </cc:Work>
    </rdf:RDF>
  </metadata>
  <defs
     id="defs10" />
  <sodipodi:namedview
     pagecolor="#ffffff"
     bordercolor="#666666"
     borderopacity="1"
     objecttolerance="10"
     gridtolerance="10"
     guidetolerance="10"
     inkscape:pageopacity="0"
     inkscape:pageshadow="2"
     inkscape:window-width="3840"
     inkscape:window-height="2090"
     id="namedview8"
     showgrid="false"
     inkscape:zoom="0.16498023"
     inkscape:cx="13982.918"
     inkscape:cy="1438.0816"
     inkscape:window-x="0"
     inkscape:window-y="41"
     inkscape:window-maximized="1"
     inkscape:current-layer="svg6" />
  <title
     id="title2">OpenSCAD Model</title>
  <path
     id="path872"
     d="m 3092.377,551.06861 v 609.59999 h 609.6 609.5999 V 551.06861 H 3701.977 Z"
     style="opacity:0.1;vector-effect:none;fill:#ff0000;fill-opacity:1;stroke:none;stroke-width:0.99999994;stroke-linecap:butt;stroke-linejoin:miter;stroke-miterlimit:4;stroke-dasharray:none;stroke-dashoffset:0;stroke-opacity:1"
     inkscape:connector-curvature="0" />
  <path
     inkscape:connector-curvature="0"
     style="opacity:0.1;vector-effect:none;fill:#ff0000;fill-opacity:1;stroke:none;stroke-width:0.99999994;stroke-linecap:butt;stroke-linejoin:miter;stroke-miterlimit:4;stroke-dasharray:none;stroke-dashoffset:0;stroke-opacity:1"
     d="m 3092.377,-122.49692 v 609.59998 h 609.6 609.5999 V -122.49692 H 3701.977 Z"
     id="path870" />
  <path
     style="opacity:0.1;vector-effect:none;fill:#ff0000;fill-opacity:1;stroke:none;stroke-width:3.77952743;stroke-linecap:butt;stroke-linejoin:miter;stroke-miterlimit:4;stroke-dasharray:none;stroke-dashoffset:0;stroke-opacity:1"
     d="M 12360.48 -24.689453 L 12360.48 2279.3105 L 14664.48 2279.3105 L 16968.48 2279.3105 L 16968.48 -24.689453 L 14664.48 -24.689453 L 12360.48 -24.689453 z "
     transform="matrix(0.26458333,0,0,0.26458333,-178,-1411)"
     id="rect824" />
  <path
     id="path868"
     d="m 3092.377,-782.48874 v 609.59998 h 609.6 609.5999 V -782.48874 H 3701.977 Z"
     style="opacity:0.1;vector-effect:none;fill:#ff0000;fill-opacity:1;stroke:none;stroke-width:0.99999994;stroke-linecap:butt;stroke-linejoin:miter;stroke-miterlimit:4;stroke-dasharray:none;stroke-dashoffset:0;stroke-opacity:1"
     inkscape:connector-curvature="0" />
  <path
     id="path1136"
     d="m 1031.4,-444.75 v -6.4 h 24 v 6.4 z m 48,0 v -6.4 h 24 v 6.4 z m 48,0 v -6.4 h 24 v 6.4 z m 48,0 v -6.4 h 24 v 6.4 z m -240,0 v -6.4 h 24 v 6.4 z m 48,0 v -6.4 h 24 v 6.4 z m 224,-6.4 v -6.4 h 8 v 6.4 z m -288,0 v -6.4 h 8 v 6.4 z m 48,0 v -6.4 h 8 v 6.4 z m 192,0 v -6.4 h 8 v 6.4 z m -48,0 v -6.4 h 8 v 6.4 z m -48,0 v -6.4 h 8 v 6.4 z m -48,0 v -6.4 h 8 v 6.4 z m -119.5,-23.5 v -8 h 6.4 v 8 z m 336.6,0 v -8 h 6.4 v 8 z m 0,-48 v -8 h 6.4 v 8 z m -336.6,0 v -8 h 6.4 v 8 z m 336.6,-48 v -8 h 6.4 v 8 z m -336.6,0 v -8 h 6.4 v 8 z m 336.6,-48 v -8 h 6.4 v 8 z m -336.6,0 v -8 h 6.4 v 8 z m 336.6,-48 v -8 h 6.4 v 8 z m -336.6,0 v -8 h 6.4 v 8 z m 0,-48 v -8 h 6.4 v 8 z m 336.6,0 v -8 h 6.4 v 8 z m -336.6,-48 v -8 h 6.4 v 8 z m 336.6,0 v -8 h 6.4 v 8 z m -265.1,-25.1 v -6.4 h 8 v 6.4 z m 96,0 v -6.4 h 8 v 6.4 z m 48,0 v -6.4 h 8 v 6.4 z m 48,0 v -6.4 h 8 v 6.4 z m 48,0 v -6.4 h 8 v 6.4 z m -192,0 v -6.4 h 8 v 6.4 z m -96,0 v -6.4 h 8 v 6.4 z m -10.35,365.276 1.034,-3.183 1.674,-2.898 2.239,-2.488 2.708,-1.967 3.058,-1.361 3.273,-0.696 h 288.724 l 3.28,0.696 3.05,1.361 2.71,1.967 2.24,2.488 1.68,2.898 1.03,3.183 0.35,3.329 h 19.2 v -25.595 h -6.4 v -0.01 h -15.51 v -6.4 h 15.51 v -15.51 h 6.4 v -23.99 h -6.4 v -24 h 6.4 v -24 h -6.4 v -24 h 6.4 v -24 h -6.4 v -24 h 6.4 v -24 h -6.4 v -24 h 6.4 v -24 h -6.4 v -24 h 6.4 v -24 h -6.4 v -24 h 6.4 v -23.99 h -6.4 v -15.51 h -15.51 v -6.4 h -23.99 v 6.4 h -24 v -6.4 h -24 v 6.4 h -24 v -6.4 h -24 v 6.4 h -24 v -6.4 h -24 v 6.4 h -24 v -6.4 h -24 v 6.4 h -24 v -6.4 h -24 v 6.4 h -24 v -6.4 h -23.99 v 6.4 H 895.9 v 15.51 h -6.4 v 23.99 h 6.4 v 24 h -6.4 v 24 h 6.4 v 24 h -6.4 v 24 h 6.4 v 24 h -6.4 v 24 h 6.4 v 24 h -6.4 v 24 h 6.4 v 24 h -6.4 v 24 h 6.4 v 24 h -6.4 v 23.99 h 6.4 v 15.51 h 15.51 v 6.4 H 895.9 v 0.01 h -6.4 v 25.595 h 19.2 z" />
  <path
     id="path1066"
     d="m 1709.1,-444.75 v -6.4 h 24 v 6.4 z m -48,0 v -6.4 h 24 v 6.4 z m -48,0 v -6.4 h 24 v 6.4 z m -48,0 v -6.4 h 24 v 6.4 z m -48,0 v -6.4 h 24 v 6.4 z m -48,0 v -6.4 h 24 v 6.4 z m 272,-6.4 v -6.4 h 8 v 6.4 z m -48,0 v -6.4 h 8 v 6.4 z m -48,0 v -6.4 h 8 v 6.4 z m -48,0 v -6.4 h 8 v 6.4 z m -144,0 v -6.4 h 8 v 6.4 z m 96,0 v -6.4 h 8 v 6.4 z m -48,0 v -6.4 h 8 v 6.4 z m 265.1,-23.5 v -8 h 6.4 v 8 z m -336.6,0 v -8 h 6.4 v 8 z m 0,-48 v -8 h 6.4 v 8 z m 336.6,0 v -8 h 6.4 v 8 z m -336.6,-48 v -8 h 6.4 v 8 z m 336.6,0 v -8 h 6.4 v 8 z m -336.6,-48 v -8 h 6.4 v 8 z m 336.6,0 v -8 h 6.4 v 8 z m -336.6,-48 v -8 h 6.4 v 8 z m 336.6,0 v -8 h 6.4 v 8 z m -336.6,-48 v -8 h 6.4 v 8 z m 336.6,0 v -8 h 6.4 v 8 z m 0,-48 v -8 h 6.4 v 8 z m -336.6,0 v -8 h 6.4 v 8 z m 23.5,-25.1 v -6.4 h 8 v 6.4 z m 48,0 v -6.4 h 8 v 6.4 z m 48,0 v -6.4 h 8 v 6.4 z m 48,0 v -6.4 h 8 v 6.4 z m 48,0 v -6.4 h 8 v 6.4 z m 48,0 v -6.4 h 8 v 6.4 z m 48,0 v -6.4 h 8 v 6.4 z m -298.35,365.276 1.03,-3.183 1.68,-2.898 2.24,-2.488 2.7,-1.967 3.06,-1.361 3.28,-0.696 h 288.72 l 3.28,0.696 3.05,1.361 2.71,1.967 2.24,2.488 1.68,2.898 1.03,3.183 0.35,3.329 h 19.2 v -25.595 h -6.4 v -0.01 h -15.51 v -6.4 h 15.51 v -15.51 h 6.4 v -23.99 h -6.4 v -24 h 6.4 v -24 h -6.4 v -24 h 6.4 v -24 h -6.4 v -24 h 6.4 v -24 h -6.4 v -24 h 6.4 v -24 h -6.4 v -24 h 6.4 v -24 h -6.4 v -24 h 6.4 v -23.99 h -6.4 v -15.51 h -15.51 v -6.4 h -23.99 v 6.4 h -24 v -6.4 h -24 v 6.4 h -24 v -6.4 h -24 v 6.4 h -24 v -6.4 h -24 v 6.4 h -24 v -6.4 h -24 v 6.4 h -24 v -6.4 h -24 v 6.4 h -24 v -6.4 h -23.99 v 6.4 h -15.51 v 15.51 h -6.4 v 23.99 h 6.4 v 24 h -6.4 v 24 h 6.4 v 24 h -6.4 v 24 h 6.4 v 24 h -6.4 v 24 h 6.4 v 24 h -6.4 v 24 h 6.4 v 24 h -6.4 v 24 h 6.4 v 24 h -6.4 v 23.99 h 6.4 v 15.51 h 15.51 v 6.4 h -15.51 v 0.01 h -6.4 v 25.595 h 19.2 z" />
  <path
     id="path1016"
     d="m -124,-451.15 v -6.4 h 8 v 6.4 z m 48,0 v -6.4 h 8 v 6.4 z m 192,0 v -6.4 h 8 v 6.4 z m -144,0 v -6.4 h 8 v 6.4 z m 96,0 v -6.4 h 8 v 6.4 z m -48,0 v -6.4 h 8 v 6.4 z m 145.1,-47.5 v -8 h 6.4 v 8 z m -336.6,0 v -8 h 6.4 v 8 z m 336.6,-48 v -8 h 6.4 v 8 z m -336.6,0 v -8 h 6.4 v 8 z m 336.6,-48 v -8 h 6.4 v 8 z m -336.6,0 v -8 h 6.4 v 8 z m 336.6,-48 v -8 h 6.4 v 8 z m -336.6,0 v -8 h 6.4 v 8 z m 0,-48 v -8 h 6.4 v 8 z m 336.6,0 v -8 h 6.4 v 8 z m 0,-48 v -8 h 6.4 v 8 z m -336.6,0 v -8 h 6.4 v 8 z m 95.5,-49.1 v -6.4 h 8 v 6.4 z m 48,0 v -6.4 h 8 v 6.4 z m 48,0 v -6.4 h 8 v 6.4 z m 48,0 v -6.4 h 8 v 6.4 z m 48,0 v -6.4 h 8 v 6.4 z m -240,0 v -6.4 h 8 v 6.4 z m -32,336.6 h 24 v 6.4 h 24 v -6.4 h 24 v 6.4 h 24 v -6.4 h 24 v 6.4 h 24 v -6.4 h 24 v 6.4 h 24 v -6.4 h 24 v 6.4 h 24 v -6.4 h 24 v 6.4 h 24 v -6.4 h 24 v 6.4 h 21.9 v -21.9 h -6.4 v -24 h 6.4 v -24 h -6.4 v -24 h 6.4 v -24 h -6.4 v -24 h 6.4 v -24 h -6.4 v -24 h 6.4 v -24 h -6.4 v -24 h 6.4 v -24 h -6.4 v -24 h 6.4 v -24 h -6.4 v -24 h 6.4 v -21.9 H 156 v 6.4 h -24 v -6.4 h -24 v 6.4 H 84 v -6.4 H 60 v 6.4 H 36 v -6.4 H 12 v 6.4 h -24 v -6.4 h -24 v 6.4 h -24 v -6.4 h -24 v 6.4 h -24 v -6.4 h -24 v 6.4 h -24 v -6.4 h -21.9 v 21.9 h 6.4 v 24 h -6.4 v 24 h 6.4 v 24 h -6.4 v 24 h 6.4 v 24 h -6.4 v 24 h 6.4 v 24 h -6.4 v 24 h 6.4 v 24 h -6.4 v 24 h 6.4 v 24 h -6.4 v 24 h 6.4 v 24 h -6.4 v 21.9 h 21.9 z" />
  <path
     id="path966"
     d="m 505.7,-451.15 v -6.4 h 8 v 6.4 z m 48,0 v -6.4 h 8 v 6.4 z m -96,0 v -6.4 h 8 v 6.4 z m -48,0 v -6.4 h 8 v 6.4 z m 240,0 v -6.4 h 8 v 6.4 z m -48,0 v -6.4 h 8 v 6.4 z m 97.1,-47.5 v -8 h 6.4 v 8 z m -336.6,0 v -8 h 6.4 v 8 z m 0,-48 v -8 h 6.4 v 8 z m 336.6,0 v -8 h 6.4 v 8 z m 0,-48 v -8 h 6.4 v 8 z m -336.6,0 v -8 h 6.4 v 8 z m 0,-48 v -8 h 6.4 v 8 z m 336.6,0 v -8 h 6.4 v 8 z m 0,-48 v -8 h 6.4 v 8 z m -336.6,0 v -8 h 6.4 v 8 z m 336.6,-48 v -8 h 6.4 v 8 z m -336.6,0 v -8 h 6.4 v 8 z m 143.5,-49.1 v -6.4 h 8 v 6.4 z m 48,0 v -6.4 h 8 v 6.4 z m 48,0 v -6.4 h 8 v 6.4 z m -144,0 v -6.4 h 8 v 6.4 z m 192,0 v -6.4 h 8 v 6.4 z m -240,0 v -6.4 h 8 v 6.4 z m -32,336.6 h 24 v 6.4 h 24 v -6.4 h 24 v 6.4 h 24 v -6.4 h 24 v 6.4 h 24 v -6.4 h 24 v 6.4 h 24 v -6.4 h 24 v 6.4 h 24 v -6.4 h 24 v 6.4 h 24 v -6.4 h 24 v 6.4 h 21.9 v -21.9 h -6.4 v -24 h 6.4 v -24 h -6.4 v -24 h 6.4 v -24 h -6.4 v -24 h 6.4 v -24 h -6.4 v -24 h 6.4 v -24 h -6.4 v -24 h 6.4 v -24 h -6.4 v -24 h 6.4 v -24 h -6.4 v -24 h 6.4 v -21.9 h -21.9 v 6.4 h -24 v -6.4 h -24 v 6.4 h -24 v -6.4 h -24 v 6.4 h -24 v -6.4 h -24 v 6.4 h -24 v -6.4 h -24 v 6.4 h -24 v -6.4 h -24 v 6.4 h -24 v -6.4 h -24 v 6.4 h -24 v -6.4 h -21.9 v 21.9 h 6.4 v 24 h -6.4 v 24 h 6.4 v 24 h -6.4 v 24 h 6.4 v 24 h -6.4 v 24 h 6.4 v 24 h -6.4 v 24 h 6.4 v 24 h -6.4 v 24 h 6.4 v 24 h -6.4 v 24 h 6.4 v 24 h -6.4 v 21.9 h 21.9 z" />
  <path
     id="path900"
     d="m 2010.8,-451.15 v -6.4 h 8 v 6.4 z m 48,0 v -6.4 h 8 v 6.4 z m 48,0 v -6.4 h 8 v 6.4 z m 48,0 v -6.4 h 8 v 6.4 z m 48,0 v -6.4 h 8 v 6.4 z m 48,0 v -6.4 h 8 v 6.4 z m -287.5,-23.5 v -8 h 6.4 v 8 z m 336.6,0 v -8 h 6.4 v 8 z m 6.4,-16 v -24 h 6.4 v 24 z m -6.4,-32 v -8 h 6.4 v 8 z m -336.6,0 v -8 h 6.4 v 8 z m 343,-16 v -24 h 6.4 v 24 z m -343,-32 v -8 h 6.4 v 8 z m 336.6,0 v -8 h 6.4 v 8 z m 6.4,-16 v -24 h 6.4 v 24 z m -6.4,-32 v -8 h 6.4 v 8 z m -336.6,0 v -8 h 6.4 v 8 z m 343,-16 v -24 h 6.4 v 24 z m -6.4,-32 v -8 h 6.4 v 8 z m -336.6,0 v -8 h 6.4 v 8 z m 343,-16 v -24 h 6.4 v 24 z m -6.4,-32 v -8 h 6.4 v 8 z m -336.6,0 v -8 h 6.4 v 8 z m 343,-16 v -24 h 6.4 v 24 z m -343,-32 v -8 h 6.4 v 8 z m 336.6,0 v -8 h 6.4 v 8 z m -49.1,-25.1 v -6.4 h 8 v 6.4 z m -48,0 v -6.4 h 8 v 6.4 z m -48,0 v -6.4 h 8 v 6.4 z m -48,0 v -6.4 h 8 v 6.4 z m -48,0 v -6.4 h 8 v 6.4 z m -48,0 v -6.4 h 8 v 6.4 z m -32,336.6 h 24 v 6.4 h 24 v -6.4 h 24 v 6.4 h 24 v -6.4 h 24 v 6.4 h 24 v -6.4 h 24 v 6.4 h 24 v -6.4 h 24 v 6.4 h 24 v -6.4 h 24 v 6.4 h 24 v -6.4 h 24 v 6.4 h 15.5 v -21.91 h 6.4 v 15.51 h 25.6 v -12.8 l -3.32,-0.35 -3.19,-1.034 -2.9,-1.674 -2.48,-2.239 -1.97,-2.708 -1.36,-3.058 -0.7,-3.273 v -288.727 l 0.7,-3.274 1.36,-3.058 1.97,-2.708 2.48,-2.239 2.9,-1.674 3.19,-1.034 3.32,-0.35 v -12.8 h -25.6 v 15.51 h -6.4 v -21.91 h -15.5 v 6.4 h -24 v -6.4 h -24 v 6.4 h -24 v -6.4 h -24 v 6.4 h -24 v -6.4 h -24 v 6.4 h -24 v -6.4 h -24 v 6.4 h -24 v -6.4 h -24 v 6.4 h -24 v -6.4 h -24 v 6.4 h -24 v -6.4 h -15.5 v 21.91 h -6.4 v 23.99 h 6.4 v 24 h -6.4 v 24 h 6.4 v 24 h -6.4 v 24 h 6.4 v 24 h -6.4 v 24 h 6.4 v 24 h -6.4 v 24 h 6.4 v 24 h -6.4 v 24 h 6.4 v 24 h -6.4 v 23.99 h 6.4 v 21.91 h 15.5 z" />
  <path
     id="path834"
     d="m 2473.34,-451.15 v -6.4 h 8 v 6.4 z m 48,0 v -6.4 h 8 v 6.4 z m 48,0 v -6.4 h 8 v 6.4 z m 48,0 v -6.4 h 8 v 6.4 z m 96,0 v -6.4 h 8 v 6.4 z m -48,0 v -6.4 h 8 v 6.4 z m 97.1,-23.5 v -8 h 6.4 v 8 z m -336.6,0 v -8 h 6.4 v 8 z m 343,-16 v -24 h 6.4 v 24 z m -6.4,-32 v -8 h 6.4 v 8 z m -336.6,0 v -8 h 6.4 v 8 z m 343,-16 v -24 h 6.4 v 24 z m -6.4,-32 v -8 h 6.4 v 8 z m -336.6,0 v -8 h 6.4 v 8 z m 343,-16 v -24 h 6.4 v 24 z m -343,-32 v -8 h 6.4 v 8 z m 336.6,0 v -8 h 6.4 v 8 z m 6.4,-16 v -24 h 6.4 v 24 z m -6.4,-32 v -8 h 6.4 v 8 z m -336.6,0 v -8 h 6.4 v 8 z m 343,-16 v -24 h 6.4 v 24 z m -6.4,-32 v -8 h 6.4 v 8 z m -336.6,0 v -8 h 6.4 v 8 z m 343,-16 v -24 h 6.4 v 24 z m -6.4,-32 v -8 h 6.4 v 8 z m -336.6,0 v -8 h 6.4 v 8 z m 287.5,-25.1 v -6.4 h 8 v 6.4 z m -48,0 v -6.4 h 8 v 6.4 z m -48,0 v -6.4 h 8 v 6.4 z m -48,0 v -6.4 h 8 v 6.4 z m -48,0 v -6.4 h 8 v 6.4 z m -48,0 v -6.4 h 8 v 6.4 z m -32,336.6 h 24 v 6.4 h 24 v -6.4 h 24 v 6.4 h 24 v -6.4 h 24 v 6.4 h 24 v -6.4 h 24 v 6.4 h 24 v -6.4 h 24 v 6.4 h 24 v -6.4 h 24 v 6.4 h 24 v -6.4 h 24 v 6.4 h 15.5 v -21.91 h 6.4 v 15.51 h 25.6 v -12.8 l -3.32,-0.35 -3.19,-1.034 -2.9,-1.674 -2.48,-2.239 -1.97,-2.708 -1.36,-3.058 -0.7,-3.273 v -288.727 l 0.7,-3.274 1.36,-3.058 1.97,-2.708 2.48,-2.239 2.9,-1.674 3.19,-1.034 3.32,-0.35 v -12.8 h -25.6 v 15.51 h -6.4 v -21.91 h -15.5 v 6.4 h -24 v -6.4 h -24 v 6.4 h -24 v -6.4 h -24 v 6.4 h -24 v -6.4 h -24 v 6.4 h -24 v -6.4 h -24 v 6.4 h -24 v -6.4 h -24 v 6.4 h -24 v -6.4 h -24 v 6.4 h -24 v -6.4 h -15.5 v 21.91 h -6.4 v 23.99 h 6.4 v 24 h -6.4 v 24 h 6.4 v 24 h -6.4 v 24 h 6.4 v 24 h -6.4 v 24 h 6.4 v 24 h -6.4 v 24 h 6.4 v 24 h -6.4 v 24 h 6.4 v 24 h -6.4 v 23.99 h 6.4 v 21.91 h 15.5 z" />
  <path
     d="m 2457.34,171.5 h 8 v -6.4 h 24 v 6.4 h 8 v 6.4 h 8 v -6.4 h 8 v -6.4 h 24 v 6.4 h 8 v 6.4 h 8 v -6.4 h 8 v -6.4 h 24 v 6.4 h 8 v 6.4 h 8 v -6.4 h 8 v -6.4 h 24 v 6.4 h 8 v 6.4 h 8 v -6.4 h 8 v -6.4 h 24 v 6.4 h 8 v 6.4 h 8 v -6.4 h 8 v -6.4 h 24 v 6.4 h 8 v 6.4 h 8 v -6.4 h 17.1 V 132 h 6.4 v -8 h 6.4 v -8 h -6.4 v -8 h -6.4 V 84 h 6.4 v -8 h 6.4 v -8 h -6.4 v -8 h -6.4 V 36 h 6.4 v -8 h 6.4 v -8 h -6.4 v -8 h -6.4 v -24 h 6.4 v -8 h 6.4 v -8 h -6.4 v -8 h -6.4 v -24 h 6.4 v -8 h 6.4 v -8 h -6.4 v -8 h -6.4 v -24 h 6.4 v -8 h 6.4 v -8 h -6.4 v -8 h -6.4 v -39.5 h -17.1 v -6.4 h -8 v 6.4 h -8 v 6.4 h -24 v -6.4 h -8 v -6.4 h -8 v 6.4 h -8 v 6.4 h -24 v -6.4 h -8 v -6.4 h -8 v 6.4 h -8 v 6.4 h -24 v -6.4 h -8 v -6.4 h -8 v 6.4 h -8 v 6.4 h -24 v -6.4 h -8 v -6.4 h -8 v 6.4 h -8 v 6.4 h -24 v -6.4 h -8 v -6.4 h -8 v 6.4 h -8 v 6.4 h -24 v -6.4 h -8 v -6.4 h -8 v 6.4 h -17.1 v 39.5 h -6.4 v 8 h -6.4 v 8 h 6.4 v 8 h 6.4 v 24 h -6.4 v 8 h -6.4 v 8 h 6.4 v 8 h 6.4 v 24 h -6.4 v 8 h -6.4 v 8 h 6.4 v 8 h 6.4 v 24 h -6.4 v 8 h -6.4 v 8 h 6.4 v 8 h 6.4 v 24 h -6.4 v 8 h -6.4 v 8 h 6.4 v 8 h 6.4 v 24 h -6.4 v 8 h -6.4 v 8 h 6.4 v 8 h 6.4 v 39.5 h 17.1 v 6.4 h 8 z"
     id="path832" />
  <path
     d="m -140,171.5 h 8 v -6.4 h 24 v 6.4 h 8 v 6.4 h 8 v -6.4 h 8 v -6.4 h 24 v 6.4 h 8 v 6.4 h 8 v -6.4 h 8 v -6.4 h 24 v 6.4 h 8 v 6.4 h 8 v -6.4 h 8 v -6.4 h 24 v 6.4 h 8 v 6.4 h 8 v -6.4 h 8 v -6.4 h 24 v 6.4 h 8 v 6.4 h 8 v -6.4 h 8 v -6.4 h 24 v 6.4 h 8 v 6.4 h 8 v -6.4 h 23.5 V 148 h 6.4 v -8 h -6.4 v -8 h -6.4 v -24 h 6.4 v -8 h 6.4 v -8 h -6.4 v -8 h -6.4 V 60 h 6.4 v -8 h 6.4 v -8 h -6.4 v -8 h -6.4 V 12 h 6.4 V 4 h 6.4 v -8 h -6.4 v -8 h -6.4 v -24 h 6.4 v -8 h 6.4 v -8 h -6.4 v -8 h -6.4 v -24 h 6.4 v -8 h 6.4 v -8 h -6.4 v -8 h -6.4 v -24 h 6.4 v -8 h 6.4 v -8 h -6.4 v -23.5 H 148 v -6.4 h -8 v 6.4 h -8 v 6.4 h -24 v -6.4 h -8 v -6.4 h -8 v 6.4 h -8 v 6.4 H 60 v -6.4 h -8 v -6.4 h -8 v 6.4 h -8 v 6.4 H 12 v -6.4 H 4 v -6.4 h -8 v 6.4 h -8 v 6.4 h -24 v -6.4 h -8 v -6.4 h -8 v 6.4 h -8 v 6.4 h -24 v -6.4 h -8 v -6.4 h -8 v 6.4 h -8 v 6.4 h -24 v -6.4 h -8 v -6.4 h -8 v 6.4 h -23.5 v 23.5 h -6.4 v 8 h 6.4 v 8 h 6.4 v 24 h -6.4 v 8 h -6.4 v 8 h 6.4 v 8 h 6.4 v 24 h -6.4 v 8 h -6.4 v 8 h 6.4 v 8 h 6.4 v 24 h -6.4 v 8 h -6.4 v 8 h 6.4 v 8 h 6.4 v 24 h -6.4 v 8 h -6.4 v 8 h 6.4 v 8 h 6.4 v 24 h -6.4 v 8 h -6.4 v 8 h 6.4 v 8 h 6.4 v 24 h -6.4 v 8 h -6.4 v 8 h 6.4 v 23.5 h 23.5 v 6.4 h 8 z"
     id="path830" />
  <path
     d="m 1994.8,171.5 h 8 v -6.4 h 24 v 6.4 h 8 v 6.4 h 8 v -6.4 h 8 v -6.4 h 24 v 6.4 h 8 v 6.4 h 8 v -6.4 h 8 v -6.4 h 24 v 6.4 h 8 v 6.4 h 8 v -6.4 h 8 v -6.4 h 24 v 6.4 h 8 v 6.4 h 8 v -6.4 h 8 v -6.4 h 24 v 6.4 h 8 v 6.4 h 8 v -6.4 h 8 v -6.4 h 24 v 6.4 h 8 v 6.4 h 8 v -6.4 h 17.1 V 132 h 6.4 v -8 h 6.4 v -8 h -6.4 v -8 h -6.4 V 84 h 6.4 v -8 h 6.4 v -8 h -6.4 v -8 h -6.4 V 36 h 6.4 v -8 h 6.4 v -8 h -6.4 v -8 h -6.4 v -24 h 6.4 v -8 h 6.4 v -8 h -6.4 v -8 h -6.4 v -24 h 6.4 v -8 h 6.4 v -8 h -6.4 v -8 h -6.4 v -24 h 6.4 v -8 h 6.4 v -8 h -6.4 v -8 h -6.4 v -39.5 h -17.1 v -6.4 h -8 v 6.4 h -8 v 6.4 h -24 v -6.4 h -8 v -6.4 h -8 v 6.4 h -8 v 6.4 h -24 v -6.4 h -8 v -6.4 h -8 v 6.4 h -8 v 6.4 h -24 v -6.4 h -8 v -6.4 h -8 v 6.4 h -8 v 6.4 h -24 v -6.4 h -8 v -6.4 h -8 v 6.4 h -8 v 6.4 h -24 v -6.4 h -8 v -6.4 h -8 v 6.4 h -8 v 6.4 h -24 v -6.4 h -8 v -6.4 h -8 v 6.4 h -17.1 v 39.5 h -6.4 v 8 h -6.4 v 8 h 6.4 v 8 h 6.4 v 24 h -6.4 v 8 h -6.4 v 8 h 6.4 v 8 h 6.4 v 24 h -6.4 v 8 h -6.4 v 8 h 6.4 v 8 h 6.4 v 24 h -6.4 v 8 h -6.4 v 8 h 6.4 v 8 h 6.4 v 24 h -6.4 v 8 h -6.4 v 8 h 6.4 v 8 h 6.4 v 24 h -6.4 v 8 h -6.4 v 8 h 6.4 v 8 h 6.4 v 39.5 h 17.1 v 6.4 h 8 z"
     id="path828" />
  <path
     d="m 1485.1,171.5 h 8 v -6.4 h 24 v 6.4 h 8 v 6.4 h 8 v -6.4 h 8 v -6.4 h 24 v 6.4 h 8 v 6.4 h 8 v -6.4 h 8 v -6.4 h 24 v 6.4 h 8 v 6.4 h 8 v -6.4 h 8 v -6.4 h 24 v 6.4 h 8 v 6.4 h 8 v -6.4 h 8 v -6.4 h 24 v 6.4 h 8 v 6.4 h 8 v -6.4 h 8 v -6.4 h 33.1 V 132 h 6.4 v -8 h 6.4 v -8 h -6.4 v -8 h -6.4 V 84 h 6.4 v -8 h 6.4 v -8 h -6.4 v -8 h -6.4 V 36 h 6.4 v -8 h 6.4 v -8 h -6.4 v -8 h -6.4 v -24 h 6.4 v -8 h 6.4 v -8 h -6.4 v -8 h -6.4 v -24 h 6.4 v -8 h 6.4 v -8 h -6.4 v -8 h -6.4 v -24 h 6.4 v -8 h 6.4 v -8 h -6.4 v -8 h -6.4 v -33.1 h -33.1 v -6.4 h -8 v -6.4 h -8 v 6.4 h -8 v 6.4 h -24 v -6.4 h -8 v -6.4 h -8 v 6.4 h -8 v 6.4 h -24 v -6.4 h -8 v -6.4 h -8 v 6.4 h -8 v 6.4 h -24 v -6.4 h -8 v -6.4 h -8 v 6.4 h -8 v 6.4 h -24 v -6.4 h -8 v -6.4 h -8 v 6.4 h -8 v 6.4 h -24 v -6.4 h -8 v -6.4 h -8 v 6.4 h -8 v 6.4 H 1436 v 33.1 h -6.4 v 8 h -6.4 v 8 h 6.4 v 8 h 6.4 v 24 h -6.4 v 8 h -6.4 v 8 h 6.4 v 8 h 6.4 v 24 h -6.4 v 8 h -6.4 v 8 h 6.4 v 8 h 6.4 v 24 h -6.4 v 8 h -6.4 v 8 h 6.4 v 8 h 6.4 v 24 h -6.4 v 8 h -6.4 v 8 h 6.4 v 8 h 6.4 v 24 h -6.4 v 8 h -6.4 v 8 h 6.4 v 8 h 6.4 v 33.1 h 33.1 v 6.4 h 8 v 6.4 h 8 z"
     id="path826" />
  <path
     d="m 951.4,171.5 h 8 v -6.4 h 24 v 6.4 h 8 v 6.4 h 8 v -6.4 h 8 v -6.4 h 24 v 6.4 h 8 v 6.4 h 8 v -6.4 h 8 v -6.4 h 24 v 6.4 h 8 v 6.4 h 8 v -6.4 h 8 v -6.4 h 24 v 6.4 h 8 v 6.4 h 8 v -6.4 h 8 v -6.4 h 24 v 6.4 h 8 v 6.4 h 8 v -6.4 h 8 v -6.4 h 33.1 V 132 h 6.4 v -8 h 6.4 v -8 h -6.4 v -8 h -6.4 V 84 h 6.4 v -8 h 6.4 v -8 h -6.4 v -8 h -6.4 V 36 h 6.4 v -8 h 6.4 v -8 h -6.4 v -8 h -6.4 v -24 h 6.4 v -8 h 6.4 v -8 h -6.4 v -8 h -6.4 v -24 h 6.4 v -8 h 6.4 v -8 h -6.4 v -8 h -6.4 v -24 h 6.4 v -8 h 6.4 v -8 h -6.4 v -8 h -6.4 v -33.1 h -33.1 v -6.4 h -8 v -6.4 h -8 v 6.4 h -8 v 6.4 h -24 v -6.4 h -8 v -6.4 h -8 v 6.4 h -8 v 6.4 h -24 v -6.4 h -8 v -6.4 h -8 v 6.4 h -8 v 6.4 h -24 v -6.4 h -8 v -6.4 h -8 v 6.4 h -8 v 6.4 h -24 v -6.4 h -8 v -6.4 h -8 v 6.4 h -8 v 6.4 h -24 v -6.4 h -8 v -6.4 h -8 v 6.4 h -8 v 6.4 h -33.1 v 33.1 h -6.4 v 8 h -6.4 v 8 h 6.4 v 8 h 6.4 v 24 h -6.4 v 8 h -6.4 v 8 h 6.4 v 8 h 6.4 v 24 h -6.4 v 8 h -6.4 v 8 h 6.4 v 8 h 6.4 v 24 h -6.4 v 8 h -6.4 v 8 h 6.4 v 8 h 6.4 v 24 h -6.4 v 8 h -6.4 v 8 h 6.4 v 8 h 6.4 v 24 h -6.4 v 8 h -6.4 v 8 h 6.4 v 8 h 6.4 v 33.1 h 33.1 v 6.4 h 8 v 6.4 h 8 z"
     id="path824" />
  <path
     d="m 393.7,171.5 h 8 v -6.4 h 24 v 6.4 h 8 v 6.4 h 8 v -6.4 h 8 v -6.4 h 24 v 6.4 h 8 v 6.4 h 8 v -6.4 h 8 v -6.4 h 24 v 6.4 h 8 v 6.4 h 8 v -6.4 h 8 v -6.4 h 24 v 6.4 h 8 v 6.4 h 8 v -6.4 h 8 v -6.4 h 24 v 6.4 h 8 v 6.4 h 8 v -6.4 h 8 v -6.4 h 24 v 6.4 h 8 v 6.4 h 8 v -6.4 h 23.5 V 148 h 6.4 v -8 h -6.4 v -8 h -6.4 v -24 h 6.4 v -8 h 6.4 v -8 h -6.4 v -8 h -6.4 V 60 h 6.4 v -8 h 6.4 v -8 h -6.4 v -8 h -6.4 V 12 h 6.4 V 4 h 6.4 v -8 h -6.4 v -8 h -6.4 v -24 h 6.4 v -8 h 6.4 v -8 h -6.4 v -8 h -6.4 v -24 h 6.4 v -8 h 6.4 v -8 h -6.4 v -8 h -6.4 v -24 h 6.4 v -8 h 6.4 v -8 h -6.4 v -23.5 h -23.5 v -6.4 h -8 v 6.4 h -8 v 6.4 h -24 v -6.4 h -8 v -6.4 h -8 v 6.4 h -8 v 6.4 h -24 v -6.4 h -8 v -6.4 h -8 v 6.4 h -8 v 6.4 h -24 v -6.4 h -8 v -6.4 h -8 v 6.4 h -8 v 6.4 h -24 v -6.4 h -8 v -6.4 h -8 v 6.4 h -8 v 6.4 h -24 v -6.4 h -8 v -6.4 h -8 v 6.4 h -8 v 6.4 h -24 v -6.4 h -8 v -6.4 h -8 v 6.4 h -23.5 v 23.5 h -6.4 v 8 h 6.4 v 8 h 6.4 v 24 h -6.4 v 8 h -6.4 v 8 h 6.4 v 8 h 6.4 v 24 h -6.4 v 8 h -6.4 v 8 h 6.4 v 8 h 6.4 v 24 h -6.4 v 8 h -6.4 v 8 h 6.4 v 8 h 6.4 v 24 h -6.4 v 8 h -6.4 v 8 h 6.4 v 8 h 6.4 v 24 h -6.4 v 8 h -6.4 v 8 h 6.4 v 8 h 6.4 v 24 h -6.4 v 8 h -6.4 v 8 h 6.4 v 23.5 h 23.5 v 6.4 h 8 z"
     id="path4" />
  <path
     d="m 3234.277,233.30308 v -6.4 h 24 v 6.4 z m 48,0 v -6.4 h 24 v 6.4 z m 48,0 v -6.4 h 24 v 6.4 z m 48,0 v -6.4 h 24 v 6.4 z m -240,0 v -6.4 h 24 v 6.4 z m 48,0 v -6.4 h 24 v 6.4 z m 224,-6.4 v -6.4 h 8 v 6.4 z m -288,0 v -6.4 h 8 v 6.4 z m 48,0 v -6.4 h 8 v 6.4 z m 192,0 v -6.4 h 8 v 6.4 z m -48,0 v -6.4 h 8 v 6.4 z m -48,0 v -6.4 h 8 v 6.4 z m -48,0 v -6.4 h 8 v 6.4 z m -119.5,-23.5 v -8 h 6.4 v 8 z m 336.6,0 v -8 h 6.4 v 8 z m 0,-48 v -8 h 6.4 v 8 z m -336.6,0 v -8 h 6.4 v 8 z m 336.6,-48 v -8 h 6.4 v 8 z m -336.6,0 v -8 h 6.4 v 8 z m 336.6,-47.999997 v -8 h 6.4 v 8 z m -336.6,0 v -8 h 6.4 v 8 z m 336.6,-48 V 3.4030827 h 6.4 v 8.0000003 z m -336.6,0 V 3.4030827 h 6.4 v 8.0000003 z m 0,-48 v -8 h 6.4 v 8 z m 336.6,0 v -8 h 6.4 v 8 z m -336.6,-48 v -8 h 6.4 v 8 z m 336.6,0 v -8 h 6.4 v 8 z m -265.1,-25.100003 v -6.4 h 8 v 6.4 z m 96,0 v -6.4 h 8 v 6.4 z m 48,0 v -6.4 h 8 v 6.4 z m 48,0 v -6.4 h 8 v 6.4 z m 48,0 v -6.4 h 8 v 6.4 z m -192,0 v -6.4 h 8 v 6.4 z m -96,0 v -6.4 h 8 v 6.4 z m -10.35,365.276 1.034,-3.183 1.674,-2.898 2.239,-2.488 2.708,-1.967 3.058,-1.361 3.273,-0.696 h 288.724 l 3.28,0.696 3.05,1.361 2.71,1.967 2.24,2.488 1.68,2.898 1.03,3.183 0.35,3.329 h 19.2 v -25.595 h -6.4 v -0.01 h -15.51 v -6.4 h 15.51 v -15.51 h 6.4 v -23.99 h -6.4 v -24 h 6.4 v -24 h -6.4 v -24 h 6.4 V 91.403083 h -6.4 v -24 h 6.4 v -24 h -6.4 v -24 h 6.4 V -4.5969173 h -6.4 V -28.596917 h 6.4 v -24 h -6.4 v -24 h 6.4 v -23.990003 h -6.4 v -15.51 h -15.51 v -6.4 h -23.99 v 6.4 h -24 v -6.4 h -24 v 6.4 h -24 v -6.4 h -24 v 6.4 h -24 v -6.4 h -24 v 6.4 h -24 v -6.4 h -24 v 6.4 h -24 v -6.4 h -24 v 6.4 h -24 v -6.4 h -23.99 v 6.4 h -15.51 v 15.51 h -6.4 v 23.990003 h 6.4 v 24 h -6.4 v 24 h 6.4 v 23.9999997 h -6.4 V 19.403083 h 6.4 v 24 h -6.4 v 24 h 6.4 v 24 h -6.4 v 23.999997 h 6.4 v 24 h -6.4 v 24 h 6.4 v 24 h -6.4 v 23.99 h 6.4 v 15.51 h 15.51 v 6.4 h -15.51 v 0.01 h -6.4 v 25.595 h 19.2 z"
     id="path829"
     inkscape:connector-curvature="0" />
  <path
     d="m 4089.877,233.30308 v -6.4 h 24 v 6.4 z m -48,0 v -6.4 h 24 v 6.4 z m -48,0 v -6.4 h 24 v 6.4 z m -48,0 v -6.4 h 24 v 6.4 z m -48,0 v -6.4 h 24 v 6.4 z m -48,0 v -6.4 h 24 v 6.4 z m 272,-6.4 v -6.4 h 8 v 6.4 z m -48,0 v -6.4 h 8 v 6.4 z m -48,0 v -6.4 h 8 v 6.4 z m -48,0 v -6.4 h 8 v 6.4 z m -144,0 v -6.4 h 8 v 6.4 z m 96,0 v -6.4 h 8 v 6.4 z m -48,0 v -6.4 h 8 v 6.4 z m 265.1,-23.5 v -8 h 6.4 v 8 z m -336.6,0 v -8 h 6.4 v 8 z m 0,-48 v -8 h 6.4 v 8 z m 336.6,0 v -8 h 6.4 v 8 z m -336.6,-48 v -8.000002 h 6.4 v 8.000002 z m 336.6,0 v -8.000002 h 6.4 v 8.000002 z m -336.6,-48.000002 v -8 h 6.4 v 8 z m 336.6,0 v -8 h 6.4 v 8 z m -336.6,-48 V 3.4030778 h 6.4 v 8.0000002 z m 336.6,0 V 3.4030778 h 6.4 v 8.0000002 z m -336.6,-48 v -8 h 6.4 v 8 z m 336.6,0 v -8 h 6.4 v 8 z m 0,-48 v -7.999998 h 6.4 v 7.999998 z m -336.6,0 v -7.999998 h 6.4 v 7.999998 z m 23.5,-25.099998 v -6.4 h 8 v 6.4 z m 48,0 v -6.4 h 8 v 6.4 z m 48,0 v -6.4 h 8 v 6.4 z m 48,0 v -6.4 h 8 v 6.4 z m 48,0 v -6.4 h 8 v 6.4 z m 48,0 v -6.4 h 8 v 6.4 z m 48,0 v -6.4 h 8 v 6.4 z m -298.35,365.276 1.03,-3.183 1.68,-2.898 2.24,-2.488 2.7,-1.967 3.06,-1.361 3.28,-0.696 h 288.72 l 3.28,0.696 3.05,1.361 2.71,1.967 2.24,2.488 1.68,2.898 1.03,3.183 0.35,3.329 h 19.2 v -25.595 h -6.4 v -0.01 h -15.51 v -6.4 h 15.51 v -15.51 h 6.4 v -23.99 h -6.4 v -24 h 6.4 v -24 h -6.4 v -24 h 6.4 V 91.403078 h -6.4 v -24 h 6.4 v -24 h -6.4 v -24 h 6.4 v -24 h -6.4 v -24 h 6.4 v -24 h -6.4 v -24 h 6.4 v -23.989998 h -6.4 v -15.51 h -15.51 v -6.4 h -23.99 v 6.4 h -24 v -6.4 h -24 v 6.4 h -24 v -6.4 h -24 v 6.4 h -24 v -6.4 h -24 v 6.4 h -24 v -6.4 h -24 v 6.4 h -24 v -6.4 h -24 v 6.4 h -24 v -6.4 h -23.99 v 6.4 h -15.51 v 15.51 h -6.4 v 23.989998 h 6.4 v 24 h -6.4 v 24 h 6.4 v 24 h -6.4 v 24 h 6.4 v 24 h -6.4 v 24 h 6.4 v 24 h -6.4 v 24.000002 h 6.4 v 24 h -6.4 v 24 h 6.4 v 24 h -6.4 v 23.99 h 6.4 v 15.51 h 15.51 v 6.4 h -15.51 v 0.01 h -6.4 v 25.595 h 19.2 z"
     id="path831"
     inkscape:connector-curvature="0" />
  <path
     d="m 3146.277,-1068.1324 v -6.4 h 8 v 6.4 z m 48,0 v -6.4 h 8 v 6.4 z m 192,0 v -6.4 h 8 v 6.4 z m -144,0 v -6.4 h 8 v 6.4 z m 96,0 v -6.4 h 8 v 6.4 z m -48,0 v -6.4 h 8 v 6.4 z m 145.1,-47.5 v -8 h 6.4 v 8 z m -336.6,0 v -8 h 6.4 v 8 z m 336.6,-48 v -8 h 6.4 v 8 z m -336.6,0 v -8 h 6.4 v 8 z m 336.6,-48 v -8 h 6.4 v 8 z m -336.6,0 v -8 h 6.4 v 8 z m 336.6,-48 v -8 h 6.4 v 8 z m -336.6,0 v -8 h 6.4 v 8 z m 0,-48 v -8 h 6.4 v 8 z m 336.6,0 v -8 h 6.4 v 8 z m 0,-48 v -8 h 6.4 v 8 z m -336.6,0 v -8 h 6.4 v 8 z m 95.5,-49.1 v -6.4 h 8 v 6.4 z m 48,0 v -6.4 h 8 v 6.4 z m 48,0 v -6.4 h 8 v 6.4 z m 48,0 v -6.4 h 8 v 6.4 z m 48,0 v -6.4 h 8 v 6.4 z m -240,0 v -6.4 h 8 v 6.4 z m -32,336.6 h 24 v 6.4 h 24 v -6.4 h 24 v 6.4 h 24 v -6.4 h 24 v 6.4 h 24 v -6.4 h 24 v 6.4 h 24 v -6.4 h 24 v 6.4 h 24 v -6.4 h 24 v 6.4 h 24 v -6.4 h 24 v 6.4 h 21.9 v -21.9 h -6.4 v -24 h 6.4 v -24 h -6.4 v -24 h 6.4 v -24 h -6.4 v -24 h 6.4 v -24 h -6.4 v -24 h 6.4 v -24 h -6.4 v -24 h 6.4 v -24 h -6.4 v -24 h 6.4 v -24 h -6.4 v -24 h 6.4 v -21.9 h -21.9 v 6.4 h -24 v -6.4 h -24 v 6.4 h -24 v -6.4 h -24 v 6.4 h -24 v -6.4 h -24 v 6.4 h -24 v -6.4 h -24 v 6.4 h -24 v -6.4 h -24 v 6.4 h -24 v -6.4 h -24 v 6.4 h -24 v -6.4 h -21.9 v 21.9 h 6.4 v 24 h -6.4 v 24 h 6.4 v 24 h -6.4 v 24 h 6.4 v 24 h -6.4 v 24 h 6.4 v 24 h -6.4 v 24 h 6.4 v 24 h -6.4 v 24 h 6.4 v 24 h -6.4 v 24 h 6.4 v 24 h -6.4 v 21.9 h 21.9 z"
     id="path833"
     inkscape:connector-curvature="0" />
  <path
     d="m 3242.277,-433.08874 v -6.4 h 8 v 6.4 z m 48,0 v -6.4 h 8 v 6.4 z m -96,0 v -6.4 h 8 v 6.4 z m -48,0 v -6.4 h 8 v 6.4 z m 240,0 v -6.4 h 8 v 6.4 z m -48,0 v -6.4 h 8 v 6.4 z m 97.1,-47.5 v -8 h 6.4 v 8 z m -336.6,0 v -8 h 6.4 v 8 z m 0,-48 v -8 h 6.4 v 8 z m 336.6,0 v -8 h 6.4 v 8 z m 0,-48 v -8 h 6.4 v 8 z m -336.6,0 v -8 h 6.4 v 8 z m 0,-48 v -8 h 6.4 v 8 z m 336.6,0 v -8 h 6.4 v 8 z m 0,-48 v -8 h 6.4 v 8 z m -336.6,0 v -8 h 6.4 v 8 z m 336.6,-48 v -8 h 6.4 v 8 z m -336.6,0 v -8 h 6.4 v 8 z m 143.5,-49.1 v -6.4 h 8 v 6.4 z m 48,0 v -6.4 h 8 v 6.4 z m 48,0 v -6.4 h 8 v 6.4 z m -144,0 v -6.4 h 8 v 6.4 z m 192,0 v -6.4 h 8 v 6.4 z m -240,0 v -6.4 h 8 v 6.4 z m -32,336.6 h 24 v 6.4 h 24 v -6.4 h 24 v 6.4 h 24 v -6.4 h 24 v 6.4 h 24 v -6.4 h 24 v 6.4 h 24 v -6.4 h 24 v 6.4 h 24 v -6.4 h 24 v 6.4 h 24 v -6.4 h 24 v 6.4 h 21.9 v -21.9 h -6.4 v -24 h 6.4 v -24 h -6.4 v -24 h 6.4 v -24 h -6.4 v -24 h 6.4 v -24 h -6.4 v -24 h 6.4 v -24 h -6.4 v -24 h 6.4 v -24 h -6.4 v -24 h 6.4 v -24 h -6.4 v -24 h 6.4 v -21.9 h -21.9 v 6.4 h -24 v -6.4 h -24 v 6.4 h -24 v -6.4 h -24 v 6.4 h -24 v -6.4 h -24 v 6.4 h -24 v -6.4 h -24 v 6.4 h -24 v -6.4 h -24 v 6.4 h -24 v -6.4 h -24 v 6.4 h -24 v -6.4 h -21.9 v 21.9 h 6.4 v 24 h -6.4 v 24 h 6.4 v 24 h -6.4 v 24 h 6.4 v 24 h -6.4 v 24 h 6.4 v 24 h -6.4 v 24 h 6.4 v 24 h -6.4 v 24 h 6.4 v 24 h -6.4 v 24 h 6.4 v 24 h -6.4 v 21.9 h 21.9 z"
     id="path835"
     inkscape:connector-curvature="0" />
  <path
     d="m 3098.777,604.96861 h 6.4 v 8 h -6.4 z m 0,48 h 6.4 v 8 h -6.4 z m 0,48 h 6.4 v 8 h -6.4 z m 0,48 h 6.4 v 8 h -6.4 z m 0,48 h 6.4 v 8 h -6.4 z m 0,48 h 6.4 v 8 h -6.4 z m 23.5,-287.5 h 8 v 6.4 h -8 z m 0,336.6 h 8 v 6.4 h -8 z m 16,6.4 h 24 v 6.4 h -24 z m 32,-6.4 h 8 v 6.4 h -8 z m 0,-336.6 h 8 v 6.4 h -8 z m 16,343 h 24 v 6.4 h -24 z m 32,-343 h 8 v 6.4 h -8 z m 0,336.6 h 8 v 6.4 h -8 z m 16,6.4 h 24 v 6.4 h -24 z m 32,-6.4 h 8 v 6.4 h -8 z m 0,-336.6 h 8 v 6.4 h -8 z m 16,343 h 24 v 6.4 h -24 z m 32,-6.4 h 8 v 6.4 h -8 z m 0,-336.6 h 8 v 6.4 h -8 z m 16,343 h 24 v 6.4 h -24 z m 32,-6.4 h 8 v 6.4 h -8 z m 0,-336.6 h 8 v 6.4 h -8 z m 16,343 h 24 v 6.4 h -24 z m 32,-343 h 8 v 6.4 h -8 z m 0,336.6 h 8 v 6.4 h -8 z m 25.1,-49.1 h 6.4 v 8 h -6.4 z m 0,-48 h 6.4 v 8 h -6.4 z m 0,-48 h 6.4 v 8 h -6.4 z m 0,-48 h 6.4 v 8 h -6.4 z m 0,-48 h 6.4 v 8 h -6.4 z m 0,-48 h 6.4 v 8 h -6.4 z m -336.6,-32 v 24 h -6.4 v 24 h 6.4 v 24 h -6.4 v 24 h 6.4 v 24 h -6.4 v 24 h 6.4 v 24 h -6.4 v 24 h 6.4 v 24 h -6.4 v 24 h 6.4 v 24 h -6.4 v 24 h 6.4 v 24 h -6.4 v 15.5 h 21.91 v 6.4 h -15.51 v 25.6 h 12.8 l 0.35,-3.32 1.034,-3.19 1.674,-2.9 2.239,-2.48 2.708,-1.97 3.058,-1.36 3.273,-0.7 h 288.727 l 3.274,0.7 3.058,1.36 2.708,1.97 2.239,2.48 1.674,2.9 1.034,3.19 0.35,3.32 h 12.8 v -25.6 h -15.51 v -6.4 h 21.91 v -15.5 h -6.4 v -24 h 6.4 v -24 h -6.4 v -24 h 6.4 v -24 h -6.4 v -24 h 6.4 v -24 h -6.4 v -24 h 6.4 v -24 h -6.4 v -24 h 6.4 v -24 h -6.4 v -24 h 6.4 v -24 h -6.4 v -24 h 6.4 v -15.5 h -21.91 v -6.4 h -23.99 v 6.4 h -24 v -6.4 h -24 v 6.4 h -24 v -6.4 h -24 v 6.4 h -24 v -6.4 h -24 v 6.4 h -24 v -6.4 h -24 v 6.4 h -24 v -6.4 h -24 v 6.4 h -24 v -6.4 h -23.99 v 6.4 h -21.91 v 15.5 z"
     id="path837"
     inkscape:connector-curvature="0" />
  <path
     d="m 3810.377,604.96861 h 6.4 v 8 h -6.4 z m 0,48 h 6.4 v 8 h -6.4 z m 0,48 h 6.4 v 8 h -6.4 z m 0,48 h 6.4 v 8 h -6.4 z m 0,96 h 6.4 v 8 h -6.4 z m 0,-48 h 6.4 v 8 h -6.4 z m 23.5,97.1 h 8 v 6.4 h -8 z m 0,-336.6 h 8 v 6.4 h -8 z m 16,343 h 24 v 6.4 h -24 z m 32,-6.4 h 8 v 6.4 h -8 z m 0,-336.6 h 8 v 6.4 h -8 z m 16,343 h 24 v 6.4 h -24 z m 32,-6.4 h 8 v 6.4 h -8 z m 0,-336.6 h 8 v 6.4 h -8 z m 16,343 h 24 v 6.4 h -24 z m 32,-343 h 8 v 6.4 h -8 z m 0,336.6 h 8 v 6.4 h -8 z m 16,6.4 h 24 v 6.4 h -24 z m 32,-6.4 h 8 v 6.4 h -8 z m 0,-336.6 h 8 v 6.4 h -8 z m 16,343 h 24 v 6.4 h -24 z m 32,-6.4 h 8 v 6.4 h -8 z m 0,-336.6 h 8 v 6.4 h -8 z m 16,343 h 24 v 6.4 h -24 z m 32,-6.4 h 8 v 6.4 h -8 z m 0,-336.6 h 8 v 6.4 h -8 z m 25.1,287.5 h 6.4 v 8 h -6.4 z m 0,-48 h 6.4 v 8 h -6.4 z m 0,-48 h 6.4 v 8 h -6.4 z m 0,-48 h 6.4 v 8 h -6.4 z m 0,-48 h 6.4 v 8 h -6.4 z m 0,-48 h 6.4 v 8 h -6.4 z m -336.6,-32 v 24 h -6.4 v 24 h 6.4 v 24 h -6.4 v 24 h 6.4 v 24 h -6.4 v 24 h 6.4 v 24 h -6.4 v 24 h 6.4 v 24 h -6.4 v 24 h 6.4 v 24 h -6.4 v 24 h 6.4 v 24 h -6.4 v 15.5 h 21.91 v 6.4 h -15.51 v 25.6 h 12.8 l 0.35,-3.32 1.034,-3.19 1.674,-2.9 2.239,-2.48 2.708,-1.97 3.058,-1.36 3.273,-0.7 h 288.727 l 3.274,0.7 3.058,1.36 2.708,1.97 2.239,2.48 1.674,2.9 1.034,3.19 0.35,3.32 h 12.8 v -25.6 h -15.51 v -6.4 h 21.91 v -15.5 h -6.4 v -24 h 6.4 v -24 h -6.4 v -24 h 6.4 v -24 h -6.4 v -24 h 6.4 v -24 h -6.4 v -24 h 6.4 v -24 h -6.4 v -24 h 6.4 v -24 h -6.4 v -24 h 6.4 v -24 h -6.4 v -24 h 6.4 v -15.5 h -21.91 v -6.4 h -23.99 v 6.4 h -24 v -6.4 h -24 v 6.4 h -24 v -6.4 h -24 v 6.4 h -24 v -6.4 h -24 v 6.4 h -24 v -6.4 h -24 v 6.4 h -24 v -6.4 h -24 v 6.4 h -24 v -6.4 h -23.99 v 6.4 h -21.91 v 15.5 z"
     id="path839"
     inkscape:connector-curvature="0" />
  <path
     id="path841"
     d="m 3454.577,588.96861 v 8 h 6.4 v 24 h -6.4 v 8 h -6.4 v 8 h 6.4 v 8 h 6.4 v 24 h -6.4 v 8 h -6.4 v 8 h 6.4 v 8 h 6.4 v 24 h -6.4 v 8 h -6.4 v 8 h 6.4 v 8 h 6.4 v 24 h -6.4 v 8 h -6.4 v 8 h 6.4 v 8 h 6.4 v 24 h -6.4 v 8 h -6.4 v 8 h 6.4 v 8 h 6.4 v 24 h -6.4 v 8 h -6.4 v 8 h 6.4 v 17.1 h 39.5 v 6.4 h 8 v 6.4 h 8 v -6.4 h 8 v -6.4 h 24 v 6.4 h 8 v 6.4 h 8 v -6.4 h 8 v -6.4 h 24 v 6.4 h 8 v 6.4 h 8 v -6.4 h 8 v -6.4 h 24 v 6.4 h 8 v 6.4 h 8 v -6.4 h 8 v -6.4 h 24 v 6.4 h 8 v 6.4 h 8 v -6.4 h 8 v -6.4 h 24 v 6.4 h 8 v 6.4 h 8 v -6.4 h 8 v -6.4 h 39.5 v -17.1 h 6.4 v -8 h -6.4 v -8 h -6.4 v -24 h 6.4 v -8 h 6.4 v -8 h -6.4 v -8 h -6.4 v -24 h 6.4 v -8 h 6.4 v -8 h -6.4 v -8 h -6.4 v -24 h 6.4 v -8 h 6.4 v -8 h -6.4 v -8 h -6.4 v -24 h 6.4 v -8 h 6.4 v -8 h -6.4 v -8 h -6.4 v -24 h 6.4 v -8 h 6.4 v -8 h -6.4 v -8 h -6.4 v -24 h 6.4 v -8 h 6.4 v -8 h -6.4 v -17.1 h -39.5 v -6.4 h -8 v -6.4 h -8 v 6.4 h -8 v 6.4 h -24 v -6.4 h -8 v -6.4 h -8 v 6.4 h -8 v 6.4 h -24 v -6.4 h -8 v -6.4 h -8 v 6.4 h -8 v 6.4 h -24 v -6.4 h -8 v -6.4 h -8 v 6.4 h -8 v 6.4 h -24 v -6.4 h -8 v -6.4 h -8 v 6.4 h -8 v 6.4 h -24 v -6.4 h -8 v -6.4 h -8 v 6.4 h -8 v 6.4 h -39.5 v 17.1 h -6.4 v 8 z"
     inkscape:connector-curvature="0" />
  <path
     id="path843"
     d="m 3486.077,-1068.1324 h 8 v -6.4 h 24 v 6.4 h 8 v 6.4 h 8 v -6.4 h 8 v -6.4 h 24 v 6.4 h 8 v 6.4 h 8 v -6.4 h 8 v -6.4 h 24 v 6.4 h 8 v 6.4 h 8 v -6.4 h 8 v -6.4 h 24 v 6.4 h 8 v 6.4 h 8 v -6.4 h 8 v -6.4 h 24 v 6.4 h 8 v 6.4 h 8 v -6.4 h 8 v -6.4 h 24 v 6.4 h 8 v 6.4 h 8 v -6.4 h 23.5 v -23.5 h 6.4 v -8 h -6.4 v -8 h -6.4 v -24 h 6.4 v -8 h 6.4 v -8 h -6.4 v -8 h -6.4 v -24 h 6.4 v -8 h 6.4 v -8 h -6.4 v -8 h -6.4 v -24 h 6.4 v -8 h 6.4 v -8 h -6.4 v -8 h -6.4 v -24 h 6.4 v -8 h 6.4 v -8 h -6.4 v -8 h -6.4 v -24 h 6.4 v -8 h 6.4 v -8 h -6.4 v -8 h -6.4 v -24 h 6.4 v -8 h 6.4 v -8 h -6.4 v -23.5 h -23.5 v -6.4 h -8 v 6.4 h -8 v 6.4 h -24 v -6.4 h -8 v -6.4 h -8 v 6.4 h -8 v 6.4 h -24 v -6.4 h -8 v -6.4 h -8 v 6.4 h -8 v 6.4 h -24 v -6.4 h -8 v -6.4 h -8 v 6.4 h -8 v 6.4 h -24 v -6.4 h -8 v -6.4 h -8 v 6.4 h -8 v 6.4 h -24 v -6.4 h -8 v -6.4 h -8 v 6.4 h -8 v 6.4 h -24 v -6.4 h -8 v -6.4 h -8 v 6.4 h -23.5 v 23.5 h -6.4 v 8 h 6.4 v 8 h 6.4 v 24 h -6.4 v 8 h -6.4 v 8 h 6.4 v 8 h 6.4 v 24 h -6.4 v 8 h -6.4 v 8 h 6.4 v 8 h 6.4 v 24 h -6.4 v 8 h -6.4 v 8 h 6.4 v 8 h 6.4 v 24 h -6.4 v 8 h -6.4 v 8 h 6.4 v 8 h 6.4 v 24 h -6.4 v 8 h -6.4 v 8 h 6.4 v 8 h 6.4 v 24 h -6.4 v 8 h -6.4 v 8 h 6.4 v 23.5 h 23.5 v 6.4 h 8 z"
     inkscape:connector-curvature="0" />
  <path
     id="path845"
     d="m 3486.077,226.90308 h 8 v -6.4 h 24 v 6.4 h 8 v 6.4 h 8 v -6.4 h 8 v -6.4 h 24 v 6.4 h 8 v 6.4 h 8 v -6.4 h 8 v -6.4 h 24 v 6.4 h 8 v 6.4 h 8 v -6.4 h 8 v -6.4 h 24 v 6.4 h 8 v 6.4 h 8 v -6.4 h 8 v -6.4 h 24 v 6.4 h 8 v 6.4 h 8 v -6.4 h 8 v -6.4 h 24 v 6.4 h 8 v 6.4 h 8 v -6.4 h 17.1 v -39.5 h 6.4 v -8 h 6.4 v -8 h -6.4 v -8 h -6.4 v -24 h 6.4 v -8 h 6.4 v -8 h -6.4 v -8 h -6.4 v -24 h 6.4 v -8 h 6.4 v -8 h -6.4 v -8 h -6.4 v -24 h 6.4 v -8 h 6.4 v -8 h -6.4 v -8 h -6.4 v -24 h 6.4 v -8 h 6.4 v -8 h -6.4 v -8 h -6.4 v -24 h 6.4 v -8 h 6.4 v -8 h -6.4 v -8 h -6.4 v -39.5 h -17.1 v -6.4 h -8 v 6.4 h -8 v 6.4 h -24 v -6.4 h -8 v -6.4 h -8 v 6.4 h -8 v 6.4 h -24 v -6.4 h -8 v -6.4 h -8 v 6.4 h -8 v 6.4 h -24 v -6.4 h -8 v -6.4 h -8 v 6.4 h -8 v 6.4 h -24 v -6.4 h -8 v -6.4 h -8 v 6.4 h -8 v 6.4 h -24 v -6.4 h -8 v -6.4 h -8 v 6.4 h -8 v 6.4 h -24 v -6.4 h -8 v -6.4 h -8 v 6.4 h -17.1 v 39.5 h -6.4 v 8 h -6.4 v 8 h 6.4 v 8 h 6.4 v 24 h -6.4 v 8 h -6.4 v 8 h 6.4 v 8 h 6.4 v 24 h -6.4 v 8 h -6.4 v 8 h 6.4 v 8 h 6.4 v 24 h -6.4 v 8 h -6.4 v 8 h 6.4 v 8 h 6.4 v 24 h -6.4 v 8 h -6.4 v 8 h 6.4 v 8 h 6.4 v 24 h -6.4 v 8 h -6.4 v 8 h 6.4 v 8 h 6.4 v 39.5 h 17.1 v 6.4 h 8 z"
     inkscape:connector-curvature="0" />
  <path
     id="path847"
     d="m 3865.877,-433.08874 h 8 v -6.4 h 24 v 6.4 h 8 v 6.4 h 8 v -6.4 h 8 v -6.4 h 24 v 6.4 h 8 v 6.4 h 8 v -6.4 h 8 v -6.4 h 24 v 6.4 h 8 v 6.4 h 8 v -6.4 h 8 v -6.4 h 24 v 6.4 h 8 v 6.4 h 8 v -6.4 h 8 v -6.4 h 24 v 6.4 h 8 v 6.4 h 8 v -6.4 h 8 v -6.4 h 33.1 v -33.1 h 6.4 v -8 h 6.4 v -8 h -6.4 v -8 h -6.4 v -24 h 6.4 v -8 h 6.4 v -8 h -6.4 v -8 h -6.4 v -24 h 6.4 v -8 h 6.4 v -8 h -6.4 v -8 h -6.4 v -24 h 6.4 v -8 h 6.4 v -8 h -6.4 v -8 h -6.4 v -24 h 6.4 v -8 h 6.4 v -8 h -6.4 v -8 h -6.4 v -24 h 6.4 v -8 h 6.4 v -8 h -6.4 v -8 h -6.4 v -33.1 h -33.1 v -6.4 h -8 v -6.4 h -8 v 6.4 h -8 v 6.4 h -24 v -6.4 h -8 v -6.4 h -8 v 6.4 h -8 v 6.4 h -24 v -6.4 h -8 v -6.4 h -8 v 6.4 h -8 v 6.4 h -24 v -6.4 h -8 v -6.4 h -8 v 6.4 h -8 v 6.4 h -24 v -6.4 h -8 v -6.4 h -8 v 6.4 h -8 v 6.4 h -24 v -6.4 h -8 v -6.4 h -8 v 6.4 h -8 v 6.4 h -33.1 v 33.1 h -6.4 v 8 h -6.4 v 8 h 6.4 v 8 h 6.4 v 24 h -6.4 v 8 h -6.4 v 8 h 6.4 v 8 h 6.4 v 24 h -6.4 v 8 h -6.4 v 8 h 6.4 v 8 h 6.4 v 24 h -6.4 v 8 h -6.4 v 8 h 6.4 v 8 h 6.4 v 24 h -6.4 v 8 h -6.4 v 8 h 6.4 v 8 h 6.4 v 24 h -6.4 v 8 h -6.4 v 8 h 6.4 v 8 h 6.4 v 33.1 h 33.1 v 6.4 h 8 v 6.4 h 8 z"
     inkscape:connector-curvature="0" />
  <path
     id="path849"
     d="m 3865.877,-1068.1324 h 8 v -6.4 h 24 v 6.4 h 8 v 6.4 h 8 v -6.4 h 8 v -6.4 h 24 v 6.4 h 8 v 6.4 h 8 v -6.4 h 8 v -6.4 h 24 v 6.4 h 8 v 6.4 h 8 v -6.4 h 8 v -6.4 h 24 v 6.4 h 8 v 6.4 h 8 v -6.4 h 8 v -6.4 h 24 v 6.4 h 8 v 6.4 h 8 v -6.4 h 8 v -6.4 h 33.1 v -33.1 h 6.4 v -8 h 6.4 v -8 h -6.4 v -8 h -6.4 v -24 h 6.4 v -8 h 6.4 v -8 h -6.4 v -8 h -6.4 v -24 h 6.4 v -8 h 6.4 v -8 h -6.4 v -8 h -6.4 v -24 h 6.4 v -8 h 6.4 v -8 h -6.4 v -8 h -6.4 v -24 h 6.4 v -8 h 6.4 v -8 h -6.4 v -8 h -6.4 v -24 h 6.4 v -8 h 6.4 v -8 h -6.4 v -8 h -6.4 v -33.1 h -33.1 v -6.4 h -8 v -6.4 h -8 v 6.4 h -8 v 6.4 h -24 v -6.4 h -8 v -6.4 h -8 v 6.4 h -8 v 6.4 h -24 v -6.4 h -8 v -6.4 h -8 v 6.4 h -8 v 6.4 h -24 v -6.4 h -8 v -6.4 h -8 v 6.4 h -8 v 6.4 h -24 v -6.4 h -8 v -6.4 h -8 v 6.4 h -8 v 6.4 h -24 v -6.4 h -8 v -6.4 h -8 v 6.4 h -8 v 6.4 h -33.1 v 33.1 h -6.4 v 8 h -6.4 v 8 h 6.4 v 8 h 6.4 v 24 h -6.4 v 8 h -6.4 v 8 h 6.4 v 8 h 6.4 v 24 h -6.4 v 8 h -6.4 v 8 h 6.4 v 8 h 6.4 v 24 h -6.4 v 8 h -6.4 v 8 h 6.4 v 8 h 6.4 v 24 h -6.4 v 8 h -6.4 v 8 h 6.4 v 8 h 6.4 v 24 h -6.4 v 8 h -6.4 v 8 h 6.4 v 8 h 6.4 v 33.1 h 33.1 v 6.4 h 8 v 6.4 h 8 z"
     inkscape:connector-curvature="0" />
  <path
     id="path851"
     d="m 3486.077,-433.08874 h 8 v -6.4 h 24 v 6.4 h 8 v 6.4 h 8 v -6.4 h 8 v -6.4 h 24 v 6.4 h 8 v 6.4 h 8 v -6.4 h 8 v -6.4 h 24 v 6.4 h 8 v 6.4 h 8 v -6.4 h 8 v -6.4 h 24 v 6.4 h 8 v 6.4 h 8 v -6.4 h 8 v -6.4 h 24 v 6.4 h 8 v 6.4 h 8 v -6.4 h 8 v -6.4 h 24 v 6.4 h 8 v 6.4 h 8 v -6.4 h 23.5 v -23.5 h 6.4 v -8 h -6.4 v -8 h -6.4 v -24 h 6.4 v -8 h 6.4 v -8 h -6.4 v -8 h -6.4 v -24 h 6.4 v -8 h 6.4 v -8 h -6.4 v -8 h -6.4 v -24 h 6.4 v -8 h 6.4 v -8 h -6.4 v -8 h -6.4 v -24 h 6.4 v -8 h 6.4 v -8 h -6.4 v -8 h -6.4 v -24 h 6.4 v -8 h 6.4 v -8 h -6.4 v -8 h -6.4 v -24 h 6.4 v -8 h 6.4 v -8 h -6.4 v -23.5 h -23.5 v -6.4 h -8 v 6.4 h -8 v 6.4 h -24 v -6.4 h -8 v -6.4 h -8 v 6.4 h -8 v 6.4 h -24 v -6.4 h -8 v -6.4 h -8 v 6.4 h -8 v 6.4 h -24 v -6.4 h -8 v -6.4 h -8 v 6.4 h -8 v 6.4 h -24 v -6.4 h -8 v -6.4 h -8 v 6.4 h -8 v 6.4 h -24 v -6.4 h -8 v -6.4 h -8 v 6.4 h -8 v 6.4 h -24 v -6.4 h -8 v -6.4 h -8 v 6.4 h -23.5 v 23.5 h -6.4 v 8 h 6.4 v 8 h 6.4 v 24 h -6.4 v 8 h -6.4 v 8 h 6.4 v 8 h 6.4 v 24 h -6.4 v 8 h -6.4 v 8 h 6.4 v 8 h 6.4 v 24 h -6.4 v 8 h -6.4 v 8 h 6.4 v 8 h 6.4 v 24 h -6.4 v 8 h -6.4 v 8 h 6.4 v 8 h 6.4 v 24 h -6.4 v 8 h -6.4 v 8 h 6.4 v 8 h 6.4 v 24 h -6.4 v 8 h -6.4 v 8 h 6.4 v 23.5 h 23.5 v 6.4 h 8 z"
     inkscape:connector-curvature="0" />
</svg>
