<?xml version="1.0" standalone="no"?>
<!DOCTYPE svg PUBLIC "-//W3C//DTD SVG 1.1//EN" "http://www.w3.org/Graphics/SVG/1.1/DTD/svg11.dtd">
<svg width="1584mm" height="626mm" viewBox="-96 -555 1584 626" xmlns="http://www.w3.org/2000/svg" version="1.1">
<title>OpenSCAD Model</title>
<path d="
M 82.5,-554.8 L -82.5,-554.8 L -82.5,-438.5 L 82.5,-438.5 z
M -79.5,-441.5 L -79.5,-551.8 L 79.5,-551.8 L 79.5,-441.5 z
M 496.05,-155.099 L 497.084,-158.282 L 498.758,-161.18 L 500.997,-163.668 L 503.705,-165.635 L 506.763,-166.996
 L 510.036,-167.692 L 633.563,-167.692 L 636.837,-166.996 L 639.895,-165.635 L 642.603,-163.668 L 644.842,-161.18
 L 646.516,-158.282 L 647.55,-155.099 L 647.9,-151.77 L 667.1,-151.77 L 667.1,-177.365 L 660.7,-177.365
 L 660.7,-177.375 L 652.79,-177.375 L 652.79,-183.775 L 660.7,-183.775 L 660.7,-203.335 L 667.1,-203.335
 L 667.1,-221.325 L 660.7,-221.325 L 660.7,-239.325 L 667.1,-239.325 L 667.1,-257.325 L 660.7,-257.325
 L 660.7,-275.325 L 667.1,-275.325 L 667.1,-293.315 L 660.7,-293.315 L 660.7,-312.875 L 652.79,-312.875
 L 652.79,-319.275 L 634.8,-319.275 L 634.8,-312.875 L 616.8,-312.875 L 616.8,-319.275 L 598.8,-319.275
 L 598.8,-312.875 L 580.8,-312.875 L 580.8,-319.275 L 562.8,-319.275 L 562.8,-312.875 L 544.8,-312.875
 L 544.8,-319.275 L 526.8,-319.275 L 526.8,-312.875 L 508.8,-312.875 L 508.8,-319.275 L 490.81,-319.275
 L 490.81,-312.875 L 482.9,-312.875 L 482.9,-293.315 L 476.5,-293.315 L 476.5,-275.325 L 482.9,-275.325
 L 482.9,-257.325 L 476.5,-257.325 L 476.5,-239.325 L 482.9,-239.325 L 482.9,-221.325 L 476.5,-221.325
 L 476.5,-203.335 L 482.9,-203.335 L 482.9,-183.775 L 490.81,-183.775 L 490.81,-177.375 L 482.9,-177.375
 L 482.9,-177.365 L 476.5,-177.365 L 476.5,-151.77 L 495.7,-151.77 z
M 640.8,-306.475 L 640.8,-312.875 L 646.8,-312.875 L 646.8,-306.475 z
M 604.8,-306.475 L 604.8,-312.875 L 610.8,-312.875 L 610.8,-306.475 z
M 568.8,-306.475 L 568.8,-312.875 L 574.8,-312.875 L 574.8,-306.475 z
M 532.8,-306.475 L 532.8,-312.875 L 538.8,-312.875 L 538.8,-306.475 z
M 496.8,-306.475 L 496.8,-312.875 L 502.8,-312.875 L 502.8,-306.475 z
M 654.3,-281.325 L 654.3,-287.325 L 660.7,-287.325 L 660.7,-281.325 z
M 482.9,-281.325 L 482.9,-287.325 L 489.3,-287.325 L 489.3,-281.325 z
M 482.9,-245.325 L 482.9,-251.325 L 489.3,-251.325 L 489.3,-245.325 z
M 654.3,-245.325 L 654.3,-251.325 L 660.7,-251.325 L 660.7,-245.325 z
M 482.9,-209.325 L 482.9,-215.325 L 489.3,-215.325 L 489.3,-209.325 z
M 654.3,-209.325 L 654.3,-215.325 L 660.7,-215.325 L 660.7,-209.325 z
M 640.8,-183.775 L 640.8,-190.175 L 646.8,-190.175 L 646.8,-183.775 z
M 604.8,-183.775 L 604.8,-190.175 L 610.8,-190.175 L 610.8,-183.775 z
M 496.8,-183.775 L 496.8,-190.175 L 502.8,-190.175 L 502.8,-183.775 z
M 532.8,-183.775 L 532.8,-190.175 L 538.8,-190.175 L 538.8,-183.775 z
M 568.8,-183.775 L 568.8,-190.175 L 574.8,-190.175 L 574.8,-183.775 z
M 508.8,-177.375 L 508.8,-183.775 L 526.8,-183.775 L 526.8,-177.375 z
M 544.8,-177.375 L 544.8,-183.775 L 562.8,-183.775 L 562.8,-177.375 z
M 580.8,-177.375 L 580.8,-183.775 L 598.8,-183.775 L 598.8,-177.375 z
M 616.8,-177.375 L 616.8,-183.775 L 634.8,-183.775 L 634.8,-177.375 z
M -81,-183.775 L -63,-183.775 L -63,-177.375 L -45,-177.375 L -45,-183.775 L -27,-183.775
 L -27,-177.375 L -9,-177.375 L -9,-183.775 L 9,-183.775 L 9,-177.375 L 27,-177.375
 L 27,-183.775 L 45,-183.775 L 45,-177.375 L 63,-177.375 L 63,-183.775 L 81,-183.775
 L 81,-177.375 L 95.3,-177.375 L 95.3,-203.325 L 88.9,-203.325 L 88.9,-221.325 L 95.3,-221.325
 L 95.3,-239.325 L 88.9,-239.325 L 88.9,-257.325 L 95.3,-257.325 L 95.3,-275.325 L 88.9,-275.325
 L 88.9,-293.325 L 95.3,-293.325 L 95.3,-319.275 L 81,-319.275 L 81,-312.875 L 63,-312.875
 L 63,-319.275 L 45,-319.275 L 45,-312.875 L 27,-312.875 L 27,-319.275 L 9,-319.275
 L 9,-312.875 L -9,-312.875 L -9,-319.275 L -27,-319.275 L -27,-312.875 L -45,-312.875
 L -45,-319.275 L -63,-319.275 L -63,-312.875 L -81,-312.875 L -81,-319.275 L -95.3,-319.275
 L -95.3,-293.325 L -88.9,-293.325 L -88.9,-275.325 L -95.3,-275.325 L -95.3,-257.325 L -88.9,-257.325
 L -88.9,-239.325 L -95.3,-239.325 L -95.3,-221.325 L -88.9,-221.325 L -88.9,-203.325 L -95.3,-203.325
 L -95.3,-177.375 L -81,-177.375 z
M -21,-306.475 L -21,-312.875 L -15,-312.875 L -15,-306.475 z
M 15,-306.475 L 15,-312.875 L 21,-312.875 L 21,-306.475 z
M -57,-306.475 L -57,-312.875 L -51,-312.875 L -51,-306.475 z
M 51,-306.475 L 51,-312.875 L 57,-312.875 L 57,-306.475 z
M 82.5,-263.325 L 82.5,-269.325 L 88.9,-269.325 L 88.9,-263.325 z
M -88.9,-263.325 L -88.9,-269.325 L -82.5,-269.325 L -82.5,-263.325 z
M 82.5,-227.325 L 82.5,-233.325 L 88.9,-233.325 L 88.9,-227.325 z
M -88.9,-227.325 L -88.9,-233.325 L -82.5,-233.325 L -82.5,-227.325 z
M -57,-183.775 L -57,-190.175 L -51,-190.175 L -51,-183.775 z
M -21,-183.775 L -21,-190.175 L -15,-190.175 L -15,-183.775 z
M 15,-183.775 L 15,-190.175 L 21,-190.175 L 21,-183.775 z
M 51,-183.775 L 51,-190.175 L 57,-190.175 L 57,-183.775 z
M 204.9,-183.775 L 222.9,-183.775 L 222.9,-177.375 L 240.9,-177.375 L 240.9,-183.775 L 258.9,-183.775
 L 258.9,-177.375 L 276.9,-177.375 L 276.9,-183.775 L 294.9,-183.775 L 294.9,-177.375 L 312.9,-177.375
 L 312.9,-183.775 L 330.9,-183.775 L 330.9,-177.375 L 348.9,-177.375 L 348.9,-183.775 L 366.9,-183.775
 L 366.9,-177.375 L 381.2,-177.375 L 381.2,-203.325 L 374.8,-203.325 L 374.8,-221.325 L 381.2,-221.325
 L 381.2,-239.325 L 374.8,-239.325 L 374.8,-257.325 L 381.2,-257.325 L 381.2,-275.325 L 374.8,-275.325
 L 374.8,-293.325 L 381.2,-293.325 L 381.2,-319.275 L 366.9,-319.275 L 366.9,-312.875 L 348.9,-312.875
 L 348.9,-319.275 L 330.9,-319.275 L 330.9,-312.875 L 312.9,-312.875 L 312.9,-319.275 L 294.9,-319.275
 L 294.9,-312.875 L 276.9,-312.875 L 276.9,-319.275 L 258.9,-319.275 L 258.9,-312.875 L 240.9,-312.875
 L 240.9,-319.275 L 222.9,-319.275 L 222.9,-312.875 L 204.9,-312.875 L 204.9,-319.275 L 190.6,-319.275
 L 190.6,-293.325 L 197,-293.325 L 197,-275.325 L 190.6,-275.325 L 190.6,-257.325 L 197,-257.325
 L 197,-239.325 L 190.6,-239.325 L 190.6,-221.325 L 197,-221.325 L 197,-203.325 L 190.6,-203.325
 L 190.6,-177.375 L 204.9,-177.375 z
M 228.9,-306.475 L 228.9,-312.875 L 234.9,-312.875 L 234.9,-306.475 z
M 264.9,-306.475 L 264.9,-312.875 L 270.9,-312.875 L 270.9,-306.475 z
M 300.9,-306.475 L 300.9,-312.875 L 306.9,-312.875 L 306.9,-306.475 z
M 336.9,-306.475 L 336.9,-312.875 L 342.9,-312.875 L 342.9,-306.475 z
M 368.4,-263.325 L 368.4,-269.325 L 374.8,-269.325 L 374.8,-263.325 z
M 197,-263.325 L 197,-269.325 L 203.4,-269.325 L 203.4,-263.325 z
M 197,-227.325 L 197,-233.325 L 203.4,-233.325 L 203.4,-227.325 z
M 368.4,-227.325 L 368.4,-233.325 L 374.8,-233.325 L 374.8,-227.325 z
M 228.9,-183.775 L 228.9,-190.175 L 234.9,-190.175 L 234.9,-183.775 z
M 264.9,-183.775 L 264.9,-190.175 L 270.9,-190.175 L 270.9,-183.775 z
M 300.9,-183.775 L 300.9,-190.175 L 306.9,-190.175 L 306.9,-183.775 z
M 336.9,-183.775 L 336.9,-190.175 L 342.9,-190.175 L 342.9,-183.775 z
M 781.95,-155.099 L 782.984,-158.282 L 784.658,-161.18 L 786.897,-163.668 L 789.605,-165.635 L 792.663,-166.996
 L 795.936,-167.692 L 919.463,-167.692 L 922.737,-166.996 L 925.795,-165.635 L 928.503,-163.668 L 930.742,-161.18
 L 932.416,-158.282 L 933.45,-155.099 L 933.8,-151.77 L 953,-151.77 L 953,-177.365 L 946.6,-177.365
 L 946.6,-177.375 L 938.69,-177.375 L 938.69,-183.775 L 946.6,-183.775 L 946.6,-203.335 L 953,-203.335
 L 953,-221.325 L 946.6,-221.325 L 946.6,-239.325 L 953,-239.325 L 953,-257.325 L 946.6,-257.325
 L 946.6,-275.325 L 953,-275.325 L 953,-293.315 L 946.6,-293.315 L 946.6,-312.875 L 938.69,-312.875
 L 938.69,-319.275 L 920.7,-319.275 L 920.7,-312.875 L 902.7,-312.875 L 902.7,-319.275 L 884.7,-319.275
 L 884.7,-312.875 L 866.7,-312.875 L 866.7,-319.275 L 848.7,-319.275 L 848.7,-312.875 L 830.7,-312.875
 L 830.7,-319.275 L 812.7,-319.275 L 812.7,-312.875 L 794.7,-312.875 L 794.7,-319.275 L 776.71,-319.275
 L 776.71,-312.875 L 768.8,-312.875 L 768.8,-293.315 L 762.4,-293.315 L 762.4,-275.325 L 768.8,-275.325
 L 768.8,-257.325 L 762.4,-257.325 L 762.4,-239.325 L 768.8,-239.325 L 768.8,-221.325 L 762.4,-221.325
 L 762.4,-203.335 L 768.8,-203.335 L 768.8,-183.775 L 776.71,-183.775 L 776.71,-177.375 L 768.8,-177.375
 L 768.8,-177.365 L 762.4,-177.365 L 762.4,-151.77 L 781.6,-151.77 z
M 782.7,-306.475 L 782.7,-312.875 L 788.7,-312.875 L 788.7,-306.475 z
M 818.7,-306.475 L 818.7,-312.875 L 824.7,-312.875 L 824.7,-306.475 z
M 854.7,-306.475 L 854.7,-312.875 L 860.7,-312.875 L 860.7,-306.475 z
M 890.7,-306.475 L 890.7,-312.875 L 896.7,-312.875 L 896.7,-306.475 z
M 926.7,-306.475 L 926.7,-312.875 L 932.7,-312.875 L 932.7,-306.475 z
M 940.2,-281.325 L 940.2,-287.325 L 946.6,-287.325 L 946.6,-281.325 z
M 768.8,-281.325 L 768.8,-287.325 L 775.2,-287.325 L 775.2,-281.325 z
M 940.2,-245.325 L 940.2,-251.325 L 946.6,-251.325 L 946.6,-245.325 z
M 768.8,-245.325 L 768.8,-251.325 L 775.2,-251.325 L 775.2,-245.325 z
M 768.8,-209.325 L 768.8,-215.325 L 775.2,-215.325 L 775.2,-209.325 z
M 940.2,-209.325 L 940.2,-215.325 L 946.6,-215.325 L 946.6,-209.325 z
M 926.7,-183.775 L 926.7,-190.175 L 932.7,-190.175 L 932.7,-183.775 z
M 890.7,-183.775 L 890.7,-190.175 L 896.7,-190.175 L 896.7,-183.775 z
M 854.7,-183.775 L 854.7,-190.175 L 860.7,-190.175 L 860.7,-183.775 z
M 818.7,-183.775 L 818.7,-190.175 L 824.7,-190.175 L 824.7,-183.775 z
M 782.7,-183.775 L 782.7,-190.175 L 788.7,-190.175 L 788.7,-183.775 z
M 866.7,-177.375 L 866.7,-183.775 L 884.7,-183.775 L 884.7,-177.375 z
M 902.7,-177.375 L 902.7,-183.775 L 920.7,-183.775 L 920.7,-177.375 z
M 830.7,-177.375 L 830.7,-183.775 L 848.7,-183.775 L 848.7,-177.375 z
M 794.7,-177.375 L 794.7,-183.775 L 812.7,-183.775 L 812.7,-177.375 z
M 1098.6,-183.775 L 1116.6,-183.775 L 1116.6,-177.375 L 1134.6,-177.375 L 1134.6,-183.775 L 1152.6,-183.775
 L 1152.6,-177.375 L 1170.6,-177.375 L 1170.6,-183.775 L 1188.6,-183.775 L 1188.6,-177.375 L 1208.15,-177.375
 L 1208.15,-203.335 L 1214.55,-203.335 L 1214.55,-183.775 L 1240.15,-183.775 L 1240.15,-196.575 L 1236.83,-196.925
 L 1233.64,-197.959 L 1230.74,-199.633 L 1228.26,-201.872 L 1226.29,-204.58 L 1224.93,-207.638 L 1224.23,-210.911
 L 1224.23,-285.738 L 1224.93,-289.012 L 1226.29,-292.07 L 1228.26,-294.778 L 1230.74,-297.017 L 1233.64,-298.691
 L 1236.83,-299.725 L 1240.15,-300.075 L 1240.15,-312.875 L 1214.55,-312.875 L 1214.55,-293.315 L 1208.15,-293.315
 L 1208.15,-319.275 L 1188.6,-319.275 L 1188.6,-312.875 L 1170.6,-312.875 L 1170.6,-319.275 L 1152.6,-319.275
 L 1152.6,-312.875 L 1134.6,-312.875 L 1134.6,-319.275 L 1116.6,-319.275 L 1116.6,-312.875 L 1098.6,-312.875
 L 1098.6,-319.275 L 1079.05,-319.275 L 1079.05,-293.315 L 1072.65,-293.315 L 1072.65,-275.325 L 1079.05,-275.325
 L 1079.05,-257.325 L 1072.65,-257.325 L 1072.65,-239.325 L 1079.05,-239.325 L 1079.05,-221.325 L 1072.65,-221.325
 L 1072.65,-203.335 L 1079.05,-203.335 L 1079.05,-177.375 L 1098.6,-177.375 z
M 1158.6,-306.475 L 1158.6,-312.875 L 1164.6,-312.875 L 1164.6,-306.475 z
M 1122.6,-306.475 L 1122.6,-312.875 L 1128.6,-312.875 L 1128.6,-306.475 z
M 1079.05,-281.325 L 1079.05,-287.325 L 1085.45,-287.325 L 1085.45,-281.325 z
M 1201.75,-281.325 L 1201.75,-287.325 L 1208.15,-287.325 L 1208.15,-281.325 z
M 1208.15,-257.325 L 1208.15,-275.325 L 1214.55,-275.325 L 1214.55,-257.325 z
M 1079.05,-245.325 L 1079.05,-251.325 L 1085.45,-251.325 L 1085.45,-245.325 z
M 1201.75,-245.325 L 1201.75,-251.325 L 1208.15,-251.325 L 1208.15,-245.325 z
M 1208.15,-221.325 L 1208.15,-239.325 L 1214.55,-239.325 L 1214.55,-221.325 z
M 1079.05,-209.325 L 1079.05,-215.325 L 1085.45,-215.325 L 1085.45,-209.325 z
M 1201.75,-209.325 L 1201.75,-215.325 L 1208.15,-215.325 L 1208.15,-209.325 z
M 1122.6,-183.775 L 1122.6,-190.175 L 1128.6,-190.175 L 1128.6,-183.775 z
M 1158.6,-183.775 L 1158.6,-190.175 L 1164.6,-190.175 L 1164.6,-183.775 z
M 1346.38,-183.775 L 1364.38,-183.775 L 1364.38,-177.375 L 1382.38,-177.375 L 1382.38,-183.775 L 1400.38,-183.775
 L 1400.38,-177.375 L 1418.38,-177.375 L 1418.38,-183.775 L 1436.38,-183.775 L 1436.38,-177.375 L 1455.93,-177.375
 L 1455.93,-203.335 L 1462.33,-203.335 L 1462.33,-183.775 L 1487.93,-183.775 L 1487.93,-196.575 L 1484.61,-196.925
 L 1481.42,-197.959 L 1478.52,-199.633 L 1476.04,-201.872 L 1474.07,-204.58 L 1472.71,-207.638 L 1472.01,-210.911
 L 1472.01,-285.738 L 1472.71,-289.012 L 1474.07,-292.07 L 1476.04,-294.778 L 1478.52,-297.017 L 1481.42,-298.691
 L 1484.61,-299.725 L 1487.93,-300.075 L 1487.93,-312.875 L 1462.33,-312.875 L 1462.33,-293.315 L 1455.93,-293.315
 L 1455.93,-319.275 L 1436.38,-319.275 L 1436.38,-312.875 L 1418.38,-312.875 L 1418.38,-319.275 L 1400.38,-319.275
 L 1400.38,-312.875 L 1382.38,-312.875 L 1382.38,-319.275 L 1364.38,-319.275 L 1364.38,-312.875 L 1346.38,-312.875
 L 1346.38,-319.275 L 1326.83,-319.275 L 1326.83,-293.315 L 1320.43,-293.315 L 1320.43,-275.325 L 1326.83,-275.325
 L 1326.83,-257.325 L 1320.43,-257.325 L 1320.43,-239.325 L 1326.83,-239.325 L 1326.83,-221.325 L 1320.43,-221.325
 L 1320.43,-203.335 L 1326.83,-203.335 L 1326.83,-177.375 L 1346.38,-177.375 z
M 1370.38,-306.475 L 1370.38,-312.875 L 1376.38,-312.875 L 1376.38,-306.475 z
M 1406.38,-306.475 L 1406.38,-312.875 L 1412.38,-312.875 L 1412.38,-306.475 z
M 1326.83,-281.325 L 1326.83,-287.325 L 1333.23,-287.325 L 1333.23,-281.325 z
M 1449.53,-281.325 L 1449.53,-287.325 L 1455.93,-287.325 L 1455.93,-281.325 z
M 1455.93,-257.325 L 1455.93,-275.325 L 1462.33,-275.325 L 1462.33,-257.325 z
M 1326.83,-245.325 L 1326.83,-251.325 L 1333.23,-251.325 L 1333.23,-245.325 z
M 1449.53,-245.325 L 1449.53,-251.325 L 1455.93,-251.325 L 1455.93,-245.325 z
M 1455.93,-221.325 L 1455.93,-239.325 L 1462.33,-239.325 L 1462.33,-221.325 z
M 1326.83,-209.325 L 1326.83,-215.325 L 1333.23,-215.325 L 1333.23,-209.325 z
M 1449.53,-209.325 L 1449.53,-215.325 L 1455.93,-215.325 L 1455.93,-209.325 z
M 1406.38,-183.775 L 1406.38,-190.175 L 1412.38,-190.175 L 1412.38,-183.775 z
M 1370.38,-183.775 L 1370.38,-190.175 L 1376.38,-190.175 L 1376.38,-183.775 z
M -69,64.55 L -63,64.55 L -63,58.15 L -45,58.15 L -45,64.55 L -39,64.55
 L -39,70.95 L -33,70.95 L -33,64.55 L -27,64.55 L -27,58.15 L -9,58.15
 L -9,64.55 L -3,64.55 L -3,70.95 L 3,70.95 L 3,64.55 L 9,64.55
 L 9,58.15 L 27,58.15 L 27,64.55 L 33,64.55 L 33,70.95 L 39,70.95
 L 39,64.55 L 45,64.55 L 45,58.15 L 63,58.15 L 63,64.55 L 69,64.55
 L 69,70.95 L 75,70.95 L 75,64.55 L 88.9,64.55 L 88.9,39 L 95.3,39
 L 95.3,33 L 88.9,33 L 88.9,27 L 82.5,27 L 82.5,9 L 88.9,9
 L 88.9,3 L 95.3,3 L 95.3,-3 L 88.9,-3 L 88.9,-9 L 82.5,-9
 L 82.5,-27 L 88.9,-27 L 88.9,-33 L 95.3,-33 L 95.3,-39 L 88.9,-39
 L 88.9,-64.55 L 75,-64.55 L 75,-70.95 L 69,-70.95 L 69,-64.55 L 63,-64.55
 L 63,-58.15 L 45,-58.15 L 45,-64.55 L 39,-64.55 L 39,-70.95 L 33,-70.95
 L 33,-64.55 L 27,-64.55 L 27,-58.15 L 9,-58.15 L 9,-64.55 L 3,-64.55
 L 3,-70.95 L -3,-70.95 L -3,-64.55 L -9,-64.55 L -9,-58.15 L -27,-58.15
 L -27,-64.55 L -33,-64.55 L -33,-70.95 L -39,-70.95 L -39,-64.55 L -45,-64.55
 L -45,-58.15 L -63,-58.15 L -63,-64.55 L -69,-64.55 L -69,-70.95 L -75,-70.95
 L -75,-64.55 L -88.9,-64.55 L -88.9,-39 L -95.3,-39 L -95.3,-33 L -88.9,-33
 L -88.9,-27 L -82.5,-27 L -82.5,-9 L -88.9,-9 L -88.9,-3 L -95.3,-3
 L -95.3,3 L -88.9,3 L -88.9,9 L -82.5,9 L -82.5,27 L -88.9,27
 L -88.9,33 L -95.3,33 L -95.3,39 L -88.9,39 L -88.9,64.55 L -75,64.55
 L -75,70.95 L -69,70.95 z
M 216.9,64.55 L 222.9,64.55 L 222.9,58.15 L 240.9,58.15 L 240.9,64.55 L 246.9,64.55
 L 246.9,70.95 L 252.9,70.95 L 252.9,64.55 L 258.9,64.55 L 258.9,58.15 L 276.9,58.15
 L 276.9,64.55 L 282.9,64.55 L 282.9,70.95 L 288.9,70.95 L 288.9,64.55 L 294.9,64.55
 L 294.9,58.15 L 312.9,58.15 L 312.9,64.55 L 318.9,64.55 L 318.9,70.95 L 324.9,70.95
 L 324.9,64.55 L 330.9,64.55 L 330.9,58.15 L 348.9,58.15 L 348.9,64.55 L 354.9,64.55
 L 354.9,70.95 L 360.9,70.95 L 360.9,64.55 L 374.8,64.55 L 374.8,39 L 381.2,39
 L 381.2,33 L 374.8,33 L 374.8,27 L 368.4,27 L 368.4,9 L 374.8,9
 L 374.8,3 L 381.2,3 L 381.2,-3 L 374.8,-3 L 374.8,-9 L 368.4,-9
 L 368.4,-27 L 374.8,-27 L 374.8,-33 L 381.2,-33 L 381.2,-39 L 374.8,-39
 L 374.8,-64.55 L 360.9,-64.55 L 360.9,-70.95 L 354.9,-70.95 L 354.9,-64.55 L 348.9,-64.55
 L 348.9,-58.15 L 330.9,-58.15 L 330.9,-64.55 L 324.9,-64.55 L 324.9,-70.95 L 318.9,-70.95
 L 318.9,-64.55 L 312.9,-64.55 L 312.9,-58.15 L 294.9,-58.15 L 294.9,-64.55 L 288.9,-64.55
 L 288.9,-70.95 L 282.9,-70.95 L 282.9,-64.55 L 276.9,-64.55 L 276.9,-58.15 L 258.9,-58.15
 L 258.9,-64.55 L 252.9,-64.55 L 252.9,-70.95 L 246.9,-70.95 L 246.9,-64.55 L 240.9,-64.55
 L 240.9,-58.15 L 222.9,-58.15 L 222.9,-64.55 L 216.9,-64.55 L 216.9,-70.95 L 210.9,-70.95
 L 210.9,-64.55 L 197,-64.55 L 197,-39 L 190.6,-39 L 190.6,-33 L 197,-33
 L 197,-27 L 203.4,-27 L 203.4,-9 L 197,-9 L 197,-3 L 190.6,-3
 L 190.6,3 L 197,3 L 197,9 L 203.4,9 L 203.4,27 L 197,27
 L 197,33 L 190.6,33 L 190.6,39 L 197,39 L 197,64.55 L 210.9,64.55
 L 210.9,70.95 L 216.9,70.95 z
M 1110.6,64.55 L 1116.6,64.55 L 1116.6,58.15 L 1134.6,58.15 L 1134.6,64.55 L 1140.6,64.55
 L 1140.6,70.95 L 1146.6,70.95 L 1146.6,64.55 L 1152.6,64.55 L 1152.6,58.15 L 1170.6,58.15
 L 1170.6,64.55 L 1176.6,64.55 L 1176.6,70.95 L 1182.6,70.95 L 1182.6,64.55 L 1201.75,64.55
 L 1201.75,27 L 1208.15,27 L 1208.15,21 L 1214.55,21 L 1214.55,15 L 1208.15,15
 L 1208.15,9 L 1201.75,9 L 1201.75,-9 L 1208.15,-9 L 1208.15,-15 L 1214.55,-15
 L 1214.55,-21 L 1208.15,-21 L 1208.15,-27 L 1201.75,-27 L 1201.75,-64.55 L 1182.6,-64.55
 L 1182.6,-70.95 L 1176.6,-70.95 L 1176.6,-64.55 L 1170.6,-64.55 L 1170.6,-58.15 L 1152.6,-58.15
 L 1152.6,-64.55 L 1146.6,-64.55 L 1146.6,-70.95 L 1140.6,-70.95 L 1140.6,-64.55 L 1134.6,-64.55
 L 1134.6,-58.15 L 1116.6,-58.15 L 1116.6,-64.55 L 1110.6,-64.55 L 1110.6,-70.95 L 1104.6,-70.95
 L 1104.6,-64.55 L 1085.45,-64.55 L 1085.45,-27 L 1079.05,-27 L 1079.05,-21 L 1072.65,-21
 L 1072.65,-15 L 1079.05,-15 L 1079.05,-9 L 1085.45,-9 L 1085.45,9 L 1079.05,9
 L 1079.05,15 L 1072.65,15 L 1072.65,21 L 1079.05,21 L 1079.05,27 L 1085.45,27
 L 1085.45,64.55 L 1104.6,64.55 L 1104.6,70.95 L 1110.6,70.95 z
M 1358.38,64.55 L 1364.38,64.55 L 1364.38,58.15 L 1382.38,58.15 L 1382.38,64.55 L 1388.38,64.55
 L 1388.38,70.95 L 1394.38,70.95 L 1394.38,64.55 L 1400.38,64.55 L 1400.38,58.15 L 1418.38,58.15
 L 1418.38,64.55 L 1424.38,64.55 L 1424.38,70.95 L 1430.38,70.95 L 1430.38,64.55 L 1449.53,64.55
 L 1449.53,27 L 1455.93,27 L 1455.93,21 L 1462.33,21 L 1462.33,15 L 1455.93,15
 L 1455.93,9 L 1449.53,9 L 1449.53,-9 L 1455.93,-9 L 1455.93,-15 L 1462.33,-15
 L 1462.33,-21 L 1455.93,-21 L 1455.93,-27 L 1449.53,-27 L 1449.53,-64.55 L 1430.38,-64.55
 L 1430.38,-70.95 L 1424.38,-70.95 L 1424.38,-64.55 L 1418.38,-64.55 L 1418.38,-58.15 L 1400.38,-58.15
 L 1400.38,-64.55 L 1394.38,-64.55 L 1394.38,-70.95 L 1388.38,-70.95 L 1388.38,-64.55 L 1382.38,-64.55
 L 1382.38,-58.15 L 1364.38,-58.15 L 1364.38,-64.55 L 1358.38,-64.55 L 1358.38,-70.95 L 1352.38,-70.95
 L 1352.38,-64.55 L 1333.23,-64.55 L 1333.23,-27 L 1326.83,-27 L 1326.83,-21 L 1320.43,-21
 L 1320.43,-15 L 1326.83,-15 L 1326.83,-9 L 1333.23,-9 L 1333.23,9 L 1326.83,9
 L 1326.83,15 L 1320.43,15 L 1320.43,21 L 1326.83,21 L 1326.83,27 L 1333.23,27
 L 1333.23,64.55 L 1352.38,64.55 L 1352.38,70.95 L 1358.38,70.95 z
M 806.7,64.55 L 812.7,64.55 L 812.7,58.15 L 830.7,58.15 L 830.7,64.55 L 836.7,64.55
 L 836.7,70.95 L 842.7,70.95 L 842.7,64.55 L 848.7,64.55 L 848.7,58.15 L 866.7,58.15
 L 866.7,64.55 L 872.7,64.55 L 872.7,70.95 L 878.7,70.95 L 878.7,64.55 L 884.7,64.55
 L 884.7,58.15 L 902.7,58.15 L 902.7,64.55 L 908.7,64.55 L 908.7,70.95 L 914.7,70.95
 L 914.7,64.55 L 920.7,64.55 L 920.7,58.15 L 940.2,58.15 L 940.2,27 L 946.6,27
 L 946.6,21 L 953,21 L 953,15 L 946.6,15 L 946.6,9 L 940.2,9
 L 940.2,-9 L 946.6,-9 L 946.6,-15 L 953,-15 L 953,-21 L 946.6,-21
 L 946.6,-27 L 940.2,-27 L 940.2,-58.15 L 920.7,-58.15 L 920.7,-64.55 L 914.7,-64.55
 L 914.7,-70.95 L 908.7,-70.95 L 908.7,-64.55 L 902.7,-64.55 L 902.7,-58.15 L 884.7,-58.15
 L 884.7,-64.55 L 878.7,-64.55 L 878.7,-70.95 L 872.7,-70.95 L 872.7,-64.55 L 866.7,-64.55
 L 866.7,-58.15 L 848.7,-58.15 L 848.7,-64.55 L 842.7,-64.55 L 842.7,-70.95 L 836.7,-70.95
 L 836.7,-64.55 L 830.7,-64.55 L 830.7,-58.15 L 812.7,-58.15 L 812.7,-64.55 L 806.7,-64.55
 L 806.7,-70.95 L 800.7,-70.95 L 800.7,-64.55 L 794.7,-64.55 L 794.7,-58.15 L 775.2,-58.15
 L 775.2,-27 L 768.8,-27 L 768.8,-21 L 762.4,-21 L 762.4,-15 L 768.8,-15
 L 768.8,-9 L 775.2,-9 L 775.2,9 L 768.8,9 L 768.8,15 L 762.4,15
 L 762.4,21 L 768.8,21 L 768.8,27 L 775.2,27 L 775.2,58.15 L 794.7,58.15
 L 794.7,64.55 L 800.7,64.55 L 800.7,70.95 L 806.7,70.95 z
M 520.8,64.55 L 526.8,64.55 L 526.8,58.15 L 544.8,58.15 L 544.8,64.55 L 550.8,64.55
 L 550.8,70.95 L 556.8,70.95 L 556.8,64.55 L 562.8,64.55 L 562.8,58.15 L 580.8,58.15
 L 580.8,64.55 L 586.8,64.55 L 586.8,70.95 L 592.8,70.95 L 592.8,64.55 L 598.8,64.55
 L 598.8,58.15 L 616.8,58.15 L 616.8,64.55 L 622.8,64.55 L 622.8,70.95 L 628.8,70.95
 L 628.8,64.55 L 634.8,64.55 L 634.8,58.15 L 654.3,58.15 L 654.3,27 L 660.7,27
 L 660.7,21 L 667.1,21 L 667.1,15 L 660.7,15 L 660.7,9 L 654.3,9
 L 654.3,-9 L 660.7,-9 L 660.7,-15 L 667.1,-15 L 667.1,-21 L 660.7,-21
 L 660.7,-27 L 654.3,-27 L 654.3,-58.15 L 634.8,-58.15 L 634.8,-64.55 L 628.8,-64.55
 L 628.8,-70.95 L 622.8,-70.95 L 622.8,-64.55 L 616.8,-64.55 L 616.8,-58.15 L 598.8,-58.15
 L 598.8,-64.55 L 592.8,-64.55 L 592.8,-70.95 L 586.8,-70.95 L 586.8,-64.55 L 580.8,-64.55
 L 580.8,-58.15 L 562.8,-58.15 L 562.8,-64.55 L 556.8,-64.55 L 556.8,-70.95 L 550.8,-70.95
 L 550.8,-64.55 L 544.8,-64.55 L 544.8,-58.15 L 526.8,-58.15 L 526.8,-64.55 L 520.8,-64.55
 L 520.8,-70.95 L 514.8,-70.95 L 514.8,-64.55 L 508.8,-64.55 L 508.8,-58.15 L 489.3,-58.15
 L 489.3,-27 L 482.9,-27 L 482.9,-21 L 476.5,-21 L 476.5,-15 L 482.9,-15
 L 482.9,-9 L 489.3,-9 L 489.3,9 L 482.9,9 L 482.9,15 L 476.5,15
 L 476.5,21 L 482.9,21 L 482.9,27 L 489.3,27 L 489.3,58.15 L 508.8,58.15
 L 508.8,64.55 L 514.8,64.55 L 514.8,70.95 L 520.8,70.95 z
" stroke="black" fill="lightgray" stroke-width="0.5"/>
</svg>
