<?xml version="1.0" standalone="no"?>
<!DOCTYPE svg PUBLIC "-//W3C//DTD SVG 1.1//EN" "http://www.w3.org/Graphics/SVG/1.1/DTD/svg11.dtd">
<svg width="1178mm" height="441mm" viewBox="-71 -390 1178 441" xmlns="http://www.w3.org/2000/svg" version="1.1">
<title>OpenSCAD Model</title>
<path d="
M 58,-389.6 L -58,-389.6 L -58,-314.6 L 58,-314.6 z
M -55,-317.6 L -55,-386.6 L 55,-386.6 L 55,-317.6 z
M -54,-132.15 L -42,-132.15 L -42,-125.75 L -30,-125.75 L -30,-132.15 L -18,-132.15
 L -18,-125.75 L -6,-125.75 L -6,-132.15 L 6,-132.15 L 6,-125.75 L 18,-125.75
 L 18,-132.15 L 30,-132.15 L 30,-125.75 L 42,-125.75 L 42,-132.15 L 54,-132.15
 L 54,-125.75 L 70.8,-125.75 L 70.8,-146.05 L 64.4,-146.05 L 64.4,-158.05 L 70.8,-158.05
 L 70.8,-170.05 L 64.4,-170.05 L 64.4,-182.05 L 70.8,-182.05 L 70.8,-194.05 L 64.4,-194.05
 L 64.4,-206.05 L 70.8,-206.05 L 70.8,-226.35 L 54,-226.35 L 54,-219.95 L 42,-219.95
 L 42,-226.35 L 30,-226.35 L 30,-219.95 L 18,-219.95 L 18,-226.35 L 6,-226.35
 L 6,-219.95 L -6,-219.95 L -6,-226.35 L -18,-226.35 L -18,-219.95 L -30,-219.95
 L -30,-226.35 L -42,-226.35 L -42,-219.95 L -54,-219.95 L -54,-226.35 L -70.8,-226.35
 L -70.8,-206.05 L -64.4,-206.05 L -64.4,-194.05 L -70.8,-194.05 L -70.8,-182.05 L -64.4,-182.05
 L -64.4,-170.05 L -70.8,-170.05 L -70.8,-158.05 L -64.4,-158.05 L -64.4,-146.05 L -70.8,-146.05
 L -70.8,-125.75 L -54,-125.75 z
M -38,-213.55 L -38,-219.95 L -34,-219.95 L -34,-213.55 z
M -14,-213.55 L -14,-219.95 L -10,-219.95 L -10,-213.55 z
M 10,-213.55 L 10,-219.95 L 14,-219.95 L 14,-213.55 z
M 34,-213.55 L 34,-219.95 L 38,-219.95 L 38,-213.55 z
M 58,-186.05 L 58,-190.05 L 64.4,-190.05 L 64.4,-186.05 z
M -64.4,-186.05 L -64.4,-190.05 L -58,-190.05 L -58,-186.05 z
M 58,-162.05 L 58,-166.05 L 64.4,-166.05 L 64.4,-162.05 z
M -64.4,-162.05 L -64.4,-166.05 L -58,-166.05 L -58,-162.05 z
M 10,-132.15 L 10,-138.55 L 14,-138.55 L 14,-132.15 z
M 34,-132.15 L 34,-138.55 L 38,-138.55 L 38,-132.15 z
M -14,-132.15 L -14,-138.55 L -10,-138.55 L -10,-132.15 z
M -38,-132.15 L -38,-138.55 L -34,-138.55 L -34,-132.15 z
M 158.4,-132.15 L 170.4,-132.15 L 170.4,-125.75 L 182.4,-125.75 L 182.4,-132.15 L 194.4,-132.15
 L 194.4,-125.75 L 206.4,-125.75 L 206.4,-132.15 L 218.4,-132.15 L 218.4,-125.75 L 230.4,-125.75
 L 230.4,-132.15 L 242.4,-132.15 L 242.4,-125.75 L 254.4,-125.75 L 254.4,-132.15 L 266.4,-132.15
 L 266.4,-125.75 L 283.2,-125.75 L 283.2,-146.05 L 276.8,-146.05 L 276.8,-158.05 L 283.2,-158.05
 L 283.2,-170.05 L 276.8,-170.05 L 276.8,-182.05 L 283.2,-182.05 L 283.2,-194.05 L 276.8,-194.05
 L 276.8,-206.05 L 283.2,-206.05 L 283.2,-226.35 L 266.4,-226.35 L 266.4,-219.95 L 254.4,-219.95
 L 254.4,-226.35 L 242.4,-226.35 L 242.4,-219.95 L 230.4,-219.95 L 230.4,-226.35 L 218.4,-226.35
 L 218.4,-219.95 L 206.4,-219.95 L 206.4,-226.35 L 194.4,-226.35 L 194.4,-219.95 L 182.4,-219.95
 L 182.4,-226.35 L 170.4,-226.35 L 170.4,-219.95 L 158.4,-219.95 L 158.4,-226.35 L 141.6,-226.35
 L 141.6,-206.05 L 148,-206.05 L 148,-194.05 L 141.6,-194.05 L 141.6,-182.05 L 148,-182.05
 L 148,-170.05 L 141.6,-170.05 L 141.6,-158.05 L 148,-158.05 L 148,-146.05 L 141.6,-146.05
 L 141.6,-125.75 L 158.4,-125.75 z
M 174.4,-213.55 L 174.4,-219.95 L 178.4,-219.95 L 178.4,-213.55 z
M 198.4,-213.55 L 198.4,-219.95 L 202.4,-219.95 L 202.4,-213.55 z
M 222.4,-213.55 L 222.4,-219.95 L 226.4,-219.95 L 226.4,-213.55 z
M 246.4,-213.55 L 246.4,-219.95 L 250.4,-219.95 L 250.4,-213.55 z
M 270.4,-186.05 L 270.4,-190.05 L 276.8,-190.05 L 276.8,-186.05 z
M 148,-186.05 L 148,-190.05 L 154.4,-190.05 L 154.4,-186.05 z
M 270.4,-162.05 L 270.4,-166.05 L 276.8,-166.05 L 276.8,-162.05 z
M 148,-162.05 L 148,-166.05 L 154.4,-166.05 L 154.4,-162.05 z
M 198.4,-132.15 L 198.4,-138.55 L 202.4,-138.55 L 202.4,-132.15 z
M 222.4,-132.15 L 222.4,-138.55 L 226.4,-138.55 L 226.4,-132.15 z
M 246.4,-132.15 L 246.4,-138.55 L 250.4,-138.55 L 250.4,-132.15 z
M 174.4,-132.15 L 174.4,-138.55 L 178.4,-138.55 L 178.4,-132.15 z
M 1003.68,-132.15 L 1015.68,-132.15 L 1015.68,-125.75 L 1027.68,-125.75 L 1027.68,-132.15 L 1039.68,-132.15
 L 1039.68,-125.75 L 1051.68,-125.75 L 1051.68,-132.15 L 1063.68,-132.15 L 1063.68,-125.75 L 1074.08,-125.75
 L 1074.08,-146.06 L 1080.48,-146.06 L 1080.48,-132.15 L 1106.08,-132.15 L 1106.08,-144.95 L 1102.76,-145.3
 L 1099.57,-146.334 L 1096.67,-148.008 L 1094.19,-150.247 L 1092.22,-152.955 L 1090.86,-156.013 L 1090.16,-159.286
 L 1090.16,-192.813 L 1090.86,-196.087 L 1092.22,-199.145 L 1094.19,-201.853 L 1096.67,-204.092 L 1099.57,-205.766
 L 1102.76,-206.8 L 1106.08,-207.15 L 1106.08,-219.95 L 1080.48,-219.95 L 1080.48,-206.04 L 1074.08,-206.04
 L 1074.08,-226.35 L 1063.68,-226.35 L 1063.68,-219.95 L 1051.68,-219.95 L 1051.68,-226.35 L 1039.68,-226.35
 L 1039.68,-219.95 L 1027.68,-219.95 L 1027.68,-226.35 L 1015.68,-226.35 L 1015.68,-219.95 L 1003.68,-219.95
 L 1003.68,-226.35 L 993.28,-226.35 L 993.28,-206.04 L 986.88,-206.04 L 986.88,-194.05 L 993.28,-194.05
 L 993.28,-182.05 L 986.88,-182.05 L 986.88,-170.05 L 993.28,-170.05 L 993.28,-158.05 L 986.88,-158.05
 L 986.88,-146.06 L 993.28,-146.06 L 993.28,-125.75 L 1003.68,-125.75 z
M 1019.68,-213.55 L 1019.68,-219.95 L 1023.68,-219.95 L 1023.68,-213.55 z
M 1043.68,-213.55 L 1043.68,-219.95 L 1047.68,-219.95 L 1047.68,-213.55 z
M 993.28,-198.05 L 993.28,-202.05 L 999.68,-202.05 L 999.68,-198.05 z
M 1067.68,-198.05 L 1067.68,-202.05 L 1074.08,-202.05 L 1074.08,-198.05 z
M 1074.08,-182.05 L 1074.08,-194.05 L 1080.48,-194.05 L 1080.48,-182.05 z
M 1067.68,-174.05 L 1067.68,-178.05 L 1074.08,-178.05 L 1074.08,-174.05 z
M 993.28,-174.05 L 993.28,-178.05 L 999.68,-178.05 L 999.68,-174.05 z
M 1074.08,-158.05 L 1074.08,-170.05 L 1080.48,-170.05 L 1080.48,-158.05 z
M 993.28,-150.05 L 993.28,-154.05 L 999.68,-154.05 L 999.68,-150.05 z
M 1067.68,-150.05 L 1067.68,-154.05 L 1074.08,-154.05 L 1074.08,-150.05 z
M 1019.68,-132.15 L 1019.68,-138.55 L 1023.68,-138.55 L 1023.68,-132.15 z
M 1043.68,-132.15 L 1043.68,-138.55 L 1047.68,-138.55 L 1047.68,-132.15 z
M 819.6,-132.15 L 831.6,-132.15 L 831.6,-125.75 L 843.6,-125.75 L 843.6,-132.15 L 855.6,-132.15
 L 855.6,-125.75 L 867.6,-125.75 L 867.6,-132.15 L 879.6,-132.15 L 879.6,-125.75 L 890,-125.75
 L 890,-146.06 L 896.4,-146.06 L 896.4,-132.15 L 922.005,-132.15 L 922.005,-144.95 L 918.676,-145.3
 L 915.493,-146.334 L 912.595,-148.008 L 910.107,-150.247 L 908.14,-152.955 L 906.779,-156.013 L 906.083,-159.286
 L 906.083,-192.813 L 906.779,-196.087 L 908.14,-199.145 L 910.107,-201.853 L 912.595,-204.092 L 915.493,-205.766
 L 918.676,-206.8 L 922.005,-207.15 L 922.005,-219.95 L 896.4,-219.95 L 896.4,-206.04 L 890,-206.04
 L 890,-226.35 L 879.6,-226.35 L 879.6,-219.95 L 867.6,-219.95 L 867.6,-226.35 L 855.6,-226.35
 L 855.6,-219.95 L 843.6,-219.95 L 843.6,-226.35 L 831.6,-226.35 L 831.6,-219.95 L 819.6,-219.95
 L 819.6,-226.35 L 809.2,-226.35 L 809.2,-206.04 L 802.8,-206.04 L 802.8,-194.05 L 809.2,-194.05
 L 809.2,-182.05 L 802.8,-182.05 L 802.8,-170.05 L 809.2,-170.05 L 809.2,-158.05 L 802.8,-158.05
 L 802.8,-146.06 L 809.2,-146.06 L 809.2,-125.75 L 819.6,-125.75 z
M 835.6,-213.55 L 835.6,-219.95 L 839.6,-219.95 L 839.6,-213.55 z
M 859.6,-213.55 L 859.6,-219.95 L 863.6,-219.95 L 863.6,-213.55 z
M 883.6,-198.05 L 883.6,-202.05 L 890,-202.05 L 890,-198.05 z
M 809.2,-198.05 L 809.2,-202.05 L 815.6,-202.05 L 815.6,-198.05 z
M 890,-182.05 L 890,-194.05 L 896.4,-194.05 L 896.4,-182.05 z
M 883.6,-174.05 L 883.6,-178.05 L 890,-178.05 L 890,-174.05 z
M 809.2,-174.05 L 809.2,-178.05 L 815.6,-178.05 L 815.6,-174.05 z
M 890,-158.05 L 890,-170.05 L 896.4,-170.05 L 896.4,-158.05 z
M 809.2,-150.05 L 809.2,-154.05 L 815.6,-154.05 L 815.6,-150.05 z
M 883.6,-150.05 L 883.6,-154.05 L 890,-154.05 L 890,-150.05 z
M 835.6,-132.15 L 835.6,-138.55 L 839.6,-138.55 L 839.6,-132.15 z
M 859.6,-132.15 L 859.6,-138.55 L 863.6,-138.55 L 863.6,-132.15 z
M 373.55,-106.974 L 374.584,-110.157 L 376.258,-113.055 L 378.497,-115.543 L 381.205,-117.51 L 384.263,-118.871
 L 387.536,-119.567 L 462.063,-119.567 L 465.337,-118.871 L 468.395,-117.51 L 471.103,-115.543 L 473.342,-113.055
 L 475.016,-110.157 L 476.05,-106.974 L 476.4,-103.645 L 495.6,-103.645 L 495.6,-129.24 L 489.2,-129.24
 L 489.2,-129.25 L 478.79,-129.25 L 478.79,-135.65 L 489.2,-135.65 L 489.2,-146.06 L 495.6,-146.06
 L 495.6,-158.05 L 489.2,-158.05 L 489.2,-170.05 L 495.6,-170.05 L 495.6,-182.05 L 489.2,-182.05
 L 489.2,-194.05 L 495.6,-194.05 L 495.6,-206.04 L 489.2,-206.04 L 489.2,-216.45 L 478.79,-216.45
 L 478.79,-222.85 L 466.8,-222.85 L 466.8,-216.45 L 454.8,-216.45 L 454.8,-222.85 L 442.8,-222.85
 L 442.8,-216.45 L 430.8,-216.45 L 430.8,-222.85 L 418.8,-222.85 L 418.8,-216.45 L 406.8,-216.45
 L 406.8,-222.85 L 394.8,-222.85 L 394.8,-216.45 L 382.8,-216.45 L 382.8,-222.85 L 370.81,-222.85
 L 370.81,-216.45 L 360.4,-216.45 L 360.4,-206.04 L 354,-206.04 L 354,-194.05 L 360.4,-194.05
 L 360.4,-182.05 L 354,-182.05 L 354,-170.05 L 360.4,-170.05 L 360.4,-158.05 L 354,-158.05
 L 354,-146.06 L 360.4,-146.06 L 360.4,-135.65 L 370.81,-135.65 L 370.81,-129.25 L 360.4,-129.25
 L 360.4,-129.24 L 354,-129.24 L 354,-103.645 L 373.2,-103.645 z
M 470.8,-210.05 L 470.8,-216.45 L 474.8,-216.45 L 474.8,-210.05 z
M 446.8,-210.05 L 446.8,-216.45 L 450.8,-216.45 L 450.8,-210.05 z
M 374.8,-210.05 L 374.8,-216.45 L 378.8,-216.45 L 378.8,-210.05 z
M 422.8,-210.05 L 422.8,-216.45 L 426.8,-216.45 L 426.8,-210.05 z
M 398.8,-210.05 L 398.8,-216.45 L 402.8,-216.45 L 402.8,-210.05 z
M 360.4,-198.05 L 360.4,-202.05 L 366.8,-202.05 L 366.8,-198.05 z
M 482.8,-198.05 L 482.8,-202.05 L 489.2,-202.05 L 489.2,-198.05 z
M 360.4,-174.05 L 360.4,-178.05 L 366.8,-178.05 L 366.8,-174.05 z
M 482.8,-174.05 L 482.8,-178.05 L 489.2,-178.05 L 489.2,-174.05 z
M 482.8,-150.05 L 482.8,-154.05 L 489.2,-154.05 L 489.2,-150.05 z
M 360.4,-150.05 L 360.4,-154.05 L 366.8,-154.05 L 366.8,-150.05 z
M 470.8,-135.65 L 470.8,-142.05 L 474.8,-142.05 L 474.8,-135.65 z
M 446.8,-135.65 L 446.8,-142.05 L 450.8,-142.05 L 450.8,-135.65 z
M 422.8,-135.65 L 422.8,-142.05 L 426.8,-142.05 L 426.8,-135.65 z
M 398.8,-135.65 L 398.8,-142.05 L 402.8,-142.05 L 402.8,-135.65 z
M 374.8,-135.65 L 374.8,-142.05 L 378.8,-142.05 L 378.8,-135.65 z
M 406.8,-129.25 L 406.8,-135.65 L 418.8,-135.65 L 418.8,-129.25 z
M 454.8,-129.25 L 454.8,-135.65 L 466.8,-135.65 L 466.8,-129.25 z
M 382.8,-129.25 L 382.8,-135.65 L 394.8,-135.65 L 394.8,-129.25 z
M 430.8,-129.25 L 430.8,-135.65 L 442.8,-135.65 L 442.8,-129.25 z
M 585.95,-106.974 L 586.984,-110.157 L 588.658,-113.055 L 590.897,-115.543 L 593.605,-117.51 L 596.663,-118.871
 L 599.936,-119.567 L 674.463,-119.567 L 677.737,-118.871 L 680.795,-117.51 L 683.503,-115.543 L 685.742,-113.055
 L 687.416,-110.157 L 688.45,-106.974 L 688.8,-103.645 L 708,-103.645 L 708,-129.24 L 701.6,-129.24
 L 701.6,-129.25 L 691.19,-129.25 L 691.19,-135.65 L 701.6,-135.65 L 701.6,-146.06 L 708,-146.06
 L 708,-158.05 L 701.6,-158.05 L 701.6,-170.05 L 708,-170.05 L 708,-182.05 L 701.6,-182.05
 L 701.6,-194.05 L 708,-194.05 L 708,-206.04 L 701.6,-206.04 L 701.6,-216.45 L 691.19,-216.45
 L 691.19,-222.85 L 679.2,-222.85 L 679.2,-216.45 L 667.2,-216.45 L 667.2,-222.85 L 655.2,-222.85
 L 655.2,-216.45 L 643.2,-216.45 L 643.2,-222.85 L 631.2,-222.85 L 631.2,-216.45 L 619.2,-216.45
 L 619.2,-222.85 L 607.2,-222.85 L 607.2,-216.45 L 595.2,-216.45 L 595.2,-222.85 L 583.21,-222.85
 L 583.21,-216.45 L 572.8,-216.45 L 572.8,-206.04 L 566.4,-206.04 L 566.4,-194.05 L 572.8,-194.05
 L 572.8,-182.05 L 566.4,-182.05 L 566.4,-170.05 L 572.8,-170.05 L 572.8,-158.05 L 566.4,-158.05
 L 566.4,-146.06 L 572.8,-146.06 L 572.8,-135.65 L 583.21,-135.65 L 583.21,-129.25 L 572.8,-129.25
 L 572.8,-129.24 L 566.4,-129.24 L 566.4,-103.645 L 585.6,-103.645 z
M 587.2,-210.05 L 587.2,-216.45 L 591.2,-216.45 L 591.2,-210.05 z
M 611.2,-210.05 L 611.2,-216.45 L 615.2,-216.45 L 615.2,-210.05 z
M 635.2,-210.05 L 635.2,-216.45 L 639.2,-216.45 L 639.2,-210.05 z
M 659.2,-210.05 L 659.2,-216.45 L 663.2,-216.45 L 663.2,-210.05 z
M 683.2,-210.05 L 683.2,-216.45 L 687.2,-216.45 L 687.2,-210.05 z
M 695.2,-198.05 L 695.2,-202.05 L 701.6,-202.05 L 701.6,-198.05 z
M 572.8,-198.05 L 572.8,-202.05 L 579.2,-202.05 L 579.2,-198.05 z
M 572.8,-174.05 L 572.8,-178.05 L 579.2,-178.05 L 579.2,-174.05 z
M 695.2,-174.05 L 695.2,-178.05 L 701.6,-178.05 L 701.6,-174.05 z
M 572.8,-150.05 L 572.8,-154.05 L 579.2,-154.05 L 579.2,-150.05 z
M 695.2,-150.05 L 695.2,-154.05 L 701.6,-154.05 L 701.6,-150.05 z
M 587.2,-135.65 L 587.2,-142.05 L 591.2,-142.05 L 591.2,-135.65 z
M 611.2,-135.65 L 611.2,-142.05 L 615.2,-142.05 L 615.2,-135.65 z
M 635.2,-135.65 L 635.2,-142.05 L 639.2,-142.05 L 639.2,-135.65 z
M 659.2,-135.65 L 659.2,-142.05 L 663.2,-142.05 L 663.2,-135.65 z
M 683.2,-135.65 L 683.2,-142.05 L 687.2,-142.05 L 687.2,-135.65 z
M 667.2,-129.25 L 667.2,-135.65 L 679.2,-135.65 L 679.2,-129.25 z
M 643.2,-129.25 L 643.2,-135.65 L 655.2,-135.65 L 655.2,-129.25 z
M 619.2,-129.25 L 619.2,-135.65 L 631.2,-135.65 L 631.2,-129.25 z
M 595.2,-129.25 L 595.2,-135.65 L 607.2,-135.65 L 607.2,-129.25 z
M -46,43.9 L -42,43.9 L -42,37.5 L -30,37.5 L -30,43.9 L -26,43.9
 L -26,50.3 L -22,50.3 L -22,43.9 L -18,43.9 L -18,37.5 L -6,37.5
 L -6,43.9 L -2,43.9 L -2,50.3 L 2,50.3 L 2,43.9 L 6,43.9
 L 6,37.5 L 18,37.5 L 18,43.9 L 22,43.9 L 22,50.3 L 26,50.3
 L 26,43.9 L 30,43.9 L 30,37.5 L 42,37.5 L 42,43.9 L 46,43.9
 L 46,50.3 L 50,50.3 L 50,43.9 L 64.4,43.9 L 64.4,26 L 70.8,26
 L 70.8,22 L 64.4,22 L 64.4,18 L 58,18 L 58,6 L 64.4,6
 L 64.4,2 L 70.8,2 L 70.8,-2 L 64.4,-2 L 64.4,-6 L 58,-6
 L 58,-18 L 64.4,-18 L 64.4,-22 L 70.8,-22 L 70.8,-26 L 64.4,-26
 L 64.4,-43.9 L 50,-43.9 L 50,-50.3 L 46,-50.3 L 46,-43.9 L 42,-43.9
 L 42,-37.5 L 30,-37.5 L 30,-43.9 L 26,-43.9 L 26,-50.3 L 22,-50.3
 L 22,-43.9 L 18,-43.9 L 18,-37.5 L 6,-37.5 L 6,-43.9 L 2,-43.9
 L 2,-50.3 L -2,-50.3 L -2,-43.9 L -6,-43.9 L -6,-37.5 L -18,-37.5
 L -18,-43.9 L -22,-43.9 L -22,-50.3 L -26,-50.3 L -26,-43.9 L -30,-43.9
 L -30,-37.5 L -42,-37.5 L -42,-43.9 L -46,-43.9 L -46,-50.3 L -50,-50.3
 L -50,-43.9 L -64.4,-43.9 L -64.4,-26 L -70.8,-26 L -70.8,-22 L -64.4,-22
 L -64.4,-18 L -58,-18 L -58,-6 L -64.4,-6 L -64.4,-2 L -70.8,-2
 L -70.8,2 L -64.4,2 L -64.4,6 L -58,6 L -58,18 L -64.4,18
 L -64.4,22 L -70.8,22 L -70.8,26 L -64.4,26 L -64.4,43.9 L -50,43.9
 L -50,50.3 L -46,50.3 z
M 1011.68,43.9 L 1015.68,43.9 L 1015.68,37.5 L 1027.68,37.5 L 1027.68,43.9 L 1031.68,43.9
 L 1031.68,50.3 L 1035.68,50.3 L 1035.68,43.9 L 1039.68,43.9 L 1039.68,37.5 L 1051.68,37.5
 L 1051.68,43.9 L 1055.68,43.9 L 1055.68,50.3 L 1059.68,50.3 L 1059.68,43.9 L 1067.68,43.9
 L 1067.68,18 L 1074.08,18 L 1074.08,14 L 1080.48,14 L 1080.48,10 L 1074.08,10
 L 1074.08,6 L 1067.68,6 L 1067.68,-6 L 1074.08,-6 L 1074.08,-10 L 1080.48,-10
 L 1080.48,-14 L 1074.08,-14 L 1074.08,-18 L 1067.68,-18 L 1067.68,-43.9 L 1059.68,-43.9
 L 1059.68,-50.3 L 1055.68,-50.3 L 1055.68,-43.9 L 1051.68,-43.9 L 1051.68,-37.5 L 1039.68,-37.5
 L 1039.68,-43.9 L 1035.68,-43.9 L 1035.68,-50.3 L 1031.68,-50.3 L 1031.68,-43.9 L 1027.68,-43.9
 L 1027.68,-37.5 L 1015.68,-37.5 L 1015.68,-43.9 L 1011.68,-43.9 L 1011.68,-50.3 L 1007.68,-50.3
 L 1007.68,-43.9 L 999.68,-43.9 L 999.68,-18 L 993.28,-18 L 993.28,-14 L 986.88,-14
 L 986.88,-10 L 993.28,-10 L 993.28,-6 L 999.68,-6 L 999.68,6 L 993.28,6
 L 993.28,10 L 986.88,10 L 986.88,14 L 993.28,14 L 993.28,18 L 999.68,18
 L 999.68,43.9 L 1007.68,43.9 L 1007.68,50.3 L 1011.68,50.3 z
M 827.6,43.9 L 831.6,43.9 L 831.6,37.5 L 843.6,37.5 L 843.6,43.9 L 847.6,43.9
 L 847.6,50.3 L 851.6,50.3 L 851.6,43.9 L 855.6,43.9 L 855.6,37.5 L 867.6,37.5
 L 867.6,43.9 L 871.6,43.9 L 871.6,50.3 L 875.6,50.3 L 875.6,43.9 L 883.6,43.9
 L 883.6,18 L 890,18 L 890,14 L 896.4,14 L 896.4,10 L 890,10
 L 890,6 L 883.6,6 L 883.6,-6 L 890,-6 L 890,-10 L 896.4,-10
 L 896.4,-14 L 890,-14 L 890,-18 L 883.6,-18 L 883.6,-43.9 L 875.6,-43.9
 L 875.6,-50.3 L 871.6,-50.3 L 871.6,-43.9 L 867.6,-43.9 L 867.6,-37.5 L 855.6,-37.5
 L 855.6,-43.9 L 851.6,-43.9 L 851.6,-50.3 L 847.6,-50.3 L 847.6,-43.9 L 843.6,-43.9
 L 843.6,-37.5 L 831.6,-37.5 L 831.6,-43.9 L 827.6,-43.9 L 827.6,-50.3 L 823.6,-50.3
 L 823.6,-43.9 L 815.6,-43.9 L 815.6,-18 L 809.2,-18 L 809.2,-14 L 802.8,-14
 L 802.8,-10 L 809.2,-10 L 809.2,-6 L 815.6,-6 L 815.6,6 L 809.2,6
 L 809.2,10 L 802.8,10 L 802.8,14 L 809.2,14 L 809.2,18 L 815.6,18
 L 815.6,43.9 L 823.6,43.9 L 823.6,50.3 L 827.6,50.3 z
M 166.4,43.9 L 170.4,43.9 L 170.4,37.5 L 182.4,37.5 L 182.4,43.9 L 186.4,43.9
 L 186.4,50.3 L 190.4,50.3 L 190.4,43.9 L 194.4,43.9 L 194.4,37.5 L 206.4,37.5
 L 206.4,43.9 L 210.4,43.9 L 210.4,50.3 L 214.4,50.3 L 214.4,43.9 L 218.4,43.9
 L 218.4,37.5 L 230.4,37.5 L 230.4,43.9 L 234.4,43.9 L 234.4,50.3 L 238.4,50.3
 L 238.4,43.9 L 242.4,43.9 L 242.4,37.5 L 254.4,37.5 L 254.4,43.9 L 258.4,43.9
 L 258.4,50.3 L 262.4,50.3 L 262.4,43.9 L 276.8,43.9 L 276.8,26 L 283.2,26
 L 283.2,22 L 276.8,22 L 276.8,18 L 270.4,18 L 270.4,6 L 276.8,6
 L 276.8,2 L 283.2,2 L 283.2,-2 L 276.8,-2 L 276.8,-6 L 270.4,-6
 L 270.4,-18 L 276.8,-18 L 276.8,-22 L 283.2,-22 L 283.2,-26 L 276.8,-26
 L 276.8,-43.9 L 262.4,-43.9 L 262.4,-50.3 L 258.4,-50.3 L 258.4,-43.9 L 254.4,-43.9
 L 254.4,-37.5 L 242.4,-37.5 L 242.4,-43.9 L 238.4,-43.9 L 238.4,-50.3 L 234.4,-50.3
 L 234.4,-43.9 L 230.4,-43.9 L 230.4,-37.5 L 218.4,-37.5 L 218.4,-43.9 L 214.4,-43.9
 L 214.4,-50.3 L 210.4,-50.3 L 210.4,-43.9 L 206.4,-43.9 L 206.4,-37.5 L 194.4,-37.5
 L 194.4,-43.9 L 190.4,-43.9 L 190.4,-50.3 L 186.4,-50.3 L 186.4,-43.9 L 182.4,-43.9
 L 182.4,-37.5 L 170.4,-37.5 L 170.4,-43.9 L 166.4,-43.9 L 166.4,-50.3 L 162.4,-50.3
 L 162.4,-43.9 L 148,-43.9 L 148,-26 L 141.6,-26 L 141.6,-22 L 148,-22
 L 148,-18 L 154.4,-18 L 154.4,-6 L 148,-6 L 148,-2 L 141.6,-2
 L 141.6,2 L 148,2 L 148,6 L 154.4,6 L 154.4,18 L 148,18
 L 148,22 L 141.6,22 L 141.6,26 L 148,26 L 148,43.9 L 162.4,43.9
 L 162.4,50.3 L 166.4,50.3 z
M 603.2,40.4 L 607.2,40.4 L 607.2,34 L 619.2,34 L 619.2,40.4 L 623.2,40.4
 L 623.2,46.8 L 627.2,46.8 L 627.2,40.4 L 631.2,40.4 L 631.2,34 L 643.2,34
 L 643.2,40.4 L 647.2,40.4 L 647.2,46.8 L 651.2,46.8 L 651.2,40.4 L 655.2,40.4
 L 655.2,34 L 667.2,34 L 667.2,40.4 L 671.2,40.4 L 671.2,46.8 L 675.2,46.8
 L 675.2,40.4 L 679.2,40.4 L 679.2,34 L 695.2,34 L 695.2,18 L 701.6,18
 L 701.6,14 L 708,14 L 708,10 L 701.6,10 L 701.6,6 L 695.2,6
 L 695.2,-6 L 701.6,-6 L 701.6,-10 L 708,-10 L 708,-14 L 701.6,-14
 L 701.6,-18 L 695.2,-18 L 695.2,-34 L 679.2,-34 L 679.2,-40.4 L 675.2,-40.4
 L 675.2,-46.8 L 671.2,-46.8 L 671.2,-40.4 L 667.2,-40.4 L 667.2,-34 L 655.2,-34
 L 655.2,-40.4 L 651.2,-40.4 L 651.2,-46.8 L 647.2,-46.8 L 647.2,-40.4 L 643.2,-40.4
 L 643.2,-34 L 631.2,-34 L 631.2,-40.4 L 627.2,-40.4 L 627.2,-46.8 L 623.2,-46.8
 L 623.2,-40.4 L 619.2,-40.4 L 619.2,-34 L 607.2,-34 L 607.2,-40.4 L 603.2,-40.4
 L 603.2,-46.8 L 599.2,-46.8 L 599.2,-40.4 L 595.2,-40.4 L 595.2,-34 L 579.2,-34
 L 579.2,-18 L 572.8,-18 L 572.8,-14 L 566.4,-14 L 566.4,-10 L 572.8,-10
 L 572.8,-6 L 579.2,-6 L 579.2,6 L 572.8,6 L 572.8,10 L 566.4,10
 L 566.4,14 L 572.8,14 L 572.8,18 L 579.2,18 L 579.2,34 L 595.2,34
 L 595.2,40.4 L 599.2,40.4 L 599.2,46.8 L 603.2,46.8 z
M 390.8,40.4 L 394.8,40.4 L 394.8,34 L 406.8,34 L 406.8,40.4 L 410.8,40.4
 L 410.8,46.8 L 414.8,46.8 L 414.8,40.4 L 418.8,40.4 L 418.8,34 L 430.8,34
 L 430.8,40.4 L 434.8,40.4 L 434.8,46.8 L 438.8,46.8 L 438.8,40.4 L 442.8,40.4
 L 442.8,34 L 454.8,34 L 454.8,40.4 L 458.8,40.4 L 458.8,46.8 L 462.8,46.8
 L 462.8,40.4 L 466.8,40.4 L 466.8,34 L 482.8,34 L 482.8,18 L 489.2,18
 L 489.2,14 L 495.6,14 L 495.6,10 L 489.2,10 L 489.2,6 L 482.8,6
 L 482.8,-6 L 489.2,-6 L 489.2,-10 L 495.6,-10 L 495.6,-14 L 489.2,-14
 L 489.2,-18 L 482.8,-18 L 482.8,-34 L 466.8,-34 L 466.8,-40.4 L 462.8,-40.4
 L 462.8,-46.8 L 458.8,-46.8 L 458.8,-40.4 L 454.8,-40.4 L 454.8,-34 L 442.8,-34
 L 442.8,-40.4 L 438.8,-40.4 L 438.8,-46.8 L 434.8,-46.8 L 434.8,-40.4 L 430.8,-40.4
 L 430.8,-34 L 418.8,-34 L 418.8,-40.4 L 414.8,-40.4 L 414.8,-46.8 L 410.8,-46.8
 L 410.8,-40.4 L 406.8,-40.4 L 406.8,-34 L 394.8,-34 L 394.8,-40.4 L 390.8,-40.4
 L 390.8,-46.8 L 386.8,-46.8 L 386.8,-40.4 L 382.8,-40.4 L 382.8,-34 L 366.8,-34
 L 366.8,-18 L 360.4,-18 L 360.4,-14 L 354,-14 L 354,-10 L 360.4,-10
 L 360.4,-6 L 366.8,-6 L 366.8,6 L 360.4,6 L 360.4,10 L 354,10
 L 354,14 L 360.4,14 L 360.4,18 L 366.8,18 L 366.8,34 L 382.8,34
 L 382.8,40.4 L 386.8,40.4 L 386.8,46.8 L 390.8,46.8 z
" stroke="black" fill="lightgray" stroke-width="0.5"/>
</svg>
