<?xml version='1.0' encoding='us-ascii'?>
<svg width="771.70mm" height="1098.80mm" viewBox="0.0 0.0 771.70 1098.80" xmlns="http://www.w3.org/2000/svg" xmlns:dc="http://purl.org/dc/elements/1.1/" xmlns:cc="http://creativecommons.org/ns#" xmlns:rdf="http://www.w3.org/1999/02/22-rdf-syntax-ns#" xmlns:svg="http://www.w3.org/2000/svg" xmlns:xlink="http://www.w3.org/1999/xlink" xmlns:inkscape="http://www.inkscape.org/namespaces/inkscape">
<!--
ABox - A simple Box


This box is kept simple on purpose. If you need more features have a look at the UniversalBox.


Created with Boxes.py (https://festi.info/boxes.py)
Creation date: 2022-08-27 22:01:23
Command line (remove spaces between dashes): boxes ABox - -FingerJoint_angle=90 - -FingerJoint_style=rectangular - -FingerJoint_surroundingspaces=3 - -FingerJoint_edge_width=1.0 - -FingerJoint_extra_length=0.0 - -FingerJoint_finger=3 - -FingerJoint_play=0.0 - -FingerJoint_space=3 - -FingerJoint_width=1.0 - -x=311 - -y=413 - -h=311 - -outside=0 - -bottom_edge=F - -thickness=6 - -format=svg - -tabs=0.0 - -debug=0 - -labels=0 - -labels=1 - -reference=100 - -inner_corners=loop - -burn=0.1
Url: http://www.festi.info/ABox?FingerJoint_angle=90&FingerJoint_style=rectangular&FingerJoint_surroundingspaces=3&FingerJoint_edge_width=1.0&FingerJoint_extra_length=0.0&FingerJoint_finger=3&FingerJoint_play=0.0&FingerJoint_space=3&FingerJoint_width=1.0&x=311&y=413&h=311&outside=0&bottom_edge=F&thickness=6&format=svg&tabs=0.0&debug=0&labels=0&labels=1&reference=100&inner_corners=loop&burn=0.1&render=1
SettingsUrl: http://www.festi.info/ABox?FingerJoint_angle=90&FingerJoint_style=rectangular&FingerJoint_surroundingspaces=3&FingerJoint_edge_width=1.0&FingerJoint_extra_length=0.0&FingerJoint_finger=3&FingerJoint_play=0.0&FingerJoint_space=3&FingerJoint_width=1.0&x=311&y=413&h=311&outside=0&bottom_edge=F&thickness=6&format=svg&tabs=0.0&debug=0&labels=0&labels=1&reference=100&inner_corners=loop&burn=0.1
-->
<title>ABox</title>
<metadata>
<rdf:RDF><cc:Work>
<dc:title>Box - ABox</dc:title>
<dc:date>2022-08-27 22:01:23</dc:date>
<dc:source>http://www.festi.info/ABox?FingerJoint_angle=90&amp;FingerJoint_style=rectangular&amp;FingerJoint_surroundingspaces=3&amp;FingerJoint_edge_width=1.0&amp;FingerJoint_extra_length=0.0&amp;FingerJoint_finger=3&amp;FingerJoint_play=0.0&amp;FingerJoint_space=3&amp;FingerJoint_width=1.0&amp;x=311&amp;y=413&amp;h=311&amp;outside=0&amp;bottom_edge=F&amp;thickness=6&amp;format=svg&amp;tabs=0.0&amp;debug=0&amp;labels=0&amp;labels=1&amp;reference=100&amp;inner_corners=loop&amp;burn=0.1&amp;render=1</dc:source>
<dc:description>A simple Box

This box is kept simple on purpose. If you need more features have a look at the UniversalBox.

Created with Boxes.py (https://festi.info/boxes.py)
Command line: boxes ABox --FingerJoint_angle=90 --FingerJoint_style=rectangular --FingerJoint_surroundingspaces=3 --FingerJoint_edge_width=1.0 --FingerJoint_extra_length=0.0 --FingerJoint_finger=3 --FingerJoint_play=0.0 --FingerJoint_space=3 --FingerJoint_width=1.0 --x=311 --y=413 --h=311 --outside=0 --bottom_edge=F --thickness=6 --format=svg --tabs=0.0 --debug=0 --labels=0 --labels=1 --reference=100 --inner_corners=loop --burn=0.1
Url: http://www.festi.info/ABox?FingerJoint_angle=90&amp;FingerJoint_style=rectangular&amp;FingerJoint_surroundingspaces=3&amp;FingerJoint_edge_width=1.0&amp;FingerJoint_extra_length=0.0&amp;FingerJoint_finger=3&amp;FingerJoint_play=0.0&amp;FingerJoint_space=3&amp;FingerJoint_width=1.0&amp;x=311&amp;y=413&amp;h=311&amp;outside=0&amp;bottom_edge=F&amp;thickness=6&amp;format=svg&amp;tabs=0.0&amp;debug=0&amp;labels=0&amp;labels=1&amp;reference=100&amp;inner_corners=loop&amp;burn=0.1&amp;render=1
SettingsUrl: http://www.festi.info/ABox?FingerJoint_angle=90&amp;FingerJoint_style=rectangular&amp;FingerJoint_surroundingspaces=3&amp;FingerJoint_edge_width=1.0&amp;FingerJoint_extra_length=0.0&amp;FingerJoint_finger=3&amp;FingerJoint_play=0.0&amp;FingerJoint_space=3&amp;FingerJoint_width=1.0&amp;x=311&amp;y=413&amp;h=311&amp;outside=0&amp;bottom_edge=F&amp;thickness=6&amp;format=svg&amp;tabs=0.0&amp;debug=0&amp;labels=0&amp;labels=1&amp;reference=100&amp;inner_corners=loop&amp;burn=0.1
</dc:description>
</cc:Work></rdf:RDF></metadata>
<g id="p-0" style="fill:none;stroke-linecap:round;stroke-linejoin:round;">
  <path d="M 10.400 1088.800 H 110.400 V 1078.800 H 10.400 V 1088.800 Z" stroke="rgb(0,0,0)" stroke-width="0.20" />
  <text transform="matrix( 1.000 0.000 0.000 1.000 60.400 1079.800 )" style="font-family: sans-serif ; font-weight: normal; font-style: normal; fill: rgb(255,0,0)" font-size="8px" text-anchor="middle" dominant-baseline="hanging">100mm, burn:0.10mm</text>
</g>
<g id="p-1" style="fill:none;stroke-linecap:round;stroke-linejoin:round;">
  <path d="M 16.400 1075.600 H 54.900 C 54.955 1075.600 55.000 1075.555 55.000 1075.500 V 1069.600 C 55.000 1069.500 54.900 1069.600 55.000 1069.600 H 72.800 C 72.900 1069.600 72.800 1069.500 72.800 1069.600 V 1075.500 C 72.800 1075.555 72.845 1075.600 72.900 1075.600 H 90.900 C 90.955 1075.600 91.000 1075.555 91.000 1075.500 V 1069.600 C 91.000 1069.500 90.900 1069.600 91.000 1069.600 H 108.800 C 108.900 1069.600 108.800 1069.500 108.800 1069.600 V 1075.500 C 108.800 1075.555 108.845 1075.600 108.900 1075.600 H 126.900 C 126.955 1075.600 127.000 1075.555 127.000 1075.500 V 1069.600 C 127.000 1069.500 126.900 1069.600 127.000 1069.600 H 144.800 C 144.900 1069.600 144.800 1069.500 144.800 1069.600 V 1075.500 C 144.800 1075.555 144.845 1075.600 144.900 1075.600 H 162.900 C 162.955 1075.600 163.000 1075.555 163.000 1075.500 V 1069.600 C 163.000 1069.500 162.900 1069.600 163.000 1069.600 H 180.800 C 180.900 1069.600 180.800 1069.500 180.800 1069.600 V 1075.500 C 180.800 1075.555 180.845 1075.600 180.900 1075.600 H 198.900 C 198.955 1075.600 199.000 1075.555 199.000 1075.500 V 1069.600 C 199.000 1069.500 198.900 1069.600 199.000 1069.600 H 216.800 C 216.900 1069.600 216.800 1069.500 216.800 1069.600 V 1075.500 C 216.800 1075.555 216.845 1075.600 216.900 1075.600 H 234.900 C 234.955 1075.600 235.000 1075.555 235.000 1075.500 V 1069.600 C 235.000 1069.500 234.900 1069.600 235.000 1069.600 H 252.800 C 252.900 1069.600 252.800 1069.500 252.800 1069.600 V 1075.500 C 252.800 1075.555 252.845 1075.600 252.900 1075.600 H 270.900 C 270.955 1075.600 271.000 1075.555 271.000 1075.500 V 1069.600 C 271.000 1069.500 270.900 1069.600 271.000 1069.600 H 288.800 C 288.900 1069.600 288.800 1069.500 288.800 1069.600 V 1075.500 C 288.800 1075.555 288.845 1075.600 288.900 1075.600 H 327.400 H 333.400 C 333.455 1075.600 333.500 1075.555 333.500 1075.500 V 1034.000 C 333.500 1033.945 333.455 1033.900 333.400 1033.900 H 327.500 C 327.400 1033.900 327.500 1034.000 327.500 1033.900 V 1016.100 C 327.500 1016.000 327.400 1016.100 327.500 1016.100 H 333.400 C 333.455 1016.100 333.500 1016.055 333.500 1016.000 V 998.000 C 333.500 997.945 333.455 997.900 333.400 997.900 H 327.500 C 327.400 997.900 327.500 998.000 327.500 997.900 V 980.100 C 327.500 980.000 327.400 980.100 327.500 980.100 H 333.400 C 333.455 980.100 333.500 980.055 333.500 980.000 V 962.000 C 333.500 961.945 333.455 961.900 333.400 961.900 H 327.500 C 327.400 961.900 327.500 962.000 327.500 961.900 V 944.100 C 327.500 944.000 327.400 944.100 327.500 944.100 H 333.400 C 333.455 944.100 333.500 944.055 333.500 944.000 V 926.000 C 333.500 925.945 333.455 925.900 333.400 925.900 H 327.500 C 327.400 925.900 327.500 926.000 327.500 925.900 V 908.100 C 327.500 908.000 327.400 908.100 327.500 908.100 H 333.400 C 333.455 908.100 333.500 908.055 333.500 908.000 V 890.000 C 333.500 889.945 333.455 889.900 333.400 889.900 H 327.500 C 327.400 889.900 327.500 890.000 327.500 889.900 V 872.100 C 327.500 872.000 327.400 872.100 327.500 872.100 H 333.400 C 333.455 872.100 333.500 872.055 333.500 872.000 V 854.000 C 333.500 853.945 333.455 853.900 333.400 853.900 H 327.500 C 327.400 853.900 327.500 854.000 327.500 853.900 V 836.100 C 327.500 836.000 327.400 836.100 327.500 836.100 H 333.400 C 333.455 836.100 333.500 836.055 333.500 836.000 V 818.000 C 333.500 817.945 333.455 817.900 333.400 817.900 H 327.500 C 327.400 817.900 327.500 818.000 327.500 817.900 V 800.100 C 327.500 800.000 327.400 800.100 327.500 800.100 H 333.400 C 333.455 800.100 333.500 800.055 333.500 800.000 V 758.500 C 333.500 758.445 333.455 758.400 333.400 758.400 H 327.400 H 16.400 H 10.400 C 10.345 758.400 10.300 758.445 10.300 758.500 V 800.000 C 10.300 800.055 10.345 800.100 10.400 800.100 H 16.300 C 16.400 800.100 16.300 800.000 16.300 800.100 V 817.900 C 16.300 818.000 16.400 817.900 16.300 817.900 H 10.400 C 10.345 817.900 10.300 817.945 10.300 818.000 V 836.000 C 10.300 836.055 10.345 836.100 10.400 836.100 H 16.300 C 16.400 836.100 16.300 836.000 16.300 836.100 V 853.900 C 16.300 854.000 16.400 853.900 16.300 853.900 H 10.400 C 10.345 853.900 10.300 853.945 10.300 854.000 V 872.000 C 10.300 872.055 10.345 872.100 10.400 872.100 H 16.300 C 16.400 872.100 16.300 872.000 16.300 872.100 V 889.900 C 16.300 890.000 16.400 889.900 16.300 889.900 H 10.400 C 10.345 889.900 10.300 889.945 10.300 890.000 V 908.000 C 10.300 908.055 10.345 908.100 10.400 908.100 H 16.300 C 16.400 908.100 16.300 908.000 16.300 908.100 V 925.900 C 16.300 926.000 16.400 925.900 16.300 925.900 H 10.400 C 10.345 925.900 10.300 925.945 10.300 926.000 V 944.000 C 10.300 944.055 10.345 944.100 10.400 944.100 H 16.300 C 16.400 944.100 16.300 944.000 16.300 944.100 V 961.900 C 16.300 962.000 16.400 961.900 16.300 961.900 H 10.400 C 10.345 961.900 10.300 961.945 10.300 962.000 V 980.000 C 10.300 980.055 10.345 980.100 10.400 980.100 H 16.300 C 16.400 980.100 16.300 980.000 16.300 980.100 V 997.900 C 16.300 998.000 16.400 997.900 16.300 997.900 H 10.400 C 10.345 997.900 10.300 997.945 10.300 998.000 V 1016.000 C 10.300 1016.055 10.345 1016.100 10.400 1016.100 H 16.300 C 16.400 1016.100 16.300 1016.000 16.300 1016.100 V 1033.900 C 16.300 1034.000 16.400 1033.900 16.300 1033.900 H 10.400 C 10.345 1033.900 10.300 1033.945 10.300 1034.000 V 1075.500 C 10.300 1075.555 10.345 1075.600 10.400 1075.600 H 16.400 Z" stroke="rgb(0,0,0)" stroke-width="0.20" />
</g>
<g id="p-2" style="fill:none;stroke-linecap:round;stroke-linejoin:round;">
  <path d="M 16.400 755.400 H 54.900 C 54.955 755.400 55.000 755.355 55.000 755.300 V 749.400 C 55.000 749.300 54.900 749.400 55.000 749.400 H 72.800 C 72.900 749.400 72.800 749.300 72.800 749.400 V 755.300 C 72.800 755.355 72.845 755.400 72.900 755.400 H 90.900 C 90.955 755.400 91.000 755.355 91.000 755.300 V 749.400 C 91.000 749.300 90.900 749.400 91.000 749.400 H 108.800 C 108.900 749.400 108.800 749.300 108.800 749.400 V 755.300 C 108.800 755.355 108.845 755.400 108.900 755.400 H 126.900 C 126.955 755.400 127.000 755.355 127.000 755.300 V 749.400 C 127.000 749.300 126.900 749.400 127.000 749.400 H 144.800 C 144.900 749.400 144.800 749.300 144.800 749.400 V 755.300 C 144.800 755.355 144.845 755.400 144.900 755.400 H 162.900 C 162.955 755.400 163.000 755.355 163.000 755.300 V 749.400 C 163.000 749.300 162.900 749.400 163.000 749.400 H 180.800 C 180.900 749.400 180.800 749.300 180.800 749.400 V 755.300 C 180.800 755.355 180.845 755.400 180.900 755.400 H 198.900 C 198.955 755.400 199.000 755.355 199.000 755.300 V 749.400 C 199.000 749.300 198.900 749.400 199.000 749.400 H 216.800 C 216.900 749.400 216.800 749.300 216.800 749.400 V 755.300 C 216.800 755.355 216.845 755.400 216.900 755.400 H 234.900 C 234.955 755.400 235.000 755.355 235.000 755.300 V 749.400 C 235.000 749.300 234.900 749.400 235.000 749.400 H 252.800 C 252.900 749.400 252.800 749.300 252.800 749.400 V 755.300 C 252.800 755.355 252.845 755.400 252.900 755.400 H 270.900 C 270.955 755.400 271.000 755.355 271.000 755.300 V 749.400 C 271.000 749.300 270.900 749.400 271.000 749.400 H 288.800 C 288.900 749.400 288.800 749.300 288.800 749.400 V 755.300 C 288.800 755.355 288.845 755.400 288.900 755.400 H 327.400 H 333.400 C 333.455 755.400 333.500 755.355 333.500 755.300 V 713.800 C 333.500 713.745 333.455 713.700 333.400 713.700 H 327.500 C 327.400 713.700 327.500 713.800 327.500 713.700 V 695.900 C 327.500 695.800 327.400 695.900 327.500 695.900 H 333.400 C 333.455 695.900 333.500 695.855 333.500 695.800 V 677.800 C 333.500 677.745 333.455 677.700 333.400 677.700 H 327.500 C 327.400 677.700 327.500 677.800 327.500 677.700 V 659.900 C 327.500 659.800 327.400 659.900 327.500 659.900 H 333.400 C 333.455 659.900 333.500 659.855 333.500 659.800 V 641.800 C 333.500 641.745 333.455 641.700 333.400 641.700 H 327.500 C 327.400 641.700 327.500 641.800 327.500 641.700 V 623.900 C 327.500 623.800 327.400 623.900 327.500 623.900 H 333.400 C 333.455 623.900 333.500 623.855 333.500 623.800 V 605.800 C 333.500 605.745 333.455 605.700 333.400 605.700 H 327.500 C 327.400 605.700 327.500 605.800 327.500 605.700 V 587.900 C 327.500 587.800 327.400 587.900 327.500 587.900 H 333.400 C 333.455 587.900 333.500 587.855 333.500 587.800 V 569.800 C 333.500 569.745 333.455 569.700 333.400 569.700 H 327.500 C 327.400 569.700 327.500 569.800 327.500 569.700 V 551.900 C 327.500 551.800 327.400 551.900 327.500 551.900 H 333.400 C 333.455 551.900 333.500 551.855 333.500 551.800 V 533.800 C 333.500 533.745 333.455 533.700 333.400 533.700 H 327.500 C 327.400 533.700 327.500 533.800 327.500 533.700 V 515.900 C 327.500 515.800 327.400 515.900 327.500 515.900 H 333.400 C 333.455 515.900 333.500 515.855 333.500 515.800 V 497.800 C 333.500 497.745 333.455 497.700 333.400 497.700 H 327.500 C 327.400 497.700 327.500 497.800 327.500 497.700 V 479.900 C 327.500 479.800 327.400 479.900 327.500 479.900 H 333.400 C 333.455 479.900 333.500 479.855 333.500 479.800 V 438.300 C 333.500 438.245 333.455 438.200 333.400 438.200 H 327.400 H 16.400 H 10.400 C 10.345 438.200 10.300 438.245 10.300 438.300 V 479.800 C 10.300 479.855 10.345 479.900 10.400 479.900 H 16.300 C 16.400 479.900 16.300 479.800 16.300 479.900 V 497.700 C 16.300 497.800 16.400 497.700 16.300 497.700 H 10.400 C 10.345 497.700 10.300 497.745 10.300 497.800 V 515.800 C 10.300 515.855 10.345 515.900 10.400 515.900 H 16.300 C 16.400 515.900 16.300 515.800 16.300 515.900 V 533.700 C 16.300 533.800 16.400 533.700 16.300 533.700 H 10.400 C 10.345 533.700 10.300 533.745 10.300 533.800 V 551.800 C 10.300 551.855 10.345 551.900 10.400 551.900 H 16.300 C 16.400 551.900 16.300 551.800 16.300 551.900 V 569.700 C 16.300 569.800 16.400 569.700 16.300 569.700 H 10.400 C 10.345 569.700 10.300 569.745 10.300 569.800 V 587.800 C 10.300 587.855 10.345 587.900 10.400 587.900 H 16.300 C 16.400 587.900 16.300 587.800 16.300 587.900 V 605.700 C 16.300 605.800 16.400 605.700 16.300 605.700 H 10.400 C 10.345 605.700 10.300 605.745 10.300 605.800 V 623.800 C 10.300 623.855 10.345 623.900 10.400 623.900 H 16.300 C 16.400 623.900 16.300 623.800 16.300 623.900 V 641.700 C 16.300 641.800 16.400 641.700 16.300 641.700 H 10.400 C 10.345 641.700 10.300 641.745 10.300 641.800 V 659.800 C 10.300 659.855 10.345 659.900 10.400 659.900 H 16.300 C 16.400 659.900 16.300 659.800 16.300 659.900 V 677.700 C 16.300 677.800 16.400 677.700 16.300 677.700 H 10.400 C 10.345 677.700 10.300 677.745 10.300 677.800 V 695.800 C 10.300 695.855 10.345 695.900 10.400 695.900 H 16.300 C 16.400 695.900 16.300 695.800 16.300 695.900 V 713.700 C 16.300 713.800 16.400 713.700 16.300 713.700 H 10.400 C 10.345 713.700 10.300 713.745 10.300 713.800 V 755.300 C 10.300 755.355 10.345 755.400 10.400 755.400 H 16.400 Z" stroke="rgb(0,0,0)" stroke-width="0.20" />
</g>
<g id="p-3" style="fill:none;stroke-linecap:round;stroke-linejoin:round;">
  <path d="M 16.400 429.200 H 54.800 C 54.900 429.200 54.800 429.100 54.800 429.200 V 435.100 C 54.800 435.155 54.845 435.200 54.900 435.200 H 72.900 C 72.955 435.200 73.000 435.155 73.000 435.100 V 429.200 C 73.000 429.100 72.900 429.200 73.000 429.200 H 90.800 C 90.900 429.200 90.800 429.100 90.800 429.200 V 435.100 C 90.800 435.155 90.845 435.200 90.900 435.200 H 108.900 C 108.955 435.200 109.000 435.155 109.000 435.100 V 429.200 C 109.000 429.100 108.900 429.200 109.000 429.200 H 126.800 C 126.900 429.200 126.800 429.100 126.800 429.200 V 435.100 C 126.800 435.155 126.845 435.200 126.900 435.200 H 144.900 C 144.955 435.200 145.000 435.155 145.000 435.100 V 429.200 C 145.000 429.100 144.900 429.200 145.000 429.200 H 162.800 C 162.900 429.200 162.800 429.100 162.800 429.200 V 435.100 C 162.800 435.155 162.845 435.200 162.900 435.200 H 180.900 C 180.955 435.200 181.000 435.155 181.000 435.100 V 429.200 C 181.000 429.100 180.900 429.200 181.000 429.200 H 198.800 C 198.900 429.200 198.800 429.100 198.800 429.200 V 435.100 C 198.800 435.155 198.845 435.200 198.900 435.200 H 216.900 C 216.955 435.200 217.000 435.155 217.000 435.100 V 429.200 C 217.000 429.100 216.900 429.200 217.000 429.200 H 234.800 C 234.900 429.200 234.800 429.100 234.800 429.200 V 435.100 C 234.800 435.155 234.845 435.200 234.900 435.200 H 252.900 C 252.955 435.200 253.000 435.155 253.000 435.100 V 429.200 C 253.000 429.100 252.900 429.200 253.000 429.200 H 270.800 C 270.900 429.200 270.800 429.100 270.800 429.200 V 435.100 C 270.800 435.155 270.845 435.200 270.900 435.200 H 288.900 C 288.955 435.200 289.000 435.155 289.000 435.100 V 429.200 C 289.000 429.100 288.900 429.200 289.000 429.200 H 327.400 C 327.455 429.200 327.500 429.155 327.500 429.100 V 393.700 C 327.500 393.600 327.400 393.700 327.500 393.700 H 333.400 C 333.455 393.700 333.500 393.655 333.500 393.600 V 375.600 C 333.500 375.545 333.455 375.500 333.400 375.500 H 327.500 C 327.400 375.500 327.500 375.600 327.500 375.500 V 357.700 C 327.500 357.600 327.400 357.700 327.500 357.700 H 333.400 C 333.455 357.700 333.500 357.655 333.500 357.600 V 339.600 C 333.500 339.545 333.455 339.500 333.400 339.500 H 327.500 C 327.400 339.500 327.500 339.600 327.500 339.500 V 321.700 C 327.500 321.600 327.400 321.700 327.500 321.700 H 333.400 C 333.455 321.700 333.500 321.655 333.500 321.600 V 303.600 C 333.500 303.545 333.455 303.500 333.400 303.500 H 327.500 C 327.400 303.500 327.500 303.600 327.500 303.500 V 285.700 C 327.500 285.600 327.400 285.700 327.500 285.700 H 333.400 C 333.455 285.700 333.500 285.655 333.500 285.600 V 267.600 C 333.500 267.545 333.455 267.500 333.400 267.500 H 327.500 C 327.400 267.500 327.500 267.600 327.500 267.500 V 249.700 C 327.500 249.600 327.400 249.700 327.500 249.700 H 333.400 C 333.455 249.700 333.500 249.655 333.500 249.600 V 231.600 C 333.500 231.545 333.455 231.500 333.400 231.500 H 327.500 C 327.400 231.500 327.500 231.600 327.500 231.500 V 213.700 C 327.500 213.600 327.400 213.700 327.500 213.700 H 333.400 C 333.455 213.700 333.500 213.655 333.500 213.600 V 195.600 C 333.500 195.545 333.455 195.500 333.400 195.500 H 327.500 C 327.400 195.500 327.500 195.600 327.500 195.500 V 177.700 C 327.500 177.600 327.400 177.700 327.500 177.700 H 333.400 C 333.455 177.700 333.500 177.655 333.500 177.600 V 159.600 C 333.500 159.545 333.455 159.500 333.400 159.500 H 327.500 C 327.400 159.500 327.500 159.600 327.500 159.500 V 141.700 C 327.500 141.600 327.400 141.700 327.500 141.700 H 333.400 C 333.455 141.700 333.500 141.655 333.500 141.600 V 123.600 C 333.500 123.545 333.455 123.500 333.400 123.500 H 327.500 C 327.400 123.500 327.500 123.600 327.500 123.500 V 105.700 C 327.500 105.600 327.400 105.700 327.500 105.700 H 333.400 C 333.455 105.700 333.500 105.655 333.500 105.600 V 87.600 C 333.500 87.545 333.455 87.500 333.400 87.500 H 327.500 C 327.400 87.500 327.500 87.600 327.500 87.500 V 69.700 C 327.500 69.600 327.400 69.700 327.500 69.700 H 333.400 C 333.455 69.700 333.500 69.655 333.500 69.600 V 51.600 C 333.500 51.545 333.455 51.500 333.400 51.500 H 327.500 C 327.400 51.500 327.500 51.600 327.500 51.500 V 16.100 C 327.500 16.045 327.455 16.000 327.400 16.000 H 289.000 C 288.900 16.000 289.000 16.100 289.000 16.000 V 10.100 C 289.000 10.045 288.955 10.000 288.900 10.000 H 270.900 C 270.845 10.000 270.800 10.045 270.800 10.100 V 16.000 C 270.800 16.100 270.900 16.000 270.800 16.000 H 253.000 C 252.900 16.000 253.000 16.100 253.000 16.000 V 10.100 C 253.000 10.045 252.955 10.000 252.900 10.000 H 234.900 C 234.845 10.000 234.800 10.045 234.800 10.100 V 16.000 C 234.800 16.100 234.900 16.000 234.800 16.000 H 217.000 C 216.900 16.000 217.000 16.100 217.000 16.000 V 10.100 C 217.000 10.045 216.955 10.000 216.900 10.000 H 198.900 C 198.845 10.000 198.800 10.045 198.800 10.100 V 16.000 C 198.800 16.100 198.900 16.000 198.800 16.000 H 181.000 C 180.900 16.000 181.000 16.100 181.000 16.000 V 10.100 C 181.000 10.045 180.955 10.000 180.900 10.000 H 162.900 C 162.845 10.000 162.800 10.045 162.800 10.100 V 16.000 C 162.800 16.100 162.900 16.000 162.800 16.000 H 145.000 C 144.900 16.000 145.000 16.100 145.000 16.000 V 10.100 C 145.000 10.045 144.955 10.000 144.900 10.000 H 126.900 C 126.845 10.000 126.800 10.045 126.800 10.100 V 16.000 C 126.800 16.100 126.900 16.000 126.800 16.000 H 109.000 C 108.900 16.000 109.000 16.100 109.000 16.000 V 10.100 C 109.000 10.045 108.955 10.000 108.900 10.000 H 90.900 C 90.845 10.000 90.800 10.045 90.800 10.100 V 16.000 C 90.800 16.100 90.900 16.000 90.800 16.000 H 73.000 C 72.900 16.000 73.000 16.100 73.000 16.000 V 10.100 C 73.000 10.045 72.955 10.000 72.900 10.000 H 54.900 C 54.845 10.000 54.800 10.045 54.800 10.100 V 16.000 C 54.800 16.100 54.900 16.000 54.800 16.000 H 16.400 C 16.345 16.000 16.300 16.045 16.300 16.100 V 51.500 C 16.300 51.600 16.400 51.500 16.300 51.500 H 10.400 C 10.345 51.500 10.300 51.545 10.300 51.600 V 69.600 C 10.300 69.655 10.345 69.700 10.400 69.700 H 16.300 C 16.400 69.700 16.300 69.600 16.300 69.700 V 87.500 C 16.300 87.600 16.400 87.500 16.300 87.500 H 10.400 C 10.345 87.500 10.300 87.545 10.300 87.600 V 105.600 C 10.300 105.655 10.345 105.700 10.400 105.700 H 16.300 C 16.400 105.700 16.300 105.600 16.300 105.700 V 123.500 C 16.300 123.600 16.400 123.500 16.300 123.500 H 10.400 C 10.345 123.500 10.300 123.545 10.300 123.600 V 141.600 C 10.300 141.655 10.345 141.700 10.400 141.700 H 16.300 C 16.400 141.700 16.300 141.600 16.300 141.700 V 159.500 C 16.300 159.600 16.400 159.500 16.300 159.500 H 10.400 C 10.345 159.500 10.300 159.545 10.300 159.600 V 177.600 C 10.300 177.655 10.345 177.700 10.400 177.700 H 16.300 C 16.400 177.700 16.300 177.600 16.300 177.700 V 195.500 C 16.300 195.600 16.400 195.500 16.300 195.500 H 10.400 C 10.345 195.500 10.300 195.545 10.300 195.600 V 213.600 C 10.300 213.655 10.345 213.700 10.400 213.700 H 16.300 C 16.400 213.700 16.300 213.600 16.300 213.700 V 231.500 C 16.300 231.600 16.400 231.500 16.300 231.500 H 10.400 C 10.345 231.500 10.300 231.545 10.300 231.600 V 249.600 C 10.300 249.655 10.345 249.700 10.400 249.700 H 16.300 C 16.400 249.700 16.300 249.600 16.300 249.700 V 267.500 C 16.300 267.600 16.400 267.500 16.300 267.500 H 10.400 C 10.345 267.500 10.300 267.545 10.300 267.600 V 285.600 C 10.300 285.655 10.345 285.700 10.400 285.700 H 16.300 C 16.400 285.700 16.300 285.600 16.300 285.700 V 303.500 C 16.300 303.600 16.400 303.500 16.300 303.500 H 10.400 C 10.345 303.500 10.300 303.545 10.300 303.600 V 321.600 C 10.300 321.655 10.345 321.700 10.400 321.700 H 16.300 C 16.400 321.700 16.300 321.600 16.300 321.700 V 339.500 C 16.300 339.600 16.400 339.500 16.300 339.500 H 10.400 C 10.345 339.500 10.300 339.545 10.300 339.600 V 357.600 C 10.300 357.655 10.345 357.700 10.400 357.700 H 16.300 C 16.400 357.700 16.300 357.600 16.300 357.700 V 375.500 C 16.300 375.600 16.400 375.500 16.300 375.500 H 10.400 C 10.345 375.500 10.300 375.545 10.300 375.600 V 393.600 C 10.300 393.655 10.345 393.700 10.400 393.700 H 16.300 C 16.400 393.700 16.300 393.600 16.300 393.700 V 429.100 C 16.300 429.155 16.345 429.200 16.400 429.200 Z" stroke="rgb(0,0,0)" stroke-width="0.20" />
</g>
<g id="p-4" style="fill:none;stroke-linecap:round;stroke-linejoin:round;">
  <path d="M 342.600 1075.600 H 378.100 C 378.155 1075.600 378.200 1075.555 378.200 1075.500 V 1069.600 C 378.200 1069.500 378.100 1069.600 378.200 1069.600 H 396.000 C 396.100 1069.600 396.000 1069.500 396.000 1069.600 V 1075.500 C 396.000 1075.555 396.045 1075.600 396.100 1075.600 H 414.100 C 414.155 1075.600 414.200 1075.555 414.200 1075.500 V 1069.600 C 414.200 1069.500 414.100 1069.600 414.200 1069.600 H 432.000 C 432.100 1069.600 432.000 1069.500 432.000 1069.600 V 1075.500 C 432.000 1075.555 432.045 1075.600 432.100 1075.600 H 450.100 C 450.155 1075.600 450.200 1075.555 450.200 1075.500 V 1069.600 C 450.200 1069.500 450.100 1069.600 450.200 1069.600 H 468.000 C 468.100 1069.600 468.000 1069.500 468.000 1069.600 V 1075.500 C 468.000 1075.555 468.045 1075.600 468.100 1075.600 H 486.100 C 486.155 1075.600 486.200 1075.555 486.200 1075.500 V 1069.600 C 486.200 1069.500 486.100 1069.600 486.200 1069.600 H 504.000 C 504.100 1069.600 504.000 1069.500 504.000 1069.600 V 1075.500 C 504.000 1075.555 504.045 1075.600 504.100 1075.600 H 522.100 C 522.155 1075.600 522.200 1075.555 522.200 1075.500 V 1069.600 C 522.200 1069.500 522.100 1069.600 522.200 1069.600 H 540.000 C 540.100 1069.600 540.000 1069.500 540.000 1069.600 V 1075.500 C 540.000 1075.555 540.045 1075.600 540.100 1075.600 H 558.100 C 558.155 1075.600 558.200 1075.555 558.200 1075.500 V 1069.600 C 558.200 1069.500 558.100 1069.600 558.200 1069.600 H 576.000 C 576.100 1069.600 576.000 1069.500 576.000 1069.600 V 1075.500 C 576.000 1075.555 576.045 1075.600 576.100 1075.600 H 594.100 C 594.155 1075.600 594.200 1075.555 594.200 1075.500 V 1069.600 C 594.200 1069.500 594.100 1069.600 594.200 1069.600 H 612.000 C 612.100 1069.600 612.000 1069.500 612.000 1069.600 V 1075.500 C 612.000 1075.555 612.045 1075.600 612.100 1075.600 H 630.100 C 630.155 1075.600 630.200 1075.555 630.200 1075.500 V 1069.600 C 630.200 1069.500 630.100 1069.600 630.200 1069.600 H 648.000 C 648.100 1069.600 648.000 1069.500 648.000 1069.600 V 1075.500 C 648.000 1075.555 648.045 1075.600 648.100 1075.600 H 666.100 C 666.155 1075.600 666.200 1075.555 666.200 1075.500 V 1069.600 C 666.200 1069.500 666.100 1069.600 666.200 1069.600 H 684.000 C 684.100 1069.600 684.000 1069.500 684.000 1069.600 V 1075.500 C 684.000 1075.555 684.045 1075.600 684.100 1075.600 H 702.100 C 702.155 1075.600 702.200 1075.555 702.200 1075.500 V 1069.600 C 702.200 1069.500 702.100 1069.600 702.200 1069.600 H 720.000 C 720.100 1069.600 720.000 1069.500 720.000 1069.600 V 1075.500 C 720.000 1075.555 720.045 1075.600 720.100 1075.600 H 755.600 C 755.655 1075.600 755.700 1075.555 755.700 1075.500 V 1034.100 C 755.700 1034.000 755.600 1034.100 755.700 1034.100 H 761.600 C 761.655 1034.100 761.700 1034.055 761.700 1034.000 V 1016.000 C 761.700 1015.945 761.655 1015.900 761.600 1015.900 H 755.700 C 755.600 1015.900 755.700 1016.000 755.700 1015.900 V 998.100 C 755.700 998.000 755.600 998.100 755.700 998.100 H 761.600 C 761.655 998.100 761.700 998.055 761.700 998.000 V 980.000 C 761.700 979.945 761.655 979.900 761.600 979.900 H 755.700 C 755.600 979.900 755.700 980.000 755.700 979.900 V 962.100 C 755.700 962.000 755.600 962.100 755.700 962.100 H 761.600 C 761.655 962.100 761.700 962.055 761.700 962.000 V 944.000 C 761.700 943.945 761.655 943.900 761.600 943.900 H 755.700 C 755.600 943.900 755.700 944.000 755.700 943.900 V 926.100 C 755.700 926.000 755.600 926.100 755.700 926.100 H 761.600 C 761.655 926.100 761.700 926.055 761.700 926.000 V 908.000 C 761.700 907.945 761.655 907.900 761.600 907.900 H 755.700 C 755.600 907.900 755.700 908.000 755.700 907.900 V 890.100 C 755.700 890.000 755.600 890.100 755.700 890.100 H 761.600 C 761.655 890.100 761.700 890.055 761.700 890.000 V 872.000 C 761.700 871.945 761.655 871.900 761.600 871.900 H 755.700 C 755.600 871.900 755.700 872.000 755.700 871.900 V 854.100 C 755.700 854.000 755.600 854.100 755.700 854.100 H 761.600 C 761.655 854.100 761.700 854.055 761.700 854.000 V 836.000 C 761.700 835.945 761.655 835.900 761.600 835.900 H 755.700 C 755.600 835.900 755.700 836.000 755.700 835.900 V 818.100 C 755.700 818.000 755.600 818.100 755.700 818.100 H 761.600 C 761.655 818.100 761.700 818.055 761.700 818.000 V 800.000 C 761.700 799.945 761.655 799.900 761.600 799.900 H 755.700 C 755.600 799.900 755.700 800.000 755.700 799.900 V 758.500 C 755.700 758.445 755.655 758.400 755.600 758.400 H 342.600 C 342.545 758.400 342.500 758.445 342.500 758.500 V 799.900 C 342.500 800.000 342.600 799.900 342.500 799.900 H 336.600 C 336.545 799.900 336.500 799.945 336.500 800.000 V 818.000 C 336.500 818.055 336.545 818.100 336.600 818.100 H 342.500 C 342.600 818.100 342.500 818.000 342.500 818.100 V 835.900 C 342.500 836.000 342.600 835.900 342.500 835.900 H 336.600 C 336.545 835.900 336.500 835.945 336.500 836.000 V 854.000 C 336.500 854.055 336.545 854.100 336.600 854.100 H 342.500 C 342.600 854.100 342.500 854.000 342.500 854.100 V 871.900 C 342.500 872.000 342.600 871.900 342.500 871.900 H 336.600 C 336.545 871.900 336.500 871.945 336.500 872.000 V 890.000 C 336.500 890.055 336.545 890.100 336.600 890.100 H 342.500 C 342.600 890.100 342.500 890.000 342.500 890.100 V 907.900 C 342.500 908.000 342.600 907.900 342.500 907.900 H 336.600 C 336.545 907.900 336.500 907.945 336.500 908.000 V 926.000 C 336.500 926.055 336.545 926.100 336.600 926.100 H 342.500 C 342.600 926.100 342.500 926.000 342.500 926.100 V 943.900 C 342.500 944.000 342.600 943.900 342.500 943.900 H 336.600 C 336.545 943.900 336.500 943.945 336.500 944.000 V 962.000 C 336.500 962.055 336.545 962.100 336.600 962.100 H 342.500 C 342.600 962.100 342.500 962.000 342.500 962.100 V 979.900 C 342.500 980.000 342.600 979.900 342.500 979.900 H 336.600 C 336.545 979.900 336.500 979.945 336.500 980.000 V 998.000 C 336.500 998.055 336.545 998.100 336.600 998.100 H 342.500 C 342.600 998.100 342.500 998.000 342.500 998.100 V 1015.900 C 342.500 1016.000 342.600 1015.900 342.500 1015.900 H 336.600 C 336.545 1015.900 336.500 1015.945 336.500 1016.000 V 1034.000 C 336.500 1034.055 336.545 1034.100 336.600 1034.100 H 342.500 C 342.600 1034.100 342.500 1034.000 342.500 1034.100 V 1075.500 C 342.500 1075.555 342.545 1075.600 342.600 1075.600 Z" stroke="rgb(0,0,0)" stroke-width="0.20" />
</g>
<g id="p-5" style="fill:none;stroke-linecap:round;stroke-linejoin:round;">
  <path d="M 342.600 755.400 H 378.100 C 378.155 755.400 378.200 755.355 378.200 755.300 V 749.400 C 378.200 749.300 378.100 749.400 378.200 749.400 H 396.000 C 396.100 749.400 396.000 749.300 396.000 749.400 V 755.300 C 396.000 755.355 396.045 755.400 396.100 755.400 H 414.100 C 414.155 755.400 414.200 755.355 414.200 755.300 V 749.400 C 414.200 749.300 414.100 749.400 414.200 749.400 H 432.000 C 432.100 749.400 432.000 749.300 432.000 749.400 V 755.300 C 432.000 755.355 432.045 755.400 432.100 755.400 H 450.100 C 450.155 755.400 450.200 755.355 450.200 755.300 V 749.400 C 450.200 749.300 450.100 749.400 450.200 749.400 H 468.000 C 468.100 749.400 468.000 749.300 468.000 749.400 V 755.300 C 468.000 755.355 468.045 755.400 468.100 755.400 H 486.100 C 486.155 755.400 486.200 755.355 486.200 755.300 V 749.400 C 486.200 749.300 486.100 749.400 486.200 749.400 H 504.000 C 504.100 749.400 504.000 749.300 504.000 749.400 V 755.300 C 504.000 755.355 504.045 755.400 504.100 755.400 H 522.100 C 522.155 755.400 522.200 755.355 522.200 755.300 V 749.400 C 522.200 749.300 522.100 749.400 522.200 749.400 H 540.000 C 540.100 749.400 540.000 749.300 540.000 749.400 V 755.300 C 540.000 755.355 540.045 755.400 540.100 755.400 H 558.100 C 558.155 755.400 558.200 755.355 558.200 755.300 V 749.400 C 558.200 749.300 558.100 749.400 558.200 749.400 H 576.000 C 576.100 749.400 576.000 749.300 576.000 749.400 V 755.300 C 576.000 755.355 576.045 755.400 576.100 755.400 H 594.100 C 594.155 755.400 594.200 755.355 594.200 755.300 V 749.400 C 594.200 749.300 594.100 749.400 594.200 749.400 H 612.000 C 612.100 749.400 612.000 749.300 612.000 749.400 V 755.300 C 612.000 755.355 612.045 755.400 612.100 755.400 H 630.100 C 630.155 755.400 630.200 755.355 630.200 755.300 V 749.400 C 630.200 749.300 630.100 749.400 630.200 749.400 H 648.000 C 648.100 749.400 648.000 749.300 648.000 749.400 V 755.300 C 648.000 755.355 648.045 755.400 648.100 755.400 H 666.100 C 666.155 755.400 666.200 755.355 666.200 755.300 V 749.400 C 666.200 749.300 666.100 749.400 666.200 749.400 H 684.000 C 684.100 749.400 684.000 749.300 684.000 749.400 V 755.300 C 684.000 755.355 684.045 755.400 684.100 755.400 H 702.100 C 702.155 755.400 702.200 755.355 702.200 755.300 V 749.400 C 702.200 749.300 702.100 749.400 702.200 749.400 H 720.000 C 720.100 749.400 720.000 749.300 720.000 749.400 V 755.300 C 720.000 755.355 720.045 755.400 720.100 755.400 H 755.600 C 755.655 755.400 755.700 755.355 755.700 755.300 V 713.900 C 755.700 713.800 755.600 713.900 755.700 713.900 H 761.600 C 761.655 713.900 761.700 713.855 761.700 713.800 V 695.800 C 761.700 695.745 761.655 695.700 761.600 695.700 H 755.700 C 755.600 695.700 755.700 695.800 755.700 695.700 V 677.900 C 755.700 677.800 755.600 677.900 755.700 677.900 H 761.600 C 761.655 677.900 761.700 677.855 761.700 677.800 V 659.800 C 761.700 659.745 761.655 659.700 761.600 659.700 H 755.700 C 755.600 659.700 755.700 659.800 755.700 659.700 V 641.900 C 755.700 641.800 755.600 641.900 755.700 641.900 H 761.600 C 761.655 641.900 761.700 641.855 761.700 641.800 V 623.800 C 761.700 623.745 761.655 623.700 761.600 623.700 H 755.700 C 755.600 623.700 755.700 623.800 755.700 623.700 V 605.900 C 755.700 605.800 755.600 605.900 755.700 605.900 H 761.600 C 761.655 605.900 761.700 605.855 761.700 605.800 V 587.800 C 761.700 587.745 761.655 587.700 761.600 587.700 H 755.700 C 755.600 587.700 755.700 587.800 755.700 587.700 V 569.900 C 755.700 569.800 755.600 569.900 755.700 569.900 H 761.600 C 761.655 569.900 761.700 569.855 761.700 569.800 V 551.800 C 761.700 551.745 761.655 551.700 761.600 551.700 H 755.700 C 755.600 551.700 755.700 551.800 755.700 551.700 V 533.900 C 755.700 533.800 755.600 533.900 755.700 533.900 H 761.600 C 761.655 533.900 761.700 533.855 761.700 533.800 V 515.800 C 761.700 515.745 761.655 515.700 761.600 515.700 H 755.700 C 755.600 515.700 755.700 515.800 755.700 515.700 V 497.900 C 755.700 497.800 755.600 497.900 755.700 497.900 H 761.600 C 761.655 497.900 761.700 497.855 761.700 497.800 V 479.800 C 761.700 479.745 761.655 479.700 761.600 479.700 H 755.700 C 755.600 479.700 755.700 479.800 755.700 479.700 V 438.300 C 755.700 438.245 755.655 438.200 755.600 438.200 H 342.600 C 342.545 438.200 342.500 438.245 342.500 438.300 V 479.700 C 342.500 479.800 342.600 479.700 342.500 479.700 H 336.600 C 336.545 479.700 336.500 479.745 336.500 479.800 V 497.800 C 336.500 497.855 336.545 497.900 336.600 497.900 H 342.500 C 342.600 497.900 342.500 497.800 342.500 497.900 V 515.700 C 342.500 515.800 342.600 515.700 342.500 515.700 H 336.600 C 336.545 515.700 336.500 515.745 336.500 515.800 V 533.800 C 336.500 533.855 336.545 533.900 336.600 533.900 H 342.500 C 342.600 533.900 342.500 533.800 342.500 533.900 V 551.700 C 342.500 551.800 342.600 551.700 342.500 551.700 H 336.600 C 336.545 551.700 336.500 551.745 336.500 551.800 V 569.800 C 336.500 569.855 336.545 569.900 336.600 569.900 H 342.500 C 342.600 569.900 342.500 569.800 342.500 569.900 V 587.700 C 342.500 587.800 342.600 587.700 342.500 587.700 H 336.600 C 336.545 587.700 336.500 587.745 336.500 587.800 V 605.800 C 336.500 605.855 336.545 605.900 336.600 605.900 H 342.500 C 342.600 605.900 342.500 605.800 342.500 605.900 V 623.700 C 342.500 623.800 342.600 623.700 342.500 623.700 H 336.600 C 336.545 623.700 336.500 623.745 336.500 623.800 V 641.800 C 336.500 641.855 336.545 641.900 336.600 641.900 H 342.500 C 342.600 641.900 342.500 641.800 342.500 641.900 V 659.700 C 342.500 659.800 342.600 659.700 342.500 659.700 H 336.600 C 336.545 659.700 336.500 659.745 336.500 659.800 V 677.800 C 336.500 677.855 336.545 677.900 336.600 677.900 H 342.500 C 342.600 677.900 342.500 677.800 342.500 677.900 V 695.700 C 342.500 695.800 342.600 695.700 342.500 695.700 H 336.600 C 336.545 695.700 336.500 695.745 336.500 695.800 V 713.800 C 336.500 713.855 336.545 713.900 336.600 713.900 H 342.500 C 342.600 713.900 342.500 713.800 342.500 713.900 V 755.300 C 342.500 755.355 342.545 755.400 342.600 755.400 Z" stroke="rgb(0,0,0)" stroke-width="0.20" />
</g>
</svg>