<?xml version="1.0" standalone="no"?>
<!DOCTYPE svg PUBLIC "-//W3C//DTD SVG 1.1//EN" "http://www.w3.org/Graphics/SVG/1.1/DTD/svg11.dtd">
<svg width="74mm" height="46mm" viewBox="-37 -23 74 46" xmlns="http://www.w3.org/2000/svg" version="1.1">
<title>OpenSCAD Model</title>
<path d="
M 31.1911,22.7444 L 33,21.9952 L 34.5533,20.8033 L 35.7452,19.25 L 36.4944,17.4411 L 36.75,15.5
 L 36.75,-15.5 L 36.4944,-17.4411 L 35.7452,-19.25 L 34.5533,-20.8033 L 33,-21.9952 L 31.1911,-22.7444
 L 29.25,-23 L -29.25,-23 L -31.1911,-22.7444 L -33,-21.9952 L -34.5533,-20.8033 L -35.7452,-19.25
 L -36.4944,-17.4411 L -36.75,-15.5 L -36.75,15.5 L -36.4944,17.4411 L -35.7452,19.25 L -34.5533,20.8033
 L -33,21.9952 L -31.1911,22.7444 L -29.25,23 L 29.25,23 z
M -26.75,18 L -28.6634,17.6194 L -30.2855,16.5355 L -31.3694,14.9134 L -31.75,13 L -31.75,-13
 L -31.3694,-14.9134 L -30.2855,-16.5355 L -28.6634,-17.6194 L -26.75,-18 L 26.75,-18 L 28.6634,-17.6194
 L 30.2855,-16.5355 L 31.3694,-14.9134 L 31.75,-13 L 31.75,13 L 31.3694,14.9134 L 30.2855,16.5355
 L 28.6634,17.6194 L 26.75,18 z
" stroke="black" fill="lightgray" stroke-width="0.5"/></svg>
