<?xml version="1.0" standalone="no"?>
<!DOCTYPE svg PUBLIC "-//W3C//DTD SVG 1.1//EN" "http://www.w3.org/Graphics/SVG/1.1/DTD/svg11.dtd">
<svg width="82mm" height="82mm" viewBox="-41 -41 82 82" xmlns="http://www.w3.org/2000/svg" version="1.1">
<title>OpenSCAD Model</title>
<path d="
M 3.5298,40.3459 L 7.03275,39.8847 L 10.4822,39.12 L 13.8518,38.0575 L 17.116,36.7055 L 20.25,35.074
 L 23.2298,33.1756 L 26.0329,31.0248 L 28.6378,28.6378 L 31.0248,26.0329 L 33.1756,23.2298 L 35.074,20.25
 L 36.7055,17.116 L 38.0575,13.8518 L 39.12,10.4822 L 39.8847,7.03275 L 40.3459,3.5298 L 40.5,-0
 L 40.3459,-3.5298 L 39.8847,-7.03275 L 39.12,-10.4822 L 38.0575,-13.8518 L 36.7055,-17.116 L 35.074,-20.25
 L 33.1756,-23.2298 L 31.0248,-26.0329 L 28.6378,-28.6378 L 26.0329,-31.0248 L 23.2298,-33.1756 L 20.25,-35.074
 L 17.116,-36.7055 L 13.8518,-38.0575 L 10.4822,-39.12 L 7.03275,-39.8847 L 3.5298,-40.3459 L 0,-40.5
 L -3.5298,-40.3459 L -7.03275,-39.8847 L -10.4822,-39.12 L -13.8518,-38.0575 L -17.116,-36.7055 L -20.25,-35.074
 L -23.2298,-33.1756 L -26.0329,-31.0248 L -28.6378,-28.6378 L -31.0248,-26.0329 L -33.1756,-23.2298 L -35.074,-20.25
 L -36.7055,-17.116 L -38.0575,-13.8518 L -39.12,-10.4822 L -39.8847,-7.03275 L -40.3459,-3.5298 L -40.5,-0
 L -40.3459,3.5298 L -39.8847,7.03275 L -39.12,10.4822 L -38.0575,13.8518 L -36.7055,17.116 L -35.074,20.25
 L -33.1756,23.2298 L -31.0248,26.0329 L -28.6378,28.6378 L -26.0329,31.0248 L -23.2298,33.1756 L -20.25,35.074
 L -17.116,36.7055 L -13.8518,38.0575 L -10.4822,39.12 L -7.03275,39.8847 L -3.5298,40.3459 L 0,40.5
 z
M -3.09402,35.3649 L -6.16451,34.9607 L -9.18806,34.2904 L -12.1417,33.3591 L -15.0029,32.1739 L -17.75,30.7439
 L -20.362,29.0799 L -22.819,27.1946 L -25.1023,25.1023 L -27.1946,22.819 L -29.0799,20.362 L -30.7439,17.75
 L -32.1739,15.0029 L -33.3591,12.1417 L -34.2904,9.18806 L -34.9607,6.16451 L -35.3649,3.09402 L -35.5,-0
 L -35.3649,-3.09402 L -34.9607,-6.16451 L -34.2904,-9.18806 L -33.3591,-12.1417 L -32.1739,-15.0029 L -30.7439,-17.75
 L -29.0799,-20.362 L -27.1946,-22.819 L -25.1023,-25.1023 L -22.819,-27.1946 L -20.362,-29.0799 L -17.75,-30.7439
 L -15.0029,-32.1739 L -12.1417,-33.3591 L -9.18806,-34.2904 L -6.16451,-34.9607 L -3.09402,-35.3649 L 0,-35.5
 L 3.09402,-35.3649 L 6.16451,-34.9607 L 9.18806,-34.2904 L 12.1417,-33.3591 L 15.0029,-32.1739 L 17.75,-30.7439
 L 20.362,-29.0799 L 22.819,-27.1946 L 25.1023,-25.1023 L 27.1946,-22.819 L 29.0799,-20.362 L 30.7439,-17.75
 L 32.1739,-15.0029 L 33.3591,-12.1417 L 34.2904,-9.18806 L 34.9607,-6.16451 L 35.3649,-3.09402 L 35.5,-0
 L 35.3649,3.09402 L 34.9607,6.16451 L 34.2904,9.18806 L 33.3591,12.1417 L 32.1739,15.0029 L 30.7439,17.75
 L 29.0799,20.362 L 27.1946,22.819 L 25.1023,25.1023 L 22.819,27.1946 L 20.362,29.0799 L 17.75,30.7439
 L 15.0029,32.1739 L 12.1417,33.3591 L 9.18806,34.2904 L 6.16451,34.9607 L 3.09402,35.3649 L 0,35.5
 z
" stroke="black" fill="lightgray" stroke-width="0.5"/></svg>
