<?xml version="1.0" standalone="no"?>
<!DOCTYPE svg PUBLIC "-//W3C//DTD SVG 1.1//EN" "http://www.w3.org/Graphics/SVG/1.1/DTD/svg11.dtd">
<svg width="152mm" height="152mm" viewBox="-76 -76 152 152" xmlns="http://www.w3.org/2000/svg" version="1.1">
<title>OpenSCAD Model</title>
<path d="
M 6.62383,75.7108 L 13.1973,74.8454 L 19.6702,73.4104 L 25.9935,71.4166 L 32.119,68.8794 L 38,65.8179
 L 43.5918,62.2556 L 48.8519,58.2194 L 53.7401,53.7401 L 58.2194,48.8519 L 62.2556,43.5918 L 65.8179,38
 L 68.8794,32.119 L 71.4166,25.9935 L 73.4104,19.6702 L 74.8454,13.1973 L 75.7108,6.62383 L 76,-0
 L 75.7108,-6.62383 L 74.8454,-13.1973 L 73.4104,-19.6702 L 71.4166,-25.9935 L 68.8794,-32.119 L 65.8179,-38
 L 62.2556,-43.5918 L 58.2194,-48.8519 L 53.7401,-53.7401 L 48.8519,-58.2194 L 43.5918,-62.2556 L 38,-65.8179
 L 32.119,-68.8794 L 25.9935,-71.4166 L 19.6702,-73.4104 L 13.1973,-74.8454 L 6.62383,-75.7108 L 0,-76
 L -6.62383,-75.7108 L -13.1973,-74.8454 L -19.6702,-73.4104 L -25.9935,-71.4166 L -32.119,-68.8794 L -38,-65.8179
 L -43.5918,-62.2556 L -48.8519,-58.2194 L -53.7401,-53.7401 L -58.2194,-48.8519 L -62.2556,-43.5918 L -65.8179,-38
 L -68.8794,-32.119 L -71.4166,-25.9935 L -73.4104,-19.6702 L -74.8454,-13.1973 L -75.7108,-6.62383 L -76,-0
 L -75.7108,6.62383 L -74.8454,13.1973 L -73.4104,19.6702 L -71.4166,25.9935 L -68.8794,32.119 L -65.8179,38
 L -62.2556,43.5918 L -58.2194,48.8519 L -53.7401,53.7401 L -48.8519,58.2194 L -43.5918,62.2556 L -38,65.8179
 L -32.119,68.8794 L -25.9935,71.4166 L -19.6702,73.4104 L -13.1973,74.8454 L -6.62383,75.7108 L 0,76
 z
M -25.5,18.5 L -27.4134,18.1194 L -29.0355,17.0355 L -30.1194,15.4134 L -30.5,13.5 L -30.5,-13.5
 L -30.1194,-15.4134 L -29.0355,-17.0355 L -27.4134,-18.1194 L -25.5,-18.5 L 25.5,-18.5 L 27.4134,-18.1194
 L 29.0355,-17.0355 L 30.1194,-15.4134 L 30.5,-13.5 L 30.5,13.5 L 30.1194,15.4134 L 29.0355,17.0355
 L 27.4134,18.1194 L 25.5,18.5 z
" stroke="black" fill="lightgray" stroke-width="0.5"/></svg>
