<?xml version="1.0" standalone="no"?>
<!DOCTYPE svg PUBLIC "-//W3C//DTD SVG 1.1//EN" "http://www.w3.org/Graphics/SVG/1.1/DTD/svg11.dtd">
<svg width="1868" height="753" viewBox="-920 -576 1868 753" xmlns="http://www.w3.org/2000/svg" version="1.1">
<title>OpenSCAD Model</title>
<path d="
M -743.376,-424.289 L -736.803,-425.155 L -730.33,-426.59 L -724.006,-428.583 L -717.881,-431.121 L -712,-434.182
 L -706.408,-437.744 L -701.148,-441.781 L -696.26,-446.26 L -691.781,-451.148 L -687.744,-456.408 L -684.182,-462
 L -681.121,-467.881 L -678.583,-474.006 L -676.59,-480.33 L -675.155,-486.803 L -674.289,-493.376 L -674,-500
 L -674.289,-506.624 L -675.155,-513.197 L -676.59,-519.67 L -678.583,-525.994 L -681.121,-532.119 L -684.182,-538
 L -687.744,-543.592 L -691.781,-548.852 L -696.26,-553.74 L -701.148,-558.219 L -706.408,-562.256 L -712,-565.818
 L -717.881,-568.879 L -724.006,-571.417 L -730.33,-573.41 L -736.803,-574.845 L -743.376,-575.711 L -750,-576
 L -756.624,-575.711 L -763.197,-574.845 L -769.67,-573.41 L -775.994,-571.417 L -782.119,-568.879 L -788,-565.818
 L -793.592,-562.256 L -798.852,-558.219 L -803.74,-553.74 L -808.219,-548.852 L -812.256,-543.592 L -815.818,-538
 L -818.879,-532.119 L -821.417,-525.994 L -823.41,-519.67 L -824.845,-513.197 L -825.711,-506.624 L -826,-500
 L -825.711,-493.376 L -824.845,-486.803 L -823.41,-480.33 L -821.417,-474.006 L -818.879,-467.881 L -815.818,-462
 L -812.256,-456.408 L -808.219,-451.148 L -803.74,-446.26 L -798.852,-441.781 L -793.592,-437.744 L -788,-434.182
 L -782.119,-431.121 L -775.994,-428.583 L -769.67,-426.59 L -763.197,-425.155 L -756.624,-424.289 L -750,-424
 z
M -777.5,-475 L -779.413,-475.381 L -781.036,-476.464 L -782.119,-478.087 L -782.5,-480 L -782.5,-520
 L -782.119,-521.913 L -781.036,-523.536 L -779.413,-524.619 L -777.5,-525 L -722.5,-525 L -720.587,-524.619
 L -718.964,-523.536 L -717.881,-521.913 L -717.5,-520 L -717.5,-480 L -717.881,-478.087 L -718.964,-476.464
 L -720.587,-475.381 L -722.5,-475 z
M 3.5298,-459.654 L 7.03275,-460.115 L 10.4822,-460.88 L 13.8518,-461.942 L 17.116,-463.295 L 20.25,-464.926
 L 23.2298,-466.824 L 26.0329,-468.975 L 28.6378,-471.362 L 31.0248,-473.967 L 33.1756,-476.77 L 35.074,-479.75
 L 36.7055,-482.884 L 38.0575,-486.148 L 39.12,-489.518 L 39.8847,-492.967 L 40.3459,-496.47 L 40.5,-500
 L 40.3459,-503.53 L 39.8847,-507.033 L 39.12,-510.482 L 38.0575,-513.852 L 36.7055,-517.116 L 35.074,-520.25
 L 33.1756,-523.23 L 31.0248,-526.033 L 28.6378,-528.638 L 26.0329,-531.025 L 23.2298,-533.176 L 20.25,-535.074
 L 17.116,-536.705 L 13.8518,-538.058 L 10.4822,-539.12 L 7.03275,-539.885 L 3.5298,-540.346 L 0,-540.5
 L -3.5298,-540.346 L -7.03275,-539.885 L -10.4822,-539.12 L -13.8518,-538.058 L -17.116,-536.705 L -20.25,-535.074
 L -23.2298,-533.176 L -26.0329,-531.025 L -28.6378,-528.638 L -31.0248,-526.033 L -33.1756,-523.23 L -35.074,-520.25
 L -36.7055,-517.116 L -38.0575,-513.852 L -39.12,-510.482 L -39.8847,-507.033 L -40.3459,-503.53 L -40.5,-500
 L -40.3459,-496.47 L -39.8847,-492.967 L -39.12,-489.518 L -38.0575,-486.148 L -36.7055,-482.884 L -35.074,-479.75
 L -33.1756,-476.77 L -31.0248,-473.967 L -28.6378,-471.362 L -26.0329,-468.975 L -23.2298,-466.824 L -20.25,-464.926
 L -17.116,-463.295 L -13.8518,-461.942 L -10.4822,-460.88 L -7.03275,-460.115 L -3.5298,-459.654 L 0,-459.5
 z
M -3.09402,-464.635 L -6.16451,-465.039 L -9.18806,-465.71 L -12.1417,-466.641 L -15.0029,-467.826 L -17.75,-469.256
 L -20.362,-470.92 L -22.819,-472.805 L -25.1023,-474.898 L -27.1946,-477.181 L -29.0799,-479.638 L -30.7439,-482.25
 L -32.1739,-484.997 L -33.3591,-487.858 L -34.2904,-490.812 L -34.9607,-493.835 L -35.3649,-496.906 L -35.5,-500
 L -35.3649,-503.094 L -34.9607,-506.165 L -34.2904,-509.188 L -33.3591,-512.142 L -32.1739,-515.003 L -30.7439,-517.75
 L -29.0799,-520.362 L -27.1946,-522.819 L -25.1023,-525.102 L -22.819,-527.195 L -20.362,-529.08 L -17.75,-530.744
 L -15.0029,-532.174 L -12.1417,-533.359 L -9.18806,-534.29 L -6.16451,-534.961 L -3.09402,-535.365 L 0,-535.5
 L 3.09402,-535.365 L 6.16451,-534.961 L 9.18806,-534.29 L 12.1417,-533.359 L 15.0029,-532.174 L 17.75,-530.744
 L 20.362,-529.08 L 22.819,-527.195 L 25.1023,-525.102 L 27.1946,-522.819 L 29.0799,-520.362 L 30.7439,-517.75
 L 32.1739,-515.003 L 33.3591,-512.142 L 34.2904,-509.188 L 34.9607,-506.165 L 35.3649,-503.094 L 35.5,-500
 L 35.3649,-496.906 L 34.9607,-493.835 L 34.2904,-490.812 L 33.3591,-487.858 L 32.1739,-484.997 L 30.7439,-482.25
 L 29.0799,-479.638 L 27.1946,-477.181 L 25.1023,-474.898 L 22.819,-472.805 L 20.362,-470.92 L 17.75,-469.256
 L 15.0029,-467.826 L 12.1417,-466.641 L 9.18806,-465.71 L 6.16451,-465.039 L 3.09402,-464.635 L 0,-464.5
 z
M 781.941,-470.256 L 783.75,-471.005 L 785.303,-472.197 L 786.495,-473.75 L 787.244,-475.559 L 787.5,-477.5
 L 787.5,-522.5 L 787.244,-524.441 L 786.495,-526.25 L 785.303,-527.803 L 783.75,-528.995 L 781.941,-529.744
 L 780,-530 L 720,-530 L 718.059,-529.744 L 716.25,-528.995 L 714.697,-527.803 L 713.505,-526.25
 L 712.756,-524.441 L 712.5,-522.5 L 712.5,-477.5 L 712.756,-475.559 L 713.505,-473.75 L 714.697,-472.197
 L 716.25,-471.005 L 718.059,-470.256 L 720,-470 L 780,-470 z
M 722.5,-475 L 720.587,-475.381 L 718.964,-476.464 L 717.881,-478.087 L 717.5,-480 L 717.5,-520
 L 717.881,-521.913 L 718.964,-523.536 L 720.587,-524.619 L 722.5,-525 L 777.5,-525 L 779.413,-524.619
 L 781.036,-523.536 L 782.119,-521.913 L 782.5,-520 L 782.5,-480 L 782.119,-478.087 L 781.036,-476.464
 L 779.413,-475.381 L 777.5,-475 z
M -825.22,176.745 L -821.717,176.284 L -818.268,175.519 L -814.898,174.457 L -811.634,173.104 L -808.5,171.473
 L -805.52,169.575 L -802.717,167.424 L -800.112,165.037 L -798.152,162.898 L -793.999,164.207 L -779.52,167.417
 L -764.816,169.353 L -750,170 L -735.184,169.353 L -720.48,167.417 L -706.001,164.207 L -691.857,159.748
 L -678.155,154.072 L -665,147.224 L -652.492,139.256 L -640.726,130.228 L -629.792,120.208 L -619.772,109.274
 L -610.744,97.508 L -602.776,85 L -595.928,71.8451 L -590.252,58.1434 L -585.793,43.9992 L -584.85,39.7479
 L -582.018,39.12 L -578.648,38.0575 L -575.384,36.7055 L -572.25,35.074 L -569.27,33.1756 L -566.467,31.0248
 L -563.862,28.6378 L -561.475,26.0329 L -559.324,23.2298 L -557.426,20.25 L -555.795,17.116 L -554.442,13.8518
 L -553.38,10.4822 L -552.615,7.03275 L -552.154,3.5298 L -552,-0 L -552.154,-3.5298 L -552.615,-7.03275
 L -553.38,-10.4822 L -554.442,-13.8518 L -555.795,-17.116 L -557.426,-20.25 L -559.324,-23.2298 L -561.475,-26.0329
 L -563.862,-28.6378 L -566.467,-31.0248 L -569.27,-33.1756 L -572.25,-35.074 L -575.384,-36.7055 L -578.648,-38.0575
 L -582.018,-39.12 L -584.85,-39.7479 L -585.793,-43.9992 L -590.252,-58.1434 L -595.928,-71.8451 L -602.776,-85
 L -610.744,-97.508 L -619.772,-109.274 L -629.792,-120.208 L -640.726,-130.228 L -652.492,-139.256 L -665,-147.224
 L -678.155,-154.072 L -691.857,-159.748 L -706.001,-164.207 L -720.48,-167.417 L -735.184,-169.353 L -750,-170
 L -764.816,-169.353 L -779.52,-167.417 L -793.999,-164.207 L -798.152,-162.898 L -800.112,-165.037 L -802.717,-167.424
 L -805.52,-169.575 L -808.5,-171.473 L -811.634,-173.104 L -814.898,-174.457 L -818.268,-175.519 L -821.717,-176.284
 L -825.22,-176.745 L -828.75,-176.899 L -832.28,-176.745 L -835.783,-176.284 L -839.232,-175.519 L -842.602,-174.457
 L -845.866,-173.104 L -849,-171.473 L -851.98,-169.575 L -854.783,-167.424 L -857.388,-165.037 L -859.775,-162.432
 L -861.926,-159.629 L -863.824,-156.649 L -865.455,-153.515 L -866.808,-150.251 L -867.87,-146.881 L -868.635,-143.432
 L -869.096,-139.929 L -869.25,-136.399 L -869.096,-132.869 L -868.635,-129.366 L -867.87,-125.917 L -866.998,-123.15
 L -870.208,-120.208 L -880.228,-109.274 L -889.256,-97.508 L -897.224,-85 L -904.072,-71.8451 L -909.748,-58.1434
 L -914.207,-43.9992 L -917.417,-29.5202 L -919.353,-14.8165 L -920,-0 L -919.353,14.8165 L -917.417,29.5202
 L -914.207,43.9992 L -909.748,58.1434 L -904.072,71.8451 L -897.224,85 L -889.256,97.508 L -880.228,109.274
 L -870.208,120.208 L -866.998,123.15 L -867.87,125.917 L -868.635,129.366 L -869.096,132.869 L -869.25,136.399
 L -869.096,139.929 L -868.635,143.432 L -867.87,146.881 L -866.808,150.251 L -865.455,153.515 L -863.824,156.649
 L -861.926,159.629 L -859.775,162.432 L -857.388,165.037 L -854.783,167.424 L -851.98,169.575 L -849,171.473
 L -845.866,173.104 L -842.602,174.457 L -839.232,175.519 L -835.783,176.284 L -832.28,176.745 L -828.75,176.899
 z
M -809.145,-159.763 L -811.256,-161.383 L -813.5,-162.813 L -815.86,-164.041 L -818.318,-165.06 L -820.856,-165.86
 L -823.454,-166.436 L -826.092,-166.783 L -828.75,-166.899 L -831.408,-166.783 L -831.827,-166.728 L -834.53,-171.41
 L -831.844,-171.764 L -828.75,-171.899 L -825.656,-171.764 L -822.585,-171.36 L -819.562,-170.689 L -816.608,-169.758
 L -813.747,-168.573 L -811,-167.143 L -808.388,-165.479 L -805.931,-163.594 L -803.648,-161.501 L -803.409,-161.241
 L -808.143,-159.748 L -808.821,-159.467 z
M -863.04,-127.211 L -863.711,-130.234 L -864.115,-133.305 L -864.25,-136.399 L -864.115,-139.493 L -863.711,-142.564
 L -863.04,-145.587 L -862.109,-148.541 L -860.924,-151.402 L -859.494,-154.149 L -857.83,-156.761 L -856.181,-158.91
 L -853.477,-154.228 L -853.734,-153.893 L -855.164,-151.649 L -856.392,-149.289 L -857.411,-146.831 L -858.211,-144.293
 L -858.787,-141.695 L -859.134,-139.057 L -859.25,-136.399 L -859.134,-133.741 L -858.787,-131.103 L -858.692,-130.674
 L -859.274,-130.228 L -862.934,-126.874 z
M -724.006,-71.4166 L -730.33,-73.4104 L -736.803,-74.8454 L -743.376,-75.7108 L -750,-76 L -756.624,-75.7108
 L -763.197,-74.8454 L -769.67,-73.4104 L -775.994,-71.4166 L -776.643,-71.1475 L -798.683,-109.321 L -797.725,-110.366
 L -795.574,-113.169 L -793.676,-116.149 L -792.045,-119.283 L -790.692,-122.547 L -789.63,-125.917 L -788.865,-129.366
 L -788.404,-132.869 L -788.25,-136.399 L -788.398,-139.785 L -787.529,-140.059 L -775.179,-142.797 L -762.638,-144.448
 L -750,-145 L -737.362,-144.448 L -724.821,-142.797 L -712.471,-140.059 L -700.407,-136.255 L -688.72,-131.415
 L -688.598,-131.351 L -723.357,-71.1475 z
M -804.023,-118.57 L -803.766,-118.905 L -802.336,-121.149 L -801.108,-123.509 L -800.089,-125.967 L -799.289,-128.505
 L -798.713,-131.103 L -798.366,-133.741 L -798.25,-136.399 L -798.262,-136.675 L -793.33,-138.23 L -793.25,-136.399
 L -793.385,-133.305 L -793.789,-130.234 L -794.46,-127.211 L -795.391,-124.257 L -796.576,-121.396 L -798.006,-118.649
 L -799.67,-116.037 L -801.319,-113.888 z
M -675.063,-12.5 L -675.155,-13.1973 L -676.59,-19.6702 L -678.583,-25.9935 L -681.121,-32.119 L -684.182,-38
 L -687.744,-43.5918 L -691.781,-48.8519 L -696.26,-53.7401 L -701.148,-58.2194 L -701.706,-58.6475 L -666.948,-118.851
 L -666.831,-118.777 L -656.796,-111.076 L -647.47,-102.53 L -638.924,-93.2042 L -631.223,-83.1686 L -624.426,-72.5
 L -618.585,-61.2796 L -613.745,-49.5929 L -609.941,-37.5287 L -609.744,-36.6391 L -612.75,-35.074 L -615.73,-33.1756
 L -618.533,-31.0248 L -621.138,-28.6378 L -623.525,-26.0329 L -625.676,-23.2298 L -627.574,-20.25 L -629.205,-17.116
 L -630.558,-13.8518 L -630.984,-12.5 z
M -831.844,-101.034 L -834.915,-101.438 L -837.938,-102.109 L -840.892,-103.04 L -843.753,-104.225 L -846.5,-105.655
 L -848.046,-106.64 L -844.233,-110.134 L -844,-109.985 L -841.64,-108.757 L -839.182,-107.738 L -836.644,-106.938
 L -834.046,-106.362 L -831.408,-106.015 L -828.75,-105.899 L -826.092,-106.015 L -825.673,-106.07 L -822.97,-101.388
 L -825.656,-101.034 L -828.75,-100.899 z
M -894.454,-12.5 L -894.448,-12.6376 L -892.797,-25.179 L -890.059,-37.5287 L -886.255,-49.5929 L -881.415,-61.2796
 L -875.574,-72.5 L -868.777,-83.1686 L -861.076,-93.2042 L -852.53,-102.53 L -851.859,-103.146 L -849,-101.325
 L -845.866,-99.6935 L -842.602,-98.3414 L -839.232,-97.279 L -835.783,-96.5143 L -832.28,-96.0531 L -828.75,-95.899
 L -825.22,-96.0531 L -821.717,-96.5143 L -820.333,-96.8211 L -798.294,-58.6475 L -798.852,-58.2194 L -803.74,-53.7401
 L -808.219,-48.8519 L -812.256,-43.5918 L -815.818,-38 L -818.879,-32.119 L -821.417,-25.9935 L -823.41,-19.6702
 L -824.845,-13.1973 L -824.937,-12.5 z
M -756.188,70.7298 L -762.329,69.9213 L -768.376,68.5807 L -774.283,66.7182 L -780.006,64.3478 L -785.5,61.4878
 L -790.724,58.1598 L -795.638,54.3891 L -800.205,50.2046 L -804.389,45.6379 L -808.16,40.7239 L -811.488,35.5
 L -814.348,30.0059 L -816.718,24.2834 L -818.581,18.3761 L -819.921,12.329 L -820.73,6.18805 L -821,-0
 L -820.73,-6.18805 L -819.921,-12.329 L -818.581,-18.3761 L -816.718,-24.2834 L -814.348,-30.0059 L -811.488,-35.5
 L -808.16,-40.7239 L -804.389,-45.6379 L -800.205,-50.2046 L -795.638,-54.3891 L -790.724,-58.1598 L -785.5,-61.4878
 L -780.006,-64.3478 L -774.283,-66.7182 L -768.376,-68.5807 L -762.329,-69.9213 L -756.188,-70.7298 L -750,-71
 L -743.812,-70.7298 L -737.671,-69.9213 L -731.624,-68.5807 L -725.717,-66.7182 L -719.994,-64.3478 L -714.5,-61.4878
 L -709.276,-58.1598 L -704.362,-54.3891 L -699.795,-50.2046 L -695.611,-45.6379 L -691.84,-40.7239 L -688.512,-35.5
 L -685.652,-30.0059 L -683.282,-24.2834 L -681.419,-18.3761 L -680.079,-12.329 L -679.27,-6.18805 L -679,-0
 L -679.27,6.18805 L -680.079,12.329 L -681.419,18.3761 L -683.282,24.2834 L -685.652,30.0059 L -688.512,35.5
 L -691.84,40.7239 L -695.611,45.6379 L -699.795,50.2046 L -704.362,54.3891 L -709.276,58.1598 L -714.5,61.4878
 L -719.994,64.3478 L -725.717,66.7182 L -731.624,68.5807 L -737.671,69.9213 L -743.812,70.7298 L -750,71
 z
M -564.696,-12.5 L -564.858,-12.8898 L -566.086,-15.25 L -567.516,-17.4941 L -569.136,-19.605 L -570.933,-21.5667
 L -572.895,-23.3643 L -575.006,-24.9841 L -577.25,-26.4138 L -579.61,-27.6424 L -582.068,-28.6606 L -582.487,-28.7926
 L -582.583,-29.5202 L -583.657,-34.3669 L -583.312,-34.2904 L -580.358,-33.3591 L -577.497,-32.1739 L -574.75,-30.7439
 L -572.138,-29.0799 L -569.681,-27.1946 L -567.398,-25.1023 L -565.305,-22.819 L -563.42,-20.362 L -561.756,-17.75
 L -560.326,-15.0029 L -559.289,-12.5 z
M -625.711,-12.5 L -624.674,-15.0029 L -623.244,-17.75 L -621.58,-20.362 L -619.695,-22.819 L -617.602,-25.1023
 L -615.319,-27.1946 L -612.862,-29.0799 L -610.25,-30.7439 L -608.624,-31.5902 L -607.505,-26.5414 L -607.75,-26.4138
 L -609.994,-24.9841 L -612.105,-23.3643 L -614.067,-21.5667 L -615.864,-19.605 L -617.484,-17.4941 L -618.914,-15.25
 L -620.142,-12.8898 L -620.304,-12.5 z
M -852.53,102.53 L -861.076,93.2042 L -868.777,83.1686 L -875.574,72.5 L -881.415,61.2796 L -886.255,49.5929
 L -890.059,37.5287 L -892.797,25.179 L -894.448,12.6376 L -894.454,12.5 L -824.937,12.5 L -824.845,13.1973
 L -823.41,19.6702 L -821.417,25.9935 L -818.879,32.119 L -815.818,38 L -812.256,43.5918 L -808.219,48.8519
 L -803.74,53.7401 L -798.852,58.2194 L -798.294,58.6475 L -820.333,96.8211 L -821.717,96.5143 L -825.22,96.0531
 L -828.75,95.899 L -832.28,96.0531 L -835.783,96.5143 L -839.232,97.279 L -842.602,98.3414 L -845.866,99.6935
 L -849,101.325 L -851.859,103.146 z
M -610.25,30.7439 L -612.862,29.0799 L -615.319,27.1946 L -617.602,25.1023 L -619.695,22.819 L -621.58,20.362
 L -623.244,17.75 L -624.674,15.0029 L -625.711,12.5 L -620.304,12.5 L -620.142,12.8898 L -618.914,15.25
 L -617.484,17.4941 L -615.864,19.605 L -614.067,21.5667 L -612.105,23.3643 L -609.994,24.9841 L -607.75,26.4138
 L -607.505,26.5414 L -608.624,31.5902 z
M -582.583,29.5202 L -582.487,28.7926 L -582.068,28.6606 L -579.61,27.6424 L -577.25,26.4138 L -575.006,24.9841
 L -572.895,23.3643 L -570.933,21.5667 L -569.136,19.605 L -567.516,17.4941 L -566.086,15.25 L -564.858,12.8898
 L -564.696,12.5 L -559.289,12.5 L -560.326,15.0029 L -561.756,17.75 L -563.42,20.362 L -565.305,22.819
 L -567.398,25.1023 L -569.681,27.1946 L -572.138,29.0799 L -574.75,30.7439 L -577.497,32.1739 L -580.358,33.3591
 L -583.312,34.2904 L -583.657,34.3669 z
M -701.706,58.6475 L -701.148,58.2194 L -696.26,53.7401 L -691.781,48.8519 L -687.744,43.5918 L -684.182,38
 L -681.121,32.119 L -678.583,25.9935 L -676.59,19.6702 L -675.155,13.1973 L -675.063,12.5 L -630.984,12.5
 L -630.558,13.8518 L -629.205,17.116 L -627.574,20.25 L -625.676,23.2298 L -623.525,26.0329 L -621.138,28.6378
 L -618.533,31.0248 L -615.73,33.1756 L -612.75,35.074 L -609.744,36.6391 L -609.941,37.5287 L -613.745,49.5929
 L -618.585,61.2796 L -624.426,72.5 L -631.223,83.1686 L -638.924,93.2042 L -647.47,102.53 L -656.796,111.076
 L -666.831,118.777 L -666.948,118.851 z
M -762.638,144.448 L -775.179,142.797 L -787.529,140.059 L -788.398,139.785 L -788.25,136.399 L -788.404,132.869
 L -788.865,129.366 L -789.63,125.917 L -790.692,122.547 L -792.045,119.283 L -793.676,116.149 L -795.574,113.169
 L -797.725,110.366 L -798.683,109.321 L -776.643,71.1475 L -775.994,71.4166 L -769.67,73.4104 L -763.197,74.8454
 L -756.624,75.7108 L -750,76 L -743.376,75.7108 L -736.803,74.8454 L -730.33,73.4104 L -724.006,71.4166
 L -723.357,71.1475 L -688.598,131.351 L -688.72,131.415 L -700.407,136.255 L -712.471,140.059 L -724.821,142.797
 L -737.362,144.448 L -750,145 z
M -848.046,106.64 L -846.5,105.655 L -843.753,104.225 L -840.892,103.04 L -837.938,102.109 L -834.915,101.438
 L -831.844,101.034 L -828.75,100.899 L -825.656,101.034 L -822.97,101.388 L -825.673,106.07 L -826.092,106.015
 L -828.75,105.899 L -831.408,106.015 L -834.046,106.362 L -836.644,106.938 L -839.182,107.738 L -841.64,108.757
 L -844,109.985 L -844.233,110.134 z
M -798.262,136.675 L -798.25,136.399 L -798.366,133.741 L -798.713,131.103 L -799.289,128.505 L -800.089,125.967
 L -801.108,123.509 L -802.336,121.149 L -803.766,118.905 L -804.023,118.57 L -801.319,113.888 L -799.67,116.037
 L -798.006,118.649 L -796.576,121.396 L -795.391,124.257 L -794.46,127.211 L -793.789,130.234 L -793.385,133.305
 L -793.25,136.399 L -793.33,138.23 z
M -857.83,156.761 L -859.494,154.149 L -860.924,151.402 L -862.109,148.541 L -863.04,145.587 L -863.711,142.564
 L -864.115,139.493 L -864.25,136.399 L -864.115,133.305 L -863.711,130.234 L -863.04,127.211 L -862.934,126.874
 L -859.274,130.228 L -858.692,130.674 L -858.787,131.103 L -859.134,133.741 L -859.25,136.399 L -859.134,139.057
 L -858.787,141.695 L -858.211,144.293 L -857.411,146.831 L -856.392,149.289 L -855.164,151.649 L -853.734,153.893
 L -853.477,154.228 L -856.181,158.91 z
M -831.844,171.764 L -834.53,171.41 L -831.827,166.728 L -831.408,166.783 L -828.75,166.899 L -826.092,166.783
 L -823.454,166.436 L -820.856,165.86 L -818.318,165.06 L -815.86,164.041 L -813.5,162.813 L -811.256,161.383
 L -809.145,159.763 L -808.821,159.467 L -808.143,159.748 L -803.409,161.241 L -803.648,161.501 L -805.931,163.594
 L -808.388,165.479 L -811,167.143 L -813.747,168.573 L -816.608,169.758 L -819.562,170.689 L -822.585,171.36
 L -825.656,171.764 L -828.75,171.899 z
M 674.78,176.745 L 678.283,176.284 L 681.732,175.519 L 685.102,174.457 L 688.366,173.104 L 691.5,171.473
 L 694.48,169.575 L 697.283,167.424 L 699.888,165.037 L 701.848,162.898 L 706.001,164.207 L 720.48,167.417
 L 735.184,169.353 L 750,170 L 764.816,169.353 L 779.52,167.417 L 793.999,164.207 L 808.143,159.748
 L 821.845,154.072 L 835,147.224 L 847.508,139.256 L 859.274,130.228 L 870.208,120.208 L 880.228,109.274
 L 889.256,97.508 L 897.224,85 L 904.072,71.8451 L 909.748,58.1434 L 914.207,43.9992 L 915.15,39.7479
 L 917.982,39.12 L 921.352,38.0575 L 924.616,36.7055 L 927.75,35.074 L 930.73,33.1756 L 933.533,31.0248
 L 936.138,28.6378 L 938.525,26.0329 L 940.676,23.2298 L 942.574,20.25 L 944.205,17.116 L 945.558,13.8518
 L 946.62,10.4822 L 947.385,7.03275 L 947.846,3.5298 L 948,-0 L 947.846,-3.5298 L 947.385,-7.03275
 L 946.62,-10.4822 L 945.558,-13.8518 L 944.205,-17.116 L 942.574,-20.25 L 940.676,-23.2298 L 938.525,-26.0329
 L 936.138,-28.6378 L 933.533,-31.0248 L 930.73,-33.1756 L 927.75,-35.074 L 924.616,-36.7055 L 921.352,-38.0575
 L 917.982,-39.12 L 915.15,-39.7479 L 914.207,-43.9992 L 909.748,-58.1434 L 904.072,-71.8451 L 897.224,-85
 L 889.256,-97.508 L 880.228,-109.274 L 870.208,-120.208 L 859.274,-130.228 L 847.508,-139.256 L 835,-147.224
 L 821.845,-154.072 L 808.143,-159.748 L 793.999,-164.207 L 779.52,-167.417 L 764.816,-169.353 L 750,-170
 L 735.184,-169.353 L 720.48,-167.417 L 706.001,-164.207 L 701.848,-162.898 L 699.888,-165.037 L 697.283,-167.424
 L 694.48,-169.575 L 691.5,-171.473 L 688.366,-173.104 L 685.102,-174.457 L 681.732,-175.519 L 678.283,-176.284
 L 674.78,-176.745 L 671.25,-176.899 L 667.72,-176.745 L 664.217,-176.284 L 660.768,-175.519 L 657.398,-174.457
 L 654.134,-173.104 L 651,-171.473 L 648.02,-169.575 L 645.217,-167.424 L 642.612,-165.037 L 640.225,-162.432
 L 638.074,-159.629 L 636.176,-156.649 L 634.545,-153.515 L 633.192,-150.251 L 632.13,-146.881 L 631.365,-143.432
 L 630.904,-139.929 L 630.75,-136.399 L 630.904,-132.869 L 631.365,-129.366 L 632.13,-125.917 L 633.002,-123.15
 L 629.792,-120.208 L 619.772,-109.274 L 610.744,-97.508 L 602.776,-85 L 595.928,-71.8451 L 590.252,-58.1434
 L 585.793,-43.9992 L 582.583,-29.5202 L 580.647,-14.8165 L 580,-0 L 580.647,14.8165 L 582.583,29.5202
 L 585.793,43.9992 L 590.252,58.1434 L 595.928,71.8451 L 602.776,85 L 610.744,97.508 L 619.772,109.274
 L 629.792,120.208 L 633.002,123.15 L 632.13,125.917 L 631.365,129.366 L 630.904,132.869 L 630.75,136.399
 L 630.904,139.929 L 631.365,143.432 L 632.13,146.881 L 633.192,150.251 L 634.545,153.515 L 636.176,156.649
 L 638.074,159.629 L 640.225,162.432 L 642.612,165.037 L 645.217,167.424 L 648.02,169.575 L 651,171.473
 L 654.134,173.104 L 657.398,174.457 L 660.768,175.519 L 664.217,176.284 L 667.72,176.745 L 671.25,176.899
 z
M 690.855,-159.763 L 688.744,-161.383 L 686.5,-162.813 L 684.14,-164.041 L 681.682,-165.06 L 679.144,-165.86
 L 676.546,-166.436 L 673.908,-166.783 L 671.25,-166.899 L 668.592,-166.783 L 668.173,-166.728 L 665.47,-171.41
 L 668.156,-171.764 L 671.25,-171.899 L 674.344,-171.764 L 677.415,-171.36 L 680.438,-170.689 L 683.392,-169.758
 L 686.253,-168.573 L 689,-167.143 L 691.612,-165.479 L 694.069,-163.594 L 696.352,-161.501 L 696.591,-161.241
 L 691.857,-159.748 L 691.179,-159.467 z
M 636.96,-127.211 L 636.289,-130.234 L 635.885,-133.305 L 635.75,-136.399 L 635.885,-139.493 L 636.289,-142.564
 L 636.96,-145.587 L 637.891,-148.541 L 639.076,-151.402 L 640.506,-154.149 L 642.17,-156.761 L 643.819,-158.91
 L 646.523,-154.228 L 646.266,-153.893 L 644.836,-151.649 L 643.608,-149.289 L 642.589,-146.831 L 641.789,-144.293
 L 641.213,-141.695 L 640.866,-139.057 L 640.75,-136.399 L 640.866,-133.741 L 641.213,-131.103 L 641.308,-130.674
 L 640.726,-130.228 L 637.066,-126.874 z
M 676.342,-122.58 L 675.933,-122.412 L 674.027,-121.913 L 672.071,-121.672 L 670.101,-121.694 L 668.151,-121.978
 L 666.257,-122.52 L 664.451,-123.309 L 662.767,-124.332 L 661.235,-125.571 L 659.914,-126.967 L 658.86,-126.359
 L 656.36,-130.689 L 657.44,-131.312 L 657.114,-132.186 L 656.679,-134.108 L 656.504,-136.07 L 656.591,-138.039
 L 656.941,-139.978 L 657.546,-141.853 L 658.395,-143.631 L 659.473,-145.28 L 660.762,-146.771 L 661.83,-147.715
 L 661.21,-148.789 L 665.54,-151.289 L 666.16,-150.215 L 667.512,-150.667 L 669.447,-151.038 L 671.414,-151.148
 L 673.379,-150.995 L 675.305,-150.581 L 677.159,-149.914 L 678.908,-149.005 L 680.52,-147.872 L 681.966,-146.534
 L 682.56,-145.816 L 683.64,-146.439 L 686.14,-142.109 L 685.086,-141.501 L 685.635,-139.658 L 685.941,-137.712
 L 685.985,-135.742 L 685.766,-133.784 L 685.288,-131.872 L 684.56,-130.042 L 683.593,-128.324 L 682.407,-126.751
 L 681.022,-125.35 L 680.672,-125.08 L 681.29,-124.009 L 676.96,-121.509 z
M 775.994,-71.4166 L 769.67,-73.4104 L 763.197,-74.8454 L 756.624,-75.7108 L 750,-76 L 743.376,-75.7108
 L 736.803,-74.8454 L 730.33,-73.4104 L 724.006,-71.4166 L 723.357,-71.1475 L 701.317,-109.321 L 702.275,-110.366
 L 704.426,-113.169 L 706.324,-116.149 L 707.955,-119.283 L 709.308,-122.547 L 710.37,-125.917 L 711.135,-129.366
 L 711.596,-132.869 L 711.75,-136.399 L 711.602,-139.785 L 712.471,-140.059 L 724.821,-142.797 L 737.362,-144.448
 L 750,-145 L 762.638,-144.448 L 775.179,-142.797 L 787.529,-140.059 L 799.593,-136.255 L 811.28,-131.415
 L 811.402,-131.351 L 776.643,-71.1475 z
M 695.977,-118.57 L 696.234,-118.905 L 697.664,-121.149 L 698.892,-123.509 L 699.911,-125.967 L 700.711,-128.505
 L 701.287,-131.103 L 701.634,-133.741 L 701.75,-136.399 L 701.738,-136.675 L 706.67,-138.23 L 706.75,-136.399
 L 706.615,-133.305 L 706.211,-130.234 L 705.54,-127.211 L 704.609,-124.257 L 703.424,-121.396 L 701.994,-118.649
 L 700.33,-116.037 L 698.681,-113.888 z
M 824.937,-12.5 L 824.845,-13.1973 L 823.41,-19.6702 L 821.417,-25.9935 L 818.879,-32.119 L 815.818,-38
 L 812.256,-43.5918 L 808.219,-48.8519 L 803.74,-53.7401 L 798.852,-58.2194 L 798.294,-58.6475 L 833.052,-118.851
 L 833.169,-118.777 L 843.204,-111.076 L 852.53,-102.53 L 861.076,-93.2042 L 868.777,-83.1686 L 875.574,-72.5
 L 881.415,-61.2796 L 886.255,-49.5929 L 890.059,-37.5287 L 890.256,-36.6391 L 887.25,-35.074 L 884.27,-33.1756
 L 881.467,-31.0248 L 878.862,-28.6378 L 876.475,-26.0329 L 874.324,-23.2298 L 872.426,-20.25 L 870.795,-17.116
 L 869.442,-13.8518 L 869.016,-12.5 z
M 668.156,-101.034 L 665.085,-101.438 L 662.062,-102.109 L 659.108,-103.04 L 656.247,-104.225 L 653.5,-105.655
 L 651.954,-106.64 L 655.767,-110.134 L 656,-109.985 L 658.36,-108.757 L 660.818,-107.738 L 663.356,-106.938
 L 665.954,-106.362 L 668.592,-106.015 L 671.25,-105.899 L 673.908,-106.015 L 674.327,-106.07 L 677.03,-101.388
 L 674.344,-101.034 L 671.25,-100.899 z
M 605.546,-12.5 L 605.552,-12.6376 L 607.203,-25.179 L 609.941,-37.5287 L 613.745,-49.5929 L 618.585,-61.2796
 L 624.426,-72.5 L 631.223,-83.1686 L 638.924,-93.2042 L 647.47,-102.53 L 648.141,-103.146 L 651,-101.325
 L 654.134,-99.6935 L 657.398,-98.3414 L 660.768,-97.279 L 664.217,-96.5143 L 667.72,-96.0531 L 671.25,-95.899
 L 674.78,-96.0531 L 678.283,-96.5143 L 679.667,-96.8211 L 701.706,-58.6475 L 701.148,-58.2194 L 696.26,-53.7401
 L 691.781,-48.8519 L 687.744,-43.5918 L 684.182,-38 L 681.121,-32.119 L 678.583,-25.9935 L 676.59,-19.6702
 L 675.155,-13.1973 L 675.063,-12.5 z
M 743.812,70.7298 L 737.671,69.9213 L 731.624,68.5807 L 725.717,66.7182 L 719.994,64.3478 L 714.5,61.4878
 L 709.276,58.1598 L 704.362,54.3891 L 699.795,50.2046 L 695.611,45.6379 L 691.84,40.7239 L 688.512,35.5
 L 685.652,30.0059 L 683.282,24.2834 L 681.419,18.3761 L 680.079,12.329 L 679.27,6.18805 L 679,-0
 L 679.27,-6.18805 L 680.079,-12.329 L 681.419,-18.3761 L 683.282,-24.2834 L 685.652,-30.0059 L 688.512,-35.5
 L 691.84,-40.7239 L 695.611,-45.6379 L 699.795,-50.2046 L 704.362,-54.3891 L 709.276,-58.1598 L 714.5,-61.4878
 L 719.994,-64.3478 L 725.717,-66.7182 L 731.624,-68.5807 L 737.671,-69.9213 L 743.812,-70.7298 L 750,-71
 L 756.188,-70.7298 L 762.329,-69.9213 L 768.376,-68.5807 L 774.283,-66.7182 L 780.006,-64.3478 L 785.5,-61.4878
 L 790.724,-58.1598 L 795.638,-54.3891 L 800.205,-50.2046 L 804.389,-45.6379 L 808.16,-40.7239 L 811.488,-35.5
 L 814.348,-30.0059 L 816.718,-24.2834 L 818.581,-18.3761 L 819.921,-12.329 L 820.73,-6.18805 L 821,-0
 L 820.73,6.18805 L 819.921,12.329 L 818.581,18.3761 L 816.718,24.2834 L 814.348,30.0059 L 811.488,35.5
 L 808.16,40.7239 L 804.389,45.6379 L 800.205,50.2046 L 795.638,54.3891 L 790.724,58.1598 L 785.5,61.4878
 L 780.006,64.3478 L 774.283,66.7182 L 768.376,68.5807 L 762.329,69.9213 L 756.188,70.7298 L 750,71
 z
M 935.304,-12.5 L 935.142,-12.8898 L 933.914,-15.25 L 932.484,-17.4941 L 930.864,-19.605 L 929.067,-21.5667
 L 927.105,-23.3643 L 924.994,-24.9841 L 922.75,-26.4138 L 920.39,-27.6424 L 917.932,-28.6606 L 917.513,-28.7926
 L 917.417,-29.5202 L 916.343,-34.3669 L 916.688,-34.2904 L 919.642,-33.3591 L 922.503,-32.1739 L 925.25,-30.7439
 L 927.862,-29.0799 L 930.319,-27.1946 L 932.602,-25.1023 L 934.695,-22.819 L 936.58,-20.362 L 938.244,-17.75
 L 939.674,-15.0029 L 940.711,-12.5 z
M 874.289,-12.5 L 875.326,-15.0029 L 876.756,-17.75 L 878.42,-20.362 L 880.305,-22.819 L 882.398,-25.1023
 L 884.681,-27.1946 L 887.138,-29.0799 L 889.75,-30.7439 L 891.376,-31.5902 L 892.495,-26.5414 L 892.25,-26.4138
 L 890.006,-24.9841 L 887.895,-23.3643 L 885.933,-21.5667 L 884.136,-19.605 L 882.516,-17.4941 L 881.086,-15.25
 L 879.858,-12.8898 L 879.696,-12.5 z
M 905,15.75 L 905,14.5334 L 903.13,14.0878 L 901.291,13.3796 L 899.563,12.4326 L 897.977,11.2639
 L 896.561,9.89407 L 895.339,8.34772 L 894.335,6.65239 L 893.566,4.83836 L 893.046,2.93799 L 892.987,2.5
 L 891.75,2.5 L 891.75,-2.5 L 892.987,-2.5 L 893.046,-2.93799 L 893.566,-4.83836 L 894.335,-6.65239
 L 895.339,-8.34772 L 896.561,-9.89407 L 897.977,-11.2639 L 899.563,-12.4326 L 901.291,-13.3796 L 903.13,-14.0878
 L 905,-14.5334 L 905,-15.75 L 910,-15.75 L 910,-14.5033 L 910.919,-14.3482 L 912.801,-13.7644
 L 914.589,-12.935 L 916.249,-11.8748 L 917.754,-10.6026 L 919.076,-9.1413 L 920.191,-7.51683 L 921.08,-5.75824
 L 921.726,-3.89688 L 922.01,-2.5 L 923.25,-2.5 L 923.25,2.5 L 922.01,2.5 L 921.726,3.89688
 L 921.08,5.75824 L 920.191,7.51683 L 919.076,9.1413 L 917.754,10.6026 L 916.249,11.8748 L 914.589,12.935
 L 912.801,13.7644 L 910.919,14.3482 L 910,14.5033 L 910,15.75 z
M 647.47,102.53 L 638.924,93.2042 L 631.223,83.1686 L 624.426,72.5 L 618.585,61.2796 L 613.745,49.5929
 L 609.941,37.5287 L 607.203,25.179 L 605.552,12.6376 L 605.546,12.5 L 675.063,12.5 L 675.155,13.1973
 L 676.59,19.6702 L 678.583,25.9935 L 681.121,32.119 L 684.182,38 L 687.744,43.5918 L 691.781,48.8519
 L 696.26,53.7401 L 701.148,58.2194 L 701.706,58.6475 L 679.667,96.8211 L 678.283,96.5143 L 674.78,96.0531
 L 671.25,95.899 L 667.72,96.0531 L 664.217,96.5143 L 660.768,97.279 L 657.398,98.3414 L 654.134,99.6935
 L 651,101.325 L 648.141,103.146 z
M 798.294,58.6475 L 798.852,58.2194 L 803.74,53.7401 L 808.219,48.8519 L 812.256,43.5918 L 815.818,38
 L 818.879,32.119 L 821.417,25.9935 L 823.41,19.6702 L 824.845,13.1973 L 824.937,12.5 L 869.016,12.5
 L 869.442,13.8518 L 870.795,17.116 L 872.426,20.25 L 874.324,23.2298 L 876.475,26.0329 L 878.862,28.6378
 L 881.467,31.0248 L 884.27,33.1756 L 887.25,35.074 L 890.256,36.6391 L 890.059,37.5287 L 886.255,49.5929
 L 881.415,61.2796 L 875.574,72.5 L 868.777,83.1686 L 861.076,93.2042 L 852.53,102.53 L 843.204,111.076
 L 833.169,118.777 L 833.052,118.851 z
M 917.417,29.5202 L 917.513,28.7926 L 917.932,28.6606 L 920.39,27.6424 L 922.75,26.4138 L 924.994,24.9841
 L 927.105,23.3643 L 929.067,21.5667 L 930.864,19.605 L 932.484,17.4941 L 933.914,15.25 L 935.142,12.8898
 L 935.304,12.5 L 940.711,12.5 L 939.674,15.0029 L 938.244,17.75 L 936.58,20.362 L 934.695,22.819
 L 932.602,25.1023 L 930.319,27.1946 L 927.862,29.0799 L 925.25,30.7439 L 922.503,32.1739 L 919.642,33.3591
 L 916.688,34.2904 L 916.343,34.3669 z
M 889.75,30.7439 L 887.138,29.0799 L 884.681,27.1946 L 882.398,25.1023 L 880.305,22.819 L 878.42,20.362
 L 876.756,17.75 L 875.326,15.0029 L 874.289,12.5 L 879.696,12.5 L 879.858,12.8898 L 881.086,15.25
 L 882.516,17.4941 L 884.136,19.605 L 885.933,21.5667 L 887.895,23.3643 L 890.006,24.9841 L 892.25,26.4138
 L 892.495,26.5414 L 891.376,31.5902 z
M 737.362,144.448 L 724.821,142.797 L 712.471,140.059 L 711.602,139.785 L 711.75,136.399 L 711.596,132.869
 L 711.135,129.366 L 710.37,125.917 L 709.308,122.547 L 707.955,119.283 L 706.324,116.149 L 704.426,113.169
 L 702.275,110.366 L 701.317,109.321 L 723.357,71.1475 L 724.006,71.4166 L 730.33,73.4104 L 736.803,74.8454
 L 743.376,75.7108 L 750,76 L 756.624,75.7108 L 763.197,74.8454 L 769.67,73.4104 L 775.994,71.4166
 L 776.643,71.1475 L 811.402,131.351 L 811.28,131.415 L 799.593,136.255 L 787.529,140.059 L 775.179,142.797
 L 762.638,144.448 L 750,145 z
M 651.954,106.64 L 653.5,105.655 L 656.247,104.225 L 659.108,103.04 L 662.062,102.109 L 665.085,101.438
 L 668.156,101.034 L 671.25,100.899 L 674.344,101.034 L 677.03,101.388 L 674.327,106.07 L 673.908,106.015
 L 671.25,105.899 L 668.592,106.015 L 665.954,106.362 L 663.356,106.938 L 660.818,107.738 L 658.36,108.757
 L 656,109.985 L 655.767,110.134 z
M 701.738,136.675 L 701.75,136.399 L 701.634,133.741 L 701.287,131.103 L 700.711,128.505 L 699.911,125.967
 L 698.892,123.509 L 697.664,121.149 L 696.234,118.905 L 695.977,118.57 L 698.681,113.888 L 700.33,116.037
 L 701.994,118.649 L 703.424,121.396 L 704.609,124.257 L 705.54,127.211 L 706.211,130.234 L 706.615,133.305
 L 706.75,136.399 L 706.67,138.23 z
M 661.21,148.789 L 661.83,147.715 L 660.762,146.771 L 659.473,145.28 L 658.395,143.631 L 657.546,141.853
 L 656.941,139.978 L 656.591,138.039 L 656.504,136.07 L 656.679,134.108 L 657.114,132.186 L 657.44,131.312
 L 656.36,130.689 L 658.86,126.359 L 659.914,126.967 L 661.235,125.571 L 662.767,124.332 L 664.451,123.309
 L 666.257,122.52 L 668.151,121.978 L 670.101,121.694 L 672.071,121.672 L 674.027,121.913 L 675.933,122.412
 L 676.342,122.58 L 676.96,121.509 L 681.29,124.009 L 680.672,125.08 L 681.022,125.35 L 682.407,126.751
 L 683.593,128.324 L 684.56,130.042 L 685.288,131.872 L 685.766,133.784 L 685.985,135.742 L 685.941,137.712
 L 685.635,139.658 L 685.086,141.501 L 686.14,142.109 L 683.64,146.439 L 682.56,145.816 L 681.966,146.534
 L 680.52,147.872 L 678.908,149.005 L 677.159,149.914 L 675.305,150.581 L 673.379,150.995 L 671.414,151.148
 L 669.447,151.038 L 667.512,150.667 L 666.16,150.215 L 665.54,151.289 z
M 642.17,156.761 L 640.506,154.149 L 639.076,151.402 L 637.891,148.541 L 636.96,145.587 L 636.289,142.564
 L 635.885,139.493 L 635.75,136.399 L 635.885,133.305 L 636.289,130.234 L 636.96,127.211 L 637.066,126.874
 L 640.726,130.228 L 641.308,130.674 L 641.213,131.103 L 640.866,133.741 L 640.75,136.399 L 640.866,139.057
 L 641.213,141.695 L 641.789,144.293 L 642.589,146.831 L 643.608,149.289 L 644.836,151.649 L 646.266,153.893
 L 646.523,154.228 L 643.819,158.91 z
M 668.156,171.764 L 665.47,171.41 L 668.173,166.728 L 668.592,166.783 L 671.25,166.899 L 673.908,166.783
 L 676.546,166.436 L 679.144,165.86 L 681.682,165.06 L 684.14,164.041 L 686.5,162.813 L 688.744,161.383
 L 690.855,159.763 L 691.179,159.467 L 691.857,159.748 L 696.591,161.241 L 696.352,161.501 L 694.069,163.594
 L 691.612,165.479 L 689,167.143 L 686.253,168.573 L 683.392,169.758 L 680.438,170.689 L 677.415,171.36
 L 674.344,171.764 L 671.25,171.899 z
M -75.2202,176.745 L -71.7172,176.284 L -68.2678,175.519 L -64.8982,174.457 L -61.634,173.104 L -58.5,171.473
 L -55.5201,169.575 L -52.7171,167.424 L -50.1122,165.037 L -48.1523,162.898 L -43.9992,164.207 L -29.5202,167.417
 L -14.8165,169.353 L 0,170 L 14.8165,169.353 L 29.5202,167.417 L 43.9992,164.207 L 58.1434,159.748
 L 71.8451,154.072 L 85,147.224 L 97.508,139.256 L 109.274,130.228 L 120.208,120.208 L 130.228,109.274
 L 139.256,97.508 L 147.224,85 L 154.072,71.8451 L 159.748,58.1434 L 164.207,43.9992 L 165.15,39.7479
 L 167.982,39.12 L 171.352,38.0575 L 174.616,36.7055 L 177.75,35.074 L 180.73,33.1756 L 183.533,31.0248
 L 186.138,28.6378 L 188.525,26.0329 L 190.676,23.2298 L 192.574,20.25 L 194.205,17.116 L 195.558,13.8518
 L 196.62,10.4822 L 197.385,7.03275 L 197.846,3.5298 L 198,-0 L 197.846,-3.5298 L 197.385,-7.03275
 L 196.62,-10.4822 L 195.558,-13.8518 L 194.205,-17.116 L 192.574,-20.25 L 190.676,-23.2298 L 188.525,-26.0329
 L 186.138,-28.6378 L 183.533,-31.0248 L 180.73,-33.1756 L 177.75,-35.074 L 174.616,-36.7055 L 171.352,-38.0575
 L 167.982,-39.12 L 165.15,-39.7479 L 164.207,-43.9992 L 159.748,-58.1434 L 154.072,-71.8451 L 147.224,-85
 L 139.256,-97.508 L 130.228,-109.274 L 120.208,-120.208 L 109.274,-130.228 L 97.508,-139.256 L 85,-147.224
 L 71.8451,-154.072 L 58.1434,-159.748 L 43.9992,-164.207 L 29.5202,-167.417 L 14.8165,-169.353 L 0,-170
 L -14.8165,-169.353 L -29.5202,-167.417 L -43.9992,-164.207 L -48.1523,-162.898 L -50.1122,-165.037 L -52.7171,-167.424
 L -55.5201,-169.575 L -58.5,-171.473 L -61.634,-173.104 L -64.8982,-174.457 L -68.2678,-175.519 L -71.7172,-176.284
 L -75.2202,-176.745 L -78.75,-176.899 L -82.2798,-176.745 L -85.7827,-176.284 L -89.2322,-175.519 L -92.6018,-174.457
 L -95.866,-173.104 L -99,-171.473 L -101.98,-169.575 L -104.783,-167.424 L -107.388,-165.037 L -109.775,-162.432
 L -111.926,-159.629 L -113.824,-156.649 L -115.455,-153.515 L -116.808,-150.251 L -117.87,-146.881 L -118.635,-143.432
 L -119.096,-139.929 L -119.25,-136.399 L -119.096,-132.869 L -118.635,-129.366 L -117.87,-125.917 L -116.998,-123.15
 L -120.208,-120.208 L -130.228,-109.274 L -139.256,-97.508 L -147.224,-85 L -154.072,-71.8451 L -159.748,-58.1434
 L -164.207,-43.9992 L -167.417,-29.5202 L -169.353,-14.8165 L -170,-0 L -169.353,14.8165 L -167.417,29.5202
 L -164.207,43.9992 L -159.748,58.1434 L -154.072,71.8451 L -147.224,85 L -139.256,97.508 L -130.228,109.274
 L -120.208,120.208 L -116.998,123.15 L -117.87,125.917 L -118.635,129.366 L -119.096,132.869 L -119.25,136.399
 L -119.096,139.929 L -118.635,143.432 L -117.87,146.881 L -116.808,150.251 L -115.455,153.515 L -113.824,156.649
 L -111.926,159.629 L -109.775,162.432 L -107.388,165.037 L -104.783,167.424 L -101.98,169.575 L -99,171.473
 L -95.866,173.104 L -92.6018,174.457 L -89.2322,175.519 L -85.7827,176.284 L -82.2798,176.745 L -78.75,176.899
 z
M -59.145,-159.763 L -61.2559,-161.383 L -63.5,-162.813 L -65.8601,-164.041 L -68.3184,-165.06 L -70.856,-165.86
 L -73.4537,-166.436 L -76.0917,-166.783 L -78.75,-166.899 L -81.4082,-166.783 L -81.8266,-166.728 L -84.53,-171.41
 L -81.844,-171.764 L -78.75,-171.899 L -75.656,-171.764 L -72.5855,-171.36 L -69.5619,-170.689 L -66.6083,-169.758
 L -63.747,-168.573 L -61,-167.143 L -58.388,-165.479 L -55.931,-163.594 L -53.6477,-161.501 L -53.4088,-161.241
 L -58.1434,-159.748 L -58.8215,-159.467 z
M -113.04,-127.211 L -113.711,-130.234 L -114.115,-133.305 L -114.25,-136.399 L -114.115,-139.493 L -113.711,-142.564
 L -113.04,-145.587 L -112.109,-148.541 L -110.924,-151.402 L -109.494,-154.149 L -107.83,-156.761 L -106.181,-158.91
 L -103.477,-154.228 L -103.734,-153.893 L -105.164,-151.649 L -106.392,-149.289 L -107.411,-146.831 L -108.211,-144.293
 L -108.787,-141.695 L -109.134,-139.057 L -109.25,-136.399 L -109.134,-133.741 L -108.787,-131.103 L -108.692,-130.674
 L -109.274,-130.228 L -112.934,-126.874 z
M -88.7901,148.789 L -88.17,147.715 L -89.2377,146.771 L -90.5266,145.28 L -91.6052,143.631 L -92.4545,141.853
 L -93.0592,139.978 L -93.4085,138.039 L -93.4963,136.07 L -93.3209,134.108 L -92.8855,132.186 L -92.5602,131.312
 L -93.6399,130.689 L -91.1399,126.359 L -90.0863,126.967 L -88.7653,125.571 L -87.2327,124.332 L -85.5486,123.309
 L -83.7433,122.52 L -81.8488,121.978 L -79.8991,121.694 L -78.9139,121.683 L -41.7737,57.3542 L -45.6379,54.3891
 L -50.2046,50.2046 L -54.3891,45.6379 L -58.1598,40.7239 L -61.4878,35.5 L -64.3478,30.0059 L -66.7182,24.2834
 L -68.5807,18.3761 L -69.9213,12.329 L -70.7298,6.18805 L -71,-0 L -70.7298,-6.18805 L -69.9213,-12.329
 L -68.5807,-18.3761 L -66.7182,-24.2834 L -64.3478,-30.0059 L -61.4878,-35.5 L -58.1598,-40.7239 L -54.3891,-45.6379
 L -50.2046,-50.2046 L -45.6379,-54.3891 L -41.7737,-57.3542 L -78.9139,-121.683 L -79.8991,-121.694 L -81.8488,-121.978
 L -83.7433,-122.52 L -85.5486,-123.309 L -87.2327,-124.332 L -88.7653,-125.571 L -90.0863,-126.967 L -91.1399,-126.359
 L -93.6399,-130.689 L -92.5602,-131.312 L -92.8855,-132.186 L -93.3209,-134.108 L -93.4963,-136.07 L -93.4085,-138.039
 L -93.0592,-139.978 L -92.4545,-141.853 L -91.6052,-143.631 L -90.5266,-145.28 L -89.2377,-146.771 L -88.17,-147.715
 L -88.7901,-148.789 L -84.4599,-151.289 L -83.8398,-150.215 L -82.4881,-150.667 L -80.553,-151.038 L -78.5857,-151.148
 L -76.6213,-150.995 L -74.6949,-150.581 L -72.8408,-149.914 L -71.0922,-149.005 L -69.4803,-147.872 L -68.0338,-146.534
 L -67.4398,-145.816 L -66.3601,-146.439 L -63.8601,-142.109 L -64.9137,-141.501 L -64.3646,-139.658 L -64.0585,-137.712
 L -64.0146,-135.742 L -64.2337,-133.784 L -64.7118,-131.872 L -65.4404,-130.042 L -65.9235,-129.183 L -28.7834,-64.8542
 L -24.2834,-66.7182 L -18.3761,-68.5807 L -12.329,-69.9213 L -6.18805,-70.7298 L 0,-71 L 6.18805,-70.7298
 L 12.329,-69.9213 L 18.3761,-68.5807 L 24.2834,-66.7182 L 30.0059,-64.3478 L 35.5,-61.4878 L 40.7239,-58.1598
 L 45.6379,-54.3891 L 50.2046,-50.2046 L 54.3891,-45.6379 L 58.1598,-40.7239 L 61.4878,-35.5 L 64.3478,-30.0059
 L 66.7182,-24.2834 L 68.5807,-18.3761 L 69.9213,-12.329 L 70.5571,-7.5 L 144.837,-7.5 L 145.339,-8.34772
 L 146.561,-9.89407 L 147.977,-11.2639 L 149.563,-12.4326 L 151.291,-13.3796 L 153.13,-14.0878 L 155,-14.5334
 L 155,-15.75 L 160,-15.75 L 160,-14.5033 L 160.919,-14.3482 L 162.801,-13.7644 L 164.589,-12.935
 L 166.249,-11.8748 L 167.754,-10.6026 L 169.076,-9.1413 L 170.191,-7.51683 L 171.08,-5.75824 L 171.726,-3.89688
 L 172.01,-2.5 L 173.25,-2.5 L 173.25,2.5 L 172.01,2.5 L 171.726,3.89688 L 171.08,5.75824
 L 170.191,7.51683 L 169.076,9.1413 L 167.754,10.6026 L 166.249,11.8748 L 164.589,12.935 L 162.801,13.7644
 L 160.919,14.3482 L 160,14.5033 L 160,15.75 L 155,15.75 L 155,14.5334 L 153.13,14.0878
 L 151.291,13.3796 L 149.563,12.4326 L 147.977,11.2639 L 146.561,9.89407 L 145.339,8.34772 L 144.837,7.5
 L 70.5571,7.5 L 69.9213,12.329 L 68.5807,18.3761 L 66.7182,24.2834 L 64.3478,30.0059 L 61.4878,35.5
 L 58.1598,40.7239 L 54.3891,45.6379 L 50.2046,50.2046 L 45.6379,54.3891 L 40.7239,58.1598 L 35.5,61.4878
 L 30.0059,64.3478 L 24.2834,66.7182 L 18.3761,68.5807 L 12.329,69.9213 L 6.18805,70.7298 L 0,71
 L -6.18805,70.7298 L -12.329,69.9213 L -18.3761,68.5807 L -24.2834,66.7182 L -28.7834,64.8542 L -65.9235,129.183
 L -65.4404,130.042 L -64.7118,131.872 L -64.2337,133.784 L -64.0146,135.742 L -64.0585,137.712 L -64.3646,139.658
 L -64.9137,141.501 L -63.8601,142.109 L -66.3601,146.439 L -67.4398,145.816 L -68.0338,146.534 L -69.4803,147.872
 L -71.0922,149.005 L -72.8408,149.914 L -74.6949,150.581 L -76.6213,150.995 L -78.5857,151.148 L -80.553,151.038
 L -82.4881,150.667 L -83.8398,150.215 L -84.4599,151.289 z
M 25.9935,-71.4166 L 19.6702,-73.4104 L 13.1973,-74.8454 L 6.62383,-75.7108 L 0,-76 L -6.62383,-75.7108
 L -13.1973,-74.8454 L -19.6702,-73.4104 L -25.9935,-71.4166 L -26.6433,-71.1475 L -48.6828,-109.321 L -47.7252,-110.366
 L -45.5743,-113.169 L -43.676,-116.149 L -42.0445,-119.283 L -40.6924,-122.547 L -39.63,-125.917 L -38.8653,-129.366
 L -38.4041,-132.869 L -38.25,-136.399 L -38.3978,-139.785 L -37.5287,-140.059 L -25.179,-142.797 L -12.6376,-144.448
 L 0,-145 L 12.6376,-144.448 L 25.179,-142.797 L 37.5287,-140.059 L 49.5929,-136.255 L 61.2796,-131.415
 L 61.4018,-131.351 L 26.6433,-71.1475 z
M -54.0227,-118.57 L -53.7659,-118.905 L -52.3362,-121.149 L -51.1076,-123.509 L -50.0894,-125.967 L -49.2893,-128.505
 L -48.7134,-131.103 L -48.3661,-133.741 L -48.25,-136.399 L -48.2621,-136.675 L -43.3299,-138.23 L -43.25,-136.399
 L -43.3851,-133.305 L -43.7893,-130.234 L -44.4596,-127.211 L -45.3909,-124.257 L -46.5761,-121.396 L -48.0061,-118.649
 L -49.6701,-116.037 L -51.3193,-113.888 z
M 74.9372,-12.5 L 74.8454,-13.1973 L 73.4104,-19.6702 L 71.4166,-25.9935 L 68.8794,-32.119 L 65.8179,-38
 L 62.2556,-43.5918 L 58.2194,-48.8519 L 53.7401,-53.7401 L 48.8519,-58.2194 L 48.2939,-58.6475 L 83.0524,-118.851
 L 83.1686,-118.777 L 93.2042,-111.076 L 102.53,-102.53 L 111.076,-93.2042 L 118.777,-83.1686 L 125.574,-72.5
 L 131.415,-61.2796 L 136.255,-49.5929 L 140.059,-37.5287 L 140.256,-36.6391 L 137.25,-35.074 L 134.27,-33.1756
 L 131.467,-31.0248 L 128.862,-28.6378 L 126.475,-26.0329 L 124.324,-23.2298 L 122.426,-20.25 L 120.795,-17.116
 L 119.442,-13.8518 L 119.016,-12.5 z
M -81.844,-101.034 L -84.9145,-101.438 L -87.9381,-102.109 L -90.8917,-103.04 L -93.7529,-104.225 L -96.5,-105.655
 L -98.0458,-106.64 L -94.233,-110.134 L -94,-109.985 L -91.6398,-108.757 L -89.1816,-107.738 L -86.644,-106.938
 L -84.0462,-106.362 L -81.4082,-106.015 L -78.75,-105.899 L -76.0917,-106.015 L -75.6734,-106.07 L -72.97,-101.388
 L -75.656,-101.034 L -78.75,-100.899 z
M -144.454,-12.5 L -144.448,-12.6376 L -142.797,-25.179 L -140.059,-37.5287 L -136.255,-49.5929 L -131.415,-61.2796
 L -125.574,-72.5 L -118.777,-83.1686 L -111.076,-93.2042 L -102.53,-102.53 L -101.859,-103.146 L -99,-101.325
 L -95.866,-99.6935 L -92.6018,-98.3414 L -89.2322,-97.279 L -85.7827,-96.5143 L -82.2798,-96.0531 L -78.75,-95.899
 L -75.2202,-96.0531 L -71.7172,-96.5143 L -70.3334,-96.8211 L -48.2939,-58.6475 L -48.8519,-58.2194 L -53.7401,-53.7401
 L -58.2194,-48.8519 L -62.2556,-43.5918 L -65.8179,-38 L -68.8794,-32.119 L -71.4166,-25.9935 L -73.4104,-19.6702
 L -74.8454,-13.1973 L -74.9372,-12.5 z
M 185.304,-12.5 L 185.142,-12.8898 L 183.914,-15.25 L 182.484,-17.4941 L 180.864,-19.605 L 179.067,-21.5667
 L 177.105,-23.3643 L 174.994,-24.9841 L 172.75,-26.4138 L 170.39,-27.6424 L 167.932,-28.6606 L 167.513,-28.7926
 L 167.417,-29.5202 L 166.343,-34.3669 L 166.688,-34.2904 L 169.642,-33.3591 L 172.503,-32.1739 L 175.25,-30.7439
 L 177.862,-29.0799 L 180.319,-27.1946 L 182.602,-25.1023 L 184.695,-22.819 L 186.58,-20.362 L 188.244,-17.75
 L 189.674,-15.0029 L 190.711,-12.5 z
M 124.289,-12.5 L 125.326,-15.0029 L 126.756,-17.75 L 128.42,-20.362 L 130.305,-22.819 L 132.398,-25.1023
 L 134.681,-27.1946 L 137.138,-29.0799 L 139.75,-30.7439 L 141.376,-31.5902 L 142.495,-26.5414 L 142.25,-26.4138
 L 140.006,-24.9841 L 137.895,-23.3643 L 135.933,-21.5667 L 134.136,-19.605 L 132.516,-17.4941 L 131.086,-15.25
 L 129.858,-12.8898 L 129.696,-12.5 z
M 139.75,30.7439 L 137.138,29.0799 L 134.681,27.1946 L 132.398,25.1023 L 130.305,22.819 L 128.42,20.362
 L 126.756,17.75 L 125.326,15.0029 L 124.289,12.5 L 129.696,12.5 L 129.858,12.8898 L 131.086,15.25
 L 132.516,17.4941 L 134.136,19.605 L 135.933,21.5667 L 137.895,23.3643 L 140.006,24.9841 L 142.25,26.4138
 L 142.495,26.5414 L 141.376,31.5902 z
M 167.417,29.5202 L 167.513,28.7926 L 167.932,28.6606 L 170.39,27.6424 L 172.75,26.4138 L 174.994,24.9841
 L 177.105,23.3643 L 179.067,21.5667 L 180.864,19.605 L 182.484,17.4941 L 183.914,15.25 L 185.142,12.8898
 L 185.304,12.5 L 190.711,12.5 L 189.674,15.0029 L 188.244,17.75 L 186.58,20.362 L 184.695,22.819
 L 182.602,25.1023 L 180.319,27.1946 L 177.862,29.0799 L 175.25,30.7439 L 172.503,32.1739 L 169.642,33.3591
 L 166.688,34.2904 L 166.343,34.3669 z
M 48.2939,58.6475 L 48.8519,58.2194 L 53.7401,53.7401 L 58.2194,48.8519 L 62.2556,43.5918 L 65.8179,38
 L 68.8794,32.119 L 71.4166,25.9935 L 73.4104,19.6702 L 74.8454,13.1973 L 74.9372,12.5 L 119.016,12.5
 L 119.442,13.8518 L 120.795,17.116 L 122.426,20.25 L 124.324,23.2298 L 126.475,26.0329 L 128.862,28.6378
 L 131.467,31.0248 L 134.27,33.1756 L 137.25,35.074 L 140.256,36.6391 L 140.059,37.5287 L 136.255,49.5929
 L 131.415,61.2796 L 125.574,72.5 L 118.777,83.1686 L 111.076,93.2042 L 102.53,102.53 L 93.2042,111.076
 L 83.1686,118.777 L 83.0524,118.851 z
M -102.53,102.53 L -111.076,93.2042 L -118.777,83.1686 L -125.574,72.5 L -131.415,61.2796 L -136.255,49.5929
 L -140.059,37.5287 L -142.797,25.179 L -144.448,12.6376 L -144.454,12.5 L -74.9372,12.5 L -74.8454,13.1973
 L -73.4104,19.6702 L -71.4166,25.9935 L -68.8794,32.119 L -65.8179,38 L -62.2556,43.5918 L -58.2194,48.8519
 L -53.7401,53.7401 L -48.8519,58.2194 L -48.2939,58.6475 L -70.3334,96.8211 L -71.7172,96.5143 L -75.2202,96.0531
 L -78.75,95.899 L -82.2798,96.0531 L -85.7827,96.5143 L -89.2322,97.279 L -92.6018,98.3414 L -95.866,99.6935
 L -99,101.325 L -101.859,103.146 z
M -12.6376,144.448 L -25.179,142.797 L -37.5287,140.059 L -38.3978,139.785 L -38.25,136.399 L -38.4041,132.869
 L -38.8653,129.366 L -39.63,125.917 L -40.6924,122.547 L -42.0445,119.283 L -43.676,116.149 L -45.5743,113.169
 L -47.7252,110.366 L -48.6828,109.321 L -26.6433,71.1475 L -25.9935,71.4166 L -19.6702,73.4104 L -13.1973,74.8454
 L -6.62383,75.7108 L 0,76 L 6.62383,75.7108 L 13.1973,74.8454 L 19.6702,73.4104 L 25.9935,71.4166
 L 26.6433,71.1475 L 61.4018,131.351 L 61.2796,131.415 L 49.5929,136.255 L 37.5287,140.059 L 25.179,142.797
 L 12.6376,144.448 L 0,145 z
M -98.0458,106.64 L -96.5,105.655 L -93.7529,104.225 L -90.8917,103.04 L -87.9381,102.109 L -84.9145,101.438
 L -81.844,101.034 L -78.75,100.899 L -75.656,101.034 L -72.97,101.388 L -75.6734,106.07 L -76.0917,106.015
 L -78.75,105.899 L -81.4082,106.015 L -84.0462,106.362 L -86.644,106.938 L -89.1816,107.738 L -91.6398,108.757
 L -94,109.985 L -94.233,110.134 z
M -48.2621,136.675 L -48.25,136.399 L -48.3661,133.741 L -48.7134,131.103 L -49.2893,128.505 L -50.0894,125.967
 L -51.1076,123.509 L -52.3362,121.149 L -53.7659,118.905 L -54.0227,118.57 L -51.3193,113.888 L -49.6701,116.037
 L -48.0061,118.649 L -46.5761,121.396 L -45.3909,124.257 L -44.4596,127.211 L -43.7893,130.234 L -43.3851,133.305
 L -43.25,136.399 L -43.3299,138.23 z
M -107.83,156.761 L -109.494,154.149 L -110.924,151.402 L -112.109,148.541 L -113.04,145.587 L -113.711,142.564
 L -114.115,139.493 L -114.25,136.399 L -114.115,133.305 L -113.711,130.234 L -113.04,127.211 L -112.934,126.874
 L -109.274,130.228 L -108.692,130.674 L -108.787,131.103 L -109.134,133.741 L -109.25,136.399 L -109.134,139.057
 L -108.787,141.695 L -108.211,144.293 L -107.411,146.831 L -106.392,149.289 L -105.164,151.649 L -103.734,153.893
 L -103.477,154.228 L -106.181,158.91 z
M -81.844,171.764 L -84.53,171.41 L -81.8266,166.728 L -81.4082,166.783 L -78.75,166.899 L -76.0917,166.783
 L -73.4537,166.436 L -70.856,165.86 L -68.3184,165.06 L -65.8601,164.041 L -63.5,162.813 L -61.2559,161.383
 L -59.145,159.763 L -58.8215,159.467 L -58.1434,159.748 L -53.4088,161.241 L -53.6477,161.501 L -55.931,163.594
 L -58.388,165.479 L -61,167.143 L -63.747,168.573 L -66.6083,169.758 L -69.5619,170.689 L -72.5855,171.36
 L -75.656,171.764 L -78.75,171.899 z
" stroke="black" fill="lightgray" stroke-width="0.5"/></svg>
