<?xml version="1.0" standalone="no"?>
<!DOCTYPE svg PUBLIC "-//W3C//DTD SVG 1.1//EN" "http://www.w3.org/Graphics/SVG/1.1/DTD/svg11.dtd">
<svg width="64mm" height="46mm" viewBox="-32 -23 64 46" xmlns="http://www.w3.org/2000/svg" version="1.1">
<title>OpenSCAD Model</title>
<path d="
M 25.9411,22.7444 L 27.75,21.9952 L 29.3033,20.8033 L 30.4952,19.25 L 31.2444,17.4411 L 31.5,15.5
 L 31.5,-15.5 L 31.2444,-17.4411 L 30.4952,-19.25 L 29.3033,-20.8033 L 27.75,-21.9952 L 25.9411,-22.7444
 L 24,-23 L -24,-23 L -25.9411,-22.7444 L -27.75,-21.9952 L -29.3033,-20.8033 L -30.4952,-19.25
 L -31.2444,-17.4411 L -31.5,-15.5 L -31.5,15.5 L -31.2444,17.4411 L -30.4952,19.25 L -29.3033,20.8033
 L -27.75,21.9952 L -25.9411,22.7444 L -24,23 L 24,23 z
M -21.5,18 L -23.4134,17.6194 L -25.0355,16.5355 L -26.1194,14.9134 L -26.5,13 L -26.5,-13
 L -26.1194,-14.9134 L -25.0355,-16.5355 L -23.4134,-17.6194 L -21.5,-18 L 21.5,-18 L 23.4134,-17.6194
 L 25.0355,-16.5355 L 26.1194,-14.9134 L 26.5,-13 L 26.5,13 L 26.1194,14.9134 L 25.0355,16.5355
 L 23.4134,17.6194 L 21.5,18 z
" stroke="black" fill="lightgray" stroke-width="0.5"/></svg>
