<?xml version="1.0" standalone="no"?>
<!DOCTYPE svg PUBLIC "-//W3C//DTD SVG 1.1//EN" "http://www.w3.org/Graphics/SVG/1.1/DTD/svg11.dtd">
<svg width="408mm" height="390mm" viewBox="-190 -195 408 390" xmlns="http://www.w3.org/2000/svg" version="1.1">
<title>OpenSCAD Model</title>
<path d="
M -85.2202,194.065 L -81.7172,193.604 L -78.2678,192.839 L -74.8982,191.777 L -71.634,190.425 L -68.5,188.794
 L -65.5201,186.895 L -62.7171,184.744 L -60.1122,182.357 L -58.4915,180.589 L -49.1756,183.526 L -32.9931,187.113
 L -16.5596,189.277 L 0,190 L 16.5596,189.277 L 32.9931,187.113 L 49.1756,183.526 L 64.9838,178.542
 L 80.2975,172.198 L 95,164.545 L 108.98,155.639 L 122.13,145.548 L 134.35,134.35 L 145.548,122.13
 L 155.639,108.98 L 164.545,95 L 172.198,80.2975 L 178.542,64.9838 L 183.526,49.1756 L 185.64,39.6392
 L 187.982,39.12 L 191.352,38.0575 L 194.616,36.7055 L 197.75,35.074 L 200.73,33.1756 L 203.533,31.0248
 L 206.138,28.6378 L 208.525,26.0329 L 210.676,23.2298 L 212.574,20.25 L 214.205,17.116 L 215.558,13.8518
 L 216.62,10.4822 L 217.385,7.03275 L 217.846,3.5298 L 218,-0 L 217.846,-3.5298 L 217.385,-7.03275
 L 216.62,-10.4822 L 215.558,-13.8518 L 214.205,-17.116 L 212.574,-20.25 L 210.676,-23.2298 L 208.525,-26.0329
 L 206.138,-28.6378 L 203.533,-31.0248 L 200.73,-33.1756 L 197.75,-35.074 L 194.616,-36.7055 L 191.352,-38.0575
 L 187.982,-39.12 L 185.64,-39.6392 L 183.526,-49.1756 L 178.542,-64.9838 L 172.198,-80.2975 L 164.545,-95
 L 155.639,-108.98 L 145.548,-122.13 L 134.35,-134.35 L 122.13,-145.548 L 108.98,-155.639 L 95,-164.545
 L 80.2975,-172.198 L 64.9838,-178.542 L 49.1756,-183.526 L 32.9931,-187.113 L 16.5596,-189.277 L 0,-190
 L -16.5596,-189.277 L -32.9931,-187.113 L -49.1756,-183.526 L -58.4915,-180.589 L -60.1122,-182.357 L -62.7171,-184.744
 L -65.5201,-186.895 L -68.5,-188.794 L -71.634,-190.425 L -74.8982,-191.777 L -78.2678,-192.839 L -81.7172,-193.604
 L -85.2202,-194.065 L -88.75,-194.219 L -92.2798,-194.065 L -95.7827,-193.604 L -99.2322,-192.839 L -102.602,-191.777
 L -105.866,-190.425 L -109,-188.794 L -111.98,-186.895 L -114.783,-184.744 L -117.388,-182.357 L -119.775,-179.752
 L -121.926,-176.949 L -123.824,-173.969 L -125.455,-170.836 L -126.808,-167.571 L -127.87,-164.202 L -128.635,-160.752
 L -129.096,-157.249 L -129.25,-153.72 L -129.096,-150.19 L -128.635,-146.687 L -127.87,-143.237 L -127.149,-140.949
 L -134.35,-134.35 L -145.548,-122.13 L -155.639,-108.98 L -164.545,-95 L -172.198,-80.2975 L -178.542,-64.9838
 L -183.526,-49.1756 L -187.113,-32.9931 L -189.277,-16.5596 L -190,-0 L -189.277,16.5596 L -187.113,32.9931
 L -183.526,49.1756 L -178.542,64.9838 L -172.198,80.2975 L -164.545,95 L -155.639,108.98 L -145.548,122.13
 L -134.35,134.35 L -127.149,140.949 L -127.87,143.237 L -128.635,146.687 L -129.096,150.19 L -129.25,153.719
 L -129.096,157.249 L -128.635,160.752 L -127.87,164.202 L -126.808,167.571 L -125.455,170.836 L -123.824,173.969
 L -121.926,176.949 L -119.775,179.752 L -117.388,182.357 L -114.783,184.744 L -111.98,186.895 L -109,188.794
 L -105.866,190.425 L -102.602,191.777 L -99.2322,192.839 L -95.7827,193.604 L -92.2798,194.065 L -88.75,194.219
 z
M -69.145,-177.084 L -71.2559,-178.704 L -73.5,-180.133 L -75.8601,-181.362 L -78.3184,-182.38 L -80.856,-183.18
 L -83.4537,-183.756 L -86.0917,-184.103 L -88.75,-184.219 L -91.4082,-184.103 L -91.8266,-184.048 L -94.53,-188.731
 L -91.844,-189.084 L -88.75,-189.219 L -85.656,-189.084 L -82.5855,-188.68 L -79.5619,-188.01 L -76.6083,-187.079
 L -73.747,-185.893 L -71,-184.463 L -68.388,-182.799 L -65.931,-180.914 L -63.7623,-178.927 L -64.9838,-178.542
 L -68.9452,-176.901 z
M -123.711,-147.555 L -124.115,-150.625 L -124.25,-153.719 L -124.115,-156.814 L -123.711,-159.884 L -123.04,-162.908
 L -122.109,-165.861 L -120.924,-168.722 L -119.494,-171.469 L -117.83,-174.081 L -116.181,-176.231 L -113.477,-171.548
 L -113.734,-171.214 L -115.164,-168.97 L -116.392,-166.609 L -117.411,-164.151 L -118.211,-161.613 L -118.787,-159.016
 L -119.134,-156.378 L -119.25,-153.719 L -119.134,-151.061 L -118.787,-148.423 L -118.728,-148.159 L -122.13,-145.548
 L -123.074,-144.683 z
M -83.6584,-139.901 L -84.0672,-139.733 L -85.9732,-139.233 L -87.9288,-138.992 L -89.8991,-139.014 L -91.8488,-139.299
 L -93.7433,-139.84 L -95.5486,-140.63 L -97.2327,-141.653 L -98.7653,-142.891 L -100.086,-144.288 L -101.14,-143.679
 L -103.64,-148.01 L -102.56,-148.633 L -102.886,-149.507 L -103.321,-151.428 L -103.496,-153.391 L -103.409,-155.359
 L -103.059,-157.298 L -102.454,-159.174 L -101.605,-160.952 L -100.527,-162.601 L -99.2377,-164.091 L -98.17,-165.035
 L -98.7901,-166.109 L -94.4599,-168.609 L -93.8398,-167.535 L -92.4881,-167.988 L -90.553,-168.359 L -88.5857,-168.469
 L -86.6213,-168.315 L -84.6949,-167.901 L -82.8408,-167.234 L -81.0922,-166.326 L -79.4803,-165.193 L -78.0338,-163.855
 L -77.4398,-163.136 L -76.3601,-163.76 L -73.8601,-159.429 L -74.9137,-158.821 L -74.3646,-156.979 L -74.0585,-155.032
 L -74.0146,-153.062 L -74.2337,-151.104 L -74.7118,-149.193 L -75.4404,-147.362 L -76.4065,-145.645 L -77.5929,-144.072
 L -78.9784,-142.671 L -79.3283,-142.401 L -78.7099,-141.33 L -83.0401,-138.83 z
M 25.9935,-71.4166 L 19.6702,-73.4104 L 13.1973,-74.8454 L 6.62383,-75.7108 L 0,-76 L -6.62383,-75.7108
 L -13.1973,-74.8454 L -19.6702,-73.4104 L -25.9935,-71.4166 L -26.6433,-71.1475 L -58.6828,-126.642 L -57.7252,-127.687
 L -55.5743,-130.49 L -53.676,-133.47 L -52.0445,-136.603 L -50.6924,-139.868 L -49.63,-143.237 L -48.8653,-146.687
 L -48.4041,-150.19 L -48.25,-153.719 L -48.4041,-157.249 L -48.446,-157.568 L -42.7051,-159.378 L -28.6519,-162.493
 L -14.3807,-164.372 L 0,-165 L 14.3807,-164.372 L 28.6519,-162.493 L 42.7051,-159.378 L 56.4333,-155.049
 L 69.732,-149.541 L 71.4018,-148.672 L 26.6433,-71.1475 z
M -64.0227,-135.891 L -63.7659,-136.225 L -62.3362,-138.469 L -61.1076,-140.83 L -60.0894,-143.288 L -59.2893,-145.826
 L -58.7134,-148.423 L -58.3661,-151.061 L -58.25,-153.719 L -58.2747,-154.287 L -56.4333,-155.049 L -53.3505,-156.021
 L -53.25,-153.719 L -53.3851,-150.625 L -53.7893,-147.555 L -54.4596,-144.531 L -55.3909,-141.578 L -56.5761,-138.717
 L -58.0061,-135.97 L -59.6701,-133.358 L -61.3193,-131.208 z
M 74.9372,-12.5 L 74.8454,-13.1973 L 73.4104,-19.6702 L 71.4166,-25.9935 L 68.8794,-32.119 L 65.8179,-38
 L 62.2556,-43.5918 L 58.2194,-48.8519 L 53.7401,-53.7401 L 48.8519,-58.2194 L 48.2939,-58.6475 L 93.0524,-136.172
 L 94.6401,-135.16 L 106.06,-126.397 L 116.673,-116.673 L 126.397,-106.06 L 135.16,-94.6401 L 142.894,-82.5
 L 149.541,-69.732 L 155.049,-56.4333 L 159.378,-42.7051 L 160.681,-36.8283 L 160.384,-36.7055 L 157.25,-35.074
 L 154.27,-33.1756 L 151.467,-31.0248 L 148.862,-28.6378 L 146.475,-26.0329 L 144.324,-23.2298 L 142.426,-20.25
 L 140.795,-17.116 L 139.442,-13.8518 L 139.016,-12.5 z
M -91.844,-118.355 L -94.9145,-118.759 L -97.9381,-119.429 L -100.892,-120.36 L -103.753,-121.546 L -106.5,-122.976
 L -108.443,-124.214 L -106.06,-126.397 L -104.479,-127.611 L -104,-127.306 L -101.64,-126.077 L -99.1816,-125.059
 L -96.644,-124.259 L -94.0462,-123.683 L -91.4082,-123.336 L -88.75,-123.219 L -86.0917,-123.336 L -85.6734,-123.391
 L -82.97,-118.708 L -85.656,-118.355 L -88.75,-118.22 z
M -164.454,-12.5 L -164.372,-14.3807 L -162.493,-28.6519 L -159.378,-42.7051 L -155.049,-56.4333 L -149.541,-69.732
 L -142.894,-82.5 L -135.16,-94.6401 L -126.397,-106.06 L -116.673,-116.673 L -112.235,-120.739 L -111.98,-120.544
 L -109,-118.645 L -105.866,-117.014 L -102.602,-115.662 L -99.2322,-114.6 L -95.7827,-113.835 L -92.2798,-113.374
 L -88.75,-113.22 L -85.2202,-113.374 L -81.7172,-113.835 L -80.3334,-114.142 L -48.2939,-58.6475 L -48.8519,-58.2194
 L -53.7401,-53.7401 L -58.2194,-48.8519 L -62.2556,-43.5918 L -65.8179,-38 L -68.8794,-32.119 L -71.4166,-25.9935
 L -73.4104,-19.6702 L -74.8454,-13.1973 L -74.9372,-12.5 z
M -6.18805,70.7298 L -12.329,69.9213 L -18.3761,68.5807 L -24.2834,66.7182 L -30.0059,64.3478 L -35.5,61.4878
 L -40.7239,58.1598 L -45.6379,54.3891 L -50.2046,50.2046 L -54.3891,45.6379 L -58.1598,40.7239 L -61.4878,35.5
 L -64.3478,30.0059 L -66.7182,24.2834 L -68.5807,18.3761 L -69.9213,12.329 L -70.7298,6.18805 L -71,-0
 L -70.7298,-6.18805 L -69.9213,-12.329 L -68.5807,-18.3761 L -66.7182,-24.2834 L -64.3478,-30.0059 L -61.4878,-35.5
 L -58.1598,-40.7239 L -54.3891,-45.6379 L -50.2046,-50.2046 L -45.6379,-54.3891 L -40.7239,-58.1598 L -35.5,-61.4878
 L -30.0059,-64.3478 L -24.2834,-66.7182 L -18.3761,-68.5807 L -12.329,-69.9213 L -6.18805,-70.7298 L 0,-71
 L 6.18805,-70.7298 L 12.329,-69.9213 L 18.3761,-68.5807 L 24.2834,-66.7182 L 30.0059,-64.3478 L 35.5,-61.4878
 L 40.7239,-58.1598 L 45.6379,-54.3891 L 50.2046,-50.2046 L 54.3891,-45.6379 L 58.1598,-40.7239 L 61.4878,-35.5
 L 64.3478,-30.0059 L 66.7182,-24.2834 L 68.5807,-18.3761 L 69.9213,-12.329 L 70.7298,-6.18805 L 71,-0
 L 70.7298,6.18805 L 69.9213,12.329 L 68.5807,18.3761 L 66.7182,24.2834 L 64.3478,30.0059 L 61.4878,35.5
 L 58.1598,40.7239 L 54.3891,45.6379 L 50.2046,50.2046 L 45.6379,54.3891 L 40.7239,58.1598 L 35.5,61.4878
 L 30.0059,64.3478 L 24.2834,66.7182 L 18.3761,68.5807 L 12.329,69.9213 L 6.18805,70.7298 L 0,71
 z
M 205.304,-12.5 L 205.142,-12.8898 L 203.914,-15.25 L 202.484,-17.4941 L 200.864,-19.605 L 199.067,-21.5667
 L 197.105,-23.3643 L 194.994,-24.9841 L 192.75,-26.4138 L 190.39,-27.6424 L 187.932,-28.6606 L 187.673,-28.7421
 L 187.113,-32.9931 L 186.836,-34.2436 L 189.642,-33.3591 L 192.503,-32.1739 L 195.25,-30.7439 L 197.862,-29.0799
 L 200.319,-27.1946 L 202.602,-25.1023 L 204.695,-22.819 L 206.58,-20.362 L 208.244,-17.75 L 209.674,-15.0029
 L 210.711,-12.5 z
M 144.289,-12.5 L 145.326,-15.0029 L 146.756,-17.75 L 148.42,-20.362 L 150.305,-22.819 L 152.398,-25.1023
 L 154.681,-27.1946 L 157.138,-29.0799 L 159.75,-30.7439 L 161.794,-31.8077 L 162.493,-28.6519 L 162.753,-26.6758
 L 162.25,-26.4138 L 160.006,-24.9841 L 157.895,-23.3643 L 155.933,-21.5667 L 154.136,-19.605 L 152.516,-17.4941
 L 151.086,-15.25 L 149.858,-12.8898 L 149.696,-12.5 z
M 175,15.75 L 175,14.5334 L 173.13,14.0878 L 171.291,13.3796 L 169.563,12.4326 L 167.977,11.2639
 L 166.561,9.89407 L 165.339,8.34772 L 164.335,6.65239 L 163.566,4.83836 L 163.046,2.93799 L 162.987,2.5
 L 161.75,2.5 L 161.75,-2.5 L 162.987,-2.5 L 163.046,-2.93799 L 163.566,-4.83836 L 164.335,-6.65239
 L 165.339,-8.34772 L 166.561,-9.89407 L 167.977,-11.2639 L 169.563,-12.4326 L 171.291,-13.3796 L 173.13,-14.0878
 L 175,-14.5334 L 175,-15.75 L 180,-15.75 L 180,-14.5033 L 180.919,-14.3482 L 182.801,-13.7644
 L 184.589,-12.935 L 186.249,-11.8748 L 187.754,-10.6026 L 189.076,-9.1413 L 190.191,-7.51683 L 191.08,-5.75824
 L 191.726,-3.89688 L 192.01,-2.5 L 193.25,-2.5 L 193.25,2.5 L 192.01,2.5 L 191.726,3.89688
 L 191.08,5.75824 L 190.191,7.51683 L 189.076,9.1413 L 187.754,10.6026 L 186.249,11.8748 L 184.589,12.935
 L 182.801,13.7644 L 180.919,14.3482 L 180,14.5033 L 180,15.75 z
M 187.113,32.9931 L 187.673,28.7421 L 187.932,28.6606 L 190.39,27.6424 L 192.75,26.4138 L 194.994,24.9841
 L 197.105,23.3643 L 199.067,21.5667 L 200.864,19.605 L 202.484,17.4941 L 203.914,15.25 L 205.142,12.8898
 L 205.304,12.5 L 210.711,12.5 L 209.674,15.0029 L 208.244,17.75 L 206.58,20.362 L 204.695,22.819
 L 202.602,25.1023 L 200.319,27.1946 L 197.862,29.0799 L 195.25,30.7439 L 192.503,32.1739 L 189.642,33.3591
 L 186.836,34.2436 z
M 48.2939,58.6475 L 48.8519,58.2194 L 53.7401,53.7401 L 58.2194,48.8519 L 62.2556,43.5918 L 65.8179,38
 L 68.8794,32.119 L 71.4166,25.9935 L 73.4104,19.6702 L 74.8454,13.1973 L 74.9372,12.5 L 139.016,12.5
 L 139.442,13.8518 L 140.795,17.116 L 142.426,20.25 L 144.324,23.2298 L 146.475,26.0329 L 148.862,28.6378
 L 151.467,31.0248 L 154.27,33.1756 L 157.25,35.074 L 160.384,36.7055 L 160.681,36.8283 L 159.378,42.7051
 L 155.049,56.4333 L 149.541,69.732 L 142.894,82.5 L 135.16,94.6401 L 126.397,106.06 L 116.673,116.673
 L 106.06,126.397 L 94.6401,135.16 L 93.0524,136.172 z
M -116.673,116.673 L -126.397,106.06 L -135.16,94.6401 L -142.894,82.5 L -149.541,69.732 L -155.049,56.4333
 L -159.378,42.7051 L -162.493,28.6519 L -164.372,14.3807 L -164.454,12.5 L -74.9372,12.5 L -74.8454,13.1973
 L -73.4104,19.6702 L -71.4166,25.9935 L -68.8794,32.119 L -65.8179,38 L -62.2556,43.5918 L -58.2194,48.8519
 L -53.7401,53.7401 L -48.8519,58.2194 L -48.2939,58.6475 L -80.3334,114.142 L -81.7172,113.835 L -85.2202,113.374
 L -88.75,113.22 L -92.2798,113.374 L -95.7827,113.835 L -99.2322,114.6 L -102.602,115.662 L -105.866,117.014
 L -109,118.645 L -111.98,120.544 L -112.235,120.739 z
M 159.75,30.7439 L 157.138,29.0799 L 154.681,27.1946 L 152.398,25.1023 L 150.305,22.819 L 148.42,20.362
 L 146.756,17.75 L 145.326,15.0029 L 144.289,12.5 L 149.696,12.5 L 149.858,12.8898 L 151.086,15.25
 L 152.516,17.4941 L 154.136,19.605 L 155.933,21.5667 L 157.895,23.3643 L 160.006,24.9841 L 162.25,26.4138
 L 162.753,26.6758 L 162.493,28.6519 L 161.794,31.8078 z
M -14.3807,164.372 L -28.6519,162.493 L -42.7051,159.378 L -48.446,157.568 L -48.4041,157.249 L -48.25,153.72
 L -48.4041,150.19 L -48.8653,146.687 L -49.63,143.237 L -50.6924,139.868 L -52.0445,136.603 L -53.676,133.47
 L -55.5743,130.49 L -57.7252,127.687 L -58.6828,126.642 L -26.6433,71.1475 L -25.9935,71.4166 L -19.6702,73.4104
 L -13.1973,74.8454 L -6.62383,75.7108 L 0,76 L 6.62383,75.7108 L 13.1973,74.8454 L 19.6702,73.4104
 L 25.9935,71.4166 L 26.6433,71.1475 L 71.4018,148.672 L 69.732,149.541 L 56.4333,155.049 L 42.7051,159.378
 L 28.6519,162.493 L 14.3807,164.372 L 0,165 z
M -106.06,126.397 L -108.443,124.214 L -106.5,122.976 L -103.753,121.546 L -100.892,120.36 L -97.9381,119.429
 L -94.9145,118.759 L -91.844,118.355 L -88.75,118.22 L -85.656,118.355 L -82.97,118.708 L -85.6734,123.391
 L -86.0917,123.336 L -88.75,123.219 L -91.4082,123.336 L -94.0462,123.683 L -96.644,124.259 L -99.1816,125.059
 L -101.64,126.077 L -104,127.306 L -104.479,127.611 z
M -56.4333,155.049 L -58.2747,154.287 L -58.25,153.72 L -58.3661,151.061 L -58.7134,148.423 L -59.2893,145.826
 L -60.0894,143.288 L -61.1076,140.83 L -62.3362,138.469 L -63.7659,136.225 L -64.0227,135.891 L -61.3193,131.208
 L -59.6701,133.358 L -58.0061,135.97 L -56.5761,138.717 L -55.3909,141.578 L -54.4596,144.531 L -53.7893,147.555
 L -53.3851,150.625 L -53.25,153.72 L -53.3505,156.021 z
M -98.7901,166.109 L -98.17,165.035 L -99.2377,164.091 L -100.527,162.601 L -101.605,160.952 L -102.454,159.174
 L -103.059,157.298 L -103.409,155.359 L -103.496,153.391 L -103.321,151.428 L -102.886,149.507 L -102.56,148.633
 L -103.64,148.01 L -101.14,143.679 L -100.086,144.288 L -98.7653,142.891 L -97.2327,141.653 L -95.5486,140.63
 L -93.7433,139.84 L -91.8488,139.299 L -89.8991,139.014 L -87.9288,138.992 L -85.9732,139.233 L -84.0672,139.733
 L -83.6584,139.901 L -83.0401,138.83 L -78.7099,141.33 L -79.3283,142.401 L -78.9784,142.671 L -77.5929,144.072
 L -76.4065,145.645 L -75.4404,147.362 L -74.7118,149.193 L -74.2337,151.104 L -74.0146,153.062 L -74.0585,155.032
 L -74.3646,156.979 L -74.9137,158.821 L -73.8601,159.429 L -76.3601,163.76 L -77.4398,163.136 L -78.0338,163.855
 L -79.4803,165.193 L -81.0922,166.326 L -82.8408,167.234 L -84.6949,167.901 L -86.6213,168.315 L -88.5857,168.469
 L -90.553,168.359 L -92.4881,167.988 L -93.8398,167.535 L -94.4599,168.609 z
M -117.83,174.081 L -119.494,171.469 L -120.924,168.722 L -122.109,165.861 L -123.04,162.908 L -123.711,159.884
 L -124.115,156.814 L -124.25,153.719 L -124.115,150.625 L -123.711,147.555 L -123.074,144.683 L -122.13,145.548
 L -118.728,148.159 L -118.787,148.423 L -119.134,151.061 L -119.25,153.719 L -119.134,156.378 L -118.787,159.016
 L -118.211,161.613 L -117.411,164.151 L -116.392,166.609 L -115.164,168.97 L -113.734,171.214 L -113.477,171.548
 L -116.181,176.231 z
M -91.844,189.084 L -94.53,188.731 L -91.8266,184.048 L -91.4082,184.103 L -88.75,184.219 L -86.0917,184.103
 L -83.4537,183.756 L -80.856,183.18 L -78.3184,182.38 L -75.8601,181.362 L -73.5,180.133 L -71.2559,178.704
 L -69.145,177.084 L -68.9452,176.901 L -64.9838,178.542 L -63.7623,178.927 L -65.931,180.914 L -68.388,182.799
 L -71,184.463 L -73.747,185.893 L -76.6083,187.079 L -79.5619,188.01 L -82.5855,188.68 L -85.656,189.084
 L -88.75,189.219 z
" stroke="black" fill="lightgray" stroke-width="0.5"/></svg>
