<?xml version="1.0" standalone="no"?>
<!DOCTYPE svg PUBLIC "-//W3C//DTD SVG 1.1//EN" "http://www.w3.org/Graphics/SVG/1.1/DTD/svg11.dtd">
<svg width="62mm" height="46mm" viewBox="-31 -23 62 46" xmlns="http://www.w3.org/2000/svg" version="1.1">
<title>OpenSCAD Model</title>
<path d="
M 24.9411,22.7444 L 26.75,21.9952 L 28.3033,20.8033 L 29.4952,19.25 L 30.2444,17.4411 L 30.5,15.5
 L 30.5,-15.5 L 30.2444,-17.4411 L 29.4952,-19.25 L 28.3033,-20.8033 L 26.75,-21.9952 L 24.9411,-22.7444
 L 23,-23 L -23,-23 L -24.9411,-22.7444 L -26.75,-21.9952 L -28.3033,-20.8033 L -29.4952,-19.25
 L -30.2444,-17.4411 L -30.5,-15.5 L -30.5,15.5 L -30.2444,17.4411 L -29.4952,19.25 L -28.3033,20.8033
 L -26.75,21.9952 L -24.9411,22.7444 L -23,23 L 23,23 z
M -20.5,18 L -22.4134,17.6194 L -24.0355,16.5355 L -25.1194,14.9134 L -25.5,13 L -25.5,-13
 L -25.1194,-14.9134 L -24.0355,-16.5355 L -22.4134,-17.6194 L -20.5,-18 L 20.5,-18 L 22.4134,-17.6194
 L 24.0355,-16.5355 L 25.1194,-14.9134 L 25.5,-13 L 25.5,13 L 25.1194,14.9134 L 24.0355,16.5355
 L 22.4134,17.6194 L 20.5,18 z
" stroke="black" fill="lightgray" stroke-width="0.5"/></svg>
