<?xml version="1.0" standalone="no"?>
<!DOCTYPE svg PUBLIC "-//W3C//DTD SVG 1.1//EN" "http://www.w3.org/Graphics/SVG/1.1/DTD/svg11.dtd">
<svg width="76mm" height="60mm" viewBox="-38 -30 76 60" xmlns="http://www.w3.org/2000/svg" version="1.1">
<title>OpenSCAD Model</title>
<path d="
M 31.9411,29.7444 L 33.75,28.9952 L 35.3033,27.8033 L 36.4952,26.25 L 37.2444,24.4411 L 37.5,22.5
 L 37.5,-22.5 L 37.2444,-24.4411 L 36.4952,-26.25 L 35.3033,-27.8033 L 33.75,-28.9952 L 31.9411,-29.7444
 L 30,-30 L -30,-30 L -31.9411,-29.7444 L -33.75,-28.9952 L -35.3033,-27.8033 L -36.4952,-26.25
 L -37.2444,-24.4411 L -37.5,-22.5 L -37.5,22.5 L -37.2444,24.4411 L -36.4952,26.25 L -35.3033,27.8033
 L -33.75,28.9952 L -31.9411,29.7444 L -30,30 L 30,30 z
M -27.5,25 L -29.4134,24.6194 L -31.0355,23.5355 L -32.1194,21.9134 L -32.5,20 L -32.5,-20
 L -32.1194,-21.9134 L -31.0355,-23.5355 L -29.4134,-24.6194 L -27.5,-25 L 27.5,-25 L 29.4134,-24.6194
 L 31.0355,-23.5355 L 32.1194,-21.9134 L 32.5,-20 L 32.5,20 L 32.1194,21.9134 L 31.0355,23.5355
 L 29.4134,24.6194 L 27.5,25 z
" stroke="black" fill="lightgray" stroke-width="0.5"/></svg>
