<?xml version="1.0" standalone="no"?>
<!DOCTYPE svg PUBLIC "-//W3C//DTD SVG 1.1//EN" "http://www.w3.org/Graphics/SVG/1.1/DTD/svg11.dtd">
<svg width="72mm" height="48mm" viewBox="-36 -24 72 48" xmlns="http://www.w3.org/2000/svg" version="1.1">
<title>OpenSCAD Model</title>
<path d="
M 29.9411,23.2444 L 31.75,22.4952 L 33.3033,21.3033 L 34.4952,19.75 L 35.2444,17.9411 L 35.5,16
 L 35.5,-16 L 35.2444,-17.9411 L 34.4952,-19.75 L 33.3033,-21.3033 L 31.75,-22.4952 L 29.9411,-23.2444
 L 28,-23.5 L -28,-23.5 L -29.9411,-23.2444 L -31.75,-22.4952 L -33.3033,-21.3033 L -34.4952,-19.75
 L -35.2444,-17.9411 L -35.5,-16 L -35.5,16 L -35.2444,17.9411 L -34.4952,19.75 L -33.3033,21.3033
 L -31.75,22.4952 L -29.9411,23.2444 L -28,23.5 L 28,23.5 z
M -25.5,18.5 L -27.4134,18.1194 L -29.0355,17.0355 L -30.1194,15.4134 L -30.5,13.5 L -30.5,-13.5
 L -30.1194,-15.4134 L -29.0355,-17.0355 L -27.4134,-18.1194 L -25.5,-18.5 L 25.5,-18.5 L 27.4134,-18.1194
 L 29.0355,-17.0355 L 30.1194,-15.4134 L 30.5,-13.5 L 30.5,13.5 L 30.1194,15.4134 L 29.0355,17.0355
 L 27.4134,18.1194 L 25.5,18.5 z
" stroke="black" fill="lightgray" stroke-width="0.5"/></svg>
