<?xml version="1.0" encoding="UTF-8" standalone="no"?>
<!-- Created with Inkscape (http://www.inkscape.org/) -->

<svg
   xmlns:dc="http://purl.org/dc/elements/1.1/"
   xmlns:cc="http://creativecommons.org/ns#"
   xmlns:rdf="http://www.w3.org/1999/02/22-rdf-syntax-ns#"
   xmlns:svg="http://www.w3.org/2000/svg"
   xmlns="http://www.w3.org/2000/svg"
   xmlns:sodipodi="http://sodipodi.sourceforge.net/DTD/sodipodi-0.dtd"
   xmlns:inkscape="http://www.inkscape.org/namespaces/inkscape"
   width="176.49883mm"
   height="166.03156mm"
   viewBox="0 0 176.49883 166.03155"
   version="1.1"
   id="svg8"
   inkscape:version="0.92.3 (2405546, 2018-03-11)"
   sodipodi:docname="led-mount.svg">
  <defs
     id="defs2" />
  <sodipodi:namedview
     id="base"
     pagecolor="#ffffff"
     bordercolor="#666666"
     borderopacity="1.0"
     inkscape:pageopacity="0.0"
     inkscape:pageshadow="2"
     inkscape:zoom="2.8284271"
     inkscape:cx="281.12939"
     inkscape:cy="300.40811"
     inkscape:document-units="mm"
     inkscape:current-layer="layer1"
     showgrid="false"
     inkscape:object-paths="true"
     inkscape:snap-intersection-paths="true"
     inkscape:window-width="3840"
     inkscape:window-height="2090"
     inkscape:window-x="0"
     inkscape:window-y="41"
     inkscape:window-maximized="1"
     fit-margin-top="0"
     fit-margin-left="0"
     fit-margin-right="0"
     fit-margin-bottom="0" />
  <metadata
     id="metadata5">
    <rdf:RDF>
      <cc:Work
         rdf:about="">
        <dc:format>image/svg+xml</dc:format>
        <dc:type
           rdf:resource="http://purl.org/dc/dcmitype/StillImage" />
        <dc:title />
      </cc:Work>
    </rdf:RDF>
  </metadata>
  <g
     inkscape:label="Layer 1"
     inkscape:groupmode="layer"
     id="layer1"
     transform="translate(-47.33375,-69.490306)">
    <g
       id="g972">
      <g
         id="g954">
        <circle
           style="opacity:1;vector-effect:none;fill:#ff0000;fill-opacity:1;fill-rule:nonzero;stroke:none;stroke-width:0.1;stroke-linecap:square;stroke-linejoin:miter;stroke-miterlimit:4;stroke-dasharray:none;stroke-dashoffset:0;stroke-opacity:1"
           id="circle901"
           cx="197.0556"
           cy="96.267258"
           r="21.950001" />
        <circle
           cy="89.228653"
           cx="207.39291"
           id="circle903"
           style="opacity:1;vector-effect:none;fill:#00ff00;fill-opacity:1;fill-rule:nonzero;stroke:none;stroke-width:0.1;stroke-linecap:square;stroke-linejoin:miter;stroke-miterlimit:4;stroke-dasharray:none;stroke-dashoffset:0;stroke-opacity:1"
           r="2.45" />
        <rect
           style="opacity:1;vector-effect:none;fill:#00ff00;fill-opacity:1;fill-rule:nonzero;stroke:none;stroke-width:0.10000001;stroke-linecap:square;stroke-linejoin:miter;stroke-miterlimit:4;stroke-dasharray:none;stroke-dashoffset:0;stroke-opacity:1"
           id="rect905"
           width="16.25"
           height="6.6000004"
           x="180.8056"
           y="96.267258" />
        <path
           style="opacity:1;vector-effect:none;fill:none;fill-opacity:1;fill-rule:nonzero;stroke:#000000;stroke-width:0.1;stroke-linecap:square;stroke-linejoin:miter;stroke-miterlimit:4;stroke-dasharray:none;stroke-dashoffset:0;stroke-opacity:1"
           d="M 197.05561,69.540306 V 122.99421"
           id="path907"
           inkscape:connector-curvature="0" />
        <path
           inkscape:connector-curvature="0"
           id="path909"
           d="M 223.78257,96.267258 H 170.32866"
           style="opacity:1;vector-effect:none;fill:none;fill-opacity:1;fill-rule:nonzero;stroke:#000000;stroke-width:0.1;stroke-linecap:square;stroke-linejoin:miter;stroke-miterlimit:4;stroke-dasharray:none;stroke-dashoffset:0;stroke-opacity:1" />
        <path
           style="opacity:1;vector-effect:none;fill:#00ff00;fill-opacity:1;fill-rule:nonzero;stroke:none;stroke-width:0.1;stroke-linecap:square;stroke-linejoin:miter;stroke-miterlimit:4;stroke-dasharray:none;stroke-dashoffset:0;stroke-opacity:1"
           d="m 209.41074,87.839086 -2.13467,3.836779 c 21.43887,2.094957 7.06783,1.551234 2.13467,-3.836779 z"
           id="path911"
           inkscape:connector-curvature="0"
           sodipodi:nodetypes="ccc" />
      </g>
      <circle
         style="opacity:1;vector-effect:none;fill:#ff0000;fill-opacity:1;fill-rule:nonzero;stroke:none;stroke-width:0.1;stroke-linecap:square;stroke-linejoin:miter;stroke-miterlimit:4;stroke-dasharray:none;stroke-dashoffset:0;stroke-opacity:1"
         id="circle956"
         cx="197.0556"
         cy="96.267258"
         r="21.950001" />
      <circle
         cy="89.228653"
         cx="207.39291"
         id="circle958"
         style="opacity:1;vector-effect:none;fill:#00ff00;fill-opacity:1;fill-rule:nonzero;stroke:none;stroke-width:0.1;stroke-linecap:square;stroke-linejoin:miter;stroke-miterlimit:4;stroke-dasharray:none;stroke-dashoffset:0;stroke-opacity:1"
         r="2.45" />
      <rect
         style="opacity:1;vector-effect:none;fill:#00ff00;fill-opacity:1;fill-rule:nonzero;stroke:none;stroke-width:0.10000001;stroke-linecap:square;stroke-linejoin:miter;stroke-miterlimit:4;stroke-dasharray:none;stroke-dashoffset:0;stroke-opacity:1"
         id="rect960"
         width="16"
         height="6"
         x="181.0556"
         y="96.267258" />
      <path
         style="opacity:1;vector-effect:none;fill:none;fill-opacity:1;fill-rule:nonzero;stroke:#000000;stroke-width:0.1;stroke-linecap:square;stroke-linejoin:miter;stroke-miterlimit:4;stroke-dasharray:none;stroke-dashoffset:0;stroke-opacity:1"
         d="M 197.05561,69.540306 V 122.99421"
         id="path962"
         inkscape:connector-curvature="0" />
      <path
         inkscape:connector-curvature="0"
         id="path964"
         d="M 223.78257,96.267258 H 170.32866"
         style="opacity:1;vector-effect:none;fill:none;fill-opacity:1;fill-rule:nonzero;stroke:#000000;stroke-width:0.1;stroke-linecap:square;stroke-linejoin:miter;stroke-miterlimit:4;stroke-dasharray:none;stroke-dashoffset:0;stroke-opacity:1" />
      <path
         style="opacity:1;vector-effect:none;fill:#00ff00;fill-opacity:1;fill-rule:nonzero;stroke:none;stroke-width:0.1;stroke-linecap:square;stroke-linejoin:miter;stroke-miterlimit:4;stroke-dasharray:none;stroke-dashoffset:0;stroke-opacity:1"
         d="m 209.41074,87.839086 -2.13467,3.836779 c 3.7507,0 11.72964,-0.65812 11.72964,4.591642 0.6533,-1.790734 -0.83979,-7.955327 -1.46158,-7.875704 0.28642,0.789959 -5.90552,1.940254 -8.13339,-0.552717 z"
         id="path966"
         inkscape:connector-curvature="0"
         sodipodi:nodetypes="ccccc" />
    </g>
    <g
       id="g1225"
       transform="translate(-226.68453,-39.670123)">
      <circle
         r="0.84560895"
         cy="191.50945"
         cx="284.9082"
         id="circle1195"
         style="opacity:1;vector-effect:none;fill:#0000ff;fill-opacity:0.95298372;fill-rule:nonzero;stroke:none;stroke-width:0.1;stroke-linecap:square;stroke-linejoin:miter;stroke-miterlimit:4;stroke-dasharray:none;stroke-dashoffset:0;stroke-opacity:1" />
      <circle
         style="opacity:1;vector-effect:none;fill:#0000ff;fill-opacity:0.95298372;fill-rule:nonzero;stroke:none;stroke-width:0.1;stroke-linecap:square;stroke-linejoin:miter;stroke-miterlimit:4;stroke-dasharray:none;stroke-dashoffset:0;stroke-opacity:1"
         id="circle1197"
         cx="287.45438"
         cy="191.50945"
         r="0.84560895" />
      <rect
         style="opacity:1;vector-effect:none;fill:none;fill-opacity:0.95298372;fill-rule:nonzero;stroke:#0000ff;stroke-width:0.10000002;stroke-linecap:square;stroke-linejoin:miter;stroke-miterlimit:4;stroke-dasharray:none;stroke-dashoffset:0;stroke-opacity:1"
         id="rect1201"
         width="15.239906"
         height="22.859932"
         x="279.83405"
         y="171.19331" />
      <circle
         style="opacity:1;vector-effect:none;fill:#0000ff;fill-opacity:0.95298372;fill-rule:nonzero;stroke:none;stroke-width:0.1;stroke-linecap:square;stroke-linejoin:miter;stroke-miterlimit:4;stroke-dasharray:none;stroke-dashoffset:0;stroke-opacity:1"
         id="circle1159"
         cx="282.36984"
         cy="182.62398"
         r="0.84560895" />
      <circle
         r="0.84560895"
         cy="182.62398"
         cx="284.93298"
         id="circle1161"
         style="opacity:1;vector-effect:none;fill:#0000ff;fill-opacity:0.95298372;fill-rule:nonzero;stroke:none;stroke-width:0.1;stroke-linecap:square;stroke-linejoin:miter;stroke-miterlimit:4;stroke-dasharray:none;stroke-dashoffset:0;stroke-opacity:1" />
      <circle
         style="opacity:1;vector-effect:none;fill:#0000ff;fill-opacity:0.95298372;fill-rule:nonzero;stroke:none;stroke-width:0.1;stroke-linecap:square;stroke-linejoin:miter;stroke-miterlimit:4;stroke-dasharray:none;stroke-dashoffset:0;stroke-opacity:1"
         id="circle1163"
         cx="284.93298"
         cy="185.14165"
         r="0.84560895" />
      <circle
         r="0.84560895"
         cy="185.13339"
         cx="282.38223"
         id="circle1165"
         style="opacity:1;vector-effect:none;fill:#0000ff;fill-opacity:0.95298372;fill-rule:nonzero;stroke:none;stroke-width:0.1;stroke-linecap:square;stroke-linejoin:miter;stroke-miterlimit:4;stroke-dasharray:none;stroke-dashoffset:0;stroke-opacity:1" />
      <circle
         r="0.84560895"
         cy="180.11363"
         cx="284.93298"
         id="circle1167"
         style="opacity:1;vector-effect:none;fill:#0000ff;fill-opacity:0.95298372;fill-rule:nonzero;stroke:none;stroke-width:0.1;stroke-linecap:square;stroke-linejoin:miter;stroke-miterlimit:4;stroke-dasharray:none;stroke-dashoffset:0;stroke-opacity:1" />
      <circle
         style="opacity:1;vector-effect:none;fill:#0000ff;fill-opacity:0.95298372;fill-rule:nonzero;stroke:none;stroke-width:0.1;stroke-linecap:square;stroke-linejoin:miter;stroke-miterlimit:4;stroke-dasharray:none;stroke-dashoffset:0;stroke-opacity:1"
         id="circle1169"
         cx="282.3956"
         cy="180.11363"
         r="0.84560895" />
      <circle
         r="0.84560895"
         cy="177.54117"
         cx="284.88623"
         id="circle1171"
         style="opacity:1;vector-effect:none;fill:#0000ff;fill-opacity:0.95298372;fill-rule:nonzero;stroke:none;stroke-width:0.1;stroke-linecap:square;stroke-linejoin:miter;stroke-miterlimit:4;stroke-dasharray:none;stroke-dashoffset:0;stroke-opacity:1" />
      <circle
         style="opacity:1;vector-effect:none;fill:#0000ff;fill-opacity:0.95298372;fill-rule:nonzero;stroke:none;stroke-width:0.1;stroke-linecap:square;stroke-linejoin:miter;stroke-miterlimit:4;stroke-dasharray:none;stroke-dashoffset:0;stroke-opacity:1"
         id="circle1173"
         cx="283.64383"
         cy="173.72923"
         r="0.84560895" />
      <circle
         r="0.84560895"
         cy="173.72923"
         cx="286.18707"
         id="circle1175"
         style="opacity:1;vector-effect:none;fill:#0000ff;fill-opacity:0.95298372;fill-rule:nonzero;stroke:none;stroke-width:0.1;stroke-linecap:square;stroke-linejoin:miter;stroke-miterlimit:4;stroke-dasharray:none;stroke-dashoffset:0;stroke-opacity:1" />
      <circle
         style="opacity:1;vector-effect:none;fill:#0000ff;fill-opacity:0.95298372;fill-rule:nonzero;stroke:none;stroke-width:0.1;stroke-linecap:square;stroke-linejoin:miter;stroke-miterlimit:4;stroke-dasharray:none;stroke-dashoffset:0;stroke-opacity:1"
         id="circle1177"
         cx="289.99023"
         cy="173.72923"
         r="0.84560895" />
      <circle
         r="0.84560895"
         cy="173.72923"
         cx="292.53055"
         id="circle1179"
         style="opacity:1;vector-effect:none;fill:#0000ff;fill-opacity:0.95298372;fill-rule:nonzero;stroke:none;stroke-width:0.1;stroke-linecap:square;stroke-linejoin:miter;stroke-miterlimit:4;stroke-dasharray:none;stroke-dashoffset:0;stroke-opacity:1" />
      <circle
         style="opacity:1;vector-effect:none;fill:#0000ff;fill-opacity:0.95298372;fill-rule:nonzero;stroke:none;stroke-width:0.1;stroke-linecap:square;stroke-linejoin:miter;stroke-miterlimit:4;stroke-dasharray:none;stroke-dashoffset:0;stroke-opacity:1"
         id="circle1181"
         cx="292.53055"
         cy="177.57625"
         r="0.84560895" />
      <circle
         r="0.84560895"
         cy="180.05809"
         cx="292.53055"
         id="circle1183"
         style="opacity:1;vector-effect:none;fill:#0000ff;fill-opacity:0.95298372;fill-rule:nonzero;stroke:none;stroke-width:0.1;stroke-linecap:square;stroke-linejoin:miter;stroke-miterlimit:4;stroke-dasharray:none;stroke-dashoffset:0;stroke-opacity:1" />
      <circle
         style="opacity:1;vector-effect:none;fill:#0000ff;fill-opacity:0.95298372;fill-rule:nonzero;stroke:none;stroke-width:0.1;stroke-linecap:square;stroke-linejoin:miter;stroke-miterlimit:4;stroke-dasharray:none;stroke-dashoffset:0;stroke-opacity:1"
         id="circle1185"
         cx="292.53055"
         cy="182.63348"
         r="0.84560895" />
      <circle
         r="0.84560895"
         cy="185.15918"
         cx="292.53055"
         id="circle1187"
         style="opacity:1;vector-effect:none;fill:#0000ff;fill-opacity:0.95298372;fill-rule:nonzero;stroke:none;stroke-width:0.1;stroke-linecap:square;stroke-linejoin:miter;stroke-miterlimit:4;stroke-dasharray:none;stroke-dashoffset:0;stroke-opacity:1" />
      <circle
         style="opacity:1;vector-effect:none;fill:#0000ff;fill-opacity:0.95298372;fill-rule:nonzero;stroke:none;stroke-width:0.1;stroke-linecap:square;stroke-linejoin:miter;stroke-miterlimit:4;stroke-dasharray:none;stroke-dashoffset:0;stroke-opacity:1"
         id="circle1189"
         cx="289.99316"
         cy="188.97595"
         r="0.84560895" />
      <circle
         r="0.84560895"
         cy="188.95941"
         cx="287.45068"
         id="circle1191"
         style="opacity:1;vector-effect:none;fill:#0000ff;fill-opacity:0.95298372;fill-rule:nonzero;stroke:none;stroke-width:0.1;stroke-linecap:square;stroke-linejoin:miter;stroke-miterlimit:4;stroke-dasharray:none;stroke-dashoffset:0;stroke-opacity:1" />
      <circle
         style="opacity:1;vector-effect:none;fill:#0000ff;fill-opacity:0.95298372;fill-rule:nonzero;stroke:none;stroke-width:0.1;stroke-linecap:square;stroke-linejoin:miter;stroke-miterlimit:4;stroke-dasharray:none;stroke-dashoffset:0;stroke-opacity:1"
         id="circle1193"
         cx="284.9082"
         cy="188.96355"
         r="0.84560895" />
      <circle
         r="0.84560895"
         cy="191.50945"
         cx="289.99176"
         id="circle1199"
         style="opacity:1;vector-effect:none;fill:#0000ff;fill-opacity:0.95298372;fill-rule:nonzero;stroke:none;stroke-width:0.1;stroke-linecap:square;stroke-linejoin:miter;stroke-miterlimit:4;stroke-dasharray:none;stroke-dashoffset:0;stroke-opacity:1" />
    </g>
    <path
       style="opacity:1;vector-effect:none;fill:#ff0100;fill-opacity:1;fill-rule:nonzero;stroke:none;stroke-width:0.37795281;stroke-linecap:square;stroke-linejoin:miter;stroke-miterlimit:4;stroke-dasharray:none;stroke-dashoffset:0;stroke-opacity:1"
       d="M 91.839844 234.26562 L 91.839844 487.49609 L 152.31055 487.49609 L 152.31055 234.26562 L 91.839844 234.26562 z "
       transform="matrix(0.26458333,0,0,0.26458333,47.33375,69.490306)"
       id="rect847" />
    <g
       id="g1271"
       transform="translate(-207.82117,-10.554143)">
      <circle
         style="opacity:1;vector-effect:none;fill:#0000ff;fill-opacity:0.95298372;fill-rule:nonzero;stroke:none;stroke-width:0.1;stroke-linecap:square;stroke-linejoin:miter;stroke-miterlimit:4;stroke-dasharray:none;stroke-dashoffset:0;stroke-opacity:1"
         id="circle1227"
         cx="284.9082"
         cy="191.50945"
         r="0.84560895" />
      <circle
         r="0.84560895"
         cy="191.50945"
         cx="287.45438"
         id="circle1229"
         style="opacity:1;vector-effect:none;fill:#0000ff;fill-opacity:0.95298372;fill-rule:nonzero;stroke:none;stroke-width:0.1;stroke-linecap:square;stroke-linejoin:miter;stroke-miterlimit:4;stroke-dasharray:none;stroke-dashoffset:0;stroke-opacity:1" />
      <rect
         y="171.19331"
         x="279.83405"
         height="22.859932"
         width="15.239906"
         id="rect1231"
         style="opacity:1;vector-effect:none;fill:none;fill-opacity:0.95298372;fill-rule:nonzero;stroke:#0000ff;stroke-width:0.10000002;stroke-linecap:square;stroke-linejoin:miter;stroke-miterlimit:4;stroke-dasharray:none;stroke-dashoffset:0;stroke-opacity:1" />
      <circle
         r="0.84560895"
         cy="182.62398"
         cx="282.36984"
         id="circle1233"
         style="opacity:1;vector-effect:none;fill:#0000ff;fill-opacity:0.95298372;fill-rule:nonzero;stroke:none;stroke-width:0.1;stroke-linecap:square;stroke-linejoin:miter;stroke-miterlimit:4;stroke-dasharray:none;stroke-dashoffset:0;stroke-opacity:1" />
      <circle
         style="opacity:1;vector-effect:none;fill:#0000ff;fill-opacity:0.95298372;fill-rule:nonzero;stroke:none;stroke-width:0.1;stroke-linecap:square;stroke-linejoin:miter;stroke-miterlimit:4;stroke-dasharray:none;stroke-dashoffset:0;stroke-opacity:1"
         id="circle1235"
         cx="284.93298"
         cy="182.62398"
         r="0.84560895" />
      <circle
         r="0.84560895"
         cy="185.14165"
         cx="284.93298"
         id="circle1237"
         style="opacity:1;vector-effect:none;fill:#0000ff;fill-opacity:0.95298372;fill-rule:nonzero;stroke:none;stroke-width:0.1;stroke-linecap:square;stroke-linejoin:miter;stroke-miterlimit:4;stroke-dasharray:none;stroke-dashoffset:0;stroke-opacity:1" />
      <circle
         style="opacity:1;vector-effect:none;fill:#0000ff;fill-opacity:0.95298372;fill-rule:nonzero;stroke:none;stroke-width:0.1;stroke-linecap:square;stroke-linejoin:miter;stroke-miterlimit:4;stroke-dasharray:none;stroke-dashoffset:0;stroke-opacity:1"
         id="circle1239"
         cx="282.38223"
         cy="185.13339"
         r="0.84560895" />
      <circle
         style="opacity:1;vector-effect:none;fill:#0000ff;fill-opacity:0.95298372;fill-rule:nonzero;stroke:none;stroke-width:0.1;stroke-linecap:square;stroke-linejoin:miter;stroke-miterlimit:4;stroke-dasharray:none;stroke-dashoffset:0;stroke-opacity:1"
         id="circle1241"
         cx="284.93298"
         cy="180.11363"
         r="0.84560895" />
      <circle
         r="0.84560895"
         cy="180.11363"
         cx="282.3956"
         id="circle1243"
         style="opacity:1;vector-effect:none;fill:#0000ff;fill-opacity:0.95298372;fill-rule:nonzero;stroke:none;stroke-width:0.1;stroke-linecap:square;stroke-linejoin:miter;stroke-miterlimit:4;stroke-dasharray:none;stroke-dashoffset:0;stroke-opacity:1" />
      <circle
         style="opacity:1;vector-effect:none;fill:#0000ff;fill-opacity:0.95298372;fill-rule:nonzero;stroke:none;stroke-width:0.1;stroke-linecap:square;stroke-linejoin:miter;stroke-miterlimit:4;stroke-dasharray:none;stroke-dashoffset:0;stroke-opacity:1"
         id="circle1245"
         cx="284.88623"
         cy="177.54117"
         r="0.84560895" />
      <circle
         r="0.84560895"
         cy="173.72923"
         cx="283.64383"
         id="circle1247"
         style="opacity:1;vector-effect:none;fill:#0000ff;fill-opacity:0.95298372;fill-rule:nonzero;stroke:none;stroke-width:0.1;stroke-linecap:square;stroke-linejoin:miter;stroke-miterlimit:4;stroke-dasharray:none;stroke-dashoffset:0;stroke-opacity:1" />
      <circle
         style="opacity:1;vector-effect:none;fill:#0000ff;fill-opacity:0.95298372;fill-rule:nonzero;stroke:none;stroke-width:0.1;stroke-linecap:square;stroke-linejoin:miter;stroke-miterlimit:4;stroke-dasharray:none;stroke-dashoffset:0;stroke-opacity:1"
         id="circle1249"
         cx="286.18707"
         cy="173.72923"
         r="0.84560895" />
      <circle
         r="0.84560895"
         cy="173.72923"
         cx="289.99023"
         id="circle1251"
         style="opacity:1;vector-effect:none;fill:#0000ff;fill-opacity:0.95298372;fill-rule:nonzero;stroke:none;stroke-width:0.1;stroke-linecap:square;stroke-linejoin:miter;stroke-miterlimit:4;stroke-dasharray:none;stroke-dashoffset:0;stroke-opacity:1" />
      <circle
         style="opacity:1;vector-effect:none;fill:#0000ff;fill-opacity:0.95298372;fill-rule:nonzero;stroke:none;stroke-width:0.1;stroke-linecap:square;stroke-linejoin:miter;stroke-miterlimit:4;stroke-dasharray:none;stroke-dashoffset:0;stroke-opacity:1"
         id="circle1253"
         cx="292.53055"
         cy="173.72923"
         r="0.84560895" />
      <circle
         r="0.84560895"
         cy="177.57625"
         cx="292.53055"
         id="circle1255"
         style="opacity:1;vector-effect:none;fill:#0000ff;fill-opacity:0.95298372;fill-rule:nonzero;stroke:none;stroke-width:0.1;stroke-linecap:square;stroke-linejoin:miter;stroke-miterlimit:4;stroke-dasharray:none;stroke-dashoffset:0;stroke-opacity:1" />
      <circle
         style="opacity:1;vector-effect:none;fill:#0000ff;fill-opacity:0.95298372;fill-rule:nonzero;stroke:none;stroke-width:0.1;stroke-linecap:square;stroke-linejoin:miter;stroke-miterlimit:4;stroke-dasharray:none;stroke-dashoffset:0;stroke-opacity:1"
         id="circle1257"
         cx="292.53055"
         cy="180.05809"
         r="0.84560895" />
      <circle
         r="0.84560895"
         cy="182.63348"
         cx="292.53055"
         id="circle1259"
         style="opacity:1;vector-effect:none;fill:#0000ff;fill-opacity:0.95298372;fill-rule:nonzero;stroke:none;stroke-width:0.1;stroke-linecap:square;stroke-linejoin:miter;stroke-miterlimit:4;stroke-dasharray:none;stroke-dashoffset:0;stroke-opacity:1" />
      <circle
         style="opacity:1;vector-effect:none;fill:#0000ff;fill-opacity:0.95298372;fill-rule:nonzero;stroke:none;stroke-width:0.1;stroke-linecap:square;stroke-linejoin:miter;stroke-miterlimit:4;stroke-dasharray:none;stroke-dashoffset:0;stroke-opacity:1"
         id="circle1261"
         cx="292.53055"
         cy="185.15918"
         r="0.84560895" />
      <circle
         r="0.84560895"
         cy="188.97595"
         cx="289.99316"
         id="circle1263"
         style="opacity:1;vector-effect:none;fill:#0000ff;fill-opacity:0.95298372;fill-rule:nonzero;stroke:none;stroke-width:0.1;stroke-linecap:square;stroke-linejoin:miter;stroke-miterlimit:4;stroke-dasharray:none;stroke-dashoffset:0;stroke-opacity:1" />
      <circle
         style="opacity:1;vector-effect:none;fill:#0000ff;fill-opacity:0.95298372;fill-rule:nonzero;stroke:none;stroke-width:0.1;stroke-linecap:square;stroke-linejoin:miter;stroke-miterlimit:4;stroke-dasharray:none;stroke-dashoffset:0;stroke-opacity:1"
         id="circle1265"
         cx="287.45068"
         cy="188.95941"
         r="0.84560895" />
      <circle
         r="0.84560895"
         cy="188.96355"
         cx="284.9082"
         id="circle1267"
         style="opacity:1;vector-effect:none;fill:#0000ff;fill-opacity:0.95298372;fill-rule:nonzero;stroke:none;stroke-width:0.1;stroke-linecap:square;stroke-linejoin:miter;stroke-miterlimit:4;stroke-dasharray:none;stroke-dashoffset:0;stroke-opacity:1" />
      <circle
         style="opacity:1;vector-effect:none;fill:#0000ff;fill-opacity:0.95298372;fill-rule:nonzero;stroke:none;stroke-width:0.1;stroke-linecap:square;stroke-linejoin:miter;stroke-miterlimit:4;stroke-dasharray:none;stroke-dashoffset:0;stroke-opacity:1"
         id="circle1269"
         cx="289.99176"
         cy="191.50945"
         r="0.84560895" />
    </g>
    <path
       style="opacity:1;vector-effect:none;fill:#ff0100;fill-opacity:1;fill-rule:nonzero;stroke:none;stroke-width:0.37795281;stroke-linecap:square;stroke-linejoin:miter;stroke-miterlimit:4;stroke-dasharray:none;stroke-dashoffset:0;stroke-opacity:1"
       d="M 164.38086 234.26562 L 164.38086 487.49609 L 224.85352 487.49609 L 224.85352 234.26562 L 164.38086 234.26562 z M 180.2168 350.88867 A 3.1960023 3.1960023 0 0 1 183.41211 354.08398 A 3.1960023 3.1960023 0 0 1 180.2168 357.2793 A 3.1960023 3.1960023 0 0 1 177.02148 354.08398 A 3.1960023 3.1960023 0 0 1 180.2168 350.88867 z M 189.82812 350.88867 A 3.1960023 3.1960023 0 0 1 193.02539 354.08398 A 3.1960023 3.1960023 0 0 1 189.82812 357.2793 A 3.1960023 3.1960023 0 0 1 186.63281 354.08398 A 3.1960023 3.1960023 0 0 1 189.82812 350.88867 z M 204.20312 350.88867 A 3.1960023 3.1960023 0 0 1 207.39844 354.08398 A 3.1960023 3.1960023 0 0 1 204.20312 357.2793 A 3.1960023 3.1960023 0 0 1 201.00781 354.08398 A 3.1960023 3.1960023 0 0 1 204.20312 350.88867 z M 213.80469 350.88867 A 3.1960023 3.1960023 0 0 1 217 354.08398 A 3.1960023 3.1960023 0 0 1 213.80469 357.2793 A 3.1960023 3.1960023 0 0 1 210.60742 354.08398 A 3.1960023 3.1960023 0 0 1 213.80469 350.88867 z M 184.91211 365.29492 A 3.1960023 3.1960023 0 0 1 188.10938 368.49219 A 3.1960023 3.1960023 0 0 1 184.91211 371.6875 A 3.1960023 3.1960023 0 0 1 181.7168 368.49219 A 3.1960023 3.1960023 0 0 1 184.91211 365.29492 z M 213.80469 365.42773 A 3.1960023 3.1960023 0 0 1 217 368.62305 A 3.1960023 3.1960023 0 0 1 213.80469 371.82031 A 3.1960023 3.1960023 0 0 1 210.60742 368.62305 A 3.1960023 3.1960023 0 0 1 213.80469 365.42773 z M 213.80469 374.80859 A 3.1960023 3.1960023 0 0 1 217 378.00391 A 3.1960023 3.1960023 0 0 1 213.80469 381.19922 A 3.1960023 3.1960023 0 0 1 210.60742 378.00391 A 3.1960023 3.1960023 0 0 1 213.80469 374.80859 z M 175.5 375.01758 A 3.1960023 3.1960023 0 0 1 178.69531 378.21484 A 3.1960023 3.1960023 0 0 1 175.5 381.41016 A 3.1960023 3.1960023 0 0 1 172.30273 378.21484 A 3.1960023 3.1960023 0 0 1 175.5 375.01758 z M 185.08984 375.01758 A 3.1960023 3.1960023 0 0 1 188.28516 378.21484 A 3.1960023 3.1960023 0 0 1 185.08984 381.41016 A 3.1960023 3.1960023 0 0 1 181.89258 378.21484 A 3.1960023 3.1960023 0 0 1 185.08984 375.01758 z M 175.40234 384.50586 A 3.1960023 3.1960023 0 0 1 178.59766 387.70117 A 3.1960023 3.1960023 0 0 1 175.40234 390.89844 A 3.1960023 3.1960023 0 0 1 172.20508 387.70117 A 3.1960023 3.1960023 0 0 1 175.40234 384.50586 z M 185.08984 384.50586 A 3.1960023 3.1960023 0 0 1 188.28516 387.70117 A 3.1960023 3.1960023 0 0 1 185.08984 390.89844 A 3.1960023 3.1960023 0 0 1 181.89258 387.70117 A 3.1960023 3.1960023 0 0 1 185.08984 384.50586 z M 213.80469 384.54102 A 3.1960023 3.1960023 0 0 1 217 387.73828 A 3.1960023 3.1960023 0 0 1 213.80469 390.93359 A 3.1960023 3.1960023 0 0 1 210.60742 387.73828 A 3.1960023 3.1960023 0 0 1 213.80469 384.54102 z M 175.44922 393.99023 A 3.1960023 3.1960023 0 0 1 178.64453 397.18555 A 3.1960023 3.1960023 0 0 1 175.44922 400.38281 A 3.1960023 3.1960023 0 0 1 172.25195 397.18555 A 3.1960023 3.1960023 0 0 1 175.44922 393.99023 z M 185.08984 394.01953 A 3.1960023 3.1960023 0 0 1 188.28516 397.21484 A 3.1960023 3.1960023 0 0 1 185.08984 400.41211 A 3.1960023 3.1960023 0 0 1 181.89258 397.21484 A 3.1960023 3.1960023 0 0 1 185.08984 394.01953 z M 213.80469 394.08594 A 3.1960023 3.1960023 0 0 1 217 397.28125 A 3.1960023 3.1960023 0 0 1 213.80469 400.47852 A 3.1960023 3.1960023 0 0 1 210.60742 397.28125 A 3.1960023 3.1960023 0 0 1 213.80469 394.08594 z M 194.60547 408.44922 A 3.1960023 3.1960023 0 0 1 197.80078 411.64453 A 3.1960023 3.1960023 0 0 1 194.60547 414.8418 A 3.1960023 3.1960023 0 0 1 191.4082 411.64453 A 3.1960023 3.1960023 0 0 1 194.60547 408.44922 z M 184.99609 408.46484 A 3.1960023 3.1960023 0 0 1 188.19141 411.66016 A 3.1960023 3.1960023 0 0 1 184.99609 414.85742 A 3.1960023 3.1960023 0 0 1 181.79883 411.66016 A 3.1960023 3.1960023 0 0 1 184.99609 408.46484 z M 204.21484 408.51172 A 3.1960023 3.1960023 0 0 1 207.41016 411.70703 A 3.1960023 3.1960023 0 0 1 204.21484 414.9043 A 3.1960023 3.1960023 0 0 1 201.01758 411.70703 A 3.1960023 3.1960023 0 0 1 204.21484 408.51172 z M 184.99609 418.08594 A 3.1960023 3.1960023 0 0 1 188.19141 421.2832 A 3.1960023 3.1960023 0 0 1 184.99609 424.47852 A 3.1960023 3.1960023 0 0 1 181.79883 421.2832 A 3.1960023 3.1960023 0 0 1 184.99609 418.08594 z M 194.61914 418.08594 A 3.1960023 3.1960023 0 0 1 197.81445 421.2832 A 3.1960023 3.1960023 0 0 1 194.61914 424.47852 A 3.1960023 3.1960023 0 0 1 191.42383 421.2832 A 3.1960023 3.1960023 0 0 1 194.61914 418.08594 z M 204.20898 418.08594 A 3.1960023 3.1960023 0 0 1 207.4043 421.2832 A 3.1960023 3.1960023 0 0 1 204.20898 424.47852 A 3.1960023 3.1960023 0 0 1 201.01367 421.2832 A 3.1960023 3.1960023 0 0 1 204.20898 418.08594 z "
       transform="matrix(0.26458333,0,0,0.26458333,47.33375,69.490306)"
       id="rect1321" />
    <path
       style="opacity:1;vector-effect:none;fill:#ff0000;fill-opacity:1;fill-rule:nonzero;stroke:none;stroke-width:0.37795275;stroke-linecap:square;stroke-linejoin:miter;stroke-miterlimit:4;stroke-dasharray:none;stroke-dashoffset:0;stroke-opacity:1"
       d="M 565.87695 244.24414 A 82.960631 82.960631 0 0 0 482.91797 327.20508 A 82.960631 82.960631 0 0 0 565.87695 410.16406 A 82.960631 82.960631 0 0 0 648.83789 327.20508 A 82.960631 82.960631 0 0 0 648.74609 325.37305 C 646.96759 307.92467 619.60003 309.74826 605.54688 309.83984 A 9.2598427 9.2598427 0 0 1 604.94727 309.86133 A 9.2598427 9.2598427 0 0 1 604.70898 309.84961 C 604.64797 309.8497 604.56629 309.85156 604.50586 309.85156 L 604.51172 309.83984 A 9.2598427 9.2598427 0 0 1 595.6875 300.60156 A 9.2598427 9.2598427 0 0 1 604.94727 291.3418 A 9.2598427 9.2598427 0 0 1 612.56836 295.35938 L 612.57422 295.34961 C 620.69913 304.44132 642.76584 300.71298 643.33203 297.75781 A 82.960631 82.960631 0 0 0 565.87695 244.24414 z M 505.40625 327.20508 L 565.87695 327.20508 L 565.87695 349.88086 L 505.40625 349.88086 L 505.40625 327.20508 z "
       transform="matrix(0.26458333,0,0,0.26458333,47.33375,69.490306)"
       id="circle916" />
    <path
       style="opacity:1;vector-effect:none;fill:#ff0000;fill-opacity:1;fill-rule:nonzero;stroke:none;stroke-width:0.37795275;stroke-linecap:square;stroke-linejoin:miter;stroke-miterlimit:4;stroke-dasharray:none;stroke-dashoffset:0;stroke-opacity:1"
       d="M 565.87695 444.24414 A 82.960632 82.960632 0 0 0 482.91797 527.20508 A 82.960632 82.960632 0 0 0 565.87695 610.16602 A 82.960632 82.960632 0 0 0 648.83789 527.20508 A 82.960632 82.960632 0 0 0 565.87695 444.24414 z M 604.94727 491.3418 A 9.2598426 9.2598426 0 0 1 614.20703 500.60156 A 9.2598426 9.2598426 0 0 1 604.94727 509.86133 A 9.2598426 9.2598426 0 0 1 595.6875 500.60156 A 9.2598426 9.2598426 0 0 1 604.94727 491.3418 z M 505.40625 527.20508 L 565.87695 527.20508 L 565.87695 549.88086 L 505.40625 549.88086 L 505.40625 527.20508 z "
       transform="matrix(0.26458333,0,0,0.26458333,47.33375,69.490306)"
       id="circle942" />
  </g>
</svg>
