<?xml version="1.0" encoding="UTF-8" standalone="no"?>
<!-- Created with Inkscape (http://www.inkscape.org/) -->

<svg
   xmlns:dc="http://purl.org/dc/elements/1.1/"
   xmlns:cc="http://creativecommons.org/ns#"
   xmlns:rdf="http://www.w3.org/1999/02/22-rdf-syntax-ns#"
   xmlns:svg="http://www.w3.org/2000/svg"
   xmlns="http://www.w3.org/2000/svg"
   xmlns:sodipodi="http://sodipodi.sourceforge.net/DTD/sodipodi-0.dtd"
   xmlns:inkscape="http://www.inkscape.org/namespaces/inkscape"
   width="9.7880125in"
   height="6.5401783in"
   viewBox="0 0 248.61552 166.12053"
   version="1.1"
   id="svg8"
   inkscape:version="0.92.3 (2405546, 2018-03-11)"
   sodipodi:docname="lucet-fork.svg">
  <defs
     id="defs2" />
  <sodipodi:namedview
     id="base"
     pagecolor="#ffffff"
     bordercolor="#666666"
     borderopacity="1.0"
     inkscape:pageopacity="0.0"
     inkscape:pageshadow="2"
     inkscape:zoom="2.8"
     inkscape:cx="171.31285"
     inkscape:cy="316.49359"
     inkscape:document-units="mm"
     inkscape:current-layer="layer1"
     showgrid="false"
     inkscape:window-width="3840"
     inkscape:window-height="2090"
     inkscape:window-x="0"
     inkscape:window-y="41"
     inkscape:window-maximized="1"
     inkscape:snap-intersection-paths="true"
     inkscape:snap-center="true"
     inkscape:snap-midpoints="true"
     inkscape:snap-smooth-nodes="true"
     inkscape:snap-object-midpoints="true"
     inkscape:object-paths="true"
     inkscape:snap-global="true"
     units="in"
     fit-margin-top="0"
     fit-margin-left="0"
     fit-margin-right="0"
     fit-margin-bottom="0" />
  <metadata
     id="metadata5">
    <rdf:RDF>
      <cc:Work
         rdf:about="">
        <dc:format>image/svg+xml</dc:format>
        <dc:type
           rdf:resource="http://purl.org/dc/dcmitype/StillImage" />
        <dc:title />
      </cc:Work>
    </rdf:RDF>
  </metadata>
  <g
     inkscape:label="Layer 1"
     inkscape:groupmode="layer"
     id="layer1"
     transform="translate(-19.716463,-15.029761)">
    <rect
       style="opacity:1;vector-effect:none;fill:none;fill-opacity:1;fill-rule:nonzero;stroke:#00001e;stroke-width:0.25;stroke-linecap:butt;stroke-linejoin:bevel;stroke-miterlimit:4;stroke-dasharray:none;stroke-dashoffset:0;stroke-opacity:1"
       id="rect815"
       width="47.374996"
       height="157.86501"
       x="19.901497"
       y="19.398233" />
    <rect
       y="19.513233"
       x="19.901497"
       height="47.375"
       width="47.374996"
       id="rect836"
       style="opacity:1;vector-effect:none;fill:none;fill-opacity:1;fill-rule:nonzero;stroke:#00001e;stroke-width:0.25;stroke-linecap:butt;stroke-linejoin:bevel;stroke-miterlimit:4;stroke-dasharray:none;stroke-dashoffset:0;stroke-opacity:1" />
    <rect
       style="opacity:1;vector-effect:none;fill:none;fill-opacity:1;fill-rule:nonzero;stroke:#00001e;stroke-width:0.25;stroke-linecap:butt;stroke-linejoin:bevel;stroke-miterlimit:4;stroke-dasharray:none;stroke-dashoffset:0;stroke-opacity:1"
       id="rect838"
       width="47.374996"
       height="63.25"
       x="19.901497"
       y="19.513233" />
    <rect
       y="19.513233"
       x="19.901497"
       height="85.474998"
       width="47.374996"
       id="rect840"
       style="opacity:1;vector-effect:none;fill:none;fill-opacity:1;fill-rule:nonzero;stroke:#00001e;stroke-width:0.25;stroke-linecap:butt;stroke-linejoin:bevel;stroke-miterlimit:4;stroke-dasharray:none;stroke-dashoffset:0;stroke-opacity:1" />
    <rect
       style="opacity:1;vector-effect:none;fill:none;fill-opacity:1;fill-rule:nonzero;stroke:#00001e;stroke-width:0.25;stroke-linecap:butt;stroke-linejoin:bevel;stroke-miterlimit:4;stroke-dasharray:none;stroke-dashoffset:0;stroke-opacity:1"
       id="rect842"
       width="47.374996"
       height="21.974998"
       x="19.901497"
       y="19.513233" />
    <rect
       style="opacity:1;vector-effect:none;fill:none;fill-opacity:1;fill-rule:nonzero;stroke:#00001e;stroke-width:0.25;stroke-linecap:butt;stroke-linejoin:bevel;stroke-miterlimit:4;stroke-dasharray:none;stroke-dashoffset:0;stroke-opacity:1"
       id="rect844"
       width="47.374996"
       height="126.75"
       x="19.901497"
       y="19.513233" />
    <circle
       style="opacity:1;vector-effect:none;fill:none;fill-opacity:1;fill-rule:nonzero;stroke:#00001e;stroke-width:0.25;stroke-linecap:butt;stroke-linejoin:bevel;stroke-miterlimit:4;stroke-dasharray:none;stroke-dashoffset:0;stroke-opacity:1"
       id="path846"
       cx="43.588997"
       cy="82.763229"
       r="3.84375" />
    <path
       style="fill:none;fill-rule:evenodd;stroke:#000000;stroke-width:0.26458332px;stroke-linecap:butt;stroke-linejoin:miter;stroke-opacity:1"
       d="M 43.588996,15.029761 V 181.15029"
       id="path848"
       inkscape:connector-curvature="0" />
    <rect
       y="19.398233"
       x="32.601494"
       height="157.86501"
       width="21.975"
       id="rect850"
       style="opacity:1;vector-effect:none;fill:none;fill-opacity:1;fill-rule:nonzero;stroke:#00001e;stroke-width:0.25;stroke-linecap:butt;stroke-linejoin:bevel;stroke-miterlimit:4;stroke-dasharray:none;stroke-dashoffset:0;stroke-opacity:1" />
    <rect
       style="opacity:1;vector-effect:none;fill:none;fill-opacity:1;fill-rule:nonzero;stroke:#00001e;stroke-width:0.25;stroke-linecap:butt;stroke-linejoin:bevel;stroke-miterlimit:4;stroke-dasharray:none;stroke-dashoffset:0;stroke-opacity:1"
       id="rect852"
       width="31.5"
       height="157.86501"
       x="27.838995"
       y="19.398233" />
    <rect
       y="19.398233"
       x="35.776497"
       height="157.86501"
       width="15.625"
       id="rect854"
       style="opacity:1;vector-effect:none;fill:none;fill-opacity:1;fill-rule:nonzero;stroke:#00001e;stroke-width:0.25;stroke-linecap:butt;stroke-linejoin:bevel;stroke-miterlimit:4;stroke-dasharray:none;stroke-dashoffset:0;stroke-opacity:1" />
    <path
       style="fill:none;fill-rule:evenodd;stroke:#ff0000;stroke-width:0.26499999;stroke-linecap:butt;stroke-linejoin:miter;stroke-miterlimit:4;stroke-dasharray:none;stroke-opacity:1"
       d="m 21.224702,19.398233 c -0.584193,0 -1.628643,0.434229 -1.323205,1.501375 1.99583,6.97307 2.267857,14.602249 2.267857,20.588624 0,8.648081 -2.267857,16.932806 -2.267857,25.4 0,13.227548 15.719369,24.713928 15.875,38.099998 0.167349,14.39392 -7.9375,26.89339 -7.9375,41.275 0,17.65719 10.4881,31.00001 15.749998,31.00001 V 66.907129 c -9.013307,0 -13.177531,-14.086699 -13.177531,-25.418897 0,-8.517024 1.102059,-22.089999 -9.186762,-22.089999 z"
       id="path856"
       inkscape:connector-curvature="0"
       sodipodi:nodetypes="sssssccccs" />
    <rect
       y="69.56324"
       x="139.34198"
       height="107.7"
       width="56.900002"
       id="rect886"
       style="opacity:1;vector-effect:none;fill:none;fill-opacity:1;fill-rule:nonzero;stroke:#00001e;stroke-width:0.25;stroke-linecap:butt;stroke-linejoin:bevel;stroke-miterlimit:4;stroke-dasharray:none;stroke-dashoffset:0;stroke-opacity:1" />
    <path
       inkscape:connector-curvature="0"
       id="path888"
       d="M 167.79198,64.639136 V 181.15029"
       style="fill:none;fill-rule:evenodd;stroke:#000000;stroke-width:0.26458332px;stroke-linecap:butt;stroke-linejoin:miter;stroke-opacity:1" />
    <rect
       style="opacity:1;vector-effect:none;fill:none;fill-opacity:1;fill-rule:nonzero;stroke:#00001e;stroke-width:0.24999999;stroke-linecap:butt;stroke-linejoin:bevel;stroke-miterlimit:4;stroke-dasharray:none;stroke-dashoffset:0;stroke-opacity:1"
       id="rect890"
       width="56.900002"
       height="75.949997"
       x="139.34198"
       y="69.56324" />
    <rect
       y="69.56324"
       x="139.34198"
       height="56.900002"
       width="56.900002"
       id="rect892"
       style="opacity:1;vector-effect:none;fill:none;fill-opacity:1;fill-rule:nonzero;stroke:#00001e;stroke-width:0.24999999;stroke-linecap:butt;stroke-linejoin:bevel;stroke-miterlimit:4;stroke-dasharray:none;stroke-dashoffset:0;stroke-opacity:1" />
    <rect
       style="opacity:1;vector-effect:none;fill:none;fill-opacity:1;fill-rule:nonzero;stroke:#00001e;stroke-width:0.25;stroke-linecap:butt;stroke-linejoin:bevel;stroke-miterlimit:4;stroke-dasharray:none;stroke-dashoffset:0;stroke-opacity:1"
       id="rect894"
       width="21.975"
       height="56.900002"
       x="156.80447"
       y="69.56324" />
    <rect
       style="opacity:1;vector-effect:none;fill:none;fill-opacity:1;fill-rule:nonzero;stroke:#00001e;stroke-width:0.24999999;stroke-linecap:butt;stroke-linejoin:bevel;stroke-miterlimit:4;stroke-dasharray:none;stroke-dashoffset:0;stroke-opacity:1"
       id="rect896"
       width="44.200001"
       height="56.900002"
       x="145.69199"
       y="69.56324" />
    <rect
       style="opacity:1;vector-effect:none;fill:none;fill-opacity:1;fill-rule:nonzero;stroke:#00001e;stroke-width:0.24999999;stroke-linecap:butt;stroke-linejoin:bevel;stroke-miterlimit:4;stroke-dasharray:none;stroke-dashoffset:0;stroke-opacity:1"
       id="rect898"
       width="56.900002"
       height="18.799999"
       x="139.34198"
       y="69.56324" />
    <path
       style="fill:none;fill-rule:evenodd;stroke:#ff0000;stroke-width:0.26458332px;stroke-linecap:butt;stroke-linejoin:miter;stroke-opacity:1"
       d="m 156.80447,88.363239 c 0,-7.279555 -4.78964,-15.192559 -11.11248,-18.800001 -1.83849,-1.048933 -4.8533,-1.496712 -6.35001,0 -3.54381,3.543809 6.35001,12.185516 6.35001,18.800001 0,19.068751 -6.35001,29.839901 -6.35001,57.150001 0,10.98949 17.2997,27.34524 28.45,31.74999 v -50.79999 c -7.84301,0 -10.98751,-5.78372 -10.98751,-38.100001 z"
       id="path902"
       inkscape:connector-curvature="0"
       sodipodi:nodetypes="sssssccs" />
    <path
       style="fill:none;fill-rule:evenodd;stroke:#ff0000;stroke-width:0.26458332px;stroke-linecap:butt;stroke-linejoin:miter;stroke-opacity:1"
       d="m 213.14599,68.603047 c -1.01033,0.02294 -1.95537,0.305337 -2.61018,0.960149 -3.54381,3.543808 6.35,12.185399 6.35,18.799884 0,19.06875 -6.35,29.8399 -6.35,57.15 0,10.98949 22.31979,31.56101 28.44994,31.75 6.13016,0.18899 28.44996,-20.76051 28.44996,-31.75 0,-27.3101 -6.35,-38.08125 -6.35,-57.15 0,-6.614485 9.8938,-15.256076 6.35,-18.799884 -1.49672,-1.496713 -4.51152,-1.048935 -6.35,0 -6.32286,3.60744 -11.11251,11.520329 -11.11251,18.799884 0,32.31628 -3.14444,38.1 -10.98745,38.1 -7.84301,0 -10.98744,-5.78372 -10.98744,-38.1 0,-7.279555 -4.78966,-15.192444 -11.1125,-18.799884 -1.03415,-0.590026 -2.44083,-0.989626 -3.73982,-0.960149 z m 25.83976,73.066343 c 2.1228,3e-5 3.84366,1.72089 3.8437,3.84369 -4e-5,2.1228 -1.7209,3.84366 -3.8437,3.84369 -2.1228,-3e-5 -3.84366,-1.72089 -3.84369,-3.84369 3e-5,-2.1228 1.72089,-3.84366 3.84369,-3.84369 z"
       id="path908"
       inkscape:connector-curvature="0"
       sodipodi:nodetypes="sssszssccssssszcccz" />
    <path
       style="fill:none;fill-rule:evenodd;stroke:#ff0000;stroke-width:0.26499999;stroke-linecap:butt;stroke-linejoin:miter;stroke-miterlimit:4;stroke-dasharray:none;stroke-opacity:1"
       d="m 80.773534,19.398487 c -0.584192,0 -1.62887,0.434054 -1.323433,1.5012 1.995829,6.97307 2.268078,14.602032 2.268078,20.588407 0,8.648081 -2.268078,16.932807 -2.268078,25.4 0,13.227547 15.71937,24.713929 15.875,38.099996 0.167349,14.39392 -7.9375,26.89339 -7.9375,41.275 0,17.65719 10.488044,31.00018 15.749939,31.00018 5.2619,0 15.74995,-13.34299 15.74995,-31.00018 0,-14.38161 -8.10485,-26.88108 -7.9375,-41.275 0.15563,-13.386067 15.875,-24.872449 15.875,-38.099996 0,-8.467193 -2.26757,-16.751919 -2.26757,-25.4 0,-5.986375 0.27174,-13.615337 2.26757,-20.588407 0.30543,-1.067146 -0.73873,-1.5012 -1.32292,-1.5012 -10.28882,0 -9.18704,13.572583 -9.18704,22.089607 0,11.332197 -4.16418,25.419121 -13.17749,25.419121 -9.013303,0 -13.177487,-14.086924 -13.177485,-25.419121 0,-8.517024 1.102299,-22.089607 -9.186521,-22.089607 z m 22.364006,59.520914 a 3.8437499,3.8437499 0 0 1 3.8437,3.843692 3.8437499,3.8437499 0 0 1 -3.8437,3.843692 3.8437499,3.8437499 0 0 1 -3.843689,-3.843692 3.8437499,3.8437499 0 0 1 3.843689,-3.843692 z"
       id="path839"
       inkscape:connector-curvature="0" />
  </g>
</svg>
