<?xml version="1.0" standalone="no"?>
<!DOCTYPE svg PUBLIC "-//W3C//DTD SVG 1.1//EN" "http://www.w3.org/Graphics/SVG/1.1/DTD/svg11.dtd">
<svg width="373mm" height="293mm" viewBox="-58 -186 373 293" xmlns="http://www.w3.org/2000/svg" version="1.1">
<title>OpenSCAD Model</title>
<path d="
M 133.568,-71.655 L 138.511,-72.3057 L 143.379,-73.3848 L 148.134,-74.8841 L 152.74,-76.792 L 157.162,-79.0941
 L 161.367,-81.773 L 165.323,-84.8081 L 168.999,-88.1763 L 172.367,-91.8522 L 175.402,-95.8076 L 178.081,-100.012
 L 180.383,-104.435 L 182.291,-109.041 L 183.79,-113.796 L 184.869,-118.664 L 185.52,-123.607 L 185.737,-128.587
 L 185.52,-133.568 L 184.869,-138.511 L 183.79,-143.379 L 182.291,-148.134 L 180.383,-152.74 L 178.081,-157.162
 L 175.402,-161.367 L 172.367,-165.323 L 168.999,-168.999 L 165.323,-172.367 L 161.367,-175.402 L 157.162,-178.081
 L 152.74,-180.383 L 148.134,-182.291 L 143.379,-183.79 L 138.511,-184.869 L 133.568,-185.52 L 128.587,-185.737
 L 123.607,-185.52 L 118.664,-184.869 L 113.796,-183.79 L 109.041,-182.291 L 104.435,-180.383 L 100.012,-178.081
 L 95.8076,-175.402 L 91.8522,-172.367 L 88.1763,-168.999 L 84.8081,-165.323 L 81.773,-161.367 L 79.0941,-157.162
 L 76.792,-152.74 L 74.8841,-148.134 L 73.3848,-143.379 L 72.3057,-138.511 L 71.655,-133.568 L 71.4375,-128.587
 L 71.655,-123.607 L 72.3057,-118.664 L 73.3848,-113.796 L 74.8841,-109.041 L 76.792,-104.435 L 79.0941,-100.012
 L 81.773,-95.8076 L 84.8081,-91.8522 L 88.1763,-88.1763 L 91.8522,-84.8081 L 95.8076,-81.773 L 100.012,-79.0941
 L 104.435,-76.792 L 109.041,-74.8841 L 113.796,-73.3848 L 118.664,-72.3057 L 123.607,-71.655 L 128.587,-71.4375
 z
M 128.311,-171.78 L 128.036,-171.816 L 127.766,-171.876 L 127.502,-171.959 L 127.246,-172.065 L 127,-172.193
 L 126.766,-172.342 L 126.547,-172.51 L 126.342,-172.697 L 126.155,-172.902 L 125.987,-173.121 L 125.838,-173.355
 L 125.71,-173.601 L 125.604,-173.857 L 125.521,-174.121 L 125.461,-174.391 L 125.425,-174.666 L 125.413,-174.942
 L 125.425,-175.219 L 125.461,-175.494 L 125.521,-175.764 L 125.604,-176.028 L 125.71,-176.284 L 125.838,-176.53
 L 125.987,-176.764 L 126.155,-176.983 L 126.342,-177.188 L 126.547,-177.375 L 126.766,-177.543 L 127,-177.692
 L 127.246,-177.82 L 127.502,-177.926 L 127.766,-178.009 L 128.036,-178.069 L 128.311,-178.105 L 128.587,-178.117
 L 128.864,-178.105 L 129.139,-178.069 L 129.409,-178.009 L 129.673,-177.926 L 129.929,-177.82 L 130.175,-177.692
 L 130.409,-177.543 L 130.628,-177.375 L 130.833,-177.188 L 131.02,-176.983 L 131.188,-176.764 L 131.337,-176.53
 L 131.465,-176.284 L 131.571,-176.028 L 131.654,-175.764 L 131.714,-175.494 L 131.75,-175.219 L 131.762,-174.942
 L 131.75,-174.666 L 131.714,-174.391 L 131.654,-174.121 L 131.571,-173.857 L 131.465,-173.601 L 131.337,-173.355
 L 131.188,-173.121 L 131.02,-172.902 L 130.833,-172.697 L 130.628,-172.51 L 130.409,-172.342 L 130.175,-172.193
 L 129.929,-172.065 L 129.673,-171.959 L 129.409,-171.876 L 129.139,-171.816 L 128.864,-171.78 L 128.587,-171.767
 z
M 88.1662,-148.602 L 87.8916,-148.638 L 87.6211,-148.698 L 87.357,-148.781 L 87.1011,-148.887 L 86.8554,-149.015
 L 86.6218,-149.164 L 86.402,-149.333 L 86.1978,-149.52 L 86.0107,-149.724 L 85.8421,-149.944 L 85.6933,-150.177
 L 85.5654,-150.423 L 85.4594,-150.679 L 85.3761,-150.943 L 85.3161,-151.214 L 85.28,-151.488 L 85.2679,-151.765
 L 85.28,-152.042 L 85.3161,-152.316 L 85.3761,-152.587 L 85.4594,-152.851 L 85.5654,-153.107 L 85.6933,-153.352
 L 85.8421,-153.586 L 86.0107,-153.806 L 86.1978,-154.01 L 86.402,-154.197 L 86.6218,-154.366 L 86.8554,-154.515
 L 87.1011,-154.643 L 87.357,-154.749 L 87.6211,-154.832 L 87.8916,-154.892 L 88.1662,-154.928 L 88.4429,-154.94
 L 88.7196,-154.928 L 88.9942,-154.892 L 89.2646,-154.832 L 89.5288,-154.749 L 89.7847,-154.643 L 90.0304,-154.515
 L 90.264,-154.366 L 90.4837,-154.197 L 90.688,-154.01 L 90.8751,-153.806 L 91.0437,-153.586 L 91.1925,-153.352
 L 91.3204,-153.107 L 91.4264,-152.851 L 91.5097,-152.587 L 91.5697,-152.316 L 91.6058,-152.042 L 91.6179,-151.765
 L 91.6058,-151.488 L 91.5697,-151.214 L 91.5097,-150.943 L 91.4264,-150.679 L 91.3204,-150.423 L 91.1925,-150.177
 L 91.0437,-149.944 L 90.8751,-149.724 L 90.688,-149.52 L 90.4837,-149.333 L 90.264,-149.164 L 90.0304,-149.015
 L 89.7847,-148.887 L 89.5288,-148.781 L 89.2646,-148.698 L 88.9942,-148.638 L 88.7196,-148.602 L 88.4429,-148.59
 z
M 168.455,-148.602 L 168.181,-148.638 L 167.91,-148.698 L 167.646,-148.781 L 167.39,-148.887 L 167.145,-149.015
 L 166.911,-149.164 L 166.691,-149.333 L 166.487,-149.52 L 166.3,-149.724 L 166.131,-149.944 L 165.982,-150.177
 L 165.855,-150.423 L 165.749,-150.679 L 165.665,-150.943 L 165.605,-151.214 L 165.569,-151.488 L 165.557,-151.765
 L 165.569,-152.042 L 165.605,-152.316 L 165.665,-152.587 L 165.749,-152.851 L 165.855,-153.107 L 165.982,-153.352
 L 166.131,-153.586 L 166.3,-153.806 L 166.487,-154.01 L 166.691,-154.197 L 166.911,-154.366 L 167.145,-154.515
 L 167.39,-154.643 L 167.646,-154.749 L 167.91,-154.832 L 168.181,-154.892 L 168.455,-154.928 L 168.732,-154.94
 L 169.009,-154.928 L 169.283,-154.892 L 169.554,-154.832 L 169.818,-154.749 L 170.074,-154.643 L 170.32,-154.515
 L 170.553,-154.366 L 170.773,-154.197 L 170.977,-154.01 L 171.164,-153.806 L 171.333,-153.586 L 171.482,-153.352
 L 171.61,-153.107 L 171.716,-152.851 L 171.799,-152.587 L 171.859,-152.316 L 171.895,-152.042 L 171.907,-151.765
 L 171.895,-151.488 L 171.859,-151.214 L 171.799,-150.943 L 171.716,-150.679 L 171.61,-150.423 L 171.482,-150.177
 L 171.333,-149.944 L 171.164,-149.724 L 170.977,-149.52 L 170.773,-149.333 L 170.553,-149.164 L 170.32,-149.015
 L 170.074,-148.887 L 169.818,-148.781 L 169.554,-148.698 L 169.283,-148.638 L 169.009,-148.602 L 168.732,-148.59
 z
M 156.886,-125.425 L 156.611,-125.461 L 156.341,-125.521 L 156.077,-125.604 L 155.821,-125.71 L 155.575,-125.838
 L 155.341,-125.987 L 155.122,-126.155 L 154.917,-126.342 L 154.73,-126.547 L 154.562,-126.766 L 154.413,-127
 L 154.285,-127.246 L 154.179,-127.502 L 154.096,-127.766 L 154.036,-128.036 L 154,-128.311 L 153.987,-128.587
 L 154,-128.864 L 154.036,-129.139 L 154.096,-129.409 L 154.179,-129.673 L 154.285,-129.929 L 154.413,-130.175
 L 154.562,-130.409 L 154.73,-130.628 L 154.917,-130.833 L 155.122,-131.02 L 155.341,-131.188 L 155.575,-131.337
 L 155.821,-131.465 L 156.077,-131.571 L 156.341,-131.654 L 156.611,-131.714 L 156.886,-131.75 L 157.162,-131.762
 L 157.439,-131.75 L 157.714,-131.714 L 157.984,-131.654 L 158.248,-131.571 L 158.504,-131.465 L 158.75,-131.337
 L 158.984,-131.188 L 159.203,-131.02 L 159.408,-130.833 L 159.595,-130.628 L 159.763,-130.409 L 159.912,-130.175
 L 160.04,-129.929 L 160.146,-129.673 L 160.229,-129.409 L 160.289,-129.139 L 160.325,-128.864 L 160.337,-128.587
 L 160.325,-128.311 L 160.289,-128.036 L 160.229,-127.766 L 160.146,-127.502 L 160.04,-127.246 L 159.912,-127
 L 159.763,-126.766 L 159.595,-126.547 L 159.408,-126.342 L 159.203,-126.155 L 158.984,-125.987 L 158.75,-125.838
 L 158.504,-125.71 L 158.248,-125.604 L 157.984,-125.521 L 157.714,-125.461 L 157.439,-125.425 L 157.162,-125.413
 z
M 99.7358,-125.425 L 99.4612,-125.461 L 99.1908,-125.521 L 98.9266,-125.604 L 98.6707,-125.71 L 98.425,-125.838
 L 98.1914,-125.987 L 97.9716,-126.155 L 97.7674,-126.342 L 97.5803,-126.547 L 97.4117,-126.766 L 97.2629,-127
 L 97.135,-127.246 L 97.029,-127.502 L 96.9457,-127.766 L 96.8857,-128.036 L 96.8496,-128.311 L 96.8375,-128.587
 L 96.8496,-128.864 L 96.8857,-129.139 L 96.9457,-129.409 L 97.029,-129.673 L 97.135,-129.929 L 97.2629,-130.175
 L 97.4117,-130.409 L 97.5803,-130.628 L 97.7674,-130.833 L 97.9716,-131.02 L 98.1914,-131.188 L 98.425,-131.337
 L 98.6707,-131.465 L 98.9266,-131.571 L 99.1908,-131.654 L 99.4612,-131.714 L 99.7358,-131.75 L 100.012,-131.762
 L 100.289,-131.75 L 100.564,-131.714 L 100.834,-131.654 L 101.098,-131.571 L 101.354,-131.465 L 101.6,-131.337
 L 101.834,-131.188 L 102.053,-131.02 L 102.258,-130.833 L 102.445,-130.628 L 102.613,-130.409 L 102.762,-130.175
 L 102.89,-129.929 L 102.996,-129.673 L 103.079,-129.409 L 103.139,-129.139 L 103.175,-128.864 L 103.188,-128.587
 L 103.175,-128.311 L 103.139,-128.036 L 103.079,-127.766 L 102.996,-127.502 L 102.89,-127.246 L 102.762,-127
 L 102.613,-126.766 L 102.445,-126.547 L 102.258,-126.342 L 102.053,-126.155 L 101.834,-125.987 L 101.6,-125.838
 L 101.354,-125.71 L 101.098,-125.604 L 100.834,-125.521 L 100.564,-125.461 L 100.289,-125.425 L 100.012,-125.413
 z
M 168.455,-102.247 L 168.181,-102.283 L 167.91,-102.343 L 167.646,-102.426 L 167.39,-102.532 L 167.145,-102.66
 L 166.911,-102.809 L 166.691,-102.978 L 166.487,-103.165 L 166.3,-103.369 L 166.131,-103.589 L 165.982,-103.822
 L 165.855,-104.068 L 165.749,-104.324 L 165.665,-104.588 L 165.605,-104.859 L 165.569,-105.133 L 165.557,-105.41
 L 165.569,-105.687 L 165.605,-105.961 L 165.665,-106.232 L 165.749,-106.496 L 165.855,-106.752 L 165.982,-106.997
 L 166.131,-107.231 L 166.3,-107.451 L 166.487,-107.655 L 166.691,-107.842 L 166.911,-108.011 L 167.145,-108.16
 L 167.39,-108.288 L 167.646,-108.394 L 167.91,-108.477 L 168.181,-108.537 L 168.455,-108.573 L 168.732,-108.585
 L 169.009,-108.573 L 169.283,-108.537 L 169.554,-108.477 L 169.818,-108.394 L 170.074,-108.288 L 170.32,-108.16
 L 170.553,-108.011 L 170.773,-107.842 L 170.977,-107.655 L 171.164,-107.451 L 171.333,-107.231 L 171.482,-106.997
 L 171.61,-106.752 L 171.716,-106.496 L 171.799,-106.232 L 171.859,-105.961 L 171.895,-105.687 L 171.907,-105.41
 L 171.895,-105.133 L 171.859,-104.859 L 171.799,-104.588 L 171.716,-104.324 L 171.61,-104.068 L 171.482,-103.822
 L 171.333,-103.589 L 171.164,-103.369 L 170.977,-103.165 L 170.773,-102.978 L 170.553,-102.809 L 170.32,-102.66
 L 170.074,-102.532 L 169.818,-102.426 L 169.554,-102.343 L 169.283,-102.283 L 169.009,-102.247 L 168.732,-102.235
 z
M 88.1662,-102.247 L 87.8916,-102.283 L 87.6211,-102.343 L 87.357,-102.426 L 87.1011,-102.532 L 86.8554,-102.66
 L 86.6218,-102.809 L 86.402,-102.978 L 86.1978,-103.165 L 86.0107,-103.369 L 85.8421,-103.589 L 85.6933,-103.822
 L 85.5654,-104.068 L 85.4594,-104.324 L 85.3761,-104.588 L 85.3161,-104.859 L 85.28,-105.133 L 85.2679,-105.41
 L 85.28,-105.687 L 85.3161,-105.961 L 85.3761,-106.232 L 85.4594,-106.496 L 85.5654,-106.752 L 85.6933,-106.997
 L 85.8421,-107.231 L 86.0107,-107.451 L 86.1978,-107.655 L 86.402,-107.842 L 86.6218,-108.011 L 86.8554,-108.16
 L 87.1011,-108.288 L 87.357,-108.394 L 87.6211,-108.477 L 87.8916,-108.537 L 88.1662,-108.573 L 88.4429,-108.585
 L 88.7196,-108.573 L 88.9942,-108.537 L 89.2646,-108.477 L 89.5288,-108.394 L 89.7847,-108.288 L 90.0304,-108.16
 L 90.264,-108.011 L 90.4837,-107.842 L 90.688,-107.655 L 90.8751,-107.451 L 91.0437,-107.231 L 91.1925,-106.997
 L 91.3204,-106.752 L 91.4264,-106.496 L 91.5097,-106.232 L 91.5697,-105.961 L 91.6058,-105.687 L 91.6179,-105.41
 L 91.6058,-105.133 L 91.5697,-104.859 L 91.5097,-104.588 L 91.4264,-104.324 L 91.3204,-104.068 L 91.1925,-103.822
 L 91.0437,-103.589 L 90.8751,-103.369 L 90.688,-103.165 L 90.4837,-102.978 L 90.264,-102.809 L 90.0304,-102.66
 L 89.7847,-102.532 L 89.5288,-102.426 L 89.2646,-102.343 L 88.9942,-102.283 L 88.7196,-102.247 L 88.4429,-102.235
 z
M 128.311,-79.0696 L 128.036,-79.1057 L 127.766,-79.1657 L 127.502,-79.249 L 127.246,-79.355 L 127,-79.4829
 L 126.766,-79.6317 L 126.547,-79.8003 L 126.342,-79.9874 L 126.155,-80.1917 L 125.987,-80.4114 L 125.838,-80.645
 L 125.71,-80.8907 L 125.604,-81.1466 L 125.521,-81.4108 L 125.461,-81.6812 L 125.425,-81.9558 L 125.413,-82.2325
 L 125.425,-82.5092 L 125.461,-82.7838 L 125.521,-83.0542 L 125.604,-83.3184 L 125.71,-83.5743 L 125.838,-83.82
 L 125.987,-84.0536 L 126.155,-84.2733 L 126.342,-84.4776 L 126.547,-84.6647 L 126.766,-84.8333 L 127,-84.9821
 L 127.246,-85.11 L 127.502,-85.216 L 127.766,-85.2993 L 128.036,-85.3593 L 128.311,-85.3954 L 128.587,-85.4075
 L 128.864,-85.3954 L 129.139,-85.3593 L 129.409,-85.2993 L 129.673,-85.216 L 129.929,-85.11 L 130.175,-84.9821
 L 130.409,-84.8333 L 130.628,-84.6647 L 130.833,-84.4776 L 131.02,-84.2733 L 131.188,-84.0536 L 131.337,-83.82
 L 131.465,-83.5743 L 131.571,-83.3184 L 131.654,-83.0542 L 131.714,-82.7838 L 131.75,-82.5092 L 131.762,-82.2325
 L 131.75,-81.9558 L 131.714,-81.6812 L 131.654,-81.4108 L 131.571,-81.1466 L 131.465,-80.8907 L 131.337,-80.645
 L 131.188,-80.4114 L 131.02,-80.1917 L 130.833,-79.9874 L 130.628,-79.8003 L 130.409,-79.6317 L 130.175,-79.4829
 L 129.929,-79.355 L 129.673,-79.249 L 129.409,-79.1657 L 129.139,-79.1057 L 128.864,-79.0696 L 128.587,-79.0575
 z
M 262.156,-71.655 L 267.099,-72.3057 L 271.966,-73.3848 L 276.721,-74.8841 L 281.328,-76.792 L 285.75,-79.0941
 L 289.955,-81.773 L 293.91,-84.8081 L 297.586,-88.1763 L 300.954,-91.8522 L 303.99,-95.8076 L 306.668,-100.012
 L 308.97,-104.435 L 310.878,-109.041 L 312.378,-113.796 L 313.457,-118.664 L 314.108,-123.607 L 314.325,-128.587
 L 314.108,-133.568 L 313.457,-138.511 L 312.378,-143.379 L 310.878,-148.134 L 308.97,-152.74 L 306.668,-157.162
 L 303.99,-161.367 L 300.954,-165.323 L 297.586,-168.999 L 293.91,-172.367 L 289.955,-175.402 L 285.75,-178.081
 L 281.328,-180.383 L 276.721,-182.291 L 271.966,-183.79 L 267.099,-184.869 L 262.156,-185.52 L 257.175,-185.737
 L 252.194,-185.52 L 247.251,-184.869 L 242.383,-183.79 L 237.629,-182.291 L 233.022,-180.383 L 228.6,-178.081
 L 224.395,-175.402 L 220.44,-172.367 L 216.764,-168.999 L 213.396,-165.323 L 210.36,-161.367 L 207.682,-157.162
 L 205.38,-152.74 L 203.472,-148.134 L 201.972,-143.379 L 200.893,-138.511 L 200.242,-133.568 L 200.025,-128.587
 L 200.242,-123.607 L 200.893,-118.664 L 201.972,-113.796 L 203.472,-109.041 L 205.38,-104.435 L 207.682,-100.012
 L 210.36,-95.8076 L 213.396,-91.8522 L 216.764,-88.1763 L 220.44,-84.8081 L 224.395,-81.773 L 228.6,-79.0941
 L 233.022,-76.792 L 237.629,-74.8841 L 242.383,-73.3848 L 247.251,-72.3057 L 252.194,-71.655 L 257.175,-71.4375
 z
M 256.898,-79.0696 L 256.624,-79.1057 L 256.353,-79.1657 L 256.089,-79.249 L 255.833,-79.355 L 255.587,-79.4829
 L 255.354,-79.6317 L 255.134,-79.8003 L 254.93,-79.9874 L 254.743,-80.1917 L 254.574,-80.4114 L 254.425,-80.645
 L 254.297,-80.8907 L 254.191,-81.1466 L 254.108,-81.4108 L 254.048,-81.6812 L 254.012,-81.9558 L 254,-82.2325
 L 254.012,-82.5092 L 254.048,-82.7838 L 254.068,-82.8718 L 219.138,-103.039 L 219.071,-102.978 L 218.851,-102.809
 L 218.618,-102.66 L 218.372,-102.532 L 218.116,-102.426 L 217.852,-102.343 L 217.582,-102.283 L 217.307,-102.247
 L 217.03,-102.235 L 216.754,-102.247 L 216.479,-102.283 L 216.209,-102.343 L 215.944,-102.426 L 215.689,-102.532
 L 215.443,-102.66 L 215.209,-102.809 L 214.99,-102.978 L 214.785,-103.165 L 214.598,-103.369 L 214.43,-103.589
 L 214.281,-103.822 L 214.153,-104.068 L 214.047,-104.324 L 213.964,-104.588 L 213.904,-104.859 L 213.867,-105.133
 L 213.855,-105.41 L 213.867,-105.687 L 213.904,-105.961 L 213.964,-106.232 L 214.047,-106.496 L 214.153,-106.752
 L 214.281,-106.997 L 214.43,-107.231 L 214.598,-107.451 L 214.785,-107.655 L 214.99,-107.842 L 215.209,-108.011
 L 215.443,-108.16 L 215.689,-108.288 L 215.944,-108.394 L 216.03,-108.421 L 216.03,-148.754 L 215.944,-148.781
 L 215.689,-148.887 L 215.443,-149.015 L 215.209,-149.164 L 214.99,-149.333 L 214.785,-149.52 L 214.598,-149.724
 L 214.43,-149.944 L 214.281,-150.177 L 214.153,-150.423 L 214.047,-150.679 L 213.964,-150.943 L 213.904,-151.214
 L 213.867,-151.488 L 213.855,-151.765 L 213.867,-152.042 L 213.904,-152.316 L 213.964,-152.587 L 214.047,-152.851
 L 214.153,-153.107 L 214.281,-153.352 L 214.43,-153.586 L 214.598,-153.806 L 214.785,-154.01 L 214.99,-154.197
 L 215.209,-154.366 L 215.443,-154.515 L 215.689,-154.643 L 215.944,-154.749 L 216.209,-154.832 L 216.479,-154.892
 L 216.754,-154.928 L 217.03,-154.94 L 217.307,-154.928 L 217.582,-154.892 L 217.852,-154.832 L 218.116,-154.749
 L 218.372,-154.643 L 218.618,-154.515 L 218.851,-154.366 L 219.071,-154.197 L 219.138,-154.136 L 254.068,-174.303
 L 254.048,-174.391 L 254.012,-174.666 L 254,-174.942 L 254.012,-175.219 L 254.048,-175.494 L 254.108,-175.764
 L 254.191,-176.028 L 254.297,-176.284 L 254.425,-176.53 L 254.574,-176.764 L 254.743,-176.983 L 254.93,-177.188
 L 255.134,-177.375 L 255.354,-177.543 L 255.587,-177.692 L 255.833,-177.82 L 256.089,-177.926 L 256.353,-178.009
 L 256.624,-178.069 L 256.898,-178.105 L 257.175,-178.117 L 257.452,-178.105 L 257.726,-178.069 L 257.997,-178.009
 L 258.261,-177.926 L 258.517,-177.82 L 258.762,-177.692 L 258.996,-177.543 L 259.216,-177.375 L 259.42,-177.188
 L 259.607,-176.983 L 259.776,-176.764 L 259.925,-176.53 L 260.053,-176.284 L 260.159,-176.028 L 260.242,-175.764
 L 260.302,-175.494 L 260.338,-175.219 L 260.35,-174.942 L 260.338,-174.666 L 260.302,-174.391 L 260.282,-174.303
 L 295.212,-154.136 L 295.279,-154.197 L 295.498,-154.366 L 295.732,-154.515 L 295.978,-154.643 L 296.234,-154.749
 L 296.498,-154.832 L 296.768,-154.892 L 297.043,-154.928 L 297.32,-154.94 L 297.596,-154.928 L 297.871,-154.892
 L 298.141,-154.832 L 298.406,-154.749 L 298.661,-154.643 L 298.907,-154.515 L 299.141,-154.366 L 299.36,-154.197
 L 299.565,-154.01 L 299.752,-153.806 L 299.92,-153.586 L 300.069,-153.352 L 300.197,-153.107 L 300.303,-152.851
 L 300.386,-152.587 L 300.446,-152.316 L 300.483,-152.042 L 300.495,-151.765 L 300.483,-151.488 L 300.446,-151.214
 L 300.386,-150.943 L 300.303,-150.679 L 300.197,-150.423 L 300.069,-150.177 L 299.92,-149.944 L 299.752,-149.724
 L 299.565,-149.52 L 299.36,-149.333 L 299.141,-149.164 L 298.907,-149.015 L 298.661,-148.887 L 298.406,-148.781
 L 298.32,-148.754 L 298.32,-108.421 L 298.406,-108.394 L 298.661,-108.288 L 298.907,-108.16 L 299.141,-108.011
 L 299.36,-107.842 L 299.565,-107.655 L 299.752,-107.451 L 299.92,-107.231 L 300.069,-106.997 L 300.197,-106.752
 L 300.303,-106.496 L 300.386,-106.232 L 300.446,-105.961 L 300.483,-105.687 L 300.495,-105.41 L 300.483,-105.133
 L 300.446,-104.859 L 300.386,-104.588 L 300.303,-104.324 L 300.197,-104.068 L 300.069,-103.822 L 299.92,-103.589
 L 299.752,-103.369 L 299.565,-103.165 L 299.36,-102.978 L 299.141,-102.809 L 298.907,-102.66 L 298.661,-102.532
 L 298.406,-102.426 L 298.141,-102.343 L 297.871,-102.283 L 297.596,-102.247 L 297.32,-102.235 L 297.043,-102.247
 L 296.768,-102.283 L 296.498,-102.343 L 296.234,-102.426 L 295.978,-102.532 L 295.732,-102.66 L 295.498,-102.809
 L 295.279,-102.978 L 295.212,-103.039 L 260.282,-82.8718 L 260.302,-82.7838 L 260.338,-82.5092 L 260.35,-82.2325
 L 260.338,-81.9558 L 260.302,-81.6812 L 260.242,-81.4108 L 260.159,-81.1466 L 260.053,-80.8907 L 259.925,-80.645
 L 259.776,-80.4114 L 259.607,-80.1917 L 259.42,-79.9874 L 259.216,-79.8003 L 258.996,-79.6317 L 258.762,-79.4829
 L 258.517,-79.355 L 258.261,-79.249 L 257.997,-79.1657 L 257.726,-79.1057 L 257.452,-79.0696 L 257.175,-79.0575
 z
M 294.212,-104.771 L 294.193,-104.859 L 294.157,-105.133 L 294.145,-105.41 L 294.157,-105.687 L 294.193,-105.961
 L 294.253,-106.232 L 294.336,-106.496 L 294.442,-106.752 L 294.57,-106.997 L 294.719,-107.231 L 294.887,-107.451
 L 295.075,-107.655 L 295.279,-107.842 L 295.498,-108.011 L 295.732,-108.16 L 295.978,-108.288 L 296.234,-108.394
 L 296.32,-108.421 L 296.32,-148.754 L 296.234,-148.781 L 295.978,-148.887 L 295.732,-149.015 L 295.498,-149.164
 L 295.279,-149.333 L 295.075,-149.52 L 294.887,-149.724 L 294.719,-149.944 L 294.57,-150.177 L 294.442,-150.423
 L 294.336,-150.679 L 294.253,-150.943 L 294.193,-151.214 L 294.157,-151.488 L 294.145,-151.765 L 294.157,-152.042
 L 294.193,-152.316 L 294.212,-152.404 L 259.282,-172.571 L 259.216,-172.51 L 258.996,-172.342 L 258.762,-172.193
 L 258.517,-172.065 L 258.261,-171.959 L 257.997,-171.876 L 257.726,-171.816 L 257.452,-171.78 L 257.175,-171.767
 L 256.898,-171.78 L 256.624,-171.816 L 256.353,-171.876 L 256.089,-171.959 L 255.833,-172.065 L 255.587,-172.193
 L 255.354,-172.342 L 255.134,-172.51 L 255.068,-172.571 L 220.138,-152.404 L 220.157,-152.316 L 220.193,-152.042
 L 220.205,-151.765 L 220.193,-151.488 L 220.157,-151.214 L 220.097,-150.943 L 220.014,-150.679 L 219.908,-150.423
 L 219.78,-150.177 L 219.631,-149.944 L 219.463,-149.724 L 219.275,-149.52 L 219.071,-149.333 L 218.851,-149.164
 L 218.618,-149.015 L 218.372,-148.887 L 218.116,-148.781 L 218.03,-148.754 L 218.03,-108.421 L 218.116,-108.394
 L 218.372,-108.288 L 218.618,-108.16 L 218.851,-108.011 L 219.071,-107.842 L 219.275,-107.655 L 219.463,-107.451
 L 219.631,-107.231 L 219.78,-106.997 L 219.908,-106.752 L 220.014,-106.496 L 220.097,-106.232 L 220.157,-105.961
 L 220.193,-105.687 L 220.205,-105.41 L 220.193,-105.133 L 220.157,-104.859 L 220.138,-104.771 L 255.068,-84.6038
 L 255.134,-84.6647 L 255.354,-84.8333 L 255.587,-84.9821 L 255.833,-85.11 L 256.089,-85.216 L 256.353,-85.2993
 L 256.624,-85.3593 L 256.898,-85.3954 L 257.175,-85.4075 L 257.452,-85.3954 L 257.726,-85.3593 L 257.997,-85.2993
 L 258.261,-85.216 L 258.517,-85.11 L 258.762,-84.9821 L 258.996,-84.8333 L 259.216,-84.6647 L 259.282,-84.6038
 z
M 228.323,-125.425 L 228.049,-125.461 L 227.778,-125.521 L 227.514,-125.604 L 227.258,-125.71 L 227.012,-125.838
 L 226.779,-125.987 L 226.559,-126.155 L 226.355,-126.342 L 226.168,-126.547 L 225.999,-126.766 L 225.85,-127
 L 225.722,-127.246 L 225.616,-127.502 L 225.533,-127.766 L 225.473,-128.036 L 225.437,-128.311 L 225.425,-128.587
 L 225.437,-128.864 L 225.473,-129.139 L 225.533,-129.409 L 225.616,-129.673 L 225.722,-129.929 L 225.85,-130.175
 L 225.999,-130.409 L 226.168,-130.628 L 226.355,-130.833 L 226.559,-131.02 L 226.779,-131.188 L 227.012,-131.337
 L 227.258,-131.465 L 227.514,-131.571 L 227.778,-131.654 L 228.049,-131.714 L 228.323,-131.75 L 228.6,-131.762
 L 228.877,-131.75 L 229.151,-131.714 L 229.422,-131.654 L 229.686,-131.571 L 229.942,-131.465 L 230.188,-131.337
 L 230.421,-131.188 L 230.641,-131.02 L 230.845,-130.833 L 231.032,-130.628 L 231.201,-130.409 L 231.35,-130.175
 L 231.478,-129.929 L 231.584,-129.673 L 231.667,-129.409 L 231.727,-129.139 L 231.763,-128.864 L 231.775,-128.587
 L 231.763,-128.311 L 231.727,-128.036 L 231.667,-127.766 L 231.584,-127.502 L 231.478,-127.246 L 231.35,-127
 L 231.201,-126.766 L 231.032,-126.547 L 230.845,-126.342 L 230.641,-126.155 L 230.421,-125.987 L 230.188,-125.838
 L 229.942,-125.71 L 229.686,-125.604 L 229.422,-125.521 L 229.151,-125.461 L 228.877,-125.425 L 228.6,-125.413
 z
M 285.473,-125.425 L 285.199,-125.461 L 284.928,-125.521 L 284.664,-125.604 L 284.408,-125.71 L 284.162,-125.838
 L 283.929,-125.987 L 283.709,-126.155 L 283.505,-126.342 L 283.318,-126.547 L 283.149,-126.766 L 283,-127
 L 282.872,-127.246 L 282.766,-127.502 L 282.683,-127.766 L 282.623,-128.036 L 282.587,-128.311 L 282.575,-128.587
 L 282.587,-128.864 L 282.623,-129.139 L 282.683,-129.409 L 282.766,-129.673 L 282.872,-129.929 L 283,-130.175
 L 283.149,-130.409 L 283.318,-130.628 L 283.505,-130.833 L 283.709,-131.02 L 283.929,-131.188 L 284.162,-131.337
 L 284.408,-131.465 L 284.664,-131.571 L 284.928,-131.654 L 285.199,-131.714 L 285.473,-131.75 L 285.75,-131.762
 L 286.027,-131.75 L 286.301,-131.714 L 286.572,-131.654 L 286.836,-131.571 L 287.092,-131.465 L 287.337,-131.337
 L 287.571,-131.188 L 287.791,-131.02 L 287.995,-130.833 L 288.182,-130.628 L 288.351,-130.409 L 288.5,-130.175
 L 288.628,-129.929 L 288.734,-129.673 L 288.817,-129.409 L 288.877,-129.139 L 288.913,-128.864 L 288.925,-128.587
 L 288.913,-128.311 L 288.877,-128.036 L 288.817,-127.766 L 288.734,-127.502 L 288.628,-127.246 L 288.5,-127
 L 288.351,-126.766 L 288.182,-126.547 L 287.995,-126.342 L 287.791,-126.155 L 287.571,-125.987 L 287.337,-125.838
 L 287.092,-125.71 L 286.836,-125.604 L 286.572,-125.521 L 286.301,-125.461 L 286.027,-125.425 L 285.75,-125.413
 z
M 4.98094,-71.655 L 9.92398,-72.3057 L 14.7915,-73.3848 L 19.5464,-74.8841 L 24.1526,-76.792 L 28.575,-79.0941
 L 32.7799,-81.773 L 36.7353,-84.8081 L 40.4111,-88.1763 L 43.7794,-91.8522 L 46.8145,-95.8076 L 49.4933,-100.012
 L 51.7955,-104.435 L 53.7034,-109.041 L 55.2027,-113.796 L 56.2818,-118.664 L 56.9325,-123.607 L 57.15,-128.587
 L 56.9325,-133.568 L 56.2818,-138.511 L 55.2027,-143.379 L 53.7034,-148.134 L 51.7955,-152.74 L 49.4933,-157.162
 L 46.8145,-161.367 L 43.7794,-165.323 L 40.4111,-168.999 L 36.7353,-172.367 L 32.7799,-175.402 L 28.575,-178.081
 L 24.1526,-180.383 L 19.5464,-182.291 L 14.7915,-183.79 L 9.92398,-184.869 L 4.98094,-185.52 L 0,-185.737
 L -4.98094,-185.52 L -9.92398,-184.869 L -14.7915,-183.79 L -19.5464,-182.291 L -24.1526,-180.383 L -28.575,-178.081
 L -32.7799,-175.402 L -36.7353,-172.367 L -40.4111,-168.999 L -43.7794,-165.323 L -46.8145,-161.367 L -49.4933,-157.162
 L -51.7955,-152.74 L -53.7034,-148.134 L -55.2027,-143.379 L -56.2818,-138.511 L -56.9325,-133.568 L -57.15,-128.587
 L -56.9325,-123.607 L -56.2818,-118.664 L -55.2027,-113.796 L -53.7034,-109.041 L -51.7955,-104.435 L -49.4933,-100.012
 L -46.8145,-95.8076 L -43.7794,-91.8522 L -40.4111,-88.1763 L -36.7353,-84.8081 L -32.7799,-81.773 L -28.575,-79.0941
 L -24.1526,-76.792 L -19.5464,-74.8841 L -14.7915,-73.3848 L -9.92398,-72.3057 L -4.98094,-71.655 L 0,-71.4375
 z
M -0.276718,-171.78 L -0.551331,-171.816 L -0.821747,-171.876 L -1.08591,-171.959 L -1.34181,-172.065 L -1.58749,-172.193
 L -1.82109,-172.342 L -2.04085,-172.51 L -2.24506,-172.697 L -2.43219,-172.902 L -2.6008,-173.121 L -2.74962,-173.355
 L -2.87752,-173.601 L -2.98352,-173.857 L -3.0668,-174.121 L -3.12675,-174.391 L -3.16292,-174.666 L -3.17499,-174.942
 L -3.16292,-175.219 L -3.12675,-175.494 L -3.0668,-175.764 L -2.98352,-176.028 L -2.87752,-176.284 L -2.74962,-176.53
 L -2.6008,-176.764 L -2.43219,-176.983 L -2.24506,-177.188 L -2.04085,-177.375 L -1.82109,-177.543 L -1.58749,-177.692
 L -1.34181,-177.82 L -1.08591,-177.926 L -0.821747,-178.009 L -0.551331,-178.069 L -0.276718,-178.105 L 0,-178.117
 L 0.276718,-178.105 L 0.551331,-178.069 L 0.821747,-178.009 L 1.08591,-177.926 L 1.34181,-177.82 L 1.58749,-177.692
 L 1.82109,-177.543 L 2.04085,-177.375 L 2.24506,-177.188 L 2.43219,-176.983 L 2.6008,-176.764 L 2.74962,-176.53
 L 2.87752,-176.284 L 2.98352,-176.028 L 3.0668,-175.764 L 3.12675,-175.494 L 3.16292,-175.219 L 3.17499,-174.942
 L 3.16292,-174.666 L 3.12675,-174.391 L 3.0668,-174.121 L 2.98352,-173.857 L 2.87752,-173.601 L 2.74962,-173.355
 L 2.6008,-173.121 L 2.43219,-172.902 L 2.24506,-172.697 L 2.04085,-172.51 L 1.82109,-172.342 L 1.58749,-172.193
 L 1.34181,-172.065 L 1.08591,-171.959 L 0.821747,-171.876 L 0.551331,-171.816 L 0.276718,-171.78 L 0,-171.767
 z
M 39.8679,-148.602 L 39.5933,-148.638 L 39.3228,-148.698 L 39.0587,-148.781 L 38.8028,-148.887 L 38.5571,-149.015
 L 38.3235,-149.164 L 38.1037,-149.333 L 37.8995,-149.52 L 37.7124,-149.724 L 37.5438,-149.944 L 37.395,-150.177
 L 37.2671,-150.423 L 37.1611,-150.679 L 37.0778,-150.943 L 37.0178,-151.214 L 36.9817,-151.488 L 36.9696,-151.765
 L 36.9817,-152.042 L 37.0178,-152.316 L 37.0778,-152.587 L 37.1611,-152.851 L 37.2671,-153.107 L 37.395,-153.352
 L 37.5438,-153.586 L 37.7124,-153.806 L 37.8995,-154.01 L 38.1037,-154.197 L 38.3235,-154.366 L 38.5571,-154.515
 L 38.8028,-154.643 L 39.0587,-154.749 L 39.3228,-154.832 L 39.5933,-154.892 L 39.8679,-154.928 L 40.1446,-154.94
 L 40.4213,-154.928 L 40.6959,-154.892 L 40.9664,-154.832 L 41.2305,-154.749 L 41.4864,-154.643 L 41.7321,-154.515
 L 41.9657,-154.366 L 42.1855,-154.197 L 42.3897,-154.01 L 42.5768,-153.806 L 42.7454,-153.586 L 42.8942,-153.352
 L 43.0221,-153.107 L 43.1281,-152.851 L 43.2114,-152.587 L 43.2714,-152.316 L 43.3075,-152.042 L 43.3196,-151.765
 L 43.3075,-151.488 L 43.2714,-151.214 L 43.2114,-150.943 L 43.1281,-150.679 L 43.0221,-150.423 L 42.8942,-150.177
 L 42.7454,-149.944 L 42.5768,-149.724 L 42.3897,-149.52 L 42.1855,-149.333 L 41.9657,-149.164 L 41.7321,-149.015
 L 41.4864,-148.887 L 41.2305,-148.781 L 40.9664,-148.698 L 40.6959,-148.638 L 40.4213,-148.602 L 40.1446,-148.59
 z
M -40.4213,-148.602 L -40.6959,-148.638 L -40.9664,-148.698 L -41.2305,-148.781 L -41.4864,-148.887 L -41.7321,-149.015
 L -41.9657,-149.164 L -42.1855,-149.333 L -42.3897,-149.52 L -42.5768,-149.724 L -42.7454,-149.944 L -42.8942,-150.177
 L -43.0221,-150.423 L -43.1281,-150.679 L -43.2114,-150.943 L -43.2714,-151.214 L -43.3075,-151.488 L -43.3196,-151.765
 L -43.3075,-152.042 L -43.2714,-152.316 L -43.2114,-152.587 L -43.1281,-152.851 L -43.0221,-153.107 L -42.8942,-153.352
 L -42.7454,-153.586 L -42.5768,-153.806 L -42.3897,-154.01 L -42.1855,-154.197 L -41.9657,-154.366 L -41.7321,-154.515
 L -41.4864,-154.643 L -41.2305,-154.749 L -40.9664,-154.832 L -40.6959,-154.892 L -40.4213,-154.928 L -40.1446,-154.94
 L -39.8679,-154.928 L -39.5933,-154.892 L -39.3228,-154.832 L -39.0587,-154.749 L -38.8028,-154.643 L -38.5571,-154.515
 L -38.3235,-154.366 L -38.1037,-154.197 L -37.8995,-154.01 L -37.7124,-153.806 L -37.5438,-153.586 L -37.395,-153.352
 L -37.2671,-153.107 L -37.1611,-152.851 L -37.0778,-152.587 L -37.0178,-152.316 L -36.9817,-152.042 L -36.9696,-151.765
 L -36.9817,-151.488 L -37.0178,-151.214 L -37.0778,-150.943 L -37.1611,-150.679 L -37.2671,-150.423 L -37.395,-150.177
 L -37.5438,-149.944 L -37.7124,-149.724 L -37.8995,-149.52 L -38.1037,-149.333 L -38.3235,-149.164 L -38.5571,-149.015
 L -38.8028,-148.887 L -39.0587,-148.781 L -39.3228,-148.698 L -39.5933,-148.638 L -39.8679,-148.602 L -40.1446,-148.59
 z
M 28.2983,-125.425 L 28.0237,-125.461 L 27.7532,-125.521 L 27.4891,-125.604 L 27.2332,-125.71 L 26.9875,-125.838
 L 26.7539,-125.987 L 26.5341,-126.155 L 26.3299,-126.342 L 26.1428,-126.547 L 25.9742,-126.766 L 25.8254,-127
 L 25.6975,-127.246 L 25.5915,-127.502 L 25.5082,-127.766 L 25.4482,-128.036 L 25.4121,-128.311 L 25.4,-128.587
 L 25.4121,-128.864 L 25.4482,-129.139 L 25.5082,-129.409 L 25.5915,-129.673 L 25.6975,-129.929 L 25.8254,-130.175
 L 25.9742,-130.409 L 26.1428,-130.628 L 26.3299,-130.833 L 26.5341,-131.02 L 26.7539,-131.188 L 26.9875,-131.337
 L 27.2332,-131.465 L 27.4891,-131.571 L 27.7532,-131.654 L 28.0237,-131.714 L 28.2983,-131.75 L 28.575,-131.762
 L 28.8517,-131.75 L 29.1263,-131.714 L 29.3967,-131.654 L 29.6609,-131.571 L 29.9168,-131.465 L 30.1625,-131.337
 L 30.3961,-131.188 L 30.6158,-131.02 L 30.8201,-130.833 L 31.0072,-130.628 L 31.1758,-130.409 L 31.3246,-130.175
 L 31.4525,-129.929 L 31.5585,-129.673 L 31.6418,-129.409 L 31.7018,-129.139 L 31.7379,-128.864 L 31.75,-128.587
 L 31.7379,-128.311 L 31.7018,-128.036 L 31.6418,-127.766 L 31.5585,-127.502 L 31.4525,-127.246 L 31.3246,-127
 L 31.1758,-126.766 L 31.0072,-126.547 L 30.8201,-126.342 L 30.6158,-126.155 L 30.3961,-125.987 L 30.1625,-125.838
 L 29.9168,-125.71 L 29.6609,-125.604 L 29.3967,-125.521 L 29.1263,-125.461 L 28.8517,-125.425 L 28.575,-125.413
 z
M -28.8517,-125.425 L -29.1263,-125.461 L -29.3967,-125.521 L -29.6609,-125.604 L -29.9168,-125.71 L -30.1625,-125.838
 L -30.3961,-125.987 L -30.6158,-126.155 L -30.8201,-126.342 L -31.0072,-126.547 L -31.1758,-126.766 L -31.3246,-127
 L -31.4525,-127.246 L -31.5585,-127.502 L -31.6418,-127.766 L -31.7018,-128.036 L -31.7379,-128.311 L -31.75,-128.587
 L -31.7379,-128.864 L -31.7018,-129.139 L -31.6418,-129.409 L -31.5585,-129.673 L -31.4525,-129.929 L -31.3246,-130.175
 L -31.1758,-130.409 L -31.0072,-130.628 L -30.8201,-130.833 L -30.6158,-131.02 L -30.3961,-131.188 L -30.1625,-131.337
 L -29.9168,-131.465 L -29.6609,-131.571 L -29.3967,-131.654 L -29.1263,-131.714 L -28.8517,-131.75 L -28.575,-131.762
 L -28.2983,-131.75 L -28.0237,-131.714 L -27.7532,-131.654 L -27.4891,-131.571 L -27.2332,-131.465 L -26.9875,-131.337
 L -26.7539,-131.188 L -26.5341,-131.02 L -26.3299,-130.833 L -26.1428,-130.628 L -25.9742,-130.409 L -25.8254,-130.175
 L -25.6975,-129.929 L -25.5915,-129.673 L -25.5082,-129.409 L -25.4482,-129.139 L -25.4121,-128.864 L -25.4,-128.587
 L -25.4121,-128.311 L -25.4482,-128.036 L -25.5082,-127.766 L -25.5915,-127.502 L -25.6975,-127.246 L -25.8254,-127
 L -25.9742,-126.766 L -26.1428,-126.547 L -26.3299,-126.342 L -26.5341,-126.155 L -26.7539,-125.987 L -26.9875,-125.838
 L -27.2332,-125.71 L -27.4891,-125.604 L -27.7532,-125.521 L -28.0237,-125.461 L -28.2983,-125.425 L -28.575,-125.413
 z
M 39.8679,-102.247 L 39.5933,-102.283 L 39.3228,-102.343 L 39.0587,-102.426 L 38.8028,-102.532 L 38.5571,-102.66
 L 38.3235,-102.809 L 38.1037,-102.978 L 37.8995,-103.165 L 37.7124,-103.369 L 37.5438,-103.589 L 37.395,-103.822
 L 37.2671,-104.068 L 37.1611,-104.324 L 37.0778,-104.588 L 37.0178,-104.859 L 36.9817,-105.133 L 36.9696,-105.41
 L 36.9817,-105.687 L 37.0178,-105.961 L 37.0778,-106.232 L 37.1611,-106.496 L 37.2671,-106.752 L 37.395,-106.997
 L 37.5438,-107.231 L 37.7124,-107.451 L 37.8995,-107.655 L 38.1037,-107.842 L 38.3235,-108.011 L 38.5571,-108.16
 L 38.8028,-108.288 L 39.0587,-108.394 L 39.3228,-108.477 L 39.5933,-108.537 L 39.8679,-108.573 L 40.1446,-108.585
 L 40.4213,-108.573 L 40.6959,-108.537 L 40.9664,-108.477 L 41.2305,-108.394 L 41.4864,-108.288 L 41.7321,-108.16
 L 41.9657,-108.011 L 42.1855,-107.842 L 42.3897,-107.655 L 42.5768,-107.451 L 42.7454,-107.231 L 42.8942,-106.997
 L 43.0221,-106.752 L 43.1281,-106.496 L 43.2114,-106.232 L 43.2714,-105.961 L 43.3075,-105.687 L 43.3196,-105.41
 L 43.3075,-105.133 L 43.2714,-104.859 L 43.2114,-104.588 L 43.1281,-104.324 L 43.0221,-104.068 L 42.8942,-103.822
 L 42.7454,-103.589 L 42.5768,-103.369 L 42.3897,-103.165 L 42.1855,-102.978 L 41.9657,-102.809 L 41.7321,-102.66
 L 41.4864,-102.532 L 41.2305,-102.426 L 40.9664,-102.343 L 40.6959,-102.283 L 40.4213,-102.247 L 40.1446,-102.235
 z
M -40.4213,-102.247 L -40.6959,-102.283 L -40.9664,-102.343 L -41.2305,-102.426 L -41.4864,-102.532 L -41.7321,-102.66
 L -41.9657,-102.809 L -42.1855,-102.978 L -42.3897,-103.165 L -42.5768,-103.369 L -42.7454,-103.589 L -42.8942,-103.822
 L -43.0221,-104.068 L -43.1281,-104.324 L -43.2114,-104.588 L -43.2714,-104.859 L -43.3075,-105.133 L -43.3196,-105.41
 L -43.3075,-105.687 L -43.2714,-105.961 L -43.2114,-106.232 L -43.1281,-106.496 L -43.0221,-106.752 L -42.8942,-106.997
 L -42.7454,-107.231 L -42.5768,-107.451 L -42.3897,-107.655 L -42.1855,-107.842 L -41.9657,-108.011 L -41.7321,-108.16
 L -41.4864,-108.288 L -41.2305,-108.394 L -40.9664,-108.477 L -40.6959,-108.537 L -40.4213,-108.573 L -40.1446,-108.585
 L -39.8679,-108.573 L -39.5933,-108.537 L -39.3228,-108.477 L -39.0587,-108.394 L -38.8028,-108.288 L -38.5571,-108.16
 L -38.3235,-108.011 L -38.1037,-107.842 L -37.8995,-107.655 L -37.7124,-107.451 L -37.5438,-107.231 L -37.395,-106.997
 L -37.2671,-106.752 L -37.1611,-106.496 L -37.0778,-106.232 L -37.0178,-105.961 L -36.9817,-105.687 L -36.9696,-105.41
 L -36.9817,-105.133 L -37.0178,-104.859 L -37.0778,-104.588 L -37.1611,-104.324 L -37.2671,-104.068 L -37.395,-103.822
 L -37.5438,-103.589 L -37.7124,-103.369 L -37.8995,-103.165 L -38.1037,-102.978 L -38.3235,-102.809 L -38.5571,-102.66
 L -38.8028,-102.532 L -39.0587,-102.426 L -39.3228,-102.343 L -39.5933,-102.283 L -39.8679,-102.247 L -40.1446,-102.235
 z
M -0.276718,-79.0696 L -0.551331,-79.1057 L -0.821747,-79.1657 L -1.08591,-79.249 L -1.34181,-79.355 L -1.58749,-79.4829
 L -1.82109,-79.6317 L -2.04085,-79.8003 L -2.24506,-79.9874 L -2.43219,-80.1917 L -2.6008,-80.4114 L -2.74962,-80.645
 L -2.87752,-80.8907 L -2.98352,-81.1466 L -3.0668,-81.4108 L -3.12675,-81.6812 L -3.16292,-81.9558 L -3.17499,-82.2325
 L -3.16292,-82.5092 L -3.12675,-82.7838 L -3.0668,-83.0542 L -2.98352,-83.3184 L -2.87752,-83.5743 L -2.74962,-83.82
 L -2.6008,-84.0536 L -2.43219,-84.2733 L -2.24506,-84.4776 L -2.04085,-84.6647 L -1.82109,-84.8333 L -1.58749,-84.9821
 L -1.34181,-85.11 L -1.08591,-85.216 L -0.821747,-85.2993 L -0.551331,-85.3593 L -0.276718,-85.3954 L 0,-85.4075
 L 0.276718,-85.3954 L 0.551331,-85.3593 L 0.821747,-85.2993 L 1.08591,-85.216 L 1.34181,-85.11 L 1.58749,-84.9821
 L 1.82109,-84.8333 L 2.04085,-84.6647 L 2.24506,-84.4776 L 2.43219,-84.2733 L 2.6008,-84.0536 L 2.74962,-83.82
 L 2.87752,-83.5743 L 2.98352,-83.3184 L 3.0668,-83.0542 L 3.12675,-82.7838 L 3.16292,-82.5092 L 3.17499,-82.2325
 L 3.16292,-81.9558 L 3.12675,-81.6812 L 3.0668,-81.4108 L 2.98352,-81.1466 L 2.87752,-80.8907 L 2.74962,-80.645
 L 2.6008,-80.4114 L 2.43219,-80.1917 L 2.24506,-79.9874 L 2.04085,-79.8003 L 1.82109,-79.6317 L 1.58749,-79.4829
 L 1.34181,-79.355 L 1.08591,-79.249 L 0.821747,-79.1657 L 0.551331,-79.1057 L 0.276718,-79.0696 L 0,-79.0575
 z
M 262.156,56.9325 L 267.099,56.2818 L 271.966,55.2027 L 276.721,53.7034 L 281.328,51.7955 L 285.75,49.4933
 L 289.955,46.8145 L 293.91,43.7794 L 297.586,40.4111 L 300.954,36.7353 L 303.99,32.7799 L 306.668,28.575
 L 308.97,24.1526 L 310.878,19.5464 L 312.378,14.7915 L 313.457,9.92398 L 314.108,4.98094 L 314.325,-0
 L 314.108,-4.98094 L 313.457,-9.92398 L 312.378,-14.7915 L 310.878,-19.5464 L 308.97,-24.1526 L 306.668,-28.575
 L 303.99,-32.7799 L 300.954,-36.7353 L 297.586,-40.4111 L 293.91,-43.7794 L 289.955,-46.8145 L 285.75,-49.4933
 L 281.328,-51.7955 L 276.721,-53.7034 L 271.966,-55.2027 L 267.099,-56.2818 L 262.156,-56.9325 L 257.175,-57.15
 L 252.194,-56.9325 L 247.251,-56.2818 L 242.383,-55.2027 L 237.629,-53.7034 L 233.022,-51.7955 L 228.6,-49.4933
 L 224.395,-46.8145 L 220.44,-43.7794 L 216.764,-40.4111 L 213.396,-36.7353 L 210.36,-32.7799 L 207.682,-28.575
 L 205.38,-24.1526 L 203.472,-19.5464 L 201.972,-14.7915 L 200.893,-9.92398 L 200.242,-4.98094 L 200.025,-0
 L 200.242,4.98094 L 200.893,9.92398 L 201.972,14.7915 L 203.472,19.5464 L 205.38,24.1526 L 207.682,28.575
 L 210.36,32.7799 L 213.396,36.7353 L 216.764,40.4111 L 220.44,43.7794 L 224.395,46.8145 L 228.6,49.4933
 L 233.022,51.7955 L 237.629,53.7034 L 242.383,55.2027 L 247.251,56.2818 L 252.194,56.9325 L 257.175,57.15
 z
M 256.898,-43.1921 L 256.624,-43.2282 L 256.353,-43.2882 L 256.089,-43.3715 L 255.833,-43.4775 L 255.587,-43.6054
 L 255.354,-43.7542 L 255.134,-43.9228 L 254.93,-44.1099 L 254.743,-44.3141 L 254.574,-44.5339 L 254.425,-44.7675
 L 254.297,-45.0132 L 254.191,-45.2691 L 254.108,-45.5332 L 254.048,-45.8037 L 254.012,-46.0783 L 254,-46.355
 L 254.012,-46.6317 L 254.048,-46.9063 L 254.108,-47.1767 L 254.191,-47.4409 L 254.297,-47.6968 L 254.425,-47.9425
 L 254.574,-48.1761 L 254.743,-48.3958 L 254.93,-48.6001 L 255.134,-48.7872 L 255.354,-48.9558 L 255.587,-49.1046
 L 255.833,-49.2325 L 256.089,-49.3385 L 256.353,-49.4218 L 256.624,-49.4818 L 256.898,-49.5179 L 257.175,-49.53
 L 257.452,-49.5179 L 257.726,-49.4818 L 257.997,-49.4218 L 258.261,-49.3385 L 258.517,-49.2325 L 258.762,-49.1046
 L 258.996,-48.9558 L 259.216,-48.7872 L 259.42,-48.6001 L 259.607,-48.3958 L 259.776,-48.1761 L 259.925,-47.9425
 L 260.053,-47.6968 L 260.159,-47.4409 L 260.242,-47.1767 L 260.302,-46.9063 L 260.338,-46.6317 L 260.35,-46.355
 L 260.338,-46.0783 L 260.302,-45.8037 L 260.242,-45.5332 L 260.159,-45.2691 L 260.053,-45.0132 L 259.925,-44.7675
 L 259.776,-44.5339 L 259.607,-44.3141 L 259.42,-44.1099 L 259.216,-43.9228 L 258.996,-43.7542 L 258.762,-43.6054
 L 258.517,-43.4775 L 258.261,-43.3715 L 257.997,-43.2882 L 257.726,-43.2282 L 257.452,-43.1921 L 257.175,-43.18
 z
M 216.754,-20.0146 L 216.479,-20.0507 L 216.209,-20.1107 L 215.944,-20.194 L 215.689,-20.3 L 215.443,-20.4279
 L 215.209,-20.5767 L 214.99,-20.7453 L 214.785,-20.9324 L 214.598,-21.1366 L 214.43,-21.3564 L 214.281,-21.59
 L 214.153,-21.8357 L 214.047,-22.0916 L 213.964,-22.3557 L 213.904,-22.6262 L 213.867,-22.9008 L 213.855,-23.1775
 L 213.867,-23.4542 L 213.904,-23.7288 L 213.964,-23.9992 L 214.047,-24.2634 L 214.153,-24.5193 L 214.281,-24.765
 L 214.43,-24.9986 L 214.598,-25.2183 L 214.785,-25.4226 L 214.99,-25.6097 L 215.209,-25.7783 L 215.443,-25.9271
 L 215.689,-26.055 L 215.944,-26.161 L 216.209,-26.2443 L 216.479,-26.3043 L 216.754,-26.3404 L 217.03,-26.3525
 L 217.307,-26.3404 L 217.582,-26.3043 L 217.852,-26.2443 L 218.116,-26.161 L 218.372,-26.055 L 218.618,-25.9271
 L 218.851,-25.7783 L 219.071,-25.6097 L 219.275,-25.4226 L 219.463,-25.2183 L 219.631,-24.9986 L 219.78,-24.765
 L 219.908,-24.5193 L 220.014,-24.2634 L 220.097,-23.9992 L 220.157,-23.7288 L 220.193,-23.4542 L 220.205,-23.1775
 L 220.193,-22.9008 L 220.157,-22.6262 L 220.097,-22.3557 L 220.014,-22.0916 L 219.908,-21.8357 L 219.78,-21.59
 L 219.631,-21.3564 L 219.463,-21.1366 L 219.275,-20.9324 L 219.071,-20.7453 L 218.851,-20.5767 L 218.618,-20.4279
 L 218.372,-20.3 L 218.116,-20.194 L 217.852,-20.1107 L 217.582,-20.0507 L 217.307,-20.0146 L 217.03,-20.0025
 z
M 297.043,-20.0146 L 296.768,-20.0507 L 296.498,-20.1107 L 296.234,-20.194 L 295.978,-20.3 L 295.732,-20.4279
 L 295.498,-20.5767 L 295.279,-20.7453 L 295.075,-20.9324 L 294.887,-21.1366 L 294.719,-21.3564 L 294.57,-21.59
 L 294.442,-21.8357 L 294.336,-22.0916 L 294.253,-22.3557 L 294.193,-22.6262 L 294.157,-22.9008 L 294.145,-23.1775
 L 294.157,-23.4542 L 294.193,-23.7288 L 294.253,-23.9992 L 294.336,-24.2634 L 294.442,-24.5193 L 294.57,-24.765
 L 294.719,-24.9986 L 294.887,-25.2183 L 295.075,-25.4226 L 295.279,-25.6097 L 295.498,-25.7783 L 295.732,-25.9271
 L 295.978,-26.055 L 296.234,-26.161 L 296.498,-26.2443 L 296.768,-26.3043 L 297.043,-26.3404 L 297.32,-26.3525
 L 297.596,-26.3404 L 297.871,-26.3043 L 298.141,-26.2443 L 298.406,-26.161 L 298.661,-26.055 L 298.907,-25.9271
 L 299.141,-25.7783 L 299.36,-25.6097 L 299.565,-25.4226 L 299.752,-25.2183 L 299.92,-24.9986 L 300.069,-24.765
 L 300.197,-24.5193 L 300.303,-24.2634 L 300.386,-23.9992 L 300.446,-23.7288 L 300.483,-23.4542 L 300.495,-23.1775
 L 300.483,-22.9008 L 300.446,-22.6262 L 300.386,-22.3557 L 300.303,-22.0916 L 300.197,-21.8357 L 300.069,-21.59
 L 299.92,-21.3564 L 299.752,-21.1366 L 299.565,-20.9324 L 299.36,-20.7453 L 299.141,-20.5767 L 298.907,-20.4279
 L 298.661,-20.3 L 298.406,-20.194 L 298.141,-20.1107 L 297.871,-20.0507 L 297.596,-20.0146 L 297.32,-20.0025
 z
M 254.909,25.902 L 252.66,25.6059 L 250.445,25.115 L 248.282,24.4329 L 246.187,23.5648 L 244.175,22.5175
 L 242.261,21.2987 L 240.462,19.9179 L 238.79,18.3854 L 237.257,16.7131 L 235.876,14.9135 L 234.658,13.0005
 L 233.616,11 L 228.169,11 L 227.23,8.02362 L 226.645,5.38326 L 226.292,2.7019 L 226.174,-0
 L 226.292,-2.7019 L 226.645,-5.38326 L 227.23,-8.02362 L 228.169,-11 L 233.616,-11 L 234.658,-13.0005
 L 235.876,-14.9135 L 237.257,-16.7131 L 238.79,-18.3854 L 240.462,-19.9179 L 242.261,-21.2987 L 244.175,-22.5175
 L 246.187,-23.5648 L 248.282,-24.4329 L 250.445,-25.115 L 252.66,-25.6059 L 254.909,-25.902 L 257.175,-26.0009
 L 259.441,-25.902 L 261.69,-25.6059 L 263.905,-25.115 L 266.068,-24.4329 L 268.163,-23.5648 L 270.175,-22.5175
 L 272.089,-21.2987 L 273.888,-19.9179 L 275.56,-18.3854 L 277.093,-16.7131 L 278.474,-14.9135 L 279.692,-13.0005
 L 280.734,-11 L 286.181,-11 L 287.12,-8.02362 L 287.705,-5.38326 L 288.058,-2.7019 L 288.176,-0
 L 288.058,2.7019 L 287.705,5.38326 L 287.12,8.02362 L 286.181,11 L 280.734,11 L 279.692,13.0005
 L 278.474,14.9135 L 277.093,16.7131 L 275.56,18.3854 L 273.888,19.9179 L 272.089,21.2987 L 270.175,22.5175
 L 268.163,23.5648 L 266.068,24.4329 L 263.905,25.115 L 261.69,25.6059 L 259.441,25.902 L 257.175,26.0009
 z
M 259.354,24.9049 L 261.516,24.6202 L 263.645,24.1481 L 265.725,23.4923 L 267.74,22.6577 L 269.675,21.6506
 L 271.514,20.4788 L 273.245,19.1511 L 274.853,17.6777 L 276.326,16.0697 L 277.654,14.3394 L 278.826,12.5
 L 279.833,10.5654 L 280.667,8.55049 L 281.323,6.47047 L 281.795,4.3412 L 282.08,2.17888 L 282.175,-0
 L 282.08,-2.17888 L 281.795,-4.3412 L 281.323,-6.47047 L 280.667,-8.55049 L 279.833,-10.5654 L 278.826,-12.5
 L 277.654,-14.3394 L 276.326,-16.0697 L 274.853,-17.6777 L 273.245,-19.1511 L 271.514,-20.4788 L 269.675,-21.6506
 L 267.74,-22.6577 L 265.725,-23.4923 L 263.645,-24.1481 L 261.516,-24.6202 L 259.354,-24.9049 L 257.175,-25
 L 254.996,-24.9049 L 252.834,-24.6202 L 250.705,-24.1481 L 248.624,-23.4923 L 246.61,-22.6577 L 244.675,-21.6506
 L 242.836,-20.4788 L 241.105,-19.1511 L 239.497,-17.6777 L 238.024,-16.0697 L 236.696,-14.3394 L 235.524,-12.5
 L 234.517,-10.5654 L 233.683,-8.55049 L 233.027,-6.47047 L 232.555,-4.3412 L 232.27,-2.17888 L 232.175,-0
 L 232.27,2.17888 L 232.555,4.3412 L 233.027,6.47047 L 233.683,8.55049 L 234.517,10.5654 L 235.524,12.5
 L 236.696,14.3394 L 238.024,16.0697 L 239.497,17.6777 L 241.105,19.1511 L 242.836,20.4788 L 244.675,21.6506
 L 246.61,22.6577 L 248.624,23.4923 L 250.705,24.1481 L 252.834,24.6202 L 254.996,24.9049 L 257.175,25
 z
M 244.345,9.48875 L 243.521,9.38028 L 242.71,9.20044 L 241.917,8.95056 L 241.15,8.63257 L 240.412,8.24889
 L 239.712,7.80241 L 239.052,7.29657 L 238.44,6.73518 L 237.878,6.12254 L 237.373,5.4633 L 236.926,4.7625
 L 236.542,4.02544 L 236.224,3.25774 L 235.975,2.46524 L 235.795,1.65399 L 235.686,0.830154 L 235.65,-0
 L 235.686,-0.830154 L 235.795,-1.65399 L 235.975,-2.46524 L 236.224,-3.25774 L 236.542,-4.02544 L 236.926,-4.7625
 L 237.373,-5.4633 L 237.878,-6.12254 L 238.44,-6.73518 L 239.052,-7.29657 L 239.712,-7.80241 L 240.412,-8.24889
 L 241.15,-8.63257 L 241.917,-8.95056 L 242.71,-9.20044 L 243.521,-9.38028 L 244.345,-9.48875 L 245.175,-9.52499
 L 246.005,-9.48875 L 246.829,-9.38028 L 247.64,-9.20044 L 248.433,-8.95056 L 249.2,-8.63257 L 249.938,-8.24889
 L 250.638,-7.80241 L 251.298,-7.29657 L 251.91,-6.73518 L 252.472,-6.12254 L 252.977,-5.4633 L 253.424,-4.7625
 L 253.808,-4.02544 L 254.126,-3.25774 L 254.375,-2.46524 L 254.555,-1.65399 L 254.664,-0.830154 L 254.7,-0
 L 254.664,0.830154 L 254.555,1.65399 L 254.375,2.46524 L 254.126,3.25774 L 253.808,4.02544 L 253.424,4.7625
 L 252.977,5.4633 L 252.472,6.12254 L 251.91,6.73518 L 251.298,7.29657 L 250.638,7.80241 L 249.938,8.24889
 L 249.2,8.63257 L 248.433,8.95056 L 247.64,9.20044 L 246.829,9.38028 L 246.005,9.48875 L 245.175,9.52499
 z
M 268.345,9.48875 L 267.521,9.38028 L 266.71,9.20044 L 265.917,8.95056 L 265.15,8.63257 L 264.412,8.24889
 L 263.712,7.80241 L 263.052,7.29657 L 262.44,6.73518 L 261.878,6.12254 L 261.373,5.4633 L 260.926,4.7625
 L 260.542,4.02544 L 260.224,3.25774 L 259.975,2.46524 L 259.795,1.65399 L 259.686,0.830154 L 259.65,-0
 L 259.686,-0.830154 L 259.795,-1.65399 L 259.975,-2.46524 L 260.224,-3.25774 L 260.542,-4.02544 L 260.926,-4.7625
 L 261.373,-5.4633 L 261.878,-6.12254 L 262.44,-6.73518 L 263.052,-7.29657 L 263.712,-7.80241 L 264.412,-8.24889
 L 265.15,-8.63257 L 265.917,-8.95056 L 266.71,-9.20044 L 267.521,-9.38028 L 268.345,-9.48875 L 269.175,-9.52499
 L 270.005,-9.48875 L 270.829,-9.38028 L 271.64,-9.20044 L 272.433,-8.95056 L 273.2,-8.63257 L 273.937,-8.24889
 L 274.638,-7.80241 L 275.298,-7.29657 L 275.91,-6.73518 L 276.472,-6.12254 L 276.977,-5.4633 L 277.424,-4.7625
 L 277.808,-4.02544 L 278.126,-3.25774 L 278.375,-2.46524 L 278.555,-1.65399 L 278.664,-0.830154 L 278.7,-0
 L 278.664,0.830154 L 278.555,1.65399 L 278.375,2.46524 L 278.126,3.25774 L 277.808,4.02544 L 277.424,4.7625
 L 276.977,5.4633 L 276.472,6.12254 L 275.91,6.73518 L 275.298,7.29657 L 274.638,7.80241 L 273.937,8.24889
 L 273.2,8.63257 L 272.433,8.95056 L 271.64,9.20044 L 270.829,9.38028 L 270.005,9.48875 L 269.175,9.52499
 z
M 297.043,26.3404 L 296.768,26.3043 L 296.498,26.2443 L 296.234,26.161 L 295.978,26.055 L 295.732,25.9271
 L 295.498,25.7783 L 295.279,25.6097 L 295.075,25.4226 L 294.887,25.2183 L 294.719,24.9986 L 294.57,24.765
 L 294.442,24.5193 L 294.336,24.2634 L 294.253,23.9992 L 294.193,23.7288 L 294.157,23.4542 L 294.145,23.1775
 L 294.157,22.9008 L 294.193,22.6262 L 294.253,22.3557 L 294.336,22.0916 L 294.442,21.8357 L 294.57,21.59
 L 294.719,21.3564 L 294.887,21.1366 L 295.075,20.9324 L 295.279,20.7453 L 295.498,20.5767 L 295.732,20.4279
 L 295.978,20.3 L 296.234,20.194 L 296.498,20.1107 L 296.768,20.0507 L 297.043,20.0146 L 297.32,20.0025
 L 297.596,20.0146 L 297.871,20.0507 L 298.141,20.1107 L 298.406,20.194 L 298.661,20.3 L 298.907,20.4279
 L 299.141,20.5767 L 299.36,20.7453 L 299.565,20.9324 L 299.752,21.1366 L 299.92,21.3564 L 300.069,21.59
 L 300.197,21.8357 L 300.303,22.0916 L 300.386,22.3557 L 300.446,22.6262 L 300.483,22.9008 L 300.495,23.1775
 L 300.483,23.4542 L 300.446,23.7288 L 300.386,23.9992 L 300.303,24.2634 L 300.197,24.5193 L 300.069,24.765
 L 299.92,24.9986 L 299.752,25.2183 L 299.565,25.4226 L 299.36,25.6097 L 299.141,25.7783 L 298.907,25.9271
 L 298.661,26.055 L 298.406,26.161 L 298.141,26.2443 L 297.871,26.3043 L 297.596,26.3404 L 297.32,26.3525
 z
M 216.754,26.3404 L 216.479,26.3043 L 216.209,26.2443 L 215.944,26.161 L 215.689,26.055 L 215.443,25.9271
 L 215.209,25.7783 L 214.99,25.6097 L 214.785,25.4226 L 214.598,25.2183 L 214.43,24.9986 L 214.281,24.765
 L 214.153,24.5193 L 214.047,24.2634 L 213.964,23.9992 L 213.904,23.7288 L 213.867,23.4542 L 213.855,23.1775
 L 213.867,22.9008 L 213.904,22.6262 L 213.964,22.3557 L 214.047,22.0916 L 214.153,21.8357 L 214.281,21.59
 L 214.43,21.3564 L 214.598,21.1366 L 214.785,20.9324 L 214.99,20.7453 L 215.209,20.5767 L 215.443,20.4279
 L 215.689,20.3 L 215.944,20.194 L 216.209,20.1107 L 216.479,20.0507 L 216.754,20.0146 L 217.03,20.0025
 L 217.307,20.0146 L 217.582,20.0507 L 217.852,20.1107 L 218.116,20.194 L 218.372,20.3 L 218.618,20.4279
 L 218.851,20.5767 L 219.071,20.7453 L 219.275,20.9324 L 219.463,21.1366 L 219.631,21.3564 L 219.78,21.59
 L 219.908,21.8357 L 220.014,22.0916 L 220.097,22.3557 L 220.157,22.6262 L 220.193,22.9008 L 220.205,23.1775
 L 220.193,23.4542 L 220.157,23.7288 L 220.097,23.9992 L 220.014,24.2634 L 219.908,24.5193 L 219.78,24.765
 L 219.631,24.9986 L 219.463,25.2183 L 219.275,25.4226 L 219.071,25.6097 L 218.851,25.7783 L 218.618,25.9271
 L 218.372,26.055 L 218.116,26.161 L 217.852,26.2443 L 217.582,26.3043 L 217.307,26.3404 L 217.03,26.3525
 z
M 256.898,49.5179 L 256.624,49.4818 L 256.353,49.4218 L 256.089,49.3385 L 255.833,49.2325 L 255.587,49.1046
 L 255.354,48.9558 L 255.134,48.7872 L 254.93,48.6001 L 254.743,48.3958 L 254.574,48.1761 L 254.425,47.9425
 L 254.297,47.6968 L 254.191,47.4409 L 254.108,47.1767 L 254.048,46.9063 L 254.012,46.6317 L 254,46.355
 L 254.012,46.0783 L 254.048,45.8037 L 254.108,45.5332 L 254.191,45.2691 L 254.297,45.0132 L 254.425,44.7675
 L 254.574,44.5339 L 254.743,44.3141 L 254.93,44.1099 L 255.134,43.9228 L 255.354,43.7542 L 255.587,43.6054
 L 255.833,43.4775 L 256.089,43.3715 L 256.353,43.2882 L 256.624,43.2282 L 256.898,43.1921 L 257.175,43.18
 L 257.452,43.1921 L 257.726,43.2282 L 257.997,43.2882 L 258.261,43.3715 L 258.517,43.4775 L 258.762,43.6054
 L 258.996,43.7542 L 259.216,43.9228 L 259.42,44.1099 L 259.607,44.3141 L 259.776,44.5339 L 259.925,44.7675
 L 260.053,45.0132 L 260.159,45.2691 L 260.242,45.5332 L 260.302,45.8037 L 260.338,46.0783 L 260.35,46.355
 L 260.338,46.6317 L 260.302,46.9063 L 260.242,47.1767 L 260.159,47.4409 L 260.053,47.6968 L 259.925,47.9425
 L 259.776,48.1761 L 259.607,48.3958 L 259.42,48.6001 L 259.216,48.7872 L 258.996,48.9558 L 258.762,49.1046
 L 258.517,49.2325 L 258.261,49.3385 L 257.997,49.4218 L 257.726,49.4818 L 257.452,49.5179 L 257.175,49.53
 z
M 4.98094,56.9325 L 9.92398,56.2818 L 14.7915,55.2027 L 19.5464,53.7034 L 24.1526,51.7955 L 28.575,49.4933
 L 32.7799,46.8145 L 36.7353,43.7794 L 40.4111,40.4111 L 43.7794,36.7353 L 46.8145,32.7799 L 49.4933,28.575
 L 51.7955,24.1526 L 53.7034,19.5464 L 55.2027,14.7915 L 56.2818,9.92398 L 56.9325,4.98094 L 57.15,-0
 L 56.9325,-4.98094 L 56.2818,-9.92398 L 55.2027,-14.7915 L 53.7034,-19.5464 L 51.7955,-24.1526 L 49.4933,-28.575
 L 46.8145,-32.7799 L 43.7794,-36.7353 L 40.4111,-40.4111 L 36.7353,-43.7794 L 32.7799,-46.8145 L 28.575,-49.4933
 L 24.1526,-51.7955 L 19.5464,-53.7034 L 14.7915,-55.2027 L 9.92398,-56.2818 L 4.98094,-56.9325 L 0,-57.15
 L -4.98094,-56.9325 L -9.92398,-56.2818 L -14.7915,-55.2027 L -19.5464,-53.7034 L -24.1526,-51.7955 L -28.575,-49.4933
 L -32.7799,-46.8145 L -36.7353,-43.7794 L -40.4111,-40.4111 L -43.7794,-36.7353 L -46.8145,-32.7799 L -49.4933,-28.575
 L -51.7955,-24.1526 L -53.7034,-19.5464 L -55.2027,-14.7915 L -56.2818,-9.92398 L -56.9325,-4.98094 L -57.15,-0
 L -56.9325,4.98094 L -56.2818,9.92398 L -55.2027,14.7915 L -53.7034,19.5464 L -51.7955,24.1526 L -49.4933,28.575
 L -46.8145,32.7799 L -43.7794,36.7353 L -40.4111,40.4111 L -36.7353,43.7794 L -32.7799,46.8145 L -28.575,49.4933
 L -24.1526,51.7955 L -19.5464,53.7034 L -14.7915,55.2027 L -9.92398,56.2818 L -4.98094,56.9325 L 0,57.15
 z
M -0.276718,49.5179 L -0.551331,49.4818 L -0.821747,49.4218 L -1.08591,49.3385 L -1.34181,49.2325 L -1.58749,49.1046
 L -1.82109,48.9558 L -2.04085,48.7872 L -2.24506,48.6001 L -2.43219,48.3958 L -2.6008,48.1761 L -2.74962,47.9425
 L -2.87752,47.6968 L -2.98352,47.4409 L -3.0668,47.1767 L -3.12675,46.9063 L -3.16292,46.6317 L -3.17499,46.355
 L -3.16292,46.0783 L -3.12675,45.8037 L -3.10725,45.7157 L -38.0373,25.5488 L -38.1037,25.6097 L -38.3235,25.7783
 L -38.5571,25.9271 L -38.8028,26.055 L -39.0587,26.161 L -39.3228,26.2443 L -39.5933,26.3043 L -39.8679,26.3404
 L -40.1446,26.3525 L -40.4213,26.3404 L -40.6959,26.3043 L -40.9664,26.2443 L -41.2305,26.161 L -41.4864,26.055
 L -41.7321,25.9271 L -41.9657,25.7783 L -42.1855,25.6097 L -42.3897,25.4226 L -42.5768,25.2183 L -42.7454,24.9986
 L -42.8942,24.765 L -43.0221,24.5193 L -43.1281,24.2634 L -43.2114,23.9992 L -43.2714,23.7288 L -43.3075,23.4542
 L -43.3196,23.1775 L -43.3075,22.9008 L -43.2714,22.6262 L -43.2114,22.3557 L -43.1281,22.0916 L -43.0221,21.8357
 L -42.8942,21.59 L -42.7454,21.3564 L -42.5768,21.1366 L -42.3897,20.9324 L -42.1855,20.7453 L -41.9657,20.5767
 L -41.7321,20.4279 L -41.4864,20.3 L -41.2305,20.194 L -41.1446,20.1669 L -41.1446,-20.1669 L -41.2305,-20.194
 L -41.4864,-20.3 L -41.7321,-20.4279 L -41.9657,-20.5767 L -42.1855,-20.7453 L -42.3897,-20.9324 L -42.5768,-21.1366
 L -42.7454,-21.3564 L -42.8942,-21.59 L -43.0221,-21.8357 L -43.1281,-22.0916 L -43.2114,-22.3557 L -43.2714,-22.6262
 L -43.3075,-22.9008 L -43.3196,-23.1775 L -43.3075,-23.4542 L -43.2714,-23.7288 L -43.2114,-23.9992 L -43.1281,-24.2634
 L -43.0221,-24.5193 L -42.8942,-24.765 L -42.7454,-24.9986 L -42.5768,-25.2183 L -42.3897,-25.4226 L -42.1855,-25.6097
 L -41.9657,-25.7783 L -41.7321,-25.9271 L -41.4864,-26.055 L -41.2305,-26.161 L -40.9664,-26.2443 L -40.6959,-26.3043
 L -40.4213,-26.3404 L -40.1446,-26.3525 L -39.8679,-26.3404 L -39.5933,-26.3043 L -39.3228,-26.2443 L -39.0587,-26.161
 L -38.8028,-26.055 L -38.5571,-25.9271 L -38.3235,-25.7783 L -38.1037,-25.6097 L -38.0373,-25.5488 L -3.10725,-45.7157
 L -3.12675,-45.8037 L -3.16292,-46.0783 L -3.17499,-46.355 L -3.16292,-46.6317 L -3.12675,-46.9063 L -3.0668,-47.1767
 L -2.98352,-47.4409 L -2.87752,-47.6968 L -2.74962,-47.9425 L -2.6008,-48.1761 L -2.43219,-48.3958 L -2.24506,-48.6001
 L -2.04085,-48.7872 L -1.82109,-48.9558 L -1.58749,-49.1046 L -1.34181,-49.2325 L -1.08591,-49.3385 L -0.821747,-49.4218
 L -0.551331,-49.4818 L -0.276718,-49.5179 L 0,-49.53 L 0.276718,-49.5179 L 0.551331,-49.4818 L 0.821747,-49.4218
 L 1.08591,-49.3385 L 1.34181,-49.2325 L 1.58749,-49.1046 L 1.82109,-48.9558 L 2.04085,-48.7872 L 2.24506,-48.6001
 L 2.43219,-48.3958 L 2.6008,-48.1761 L 2.74962,-47.9425 L 2.87752,-47.6968 L 2.98352,-47.4409 L 3.0668,-47.1767
 L 3.12675,-46.9063 L 3.16292,-46.6317 L 3.17499,-46.355 L 3.16292,-46.0783 L 3.12675,-45.8037 L 3.10725,-45.7157
 L 38.0373,-25.5488 L 38.1037,-25.6097 L 38.3235,-25.7783 L 38.5571,-25.9271 L 38.8028,-26.055 L 39.0587,-26.161
 L 39.3228,-26.2443 L 39.5933,-26.3043 L 39.8679,-26.3404 L 40.1446,-26.3525 L 40.4213,-26.3404 L 40.6959,-26.3043
 L 40.9664,-26.2443 L 41.2305,-26.161 L 41.4864,-26.055 L 41.7321,-25.9271 L 41.9657,-25.7783 L 42.1855,-25.6097
 L 42.3897,-25.4226 L 42.5768,-25.2183 L 42.7454,-24.9986 L 42.8942,-24.765 L 43.0221,-24.5193 L 43.1281,-24.2634
 L 43.2114,-23.9992 L 43.2714,-23.7288 L 43.3075,-23.4542 L 43.3196,-23.1775 L 43.3075,-22.9008 L 43.2714,-22.6262
 L 43.2114,-22.3557 L 43.1281,-22.0916 L 43.0221,-21.8357 L 42.8942,-21.59 L 42.7454,-21.3564 L 42.5768,-21.1366
 L 42.3897,-20.9324 L 42.1855,-20.7453 L 41.9657,-20.5767 L 41.7321,-20.4279 L 41.4864,-20.3 L 41.2305,-20.194
 L 41.1446,-20.1669 L 41.1446,20.1669 L 41.2305,20.194 L 41.4864,20.3 L 41.7321,20.4279 L 41.9657,20.5767
 L 42.1855,20.7453 L 42.3897,20.9324 L 42.5768,21.1366 L 42.7454,21.3564 L 42.8942,21.59 L 43.0221,21.8357
 L 43.1281,22.0916 L 43.2114,22.3557 L 43.2714,22.6262 L 43.3075,22.9008 L 43.3196,23.1775 L 43.3075,23.4542
 L 43.2714,23.7288 L 43.2114,23.9992 L 43.1281,24.2634 L 43.0221,24.5193 L 42.8942,24.765 L 42.7454,24.9986
 L 42.5768,25.2183 L 42.3897,25.4226 L 42.1855,25.6097 L 41.9657,25.7783 L 41.7321,25.9271 L 41.4864,26.055
 L 41.2305,26.161 L 40.9664,26.2443 L 40.6959,26.3043 L 40.4213,26.3404 L 40.1446,26.3525 L 39.8679,26.3404
 L 39.5933,26.3043 L 39.3228,26.2443 L 39.0587,26.161 L 38.8028,26.055 L 38.5571,25.9271 L 38.3235,25.7783
 L 38.1037,25.6097 L 38.0373,25.5488 L 3.10725,45.7157 L 3.12675,45.8037 L 3.16292,46.0783 L 3.17499,46.355
 L 3.16292,46.6317 L 3.12675,46.9063 L 3.0668,47.1767 L 2.98352,47.4409 L 2.87752,47.6968 L 2.74962,47.9425
 L 2.6008,48.1761 L 2.43219,48.3958 L 2.24506,48.6001 L 2.04085,48.7872 L 1.82109,48.9558 L 1.58749,49.1046
 L 1.34181,49.2325 L 1.08591,49.3385 L 0.821747,49.4218 L 0.551331,49.4818 L 0.276718,49.5179 L 0,49.53
 z
M 37.0373,23.8168 L 37.0178,23.7288 L 36.9817,23.4542 L 36.9696,23.1775 L 36.9817,22.9008 L 37.0178,22.6262
 L 37.0778,22.3557 L 37.1611,22.0916 L 37.2671,21.8357 L 37.395,21.59 L 37.5438,21.3564 L 37.7124,21.1366
 L 37.8995,20.9324 L 38.1037,20.7453 L 38.3235,20.5767 L 38.5571,20.4279 L 38.8028,20.3 L 39.0587,20.194
 L 39.1446,20.1669 L 39.1446,-20.1669 L 39.0587,-20.194 L 38.8028,-20.3 L 38.5571,-20.4279 L 38.3235,-20.5767
 L 38.1037,-20.7453 L 37.8995,-20.9324 L 37.7124,-21.1366 L 37.5438,-21.3564 L 37.395,-21.59 L 37.2671,-21.8357
 L 37.1611,-22.0916 L 37.0778,-22.3557 L 37.0178,-22.6262 L 36.9817,-22.9008 L 36.9696,-23.1775 L 36.9817,-23.4542
 L 37.0178,-23.7288 L 37.0373,-23.8168 L 2.10727,-43.9837 L 2.04085,-43.9228 L 1.82109,-43.7542 L 1.58749,-43.6054
 L 1.34181,-43.4775 L 1.08591,-43.3715 L 0.821747,-43.2882 L 0.551331,-43.2282 L 0.276718,-43.1921 L 0,-43.18
 L -0.276718,-43.1921 L -0.551331,-43.2282 L -0.821747,-43.2882 L -1.08591,-43.3715 L -1.34181,-43.4775 L -1.58749,-43.6054
 L -1.82109,-43.7542 L -2.04085,-43.9228 L -2.10727,-43.9837 L -37.0373,-23.8168 L -37.0178,-23.7288 L -36.9817,-23.4542
 L -36.9696,-23.1775 L -36.9817,-22.9008 L -37.0178,-22.6262 L -37.0778,-22.3557 L -37.1611,-22.0916 L -37.2671,-21.8357
 L -37.395,-21.59 L -37.5438,-21.3564 L -37.7124,-21.1366 L -37.8995,-20.9324 L -38.1037,-20.7453 L -38.3235,-20.5767
 L -38.5571,-20.4279 L -38.8028,-20.3 L -39.0587,-20.194 L -39.1446,-20.1669 L -39.1446,20.1669 L -39.0587,20.194
 L -38.8028,20.3 L -38.5571,20.4279 L -38.3235,20.5767 L -38.1037,20.7453 L -37.8995,20.9324 L -37.7124,21.1366
 L -37.5438,21.3564 L -37.395,21.59 L -37.2671,21.8357 L -37.1611,22.0916 L -37.0778,22.3557 L -37.0178,22.6262
 L -36.9817,22.9008 L -36.9696,23.1775 L -36.9817,23.4542 L -37.0178,23.7288 L -37.0373,23.8168 L -2.10727,43.9837
 L -2.04085,43.9228 L -1.82109,43.7542 L -1.58749,43.6054 L -1.34181,43.4775 L -1.08591,43.3715 L -0.821747,43.2882
 L -0.551331,43.2282 L -0.276718,43.1921 L 0,43.18 L 0.276718,43.1921 L 0.551331,43.2282 L 0.821747,43.2882
 L 1.08591,43.3715 L 1.34181,43.4775 L 1.58749,43.6054 L 1.82109,43.7542 L 2.04085,43.9228 L 2.10727,43.9837
 z
M -2.26611,25.902 L -4.51501,25.6059 L -6.72954,25.115 L -8.89284,24.4329 L -10.9885,23.5648 L -13.0005,22.5175
 L -14.9135,21.2987 L -16.7131,19.9179 L -18.3854,18.3854 L -19.9179,16.7131 L -21.2987,14.9135 L -22.5175,13.0005
 L -23.5648,10.9885 L -24.4329,8.89284 L -25.115,6.72954 L -25.6059,4.51501 L -25.902,2.26611 L -26.0009,-0
 L -25.902,-2.26611 L -25.6059,-4.51501 L -25.115,-6.72954 L -24.4329,-8.89284 L -23.5648,-10.9885 L -22.5175,-13.0005
 L -21.2987,-14.9135 L -19.9179,-16.7131 L -18.3854,-18.3854 L -16.7131,-19.9179 L -14.9135,-21.2987 L -13.0005,-22.5175
 L -10.9885,-23.5648 L -8.89284,-24.4329 L -6.72954,-25.115 L -4.51501,-25.6059 L -2.26611,-25.902 L 0,-26.0009
 L 2.26611,-25.902 L 4.51501,-25.6059 L 6.72954,-25.115 L 8.89284,-24.4329 L 10.9885,-23.5648 L 13.0005,-22.5175
 L 14.9135,-21.2987 L 16.7131,-19.9179 L 18.3854,-18.3854 L 19.9179,-16.7131 L 21.2987,-14.9135 L 22.5175,-13.0005
 L 23.5648,-10.9885 L 24.4329,-8.89284 L 25.115,-6.72954 L 25.6059,-4.51501 L 25.902,-2.26611 L 26.0009,-0
 L 25.902,2.26611 L 25.6059,4.51501 L 25.115,6.72954 L 24.4329,8.89284 L 23.5648,10.9885 L 22.5175,13.0005
 L 21.2987,14.9135 L 19.9179,16.7131 L 18.3854,18.3854 L 16.7131,19.9179 L 14.9135,21.2987 L 13.0005,22.5175
 L 10.9885,23.5648 L 8.89284,24.4329 L 6.72954,25.115 L 4.51501,25.6059 L 2.26611,25.902 L 0,26.0009
 z
M 2.17888,24.9049 L 4.3412,24.6202 L 6.47047,24.1481 L 8.55049,23.4923 L 10.5654,22.6577 L 12.5,21.6506
 L 14.3394,20.4788 L 16.0697,19.1511 L 17.6777,17.6777 L 19.1511,16.0697 L 20.4788,14.3394 L 21.6506,12.5
 L 22.6577,10.5654 L 23.4923,8.55049 L 24.1481,6.47047 L 24.6202,4.3412 L 24.9049,2.17888 L 25,-0
 L 24.9049,-2.17888 L 24.6202,-4.3412 L 24.1481,-6.47047 L 23.4923,-8.55049 L 22.6577,-10.5654 L 21.6506,-12.5
 L 20.4788,-14.3394 L 19.1511,-16.0697 L 17.6777,-17.6777 L 16.0697,-19.1511 L 14.3394,-20.4788 L 12.5,-21.6506
 L 10.5654,-22.6577 L 8.55049,-23.4923 L 6.47047,-24.1481 L 4.3412,-24.6202 L 2.17888,-24.9049 L 0,-25
 L -2.17888,-24.9049 L -4.3412,-24.6202 L -6.47047,-24.1481 L -8.55049,-23.4923 L -10.5654,-22.6577 L -12.5,-21.6506
 L -14.3394,-20.4788 L -16.0697,-19.1511 L -17.6777,-17.6777 L -19.1511,-16.0697 L -20.4788,-14.3394 L -21.6506,-12.5
 L -22.6577,-10.5654 L -23.4923,-8.55049 L -24.1481,-6.47047 L -24.6202,-4.3412 L -24.9049,-2.17888 L -25,-0
 L -24.9049,2.17888 L -24.6202,4.3412 L -24.1481,6.47047 L -23.4923,8.55049 L -22.6577,10.5654 L -21.6506,12.5
 L -20.4788,14.3394 L -19.1511,16.0697 L -17.6777,17.6777 L -16.0697,19.1511 L -14.3394,20.4788 L -12.5,21.6506
 L -10.5654,22.6577 L -8.55049,23.4923 L -6.47047,24.1481 L -4.3412,24.6202 L -2.17888,24.9049 L 0,25
 z
M -12.5534,6.32584 L -13.1027,6.25352 L -13.6435,6.13362 L -14.1718,5.96704 L -14.6836,5.75505 L -15.175,5.49925
 L -15.6422,5.20161 L -16.0817,4.86438 L -16.4901,4.49013 L -16.8644,4.0817 L -17.2016,3.6422 L -17.4993,3.17499
 L -17.7551,2.68362 L -17.967,2.17181 L -18.1336,1.64349 L -18.2535,1.10266 L -18.3258,0.553436 L -18.35,-0
 L -18.3258,-0.553436 L -18.2535,-1.10266 L -18.1336,-1.64349 L -17.967,-2.17181 L -17.7551,-2.68362 L -17.4993,-3.17499
 L -17.2016,-3.6422 L -16.8644,-4.0817 L -16.4901,-4.49013 L -16.0817,-4.86438 L -15.6422,-5.20161 L -15.175,-5.49925
 L -14.6836,-5.75505 L -14.1718,-5.96704 L -13.6435,-6.13362 L -13.1027,-6.25352 L -12.5534,-6.32584 L -12,-6.34999
 L -11.4465,-6.32584 L -10.8973,-6.25352 L -10.3565,-6.13362 L -9.82817,-5.96704 L -9.31636,-5.75505 L -8.825,-5.49925
 L -8.35779,-5.20161 L -7.91829,-4.86438 L -7.50986,-4.49013 L -7.1356,-4.0817 L -6.79837,-3.6422 L -6.50073,-3.17499
 L -6.24493,-2.68362 L -6.03294,-2.17181 L -5.86636,-1.64349 L -5.74646,-1.10266 L -5.67415,-0.553436 L -5.64999,-0
 L -5.67415,0.553436 L -5.74646,1.10266 L -5.86636,1.64349 L -6.03294,2.17181 L -6.24493,2.68362 L -6.50073,3.17499
 L -6.79837,3.6422 L -7.1356,4.0817 L -7.50986,4.49013 L -7.91829,4.86438 L -8.35779,5.20161 L -8.825,5.49925
 L -9.31636,5.75505 L -9.82817,5.96704 L -10.3565,6.13362 L -10.8973,6.25352 L -11.4465,6.32584 L -12,6.34999
 z
M 133.568,56.9325 L 138.511,56.2818 L 143.379,55.2027 L 148.134,53.7034 L 152.74,51.7955 L 157.162,49.4933
 L 161.367,46.8145 L 165.323,43.7794 L 168.999,40.4111 L 172.367,36.7353 L 175.402,32.7799 L 178.081,28.575
 L 180.383,24.1526 L 182.291,19.5464 L 183.79,14.7915 L 184.869,9.92398 L 185.52,4.98094 L 185.737,-0
 L 185.52,-4.98094 L 184.869,-9.92398 L 183.79,-14.7915 L 182.291,-19.5464 L 180.383,-24.1526 L 178.081,-28.575
 L 175.402,-32.7799 L 172.367,-36.7353 L 168.999,-40.4111 L 165.323,-43.7794 L 161.367,-46.8145 L 157.162,-49.4933
 L 152.74,-51.7955 L 148.134,-53.7034 L 143.379,-55.2027 L 138.511,-56.2818 L 133.568,-56.9325 L 128.587,-57.15
 L 123.607,-56.9325 L 118.664,-56.2818 L 113.796,-55.2027 L 109.041,-53.7034 L 104.435,-51.7955 L 100.012,-49.4933
 L 95.8076,-46.8145 L 91.8522,-43.7794 L 88.1763,-40.4111 L 84.8081,-36.7353 L 81.773,-32.7799 L 79.0941,-28.575
 L 76.792,-24.1526 L 74.8841,-19.5464 L 73.3848,-14.7915 L 72.3057,-9.92398 L 71.655,-4.98094 L 71.4375,-0
 L 71.655,4.98094 L 72.3057,9.92398 L 73.3848,14.7915 L 74.8841,19.5464 L 76.792,24.1526 L 79.0941,28.575
 L 81.773,32.7799 L 84.8081,36.7353 L 88.1763,40.4111 L 91.8522,43.7794 L 95.8076,46.8145 L 100.012,49.4933
 L 104.435,51.7955 L 109.041,53.7034 L 113.796,55.2027 L 118.664,56.2818 L 123.607,56.9325 L 128.587,57.15
 z
M 128.311,-43.1921 L 128.036,-43.2282 L 127.766,-43.2882 L 127.502,-43.3715 L 127.246,-43.4775 L 127,-43.6054
 L 126.766,-43.7542 L 126.547,-43.9228 L 126.342,-44.1099 L 126.155,-44.3141 L 125.987,-44.5339 L 125.838,-44.7675
 L 125.71,-45.0132 L 125.604,-45.2691 L 125.521,-45.5332 L 125.461,-45.8037 L 125.425,-46.0783 L 125.413,-46.355
 L 125.425,-46.6317 L 125.461,-46.9063 L 125.521,-47.1767 L 125.604,-47.4409 L 125.71,-47.6968 L 125.838,-47.9425
 L 125.987,-48.1761 L 126.155,-48.3958 L 126.342,-48.6001 L 126.547,-48.7872 L 126.766,-48.9558 L 127,-49.1046
 L 127.246,-49.2325 L 127.502,-49.3385 L 127.766,-49.4218 L 128.036,-49.4818 L 128.311,-49.5179 L 128.587,-49.53
 L 128.864,-49.5179 L 129.139,-49.4818 L 129.409,-49.4218 L 129.673,-49.3385 L 129.929,-49.2325 L 130.175,-49.1046
 L 130.409,-48.9558 L 130.628,-48.7872 L 130.833,-48.6001 L 131.02,-48.3958 L 131.188,-48.1761 L 131.337,-47.9425
 L 131.465,-47.6968 L 131.571,-47.4409 L 131.654,-47.1767 L 131.714,-46.9063 L 131.75,-46.6317 L 131.762,-46.355
 L 131.75,-46.0783 L 131.714,-45.8037 L 131.654,-45.5332 L 131.571,-45.2691 L 131.465,-45.0132 L 131.337,-44.7675
 L 131.188,-44.5339 L 131.02,-44.3141 L 130.833,-44.1099 L 130.628,-43.9228 L 130.409,-43.7542 L 130.175,-43.6054
 L 129.929,-43.4775 L 129.673,-43.3715 L 129.409,-43.2882 L 129.139,-43.2282 L 128.864,-43.1921 L 128.587,-43.18
 z
M 125.886,30.883 L 123.204,30.53 L 120.564,29.9446 L 117.985,29.1313 L 115.486,28.0964 L 113.087,26.8476
 L 110.806,25.3945 L 108.66,23.7481 L 106.667,21.921 L 104.839,19.927 L 103.193,17.7814 L 101.74,15.5005
 L 100.491,13.1016 L 99.4561,10.6029 L 98.6429,8.02362 L 98.0575,5.38326 L 97.7045,2.7019 L 97.5865,-0
 L 97.7045,-2.7019 L 98.0575,-5.38326 L 98.6429,-8.02362 L 99.4561,-10.6029 L 100.491,-13.1016 L 101.74,-15.5005
 L 103.193,-17.7814 L 104.839,-19.927 L 106.667,-21.921 L 108.66,-23.7481 L 110.806,-25.3945 L 113.087,-26.8476
 L 115.486,-28.0964 L 117.985,-29.1313 L 120.564,-29.9446 L 123.204,-30.53 L 125.886,-30.883 L 128.587,-31.0009
 L 131.289,-30.883 L 133.971,-30.53 L 136.611,-29.9446 L 139.19,-29.1313 L 141.689,-28.0964 L 144.088,-26.8476
 L 146.369,-25.3945 L 148.515,-23.7481 L 150.508,-21.921 L 152.336,-19.927 L 153.982,-17.7814 L 155.435,-15.5005
 L 156.684,-13.1016 L 157.719,-10.6029 L 158.532,-8.02362 L 159.117,-5.38326 L 159.47,-2.7019 L 159.588,-0
 L 159.47,2.7019 L 159.117,5.38326 L 158.532,8.02362 L 157.719,10.6029 L 156.684,13.1016 L 155.435,15.5005
 L 153.982,17.7814 L 152.336,19.927 L 150.508,21.921 L 148.515,23.7481 L 146.369,25.3945 L 144.088,26.8476
 L 141.689,28.0964 L 139.19,29.1313 L 136.611,29.9446 L 133.971,30.53 L 131.289,30.883 L 128.587,31.0009
 z
M 130.766,24.9049 L 132.929,24.6202 L 135.058,24.1481 L 137.138,23.4923 L 139.153,22.6577 L 141.087,21.6506
 L 142.927,20.4788 L 144.657,19.1511 L 146.265,17.6777 L 147.739,16.0697 L 149.066,14.3394 L 150.238,12.5
 L 151.245,10.5654 L 151.479,10 L 156.86,10 L 157.565,7.76456 L 158.132,5.20944 L 158.473,2.61467
 L 158.587,-0 L 158.473,-2.61467 L 158.132,-5.20944 L 157.565,-7.76456 L 156.86,-10 L 151.479,-10
 L 151.245,-10.5654 L 150.238,-12.5 L 149.066,-14.3394 L 147.739,-16.0697 L 146.265,-17.6777 L 144.657,-19.1511
 L 142.927,-20.4788 L 141.087,-21.6506 L 139.153,-22.6577 L 137.138,-23.4923 L 135.058,-24.1481 L 132.929,-24.6202
 L 130.766,-24.9049 L 128.587,-25 L 126.409,-24.9049 L 124.246,-24.6202 L 122.117,-24.1481 L 120.037,-23.4923
 L 118.022,-22.6577 L 116.088,-21.6506 L 114.248,-20.4788 L 112.518,-19.1511 L 110.91,-17.6777 L 109.436,-16.0697
 L 108.109,-14.3394 L 106.937,-12.5 L 105.93,-10.5654 L 105.696,-10 L 100.315,-10 L 99.6097,-7.76456
 L 99.0433,-5.20944 L 98.7017,-2.61467 L 98.5875,-0 L 98.7017,2.61467 L 99.0433,5.20944 L 99.6097,7.76456
 L 100.315,10 L 105.696,10 L 105.93,10.5654 L 106.937,12.5 L 108.109,14.3394 L 109.436,16.0697
 L 110.91,17.6777 L 112.518,19.1511 L 114.248,20.4788 L 116.087,21.6506 L 118.022,22.6577 L 120.037,23.4923
 L 122.117,24.1481 L 124.246,24.6202 L 126.409,24.9049 L 128.587,25 z
M 115.757,9.48875 L 114.934,9.38028 L 114.122,9.20044 L 113.33,8.95056 L 112.562,8.63257 L 111.825,8.24889
 L 111.124,7.80241 L 110.465,7.29657 L 109.852,6.73518 L 109.291,6.12254 L 108.785,5.4633 L 108.339,4.7625
 L 107.955,4.02544 L 107.637,3.25774 L 107.387,2.46524 L 107.207,1.65399 L 107.099,0.830154 L 107.062,-0
 L 107.099,-0.830154 L 107.207,-1.65399 L 107.387,-2.46524 L 107.637,-3.25774 L 107.955,-4.02544 L 108.339,-4.7625
 L 108.785,-5.4633 L 109.291,-6.12254 L 109.852,-6.73518 L 110.465,-7.29657 L 111.124,-7.80241 L 111.825,-8.24889
 L 112.562,-8.63257 L 113.33,-8.95056 L 114.122,-9.20044 L 114.934,-9.38028 L 115.757,-9.48875 L 116.587,-9.52499
 L 117.418,-9.48875 L 118.242,-9.38028 L 119.053,-9.20044 L 119.845,-8.95056 L 120.613,-8.63257 L 121.35,-8.24889
 L 122.051,-7.80241 L 122.71,-7.29657 L 123.323,-6.73518 L 123.884,-6.12254 L 124.39,-5.4633 L 124.836,-4.7625
 L 125.22,-4.02544 L 125.538,-3.25774 L 125.788,-2.46524 L 125.968,-1.65399 L 126.076,-0.830154 L 126.113,-0
 L 126.076,0.830154 L 125.968,1.65399 L 125.788,2.46524 L 125.538,3.25774 L 125.22,4.02544 L 124.836,4.7625
 L 124.39,5.4633 L 123.884,6.12254 L 123.323,6.73518 L 122.71,7.29657 L 122.051,7.80241 L 121.35,8.24889
 L 120.613,8.63257 L 119.845,8.95056 L 119.053,9.20044 L 118.242,9.38028 L 117.418,9.48875 L 116.587,9.52499
 z
M 168.455,-20.0146 L 168.181,-20.0507 L 167.91,-20.1107 L 167.646,-20.194 L 167.39,-20.3 L 167.145,-20.4279
 L 166.911,-20.5767 L 166.691,-20.7453 L 166.487,-20.9324 L 166.3,-21.1366 L 166.131,-21.3564 L 165.982,-21.59
 L 165.855,-21.8357 L 165.749,-22.0916 L 165.665,-22.3557 L 165.605,-22.6262 L 165.569,-22.9008 L 165.557,-23.1775
 L 165.569,-23.4542 L 165.605,-23.7288 L 165.665,-23.9992 L 165.749,-24.2634 L 165.855,-24.5193 L 165.982,-24.765
 L 166.131,-24.9986 L 166.3,-25.2183 L 166.487,-25.4226 L 166.691,-25.6097 L 166.911,-25.7783 L 167.145,-25.9271
 L 167.39,-26.055 L 167.646,-26.161 L 167.91,-26.2443 L 168.181,-26.3043 L 168.455,-26.3404 L 168.732,-26.3525
 L 169.009,-26.3404 L 169.283,-26.3043 L 169.554,-26.2443 L 169.818,-26.161 L 170.074,-26.055 L 170.32,-25.9271
 L 170.553,-25.7783 L 170.773,-25.6097 L 170.977,-25.4226 L 171.164,-25.2183 L 171.333,-24.9986 L 171.482,-24.765
 L 171.61,-24.5193 L 171.716,-24.2634 L 171.799,-23.9992 L 171.859,-23.7288 L 171.895,-23.4542 L 171.907,-23.1775
 L 171.895,-22.9008 L 171.859,-22.6262 L 171.799,-22.3557 L 171.716,-22.0916 L 171.61,-21.8357 L 171.482,-21.59
 L 171.333,-21.3564 L 171.164,-21.1366 L 170.977,-20.9324 L 170.773,-20.7453 L 170.553,-20.5767 L 170.32,-20.4279
 L 170.074,-20.3 L 169.818,-20.194 L 169.554,-20.1107 L 169.283,-20.0507 L 169.009,-20.0146 L 168.732,-20.0025
 z
M 88.1662,-20.0146 L 87.8916,-20.0507 L 87.6211,-20.1107 L 87.357,-20.194 L 87.1011,-20.3 L 86.8554,-20.4279
 L 86.6218,-20.5767 L 86.402,-20.7453 L 86.1978,-20.9324 L 86.0107,-21.1366 L 85.8421,-21.3564 L 85.6933,-21.59
 L 85.5654,-21.8357 L 85.4594,-22.0916 L 85.3761,-22.3557 L 85.3161,-22.6262 L 85.28,-22.9008 L 85.2679,-23.1775
 L 85.28,-23.4542 L 85.3161,-23.7288 L 85.3761,-23.9992 L 85.4594,-24.2634 L 85.5654,-24.5193 L 85.6933,-24.765
 L 85.8421,-24.9986 L 86.0107,-25.2183 L 86.1978,-25.4226 L 86.402,-25.6097 L 86.6218,-25.7783 L 86.8554,-25.9271
 L 87.1011,-26.055 L 87.357,-26.161 L 87.6211,-26.2443 L 87.8916,-26.3043 L 88.1662,-26.3404 L 88.4429,-26.3525
 L 88.7196,-26.3404 L 88.9942,-26.3043 L 89.2646,-26.2443 L 89.5288,-26.161 L 89.7847,-26.055 L 90.0304,-25.9271
 L 90.264,-25.7783 L 90.4837,-25.6097 L 90.688,-25.4226 L 90.8751,-25.2183 L 91.0437,-24.9986 L 91.1925,-24.765
 L 91.3204,-24.5193 L 91.4264,-24.2634 L 91.5097,-23.9992 L 91.5697,-23.7288 L 91.6058,-23.4542 L 91.6179,-23.1775
 L 91.6058,-22.9008 L 91.5697,-22.6262 L 91.5097,-22.3557 L 91.4264,-22.0916 L 91.3204,-21.8357 L 91.1925,-21.59
 L 91.0437,-21.3564 L 90.8751,-21.1366 L 90.688,-20.9324 L 90.4837,-20.7453 L 90.264,-20.5767 L 90.0304,-20.4279
 L 89.7847,-20.3 L 89.5288,-20.194 L 89.2646,-20.1107 L 88.9942,-20.0507 L 88.7196,-20.0146 L 88.4429,-20.0025
 z
M 88.1662,26.3404 L 87.8916,26.3043 L 87.6211,26.2443 L 87.357,26.161 L 87.1011,26.055 L 86.8554,25.9271
 L 86.6218,25.7783 L 86.402,25.6097 L 86.1978,25.4226 L 86.0107,25.2183 L 85.8421,24.9986 L 85.6933,24.765
 L 85.5654,24.5193 L 85.4594,24.2634 L 85.3761,23.9992 L 85.3161,23.7288 L 85.28,23.4542 L 85.2679,23.1775
 L 85.28,22.9008 L 85.3161,22.6262 L 85.3761,22.3557 L 85.4594,22.0916 L 85.5654,21.8357 L 85.6933,21.59
 L 85.8421,21.3564 L 86.0107,21.1366 L 86.1978,20.9324 L 86.402,20.7453 L 86.6218,20.5767 L 86.8554,20.4279
 L 87.1011,20.3 L 87.357,20.194 L 87.6211,20.1107 L 87.8916,20.0507 L 88.1662,20.0146 L 88.4429,20.0025
 L 88.7196,20.0146 L 88.9942,20.0507 L 89.2646,20.1107 L 89.5288,20.194 L 89.7847,20.3 L 90.0304,20.4279
 L 90.264,20.5767 L 90.4837,20.7453 L 90.688,20.9324 L 90.8751,21.1366 L 91.0437,21.3564 L 91.1925,21.59
 L 91.3204,21.8357 L 91.4264,22.0916 L 91.5097,22.3557 L 91.5697,22.6262 L 91.6058,22.9008 L 91.6179,23.1775
 L 91.6058,23.4542 L 91.5697,23.7288 L 91.5097,23.9992 L 91.4264,24.2634 L 91.3204,24.5193 L 91.1925,24.765
 L 91.0437,24.9986 L 90.8751,25.2183 L 90.688,25.4226 L 90.4837,25.6097 L 90.264,25.7783 L 90.0304,25.9271
 L 89.7847,26.055 L 89.5288,26.161 L 89.2646,26.2443 L 88.9942,26.3043 L 88.7196,26.3404 L 88.4429,26.3525
 z
M 168.455,26.3404 L 168.181,26.3043 L 167.91,26.2443 L 167.646,26.161 L 167.39,26.055 L 167.145,25.9271
 L 166.911,25.7783 L 166.691,25.6097 L 166.487,25.4226 L 166.3,25.2183 L 166.131,24.9986 L 165.982,24.765
 L 165.855,24.5193 L 165.749,24.2634 L 165.665,23.9992 L 165.605,23.7288 L 165.569,23.4542 L 165.557,23.1775
 L 165.569,22.9008 L 165.605,22.6262 L 165.665,22.3557 L 165.749,22.0916 L 165.855,21.8357 L 165.982,21.59
 L 166.131,21.3564 L 166.3,21.1366 L 166.487,20.9324 L 166.691,20.7453 L 166.911,20.5767 L 167.145,20.4279
 L 167.39,20.3 L 167.646,20.194 L 167.91,20.1107 L 168.181,20.0507 L 168.455,20.0146 L 168.732,20.0025
 L 169.009,20.0146 L 169.283,20.0507 L 169.554,20.1107 L 169.818,20.194 L 170.074,20.3 L 170.32,20.4279
 L 170.553,20.5767 L 170.773,20.7453 L 170.977,20.9324 L 171.164,21.1366 L 171.333,21.3564 L 171.482,21.59
 L 171.61,21.8357 L 171.716,22.0916 L 171.799,22.3557 L 171.859,22.6262 L 171.895,22.9008 L 171.907,23.1775
 L 171.895,23.4542 L 171.859,23.7288 L 171.799,23.9992 L 171.716,24.2634 L 171.61,24.5193 L 171.482,24.765
 L 171.333,24.9986 L 171.164,25.2183 L 170.977,25.4226 L 170.773,25.6097 L 170.553,25.7783 L 170.32,25.9271
 L 170.074,26.055 L 169.818,26.161 L 169.554,26.2443 L 169.283,26.3043 L 169.009,26.3404 L 168.732,26.3525
 z
M 128.311,49.5179 L 128.036,49.4818 L 127.766,49.4218 L 127.502,49.3385 L 127.246,49.2325 L 127,49.1046
 L 126.766,48.9558 L 126.547,48.7872 L 126.342,48.6001 L 126.155,48.3958 L 125.987,48.1761 L 125.838,47.9425
 L 125.71,47.6968 L 125.604,47.4409 L 125.521,47.1767 L 125.461,46.9063 L 125.425,46.6317 L 125.413,46.355
 L 125.425,46.0783 L 125.461,45.8037 L 125.521,45.5332 L 125.604,45.2691 L 125.71,45.0132 L 125.838,44.7675
 L 125.987,44.5339 L 126.155,44.3141 L 126.342,44.1099 L 126.547,43.9228 L 126.766,43.7542 L 127,43.6054
 L 127.246,43.4775 L 127.502,43.3715 L 127.766,43.2882 L 128.036,43.2282 L 128.311,43.1921 L 128.587,43.18
 L 128.864,43.1921 L 129.139,43.2282 L 129.409,43.2882 L 129.673,43.3715 L 129.929,43.4775 L 130.175,43.6054
 L 130.409,43.7542 L 130.628,43.9228 L 130.833,44.1099 L 131.02,44.3141 L 131.188,44.5339 L 131.337,44.7675
 L 131.465,45.0132 L 131.571,45.2691 L 131.654,45.5332 L 131.714,45.8037 L 131.75,46.0783 L 131.762,46.355
 L 131.75,46.6317 L 131.714,46.9063 L 131.654,47.1767 L 131.571,47.4409 L 131.465,47.6968 L 131.337,47.9425
 L 131.188,48.1761 L 131.02,48.3958 L 130.833,48.6001 L 130.628,48.7872 L 130.409,48.9558 L 130.175,49.1046
 L 129.929,49.2325 L 129.673,49.3385 L 129.409,49.4218 L 129.139,49.4818 L 128.864,49.5179 L 128.587,49.53
 z
M 105.095,104.991 L 104.439,102.911 L 103.967,100.782 L 103.683,98.6195 L 103.587,96.4406 L 103.683,94.2617
 L 103.967,92.0994 L 104.439,89.9701 L 105.095,87.8901 L 105.696,86.4406 L 100.315,86.4406 L 99.6097,88.6761
 L 99.0433,91.2312 L 98.7017,93.8259 L 98.5875,96.4406 L 98.7017,99.0553 L 99.0433,101.65 L 99.6097,104.205
 L 100.315,106.441 L 105.696,106.441 z
M 157.565,104.205 L 158.132,101.65 L 158.473,99.0553 L 158.587,96.4406 L 158.473,93.8259 L 158.132,91.2312
 L 157.565,88.6761 L 156.86,86.4406 L 151.479,86.4406 L 152.08,87.8901 L 152.736,89.9701 L 153.208,92.0994
 L 153.492,94.2617 L 153.587,96.4406 L 153.492,98.6195 L 153.208,100.782 L 152.736,102.911 L 152.08,104.991
 L 151.479,106.441 L 156.86,106.441 z
" stroke="black" fill="lightgray" stroke-width="0.5"/></svg>
