<?xml version="1.0" standalone="no"?>
<!DOCTYPE svg PUBLIC "-//W3C//DTD SVG 1.1//EN" "http://www.w3.org/Graphics/SVG/1.1/DTD/svg11.dtd">
<svg width="526mm" height="486mm" viewBox="-30 -476 526 486" xmlns="http://www.w3.org/2000/svg" version="1.1">
<title>OpenSCAD Model</title>
<path d="
M 494.178,-457.435 L 494.744,-459.991 L 495.086,-462.585 L 495.2,-465.2 L 495.086,-467.815 L 494.744,-470.409
 L 494.178,-472.965 L 493.473,-475.2 L 488.092,-475.2 L 488.692,-473.75 L 489.348,-471.67 L 489.82,-469.541
 L 490.105,-467.379 L 490.2,-465.2 L 490.105,-463.021 L 489.82,-460.859 L 489.348,-458.73 L 488.692,-456.65
 L 488.092,-455.2 L 493.473,-455.2 z
M 441.708,-456.65 L 441.052,-458.73 L 440.58,-460.859 L 440.295,-463.021 L 440.2,-465.2 L 440.295,-467.379
 L 440.58,-469.541 L 441.052,-471.67 L 441.708,-473.75 L 442.308,-475.2 L 436.927,-475.2 L 436.222,-472.965
 L 435.656,-470.409 L 435.314,-467.815 L 435.2,-465.2 L 435.314,-462.585 L 435.656,-459.991 L 436.222,-457.435
 L 436.927,-455.2 L 442.308,-455.2 z
M 377.878,-457.435 L 378.444,-459.991 L 378.786,-462.585 L 378.9,-465.2 L 378.786,-467.815 L 378.444,-470.409
 L 377.878,-472.965 L 377.173,-475.2 L 371.792,-475.2 L 372.392,-473.75 L 373.048,-471.67 L 373.52,-469.541
 L 373.805,-467.379 L 373.9,-465.2 L 373.805,-463.021 L 373.52,-460.859 L 373.048,-458.73 L 372.392,-456.65
 L 371.792,-455.2 L 377.173,-455.2 z
M 325.408,-456.65 L 324.752,-458.73 L 324.28,-460.859 L 323.995,-463.021 L 323.9,-465.2 L 323.995,-467.379
 L 324.28,-469.541 L 324.752,-471.67 L 325.408,-473.75 L 326.008,-475.2 L 320.627,-475.2 L 319.922,-472.965
 L 319.356,-470.409 L 319.014,-467.815 L 318.9,-465.2 L 319.014,-462.585 L 319.356,-459.991 L 319.922,-457.435
 L 320.627,-455.2 L 326.008,-455.2 z
M 261.578,-457.435 L 262.144,-459.991 L 262.486,-462.585 L 262.6,-465.2 L 262.486,-467.815 L 262.144,-470.409
 L 261.578,-472.965 L 260.873,-475.2 L 255.492,-475.2 L 256.092,-473.75 L 256.748,-471.67 L 257.22,-469.541
 L 257.505,-467.379 L 257.6,-465.2 L 257.505,-463.021 L 257.22,-460.859 L 256.748,-458.73 L 256.092,-456.65
 L 255.492,-455.2 L 260.873,-455.2 z
M 209.108,-456.65 L 208.452,-458.73 L 207.98,-460.859 L 207.695,-463.021 L 207.6,-465.2 L 207.695,-467.379
 L 207.98,-469.541 L 208.452,-471.67 L 209.108,-473.75 L 209.708,-475.2 L 204.327,-475.2 L 203.622,-472.965
 L 203.056,-470.409 L 202.714,-467.815 L 202.6,-465.2 L 202.714,-462.585 L 203.056,-459.991 L 203.622,-457.435
 L 204.327,-455.2 L 209.708,-455.2 z
M 145.278,-457.435 L 145.844,-459.991 L 146.186,-462.585 L 146.3,-465.2 L 146.186,-467.815 L 145.844,-470.409
 L 145.278,-472.965 L 144.573,-475.2 L 139.192,-475.2 L 139.792,-473.75 L 140.448,-471.67 L 140.92,-469.541
 L 141.205,-467.379 L 141.3,-465.2 L 141.205,-463.021 L 140.92,-460.859 L 140.448,-458.73 L 139.792,-456.65
 L 139.192,-455.2 L 144.573,-455.2 z
M 92.8077,-456.65 L 92.1519,-458.73 L 91.6798,-460.859 L 91.3951,-463.021 L 91.3,-465.2 L 91.3951,-467.379
 L 91.6798,-469.541 L 92.1519,-471.67 L 92.8077,-473.75 L 93.4081,-475.2 L 88.0271,-475.2 L 87.3222,-472.965
 L 86.7558,-470.409 L 86.4142,-467.815 L 86.3,-465.2 L 86.4142,-462.585 L 86.7558,-459.991 L 87.3222,-457.435
 L 88.0271,-455.2 L 93.4081,-455.2 z
M 28.9778,-457.435 L 29.5442,-459.991 L 29.8858,-462.585 L 30,-465.2 L 29.8858,-467.815 L 29.5442,-470.409
 L 28.9778,-472.965 L 28.2729,-475.2 L 22.8919,-475.2 L 23.4923,-473.75 L 24.1481,-471.67 L 24.6202,-469.541
 L 24.9049,-467.379 L 25,-465.2 L 24.9049,-463.021 L 24.6202,-460.859 L 24.1481,-458.73 L 23.4923,-456.65
 L 22.8919,-455.2 L 28.2729,-455.2 z
M -23.4923,-456.65 L -24.1481,-458.73 L -24.6202,-460.859 L -24.9049,-463.021 L -25,-465.2 L -24.9049,-467.379
 L -24.6202,-469.541 L -24.1481,-471.67 L -23.4923,-473.75 L -22.8919,-475.2 L -28.2729,-475.2 L -28.9778,-472.965
 L -29.5442,-470.409 L -29.8858,-467.815 L -30,-465.2 L -29.8858,-462.585 L -29.5442,-459.991 L -28.9778,-457.435
 L -28.2729,-455.2 L -22.8919,-455.2 z
M 441.708,-340.35 L 441.052,-342.43 L 440.58,-344.559 L 440.295,-346.721 L 440.2,-348.9 L 440.295,-351.079
 L 440.58,-353.241 L 441.052,-355.37 L 441.708,-357.45 L 442.308,-358.9 L 436.927,-358.9 L 436.222,-356.665
 L 435.656,-354.109 L 435.314,-351.515 L 435.2,-348.9 L 435.314,-346.285 L 435.656,-343.691 L 436.222,-341.135
 L 436.927,-338.9 L 442.308,-338.9 z
M -23.4923,-340.35 L -24.1481,-342.43 L -24.6202,-344.559 L -24.9049,-346.721 L -25,-348.9 L -24.9049,-351.079
 L -24.6202,-353.241 L -24.1481,-355.37 L -23.4923,-357.45 L -22.8919,-358.9 L -28.2729,-358.9 L -28.9778,-356.665
 L -29.5442,-354.109 L -29.8858,-351.515 L -30,-348.9 L -29.8858,-346.285 L -29.5442,-343.691 L -28.9778,-341.135
 L -28.2729,-338.9 L -22.8919,-338.9 z
M 28.9778,-341.135 L 29.5442,-343.691 L 29.8858,-346.285 L 30,-348.9 L 29.8858,-351.515 L 29.5442,-354.109
 L 28.9778,-356.665 L 28.2729,-358.9 L 22.8919,-358.9 L 23.4923,-357.45 L 24.1481,-355.37 L 24.6202,-353.241
 L 24.9049,-351.079 L 25,-348.9 L 24.9049,-346.721 L 24.6202,-344.559 L 24.1481,-342.43 L 23.4923,-340.35
 L 22.8919,-338.9 L 28.2729,-338.9 z
M 92.8077,-340.35 L 92.1519,-342.43 L 91.6798,-344.559 L 91.3951,-346.721 L 91.3,-348.9 L 91.3951,-351.079
 L 91.6798,-353.241 L 92.1519,-355.37 L 92.8077,-357.45 L 93.4081,-358.9 L 88.0271,-358.9 L 87.3222,-356.665
 L 86.7558,-354.109 L 86.4142,-351.515 L 86.3,-348.9 L 86.4142,-346.285 L 86.7558,-343.691 L 87.3222,-341.135
 L 88.0271,-338.9 L 93.4081,-338.9 z
M 145.278,-341.135 L 145.844,-343.691 L 146.186,-346.285 L 146.3,-348.9 L 146.186,-351.515 L 145.844,-354.109
 L 145.278,-356.665 L 144.573,-358.9 L 139.192,-358.9 L 139.792,-357.45 L 140.448,-355.37 L 140.92,-353.241
 L 141.205,-351.079 L 141.3,-348.9 L 141.205,-346.721 L 140.92,-344.559 L 140.448,-342.43 L 139.792,-340.35
 L 139.192,-338.9 L 144.573,-338.9 z
M 209.108,-340.35 L 208.452,-342.43 L 207.98,-344.559 L 207.695,-346.721 L 207.6,-348.9 L 207.695,-351.079
 L 207.98,-353.241 L 208.452,-355.37 L 209.108,-357.45 L 209.708,-358.9 L 204.327,-358.9 L 203.622,-356.665
 L 203.056,-354.109 L 202.714,-351.515 L 202.6,-348.9 L 202.714,-346.285 L 203.056,-343.691 L 203.622,-341.135
 L 204.327,-338.9 L 209.708,-338.9 z
M 261.578,-341.135 L 262.144,-343.691 L 262.486,-346.285 L 262.6,-348.9 L 262.486,-351.515 L 262.144,-354.109
 L 261.578,-356.665 L 260.873,-358.9 L 255.492,-358.9 L 256.092,-357.45 L 256.748,-355.37 L 257.22,-353.241
 L 257.505,-351.079 L 257.6,-348.9 L 257.505,-346.721 L 257.22,-344.559 L 256.748,-342.43 L 256.092,-340.35
 L 255.492,-338.9 L 260.873,-338.9 z
M 325.408,-340.35 L 324.752,-342.43 L 324.28,-344.559 L 323.995,-346.721 L 323.9,-348.9 L 323.995,-351.079
 L 324.28,-353.241 L 324.752,-355.37 L 325.408,-357.45 L 326.008,-358.9 L 320.627,-358.9 L 319.922,-356.665
 L 319.356,-354.109 L 319.014,-351.515 L 318.9,-348.9 L 319.014,-346.285 L 319.356,-343.691 L 319.922,-341.135
 L 320.627,-338.9 L 326.008,-338.9 z
M 377.878,-341.135 L 378.444,-343.691 L 378.786,-346.285 L 378.9,-348.9 L 378.786,-351.515 L 378.444,-354.109
 L 377.878,-356.665 L 377.173,-358.9 L 371.792,-358.9 L 372.392,-357.45 L 373.048,-355.37 L 373.52,-353.241
 L 373.805,-351.079 L 373.9,-348.9 L 373.805,-346.721 L 373.52,-344.559 L 373.048,-342.43 L 372.392,-340.35
 L 371.792,-338.9 L 377.173,-338.9 z
M 494.178,-341.135 L 494.744,-343.691 L 495.086,-346.285 L 495.2,-348.9 L 495.086,-351.515 L 494.744,-354.109
 L 494.178,-356.665 L 493.473,-358.9 L 488.092,-358.9 L 488.692,-357.45 L 489.348,-355.37 L 489.82,-353.241
 L 490.105,-351.079 L 490.2,-348.9 L 490.105,-346.721 L 489.82,-344.559 L 489.348,-342.43 L 488.692,-340.35
 L 488.092,-338.9 L 493.473,-338.9 z
M 261.578,-224.835 L 262.144,-227.391 L 262.486,-229.985 L 262.6,-232.6 L 262.486,-235.215 L 262.144,-237.809
 L 261.578,-240.365 L 260.873,-242.6 L 255.492,-242.6 L 256.092,-241.15 L 256.748,-239.07 L 257.22,-236.941
 L 257.505,-234.779 L 257.6,-232.6 L 257.505,-230.421 L 257.22,-228.259 L 256.748,-226.13 L 256.092,-224.049
 L 255.492,-222.6 L 260.873,-222.6 z
M 494.178,-224.835 L 494.744,-227.391 L 495.086,-229.985 L 495.2,-232.6 L 495.086,-235.215 L 494.744,-237.809
 L 494.178,-240.365 L 493.473,-242.6 L 488.092,-242.6 L 488.692,-241.15 L 489.348,-239.07 L 489.82,-236.941
 L 490.105,-234.779 L 490.2,-232.6 L 490.105,-230.421 L 489.82,-228.259 L 489.348,-226.13 L 488.692,-224.049
 L 488.092,-222.6 L 493.473,-222.6 z
M 441.708,-224.049 L 441.052,-226.13 L 440.58,-228.259 L 440.295,-230.421 L 440.2,-232.6 L 440.295,-234.779
 L 440.58,-236.941 L 441.052,-239.07 L 441.708,-241.15 L 442.308,-242.6 L 436.927,-242.6 L 436.222,-240.365
 L 435.656,-237.809 L 435.314,-235.215 L 435.2,-232.6 L 435.314,-229.985 L 435.656,-227.391 L 436.222,-224.835
 L 436.927,-222.6 L 442.308,-222.6 z
M 377.878,-224.835 L 378.444,-227.391 L 378.786,-229.985 L 378.9,-232.6 L 378.786,-235.215 L 378.444,-237.809
 L 377.878,-240.365 L 377.173,-242.6 L 371.792,-242.6 L 372.392,-241.15 L 373.048,-239.07 L 373.52,-236.941
 L 373.805,-234.779 L 373.9,-232.6 L 373.805,-230.421 L 373.52,-228.259 L 373.048,-226.13 L 372.392,-224.049
 L 371.792,-222.6 L 377.173,-222.6 z
M 325.408,-224.049 L 324.752,-226.13 L 324.28,-228.259 L 323.995,-230.421 L 323.9,-232.6 L 323.995,-234.779
 L 324.28,-236.941 L 324.752,-239.07 L 325.408,-241.15 L 326.008,-242.6 L 320.627,-242.6 L 319.922,-240.365
 L 319.356,-237.809 L 319.014,-235.215 L 318.9,-232.6 L 319.014,-229.985 L 319.356,-227.391 L 319.922,-224.835
 L 320.627,-222.6 L 326.008,-222.6 z
M 209.108,-224.049 L 208.452,-226.13 L 207.98,-228.259 L 207.695,-230.421 L 207.6,-232.6 L 207.695,-234.779
 L 207.98,-236.941 L 208.452,-239.07 L 209.108,-241.15 L 209.708,-242.6 L 204.327,-242.6 L 203.622,-240.365
 L 203.056,-237.809 L 202.714,-235.215 L 202.6,-232.6 L 202.714,-229.985 L 203.056,-227.391 L 203.622,-224.835
 L 204.327,-222.6 L 209.708,-222.6 z
M 145.278,-224.835 L 145.844,-227.391 L 146.186,-229.985 L 146.3,-232.6 L 146.186,-235.215 L 145.844,-237.809
 L 145.278,-240.365 L 144.573,-242.6 L 139.192,-242.6 L 139.792,-241.15 L 140.448,-239.07 L 140.92,-236.941
 L 141.205,-234.779 L 141.3,-232.6 L 141.205,-230.421 L 140.92,-228.259 L 140.448,-226.13 L 139.792,-224.049
 L 139.192,-222.6 L 144.573,-222.6 z
M 92.8077,-224.049 L 92.1519,-226.13 L 91.6798,-228.259 L 91.3951,-230.421 L 91.3,-232.6 L 91.3951,-234.779
 L 91.6798,-236.941 L 92.1519,-239.07 L 92.8077,-241.15 L 93.4081,-242.6 L 88.0271,-242.6 L 87.3222,-240.365
 L 86.7558,-237.809 L 86.4142,-235.215 L 86.3,-232.6 L 86.4142,-229.985 L 86.7558,-227.391 L 87.3222,-224.835
 L 88.0271,-222.6 L 93.4081,-222.6 z
M 28.9778,-224.835 L 29.5442,-227.391 L 29.8858,-229.985 L 30,-232.6 L 29.8858,-235.215 L 29.5442,-237.809
 L 28.9778,-240.365 L 28.2729,-242.6 L 22.8919,-242.6 L 23.4923,-241.15 L 24.1481,-239.07 L 24.6202,-236.941
 L 24.9049,-234.779 L 25,-232.6 L 24.9049,-230.421 L 24.6202,-228.259 L 24.1481,-226.13 L 23.4923,-224.049
 L 22.8919,-222.6 L 28.2729,-222.6 z
M -23.4923,-224.049 L -24.1481,-226.13 L -24.6202,-228.259 L -24.9049,-230.421 L -25,-232.6 L -24.9049,-234.779
 L -24.6202,-236.941 L -24.1481,-239.07 L -23.4923,-241.15 L -22.8919,-242.6 L -28.2729,-242.6 L -28.9778,-240.365
 L -29.5442,-237.809 L -29.8858,-235.215 L -30,-232.6 L -29.8858,-229.985 L -29.5442,-227.391 L -28.9778,-224.835
 L -28.2729,-222.6 L -22.8919,-222.6 z
M 145.278,-108.535 L 145.844,-111.091 L 146.186,-113.685 L 146.3,-116.3 L 146.186,-118.915 L 145.844,-121.509
 L 145.278,-124.065 L 144.573,-126.3 L 139.192,-126.3 L 139.792,-124.85 L 140.448,-122.77 L 140.92,-120.641
 L 141.205,-118.479 L 141.3,-116.3 L 141.205,-114.121 L 140.92,-111.959 L 140.448,-109.83 L 139.792,-107.749
 L 139.192,-106.3 L 144.573,-106.3 z
M -23.4923,-107.749 L -24.1481,-109.83 L -24.6202,-111.959 L -24.9049,-114.121 L -25,-116.3 L -24.9049,-118.479
 L -24.6202,-120.641 L -24.1481,-122.77 L -23.4923,-124.85 L -22.8919,-126.3 L -28.2729,-126.3 L -28.9778,-124.065
 L -29.5442,-121.509 L -29.8858,-118.915 L -30,-116.3 L -29.8858,-113.685 L -29.5442,-111.091 L -28.9778,-108.535
 L -28.2729,-106.3 L -22.8919,-106.3 z
M 28.9778,-108.535 L 29.5442,-111.091 L 29.8858,-113.685 L 30,-116.3 L 29.8858,-118.915 L 29.5442,-121.509
 L 28.9778,-124.065 L 28.2729,-126.3 L 22.8919,-126.3 L 23.4923,-124.85 L 24.1481,-122.77 L 24.6202,-120.641
 L 24.9049,-118.479 L 25,-116.3 L 24.9049,-114.121 L 24.6202,-111.959 L 24.1481,-109.83 L 23.4923,-107.749
 L 22.8919,-106.3 L 28.2729,-106.3 z
M 92.8077,-107.749 L 92.1519,-109.83 L 91.6798,-111.959 L 91.3951,-114.121 L 91.3,-116.3 L 91.3951,-118.479
 L 91.6798,-120.641 L 92.1519,-122.77 L 92.8077,-124.85 L 93.4081,-126.3 L 88.0271,-126.3 L 87.3222,-124.065
 L 86.7558,-121.509 L 86.4142,-118.915 L 86.3,-116.3 L 86.4142,-113.685 L 86.7558,-111.091 L 87.3222,-108.535
 L 88.0271,-106.3 L 93.4081,-106.3 z
M 209.108,-107.749 L 208.452,-109.83 L 207.98,-111.959 L 207.695,-114.121 L 207.6,-116.3 L 207.695,-118.479
 L 207.98,-120.641 L 208.452,-122.77 L 209.108,-124.85 L 209.708,-126.3 L 204.327,-126.3 L 203.622,-124.065
 L 203.056,-121.509 L 202.714,-118.915 L 202.6,-116.3 L 202.714,-113.685 L 203.056,-111.091 L 203.622,-108.535
 L 204.327,-106.3 L 209.708,-106.3 z
M 261.578,-108.535 L 262.144,-111.091 L 262.486,-113.685 L 262.6,-116.3 L 262.486,-118.915 L 262.144,-121.509
 L 261.578,-124.065 L 260.873,-126.3 L 255.492,-126.3 L 256.092,-124.85 L 256.748,-122.77 L 257.22,-120.641
 L 257.505,-118.479 L 257.6,-116.3 L 257.505,-114.121 L 257.22,-111.959 L 256.748,-109.83 L 256.092,-107.749
 L 255.492,-106.3 L 260.873,-106.3 z
M 325.408,-107.749 L 324.752,-109.83 L 324.28,-111.959 L 323.995,-114.121 L 323.9,-116.3 L 323.995,-118.479
 L 324.28,-120.641 L 324.752,-122.77 L 325.408,-124.85 L 326.008,-126.3 L 320.627,-126.3 L 319.922,-124.065
 L 319.356,-121.509 L 319.014,-118.915 L 318.9,-116.3 L 319.014,-113.685 L 319.356,-111.091 L 319.922,-108.535
 L 320.627,-106.3 L 326.008,-106.3 z
M 377.878,-108.535 L 378.444,-111.091 L 378.786,-113.685 L 378.9,-116.3 L 378.786,-118.915 L 378.444,-121.509
 L 377.878,-124.065 L 377.173,-126.3 L 371.792,-126.3 L 372.392,-124.85 L 373.048,-122.77 L 373.52,-120.641
 L 373.805,-118.479 L 373.9,-116.3 L 373.805,-114.121 L 373.52,-111.959 L 373.048,-109.83 L 372.392,-107.749
 L 371.792,-106.3 L 377.173,-106.3 z
M 441.708,-107.749 L 441.052,-109.83 L 440.58,-111.959 L 440.295,-114.121 L 440.2,-116.3 L 440.295,-118.479
 L 440.58,-120.641 L 441.052,-122.77 L 441.708,-124.85 L 442.308,-126.3 L 436.927,-126.3 L 436.222,-124.065
 L 435.656,-121.509 L 435.314,-118.915 L 435.2,-116.3 L 435.314,-113.685 L 435.656,-111.091 L 436.222,-108.535
 L 436.927,-106.3 L 442.308,-106.3 z
M 494.178,-108.535 L 494.744,-111.091 L 495.086,-113.685 L 495.2,-116.3 L 495.086,-118.915 L 494.744,-121.509
 L 494.178,-124.065 L 493.473,-126.3 L 488.092,-126.3 L 488.692,-124.85 L 489.348,-122.77 L 489.82,-120.641
 L 490.105,-118.479 L 490.2,-116.3 L 490.105,-114.121 L 489.82,-111.959 L 489.348,-109.83 L 488.692,-107.749
 L 488.092,-106.3 L 493.473,-106.3 z
M -23.4923,8.55049 L -24.1481,6.47047 L -24.6202,4.3412 L -24.9049,2.17888 L -25,-0 L -24.9049,-2.17888
 L -24.6202,-4.3412 L -24.1481,-6.47047 L -23.4923,-8.55049 L -22.8919,-10 L -28.2729,-10 L -28.9778,-7.76456
 L -29.5442,-5.20944 L -29.8858,-2.61467 L -30,-0 L -29.8858,2.61467 L -29.5442,5.20944 L -28.9778,7.76456
 L -28.2729,10 L -22.8919,10 z
M 494.178,7.76456 L 494.744,5.20944 L 495.086,2.61467 L 495.2,-0 L 495.086,-2.61467 L 494.744,-5.20944
 L 494.178,-7.76456 L 493.473,-10 L 488.092,-10 L 488.692,-8.55049 L 489.348,-6.47047 L 489.82,-4.3412
 L 490.105,-2.17888 L 490.2,-0 L 490.105,2.17888 L 489.82,4.3412 L 489.348,6.47047 L 488.692,8.55049
 L 488.092,10 L 493.473,10 z
M 441.708,8.55049 L 441.052,6.47047 L 440.58,4.3412 L 440.295,2.17888 L 440.2,-0 L 440.295,-2.17888
 L 440.58,-4.3412 L 441.052,-6.47047 L 441.708,-8.55049 L 442.308,-10 L 436.927,-10 L 436.222,-7.76456
 L 435.656,-5.20944 L 435.314,-2.61467 L 435.2,-0 L 435.314,2.61467 L 435.656,5.20944 L 436.222,7.76456
 L 436.927,10 L 442.308,10 z
M 377.878,7.76456 L 378.444,5.20944 L 378.786,2.61467 L 378.9,-0 L 378.786,-2.61467 L 378.444,-5.20944
 L 377.878,-7.76456 L 377.173,-10 L 371.792,-10 L 372.392,-8.55049 L 373.048,-6.47047 L 373.52,-4.3412
 L 373.805,-2.17888 L 373.9,-0 L 373.805,2.17888 L 373.52,4.3412 L 373.048,6.47047 L 372.392,8.55049
 L 371.792,10 L 377.173,10 z
M 325.408,8.55049 L 324.752,6.47047 L 324.28,4.3412 L 323.995,2.17888 L 323.9,-0 L 323.995,-2.17888
 L 324.28,-4.3412 L 324.752,-6.47047 L 325.408,-8.55049 L 326.008,-10 L 320.627,-10 L 319.922,-7.76456
 L 319.356,-5.20944 L 319.014,-2.61467 L 318.9,-0 L 319.014,2.61467 L 319.356,5.20944 L 319.922,7.76456
 L 320.627,10 L 326.008,10 z
M 261.578,7.76456 L 262.144,5.20944 L 262.486,2.61467 L 262.6,-0 L 262.486,-2.61467 L 262.144,-5.20944
 L 261.578,-7.76456 L 260.873,-10 L 255.492,-10 L 256.092,-8.55049 L 256.748,-6.47047 L 257.22,-4.3412
 L 257.505,-2.17888 L 257.6,-0 L 257.505,2.17888 L 257.22,4.3412 L 256.748,6.47047 L 256.092,8.55049
 L 255.492,10 L 260.873,10 z
M 209.108,8.55049 L 208.452,6.47047 L 207.98,4.3412 L 207.695,2.17888 L 207.6,-0 L 207.695,-2.17888
 L 207.98,-4.3412 L 208.452,-6.47047 L 209.108,-8.55049 L 209.708,-10 L 204.327,-10 L 203.622,-7.76456
 L 203.056,-5.20944 L 202.714,-2.61467 L 202.6,-0 L 202.714,2.61467 L 203.056,5.20944 L 203.622,7.76456
 L 204.327,10 L 209.708,10 z
M 145.278,7.76456 L 145.844,5.20944 L 146.186,2.61467 L 146.3,-0 L 146.186,-2.61467 L 145.844,-5.20944
 L 145.278,-7.76456 L 144.573,-10 L 139.192,-10 L 139.792,-8.55049 L 140.448,-6.47047 L 140.92,-4.3412
 L 141.205,-2.17888 L 141.3,-0 L 141.205,2.17888 L 140.92,4.3412 L 140.448,6.47047 L 139.792,8.55049
 L 139.192,10 L 144.573,10 z
M 92.8077,8.55049 L 92.1519,6.47047 L 91.6798,4.3412 L 91.3951,2.17888 L 91.3,-0 L 91.3951,-2.17888
 L 91.6798,-4.3412 L 92.1519,-6.47047 L 92.8077,-8.55049 L 93.4081,-10 L 88.0271,-10 L 87.3222,-7.76456
 L 86.7558,-5.20944 L 86.4142,-2.61467 L 86.3,-0 L 86.4142,2.61467 L 86.7558,5.20944 L 87.3222,7.76456
 L 88.0271,10 L 93.4081,10 z
M 28.9778,7.76456 L 29.5442,5.20944 L 29.8858,2.61467 L 30,-0 L 29.8858,-2.61467 L 29.5442,-5.20944
 L 28.9778,-7.76456 L 28.2729,-10 L 22.8919,-10 L 23.4923,-8.55049 L 24.1481,-6.47047 L 24.6202,-4.3412
 L 24.9049,-2.17888 L 25,-0 L 24.9049,2.17888 L 24.6202,4.3412 L 24.1481,6.47047 L 23.4923,8.55049
 L 22.8919,10 L 28.2729,10 z
" stroke="black" fill="lightgray" stroke-width="0.5"/></svg>
