<?xml version="1.0" standalone="no"?>
<!DOCTYPE svg PUBLIC "-//W3C//DTD SVG 1.1//EN" "http://www.w3.org/Graphics/SVG/1.1/DTD/svg11.dtd">
<svg width="60mm" height="20mm" viewBox="-30 -10 60 20" xmlns="http://www.w3.org/2000/svg" version="1.1">
<title>OpenSCAD Model</title>
<path d="
M -23.4923,8.55049 L -24.1481,6.47047 L -24.6202,4.3412 L -24.9049,2.17888 L -25,-0 L -24.9049,-2.17888
 L -24.6202,-4.3412 L -24.1481,-6.47047 L -23.4923,-8.55049 L -22.8919,-10 L -28.2729,-10 L -28.9778,-7.76456
 L -29.5442,-5.20944 L -29.8858,-2.61467 L -30,-0 L -29.8858,2.61467 L -29.5442,5.20944 L -28.9778,7.76456
 L -28.2729,10 L -22.8919,10 z
M 28.9778,7.76456 L 29.5442,5.20944 L 29.8858,2.61467 L 30,-0 L 29.8858,-2.61467 L 29.5442,-5.20944
 L 28.9778,-7.76456 L 28.2729,-10 L 22.8919,-10 L 23.4923,-8.55049 L 24.1481,-6.47047 L 24.6202,-4.3412
 L 24.9049,-2.17888 L 25,-0 L 24.9049,2.17888 L 24.6202,4.3412 L 24.1481,6.47047 L 23.4923,8.55049
 L 22.8919,10 L 28.2729,10 z
" stroke="black" fill="lightgray" stroke-width="0.5"/></svg>
