<?xml version="1.0" standalone="no"?>
<!DOCTYPE svg PUBLIC "-//W3C//DTD SVG 1.1//EN" "http://www.w3.org/Graphics/SVG/1.1/DTD/svg11.dtd">
<svg width="102mm" height="102mm" viewBox="-51 -51 102 102" xmlns="http://www.w3.org/2000/svg" version="1.1">
<title>OpenSCAD Model</title>
<path d="
M 4.42751,50.6067 L 8.82132,50.0282 L 13.148,49.069 L 17.3746,47.7364 L 21.469,46.0404 L 25.4,43.9941
 L 29.1377,41.6129 L 32.6536,38.9151 L 35.921,35.921 L 38.9151,32.6536 L 41.6129,29.1377 L 43.9941,25.4
 L 46.0404,21.469 L 47.7364,17.3746 L 49.069,13.148 L 50.0282,8.82132 L 50.6067,4.42751 L 50.8,-0
 L 50.6067,-4.42751 L 50.0282,-8.82132 L 49.069,-13.148 L 47.7364,-17.3746 L 46.0404,-21.469 L 43.9941,-25.4
 L 41.6129,-29.1377 L 38.9151,-32.6536 L 35.921,-35.921 L 32.6536,-38.9151 L 29.1377,-41.6129 L 25.4,-43.9941
 L 21.469,-46.0404 L 17.3746,-47.7364 L 13.148,-49.069 L 8.82132,-50.0282 L 4.42751,-50.6067 L 0,-50.8
 L -4.42751,-50.6067 L -8.82132,-50.0282 L -13.148,-49.069 L -17.3746,-47.7364 L -21.469,-46.0404 L -25.4,-43.9941
 L -29.1377,-41.6129 L -32.6536,-38.9151 L -35.921,-35.921 L -38.9151,-32.6536 L -41.6129,-29.1377 L -43.9941,-25.4
 L -46.0404,-21.469 L -47.7364,-17.3746 L -49.069,-13.148 L -50.0282,-8.82132 L -50.6067,-4.42751 L -50.8,-0
 L -50.6067,4.42751 L -50.0282,8.82132 L -49.069,13.148 L -47.7364,17.3746 L -46.0404,21.469 L -43.9941,25.4
 L -41.6129,29.1377 L -38.9151,32.6536 L -35.921,35.921 L -32.6536,38.9151 L -29.1377,41.6129 L -25.4,43.9941
 L -21.469,46.0404 L -17.3746,47.7364 L -13.148,49.069 L -8.82132,50.0282 L -4.42751,50.6067 L 0,50.8
 z
M 17.6518,-28.5611 L 17.4459,-28.5883 L 17.2431,-28.6332 L 17.0449,-28.6957 L 16.853,-28.7752 L 16.6687,-28.8711
 L 16.4935,-28.9827 L 16.3287,-29.1092 L 16.1756,-29.2495 L 16.0352,-29.4027 L 15.9088,-29.5675 L 15.7971,-29.7427
 L 15.7012,-29.927 L 15.6217,-30.1189 L 15.5592,-30.317 L 15.5143,-30.5198 L 15.4872,-30.7258 L 15.4781,-30.9333
 L 15.4872,-31.1409 L 15.5143,-31.3468 L 15.5592,-31.5497 L 15.6217,-31.7478 L 15.7012,-31.9397 L 15.7971,-32.124
 L 15.9088,-32.2992 L 16.0352,-32.464 L 16.1756,-32.6171 L 16.3287,-32.7575 L 16.4935,-32.8839 L 16.6687,-32.9956
 L 16.853,-33.0915 L 17.0449,-33.171 L 17.2431,-33.2334 L 17.4459,-33.2784 L 17.6518,-33.3055 L 17.8594,-33.3146
 L 18.0669,-33.3055 L 18.2729,-33.2784 L 18.4757,-33.2334 L 18.6738,-33.171 L 18.8657,-33.0915 L 19.05,-32.9956
 L 19.2252,-32.8839 L 19.39,-32.7575 L 19.5432,-32.6171 L 19.6835,-32.464 L 19.81,-32.2992 L 19.9216,-32.124
 L 20.0175,-31.9397 L 20.097,-31.7478 L 20.1595,-31.5497 L 20.2044,-31.3468 L 20.2316,-31.1409 L 20.2406,-30.9333
 L 20.2316,-30.7258 L 20.2044,-30.5198 L 20.1595,-30.317 L 20.097,-30.1189 L 20.0175,-29.927 L 19.9216,-29.7427
 L 19.81,-29.5675 L 19.6835,-29.4027 L 19.5432,-29.2495 L 19.39,-29.1092 L 19.2252,-28.9827 L 19.05,-28.8711
 L 18.8657,-28.7752 L 18.6738,-28.6957 L 18.4757,-28.6332 L 18.2729,-28.5883 L 18.0669,-28.5611 L 17.8594,-28.5521
 z
M -18.0669,-28.5611 L -18.2729,-28.5883 L -18.4757,-28.6332 L -18.6738,-28.6957 L -18.8657,-28.7752 L -19.05,-28.8711
 L -19.2252,-28.9827 L -19.39,-29.1092 L -19.5432,-29.2495 L -19.6835,-29.4027 L -19.81,-29.5675 L -19.9216,-29.7427
 L -20.0175,-29.927 L -20.097,-30.1189 L -20.1595,-30.317 L -20.2044,-30.5198 L -20.2316,-30.7258 L -20.2406,-30.9333
 L -20.2316,-31.1409 L -20.2044,-31.3468 L -20.1595,-31.5497 L -20.097,-31.7478 L -20.0175,-31.9397 L -19.9216,-32.124
 L -19.81,-32.2992 L -19.6835,-32.464 L -19.5432,-32.6171 L -19.39,-32.7575 L -19.2252,-32.8839 L -19.05,-32.9956
 L -18.8657,-33.0915 L -18.6738,-33.171 L -18.4757,-33.2334 L -18.2729,-33.2784 L -18.0669,-33.3055 L -17.8594,-33.3146
 L -17.6518,-33.3055 L -17.4459,-33.2784 L -17.2431,-33.2334 L -17.0449,-33.171 L -16.853,-33.0915 L -16.6687,-32.9956
 L -16.4935,-32.8839 L -16.3287,-32.7575 L -16.1756,-32.6171 L -16.0352,-32.464 L -15.9088,-32.2992 L -15.7971,-32.124
 L -15.7012,-31.9397 L -15.6217,-31.7478 L -15.5592,-31.5497 L -15.5143,-31.3468 L -15.4872,-31.1409 L -15.4781,-30.9333
 L -15.4872,-30.7258 L -15.5143,-30.5198 L -15.5592,-30.317 L -15.6217,-30.1189 L -15.7012,-29.927 L -15.7971,-29.7427
 L -15.9088,-29.5675 L -16.0352,-29.4027 L -16.1756,-29.2495 L -16.3287,-29.1092 L -16.4935,-28.9827 L -16.6687,-28.8711
 L -16.853,-28.7752 L -17.0449,-28.6957 L -17.2431,-28.6332 L -17.4459,-28.5883 L -17.6518,-28.5611 L -17.8594,-28.5521
 z
M -2.26611,25.902 L -4.51501,25.6059 L -6.72954,25.115 L -8.89284,24.4329 L -10.9885,23.5648 L -13.0005,22.5175
 L -14.9135,21.2987 L -16.7131,19.9179 L -18.3854,18.3854 L -19.9179,16.7131 L -21.2987,14.9135 L -22.5175,13.0005
 L -23.5648,10.9885 L -24.4329,8.89284 L -25.115,6.72954 L -25.6059,4.51501 L -25.902,2.26611 L -26.0009,-0
 L -25.902,-2.26611 L -25.6059,-4.51501 L -25.115,-6.72954 L -24.4329,-8.89284 L -23.5648,-10.9885 L -22.5175,-13.0005
 L -21.2987,-14.9135 L -19.9179,-16.7131 L -18.3854,-18.3854 L -16.7131,-19.9179 L -14.9135,-21.2987 L -13.0005,-22.5175
 L -10.9885,-23.5648 L -8.89284,-24.4329 L -6.72954,-25.115 L -4.51501,-25.6059 L -2.26611,-25.902 L 0,-26.0009
 L 2.26611,-25.902 L 4.51501,-25.6059 L 6.72954,-25.115 L 8.89284,-24.4329 L 10.9885,-23.5648 L 13.0005,-22.5175
 L 14.9135,-21.2987 L 16.7131,-19.9179 L 18.3854,-18.3854 L 19.9179,-16.7131 L 21.2987,-14.9135 L 22.5175,-13.0005
 L 23.5648,-10.9885 L 24.4329,-8.89284 L 25.115,-6.72954 L 25.6059,-4.51501 L 25.902,-2.26611 L 26.0009,-0
 L 25.902,2.26611 L 25.6059,4.51501 L 25.115,6.72954 L 24.4329,8.89284 L 23.5648,10.9885 L 22.5175,13.0005
 L 21.2987,14.9135 L 19.9179,16.7131 L 18.3854,18.3854 L 16.7131,19.9179 L 14.9135,21.2987 L 13.0005,22.5175
 L 10.9885,23.5648 L 8.89284,24.4329 L 6.72954,25.115 L 4.51501,25.6059 L 2.26611,25.902 L 0,26.0009
 z
M 2.17888,24.9049 L 4.3412,24.6202 L 6.47047,24.1481 L 8.55049,23.4923 L 10.5654,22.6577 L 12.5,21.6506
 L 14.3394,20.4788 L 16.0697,19.1511 L 17.6777,17.6777 L 19.1511,16.0697 L 20.4788,14.3394 L 21.6506,12.5
 L 22.6577,10.5654 L 23.4923,8.55049 L 24.1481,6.47047 L 24.6202,4.3412 L 24.9049,2.17888 L 25,-0
 L 24.9049,-2.17888 L 24.6202,-4.3412 L 24.1481,-6.47047 L 23.4923,-8.55049 L 22.6577,-10.5654 L 21.6506,-12.5
 L 20.4788,-14.3394 L 19.1511,-16.0697 L 17.6777,-17.6777 L 16.0697,-19.1511 L 14.3394,-20.4788 L 12.5,-21.6506
 L 10.5654,-22.6577 L 8.55049,-23.4923 L 6.47047,-24.1481 L 4.3412,-24.6202 L 2.17888,-24.9049 L 0,-25
 L -2.17888,-24.9049 L -4.3412,-24.6202 L -6.47047,-24.1481 L -8.55049,-23.4923 L -10.5654,-22.6577 L -12.5,-21.6506
 L -14.3394,-20.4788 L -16.0697,-19.1511 L -17.6777,-17.6777 L -19.1511,-16.0697 L -20.4788,-14.3394 L -21.6506,-12.5
 L -22.6577,-10.5654 L -23.4923,-8.55049 L -24.1481,-6.47047 L -24.6202,-4.3412 L -24.9049,-2.17888 L -25,-0
 L -24.9049,2.17888 L -24.6202,4.3412 L -24.1481,6.47047 L -23.4923,8.55049 L -22.6577,10.5654 L -21.6506,12.5
 L -20.4788,14.3394 L -19.1511,16.0697 L -17.6777,17.6777 L -16.0697,19.1511 L -14.3394,20.4788 L -12.5,21.6506
 L -10.5654,22.6577 L -8.55049,23.4923 L -6.47047,24.1481 L -4.3412,24.6202 L -2.17888,24.9049 L 0,25
 z
M -12.5534,6.32584 L -13.1027,6.25352 L -13.6435,6.13362 L -14.1718,5.96704 L -14.6836,5.75505 L -15.175,5.49925
 L -15.6422,5.20161 L -16.0817,4.86438 L -16.4901,4.49013 L -16.8644,4.0817 L -17.2016,3.6422 L -17.4993,3.17499
 L -17.7551,2.68362 L -17.967,2.17181 L -18.1336,1.64349 L -18.2535,1.10266 L -18.3258,0.553436 L -18.35,-0
 L -18.3258,-0.553436 L -18.2535,-1.10266 L -18.1336,-1.64349 L -17.967,-2.17181 L -17.7551,-2.68362 L -17.4993,-3.17499
 L -17.2016,-3.6422 L -16.8644,-4.0817 L -16.4901,-4.49013 L -16.0817,-4.86438 L -15.6422,-5.20161 L -15.175,-5.49925
 L -14.6836,-5.75505 L -14.1718,-5.96704 L -13.6435,-6.13362 L -13.1027,-6.25352 L -12.5534,-6.32584 L -12,-6.34999
 L -11.4465,-6.32584 L -10.8973,-6.25352 L -10.3565,-6.13362 L -9.82817,-5.96704 L -9.31636,-5.75505 L -8.825,-5.49925
 L -8.35779,-5.20161 L -7.91829,-4.86438 L -7.50986,-4.49013 L -7.1356,-4.0817 L -6.79837,-3.6422 L -6.50073,-3.17499
 L -6.24493,-2.68362 L -6.03294,-2.17181 L -5.86636,-1.64349 L -5.74646,-1.10266 L -5.67415,-0.553436 L -5.64999,-0
 L -5.67415,0.553436 L -5.74646,1.10266 L -5.86636,1.64349 L -6.03294,2.17181 L -6.24493,2.68362 L -6.50073,3.17499
 L -6.79837,3.6422 L -7.1356,4.0817 L -7.50986,4.49013 L -7.91829,4.86438 L -8.35779,5.20161 L -8.825,5.49925
 L -9.31636,5.75505 L -9.82817,5.96704 L -10.3565,6.13362 L -10.8973,6.25352 L -11.4465,6.32584 L -12,6.34999
 z
M 35.5112,2.37218 L 35.3052,2.34506 L 35.1024,2.30011 L 34.9043,2.23764 L 34.7124,2.15814 L 34.5281,2.06221
 L 34.3529,1.95059 L 34.1881,1.82414 L 34.0349,1.68379 L 33.8946,1.53062 L 33.7681,1.36581 L 33.6565,1.19061
 L 33.5606,1.00635 L 33.4811,0.814423 L 33.4186,0.616302 L 33.3737,0.413498 L 33.3466,0.207535 L 33.3375,-0
 L 33.3466,-0.207535 L 33.3737,-0.413498 L 33.4186,-0.616302 L 33.4811,-0.814423 L 33.5606,-1.00635 L 33.6565,-1.19061
 L 33.7681,-1.36581 L 33.8946,-1.53062 L 34.0349,-1.68379 L 34.1881,-1.82414 L 34.3529,-1.95059 L 34.5281,-2.06221
 L 34.7124,-2.15814 L 34.9043,-2.23764 L 35.1024,-2.30011 L 35.3052,-2.34506 L 35.5112,-2.37218 L 35.7188,-2.38124
 L 35.9263,-2.37218 L 36.1322,-2.34506 L 36.3351,-2.30011 L 36.5332,-2.23764 L 36.7251,-2.15814 L 36.9094,-2.06221
 L 37.0846,-1.95059 L 37.2494,-1.82414 L 37.4025,-1.68379 L 37.5429,-1.53062 L 37.6693,-1.36581 L 37.781,-1.19061
 L 37.8769,-1.00635 L 37.9564,-0.814423 L 38.0189,-0.616302 L 38.0638,-0.413498 L 38.0909,-0.207535 L 38.1,-0
 L 38.0909,0.207535 L 38.0638,0.413498 L 38.0189,0.616302 L 37.9564,0.814423 L 37.8769,1.00635 L 37.781,1.19061
 L 37.6693,1.36581 L 37.5429,1.53062 L 37.4025,1.68379 L 37.2494,1.82414 L 37.0846,1.95059 L 36.9094,2.06221
 L 36.7251,2.15814 L 36.5332,2.23764 L 36.3351,2.30011 L 36.1322,2.34506 L 35.9263,2.37218 L 35.7188,2.38124
 z
M -35.9263,2.37218 L -36.1322,2.34506 L -36.3351,2.30011 L -36.5332,2.23764 L -36.7251,2.15814 L -36.9094,2.06221
 L -37.0846,1.95059 L -37.2494,1.82414 L -37.4025,1.68379 L -37.5429,1.53062 L -37.6693,1.36581 L -37.781,1.19061
 L -37.8769,1.00635 L -37.9564,0.814423 L -38.0189,0.616302 L -38.0638,0.413498 L -38.0909,0.207535 L -38.1,-0
 L -38.0909,-0.207535 L -38.0638,-0.413498 L -38.0189,-0.616302 L -37.9564,-0.814423 L -37.8769,-1.00635 L -37.781,-1.19061
 L -37.6693,-1.36581 L -37.5429,-1.53062 L -37.4025,-1.68379 L -37.2494,-1.82414 L -37.0846,-1.95059 L -36.9094,-2.06221
 L -36.7251,-2.15814 L -36.5332,-2.23764 L -36.3351,-2.30011 L -36.1322,-2.34506 L -35.9263,-2.37218 L -35.7188,-2.38124
 L -35.5112,-2.37218 L -35.3052,-2.34506 L -35.1024,-2.30011 L -34.9043,-2.23764 L -34.7124,-2.15814 L -34.5281,-2.06221
 L -34.3529,-1.95059 L -34.1881,-1.82414 L -34.0349,-1.68379 L -33.8946,-1.53062 L -33.7681,-1.36581 L -33.6565,-1.19061
 L -33.5606,-1.00635 L -33.4811,-0.814423 L -33.4186,-0.616302 L -33.3737,-0.413498 L -33.3466,-0.207535 L -33.3375,-0
 L -33.3466,0.207535 L -33.3737,0.413498 L -33.4186,0.616302 L -33.4811,0.814423 L -33.5606,1.00635 L -33.6565,1.19061
 L -33.7681,1.36581 L -33.8946,1.53062 L -34.0349,1.68379 L -34.1881,1.82414 L -34.3529,1.95059 L -34.5281,2.06221
 L -34.7124,2.15814 L -34.9043,2.23764 L -35.1024,2.30011 L -35.3052,2.34506 L -35.5112,2.37218 L -35.7188,2.38124
 z
M -18.0669,33.3055 L -18.2729,33.2784 L -18.4757,33.2334 L -18.6738,33.171 L -18.8657,33.0915 L -19.05,32.9956
 L -19.2252,32.8839 L -19.39,32.7575 L -19.5432,32.6171 L -19.6835,32.464 L -19.81,32.2992 L -19.9216,32.124
 L -20.0175,31.9397 L -20.097,31.7478 L -20.1595,31.5497 L -20.2044,31.3468 L -20.2316,31.1409 L -20.2406,30.9333
 L -20.2316,30.7258 L -20.2044,30.5198 L -20.1595,30.317 L -20.097,30.1189 L -20.0175,29.927 L -19.9216,29.7427
 L -19.81,29.5675 L -19.6835,29.4027 L -19.5432,29.2495 L -19.39,29.1092 L -19.2252,28.9827 L -19.05,28.8711
 L -18.8657,28.7752 L -18.6738,28.6957 L -18.4757,28.6332 L -18.2729,28.5883 L -18.0669,28.5611 L -17.8594,28.5521
 L -17.6518,28.5611 L -17.4459,28.5883 L -17.2431,28.6332 L -17.0449,28.6957 L -16.853,28.7752 L -16.6687,28.8711
 L -16.4935,28.9827 L -16.3287,29.1092 L -16.1756,29.2495 L -16.0352,29.4027 L -15.9088,29.5675 L -15.7971,29.7427
 L -15.7012,29.927 L -15.6217,30.1189 L -15.5592,30.317 L -15.5143,30.5198 L -15.4872,30.7258 L -15.4781,30.9333
 L -15.4872,31.1409 L -15.5143,31.3468 L -15.5592,31.5497 L -15.6217,31.7478 L -15.7012,31.9397 L -15.7971,32.124
 L -15.9088,32.2992 L -16.0352,32.464 L -16.1756,32.6171 L -16.3287,32.7575 L -16.4935,32.8839 L -16.6687,32.9956
 L -16.853,33.0915 L -17.0449,33.171 L -17.2431,33.2334 L -17.4459,33.2784 L -17.6518,33.3055 L -17.8594,33.3146
 z
M 17.6518,33.3055 L 17.4459,33.2784 L 17.2431,33.2334 L 17.0449,33.171 L 16.853,33.0915 L 16.6687,32.9956
 L 16.4935,32.8839 L 16.3287,32.7575 L 16.1756,32.6171 L 16.0352,32.464 L 15.9088,32.2992 L 15.7971,32.124
 L 15.7012,31.9397 L 15.6217,31.7478 L 15.5592,31.5497 L 15.5143,31.3468 L 15.4872,31.1409 L 15.4781,30.9333
 L 15.4872,30.7258 L 15.5143,30.5198 L 15.5592,30.317 L 15.6217,30.1189 L 15.7012,29.927 L 15.7971,29.7427
 L 15.9088,29.5675 L 16.0352,29.4027 L 16.1756,29.2495 L 16.3287,29.1092 L 16.4935,28.9827 L 16.6687,28.8711
 L 16.853,28.7752 L 17.0449,28.6957 L 17.2431,28.6332 L 17.4459,28.5883 L 17.6518,28.5611 L 17.8594,28.5521
 L 18.0669,28.5611 L 18.2729,28.5883 L 18.4757,28.6332 L 18.6738,28.6957 L 18.8657,28.7752 L 19.05,28.8711
 L 19.2252,28.9827 L 19.39,29.1092 L 19.5432,29.2495 L 19.6835,29.4027 L 19.81,29.5675 L 19.9216,29.7427
 L 20.0175,29.927 L 20.097,30.1189 L 20.1595,30.317 L 20.2044,30.5198 L 20.2316,30.7258 L 20.2406,30.9333
 L 20.2316,31.1409 L 20.2044,31.3468 L 20.1595,31.5497 L 20.097,31.7478 L 20.0175,31.9397 L 19.9216,32.124
 L 19.81,32.2992 L 19.6835,32.464 L 19.5432,32.6171 L 19.39,32.7575 L 19.2252,32.8839 L 19.05,32.9956
 L 18.8657,33.0915 L 18.6738,33.171 L 18.4757,33.2334 L 18.2729,33.2784 L 18.0669,33.3055 L 17.8594,33.3146
 z
" stroke="black" fill="lightgray" stroke-width="0.5"/></svg>
