<?xml version="1.0" standalone="no"?>
<!DOCTYPE svg PUBLIC "-//W3C//DTD SVG 1.1//EN" "http://www.w3.org/Graphics/SVG/1.1/DTD/svg11.dtd">
<svg width="116mm" height="116mm" viewBox="-58 -58 116 116" xmlns="http://www.w3.org/2000/svg" version="1.1">
<title>OpenSCAD Model</title>
<path d="
M 4.98094,56.9325 L 9.92398,56.2818 L 14.7915,55.2027 L 19.5464,53.7034 L 24.1526,51.7955 L 28.575,49.4933
 L 32.7799,46.8145 L 36.7353,43.7794 L 40.4111,40.4111 L 43.7794,36.7353 L 46.8145,32.7799 L 49.4933,28.575
 L 51.7955,24.1526 L 53.7034,19.5464 L 55.2027,14.7915 L 56.2818,9.92398 L 56.9325,4.98094 L 57.15,-0
 L 56.9325,-4.98094 L 56.2818,-9.92398 L 55.2027,-14.7915 L 53.7034,-19.5464 L 51.7955,-24.1526 L 49.4933,-28.575
 L 46.8145,-32.7799 L 43.7794,-36.7353 L 40.4111,-40.4111 L 36.7353,-43.7794 L 32.7799,-46.8145 L 28.575,-49.4933
 L 24.1526,-51.7955 L 19.5464,-53.7034 L 14.7915,-55.2027 L 9.92398,-56.2818 L 4.98094,-56.9325 L 0,-57.15
 L -4.98094,-56.9325 L -9.92398,-56.2818 L -14.7915,-55.2027 L -19.5464,-53.7034 L -24.1526,-51.7955 L -28.575,-49.4933
 L -32.7799,-46.8145 L -36.7353,-43.7794 L -40.4111,-40.4111 L -43.7794,-36.7353 L -46.8145,-32.7799 L -49.4933,-28.575
 L -51.7955,-24.1526 L -53.7034,-19.5464 L -55.2027,-14.7915 L -56.2818,-9.92398 L -56.9325,-4.98094 L -57.15,-0
 L -56.9325,4.98094 L -56.2818,9.92398 L -55.2027,14.7915 L -53.7034,19.5464 L -51.7955,24.1526 L -49.4933,28.575
 L -46.8145,32.7799 L -43.7794,36.7353 L -40.4111,40.4111 L -36.7353,43.7794 L -32.7799,46.8145 L -28.575,49.4933
 L -24.1526,51.7955 L -19.5464,53.7034 L -14.7915,55.2027 L -9.92398,56.2818 L -4.98094,56.9325 L 0,57.15
 z
M -0.276718,-43.1921 L -0.551331,-43.2282 L -0.821747,-43.2882 L -1.08591,-43.3715 L -1.34181,-43.4775 L -1.58749,-43.6054
 L -1.82109,-43.7542 L -2.04085,-43.9228 L -2.24506,-44.1099 L -2.43219,-44.3141 L -2.6008,-44.5339 L -2.74962,-44.7675
 L -2.87752,-45.0132 L -2.98352,-45.2691 L -3.0668,-45.5332 L -3.12675,-45.8037 L -3.16292,-46.0783 L -3.17499,-46.355
 L -3.16292,-46.6317 L -3.12675,-46.9063 L -3.0668,-47.1767 L -2.98352,-47.4409 L -2.87752,-47.6968 L -2.74962,-47.9425
 L -2.6008,-48.1761 L -2.43219,-48.3958 L -2.24506,-48.6001 L -2.04085,-48.7872 L -1.82109,-48.9558 L -1.58749,-49.1046
 L -1.34181,-49.2325 L -1.08591,-49.3385 L -0.821747,-49.4218 L -0.551331,-49.4818 L -0.276718,-49.5179 L 0,-49.53
 L 0.276718,-49.5179 L 0.551331,-49.4818 L 0.821747,-49.4218 L 1.08591,-49.3385 L 1.34181,-49.2325 L 1.58749,-49.1046
 L 1.82109,-48.9558 L 2.04085,-48.7872 L 2.24506,-48.6001 L 2.43219,-48.3958 L 2.6008,-48.1761 L 2.74962,-47.9425
 L 2.87752,-47.6968 L 2.98352,-47.4409 L 3.0668,-47.1767 L 3.12675,-46.9063 L 3.16292,-46.6317 L 3.17499,-46.355
 L 3.16292,-46.0783 L 3.12675,-45.8037 L 3.0668,-45.5332 L 2.98352,-45.2691 L 2.87752,-45.0132 L 2.74962,-44.7675
 L 2.6008,-44.5339 L 2.43219,-44.3141 L 2.24506,-44.1099 L 2.04085,-43.9228 L 1.82109,-43.7542 L 1.58749,-43.6054
 L 1.34181,-43.4775 L 1.08591,-43.3715 L 0.821747,-43.2882 L 0.551331,-43.2282 L 0.276718,-43.1921 L 0,-43.18
 z
M -2.7019,30.883 L -5.38326,30.53 L -8.02362,29.9446 L -10.6029,29.1313 L -13.1016,28.0964 L -15.5005,26.8476
 L -17.7814,25.3945 L -19.927,23.7481 L -21.921,21.921 L -23.7481,19.927 L -24.6686,18.7274 L -22.4751,14.9281
 L -23.3843,13.5009 L -24.472,11.4115 L -24.6425,11 L -28.9669,11 L -29.1313,10.6029 L -29.9446,8.02362
 L -30.53,5.38326 L -30.883,2.7019 L -31.0009,-0 L -30.883,-2.7019 L -30.53,-5.38326 L -29.9446,-8.02362
 L -29.1313,-10.6029 L -28.0964,-13.1016 L -26.8476,-15.5005 L -25.3945,-17.7814 L -23.7481,-19.927 L -21.921,-21.921
 L -19.927,-23.7481 L -17.7814,-25.3945 L -15.5005,-26.8476 L -13.1016,-28.0964 L -10.6029,-29.1313 L -8.02362,-29.9446
 L -5.38326,-30.53 L -2.7019,-30.883 L 0,-31.0009 L 2.7019,-30.883 L 5.38326,-30.53 L 8.02362,-29.9446
 L 10.6029,-29.1313 L 13.1016,-28.0964 L 15.5005,-26.8476 L 17.7814,-25.3945 L 19.927,-23.7481 L 21.921,-21.921
 L 23.7481,-19.927 L 24.6686,-18.7274 L 22.4751,-14.9281 L 23.3843,-13.501 L 24.472,-11.4115 L 24.6425,-11
 L 28.9669,-11 L 29.1313,-10.6029 L 29.9446,-8.02362 L 30.53,-5.38326 L 30.883,-2.7019 L 31.0009,-0
 L 30.883,2.7019 L 30.53,5.38326 L 29.9446,8.02362 L 29.1313,10.6029 L 28.0964,13.1016 L 26.8476,15.5005
 L 25.3945,17.7814 L 23.7481,19.927 L 21.921,21.921 L 19.927,23.7481 L 17.7814,25.3945 L 15.5005,26.8476
 L 13.1016,28.0964 L 10.6029,29.1313 L 8.02362,29.9446 L 5.38326,30.53 L 2.7019,30.883 L 0,31.0009
 z
M 2.17888,24.9049 L 4.3412,24.6202 L 6.47047,24.1481 L 8.55049,23.4923 L 10.5654,22.6577 L 12.5,21.6506
 L 14.3394,20.4788 L 16.0697,19.1511 L 17.6777,17.6777 L 19.1511,16.0697 L 20.4788,14.3394 L 21.6506,12.5
 L 22.6577,10.5654 L 22.8919,10 L 28.2729,10 L 28.9778,7.76456 L 29.5442,5.20944 L 29.8858,2.61467
 L 30,-0 L 29.8858,-2.61467 L 29.5442,-5.20944 L 28.9778,-7.76456 L 28.2729,-10 L 22.8919,-10
 L 22.6577,-10.5654 L 21.6506,-12.5 L 20.4788,-14.3394 L 19.1511,-16.0697 L 17.6777,-17.6777 L 16.0697,-19.1511
 L 14.3394,-20.4788 L 12.5,-21.6506 L 10.5654,-22.6577 L 8.55049,-23.4923 L 6.47047,-24.1481 L 4.3412,-24.6202
 L 2.17888,-24.9049 L 0,-25 L -2.17888,-24.9049 L -4.3412,-24.6202 L -6.47047,-24.1481 L -8.55049,-23.4923
 L -10.5654,-22.6577 L -12.5,-21.6506 L -14.3394,-20.4788 L -16.0697,-19.1511 L -17.6777,-17.6777 L -19.1511,-16.0697
 L -20.4788,-14.3394 L -21.6506,-12.5 L -22.6577,-10.5654 L -22.8919,-10 L -28.2729,-10 L -28.9778,-7.76456
 L -29.5442,-5.20944 L -29.8858,-2.61467 L -30,-0 L -29.8858,2.61467 L -29.5442,5.20944 L -28.9778,7.76456
 L -28.2729,10 L -22.8919,10 L -22.6577,10.5654 L -21.6506,12.5 L -20.4788,14.3394 L -19.1511,16.0697
 L -17.6777,17.6777 L -16.0697,19.1511 L -14.3394,20.4788 L -12.5,21.6506 L -10.5654,22.6577 L -8.55049,23.4923
 L -6.47047,24.1481 L -4.3412,24.6202 L -2.17888,24.9049 L 0,25 z
M -12.8302,9.48875 L -13.654,9.38028 L -14.4652,9.20044 L -15.2577,8.95056 L -16.0254,8.63257 L -16.7625,8.24889
 L -17.4633,7.80241 L -18.1225,7.29657 L -18.7352,6.73518 L -19.2966,6.12254 L -19.8024,5.4633 L -20.2489,4.7625
 L -20.6326,4.02544 L -20.9506,3.25774 L -21.2004,2.46524 L -21.3803,1.65399 L -21.4888,0.830154 L -21.525,-0
 L -21.4888,-0.830154 L -21.3803,-1.65399 L -21.2004,-2.46524 L -20.9506,-3.25774 L -20.6326,-4.02544 L -20.2489,-4.7625
 L -19.8024,-5.4633 L -19.2966,-6.12254 L -18.7352,-6.73518 L -18.1225,-7.29657 L -17.4633,-7.80241 L -16.7625,-8.24889
 L -16.0254,-8.63257 L -15.2577,-8.95056 L -14.4652,-9.20044 L -13.654,-9.38028 L -12.8302,-9.48875 L -12,-9.52499
 L -11.1698,-9.48875 L -10.346,-9.38028 L -9.53474,-9.20044 L -8.74225,-8.95056 L -7.97455,-8.63257 L -7.23749,-8.24889
 L -6.53668,-7.80241 L -5.87744,-7.29657 L -5.2648,-6.73518 L -4.70341,-6.12254 L -4.19757,-5.4633 L -3.7511,-4.7625
 L -3.36742,-4.02544 L -3.04942,-3.25774 L -2.79955,-2.46524 L -2.61971,-1.65399 L -2.51123,-0.830154 L -2.47499,-0
 L -2.51123,0.830154 L -2.61971,1.65399 L -2.79955,2.46524 L -3.04942,3.25774 L -3.36742,4.02544 L -3.7511,4.7625
 L -4.19757,5.4633 L -4.70341,6.12254 L -5.2648,6.73518 L -5.87744,7.29657 L -6.53668,7.80241 L -7.23749,8.24889
 L -7.97455,8.63257 L -8.74225,8.95056 L -9.53474,9.20044 L -10.346,9.38028 L -11.1698,9.48875 L -12,9.52499
 z
M 39.8679,-20.0146 L 39.5933,-20.0507 L 39.3228,-20.1107 L 39.0587,-20.194 L 38.8028,-20.3 L 38.5571,-20.4279
 L 38.3235,-20.5767 L 38.1037,-20.7453 L 37.8995,-20.9324 L 37.7124,-21.1366 L 37.5438,-21.3564 L 37.395,-21.59
 L 37.2671,-21.8357 L 37.1611,-22.0916 L 37.0778,-22.3557 L 37.0178,-22.6262 L 36.9817,-22.9008 L 36.9696,-23.1775
 L 36.9817,-23.4542 L 37.0178,-23.7288 L 37.0778,-23.9992 L 37.1611,-24.2634 L 37.2671,-24.5193 L 37.395,-24.765
 L 37.5438,-24.9986 L 37.7124,-25.2183 L 37.8995,-25.4226 L 38.1037,-25.6097 L 38.3235,-25.7783 L 38.5571,-25.9271
 L 38.8028,-26.055 L 39.0587,-26.161 L 39.3228,-26.2443 L 39.5933,-26.3043 L 39.8679,-26.3404 L 40.1446,-26.3525
 L 40.4213,-26.3404 L 40.6959,-26.3043 L 40.9664,-26.2443 L 41.2305,-26.161 L 41.4864,-26.055 L 41.7321,-25.9271
 L 41.9657,-25.7783 L 42.1855,-25.6097 L 42.3897,-25.4226 L 42.5768,-25.2183 L 42.7454,-24.9986 L 42.8942,-24.765
 L 43.0221,-24.5193 L 43.1281,-24.2634 L 43.2114,-23.9992 L 43.2714,-23.7288 L 43.3075,-23.4542 L 43.3196,-23.1775
 L 43.3075,-22.9008 L 43.2714,-22.6262 L 43.2114,-22.3557 L 43.1281,-22.0916 L 43.0221,-21.8357 L 42.8942,-21.59
 L 42.7454,-21.3564 L 42.5768,-21.1366 L 42.3897,-20.9324 L 42.1855,-20.7453 L 41.9657,-20.5767 L 41.7321,-20.4279
 L 41.4864,-20.3 L 41.2305,-20.194 L 40.9664,-20.1107 L 40.6959,-20.0507 L 40.4213,-20.0146 L 40.1446,-20.0025
 z
M -40.4213,-20.0146 L -40.6959,-20.0507 L -40.9664,-20.1107 L -41.2305,-20.194 L -41.4864,-20.3 L -41.7321,-20.4279
 L -41.9657,-20.5767 L -42.1855,-20.7453 L -42.3897,-20.9324 L -42.5768,-21.1366 L -42.7454,-21.3564 L -42.8942,-21.59
 L -43.0221,-21.8357 L -43.1281,-22.0916 L -43.2114,-22.3557 L -43.2714,-22.6262 L -43.3075,-22.9008 L -43.3196,-23.1775
 L -43.3075,-23.4542 L -43.2714,-23.7288 L -43.2114,-23.9992 L -43.1281,-24.2634 L -43.0221,-24.5193 L -42.8942,-24.765
 L -42.7454,-24.9986 L -42.5768,-25.2183 L -42.3897,-25.4226 L -42.1855,-25.6097 L -41.9657,-25.7783 L -41.7321,-25.9271
 L -41.4864,-26.055 L -41.2305,-26.161 L -40.9664,-26.2443 L -40.6959,-26.3043 L -40.4213,-26.3404 L -40.1446,-26.3525
 L -39.8679,-26.3404 L -39.5933,-26.3043 L -39.3228,-26.2443 L -39.0587,-26.161 L -38.8028,-26.055 L -38.5571,-25.9271
 L -38.3235,-25.7783 L -38.1037,-25.6097 L -37.8995,-25.4226 L -37.7124,-25.2183 L -37.5438,-24.9986 L -37.395,-24.765
 L -37.2671,-24.5193 L -37.1611,-24.2634 L -37.0778,-23.9992 L -37.0178,-23.7288 L -36.9817,-23.4542 L -36.9696,-23.1775
 L -36.9817,-22.9008 L -37.0178,-22.6262 L -37.0778,-22.3557 L -37.1611,-22.0916 L -37.2671,-21.8357 L -37.395,-21.59
 L -37.5438,-21.3564 L -37.7124,-21.1366 L -37.8995,-20.9324 L -38.1037,-20.7453 L -38.3235,-20.5767 L -38.5571,-20.4279
 L -38.8028,-20.3 L -39.0587,-20.194 L -39.3228,-20.1107 L -39.5933,-20.0507 L -39.8679,-20.0146 L -40.1446,-20.0025
 z
M -40.4213,26.3404 L -40.6959,26.3043 L -40.9664,26.2443 L -41.2305,26.161 L -41.4864,26.055 L -41.7321,25.9271
 L -41.9657,25.7783 L -42.1855,25.6097 L -42.3897,25.4226 L -42.5768,25.2183 L -42.7454,24.9986 L -42.8942,24.765
 L -43.0221,24.5193 L -43.1281,24.2634 L -43.2114,23.9992 L -43.2714,23.7288 L -43.3075,23.4542 L -43.3196,23.1775
 L -43.3075,22.9008 L -43.2714,22.6262 L -43.2114,22.3557 L -43.1281,22.0916 L -43.0221,21.8357 L -42.8942,21.59
 L -42.7454,21.3564 L -42.5768,21.1366 L -42.3897,20.9324 L -42.1855,20.7453 L -41.9657,20.5767 L -41.7321,20.4279
 L -41.4864,20.3 L -41.2305,20.194 L -40.9664,20.1107 L -40.6959,20.0507 L -40.4213,20.0146 L -40.1446,20.0025
 L -39.8679,20.0146 L -39.5933,20.0507 L -39.3228,20.1107 L -39.0587,20.194 L -38.8028,20.3 L -38.5571,20.4279
 L -38.3235,20.5767 L -38.1037,20.7453 L -37.8995,20.9324 L -37.7124,21.1366 L -37.5438,21.3564 L -37.395,21.59
 L -37.2671,21.8357 L -37.1611,22.0916 L -37.0778,22.3557 L -37.0178,22.6262 L -36.9817,22.9008 L -36.9696,23.1775
 L -36.9817,23.4542 L -37.0178,23.7288 L -37.0778,23.9992 L -37.1611,24.2634 L -37.2671,24.5193 L -37.395,24.765
 L -37.5438,24.9986 L -37.7124,25.2183 L -37.8995,25.4226 L -38.1037,25.6097 L -38.3235,25.7783 L -38.5571,25.9271
 L -38.8028,26.055 L -39.0587,26.161 L -39.3228,26.2443 L -39.5933,26.3043 L -39.8679,26.3404 L -40.1446,26.3525
 z
M 39.8679,26.3404 L 39.5933,26.3043 L 39.3228,26.2443 L 39.0587,26.161 L 38.8028,26.055 L 38.5571,25.9271
 L 38.3235,25.7783 L 38.1037,25.6097 L 37.8995,25.4226 L 37.7124,25.2183 L 37.5438,24.9986 L 37.395,24.765
 L 37.2671,24.5193 L 37.1611,24.2634 L 37.0778,23.9992 L 37.0178,23.7288 L 36.9817,23.4542 L 36.9696,23.1775
 L 36.9817,22.9008 L 37.0178,22.6262 L 37.0778,22.3557 L 37.1611,22.0916 L 37.2671,21.8357 L 37.395,21.59
 L 37.5438,21.3564 L 37.7124,21.1366 L 37.8995,20.9324 L 38.1037,20.7453 L 38.3235,20.5767 L 38.5571,20.4279
 L 38.8028,20.3 L 39.0587,20.194 L 39.3228,20.1107 L 39.5933,20.0507 L 39.8679,20.0146 L 40.1446,20.0025
 L 40.4213,20.0146 L 40.6959,20.0507 L 40.9664,20.1107 L 41.2305,20.194 L 41.4864,20.3 L 41.7321,20.4279
 L 41.9657,20.5767 L 42.1855,20.7453 L 42.3897,20.9324 L 42.5768,21.1366 L 42.7454,21.3564 L 42.8942,21.59
 L 43.0221,21.8357 L 43.1281,22.0916 L 43.2114,22.3557 L 43.2714,22.6262 L 43.3075,22.9008 L 43.3196,23.1775
 L 43.3075,23.4542 L 43.2714,23.7288 L 43.2114,23.9992 L 43.1281,24.2634 L 43.0221,24.5193 L 42.8942,24.765
 L 42.7454,24.9986 L 42.5768,25.2183 L 42.3897,25.4226 L 42.1855,25.6097 L 41.9657,25.7783 L 41.7321,25.9271
 L 41.4864,26.055 L 41.2305,26.161 L 40.9664,26.2443 L 40.6959,26.3043 L 40.4213,26.3404 L 40.1446,26.3525
 z
M -0.276718,49.5179 L -0.551331,49.4818 L -0.821747,49.4218 L -1.08591,49.3385 L -1.34181,49.2325 L -1.58749,49.1046
 L -1.82109,48.9558 L -2.04085,48.7872 L -2.24506,48.6001 L -2.43219,48.3958 L -2.6008,48.1761 L -2.74962,47.9425
 L -2.87752,47.6968 L -2.98352,47.4409 L -3.0668,47.1767 L -3.12675,46.9063 L -3.16292,46.6317 L -3.17499,46.355
 L -3.16292,46.0783 L -3.12675,45.8037 L -3.0668,45.5332 L -2.98352,45.2691 L -2.87752,45.0132 L -2.74962,44.7675
 L -2.6008,44.5339 L -2.43219,44.3141 L -2.24506,44.1099 L -2.04085,43.9228 L -1.82109,43.7542 L -1.58749,43.6054
 L -1.34181,43.4775 L -1.08591,43.3715 L -0.821747,43.2882 L -0.551331,43.2282 L -0.276718,43.1921 L 0,43.18
 L 0.276718,43.1921 L 0.551331,43.2282 L 0.821747,43.2882 L 1.08591,43.3715 L 1.34181,43.4775 L 1.58749,43.6054
 L 1.82109,43.7542 L 2.04085,43.9228 L 2.24506,44.1099 L 2.43219,44.3141 L 2.6008,44.5339 L 2.74962,44.7675
 L 2.87752,45.0132 L 2.98352,45.2691 L 3.0668,45.5332 L 3.12675,45.8037 L 3.16292,46.0783 L 3.17499,46.355
 L 3.16292,46.6317 L 3.12675,46.9063 L 3.0668,47.1767 L 2.98352,47.4409 L 2.87752,47.6968 L 2.74962,47.9425
 L 2.6008,48.1761 L 2.43219,48.3958 L 2.24506,48.6001 L 2.04085,48.7872 L 1.82109,48.9558 L 1.58749,49.1046
 L 1.34181,49.2325 L 1.08591,49.3385 L 0.821747,49.4218 L 0.551331,49.4818 L 0.276718,49.5179 L 0,49.53
 z
" stroke="black" fill="lightgray" stroke-width="0.5"/></svg>
