<?xml version="1.0" standalone="no"?>
<!DOCTYPE svg PUBLIC "-//W3C//DTD SVG 1.1//EN" "http://www.w3.org/Graphics/SVG/1.1/DTD/svg11.dtd">
<svg width="102mm" height="102mm" viewBox="-51 -51 102 102" xmlns="http://www.w3.org/2000/svg" version="1.1">
<title>OpenSCAD Model</title>
<path d="
M 4.42751,50.6067 L 8.82132,50.0282 L 13.148,49.069 L 17.3746,47.7364 L 21.469,46.0404 L 25.4,43.9941
 L 29.1377,41.6129 L 32.6536,38.9151 L 35.921,35.921 L 38.9151,32.6536 L 41.6129,29.1377 L 43.9941,25.4
 L 46.0404,21.469 L 47.7364,17.3746 L 49.069,13.148 L 50.0282,8.82132 L 50.6067,4.42751 L 50.8,-0
 L 50.6067,-4.42751 L 50.0282,-8.82132 L 49.069,-13.148 L 47.7364,-17.3746 L 46.0404,-21.469 L 43.9941,-25.4
 L 41.6129,-29.1377 L 38.9151,-32.6536 L 35.921,-35.921 L 32.6536,-38.9151 L 29.1377,-41.6129 L 25.4,-43.9941
 L 21.469,-46.0404 L 17.3746,-47.7364 L 13.148,-49.069 L 8.82132,-50.0282 L 4.42751,-50.6067 L 0,-50.8
 L -4.42751,-50.6067 L -8.82132,-50.0282 L -13.148,-49.069 L -17.3746,-47.7364 L -21.469,-46.0404 L -25.4,-43.9941
 L -29.1377,-41.6129 L -32.6536,-38.9151 L -35.921,-35.921 L -38.9151,-32.6536 L -41.6129,-29.1377 L -43.9941,-25.4
 L -46.0404,-21.469 L -47.7364,-17.3746 L -49.069,-13.148 L -50.0282,-8.82132 L -50.6067,-4.42751 L -50.8,-0
 L -50.6067,4.42751 L -50.0282,8.82132 L -49.069,13.148 L -47.7364,17.3746 L -46.0404,21.469 L -43.9941,25.4
 L -41.6129,29.1377 L -38.9151,32.6536 L -35.921,35.921 L -32.6536,38.9151 L -29.1377,41.6129 L -25.4,43.9941
 L -21.469,46.0404 L -17.3746,47.7364 L -13.148,49.069 L -8.82132,50.0282 L -4.42751,50.6067 L 0,50.8
 z
M 17.6518,-28.5611 L 17.4459,-28.5883 L 17.2431,-28.6332 L 17.0449,-28.6957 L 16.853,-28.7752 L 16.6687,-28.8711
 L 16.4935,-28.9827 L 16.3287,-29.1092 L 16.1756,-29.2495 L 16.0352,-29.4027 L 15.9088,-29.5675 L 15.7971,-29.7427
 L 15.7012,-29.927 L 15.6217,-30.1189 L 15.5592,-30.317 L 15.5143,-30.5198 L 15.4872,-30.7258 L 15.4781,-30.9333
 L 15.4872,-31.1409 L 15.5143,-31.3468 L 15.5592,-31.5497 L 15.6217,-31.7478 L 15.7012,-31.9397 L 15.7971,-32.124
 L 15.9088,-32.2992 L 16.0352,-32.464 L 16.1756,-32.6171 L 16.3287,-32.7575 L 16.4935,-32.8839 L 16.6687,-32.9956
 L 16.853,-33.0915 L 17.0449,-33.171 L 17.2431,-33.2334 L 17.4459,-33.2784 L 17.6518,-33.3055 L 17.8594,-33.3146
 L 18.0669,-33.3055 L 18.2729,-33.2784 L 18.4757,-33.2334 L 18.6738,-33.171 L 18.8657,-33.0915 L 19.05,-32.9956
 L 19.2252,-32.8839 L 19.39,-32.7575 L 19.5432,-32.6171 L 19.6835,-32.464 L 19.81,-32.2992 L 19.9216,-32.124
 L 20.0175,-31.9397 L 20.097,-31.7478 L 20.1595,-31.5497 L 20.2044,-31.3468 L 20.2316,-31.1409 L 20.2406,-30.9333
 L 20.2316,-30.7258 L 20.2044,-30.5198 L 20.1595,-30.317 L 20.097,-30.1189 L 20.0175,-29.927 L 19.9216,-29.7427
 L 19.81,-29.5675 L 19.6835,-29.4027 L 19.5432,-29.2495 L 19.39,-29.1092 L 19.2252,-28.9827 L 19.05,-28.8711
 L 18.8657,-28.7752 L 18.6738,-28.6957 L 18.4757,-28.6332 L 18.2729,-28.5883 L 18.0669,-28.5611 L 17.8594,-28.5521
 z
M -18.0669,-28.5611 L -18.2729,-28.5883 L -18.4757,-28.6332 L -18.6738,-28.6957 L -18.8657,-28.7752 L -19.05,-28.8711
 L -19.2252,-28.9827 L -19.39,-29.1092 L -19.5432,-29.2495 L -19.6835,-29.4027 L -19.81,-29.5675 L -19.9216,-29.7427
 L -20.0175,-29.927 L -20.097,-30.1189 L -20.1595,-30.317 L -20.2044,-30.5198 L -20.2316,-30.7258 L -20.2406,-30.9333
 L -20.2316,-31.1409 L -20.2044,-31.3468 L -20.1595,-31.5497 L -20.097,-31.7478 L -20.0175,-31.9397 L -19.9216,-32.124
 L -19.81,-32.2992 L -19.6835,-32.464 L -19.5432,-32.6171 L -19.39,-32.7575 L -19.2252,-32.8839 L -19.05,-32.9956
 L -18.8657,-33.0915 L -18.6738,-33.171 L -18.4757,-33.2334 L -18.2729,-33.2784 L -18.0669,-33.3055 L -17.8594,-33.3146
 L -17.6518,-33.3055 L -17.4459,-33.2784 L -17.2431,-33.2334 L -17.0449,-33.171 L -16.853,-33.0915 L -16.6687,-32.9956
 L -16.4935,-32.8839 L -16.3287,-32.7575 L -16.1756,-32.6171 L -16.0352,-32.464 L -15.9088,-32.2992 L -15.7971,-32.124
 L -15.7012,-31.9397 L -15.6217,-31.7478 L -15.5592,-31.5497 L -15.5143,-31.3468 L -15.4872,-31.1409 L -15.4781,-30.9333
 L -15.4872,-30.7258 L -15.5143,-30.5198 L -15.5592,-30.317 L -15.6217,-30.1189 L -15.7012,-29.927 L -15.7971,-29.7427
 L -15.9088,-29.5675 L -16.0352,-29.4027 L -16.1756,-29.2495 L -16.3287,-29.1092 L -16.4935,-28.9827 L -16.6687,-28.8711
 L -16.853,-28.7752 L -17.0449,-28.6957 L -17.2431,-28.6332 L -17.4459,-28.5883 L -17.6518,-28.5611 L -17.8594,-28.5521
 z
M -2.7019,30.883 L -5.38326,30.53 L -8.02362,29.9446 L -10.6029,29.1313 L -13.1016,28.0964 L -15.5005,26.8476
 L -17.7814,25.3945 L -19.927,23.7481 L -21.921,21.921 L -23.7481,19.927 L -25.3945,17.7814 L -26.8476,15.5005
 L -28.0964,13.1016 L -29.1313,10.6029 L -29.9446,8.02362 L -30.53,5.38326 L -30.883,2.7019 L -31.0009,-0
 L -30.883,-2.7019 L -30.53,-5.38326 L -29.9446,-8.02362 L -29.1313,-10.6029 L -28.0964,-13.1016 L -26.8476,-15.5005
 L -25.3945,-17.7814 L -23.7481,-19.927 L -21.921,-21.921 L -19.927,-23.7481 L -17.7814,-25.3945 L -15.5005,-26.8476
 L -13.1016,-28.0964 L -10.6029,-29.1313 L -8.02362,-29.9446 L -5.38326,-30.53 L -2.7019,-30.883 L 0,-31.0009
 L 2.7019,-30.883 L 5.38326,-30.53 L 8.02362,-29.9446 L 10.6029,-29.1313 L 13.1016,-28.0964 L 15.5005,-26.8476
 L 17.7814,-25.3945 L 19.927,-23.7481 L 21.921,-21.921 L 23.7481,-19.927 L 25.3945,-17.7814 L 26.8476,-15.5005
 L 28.0964,-13.1016 L 29.1313,-10.6029 L 29.9446,-8.02362 L 30.53,-5.38326 L 30.883,-2.7019 L 31.0009,-0
 L 30.883,2.7019 L 30.53,5.38326 L 29.9446,8.02362 L 29.1313,10.6029 L 28.0964,13.1016 L 26.8476,15.5005
 L 25.3945,17.7814 L 23.7481,19.927 L 21.921,21.921 L 19.927,23.7481 L 17.7814,25.3945 L 15.5005,26.8476
 L 13.1016,28.0964 L 10.6029,29.1313 L 8.02362,29.9446 L 5.38326,30.53 L 2.7019,30.883 L 0,31.0009
 z
M 2.17888,24.9049 L 4.3412,24.6202 L 6.47047,24.1481 L 8.55049,23.4923 L 10.5654,22.6577 L 12.5,21.6506
 L 14.3394,20.4788 L 16.0697,19.1511 L 17.6777,17.6777 L 19.1511,16.0697 L 20.4788,14.3394 L 21.6506,12.5
 L 22.6577,10.5654 L 22.8919,10 L 28.2729,10 L 28.9778,7.76456 L 29.5442,5.20944 L 29.8858,2.61467
 L 30,-0 L 29.8858,-2.61467 L 29.5442,-5.20944 L 28.9778,-7.76456 L 28.2729,-10 L 22.8919,-10
 L 22.6577,-10.5654 L 21.6506,-12.5 L 20.4788,-14.3394 L 19.1511,-16.0697 L 17.6777,-17.6777 L 16.0697,-19.1511
 L 14.3394,-20.4788 L 12.5,-21.6506 L 10.5654,-22.6577 L 8.55049,-23.4923 L 6.47047,-24.1481 L 4.3412,-24.6202
 L 2.17888,-24.9049 L 0,-25 L -2.17888,-24.9049 L -4.3412,-24.6202 L -6.47047,-24.1481 L -8.55049,-23.4923
 L -10.5654,-22.6577 L -12.5,-21.6506 L -14.3394,-20.4788 L -16.0697,-19.1511 L -17.6777,-17.6777 L -19.1511,-16.0697
 L -20.4788,-14.3394 L -21.6506,-12.5 L -22.6577,-10.5654 L -22.8919,-10 L -28.2729,-10 L -28.9778,-7.76456
 L -29.5442,-5.20944 L -29.8858,-2.61467 L -30,-0 L -29.8858,2.61467 L -29.5442,5.20944 L -28.9778,7.76456
 L -28.2729,10 L -22.8919,10 L -22.6577,10.5654 L -21.6506,12.5 L -20.4788,14.3394 L -19.1511,16.0697
 L -17.6777,17.6777 L -16.0697,19.1511 L -14.3394,20.4788 L -12.5,21.6506 L -10.5654,22.6577 L -8.55049,23.4923
 L -6.47047,24.1481 L -4.3412,24.6202 L -2.17888,24.9049 L 0,25 z
M -12.8302,9.48875 L -13.654,9.38028 L -14.4652,9.20044 L -15.2577,8.95056 L -16.0254,8.63257 L -16.7625,8.24889
 L -17.4633,7.80241 L -18.1225,7.29657 L -18.7352,6.73518 L -19.2966,6.12254 L -19.8024,5.4633 L -20.2489,4.7625
 L -20.6326,4.02544 L -20.9506,3.25774 L -21.2004,2.46524 L -21.3803,1.65399 L -21.4888,0.830154 L -21.525,-0
 L -21.4888,-0.830154 L -21.3803,-1.65399 L -21.2004,-2.46524 L -20.9506,-3.25774 L -20.6326,-4.02544 L -20.2489,-4.7625
 L -19.8024,-5.4633 L -19.2966,-6.12254 L -18.7352,-6.73518 L -18.1225,-7.29657 L -17.4633,-7.80241 L -16.7625,-8.24889
 L -16.0254,-8.63257 L -15.2577,-8.95056 L -14.4652,-9.20044 L -13.654,-9.38028 L -12.8302,-9.48875 L -12,-9.52499
 L -11.1698,-9.48875 L -10.346,-9.38028 L -9.53474,-9.20044 L -8.74225,-8.95056 L -7.97455,-8.63257 L -7.23749,-8.24889
 L -6.53668,-7.80241 L -5.87744,-7.29657 L -5.2648,-6.73518 L -4.70341,-6.12254 L -4.19757,-5.4633 L -3.7511,-4.7625
 L -3.36742,-4.02544 L -3.04942,-3.25774 L -2.79955,-2.46524 L -2.61971,-1.65399 L -2.51123,-0.830154 L -2.47499,-0
 L -2.51123,0.830154 L -2.61971,1.65399 L -2.79955,2.46524 L -3.04942,3.25774 L -3.36742,4.02544 L -3.7511,4.7625
 L -4.19757,5.4633 L -4.70341,6.12254 L -5.2648,6.73518 L -5.87744,7.29657 L -6.53668,7.80241 L -7.23749,8.24889
 L -7.97455,8.63257 L -8.74225,8.95056 L -9.53474,9.20044 L -10.346,9.38028 L -11.1698,9.48875 L -12,9.52499
 z
M 35.5112,2.37218 L 35.3052,2.34506 L 35.1024,2.30011 L 34.9043,2.23764 L 34.7124,2.15814 L 34.5281,2.06221
 L 34.3529,1.95059 L 34.1881,1.82414 L 34.0349,1.68379 L 33.8946,1.53062 L 33.7681,1.36581 L 33.6565,1.19061
 L 33.5606,1.00635 L 33.4811,0.814423 L 33.4186,0.616302 L 33.3737,0.413498 L 33.3466,0.207535 L 33.3375,-0
 L 33.3466,-0.207535 L 33.3737,-0.413498 L 33.4186,-0.616302 L 33.4811,-0.814423 L 33.5606,-1.00635 L 33.6565,-1.19061
 L 33.7681,-1.36581 L 33.8946,-1.53062 L 34.0349,-1.68379 L 34.1881,-1.82414 L 34.3529,-1.95059 L 34.5281,-2.06221
 L 34.7124,-2.15814 L 34.9043,-2.23764 L 35.1024,-2.30011 L 35.3052,-2.34506 L 35.5112,-2.37218 L 35.7188,-2.38124
 L 35.9263,-2.37218 L 36.1322,-2.34506 L 36.3351,-2.30011 L 36.5332,-2.23764 L 36.7251,-2.15814 L 36.9094,-2.06221
 L 37.0846,-1.95059 L 37.2494,-1.82414 L 37.4025,-1.68379 L 37.5429,-1.53062 L 37.6693,-1.36581 L 37.781,-1.19061
 L 37.8769,-1.00635 L 37.9564,-0.814423 L 38.0189,-0.616302 L 38.0638,-0.413498 L 38.0909,-0.207535 L 38.1,-0
 L 38.0909,0.207535 L 38.0638,0.413498 L 38.0189,0.616302 L 37.9564,0.814423 L 37.8769,1.00635 L 37.781,1.19061
 L 37.6693,1.36581 L 37.5429,1.53062 L 37.4025,1.68379 L 37.2494,1.82414 L 37.0846,1.95059 L 36.9094,2.06221
 L 36.7251,2.15814 L 36.5332,2.23764 L 36.3351,2.30011 L 36.1322,2.34506 L 35.9263,2.37218 L 35.7188,2.38124
 z
M -35.9263,2.37218 L -36.1322,2.34506 L -36.3351,2.30011 L -36.5332,2.23764 L -36.7251,2.15814 L -36.9094,2.06221
 L -37.0846,1.95059 L -37.2494,1.82414 L -37.4025,1.68379 L -37.5429,1.53062 L -37.6693,1.36581 L -37.781,1.19061
 L -37.8769,1.00635 L -37.9564,0.814423 L -38.0189,0.616302 L -38.0638,0.413498 L -38.0909,0.207535 L -38.1,-0
 L -38.0909,-0.207535 L -38.0638,-0.413498 L -38.0189,-0.616302 L -37.9564,-0.814423 L -37.8769,-1.00635 L -37.781,-1.19061
 L -37.6693,-1.36581 L -37.5429,-1.53062 L -37.4025,-1.68379 L -37.2494,-1.82414 L -37.0846,-1.95059 L -36.9094,-2.06221
 L -36.7251,-2.15814 L -36.5332,-2.23764 L -36.3351,-2.30011 L -36.1322,-2.34506 L -35.9263,-2.37218 L -35.7188,-2.38124
 L -35.5112,-2.37218 L -35.3052,-2.34506 L -35.1024,-2.30011 L -34.9043,-2.23764 L -34.7124,-2.15814 L -34.5281,-2.06221
 L -34.3529,-1.95059 L -34.1881,-1.82414 L -34.0349,-1.68379 L -33.8946,-1.53062 L -33.7681,-1.36581 L -33.6565,-1.19061
 L -33.5606,-1.00635 L -33.4811,-0.814423 L -33.4186,-0.616302 L -33.3737,-0.413498 L -33.3466,-0.207535 L -33.3375,-0
 L -33.3466,0.207535 L -33.3737,0.413498 L -33.4186,0.616302 L -33.4811,0.814423 L -33.5606,1.00635 L -33.6565,1.19061
 L -33.7681,1.36581 L -33.8946,1.53062 L -34.0349,1.68379 L -34.1881,1.82414 L -34.3529,1.95059 L -34.5281,2.06221
 L -34.7124,2.15814 L -34.9043,2.23764 L -35.1024,2.30011 L -35.3052,2.34506 L -35.5112,2.37218 L -35.7188,2.38124
 z
M -18.0669,33.3055 L -18.2729,33.2784 L -18.4757,33.2334 L -18.6738,33.171 L -18.8657,33.0915 L -19.05,32.9956
 L -19.2252,32.8839 L -19.39,32.7575 L -19.5432,32.6171 L -19.6835,32.464 L -19.81,32.2992 L -19.9216,32.124
 L -20.0175,31.9397 L -20.097,31.7478 L -20.1595,31.5497 L -20.2044,31.3468 L -20.2316,31.1409 L -20.2406,30.9333
 L -20.2316,30.7258 L -20.2044,30.5198 L -20.1595,30.317 L -20.097,30.1189 L -20.0175,29.927 L -19.9216,29.7427
 L -19.81,29.5675 L -19.6835,29.4027 L -19.5432,29.2495 L -19.39,29.1092 L -19.2252,28.9827 L -19.05,28.8711
 L -18.8657,28.7752 L -18.6738,28.6957 L -18.4757,28.6332 L -18.2729,28.5883 L -18.0669,28.5611 L -17.8594,28.5521
 L -17.6518,28.5611 L -17.4459,28.5883 L -17.2431,28.6332 L -17.0449,28.6957 L -16.853,28.7752 L -16.6687,28.8711
 L -16.4935,28.9827 L -16.3287,29.1092 L -16.1756,29.2495 L -16.0352,29.4027 L -15.9088,29.5675 L -15.7971,29.7427
 L -15.7012,29.927 L -15.6217,30.1189 L -15.5592,30.317 L -15.5143,30.5198 L -15.4872,30.7258 L -15.4781,30.9333
 L -15.4872,31.1409 L -15.5143,31.3468 L -15.5592,31.5497 L -15.6217,31.7478 L -15.7012,31.9397 L -15.7971,32.124
 L -15.9088,32.2992 L -16.0352,32.464 L -16.1756,32.6171 L -16.3287,32.7575 L -16.4935,32.8839 L -16.6687,32.9956
 L -16.853,33.0915 L -17.0449,33.171 L -17.2431,33.2334 L -17.4459,33.2784 L -17.6518,33.3055 L -17.8594,33.3146
 z
M 17.6518,33.3055 L 17.4459,33.2784 L 17.2431,33.2334 L 17.0449,33.171 L 16.853,33.0915 L 16.6687,32.9956
 L 16.4935,32.8839 L 16.3287,32.7575 L 16.1756,32.6171 L 16.0352,32.464 L 15.9088,32.2992 L 15.7971,32.124
 L 15.7012,31.9397 L 15.6217,31.7478 L 15.5592,31.5497 L 15.5143,31.3468 L 15.4872,31.1409 L 15.4781,30.9333
 L 15.4872,30.7258 L 15.5143,30.5198 L 15.5592,30.317 L 15.6217,30.1189 L 15.7012,29.927 L 15.7971,29.7427
 L 15.9088,29.5675 L 16.0352,29.4027 L 16.1756,29.2495 L 16.3287,29.1092 L 16.4935,28.9827 L 16.6687,28.8711
 L 16.853,28.7752 L 17.0449,28.6957 L 17.2431,28.6332 L 17.4459,28.5883 L 17.6518,28.5611 L 17.8594,28.5521
 L 18.0669,28.5611 L 18.2729,28.5883 L 18.4757,28.6332 L 18.6738,28.6957 L 18.8657,28.7752 L 19.05,28.8711
 L 19.2252,28.9827 L 19.39,29.1092 L 19.5432,29.2495 L 19.6835,29.4027 L 19.81,29.5675 L 19.9216,29.7427
 L 20.0175,29.927 L 20.097,30.1189 L 20.1595,30.317 L 20.2044,30.5198 L 20.2316,30.7258 L 20.2406,30.9333
 L 20.2316,31.1409 L 20.2044,31.3468 L 20.1595,31.5497 L 20.097,31.7478 L 20.0175,31.9397 L 19.9216,32.124
 L 19.81,32.2992 L 19.6835,32.464 L 19.5432,32.6171 L 19.39,32.7575 L 19.2252,32.8839 L 19.05,32.9956
 L 18.8657,33.0915 L 18.6738,33.171 L 18.4757,33.2334 L 18.2729,33.2784 L 18.0669,33.3055 L 17.8594,33.3146
 z
" stroke="black" fill="lightgray" stroke-width="0.5"/></svg>
