<?xml version="1.0" encoding="UTF-8" standalone="no"?>
<svg
   xmlns:dc="http://purl.org/dc/elements/1.1/"
   xmlns:cc="http://creativecommons.org/ns#"
   xmlns:rdf="http://www.w3.org/1999/02/22-rdf-syntax-ns#"
   xmlns:svg="http://www.w3.org/2000/svg"
   xmlns="http://www.w3.org/2000/svg"
   id="svg8"
   version="1.1"
   viewBox="0 0 202.60624 75.165401"
   height="2.9592676in"
   width="7.9766235in">
  <defs
     id="defs2" />
  <metadata
     id="metadata5">
    <rdf:RDF>
      <cc:Work
         rdf:about="">
        <dc:format>image/svg+xml</dc:format>
        <dc:type
           rdf:resource="http://purl.org/dc/dcmitype/StillImage" />
        <dc:title></dc:title>
      </cc:Work>
    </rdf:RDF>
  </metadata>
  <g
     transform="translate(-151.14352,-42.031218)"
     id="layer1">
    <g
       transform="translate(203.63467)"
       id="g907">
      <g
         id="flowRoot897"
         style="font-style:normal;font-weight:normal;font-size:16px;line-height:125%;font-family:sans-serif;letter-spacing:0px;word-spacing:0px;fill:#000000;fill-opacity:1;stroke:none;stroke-width:1px;stroke-linecap:butt;stroke-linejoin:miter;stroke-opacity:1"
         transform="matrix(0.26458333,0,0,0.26458333,-44.419314,52.82287)"
         aria-label="Design">
        <path
           id="path856"
           style="font-style:normal;font-variant:normal;font-weight:normal;font-stretch:normal;font-size:96px;font-family:'Fette classic UNZ Fraktur';-inkscape-font-specification:'Fette classic UNZ Fraktur'"
           d="m 96.788266,72.518336 q -0.192,0.096 -0.384,0.096 h -0.192 q -4.608,0.096 -9.024,0.864 -4.416,0.768 -7.776,1.728 -1.056,0.288 -2.016,0.576 -0.96,0.288 -1.728,0.576 -3.648,1.44 -5.472,3.84 -1.824,2.304 -2.016,4.8 v 0.576 q 0,3.264 2.688,5.952 2.688,2.688 7.68,2.688 1.632,0 3.264,-0.288 1.728,-0.288 3.648,-0.96 v 1.44 q -1.824,0.768 -3.456,1.152 -1.632,0.384 -3.264,0.384 -5.856,0.096 -9.6,-4.224 -3.648,-4.32 -3.648,-10.56 0,-2.016 0.384,-4.128 0.48,-2.208 1.44,-4.416 3.456,-7.68 12.576,-12 9.216,-4.416 19.68,-4.416 h 1.248004 q 0.672,0 1.344,0.096 12.96,0.576 24,8.928 11.04,8.352 12.288,26.304 v 0.576 q 0,0.192 0.096,0.384 v 0.96 q 0,14.592004 -9.792,23.136004 -9.792,8.448 -21.6,8.928 h -1.344 q -3.072,0.096 -6.144004,-0.48 -3.072,-0.576 -5.856,-1.824 -1.152,-0.48 -2.88,-1.536 -1.728,-1.152 -3.744,-2.496 -1.344,-0.768 -2.784,-1.536 -1.44,-0.864 -2.88,-1.44 -1.344,-0.576 -2.688,-0.864 -1.344,-0.384 -2.592,-0.384 -2.4,-0.096 -4.32,1.44 -1.92,1.536 -3.072,5.376 l -1.536,-0.096 q 2.784,-9.984 8.16,-13.92 5.376,-4.032 11.712,-4.128 1.824,0 3.648,0.288 1.824,0.192 3.648,0.672 2.304,0.672 4.608,1.536 2.304004,0.864 4.512004,2.016 1.44,-1.152 2.016,-2.112 0.672,-1.056 0.768,-1.92 0,-2.016 -2.496,-3.456 -2.496,-1.440004 -5.568004,-2.784004 h -0.096 l -0.096,-0.096 q -1.344,-0.576 -2.688,-1.152 -1.344,-0.672 -2.4,-1.344 -2.592,-1.44 -3.648,-3.168 -1.056,-1.728 -1.056,-3.552 0,-1.92 0.864,-3.936 0.864,-2.016 2.208,-4.032 0.48,-0.768 1.056,-1.536 0.576,-0.864 1.152,-1.728 0.768,-1.152 1.632,-2.304 0.864,-1.248 1.536,-2.4 z m 1.536,0 q -0.672,1.248 -1.056,2.112 -0.288,0.864 -0.288,1.536 0,1.632 1.44,2.496 1.44,0.864 3.648004,1.44 1.056,0.384 2.208,0.768 1.248,0.288 2.4,0.672 2.112,0.768 4.128,2.016 2.016,1.248 3.456,3.36 0.864,1.44 1.248,2.784 0.384,1.344 0.384,2.688 0,3.168 -1.824,5.952 -1.728,2.784004 -3.936,5.088004 -1.44,1.536 -2.88,2.976 -1.344,1.344 -2.112,2.496 4.608,2.976 8.448,4.32 3.936,1.344 7.104,1.344 6.144,0.096 9.696,-3.648 3.552,-3.744 4.608,-8.256 0.192,-0.96 0.288,-1.824 0.096,-0.960004 0.096,-1.824004 v -0.672 q 0.096,-9.216 -10.368,-16.32 -10.464,-7.104 -22.944,-8.928 -0.96,-0.192 -1.92,-0.288 -0.864004,-0.096 -1.824004,-0.192 z" />
        <path
           id="path858"
           style="font-style:normal;font-variant:normal;font-weight:normal;font-stretch:normal;font-size:96px;font-family:'Fette classic UNZ Fraktur';-inkscape-font-specification:'Fette classic UNZ Fraktur'"
           d="m 168.58877,73.286336 10.56,16.608 -21.12,13.632004 q 1.728,5.376 4.608,7.776 2.88,2.4 6.048,2.688 0.288,0.096 0.48,0.096 h 0.576 q 2.688,0 5.184,-1.152 2.496,-1.248 4.224,-3.264 l 0.768,1.344 q -1.536,1.44 -3.072,2.688 -1.536,1.248 -3.168,2.496 -3.168,2.4 -6.24,4.704 -2.976,2.304 -5.664,4.512 -8.448,-2.688 -12.384,-7.2 -3.84,-4.512 -5.088,-9.312 -0.288,-0.96 -0.48,-1.92 -0.096,-0.96 -0.192,-1.92 -0.096,-1.44 -0.192,-2.976 -0.096,-1.536 -0.096,-3.168004 v -1.248 q 0,-0.672 0.096,-1.344 0.192,-4.8 1.824,-9.12 1.728,-4.416 5.952,-6.336 z m -11.328,6.72 v 21.216004 l 9.792,-6.048004 z" />
        <path
           id="path860"
           style="font-style:normal;font-variant:normal;font-weight:normal;font-stretch:normal;font-size:96px;font-family:'Fette classic UNZ Fraktur';-inkscape-font-specification:'Fette classic UNZ Fraktur'"
           d="m 188.30177,73.958336 v -0.576 q 0,-6.624 4.896,-9.888 4.992,-3.36 11.04,-3.36 h 0.672 q 5.76,0.192 10.656,3.168 4.992,2.976 6.048,8.544 0.288,1.536 0.384,2.784 0.192,1.248 0.192,2.4 0,3.744 -1.152,5.952 -1.152,2.112 -2.496,3.36 -0.768,0.768 -1.536,1.344 -0.672,0.48 -1.152,1.056 -0.48,0.48 -0.768,0.96 -0.288,0.48 -0.288,1.056 4.224,0.672 6.912,3.936 2.784,3.264 2.784,7.488004 0,1.056 -0.192,2.112 -0.192,1.056 -0.576,2.112 -0.48,1.344 -1.44,2.784 -0.864,1.344 -2.208,2.688 -1.44,1.44 -2.784,2.784 -1.344,1.248 -2.592,2.496 l -1.536,1.536 q -1.824,1.728 -3.648,3.744 -1.728,2.016 -3.84,4.512 -0.768,-0.48 -2.016,-1.152 -1.152,-0.672 -2.688,-1.344 -1.632,-0.768 -3.456,-1.44 -1.824,-0.768 -3.648,-1.248 -1.152,-0.288 -2.208,-0.384 -1.056,-0.192 -2.112,-0.192 -1.92,0 -3.648,0.672 -1.728,0.576 -2.88,2.112 l -1.536,-0.096 q 0.768,-0.96 1.536,-2.208 0.864,-1.248 1.728,-2.496 l 1.92,-2.688 q 1.248,-2.016 2.304,-3.936 1.056,-1.92 1.632,-3.648 -4.416,-3.264 -6.336,-6.048 -1.824,-2.880004 -1.824,-5.472004 0,-3.84 3.072,-7.2 3.168,-3.456 6.912,-6.528 2.112,-1.728 4.128,-3.36 2.016,-1.728 3.456,-3.36 0.576,-0.768 1.056,-1.44 0.576,-0.768 0.864,-1.44 1.056,1.92 3.264,3.168 2.304,1.248 4.704,1.536 0.384,0 0.768,0.096 0.384,0 0.768,0 2.784,0.096 4.896,-1.344 2.208,-1.44 2.208,-4.608 0,-0.96 -0.192,-1.92 -0.096,-1.056 -0.576,-2.208 -1.248,-3.36 -5.088,-5.184 -3.84,-1.824 -8.256,-1.824 h -0.576 q -5.088,0.192 -9.408,3.072 -4.32,2.88 -4.608,9.216 z m 24.192,42.336004 q 0.768,-1.344 1.152,-2.784 0.384,-1.44 0.384,-2.88 0.096,-4.128 -2.784,-7.008 -2.784,-2.976 -6.72,-2.976 -1.344,0 -2.88,0.384 -1.44,0.384 -2.88,1.344 -1.728,1.056 -3.456,2.88 -1.632,1.824 -3.168,4.416 6.528,0.48 11.424,2.4 4.992,1.824 8.352,3.936 0.192,0.096 0.288,0.192 0.192,0.096 0.288,0.192 z m -18.144,-32.448004 q -0.768,1.344 -1.152,2.688 -0.384,1.248 -0.384,2.496 0,3.936 2.88,6.816 2.976,2.88 6.816,2.88 0.48,0 0.96,0 0.576,-0.096 1.056,-0.192 2.4,-0.576 4.704,-2.592 2.304,-2.016 4.032,-5.952 -1.152,0.48 -2.4,0.768 -1.152,0.288 -2.4,0.288 -2.976,0 -5.76,-1.152 -2.784,-1.248 -4.8,-2.688 -1.344,-0.96 -2.304,-1.824 -0.864,-0.864 -1.248,-1.44 z" />
        <path
           id="path862"
           style="font-style:normal;font-variant:normal;font-weight:normal;font-stretch:normal;font-size:96px;font-family:'Fette classic UNZ Fraktur';-inkscape-font-specification:'Fette classic UNZ Fraktur'"
           d="m 227.67077,84.614336 -0.768,-1.536 q 1.152,-0.48 2.4,-1.152 1.248,-0.768 2.496,-1.632 2.304,-1.632 4.512,-3.552 2.304,-1.92 4.224,-4.128 2.208,2.784 5.088,5.472 2.976,2.592 7.008,4.32 v 1.44 h -1.056 q -1.92,-0.096 -2.976,1.056 -0.96,1.152 -1.248,2.592 -0.096,0.192 -0.096,0.48 v 22.272004 q 0,2.304 0.864,3.744 0.864,1.344 2.112,1.344 0.768,0 1.536,-0.48 0.768,-0.48 1.536,-1.44 l 1.536,0.672 q -3.072,2.496 -5.088,4.32 -2.016,1.824 -3.84,3.264 -1.152,0.96 -2.304,1.824 -1.056,0.864 -2.496,1.536 -0.096,0.096 -0.288,0.192 -0.096,0.096 -0.288,0.192 -4.512,-2.688 -5.664,-5.664 -1.152,-2.976 -1.152,-6.336 V 86.822336 q 0,-1.824 -0.672,-2.496 -0.576,-0.768 -1.44,-0.768 -0.384,0 -0.864,0.096 -0.384,0.096 -0.864,0.192 -0.192,0.096 -0.48,0.192 -0.192,0.096 -0.48,0.192 -0.288,0.096 -0.672,0.288 -0.288,0.096 -0.576,0.192 z m 11.328,-13.632 q -3.264,-2.4 -4.704,-4.896 -1.44,-2.496 -1.44,-4.608 0,-2.784 2.016,-4.512 2.112,-1.728 5.664,-1.728 3.072,0 4.608,1.92 1.632,1.824 1.728,4.32 0,0.576 -0.096,1.152 -0.096,0.576 -0.192,1.056 -0.672,2.208 -2.592,4.224 -1.824,2.016 -4.992,3.168 z" />
        <path
           id="path864"
           style="font-style:normal;font-variant:normal;font-weight:normal;font-stretch:normal;font-size:96px;font-family:'Fette classic UNZ Fraktur';-inkscape-font-specification:'Fette classic UNZ Fraktur'"
           d="m 281.24027,73.958336 q 0.768,0.864 2.016,2.112 1.248,1.248 3.072,2.592 2.4,1.824 5.856,3.456 3.456,1.536 7.968,1.824 v 1.44 q -2.208,0.096 -3.744,0.96 -1.536,0.768 -1.536,3.648 v 26.304004 q 0,1.728 0.672,2.88 0.768,1.056 1.632,2.112 0.096,0.096 0.096,0.192 0.096,0.096 0.192,0.192 0.288,0.384 0.576,0.768 0.384,0.384 0.672,0.768 0.768,1.152 1.152,2.688 0.48,1.536 0.48,3.36 0,1.152 -0.192,2.304 -0.192,1.248 -0.576,2.4 -1.536,4.992 -6.912,9.12 -5.376,4.224 -15.936,4.224 h -1.536 q -7.68,0 -11.232,-2.592 -3.552,-2.496 -4.128,-5.568 0,-0.288 -0.096,-0.576 0,-0.288 0,-0.576 0,-2.88 2.016,-5.088 2.016,-2.208 5.28,-2.208 h 0.672 q 3.168,0.384 5.28,2.208 2.112,1.824 2.112,4.224 0,0.288 -0.096,0.576 0,0.384 -0.096,0.672 -0.384,1.44 -1.824,2.784 -1.344,1.44 -3.936,2.4 v 0.096 q -0.096,0.768 1.344,1.152 1.44,0.384 3.552,0.384 1.056,0 2.208,-0.096 1.248,-0.096 2.4,-0.288 3.264,-0.576 6.048,-2.016 2.88,-1.344 3.36,-3.744 0.192,-0.768 0.288,-1.536 0.096,-0.768 0.096,-1.44 0,-2.208 -0.768,-3.744 -0.768,-1.536 -1.824,-2.976 -0.288,-0.48 -0.672,-0.96 -0.288,-0.384 -0.672,-0.864 -1.44,-2.016 -2.688,-4.608 -1.248,-2.688 -1.248,-7.2 -1.92,1.344 -3.552,2.592 -1.632,1.152 -3.168,2.4 -0.768,0.48 -1.44,1.056 -0.672,0.48 -1.344,1.056 -0.96,0.768 -2.016,1.632 -1.056,0.768 -2.112,1.728 l -0.192,-0.096 q -3.36,-1.632 -5.856,-3.936 -2.496,-2.4 -3.072,-7.968 V 92.102336 q 0,-3.744 1.728,-5.472 1.824,-1.728 4.8,-2.976 3.264,-1.44 7.584,-3.264 4.416,-1.92 9.312,-6.336 z m -0.672,14.4 q -1.44,-0.48 -2.592,-1.056 -1.152,-0.576 -2.112,-1.152 -0.96,-0.48 -1.728,-0.96 l -1.536,-0.96 q -0.096,-0.096 -0.192,-0.096 -0.096,-0.096 -0.192,-0.192 v 28.608004 q 0,1.92 0.576,3.264 0.576,1.248 1.824,1.248 1.056,0 2.496,-0.768 1.44,-0.864 3.456,-2.88 z" />
        <path
           id="path866"
           style="font-style:normal;font-variant:normal;font-weight:normal;font-stretch:normal;font-size:96px;font-family:'Fette classic UNZ Fraktur';-inkscape-font-specification:'Fette classic UNZ Fraktur'"
           d="m 325.12127,84.614336 15.84,-11.328 q 0.768,0.864 1.632,1.824 0.864,0.864 1.728,1.824 1.824,1.824 3.936,3.456 2.208,1.632 4.8,2.016 v 1.44 q -2.784,0.096 -4.416,1.152 -1.632,1.056 -1.632,4.992 v 20.352004 q 0,0.288 0.096,0.672 0.096,1.44 0.672,2.592 0.672,1.152 2.208,1.248 0.768,0 1.632,-0.288 0.96,-0.384 2.208,-1.152 l 0.768,0.672 -14.304,12.096 q -5.088,-3.84 -6.336,-6.912 -1.248,-3.072 -1.248,-5.856 V 88.358336 q 0,-2.4 -0.672,-3.36 -0.672,-0.96 -1.728,-0.96 -0.672,0 -1.44,0.288 -0.672,0.288 -1.44,0.768 -0.576,0.384 -1.152,0.864 l -1.152,0.96 v 25.056004 q 0,0.384 0.096,0.864 0.096,0.864 0.576,1.728 0.48,0.768 1.632,1.152 v 1.344 q -2.304,0.672 -5.088,2.4 -2.688,1.728 -5.568,6.72 -0.672,-1.92 -2.496,-3.648 -1.728,-1.728 -3.744,-3.072 -1.44,-0.864 -2.784,-1.44 -1.344,-0.672 -2.304,-0.864 v -1.536 q 2.304,0.096 3.744,-0.864 1.536,-0.96 1.536,-4.416 V 89.894336 q 0,-0.288 -0.096,-0.672 0,-0.48 0,-0.96 -0.288,-1.344 -0.96,-2.4 -0.576,-1.152 -1.728,-1.152 -0.768,-0.096 -1.728,0.48 -0.96,0.48 -2.208,1.728 l -0.768,-1.536 12.864,-12.096 q 4.512,2.304 6.72,4.896 2.208,2.592 2.304,6.432 z" />
      </g>
      <g
         id="text901"
         style="font-style:normal;font-weight:normal;font-size:4.23333311px;line-height:125%;font-family:sans-serif;letter-spacing:0px;word-spacing:0px;fill:#000000;fill-opacity:1;stroke:none;stroke-width:0.26458332px;stroke-linecap:butt;stroke-linejoin:miter;stroke-opacity:1"
         aria-label="by">
        <path
           id="path869"
           style="font-style:normal;font-variant:normal;font-weight:normal;font-stretch:normal;font-size:12.69999981px;font-family:'Fette classic UNZ Fraktur';-inkscape-font-specification:'Fette classic UNZ Fraktur';stroke-width:0.26458332px"
           d="m 56.836178,78.46653 1.905,-1.1938 0.6985,0.6985 q 0.0254,0.0381 0.0381,0.0762 0.0254,0.0254 0.0381,0.0508 0.2413,0.3302 0.2794,0.7874 0.0381,0.4572 0.0381,1.4986 0,1.1176 -0.0762,1.7018 -0.0762,0.5715 -0.5207,0.8001 -0.1905,0.1143 -0.5588,0.2413 -0.3556,0.1143 -0.7493,0.2667 -0.3937,0.1651 -0.7493,0.381 -0.3556,0.2159 -0.5461,0.4953 -0.2413,-0.3302 -0.6604,-0.6477 -0.4191,-0.3175 -0.8763,-0.5461 -0.2159,-0.127 -0.4445,-0.2159 -0.2159,-0.1016 -0.4191,-0.1778 v -0.2159 q 0.3048,0.0127 0.508,-0.1397 0.2032,-0.1524 0.2032,-0.7493 v -3.9116 q -0.0762,-0.5588 -0.3302,-1.0541 -0.2413,-0.4953 -0.5207,-0.8636 -0.0127,-0.0127 -0.0254,-0.0254 -0.0127,-0.0254 -0.0254,-0.0381 l 0.1905,-0.1143 q 0.0381,0.0508 0.0762,0.0889 l 0.0762,0.0762 q 0.0508,0.0635 0.1016,0.1397 0.0508,0.0635 0.1016,0.1397 0.0762,0.127 0.1524,0.2794 0.0889,0.1524 0.2032,0.381 0.0889,-0.6731 0.6096,-1.016 0.5334,-0.3556 1.1557,-0.4826 0.3048,-0.0762 0.5969,-0.1016 0.3048,-0.0254 0.5461,-0.0254 0.1524,0 0.2667,0.0127 0.127,0 0.2159,0.0127 v 0.1905 h -0.254 q -0.6731,0 -0.9652,0.3302 -0.2794,0.3302 -0.2794,0.889 z m 1.0033,0.5969 q 0.0127,-0.0254 0.0127,-0.0635 v -0.0635 q 0,-0.2159 -0.1016,-0.2921 -0.0889,-0.0889 -0.2413,-0.0889 -0.1016,0 -0.2286,0.0381 -0.1143,0.0254 -0.2413,0.0889 -0.0508,0.0127 -0.1016,0.0508 -0.0508,0.0254 -0.1016,0.0508 v 3.2893 l 1.0033,0.8001 z" />
        <path
           id="path871"
           style="font-style:normal;font-variant:normal;font-weight:normal;font-stretch:normal;font-size:12.69999981px;font-family:'Fette classic UNZ Fraktur';-inkscape-font-specification:'Fette classic UNZ Fraktur';stroke-width:0.26458332px"
           d="m 61.244269,78.96183 q -0.3937,-0.0762 -0.5969,-0.381 -0.1905,-0.3175 -0.1905,-0.7112 0,-0.0762 0,-0.1524 0.0127,-0.0762 0.0254,-0.1651 0.1016,-0.5334 0.5588,-0.9779 0.4699,-0.4572 1.2954,-0.4953 v 0.1905 q -0.4318,0.1143 -0.6477,0.2667 -0.2032,0.1524 -0.2159,0.3175 0,0.1778 0.2159,0.3429 0.2286,0.1651 0.6477,0.2794 0.279399,0.0762 0.444499,0.2921 0.1651,0.2032 0.2413,0.4445 0.0635,0.2032 0.0889,0.3937 0.0254,0.1778 0.0254,0.2794 l 2.0066,-1.4224 q 0.3048,0.2413 0.508,0.5334 0.2159,0.2794 0.3302,0.5842 0.0762,0.2032 0.1143,0.4191 0.0381,0.2032 0.0381,0.381 v 3.2893 q -0.0635,1.4986 -0.9398,2.5273 -0.8763,1.0287 -2.7559,1.7653 v -0.1905 q 0.0127,-0.0127 0.0254,-0.0254 0.0127,0 0.0254,0 0.8763,-0.5334 1.3081,-1.1684 0.4445,-0.635 0.4445,-1.8034 v -4.3053 q 0,-0.3302 -0.1016,-0.4953 -0.0889,-0.1778 -0.2794,-0.1778 -0.127,0 -0.3175,0.1016 -0.1778,0.0889 -0.4064,0.2794 v 2.9845 q 0,0.3175 0.1143,0.4191 0.127,0.1016 0.2921,0.1016 h 0.0889 q 0.0889,0 0.1778,-0.0254 0.1016,-0.0254 0.1651,-0.0508 l 0.0381,-0.0127 q 0.0127,-0.0127 0.0254,-0.0127 v 0.1905 q -0.3175,0.1143 -0.635,0.381 -0.3175,0.254 -0.635,0.5588 -0.127,0.1143 -0.2667,0.2413 -0.126999,0.1143 -0.266699,0.2159 -0.0762,-0.0635 -0.1651,-0.127 -0.0762,-0.0635 -0.1397,-0.1397 -0.127,-0.1143 -0.2413,-0.2286 -0.1143,-0.1143 -0.2286,-0.2159 -0.1905,-0.1778 -0.3937,-0.3048 -0.1905,-0.1397 -0.4318,-0.1778 v -0.2032 q 0.2286,0.0127 0.4191,-0.127 0.1905,-0.1397 0.1905,-0.3683 z" />
      </g>
      <g
         id="text905"
         style="font-style:normal;font-weight:normal;font-size:4.23333311px;line-height:125%;font-family:sans-serif;letter-spacing:0px;word-spacing:0px;fill:#000000;fill-opacity:1;stroke:none;stroke-width:0.26458332px;stroke-linecap:butt;stroke-linejoin:miter;stroke-opacity:1"
         aria-label="Ulric">
        <path
           id="path874"
           style="font-style:normal;font-variant:normal;font-weight:normal;font-stretch:normal;font-size:25.39999962px;font-family:'Fette classic UNZ Fraktur';-inkscape-font-specification:'Fette classic UNZ Fraktur';stroke-width:0.26458332px"
           d="m 73.366602,80.232818 v -7.2136 q -0.0254,-0.5588 -0.254,-1.016 -0.2286,-0.4826 -0.6858,-0.4826 -0.254,-0.0254 -0.5588,0.1524 -0.3048,0.1524 -0.6858,0.5588 l -0.4064,-0.4318 3.9878,-4.0132 q 0.2286,0.1778 0.508,0.3556 0.2794,0.1524 0.5588,0.3302 0.7366,0.4826 1.3208,1.1684 0.6096,0.6858 0.635,1.8542 v 0.1524 q -0.0254,0.0508 -0.0254,0.1016 v 9.652 l 2.0066,0.9906 1.8034,-1.6002 v -7.5946 q 0,-0.7112 -0.4572,-1.143 -0.4572,-0.4318 -1.3462,-0.4318 v -0.4318 q 0.0254,0.0254 0.0508,0.0254 h 0.0508 l 0.0254,0.0254 h 0.0508 q 0.3556,0 0.762,-0.1778 0.4064,-0.2032 0.8128,-0.508 0.5334,-0.4064 1.0414,-0.9652 0.508,-0.5588 0.9144,-1.143 0.0762,-0.1016 0.127,-0.2032 0.0762,-0.127 0.1524,-0.2286 0.1016,0.2032 0.2286,0.4064 0.1524,0.1778 0.3048,0.381 0.6604,0.9144 1.5748,1.6764 0.9144,0.7366 1.905,0.7366 v 0.381 q -1.1938,0.0254 -1.4986,0.5334 -0.3048,0.4826 -0.3048,1.0922 v 7.366 q 0,0.7112 0.3048,1.27 0.3302,0.5334 0.889,0.5334 0.2794,0 0.635,-0.1778 0.3556,-0.1778 0.762,-0.5842 l 0.2032,0.3556 -4.3942,4.0132 q -0.5588,-0.4064 -0.9906,-0.7366 -0.4318,-0.3302 -0.762,-0.635 -0.5334,-0.508 -0.7874,-1.143 -0.254,-0.635 -0.254,-1.8542 l -4.8006,4.3688 q -0.254,-0.2286 -0.762,-0.6604 -0.4826,-0.4318 -1.0922,-0.889 -0.381,-0.2794 -0.762,-0.5334 -0.381,-0.2794 -0.7874,-0.508 -0.4572,-0.2794 -0.9398,-0.4826 -0.4572,-0.2032 -0.8636,-0.3048 v -0.4318 q 1.3462,0.0254 1.5748,-0.4318 0.2286,-0.4826 0.2286,-1.524 z" />
        <path
           id="path876"
           style="font-style:normal;font-variant:normal;font-weight:normal;font-stretch:normal;font-size:25.39999962px;font-family:'Fette classic UNZ Fraktur';-inkscape-font-specification:'Fette classic UNZ Fraktur';stroke-width:0.26458332px"
           d="m 90.134571,70.606218 q 0.4318,-1.778 2.159,-2.3368 1.7526,-0.5588 3.8354,-0.8382 v 0.3556 q -1.4986,0.3302 -1.8542,1.0414 -0.3556,0.6858 -0.3556,1.6002 v 11.3792 q 0,0.5588 0.1524,0.9398 0.1524,0.381 0.7366,0.4064 0.2286,0 0.5588,-0.0762 0.3302,-0.0762 0.762,-0.254 v 0.381 q -0.4572,0.2032 -1.0668,0.6096 -0.5842,0.381 -1.2192,0.8636 -0.381,0.3048 -0.7366,0.6096 -0.3556,0.3048 -0.6858,0.6096 l -0.1016,0.1016 q -0.1524,-0.1524 -0.3302,-0.3048 -0.1524,-0.1524 -0.3302,-0.3302 -0.635,-0.6096 -1.3208,-1.143 -0.6858,-0.5588 -1.397,-0.7874 v -0.4318 q 0.127,0.0508 0.254,0.0762 0.127,0.0254 0.2286,0.0254 0.4318,0 0.5588,-0.2794 0.127,-0.2794 0.1524,-0.6096 v -9.8298 q 0,-0.2794 -0.1524,-0.762 -0.127,-0.4826 -0.3556,-1.016 -0.2032,-0.4826 -0.4826,-0.9398 -0.254,-0.4572 -0.5334,-0.762 l -0.0762,-0.0762 0.2032,-0.4318 q 0.0254,0.0508 0.0508,0.0762 l 0.0508,0.0508 q 0.4064,0.4318 0.7112,0.9144 0.3048,0.4826 0.5842,1.1938 z" />
        <path
           id="path878"
           style="font-style:normal;font-variant:normal;font-weight:normal;font-stretch:normal;font-size:25.39999962px;font-family:'Fette classic UNZ Fraktur';-inkscape-font-specification:'Fette classic UNZ Fraktur';stroke-width:0.26458332px"
           d="m 101.71737,75.406818 3.2004,-3.0226 2.2098,3.4036 -2.6162,2.8194 -1.9812,-3.2004 -0.8128,0.5842 v 5.8166 q 0.0762,0.5842 0.4064,0.9398 0.3556,0.3556 0.9144,0.3556 0.4826,0 1.0922,-0.2794 0.635,-0.3048 1.397,-0.9906 l 0.2032,0.3556 -4.8006,4.0132 q -0.2794,-0.2286 -0.6604,-0.5334 -0.355603,-0.3048 -0.787403,-0.6604 -0.6604,-0.508 -1.4224,-0.9652 -0.762,-0.4572 -1.5494,-0.5842 -0.0508,0 -0.1016,0 -0.0254,-0.0254 -0.0762,-0.0254 v -0.4318 q 0.127,0.0254 0.2794,0.0254 0.1524,-0.0254 0.3302,-0.0762 0.3556,-0.0762 0.6604,-0.3302 0.3302,-0.254 0.3302,-0.7874 v -5.0292 q 0,-0.6858 -0.3048,-0.9906 -0.3048,-0.3048 -0.7112,-0.3048 h -0.1016 q -0.0254,0 -0.0762,0.0254 -0.2286,0.0254 -0.4572,0.1524 -0.2032,0.127 -0.3556,0.3302 l -0.2032,-0.4318 3.6068,-3.3782 q 0.889003,0.4572 1.625603,1.3208 0.7366,0.8382 0.762,1.8796 z" />
        <path
           id="path880"
           style="font-style:normal;font-variant:normal;font-weight:normal;font-stretch:normal;font-size:25.39999962px;font-family:'Fette classic UNZ Fraktur';-inkscape-font-specification:'Fette classic UNZ Fraktur';stroke-width:0.26458332px"
           d="m 107.34108,75.203618 -0.2032,-0.4064 q 0.3048,-0.127 0.635,-0.3048 0.3302,-0.2032 0.6604,-0.4318 0.6096,-0.4318 1.1938,-0.9398 0.6096,-0.508 1.1176,-1.0922 0.5842,0.7366 1.3462,1.4478 0.7874,0.6858 1.8542,1.143 v 0.381 h -0.2794 q -0.508,-0.0254 -0.7874,0.2794 -0.254,0.3048 -0.3302,0.6858 -0.0254,0.0508 -0.0254,0.127 v 5.8928 q 0,0.6096 0.2286,0.9906 0.2286,0.3556 0.5588,0.3556 0.2032,0 0.4064,-0.127 0.2032,-0.127 0.4064,-0.381 l 0.4064,0.1778 q -0.8128,0.6604 -1.3462,1.143 -0.5334,0.4826 -1.016,0.8636 -0.3048,0.254 -0.6096,0.4826 -0.2794,0.2286 -0.6604,0.4064 -0.0254,0.0254 -0.0762,0.0508 -0.0254,0.0254 -0.0762,0.0508 -1.1938,-0.7112 -1.4986,-1.4986 -0.3048,-0.7874 -0.3048,-1.6764 v -7.0358 q 0,-0.4826 -0.1778,-0.6604 -0.1524,-0.2032 -0.381,-0.2032 -0.1016,0 -0.2286,0.0254 -0.1016,0.0254 -0.2286,0.0508 -0.0508,0.0254 -0.127,0.0508 -0.0508,0.0254 -0.127,0.0508 -0.0762,0.0254 -0.1778,0.0762 -0.0762,0.0254 -0.1524,0.0508 z m 2.9972,-3.6068 q -0.8636,-0.635 -1.2446,-1.2954 -0.381,-0.6604 -0.381,-1.2192 0,-0.7366 0.5334,-1.1938 0.5588,-0.4572 1.4986,-0.4572 0.8128,0 1.2192,0.508 0.4318,0.4826 0.4572,1.143 0,0.1524 -0.0254,0.3048 -0.0254,0.1524 -0.0508,0.2794 -0.1778,0.5842 -0.6858,1.1176 -0.4826,0.5334 -1.3208,0.8382 z" />
        <path
           id="path882"
           style="font-style:normal;font-variant:normal;font-weight:normal;font-stretch:normal;font-size:25.39999962px;font-family:'Fette classic UNZ Fraktur';-inkscape-font-specification:'Fette classic UNZ Fraktur';stroke-width:0.26458332px"
           d="m 119.12708,73.603418 v 6.4008 q 0,1.143 0.8636,2.0574 0.889,0.9144 2.0828,0.9144 0.2794,0 0.5588,-0.0508 0.2794,-0.0508 0.5842,-0.1778 0.2794,-0.1016 0.5588,-0.2794 0.2794,-0.2032 0.5588,-0.4572 l 0.381,0.381 q -0.4318,0.254 -1.1176,0.6858 -0.6604,0.4064 -1.397,0.889 -0.1524,0.1016 -0.3302,0.2286 -0.1524,0.1016 -0.3048,0.2286 -0.635,0.4318 -1.1938,0.8636 -0.5334,0.4318 -0.8382,0.7112 -0.2286,-0.2032 -0.5334,-0.3556 -0.2794,-0.1524 -0.5842,-0.3302 l -0.3048,-0.1524 q -0.1524,-0.0762 -0.3048,-0.1778 -0.9398,-0.508 -1.7272,-1.3208 -0.762,-0.8382 -0.762,-2.6416 0,-0.4318 -0.0254,-0.8636 0,-0.4572 -0.0254,-0.9144 0,-0.1524 -0.0254,-0.3048 0,-0.1524 0,-0.3048 0,-0.1524 -0.0254,-0.3048 0,-0.1524 0,-0.3048 0,-1.1938 0.254,-2.2098 0.254,-1.0414 1.0668,-1.6002 l 5.588,-2.0066 2.0066,3.7846 -3.2004,1.6002 z" />
      </g>
    </g>
  </g>
</svg>
