<?xml version="1.0" standalone="no"?>
<!DOCTYPE svg PUBLIC "-//W3C//DTD SVG 1.1//EN" "http://www.w3.org/Graphics/SVG/1.1/DTD/svg11.dtd">
<svg width="44mm" height="44mm" viewBox="-22 -22 44 44" xmlns="http://www.w3.org/2000/svg" version="1.1">
<title>OpenSCAD Model</title>
<path d="
M 0.383072,21.9467 L 0.766037,21.9366 L 1.14877,21.9199 L 1.53114,21.8965 L 1.91306,21.8665 L 2.29439,21.8297
 L 2.67502,21.7864 L 3.05484,21.7364 L 3.43373,21.6797 L 3.81157,21.6165 L 4.18825,21.5467 L 4.56366,21.4703
 L 4.93767,21.3874 L 5.31018,21.298 L 5.68108,21.2021 L 6.05023,21.0997 L 6.41756,20.9909 L 6.78291,20.8757
 L 7.14621,20.7541 L 7.50734,20.6263 L 7.86617,20.4921 L 8.22261,20.3517 L 8.57654,20.2051 L 8.92786,20.0523
 L 9.27646,19.8934 L 9.62224,19.7285 L 9.96509,19.5576 L 10.3049,19.3807 L 10.6416,19.1979 L 10.975,19.0092
 L 11.3051,18.8148 L 11.6317,18.6147 L 11.9548,18.4088 L 12.2743,18.1974 L 12.59,17.9804 L 12.9019,17.7579
 L 13.2098,17.53 L 13.5138,17.2968 L 13.8136,17.0583 L 14.1092,16.8147 L 14.4005,16.5659 L 14.6874,16.312
 L 14.9699,16.0532 L 15.2477,15.7895 L 15.521,15.521 L 15.7895,15.2477 L 16.0532,14.9699 L 16.312,14.6874
 L 16.5659,14.4005 L 16.8147,14.1092 L 17.0583,13.8136 L 17.2968,13.5138 L 17.53,13.2098 L 17.7579,12.9019
 L 17.9804,12.59 L 18.1974,12.2743 L 18.4088,11.9548 L 18.6147,11.6317 L 18.8148,11.3051 L 19.0092,10.975
 L 19.1979,10.6416 L 19.3807,10.3049 L 19.5576,9.96509 L 19.7285,9.62224 L 19.8934,9.27646 L 20.0523,8.92786
 L 20.2051,8.57654 L 20.3517,8.22261 L 20.4921,7.86617 L 20.6263,7.50734 L 20.7541,7.14621 L 20.8757,6.78291
 L 20.9909,6.41756 L 21.0997,6.05023 L 21.2006,5.68642 L 21.267,5.38281 L 21.3069,5.08017 L 21.3202,4.77512
 L 21.3069,4.47038 L 21.267,4.16769 L 21.2009,3.86952 L 21.1091,3.57851 L 20.9924,3.29652 L 20.8514,3.02577
 L 20.6874,2.76836 L 20.5016,2.52617 L 20.2954,2.30119 L 20.0703,2.09489 L 19.8281,1.90904 L 19.5708,1.74515
 L 19.3,1.60416 L 18.9936,1.47726 L 12.4406,-0.907837 L 12.3797,-0.931824 L 12.2621,-0.989182 L 12.1511,-1.05852
 L 12.048,-1.13907 L 11.9539,-1.22997 L 11.8698,-1.33018 L 11.7966,-1.43864 L 11.7352,-1.55418 L 11.6862,-1.67549
 L 11.6501,-1.80127 L 11.6274,-1.93011 L 11.6183,-2.06064 L 11.6228,-2.19141 L 11.641,-2.32095 L 11.6727,-2.44792
 L 11.7175,-2.57086 L 11.7748,-2.68846 L 11.8441,-2.79942 L 11.9247,-2.90253 L 12.0156,-2.99664 L 12.1158,-3.08075
 L 12.2243,-3.15392 L 12.3398,-3.21533 L 12.4611,-3.26436 L 12.5869,-3.30042 L 12.7157,-3.32314 L 12.8463,-3.33226
 L 12.977,-3.3277 L 13.1066,-3.30948 L 13.2335,-3.27783 L 19.8734,-0.86293 L 20.357,-0.662628 L 20.7832,-0.442078
 L 20.8213,-0.420929 L 21.2266,-0.164093 L 21.2628,-0.139694 L 21.6441,0.151489 L 21.678,0.17894 L 21.9456,0.422943
 L 21.95,-0 L 21.9467,-0.383072 L 21.9366,-0.766037 L 21.9199,-1.14877 L 21.8965,-1.53114 L 21.8665,-1.91306
 L 21.8297,-2.29439 L 21.7864,-2.67502 L 21.7364,-3.05484 L 21.6797,-3.43373 L 21.6165,-3.81157 L 21.5467,-4.18825
 L 21.4703,-4.56366 L 21.3874,-4.93767 L 21.298,-5.31018 L 21.2021,-5.68108 L 21.0997,-6.05023 L 20.9909,-6.41756
 L 20.8757,-6.78291 L 20.7541,-7.14621 L 20.6263,-7.50734 L 20.4921,-7.86617 L 20.3517,-8.22261 L 20.2051,-8.57654
 L 20.0523,-8.92786 L 19.8934,-9.27646 L 19.7285,-9.62224 L 19.5576,-9.96509 L 19.3807,-10.3049 L 19.1979,-10.6416
 L 19.0092,-10.975 L 18.8148,-11.3051 L 18.6147,-11.6317 L 18.4088,-11.9548 L 18.1974,-12.2743 L 17.9804,-12.59
 L 17.7579,-12.9019 L 17.53,-13.2098 L 17.2968,-13.5138 L 17.0583,-13.8136 L 16.8147,-14.1092 L 16.5659,-14.4005
 L 16.312,-14.6874 L 16.0532,-14.9699 L 15.7895,-15.2477 L 15.521,-15.521 L 15.2477,-15.7895 L 14.9699,-16.0532
 L 14.6874,-16.312 L 14.4005,-16.5659 L 14.1092,-16.8147 L 13.8136,-17.0583 L 13.5138,-17.2968 L 13.2098,-17.53
 L 12.9019,-17.7579 L 12.59,-17.9804 L 12.2743,-18.1974 L 11.9548,-18.4088 L 11.6317,-18.6147 L 11.3051,-18.8148
 L 10.975,-19.0092 L 10.6416,-19.1979 L 10.3049,-19.3807 L 9.96509,-19.5576 L 9.62224,-19.7285 L 9.27646,-19.8934
 L 8.92786,-20.0523 L 8.57654,-20.2051 L 8.22261,-20.3517 L 7.86617,-20.4921 L 7.50734,-20.6263 L 7.14621,-20.7541
 L 6.78291,-20.8757 L 6.41756,-20.9909 L 6.05023,-21.0997 L 5.68108,-21.2021 L 5.31018,-21.298 L 4.93767,-21.3874
 L 4.56366,-21.4703 L 4.18825,-21.5467 L 3.81157,-21.6165 L 3.43373,-21.6797 L 3.05484,-21.7364 L 2.67502,-21.7864
 L 2.29439,-21.8297 L 1.91306,-21.8665 L 1.53114,-21.8965 L 1.14877,-21.9199 L 0.766037,-21.9366 L 0.383072,-21.9467
 L 0,-21.95 L -0.383072,-21.9467 L -0.766037,-21.9366 L -1.14877,-21.9199 L -1.53114,-21.8965 L -1.91306,-21.8665
 L -2.29439,-21.8297 L -2.67502,-21.7864 L -3.05484,-21.7364 L -3.43373,-21.6797 L -3.81157,-21.6165 L -4.18825,-21.5467
 L -4.56366,-21.4703 L -4.93767,-21.3874 L -5.31018,-21.298 L -5.68108,-21.2021 L -6.05023,-21.0997 L -6.41756,-20.9909
 L -6.78291,-20.8757 L -7.14621,-20.7541 L -7.50734,-20.6263 L -7.86617,-20.4921 L -8.22261,-20.3517 L -8.57654,-20.2051
 L -8.92786,-20.0523 L -9.27646,-19.8934 L -9.62224,-19.7285 L -9.96509,-19.5576 L -10.3049,-19.3807 L -10.6416,-19.1979
 L -10.975,-19.0092 L -11.3051,-18.8148 L -11.6317,-18.6147 L -11.9548,-18.4088 L -12.2743,-18.1974 L -12.59,-17.9804
 L -12.9019,-17.7579 L -13.2098,-17.53 L -13.5138,-17.2968 L -13.8136,-17.0583 L -14.1092,-16.8147 L -14.4005,-16.5659
 L -14.6874,-16.312 L -14.9699,-16.0532 L -15.2477,-15.7895 L -15.521,-15.521 L -15.7895,-15.2477 L -16.0532,-14.9699
 L -16.312,-14.6874 L -16.5659,-14.4005 L -16.8147,-14.1092 L -17.0583,-13.8136 L -17.2968,-13.5138 L -17.53,-13.2098
 L -17.7579,-12.9019 L -17.9804,-12.59 L -18.1974,-12.2743 L -18.4088,-11.9548 L -18.6147,-11.6317 L -18.8148,-11.3051
 L -19.0092,-10.975 L -19.1979,-10.6416 L -19.3807,-10.3049 L -19.5576,-9.96509 L -19.7285,-9.62224 L -19.8934,-9.27646
 L -20.0523,-8.92786 L -20.2051,-8.57654 L -20.3517,-8.22261 L -20.4921,-7.86617 L -20.6263,-7.50734 L -20.7541,-7.14621
 L -20.8757,-6.78291 L -20.9909,-6.41756 L -21.0997,-6.05023 L -21.2021,-5.68108 L -21.298,-5.31018 L -21.3874,-4.93767
 L -21.4703,-4.56366 L -21.5467,-4.18825 L -21.6165,-3.81157 L -21.6797,-3.43373 L -21.7364,-3.05484 L -21.7864,-2.67502
 L -21.8297,-2.29439 L -21.8665,-1.91306 L -21.8965,-1.53114 L -21.9199,-1.14877 L -21.9366,-0.766037 L -21.9467,-0.383072
 L -21.95,-0 L -21.9467,0.383072 L -21.9366,0.766037 L -21.9199,1.14877 L -21.8965,1.53114 L -21.8665,1.91306
 L -21.8297,2.29439 L -21.7864,2.67502 L -21.7364,3.05484 L -21.6797,3.43373 L -21.6165,3.81157 L -21.5467,4.18825
 L -21.4703,4.56366 L -21.3874,4.93767 L -21.298,5.31018 L -21.2021,5.68108 L -21.0997,6.05023 L -20.9909,6.41756
 L -20.8757,6.78291 L -20.7541,7.14621 L -20.6263,7.50734 L -20.4921,7.86617 L -20.3517,8.22261 L -20.2051,8.57654
 L -20.0523,8.92786 L -19.8934,9.27646 L -19.7285,9.62224 L -19.5576,9.96509 L -19.3807,10.3049 L -19.1979,10.6416
 L -19.0092,10.975 L -18.8148,11.3051 L -18.6147,11.6317 L -18.4088,11.9548 L -18.1974,12.2743 L -17.9804,12.59
 L -17.7579,12.9019 L -17.53,13.2098 L -17.2968,13.5138 L -17.0583,13.8136 L -16.8147,14.1092 L -16.5659,14.4005
 L -16.312,14.6874 L -16.0532,14.9699 L -15.7895,15.2477 L -15.521,15.521 L -15.2477,15.7895 L -14.9699,16.0532
 L -14.6874,16.312 L -14.4005,16.5659 L -14.1092,16.8147 L -13.8136,17.0583 L -13.5138,17.2968 L -13.2098,17.53
 L -12.9019,17.7579 L -12.59,17.9804 L -12.2743,18.1974 L -11.9548,18.4088 L -11.6317,18.6147 L -11.3051,18.8148
 L -10.975,19.0092 L -10.6416,19.1979 L -10.3049,19.3807 L -9.96509,19.5576 L -9.62224,19.7285 L -9.27646,19.8934
 L -8.92786,20.0523 L -8.57654,20.2051 L -8.22261,20.3517 L -7.86617,20.4921 L -7.50734,20.6263 L -7.14621,20.7541
 L -6.78291,20.8757 L -6.41756,20.9909 L -6.05023,21.0997 L -5.68108,21.2021 L -5.31018,21.298 L -4.93767,21.3874
 L -4.56366,21.4703 L -4.18825,21.5467 L -3.81157,21.6165 L -3.43373,21.6797 L -3.05484,21.7364 L -2.67502,21.7864
 L -2.29439,21.8297 L -1.91306,21.8665 L -1.53114,21.8965 L -1.14877,21.9199 L -0.766037,21.9366 L -0.383072,21.9467
 L 0,21.95 z
M -15.24,1.59999 L -15.24,-0 L 0,-0 L 0,1.59999 z
" stroke="black" fill="lightgray" stroke-width="0.5"/></svg>
