<?xml version="1.0" standalone="no"?>
<!DOCTYPE svg PUBLIC "-//W3C//DTD SVG 1.1//EN" "http://www.w3.org/Graphics/SVG/1.1/DTD/svg11.dtd">
<svg width="94mm" height="44mm" viewBox="-22 -22 94 44" xmlns="http://www.w3.org/2000/svg" version="1.1">
<title>OpenSCAD Model</title>
<path d="
M 0.383072,21.9467 L 0.766037,21.9366 L 1.14877,21.9199 L 1.53114,21.8965 L 1.91306,21.8665 L 2.29439,21.8297
 L 2.67502,21.7864 L 3.05484,21.7364 L 3.43373,21.6797 L 3.81157,21.6165 L 4.18825,21.5467 L 4.56366,21.4703
 L 4.93767,21.3874 L 5.31018,21.298 L 5.68108,21.2021 L 6.05023,21.0997 L 6.41756,20.9909 L 6.78291,20.8757
 L 7.14621,20.7541 L 7.50734,20.6263 L 7.86617,20.4921 L 8.22261,20.3517 L 8.57654,20.2051 L 8.92786,20.0523
 L 9.27646,19.8934 L 9.62224,19.7285 L 9.96509,19.5576 L 10.3049,19.3807 L 10.6416,19.1979 L 10.975,19.0092
 L 11.3051,18.8148 L 11.6317,18.6147 L 11.9548,18.4088 L 12.2743,18.1974 L 12.59,17.9804 L 12.9019,17.7579
 L 13.2098,17.53 L 13.5138,17.2968 L 13.8136,17.0583 L 14.1092,16.8147 L 14.4005,16.5659 L 14.6874,16.312
 L 14.9699,16.0532 L 15.2477,15.7895 L 15.521,15.521 L 15.7895,15.2477 L 16.0532,14.9699 L 16.312,14.6874
 L 16.5659,14.4005 L 16.8147,14.1092 L 17.0583,13.8136 L 17.2968,13.5138 L 17.53,13.2098 L 17.7579,12.9019
 L 17.9804,12.59 L 18.1974,12.2743 L 18.4088,11.9548 L 18.6147,11.6317 L 18.8148,11.3051 L 19.0092,10.975
 L 19.1979,10.6416 L 19.3807,10.3049 L 19.5576,9.96509 L 19.7285,9.62224 L 19.8934,9.27646 L 20.0523,8.92786
 L 20.2051,8.57654 L 20.3517,8.22261 L 20.4921,7.86617 L 20.6263,7.50734 L 20.7541,7.14621 L 20.8757,6.78291
 L 20.9909,6.41756 L 21.0997,6.05023 L 21.2021,5.68108 L 21.298,5.31018 L 21.3874,4.93767 L 21.4703,4.56366
 L 21.5467,4.18825 L 21.6165,3.81157 L 21.6797,3.43373 L 21.7364,3.05484 L 21.7676,2.81761 L 20.45,1.5
 L 11.95,1.5 L 11.95,-1.5 L 20.45,-1.5 L 21.7676,-2.81761 L 21.7364,-3.05484 L 21.6797,-3.43373
 L 21.6165,-3.81157 L 21.5467,-4.18825 L 21.4703,-4.56366 L 21.3874,-4.93767 L 21.298,-5.31018 L 21.2021,-5.68108
 L 21.0997,-6.05023 L 20.9909,-6.41756 L 20.8757,-6.78291 L 20.7541,-7.14621 L 20.6263,-7.50734 L 20.4921,-7.86617
 L 20.3517,-8.22261 L 20.2051,-8.57654 L 20.0523,-8.92786 L 19.8934,-9.27646 L 19.7285,-9.62224 L 19.5576,-9.96509
 L 19.3807,-10.3049 L 19.1979,-10.6416 L 19.0092,-10.975 L 18.8148,-11.3051 L 18.6147,-11.6317 L 18.4088,-11.9548
 L 18.1974,-12.2743 L 17.9804,-12.59 L 17.7579,-12.9019 L 17.53,-13.2098 L 17.2968,-13.5138 L 17.0583,-13.8136
 L 16.8147,-14.1092 L 16.5659,-14.4005 L 16.312,-14.6874 L 16.0532,-14.9699 L 15.7895,-15.2477 L 15.521,-15.521
 L 15.2477,-15.7895 L 14.9699,-16.0532 L 14.6874,-16.312 L 14.4005,-16.5659 L 14.1092,-16.8147 L 13.8136,-17.0583
 L 13.5138,-17.2968 L 13.2098,-17.53 L 12.9019,-17.7579 L 12.59,-17.9804 L 12.2743,-18.1974 L 11.9548,-18.4088
 L 11.6317,-18.6147 L 11.3051,-18.8148 L 10.975,-19.0092 L 10.6416,-19.1979 L 10.3049,-19.3807 L 9.96509,-19.5576
 L 9.62224,-19.7285 L 9.27646,-19.8934 L 8.92786,-20.0523 L 8.57654,-20.2051 L 8.22261,-20.3517 L 7.86617,-20.4921
 L 7.50734,-20.6263 L 7.14621,-20.7541 L 6.78291,-20.8757 L 6.41756,-20.9909 L 6.05023,-21.0997 L 5.68108,-21.2021
 L 5.31018,-21.298 L 4.93767,-21.3874 L 4.56366,-21.4703 L 4.18825,-21.5467 L 3.81157,-21.6165 L 3.43373,-21.6797
 L 3.05484,-21.7364 L 2.67502,-21.7864 L 2.29439,-21.8297 L 1.91306,-21.8665 L 1.53114,-21.8965 L 1.14877,-21.9199
 L 0.766037,-21.9366 L 0.383072,-21.9467 L 0,-21.95 L -0.383072,-21.9467 L -0.766037,-21.9366 L -1.14877,-21.9199
 L -1.53114,-21.8965 L -1.91306,-21.8665 L -2.29439,-21.8297 L -2.67502,-21.7864 L -3.05484,-21.7364 L -3.43373,-21.6797
 L -3.81157,-21.6165 L -4.18825,-21.5467 L -4.56366,-21.4703 L -4.93767,-21.3874 L -5.31018,-21.298 L -5.68108,-21.2021
 L -6.05023,-21.0997 L -6.41756,-20.9909 L -6.78291,-20.8757 L -7.14621,-20.7541 L -7.50734,-20.6263 L -7.86617,-20.4921
 L -8.22261,-20.3517 L -8.57654,-20.2051 L -8.92786,-20.0523 L -9.27646,-19.8934 L -9.62224,-19.7285 L -9.96509,-19.5576
 L -10.3049,-19.3807 L -10.6416,-19.1979 L -10.975,-19.0092 L -11.3051,-18.8148 L -11.6317,-18.6147 L -11.9548,-18.4088
 L -12.2743,-18.1974 L -12.59,-17.9804 L -12.9019,-17.7579 L -13.2098,-17.53 L -13.5138,-17.2968 L -13.8136,-17.0583
 L -14.1092,-16.8147 L -14.4005,-16.5659 L -14.6874,-16.312 L -14.9699,-16.0532 L -15.2477,-15.7895 L -15.521,-15.521
 L -15.7895,-15.2477 L -16.0532,-14.9699 L -16.312,-14.6874 L -16.5659,-14.4005 L -16.8147,-14.1092 L -17.0583,-13.8136
 L -17.2968,-13.5138 L -17.53,-13.2098 L -17.7579,-12.9019 L -17.9804,-12.59 L -18.1974,-12.2743 L -18.4088,-11.9548
 L -18.6147,-11.6317 L -18.8148,-11.3051 L -19.0092,-10.975 L -19.1979,-10.6416 L -19.3807,-10.3049 L -19.5576,-9.96509
 L -19.7285,-9.62224 L -19.8934,-9.27646 L -20.0523,-8.92786 L -20.2051,-8.57654 L -20.3517,-8.22261 L -20.4921,-7.86617
 L -20.6263,-7.50734 L -20.7541,-7.14621 L -20.8757,-6.78291 L -20.9909,-6.41756 L -21.0997,-6.05023 L -21.2021,-5.68108
 L -21.298,-5.31018 L -21.3874,-4.93767 L -21.4703,-4.56366 L -21.5467,-4.18825 L -21.6165,-3.81157 L -21.6797,-3.43373
 L -21.7364,-3.05484 L -21.7864,-2.67502 L -21.8297,-2.29439 L -21.8665,-1.91306 L -21.8965,-1.53114 L -21.9199,-1.14877
 L -21.9366,-0.766037 L -21.9467,-0.383072 L -21.95,-0 L -21.9467,0.383072 L -21.9366,0.766037 L -21.9199,1.14877
 L -21.8965,1.53114 L -21.8665,1.91306 L -21.8297,2.29439 L -21.7864,2.67502 L -21.7364,3.05484 L -21.6797,3.43373
 L -21.6165,3.81157 L -21.5467,4.18825 L -21.4703,4.56366 L -21.3874,4.93767 L -21.298,5.31018 L -21.2021,5.68108
 L -21.0997,6.05023 L -20.9909,6.41756 L -20.8757,6.78291 L -20.7541,7.14621 L -20.6263,7.50734 L -20.4921,7.86617
 L -20.3517,8.22261 L -20.2051,8.57654 L -20.0523,8.92786 L -19.8934,9.27646 L -19.7285,9.62224 L -19.5576,9.96509
 L -19.3807,10.3049 L -19.1979,10.6416 L -19.0092,10.975 L -18.8148,11.3051 L -18.6147,11.6317 L -18.4088,11.9548
 L -18.1974,12.2743 L -17.9804,12.59 L -17.7579,12.9019 L -17.53,13.2098 L -17.2968,13.5138 L -17.0583,13.8136
 L -16.8147,14.1092 L -16.5659,14.4005 L -16.312,14.6874 L -16.0532,14.9699 L -15.7895,15.2477 L -15.521,15.521
 L -15.2477,15.7895 L -14.9699,16.0532 L -14.6874,16.312 L -14.4005,16.5659 L -14.1092,16.8147 L -13.8136,17.0583
 L -13.5138,17.2968 L -13.2098,17.53 L -12.9019,17.7579 L -12.59,17.9804 L -12.2743,18.1974 L -11.9548,18.4088
 L -11.6317,18.6147 L -11.3051,18.8148 L -10.975,19.0092 L -10.6416,19.1979 L -10.3049,19.3807 L -9.96509,19.5576
 L -9.62224,19.7285 L -9.27646,19.8934 L -8.92786,20.0523 L -8.57654,20.2051 L -8.22261,20.3517 L -7.86617,20.4921
 L -7.50734,20.6263 L -7.14621,20.7541 L -6.78291,20.8757 L -6.41756,20.9909 L -6.05023,21.0997 L -5.68108,21.2021
 L -5.31018,21.298 L -4.93767,21.3874 L -4.56366,21.4703 L -4.18825,21.5467 L -3.81157,21.6165 L -3.43373,21.6797
 L -3.05484,21.7364 L -2.67502,21.7864 L -2.29439,21.8297 L -1.91306,21.8665 L -1.53114,21.8965 L -1.14877,21.9199
 L -0.766037,21.9366 L -0.383072,21.9467 L 0,21.95 z
M 3.73201,-17.5577 L 3.42502,-17.6202 L 3.11697,-17.6773 L 2.80798,-17.729 L 2.49815,-17.7753 L 2.18755,-17.8162
 L 1.87628,-17.8517 L 1.56444,-17.8817 L 1.25212,-17.9063 L 0.939423,-17.9254 L 0.626434,-17.9391 L 0.313263,-17.9473
 L 0,-17.95 L -0.313263,-17.9473 L -0.626434,-17.9391 L -0.939423,-17.9254 L -1.25212,-17.9063 L -1.56444,-17.8817
 L -1.87628,-17.8517 L -2.18755,-17.8162 L -2.49815,-17.7753 L -2.80798,-17.729 L -3.11697,-17.6773 L -3.42502,-17.6202
 L -3.73201,-17.5577 L -3.99998,-17.4983 L -3.99998,-19.5441 L -3.80663,-19.5835 L -3.46428,-19.6469 L -3.12086,-19.7044
 L -2.77649,-19.7558 L -2.43129,-19.8013 L -2.08534,-19.8407 L -1.73875,-19.8741 L -1.39163,-19.9014 L -1.0441,-19.9227
 L -0.696243,-19.9378 L -0.348175,-19.947 L 0,-19.95 L 0.348175,-19.947 L 0.696243,-19.9378 L 1.0441,-19.9227
 L 1.39163,-19.9014 L 1.73875,-19.8741 L 2.08534,-19.8407 L 2.43129,-19.8013 L 2.77649,-19.7558 L 3.12086,-19.7044
 L 3.46428,-19.6469 L 3.80663,-19.5835 L 4,-19.5441 L 4,-17.4983 z
M 17.5577,-3.73201 L 17.4899,-4.03786 L 17.4168,-4.34248 L 17.3384,-4.6458 L 17.2546,-4.94768 L 17.1657,-5.24806
 L 17.0715,-5.54684 L 16.972,-5.84395 L 16.8675,-6.13925 L 16.7578,-6.43269 L 16.6429,-6.72418 L 16.5231,-7.01361
 L 16.3981,-7.30092 L 16.2682,-7.58598 L 16.1333,-7.86876 L 15.9936,-8.14912 L 15.8489,-8.427 L 15.6994,-8.70233
 L 15.5452,-8.97499 L 15.3861,-9.24492 L 15.2225,-9.51204 L 15.0541,-9.77626 L 14.8812,-10.0375 L 14.7038,-10.2957
 L 14.5219,-10.5507 L 14.3586,-10.7714 L 16.2275,-11.6035 L 16.3421,-11.4428 L 16.5393,-11.1559 L 16.7315,-10.8655
 L 16.9185,-10.5719 L 17.1005,-10.275 L 17.2772,-9.97499 L 17.4487,-9.67195 L 17.6148,-9.36595 L 17.7756,-9.0571
 L 17.9309,-8.7455 L 18.0808,-8.43123 L 18.2252,-8.1144 L 18.3641,-7.79507 L 18.4973,-7.47339 L 18.6249,-7.14943
 L 18.7469,-6.82329 L 18.8631,-6.49507 L 18.9736,-6.16489 L 19.0783,-5.83281 L 19.1772,-5.49896 L 19.2702,-5.16344
 L 19.3574,-4.82634 L 19.4387,-4.48776 L 19.4814,-4.29512 L 17.6125,-3.46303 z
M -19.5441,3.99998 L -19.5835,3.80663 L -19.6469,3.46428 L -19.7044,3.12086 L -19.7558,2.77649 L -19.8013,2.43129
 L -19.8407,2.08534 L -19.8741,1.73875 L -19.9014,1.39163 L -19.9227,1.0441 L -19.9378,0.696243 L -19.947,0.348175
 L -19.95,-0 L -19.947,-0.348175 L -19.9378,-0.696243 L -19.9227,-1.0441 L -19.9014,-1.39163 L -19.8741,-1.73875
 L -19.8407,-2.08534 L -19.8013,-2.43129 L -19.7558,-2.77649 L -19.7044,-3.12086 L -19.6469,-3.46428 L -19.5835,-3.80663
 L -19.5441,-4 L -17.4983,-4 L -17.5577,-3.73201 L -17.6202,-3.42502 L -17.6773,-3.11697 L -17.729,-2.80798
 L -17.7753,-2.49815 L -17.8162,-2.18755 L -17.8517,-1.87628 L -17.8817,-1.56444 L -17.9063,-1.25212 L -17.9254,-0.939423
 L -17.9391,-0.626434 L -17.9473,-0.313263 L -17.95,-0 L -17.9473,0.313263 L -17.9391,0.626434 L -17.9254,0.939423
 L -17.9063,1.25212 L -17.8817,1.56444 L -17.8517,1.87628 L -17.8162,2.18755 L -17.7753,2.49815 L -17.729,2.80798
 L -17.6773,3.11697 L -17.6202,3.42502 L -17.5577,3.73201 L -17.4983,3.99998 z
M -15.24,1.59999 L -15.24,-0 L 0,-0 L 0,1.59999 z
M 14.3586,10.7714 L 14.5219,10.5507 L 14.7038,10.2957 L 14.8812,10.0375 L 15.0541,9.77626 L 15.2225,9.51204
 L 15.3861,9.24492 L 15.5452,8.97499 L 15.6994,8.70233 L 15.8489,8.427 L 15.9936,8.14912 L 16.1333,7.86876
 L 16.2682,7.58598 L 16.3981,7.30092 L 16.5231,7.01361 L 16.6429,6.72418 L 16.7578,6.43269 L 16.8675,6.13925
 L 16.972,5.84395 L 17.0715,5.54684 L 17.1657,5.24806 L 17.2546,4.94768 L 17.3384,4.6458 L 17.4168,4.34248
 L 17.4899,4.03786 L 17.5577,3.73201 L 17.6125,3.46303 L 19.4814,4.29512 L 19.4387,4.48776 L 19.3574,4.82634
 L 19.2702,5.16344 L 19.1772,5.49896 L 19.0783,5.83281 L 18.9736,6.16489 L 18.8631,6.49507 L 18.7469,6.82329
 L 18.6249,7.14943 L 18.4973,7.47339 L 18.3641,7.79507 L 18.2252,8.1144 L 18.0808,8.43123 L 17.9309,8.7455
 L 17.7756,9.0571 L 17.6148,9.36595 L 17.4487,9.67195 L 17.2772,9.97499 L 17.1005,10.275 L 16.9185,10.5719
 L 16.7315,10.8655 L 16.5393,11.1559 L 16.3421,11.4428 L 16.2275,11.6035 z
M -0.348175,19.947 L -0.696243,19.9378 L -1.0441,19.9227 L -1.39163,19.9014 L -1.73875,19.8741 L -2.08534,19.8407
 L -2.43129,19.8013 L -2.77649,19.7558 L -3.12086,19.7044 L -3.46428,19.6469 L -3.80663,19.5835 L -4,19.5441
 L -4,17.4983 L -3.73201,17.5577 L -3.42502,17.6202 L -3.11697,17.6773 L -2.80798,17.729 L -2.49815,17.7753
 L -2.18755,17.8162 L -1.87628,17.8517 L -1.56444,17.8817 L -1.25212,17.9063 L -0.939423,17.9254 L -0.626434,17.9391
 L -0.313263,17.9473 L 0,17.95 L 0.313263,17.9473 L 0.626434,17.9391 L 0.939423,17.9254 L 1.25212,17.9063
 L 1.56444,17.8817 L 1.87628,17.8517 L 2.18755,17.8162 L 2.49815,17.7753 L 2.80798,17.729 L 3.11697,17.6773
 L 3.42502,17.6202 L 3.73201,17.5577 L 3.99998,17.4983 L 3.99998,19.5441 L 3.80663,19.5835 L 3.46428,19.6469
 L 3.12086,19.7044 L 2.77649,19.7558 L 2.43129,19.8013 L 2.08534,19.8407 L 1.73875,19.8741 L 1.39163,19.9014
 L 1.0441,19.9227 L 0.696243,19.9378 L 0.348175,19.947 L 0,19.95 z
M 49.7706,21.9467 L 50.1535,21.9366 L 50.5363,21.9199 L 50.9186,21.8965 L 51.3006,21.8665 L 51.6819,21.8297
 L 52.0625,21.7864 L 52.4423,21.7364 L 52.8212,21.6797 L 53.1991,21.6165 L 53.5757,21.5467 L 53.9512,21.4703
 L 54.3252,21.3874 L 54.6977,21.298 L 55.0686,21.2021 L 55.4377,21.0997 L 55.8051,20.9909 L 56.1704,20.8757
 L 56.5337,20.7541 L 56.8948,20.6263 L 57.2537,20.4921 L 57.6101,20.3517 L 57.964,20.2051 L 58.3154,20.0523
 L 58.664,19.8934 L 59.0097,19.7285 L 59.3526,19.5576 L 59.6924,19.3807 L 60.0291,19.1979 L 60.3625,19.0092
 L 60.6926,18.8148 L 61.0192,18.6147 L 61.3423,18.4088 L 61.6618,18.1974 L 61.9775,17.9804 L 62.2894,17.7579
 L 62.5973,17.53 L 62.9013,17.2968 L 63.2011,17.0583 L 63.4967,16.8147 L 63.788,16.5659 L 64.0749,16.312
 L 64.3574,16.0532 L 64.6352,15.7895 L 64.9085,15.521 L 65.177,15.2477 L 65.4407,14.9699 L 65.6995,14.6874
 L 65.9534,14.4005 L 66.2022,14.1092 L 66.4458,13.8136 L 66.6843,13.5138 L 66.9175,13.2098 L 67.1454,12.9019
 L 67.3679,12.59 L 67.5849,12.2743 L 67.7963,11.9548 L 68.0022,11.6317 L 68.2023,11.3051 L 68.3967,10.975
 L 68.5854,10.6416 L 68.7682,10.3049 L 68.9451,9.96509 L 69.116,9.62224 L 69.2809,9.27646 L 69.4398,8.92786
 L 69.5926,8.57654 L 69.7392,8.22261 L 69.8796,7.86617 L 70.0137,7.50734 L 70.1416,7.14621 L 70.2632,6.78291
 L 70.3784,6.41756 L 70.4872,6.05023 L 70.5896,5.68108 L 70.6855,5.31018 L 70.7749,4.93767 L 70.8578,4.56366
 L 70.9342,4.18825 L 71.004,3.81157 L 71.0672,3.43373 L 71.1239,3.05484 L 71.1551,2.81761 L 69.8375,1.5
 L 61.3375,1.5 L 61.3375,-1.5 L 69.8375,-1.5 L 71.1551,-2.81761 L 71.1239,-3.05484 L 71.0672,-3.43373
 L 71.004,-3.81157 L 70.9342,-4.18825 L 70.8578,-4.56366 L 70.7749,-4.93767 L 70.6855,-5.31018 L 70.5896,-5.68108
 L 70.4872,-6.05023 L 70.3784,-6.41756 L 70.2632,-6.78291 L 70.1416,-7.14621 L 70.0137,-7.50734 L 69.8796,-7.86617
 L 69.7392,-8.22261 L 69.5926,-8.57654 L 69.4398,-8.92786 L 69.2809,-9.27646 L 69.116,-9.62224 L 68.9451,-9.96509
 L 68.7682,-10.3049 L 68.5854,-10.6416 L 68.3967,-10.975 L 68.2023,-11.3051 L 68.0022,-11.6317 L 67.7963,-11.9548
 L 67.5849,-12.2743 L 67.3679,-12.59 L 67.1454,-12.9019 L 66.9175,-13.2098 L 66.6843,-13.5138 L 66.4458,-13.8136
 L 66.2022,-14.1092 L 65.9534,-14.4005 L 65.6995,-14.6874 L 65.4407,-14.9699 L 65.177,-15.2477 L 64.9085,-15.521
 L 64.6352,-15.7895 L 64.3574,-16.0532 L 64.0749,-16.312 L 63.788,-16.5659 L 63.4967,-16.8147 L 63.2011,-17.0583
 L 62.9013,-17.2968 L 62.5973,-17.53 L 62.2894,-17.7579 L 61.9775,-17.9804 L 61.6618,-18.1974 L 61.3423,-18.4088
 L 61.0192,-18.6147 L 60.6926,-18.8148 L 60.3625,-19.0092 L 60.0291,-19.1979 L 59.6924,-19.3807 L 59.3526,-19.5576
 L 59.0097,-19.7285 L 58.664,-19.8934 L 58.3154,-20.0523 L 57.964,-20.2051 L 57.6101,-20.3517 L 57.2537,-20.4921
 L 56.8948,-20.6263 L 56.5337,-20.7541 L 56.1704,-20.8757 L 55.8051,-20.9909 L 55.4377,-21.0997 L 55.0686,-21.2021
 L 54.6977,-21.298 L 54.3252,-21.3874 L 53.9512,-21.4703 L 53.5757,-21.5467 L 53.1991,-21.6165 L 52.8212,-21.6797
 L 52.4423,-21.7364 L 52.0625,-21.7864 L 51.6819,-21.8297 L 51.3006,-21.8665 L 50.9186,-21.8965 L 50.5363,-21.9199
 L 50.1535,-21.9366 L 49.7706,-21.9467 L 49.3875,-21.95 L 49.0044,-21.9467 L 48.6215,-21.9366 L 48.2387,-21.9199
 L 47.8564,-21.8965 L 47.4744,-21.8665 L 47.0931,-21.8297 L 46.7125,-21.7864 L 46.3327,-21.7364 L 45.9538,-21.6797
 L 45.5759,-21.6165 L 45.1992,-21.5467 L 44.8238,-21.4703 L 44.4498,-21.3874 L 44.0773,-21.298 L 43.7064,-21.2021
 L 43.3373,-21.0997 L 42.9699,-20.9909 L 42.6046,-20.8757 L 42.2413,-20.7541 L 41.8802,-20.6263 L 41.5213,-20.4921
 L 41.1649,-20.3517 L 40.811,-20.2051 L 40.4596,-20.0523 L 40.111,-19.8934 L 39.7653,-19.7285 L 39.4224,-19.5576
 L 39.0826,-19.3807 L 38.7459,-19.1979 L 38.4125,-19.0092 L 38.0824,-18.8148 L 37.7558,-18.6147 L 37.4327,-18.4088
 L 37.1132,-18.1974 L 36.7975,-17.9804 L 36.4856,-17.7579 L 36.1777,-17.53 L 35.8737,-17.2968 L 35.5739,-17.0583
 L 35.2783,-16.8147 L 34.987,-16.5659 L 34.7001,-16.312 L 34.4176,-16.0532 L 34.1398,-15.7895 L 33.8665,-15.521
 L 33.598,-15.2477 L 33.3343,-14.9699 L 33.0755,-14.6874 L 32.8216,-14.4005 L 32.5728,-14.1092 L 32.3291,-13.8136
 L 32.0907,-13.5138 L 31.8575,-13.2098 L 31.6296,-12.9019 L 31.4071,-12.59 L 31.1901,-12.2743 L 30.9787,-11.9548
 L 30.7728,-11.6317 L 30.5727,-11.3051 L 30.3783,-10.975 L 30.1896,-10.6416 L 30.0068,-10.3049 L 29.8299,-9.96509
 L 29.659,-9.62224 L 29.494,-9.27646 L 29.3352,-8.92786 L 29.1824,-8.57654 L 29.0358,-8.22261 L 28.8954,-7.86617
 L 28.7612,-7.50734 L 28.6334,-7.14621 L 28.5118,-6.78291 L 28.3966,-6.41756 L 28.2878,-6.05023 L 28.1854,-5.68108
 L 28.0895,-5.31018 L 28.0001,-4.93767 L 27.9172,-4.56366 L 27.8408,-4.18825 L 27.771,-3.81157 L 27.7077,-3.43373
 L 27.6511,-3.05484 L 27.6011,-2.67502 L 27.5578,-2.29439 L 27.521,-1.91306 L 27.491,-1.53114 L 27.4676,-1.14877
 L 27.4509,-0.766037 L 27.4408,-0.383072 L 27.4375,-0 L 27.4408,0.383072 L 27.4509,0.766037 L 27.4676,1.14877
 L 27.491,1.53114 L 27.521,1.91306 L 27.5578,2.29439 L 27.6011,2.67502 L 27.6511,3.05484 L 27.7077,3.43373
 L 27.771,3.81157 L 27.8408,4.18825 L 27.9172,4.56366 L 28.0001,4.93767 L 28.0895,5.31018 L 28.1854,5.68108
 L 28.2878,6.05023 L 28.3966,6.41756 L 28.5118,6.78291 L 28.6334,7.14621 L 28.7612,7.50734 L 28.8954,7.86617
 L 29.0358,8.22261 L 29.1824,8.57654 L 29.3352,8.92786 L 29.494,9.27646 L 29.659,9.62224 L 29.8299,9.96509
 L 30.0068,10.3049 L 30.1896,10.6416 L 30.3783,10.975 L 30.5727,11.3051 L 30.7728,11.6317 L 30.9787,11.9548
 L 31.1901,12.2743 L 31.4071,12.59 L 31.6296,12.9019 L 31.8575,13.2098 L 32.0907,13.5138 L 32.3291,13.8136
 L 32.5728,14.1092 L 32.8216,14.4005 L 33.0755,14.6874 L 33.3343,14.9699 L 33.598,15.2477 L 33.8665,15.521
 L 34.1398,15.7895 L 34.4176,16.0532 L 34.7001,16.312 L 34.987,16.5659 L 35.2783,16.8147 L 35.5739,17.0583
 L 35.8737,17.2968 L 36.1777,17.53 L 36.4856,17.7579 L 36.7975,17.9804 L 37.1132,18.1974 L 37.4327,18.4088
 L 37.7558,18.6147 L 38.0824,18.8148 L 38.4125,19.0092 L 38.7459,19.1979 L 39.0826,19.3807 L 39.4224,19.5576
 L 39.7653,19.7285 L 40.111,19.8934 L 40.4596,20.0523 L 40.811,20.2051 L 41.1649,20.3517 L 41.5213,20.4921
 L 41.8802,20.6263 L 42.2413,20.7541 L 42.6046,20.8757 L 42.9699,20.9909 L 43.3373,21.0997 L 43.7064,21.2021
 L 44.0773,21.298 L 44.4498,21.3874 L 44.8238,21.4703 L 45.1992,21.5467 L 45.5759,21.6165 L 45.9538,21.6797
 L 46.3327,21.7364 L 46.7125,21.7864 L 47.0931,21.8297 L 47.4744,21.8665 L 47.8564,21.8965 L 48.2387,21.9199
 L 48.6215,21.9366 L 49.0044,21.9467 L 49.3875,21.95 z
M 34.1475,1.59999 L 34.1475,-0 L 49.3875,-0 L 49.3875,1.59999 z
" stroke="black" fill="lightgray" stroke-width="0.5"/></svg>
