<?xml version="1.0" standalone="no"?>
<!DOCTYPE svg PUBLIC "-//W3C//DTD SVG 1.1//EN" "http://www.w3.org/Graphics/SVG/1.1/DTD/svg11.dtd">
<svg width="44mm" height="44mm" viewBox="-22 -22 44 44" xmlns="http://www.w3.org/2000/svg" version="1.1">
<title>OpenSCAD Model</title>
<path d="
M 0.383072,21.9467 L 0.766037,21.9366 L 1.14877,21.9199 L 1.53114,21.8965 L 1.91306,21.8665 L 2.29439,21.8297
 L 2.67502,21.7864 L 3.05484,21.7364 L 3.43373,21.6797 L 3.81157,21.6165 L 4.18825,21.5467 L 4.56366,21.4703
 L 4.93767,21.3874 L 5.31018,21.298 L 5.68108,21.2021 L 6.05023,21.0997 L 6.41756,20.9909 L 6.78291,20.8757
 L 7.14621,20.7541 L 7.50734,20.6263 L 7.86617,20.4921 L 8.22261,20.3517 L 8.57654,20.2051 L 8.92786,20.0523
 L 9.27646,19.8934 L 9.62224,19.7285 L 9.96509,19.5576 L 10.3049,19.3807 L 10.6416,19.1979 L 10.975,19.0092
 L 11.3051,18.8148 L 11.6317,18.6147 L 11.9548,18.4088 L 12.2743,18.1974 L 12.59,17.9804 L 12.9019,17.7579
 L 13.2098,17.53 L 13.5138,17.2968 L 13.8136,17.0583 L 14.1092,16.8147 L 14.4005,16.5659 L 14.6874,16.312
 L 14.9699,16.0532 L 15.2477,15.7895 L 15.521,15.521 L 15.7895,15.2477 L 16.0532,14.9699 L 16.312,14.6874
 L 16.5659,14.4005 L 16.8147,14.1092 L 17.0583,13.8136 L 17.2968,13.5138 L 17.53,13.2098 L 17.7579,12.9019
 L 17.9804,12.59 L 18.1974,12.2743 L 18.4088,11.9548 L 18.6147,11.6317 L 18.8148,11.3051 L 19.0092,10.975
 L 19.1979,10.6416 L 19.3807,10.3049 L 19.5576,9.96509 L 19.7285,9.62224 L 19.8934,9.27646 L 20.0523,8.92786
 L 20.2051,8.57654 L 20.3517,8.22261 L 20.4921,7.86617 L 20.6263,7.50734 L 20.7541,7.14621 L 20.8757,6.78291
 L 20.9909,6.41756 L 21.0997,6.05023 L 21.2006,5.68642 L 21.267,5.38281 L 21.3069,5.08017 L 21.3202,4.77512
 L 21.3069,4.47038 L 21.267,4.16769 L 21.2009,3.86952 L 21.1091,3.57851 L 20.9924,3.29652 L 20.8514,3.02577
 L 20.6874,2.76836 L 20.5016,2.52617 L 20.2954,2.30119 L 20.0703,2.09489 L 19.8281,1.90904 L 19.5708,1.74515
 L 19.3,1.60416 L 18.9936,1.47728 L 5.8627,-3.30197 L 5.80182,-3.32596 L 5.68422,-3.38332 L 5.57326,-3.45265
 L 5.47015,-3.5332 L 5.37604,-3.6241 L 5.29193,-3.72433 L 5.21877,-3.83279 L 5.15735,-3.94833 L 5.10832,-4.06964
 L 5.07227,-4.1954 L 5.04955,-4.32426 L 5.04042,-4.45477 L 5.04498,-4.58553 L 5.0632,-4.7151 L 5.09485,-4.84206
 L 5.13959,-4.96501 L 5.19695,-5.08261 L 5.26628,-5.19357 L 5.34685,-5.29666 L 5.43773,-5.39079 L 5.53796,-5.4749
 L 5.64644,-5.54805 L 5.76196,-5.60948 L 5.88327,-5.65849 L 6.00903,-5.69456 L 6.13789,-5.71729 L 6.26842,-5.72639
 L 6.39917,-5.72183 L 6.52875,-5.70363 L 6.65569,-5.67198 L 19.8734,-0.86293 L 20.357,-0.662628 L 20.7832,-0.442078
 L 20.8213,-0.420929 L 21.2266,-0.164093 L 21.2628,-0.139694 L 21.6441,0.151489 L 21.678,0.17894 L 21.9456,0.422943
 L 21.95,-0 L 21.9467,-0.383072 L 21.9366,-0.766037 L 21.9199,-1.14877 L 21.8965,-1.53114 L 21.8665,-1.91306
 L 21.8297,-2.29439 L 21.7864,-2.67502 L 21.7364,-3.05484 L 21.6797,-3.43373 L 21.6165,-3.81157 L 21.5467,-4.18825
 L 21.4703,-4.56366 L 21.3874,-4.93767 L 21.298,-5.31018 L 21.2021,-5.68108 L 21.0997,-6.05023 L 20.9909,-6.41756
 L 20.8757,-6.78291 L 20.7541,-7.14621 L 20.6263,-7.50734 L 20.4921,-7.86617 L 20.3517,-8.22261 L 20.2051,-8.57654
 L 20.0523,-8.92786 L 19.8934,-9.27646 L 19.7285,-9.62224 L 19.5576,-9.96509 L 19.3807,-10.3049 L 19.1979,-10.6416
 L 19.0092,-10.975 L 18.8148,-11.3051 L 18.6147,-11.6317 L 18.4088,-11.9548 L 18.1974,-12.2743 L 17.9804,-12.59
 L 17.7579,-12.9019 L 17.53,-13.2098 L 17.2968,-13.5138 L 17.0583,-13.8136 L 16.8147,-14.1092 L 16.5659,-14.4005
 L 16.312,-14.6874 L 16.0532,-14.9699 L 15.7895,-15.2477 L 15.521,-15.521 L 15.2477,-15.7895 L 14.9699,-16.0532
 L 14.6874,-16.312 L 14.4005,-16.5659 L 14.1092,-16.8147 L 13.8136,-17.0583 L 13.5138,-17.2968 L 13.2098,-17.53
 L 12.9019,-17.7579 L 12.59,-17.9804 L 12.2743,-18.1974 L 11.9548,-18.4088 L 11.6317,-18.6147 L 11.3051,-18.8148
 L 10.975,-19.0092 L 10.6416,-19.1979 L 10.3049,-19.3807 L 9.96509,-19.5576 L 9.62224,-19.7285 L 9.27646,-19.8934
 L 8.92786,-20.0523 L 8.57654,-20.2051 L 8.22261,-20.3517 L 7.86617,-20.4921 L 7.50734,-20.6263 L 7.14621,-20.7541
 L 6.78291,-20.8757 L 6.41756,-20.9909 L 6.05023,-21.0997 L 5.68108,-21.2021 L 5.31018,-21.298 L 4.93767,-21.3874
 L 4.56366,-21.4703 L 4.18825,-21.5467 L 3.81157,-21.6165 L 3.43373,-21.6797 L 3.05484,-21.7364 L 2.67502,-21.7864
 L 2.29439,-21.8297 L 1.91306,-21.8665 L 1.53114,-21.8965 L 1.14877,-21.9199 L 0.766037,-21.9366 L 0.383072,-21.9467
 L 0,-21.95 L -0.383072,-21.9467 L -0.766037,-21.9366 L -1.14877,-21.9199 L -1.53114,-21.8965 L -1.91306,-21.8665
 L -2.29439,-21.8297 L -2.67502,-21.7864 L -3.05484,-21.7364 L -3.43373,-21.6797 L -3.81157,-21.6165 L -4.18825,-21.5467
 L -4.56366,-21.4703 L -4.93767,-21.3874 L -5.31018,-21.298 L -5.68108,-21.2021 L -6.05023,-21.0997 L -6.41756,-20.9909
 L -6.78291,-20.8757 L -7.14621,-20.7541 L -7.50734,-20.6263 L -7.86617,-20.4921 L -8.22261,-20.3517 L -8.57654,-20.2051
 L -8.92786,-20.0523 L -9.27646,-19.8934 L -9.62224,-19.7285 L -9.96509,-19.5576 L -10.3049,-19.3807 L -10.6416,-19.1979
 L -10.975,-19.0092 L -11.3051,-18.8148 L -11.6317,-18.6147 L -11.9548,-18.4088 L -12.2743,-18.1974 L -12.59,-17.9804
 L -12.9019,-17.7579 L -13.2098,-17.53 L -13.5138,-17.2968 L -13.8136,-17.0583 L -14.1092,-16.8147 L -14.4005,-16.5659
 L -14.6874,-16.312 L -14.9699,-16.0532 L -15.2477,-15.7895 L -15.521,-15.521 L -15.7895,-15.2477 L -16.0532,-14.9699
 L -16.312,-14.6874 L -16.5659,-14.4005 L -16.8147,-14.1092 L -17.0583,-13.8136 L -17.2968,-13.5138 L -17.53,-13.2098
 L -17.7579,-12.9019 L -17.9804,-12.59 L -18.1974,-12.2743 L -18.4088,-11.9548 L -18.6147,-11.6317 L -18.8148,-11.3051
 L -19.0092,-10.975 L -19.1979,-10.6416 L -19.3807,-10.3049 L -19.5576,-9.96509 L -19.7285,-9.62224 L -19.8934,-9.27646
 L -20.0523,-8.92786 L -20.2051,-8.57654 L -20.3517,-8.22261 L -20.4921,-7.86617 L -20.6263,-7.50734 L -20.7541,-7.14621
 L -20.8757,-6.78291 L -20.9909,-6.41756 L -21.0997,-6.05023 L -21.2021,-5.68108 L -21.298,-5.31018 L -21.3874,-4.93767
 L -21.4703,-4.56366 L -21.5467,-4.18825 L -21.6165,-3.81157 L -21.6797,-3.43373 L -21.7364,-3.05484 L -21.7864,-2.67502
 L -21.8297,-2.29439 L -21.8665,-1.91306 L -21.8965,-1.53114 L -21.9199,-1.14877 L -21.9366,-0.766037 L -21.9467,-0.383072
 L -21.95,-0 L -21.9467,0.383072 L -21.9366,0.766037 L -21.9199,1.14877 L -21.8965,1.53114 L -21.8665,1.91306
 L -21.8297,2.29439 L -21.7864,2.67502 L -21.7364,3.05484 L -21.6797,3.43373 L -21.6165,3.81157 L -21.5467,4.18825
 L -21.4703,4.56366 L -21.3874,4.93767 L -21.298,5.31018 L -21.2021,5.68108 L -21.0997,6.05023 L -20.9909,6.41756
 L -20.8757,6.78291 L -20.7541,7.14621 L -20.6263,7.50734 L -20.4921,7.86617 L -20.3517,8.22261 L -20.2051,8.57654
 L -20.0523,8.92786 L -19.8934,9.27646 L -19.7285,9.62224 L -19.5576,9.96509 L -19.3807,10.3049 L -19.1979,10.6416
 L -19.0092,10.975 L -18.8148,11.3051 L -18.6147,11.6317 L -18.4088,11.9548 L -18.1974,12.2743 L -17.9804,12.59
 L -17.7579,12.9019 L -17.53,13.2098 L -17.2968,13.5138 L -17.0583,13.8136 L -16.8147,14.1092 L -16.5659,14.4005
 L -16.312,14.6874 L -16.0532,14.9699 L -15.7895,15.2477 L -15.521,15.521 L -15.2477,15.7895 L -14.9699,16.0532
 L -14.6874,16.312 L -14.4005,16.5659 L -14.1092,16.8147 L -13.8136,17.0583 L -13.5138,17.2968 L -13.2098,17.53
 L -12.9019,17.7579 L -12.59,17.9804 L -12.2743,18.1974 L -11.9548,18.4088 L -11.6317,18.6147 L -11.3051,18.8148
 L -10.975,19.0092 L -10.6416,19.1979 L -10.3049,19.3807 L -9.96509,19.5576 L -9.62224,19.7285 L -9.27646,19.8934
 L -8.92786,20.0523 L -8.57654,20.2051 L -8.22261,20.3517 L -7.86617,20.4921 L -7.50734,20.6263 L -7.14621,20.7541
 L -6.78291,20.8757 L -6.41756,20.9909 L -6.05023,21.0997 L -5.68108,21.2021 L -5.31018,21.298 L -4.93767,21.3874
 L -4.56366,21.4703 L -4.18825,21.5467 L -3.81157,21.6165 L -3.43373,21.6797 L -3.05484,21.7364 L -2.67502,21.7864
 L -2.29439,21.8297 L -1.91306,21.8665 L -1.53114,21.8965 L -1.14877,21.9199 L -0.766037,21.9366 L -0.383072,21.9467
 L 0,21.95 z
M 3.73201,-17.5577 L 3.42502,-17.6202 L 3.11697,-17.6773 L 2.80798,-17.729 L 2.49815,-17.7753 L 2.18755,-17.8162
 L 1.87628,-17.8517 L 1.56444,-17.8817 L 1.25212,-17.9063 L 0.939423,-17.9254 L 0.626434,-17.9391 L 0.313263,-17.9473
 L 0,-17.95 L -0.313263,-17.9473 L -0.626434,-17.9391 L -0.939423,-17.9254 L -1.25212,-17.9063 L -1.56444,-17.8817
 L -1.87628,-17.8517 L -2.18755,-17.8162 L -2.49815,-17.7753 L -2.80798,-17.729 L -3.11697,-17.6773 L -3.42502,-17.6202
 L -3.73201,-17.5577 L -3.99998,-17.4983 L -3.99998,-19.5441 L -3.80663,-19.5835 L -3.46428,-19.6469 L -3.12086,-19.7044
 L -2.77649,-19.7558 L -2.43129,-19.8013 L -2.08534,-19.8407 L -1.73875,-19.8741 L -1.39163,-19.9014 L -1.0441,-19.9227
 L -0.696243,-19.9378 L -0.348175,-19.947 L 0,-19.95 L 0.348175,-19.947 L 0.696243,-19.9378 L 1.0441,-19.9227
 L 1.39163,-19.9014 L 1.73875,-19.8741 L 2.08534,-19.8407 L 2.43129,-19.8013 L 2.77649,-19.7558 L 3.12086,-19.7044
 L 3.46428,-19.6469 L 3.80663,-19.5835 L 4,-19.5441 L 4,-17.4983 z
M 17.6202,-3.42502 L 17.5577,-3.73201 L 17.4899,-4.03786 L 17.4168,-4.34248 L 17.3384,-4.6458 L 17.2546,-4.94768
 L 17.1657,-5.24806 L 17.0715,-5.54684 L 16.972,-5.84395 L 16.8675,-6.13925 L 16.7578,-6.43269 L 16.6429,-6.72418
 L 16.5231,-7.01361 L 16.3981,-7.30092 L 16.2682,-7.58598 L 16.1333,-7.86876 L 15.9936,-8.14912 L 15.8489,-8.427
 L 15.6994,-8.70233 L 15.5452,-8.97499 L 15.3861,-9.24492 L 15.2225,-9.51204 L 15.0541,-9.77626 L 14.8812,-10.0375
 L 14.7038,-10.2957 L 14.5444,-10.5191 L 16.4275,-11.3185 L 16.5393,-11.1559 L 16.7315,-10.8655 L 16.9185,-10.5719
 L 17.1005,-10.275 L 17.2772,-9.97499 L 17.4487,-9.67195 L 17.6148,-9.36595 L 17.7756,-9.0571 L 17.9309,-8.7455
 L 18.0808,-8.43123 L 18.2252,-8.1144 L 18.3641,-7.79507 L 18.4973,-7.47339 L 18.6249,-7.14943 L 18.7469,-6.82329
 L 18.8631,-6.49507 L 18.9736,-6.16489 L 19.0783,-5.83281 L 19.1772,-5.49896 L 19.2702,-5.16344 L 19.3574,-4.82634
 L 19.4387,-4.48776 L 19.514,-4.14783 L 19.5534,-3.95447 L 17.6702,-3.15512 z
M -19.5441,3.99998 L -19.5835,3.80663 L -19.6469,3.46428 L -19.7044,3.12086 L -19.7558,2.77649 L -19.8013,2.43129
 L -19.8407,2.08534 L -19.8741,1.73875 L -19.9014,1.39163 L -19.9227,1.0441 L -19.9378,0.696243 L -19.947,0.348175
 L -19.95,-0 L -19.947,-0.348175 L -19.9378,-0.696243 L -19.9227,-1.0441 L -19.9014,-1.39163 L -19.8741,-1.73875
 L -19.8407,-2.08534 L -19.8013,-2.43129 L -19.7558,-2.77649 L -19.7044,-3.12086 L -19.6469,-3.46428 L -19.5835,-3.80663
 L -19.5441,-4 L -17.4983,-4 L -17.5577,-3.73201 L -17.6202,-3.42502 L -17.6773,-3.11697 L -17.729,-2.80798
 L -17.7753,-2.49815 L -17.8162,-2.18755 L -17.8517,-1.87628 L -17.8817,-1.56444 L -17.9063,-1.25212 L -17.9254,-0.939423
 L -17.9391,-0.626434 L -17.9473,-0.313263 L -17.95,-0 L -17.9473,0.313263 L -17.9391,0.626434 L -17.9254,0.939423
 L -17.9063,1.25212 L -17.8817,1.56444 L -17.8517,1.87628 L -17.8162,2.18755 L -17.7753,2.49815 L -17.729,2.80798
 L -17.6773,3.11697 L -17.6202,3.42502 L -17.5577,3.73201 L -17.4983,3.99998 z
M -15.24,1.59999 L -15.24,-0 L 0,-0 L 0,1.59999 z
M 14.5444,10.5191 L 14.7038,10.2957 L 14.8812,10.0375 L 15.0541,9.77626 L 15.2225,9.51204 L 15.3861,9.24492
 L 15.5452,8.97499 L 15.6994,8.70233 L 15.8489,8.427 L 15.9936,8.14912 L 16.1333,7.86876 L 16.2682,7.58598
 L 16.3981,7.30092 L 16.5231,7.01361 L 16.6429,6.72418 L 16.7578,6.43269 L 16.8675,6.13925 L 16.972,5.84395
 L 17.0715,5.54684 L 17.1657,5.24806 L 17.2546,4.94768 L 17.3384,4.6458 L 17.4168,4.34248 L 17.4899,4.03786
 L 17.5577,3.73201 L 17.6202,3.42502 L 17.6702,3.15512 L 19.5534,3.95447 L 19.514,4.14783 L 19.4387,4.48776
 L 19.3574,4.82634 L 19.2702,5.16344 L 19.1772,5.49896 L 19.0783,5.83281 L 18.9736,6.16489 L 18.8631,6.49507
 L 18.7469,6.82329 L 18.6249,7.14943 L 18.4973,7.47339 L 18.3641,7.79507 L 18.2252,8.1144 L 18.0808,8.43123
 L 17.9309,8.7455 L 17.7756,9.0571 L 17.6148,9.36595 L 17.4487,9.67195 L 17.2772,9.97499 L 17.1005,10.275
 L 16.9185,10.5719 L 16.7315,10.8655 L 16.5393,11.1559 L 16.4275,11.3185 z
M -0.348175,19.947 L -0.696243,19.9378 L -1.0441,19.9227 L -1.39163,19.9014 L -1.73875,19.8741 L -2.08534,19.8407
 L -2.43129,19.8013 L -2.77649,19.7558 L -3.12086,19.7044 L -3.46428,19.6469 L -3.80663,19.5835 L -4,19.5441
 L -4,17.4983 L -3.73201,17.5577 L -3.42502,17.6202 L -3.11697,17.6773 L -2.80798,17.729 L -2.49815,17.7753
 L -2.18755,17.8162 L -1.87628,17.8517 L -1.56444,17.8817 L -1.25212,17.9063 L -0.939423,17.9254 L -0.626434,17.9391
 L -0.313263,17.9473 L 0,17.95 L 0.313263,17.9473 L 0.626434,17.9391 L 0.939423,17.9254 L 1.25212,17.9063
 L 1.56444,17.8817 L 1.87628,17.8517 L 2.18755,17.8162 L 2.49815,17.7753 L 2.80798,17.729 L 3.11697,17.6773
 L 3.42502,17.6202 L 3.73201,17.5577 L 3.99998,17.4983 L 3.99998,19.5441 L 3.80663,19.5835 L 3.46428,19.6469
 L 3.12086,19.7044 L 2.77649,19.7558 L 2.43129,19.8013 L 2.08534,19.8407 L 1.73875,19.8741 L 1.39163,19.9014
 L 1.0441,19.9227 L 0.696243,19.9378 L 0.348175,19.947 L 0,19.95 z
" stroke="black" fill="lightgray" stroke-width="0.5"/></svg>
