<?xml version="1.0" standalone="no"?>
<!DOCTYPE svg PUBLIC "-//W3C//DTD SVG 1.1//EN" "http://www.w3.org/Graphics/SVG/1.1/DTD/svg11.dtd">
<svg width="116mm" height="116mm" viewBox="-58 -58 116 116" xmlns="http://www.w3.org/2000/svg" version="1.1">
<title>OpenSCAD Model</title>
<path d="
M 4.98094,56.9325 L 9.92398,56.2818 L 14.7915,55.2027 L 19.5464,53.7034 L 24.1526,51.7955 L 28.575,49.4933
 L 32.7799,46.8145 L 36.7353,43.7794 L 40.4111,40.4111 L 43.7794,36.7353 L 46.8145,32.7799 L 49.4933,28.575
 L 51.7955,24.1526 L 53.7034,19.5464 L 55.2027,14.7915 L 56.2818,9.92398 L 56.9325,4.98094 L 57.15,-0
 L 56.9325,-4.98094 L 56.2818,-9.92398 L 55.2027,-14.7915 L 53.7034,-19.5464 L 51.7955,-24.1526 L 49.4933,-28.575
 L 46.8145,-32.7799 L 43.7794,-36.7353 L 40.4111,-40.4111 L 36.7353,-43.7794 L 32.7799,-46.8145 L 28.575,-49.4933
 L 24.1526,-51.7955 L 19.5464,-53.7034 L 14.7915,-55.2027 L 9.92398,-56.2818 L 4.98094,-56.9325 L 0,-57.15
 L -4.98094,-56.9325 L -9.92398,-56.2818 L -14.7915,-55.2027 L -19.5464,-53.7034 L -24.1526,-51.7955 L -28.575,-49.4933
 L -32.7799,-46.8145 L -36.7353,-43.7794 L -40.4111,-40.4111 L -43.7794,-36.7353 L -46.8145,-32.7799 L -49.4933,-28.575
 L -51.7955,-24.1526 L -53.7034,-19.5464 L -55.2027,-14.7915 L -56.2818,-9.92398 L -56.9325,-4.98094 L -57.15,-0
 L -56.9325,4.98094 L -56.2818,9.92398 L -55.2027,14.7915 L -53.7034,19.5464 L -51.7955,24.1526 L -49.4933,28.575
 L -46.8145,32.7799 L -43.7794,36.7353 L -40.4111,40.4111 L -36.7353,43.7794 L -32.7799,46.8145 L -28.575,49.4933
 L -24.1526,51.7955 L -19.5464,53.7034 L -14.7915,55.2027 L -9.92398,56.2818 L -4.98094,56.9325 L 0,57.15
 z
M -0.276718,49.5179 L -0.551331,49.4818 L -0.821747,49.4218 L -1.08591,49.3385 L -1.34181,49.2325 L -1.58749,49.1046
 L -1.82109,48.9558 L -2.04085,48.7872 L -2.24506,48.6001 L -2.43219,48.3958 L -2.6008,48.1761 L -2.74962,47.9425
 L -2.87752,47.6968 L -2.98352,47.4409 L -3.0668,47.1767 L -3.12675,46.9063 L -3.16292,46.6317 L -3.17499,46.355
 L -3.16292,46.0783 L -3.12675,45.8037 L -3.10725,45.7157 L -38.0373,25.5488 L -38.1037,25.6097 L -38.3235,25.7783
 L -38.5571,25.9271 L -38.8028,26.055 L -39.0587,26.161 L -39.3228,26.2443 L -39.5933,26.3043 L -39.8679,26.3404
 L -40.1446,26.3525 L -40.4213,26.3404 L -40.6959,26.3043 L -40.9664,26.2443 L -41.2305,26.161 L -41.4864,26.055
 L -41.7321,25.9271 L -41.9657,25.7783 L -42.1855,25.6097 L -42.3897,25.4226 L -42.5768,25.2183 L -42.7454,24.9986
 L -42.8942,24.765 L -43.0221,24.5193 L -43.1281,24.2634 L -43.2114,23.9992 L -43.2714,23.7288 L -43.3075,23.4542
 L -43.3196,23.1775 L -43.3075,22.9008 L -43.2714,22.6262 L -43.2114,22.3557 L -43.1281,22.0916 L -43.0221,21.8357
 L -42.8942,21.59 L -42.7454,21.3564 L -42.5768,21.1366 L -42.3897,20.9324 L -42.1855,20.7453 L -41.9657,20.5767
 L -41.7321,20.4279 L -41.4864,20.3 L -41.2305,20.194 L -41.1446,20.1669 L -41.1446,-20.1669 L -41.2305,-20.194
 L -41.4864,-20.3 L -41.7321,-20.4279 L -41.9657,-20.5767 L -42.1855,-20.7453 L -42.3897,-20.9324 L -42.5768,-21.1366
 L -42.7454,-21.3564 L -42.8942,-21.59 L -43.0221,-21.8357 L -43.1281,-22.0916 L -43.2114,-22.3557 L -43.2714,-22.6262
 L -43.3075,-22.9008 L -43.3196,-23.1775 L -43.3075,-23.4542 L -43.2714,-23.7288 L -43.2114,-23.9992 L -43.1281,-24.2634
 L -43.0221,-24.5193 L -42.8942,-24.765 L -42.7454,-24.9986 L -42.5768,-25.2183 L -42.3897,-25.4226 L -42.1855,-25.6097
 L -41.9657,-25.7783 L -41.7321,-25.9271 L -41.4864,-26.055 L -41.2305,-26.161 L -40.9664,-26.2443 L -40.6959,-26.3043
 L -40.4213,-26.3404 L -40.1446,-26.3525 L -39.8679,-26.3404 L -39.5933,-26.3043 L -39.3228,-26.2443 L -39.0587,-26.161
 L -38.8028,-26.055 L -38.5571,-25.9271 L -38.3235,-25.7783 L -38.1037,-25.6097 L -38.0373,-25.5488 L -3.10725,-45.7157
 L -3.12675,-45.8037 L -3.16292,-46.0783 L -3.17499,-46.355 L -3.16292,-46.6317 L -3.12675,-46.9063 L -3.0668,-47.1767
 L -2.98352,-47.4409 L -2.87752,-47.6968 L -2.74962,-47.9425 L -2.6008,-48.1761 L -2.43219,-48.3958 L -2.24506,-48.6001
 L -2.04085,-48.7872 L -1.82109,-48.9558 L -1.58749,-49.1046 L -1.34181,-49.2325 L -1.08591,-49.3385 L -0.821747,-49.4218
 L -0.551331,-49.4818 L -0.276718,-49.5179 L 0,-49.53 L 0.276718,-49.5179 L 0.551331,-49.4818 L 0.821747,-49.4218
 L 1.08591,-49.3385 L 1.34181,-49.2325 L 1.58749,-49.1046 L 1.82109,-48.9558 L 2.04085,-48.7872 L 2.24506,-48.6001
 L 2.43219,-48.3958 L 2.6008,-48.1761 L 2.74962,-47.9425 L 2.87752,-47.6968 L 2.98352,-47.4409 L 3.0668,-47.1767
 L 3.12675,-46.9063 L 3.16292,-46.6317 L 3.17499,-46.355 L 3.16292,-46.0783 L 3.12675,-45.8037 L 3.10725,-45.7157
 L 38.0373,-25.5488 L 38.1037,-25.6097 L 38.3235,-25.7783 L 38.5571,-25.9271 L 38.8028,-26.055 L 39.0587,-26.161
 L 39.3228,-26.2443 L 39.5933,-26.3043 L 39.8679,-26.3404 L 40.1446,-26.3525 L 40.4213,-26.3404 L 40.6959,-26.3043
 L 40.9664,-26.2443 L 41.2305,-26.161 L 41.4864,-26.055 L 41.7321,-25.9271 L 41.9657,-25.7783 L 42.1855,-25.6097
 L 42.3897,-25.4226 L 42.5768,-25.2183 L 42.7454,-24.9986 L 42.8942,-24.765 L 43.0221,-24.5193 L 43.1281,-24.2634
 L 43.2114,-23.9992 L 43.2714,-23.7288 L 43.3075,-23.4542 L 43.3196,-23.1775 L 43.3075,-22.9008 L 43.2714,-22.6262
 L 43.2114,-22.3557 L 43.1281,-22.0916 L 43.0221,-21.8357 L 42.8942,-21.59 L 42.7454,-21.3564 L 42.5768,-21.1366
 L 42.3897,-20.9324 L 42.1855,-20.7453 L 41.9657,-20.5767 L 41.7321,-20.4279 L 41.4864,-20.3 L 41.2305,-20.194
 L 41.1446,-20.1669 L 41.1446,20.1669 L 41.2305,20.194 L 41.4864,20.3 L 41.7321,20.4279 L 41.9657,20.5767
 L 42.1855,20.7453 L 42.3897,20.9324 L 42.5768,21.1366 L 42.7454,21.3564 L 42.8942,21.59 L 43.0221,21.8357
 L 43.1281,22.0916 L 43.2114,22.3557 L 43.2714,22.6262 L 43.3075,22.9008 L 43.3196,23.1775 L 43.3075,23.4542
 L 43.2714,23.7288 L 43.2114,23.9992 L 43.1281,24.2634 L 43.0221,24.5193 L 42.8942,24.765 L 42.7454,24.9986
 L 42.5768,25.2183 L 42.3897,25.4226 L 42.1855,25.6097 L 41.9657,25.7783 L 41.7321,25.9271 L 41.4864,26.055
 L 41.2305,26.161 L 40.9664,26.2443 L 40.6959,26.3043 L 40.4213,26.3404 L 40.1446,26.3525 L 39.8679,26.3404
 L 39.5933,26.3043 L 39.3228,26.2443 L 39.0587,26.161 L 38.8028,26.055 L 38.5571,25.9271 L 38.3235,25.7783
 L 38.1037,25.6097 L 38.0373,25.5488 L 3.10725,45.7157 L 3.12675,45.8037 L 3.16292,46.0783 L 3.17499,46.355
 L 3.16292,46.6317 L 3.12675,46.9063 L 3.0668,47.1767 L 2.98352,47.4409 L 2.87752,47.6968 L 2.74962,47.9425
 L 2.6008,48.1761 L 2.43219,48.3958 L 2.24506,48.6001 L 2.04085,48.7872 L 1.82109,48.9558 L 1.58749,49.1046
 L 1.34181,49.2325 L 1.08591,49.3385 L 0.821747,49.4218 L 0.551331,49.4818 L 0.276718,49.5179 L 0,49.53
 z
M 37.0373,23.8168 L 37.0178,23.7288 L 36.9817,23.4542 L 36.9696,23.1775 L 36.9817,22.9008 L 37.0178,22.6262
 L 37.0778,22.3557 L 37.1611,22.0916 L 37.2671,21.8357 L 37.395,21.59 L 37.5438,21.3564 L 37.7124,21.1366
 L 37.8995,20.9324 L 38.1037,20.7453 L 38.3235,20.5767 L 38.5571,20.4279 L 38.8028,20.3 L 39.0587,20.194
 L 39.1446,20.1669 L 39.1446,-20.1669 L 39.0587,-20.194 L 38.8028,-20.3 L 38.5571,-20.4279 L 38.3235,-20.5767
 L 38.1037,-20.7453 L 37.8995,-20.9324 L 37.7124,-21.1366 L 37.5438,-21.3564 L 37.395,-21.59 L 37.2671,-21.8357
 L 37.1611,-22.0916 L 37.0778,-22.3557 L 37.0178,-22.6262 L 36.9817,-22.9008 L 36.9696,-23.1775 L 36.9817,-23.4542
 L 37.0178,-23.7288 L 37.0373,-23.8168 L 2.10727,-43.9837 L 2.04085,-43.9228 L 1.82109,-43.7542 L 1.58749,-43.6054
 L 1.34181,-43.4775 L 1.08591,-43.3715 L 0.821747,-43.2882 L 0.551331,-43.2282 L 0.276718,-43.1921 L 0,-43.18
 L -0.276718,-43.1921 L -0.551331,-43.2282 L -0.821747,-43.2882 L -1.08591,-43.3715 L -1.34181,-43.4775 L -1.58749,-43.6054
 L -1.82109,-43.7542 L -2.04085,-43.9228 L -2.10727,-43.9837 L -37.0373,-23.8168 L -37.0178,-23.7288 L -36.9817,-23.4542
 L -36.9696,-23.1775 L -36.9817,-22.9008 L -37.0178,-22.6262 L -37.0778,-22.3557 L -37.1611,-22.0916 L -37.2671,-21.8357
 L -37.395,-21.59 L -37.5438,-21.3564 L -37.7124,-21.1366 L -37.8995,-20.9324 L -38.1037,-20.7453 L -38.3235,-20.5767
 L -38.5571,-20.4279 L -38.8028,-20.3 L -39.0587,-20.194 L -39.1446,-20.1669 L -39.1446,20.1669 L -39.0587,20.194
 L -38.8028,20.3 L -38.5571,20.4279 L -38.3235,20.5767 L -38.1037,20.7453 L -37.8995,20.9324 L -37.7124,21.1366
 L -37.5438,21.3564 L -37.395,21.59 L -37.2671,21.8357 L -37.1611,22.0916 L -37.0778,22.3557 L -37.0178,22.6262
 L -36.9817,22.9008 L -36.9696,23.1775 L -36.9817,23.4542 L -37.0178,23.7288 L -37.0373,23.8168 L -2.10727,43.9837
 L -2.04085,43.9228 L -1.82109,43.7542 L -1.58749,43.6054 L -1.34181,43.4775 L -1.08591,43.3715 L -0.821747,43.2882
 L -0.551331,43.2282 L -0.276718,43.1921 L 0,43.18 L 0.276718,43.1921 L 0.551331,43.2282 L 0.821747,43.2882
 L 1.08591,43.3715 L 1.34181,43.4775 L 1.58749,43.6054 L 1.82109,43.7542 L 2.04085,43.9228 L 2.10727,43.9837
 z
M 28.2983,3.16292 L 28.0237,3.12675 L 27.7532,3.0668 L 27.4891,2.98352 L 27.2332,2.87752 L 26.9875,2.74962
 L 26.7539,2.6008 L 26.5341,2.43219 L 26.3299,2.24506 L 26.1428,2.04085 L 25.9742,1.82109 L 25.8254,1.58749
 L 25.6975,1.34181 L 25.5915,1.08591 L 25.5082,0.821747 L 25.4482,0.551331 L 25.4121,0.276718 L 25.4,-0
 L 25.4121,-0.276718 L 25.4482,-0.551331 L 25.5082,-0.821747 L 25.5915,-1.08591 L 25.6975,-1.34181 L 25.8254,-1.58749
 L 25.9742,-1.82109 L 26.1428,-2.04085 L 26.3299,-2.24506 L 26.5341,-2.43219 L 26.7539,-2.6008 L 26.9875,-2.74962
 L 27.2332,-2.87752 L 27.4891,-2.98352 L 27.7532,-3.0668 L 28.0237,-3.12675 L 28.2983,-3.16292 L 28.575,-3.17499
 L 28.8517,-3.16292 L 29.1263,-3.12675 L 29.3967,-3.0668 L 29.6609,-2.98352 L 29.9168,-2.87752 L 30.1625,-2.74962
 L 30.3961,-2.6008 L 30.6158,-2.43219 L 30.8201,-2.24506 L 31.0072,-2.04085 L 31.1758,-1.82109 L 31.3246,-1.58749
 L 31.4525,-1.34181 L 31.5585,-1.08591 L 31.6418,-0.821747 L 31.7018,-0.551331 L 31.7379,-0.276718 L 31.75,-0
 L 31.7379,0.276718 L 31.7018,0.551331 L 31.6418,0.821747 L 31.5585,1.08591 L 31.4525,1.34181 L 31.3246,1.58749
 L 31.1758,1.82109 L 31.0072,2.04085 L 30.8201,2.24506 L 30.6158,2.43219 L 30.3961,2.6008 L 30.1625,2.74962
 L 29.9168,2.87752 L 29.6609,2.98352 L 29.3967,3.0668 L 29.1263,3.12675 L 28.8517,3.16292 L 28.575,3.17499
 z
M -28.8517,3.16292 L -29.1263,3.12675 L -29.3967,3.0668 L -29.6609,2.98352 L -29.9168,2.87752 L -30.1625,2.74962
 L -30.3961,2.6008 L -30.6158,2.43219 L -30.8201,2.24506 L -31.0072,2.04085 L -31.1758,1.82109 L -31.3246,1.58749
 L -31.4525,1.34181 L -31.5585,1.08591 L -31.6418,0.821747 L -31.7018,0.551331 L -31.7379,0.276718 L -31.75,-0
 L -31.7379,-0.276718 L -31.7018,-0.551331 L -31.6418,-0.821747 L -31.5585,-1.08591 L -31.4525,-1.34181 L -31.3246,-1.58749
 L -31.1758,-1.82109 L -31.0072,-2.04085 L -30.8201,-2.24506 L -30.6158,-2.43219 L -30.3961,-2.6008 L -30.1625,-2.74962
 L -29.9168,-2.87752 L -29.6609,-2.98352 L -29.3967,-3.0668 L -29.1263,-3.12675 L -28.8517,-3.16292 L -28.575,-3.17499
 L -28.2983,-3.16292 L -28.0237,-3.12675 L -27.7532,-3.0668 L -27.4891,-2.98352 L -27.2332,-2.87752 L -26.9875,-2.74962
 L -26.7539,-2.6008 L -26.5341,-2.43219 L -26.3299,-2.24506 L -26.1428,-2.04085 L -25.9742,-1.82109 L -25.8254,-1.58749
 L -25.6975,-1.34181 L -25.5915,-1.08591 L -25.5082,-0.821747 L -25.4482,-0.551331 L -25.4121,-0.276718 L -25.4,-0
 L -25.4121,0.276718 L -25.4482,0.551331 L -25.5082,0.821747 L -25.5915,1.08591 L -25.6975,1.34181 L -25.8254,1.58749
 L -25.9742,1.82109 L -26.1428,2.04085 L -26.3299,2.24506 L -26.5341,2.43219 L -26.7539,2.6008 L -26.9875,2.74962
 L -27.2332,2.87752 L -27.4891,2.98352 L -27.7532,3.0668 L -28.0237,3.12675 L -28.2983,3.16292 L -28.575,3.17499
 z
" stroke="black" fill="lightgray" stroke-width="0.5"/></svg>
