<?xml version="1.0" standalone="no"?>
<!DOCTYPE svg PUBLIC "-//W3C//DTD SVG 1.1//EN" "http://www.w3.org/Graphics/SVG/1.1/DTD/svg11.dtd">
<svg width="116mm" height="116mm" viewBox="-58 -58 116 116" xmlns="http://www.w3.org/2000/svg" version="1.1">
<title>OpenSCAD Model</title>
<path d="
M 4.98094,56.9325 L 9.92398,56.2818 L 14.7915,55.2027 L 19.5464,53.7034 L 24.1526,51.7955 L 28.575,49.4933
 L 32.7799,46.8145 L 36.7353,43.7794 L 40.4111,40.4111 L 43.7794,36.7353 L 46.8145,32.7799 L 49.4933,28.575
 L 51.7955,24.1526 L 53.7034,19.5464 L 55.2027,14.7915 L 56.2818,9.92398 L 56.9325,4.98094 L 57.15,-0
 L 56.9325,-4.98094 L 56.2818,-9.92398 L 55.2027,-14.7915 L 53.7034,-19.5464 L 51.7955,-24.1526 L 49.4933,-28.575
 L 46.8145,-32.7799 L 43.7794,-36.7353 L 40.4111,-40.4111 L 36.7353,-43.7794 L 32.7799,-46.8145 L 28.575,-49.4933
 L 24.1526,-51.7955 L 19.5464,-53.7034 L 14.7915,-55.2027 L 9.92398,-56.2818 L 4.98094,-56.9325 L 0,-57.15
 L -4.98094,-56.9325 L -9.92398,-56.2818 L -14.7915,-55.2027 L -19.5464,-53.7034 L -24.1526,-51.7955 L -28.575,-49.4933
 L -32.7799,-46.8145 L -36.7353,-43.7794 L -40.4111,-40.4111 L -43.7794,-36.7353 L -46.8145,-32.7799 L -49.4933,-28.575
 L -51.7955,-24.1526 L -53.7034,-19.5464 L -55.2027,-14.7915 L -56.2818,-9.92398 L -56.9325,-4.98094 L -57.15,-0
 L -56.9325,4.98094 L -56.2818,9.92398 L -55.2027,14.7915 L -53.7034,19.5464 L -51.7955,24.1526 L -49.4933,28.575
 L -46.8145,32.7799 L -43.7794,36.7353 L -40.4111,40.4111 L -36.7353,43.7794 L -32.7799,46.8145 L -28.575,49.4933
 L -24.1526,51.7955 L -19.5464,53.7034 L -14.7915,55.2027 L -9.92398,56.2818 L -4.98094,56.9325 L 0,57.15
 z
M -0.276718,49.5179 L -0.551331,49.4818 L -0.821747,49.4218 L -1.08591,49.3385 L -1.34181,49.2325 L -1.58749,49.1046
 L -1.82109,48.9558 L -2.04085,48.7872 L -2.24506,48.6001 L -2.43219,48.3958 L -2.6008,48.1761 L -2.74962,47.9425
 L -2.87752,47.6968 L -2.98352,47.4409 L -3.0668,47.1767 L -3.12675,46.9063 L -3.16292,46.6317 L -3.17499,46.355
 L -3.16292,46.0783 L -3.12675,45.8037 L -3.10725,45.7157 L -38.0373,25.5488 L -38.1037,25.6097 L -38.3235,25.7783
 L -38.5571,25.9271 L -38.8028,26.055 L -39.0587,26.161 L -39.3228,26.2443 L -39.5933,26.3043 L -39.8679,26.3404
 L -40.1446,26.3525 L -40.4213,26.3404 L -40.6959,26.3043 L -40.9664,26.2443 L -41.2305,26.161 L -41.4864,26.055
 L -41.7321,25.9271 L -41.9657,25.7783 L -42.1855,25.6097 L -42.3897,25.4226 L -42.5768,25.2183 L -42.7454,24.9986
 L -42.8942,24.765 L -43.0221,24.5193 L -43.1281,24.2634 L -43.2114,23.9992 L -43.2714,23.7288 L -43.3075,23.4542
 L -43.3196,23.1775 L -43.3075,22.9008 L -43.2714,22.6262 L -43.2114,22.3557 L -43.1281,22.0916 L -43.0221,21.8357
 L -42.8942,21.59 L -42.7454,21.3564 L -42.5768,21.1366 L -42.3897,20.9324 L -42.1855,20.7453 L -41.9657,20.5767
 L -41.7321,20.4279 L -41.4864,20.3 L -41.2305,20.194 L -41.1446,20.1669 L -41.1446,-20.1669 L -41.2305,-20.194
 L -41.4864,-20.3 L -41.7321,-20.4279 L -41.9657,-20.5767 L -42.1855,-20.7453 L -42.3897,-20.9324 L -42.5768,-21.1366
 L -42.7454,-21.3564 L -42.8942,-21.59 L -43.0221,-21.8357 L -43.1281,-22.0916 L -43.2114,-22.3557 L -43.2714,-22.6262
 L -43.3075,-22.9008 L -43.3196,-23.1775 L -43.3075,-23.4542 L -43.2714,-23.7288 L -43.2114,-23.9992 L -43.1281,-24.2634
 L -43.0221,-24.5193 L -42.8942,-24.765 L -42.7454,-24.9986 L -42.5768,-25.2183 L -42.3897,-25.4226 L -42.1855,-25.6097
 L -41.9657,-25.7783 L -41.7321,-25.9271 L -41.4864,-26.055 L -41.2305,-26.161 L -40.9664,-26.2443 L -40.6959,-26.3043
 L -40.4213,-26.3404 L -40.1446,-26.3525 L -39.8679,-26.3404 L -39.5933,-26.3043 L -39.3228,-26.2443 L -39.0587,-26.161
 L -38.8028,-26.055 L -38.5571,-25.9271 L -38.3235,-25.7783 L -38.1037,-25.6097 L -38.0373,-25.5488 L -3.10725,-45.7157
 L -3.12675,-45.8037 L -3.16292,-46.0783 L -3.17499,-46.355 L -3.16292,-46.6317 L -3.12675,-46.9063 L -3.0668,-47.1767
 L -2.98352,-47.4409 L -2.87752,-47.6968 L -2.74962,-47.9425 L -2.6008,-48.1761 L -2.43219,-48.3958 L -2.24506,-48.6001
 L -2.04085,-48.7872 L -1.82109,-48.9558 L -1.58749,-49.1046 L -1.34181,-49.2325 L -1.08591,-49.3385 L -0.821747,-49.4218
 L -0.551331,-49.4818 L -0.276718,-49.5179 L 0,-49.53 L 0.276718,-49.5179 L 0.551331,-49.4818 L 0.821747,-49.4218
 L 1.08591,-49.3385 L 1.34181,-49.2325 L 1.58749,-49.1046 L 1.82109,-48.9558 L 2.04085,-48.7872 L 2.24506,-48.6001
 L 2.43219,-48.3958 L 2.6008,-48.1761 L 2.74962,-47.9425 L 2.87752,-47.6968 L 2.98352,-47.4409 L 3.0668,-47.1767
 L 3.12675,-46.9063 L 3.16292,-46.6317 L 3.17499,-46.355 L 3.16292,-46.0783 L 3.12675,-45.8037 L 3.10725,-45.7157
 L 38.0373,-25.5488 L 38.1037,-25.6097 L 38.3235,-25.7783 L 38.5571,-25.9271 L 38.8028,-26.055 L 39.0587,-26.161
 L 39.3228,-26.2443 L 39.5933,-26.3043 L 39.8679,-26.3404 L 40.1446,-26.3525 L 40.4213,-26.3404 L 40.6959,-26.3043
 L 40.9664,-26.2443 L 41.2305,-26.161 L 41.4864,-26.055 L 41.7321,-25.9271 L 41.9657,-25.7783 L 42.1855,-25.6097
 L 42.3897,-25.4226 L 42.5768,-25.2183 L 42.7454,-24.9986 L 42.8942,-24.765 L 43.0221,-24.5193 L 43.1281,-24.2634
 L 43.2114,-23.9992 L 43.2714,-23.7288 L 43.3075,-23.4542 L 43.3196,-23.1775 L 43.3075,-22.9008 L 43.2714,-22.6262
 L 43.2114,-22.3557 L 43.1281,-22.0916 L 43.0221,-21.8357 L 42.8942,-21.59 L 42.7454,-21.3564 L 42.5768,-21.1366
 L 42.3897,-20.9324 L 42.1855,-20.7453 L 41.9657,-20.5767 L 41.7321,-20.4279 L 41.4864,-20.3 L 41.2305,-20.194
 L 41.1446,-20.1669 L 41.1446,20.1669 L 41.2305,20.194 L 41.4864,20.3 L 41.7321,20.4279 L 41.9657,20.5767
 L 42.1855,20.7453 L 42.3897,20.9324 L 42.5768,21.1366 L 42.7454,21.3564 L 42.8942,21.59 L 43.0221,21.8357
 L 43.1281,22.0916 L 43.2114,22.3557 L 43.2714,22.6262 L 43.3075,22.9008 L 43.3196,23.1775 L 43.3075,23.4542
 L 43.2714,23.7288 L 43.2114,23.9992 L 43.1281,24.2634 L 43.0221,24.5193 L 42.8942,24.765 L 42.7454,24.9986
 L 42.5768,25.2183 L 42.3897,25.4226 L 42.1855,25.6097 L 41.9657,25.7783 L 41.7321,25.9271 L 41.4864,26.055
 L 41.2305,26.161 L 40.9664,26.2443 L 40.6959,26.3043 L 40.4213,26.3404 L 40.1446,26.3525 L 39.8679,26.3404
 L 39.5933,26.3043 L 39.3228,26.2443 L 39.0587,26.161 L 38.8028,26.055 L 38.5571,25.9271 L 38.3235,25.7783
 L 38.1037,25.6097 L 38.0373,25.5488 L 3.10725,45.7157 L 3.12675,45.8037 L 3.16292,46.0783 L 3.17499,46.355
 L 3.16292,46.6317 L 3.12675,46.9063 L 3.0668,47.1767 L 2.98352,47.4409 L 2.87752,47.6968 L 2.74962,47.9425
 L 2.6008,48.1761 L 2.43219,48.3958 L 2.24506,48.6001 L 2.04085,48.7872 L 1.82109,48.9558 L 1.58749,49.1046
 L 1.34181,49.2325 L 1.08591,49.3385 L 0.821747,49.4218 L 0.551331,49.4818 L 0.276718,49.5179 L 0,49.53
 z
M 37.0373,23.8168 L 37.0178,23.7288 L 36.9817,23.4542 L 36.9696,23.1775 L 36.9817,22.9008 L 37.0178,22.6262
 L 37.0778,22.3557 L 37.1611,22.0916 L 37.2671,21.8357 L 37.395,21.59 L 37.5438,21.3564 L 37.7124,21.1366
 L 37.8995,20.9324 L 38.1037,20.7453 L 38.3235,20.5767 L 38.5571,20.4279 L 38.8028,20.3 L 39.0587,20.194
 L 39.1446,20.1669 L 39.1446,-20.1669 L 39.0587,-20.194 L 38.8028,-20.3 L 38.5571,-20.4279 L 38.3235,-20.5767
 L 38.1037,-20.7453 L 37.8995,-20.9324 L 37.7124,-21.1366 L 37.5438,-21.3564 L 37.395,-21.59 L 37.2671,-21.8357
 L 37.1611,-22.0916 L 37.0778,-22.3557 L 37.0178,-22.6262 L 36.9817,-22.9008 L 36.9696,-23.1775 L 36.9817,-23.4542
 L 37.0178,-23.7288 L 37.0373,-23.8168 L 2.10727,-43.9837 L 2.04085,-43.9228 L 1.82109,-43.7542 L 1.58749,-43.6054
 L 1.34181,-43.4775 L 1.08591,-43.3715 L 0.821747,-43.2882 L 0.551331,-43.2282 L 0.276718,-43.1921 L 0,-43.18
 L -0.276718,-43.1921 L -0.551331,-43.2282 L -0.821747,-43.2882 L -1.08591,-43.3715 L -1.34181,-43.4775 L -1.58749,-43.6054
 L -1.82109,-43.7542 L -2.04085,-43.9228 L -2.10727,-43.9837 L -37.0373,-23.8168 L -37.0178,-23.7288 L -36.9817,-23.4542
 L -36.9696,-23.1775 L -36.9817,-22.9008 L -37.0178,-22.6262 L -37.0778,-22.3557 L -37.1611,-22.0916 L -37.2671,-21.8357
 L -37.395,-21.59 L -37.5438,-21.3564 L -37.7124,-21.1366 L -37.8995,-20.9324 L -38.1037,-20.7453 L -38.3235,-20.5767
 L -38.5571,-20.4279 L -38.8028,-20.3 L -39.0587,-20.194 L -39.1446,-20.1669 L -39.1446,20.1669 L -39.0587,20.194
 L -38.8028,20.3 L -38.5571,20.4279 L -38.3235,20.5767 L -38.1037,20.7453 L -37.8995,20.9324 L -37.7124,21.1366
 L -37.5438,21.3564 L -37.395,21.59 L -37.2671,21.8357 L -37.1611,22.0916 L -37.0778,22.3557 L -37.0178,22.6262
 L -36.9817,22.9008 L -36.9696,23.1775 L -36.9817,23.4542 L -37.0178,23.7288 L -37.0373,23.8168 L -2.10727,43.9837
 L -2.04085,43.9228 L -1.82109,43.7542 L -1.58749,43.6054 L -1.34181,43.4775 L -1.08591,43.3715 L -0.821747,43.2882
 L -0.551331,43.2282 L -0.276718,43.1921 L 0,43.18 L 0.276718,43.1921 L 0.551331,43.2282 L 0.821747,43.2882
 L 1.08591,43.3715 L 1.34181,43.4775 L 1.58749,43.6054 L 1.82109,43.7542 L 2.04085,43.9228 L 2.10727,43.9837
 z
M 32.1689,-15.5696 L 31.8943,-15.6057 L 31.6239,-15.6657 L 31.3597,-15.749 L 31.1038,-15.855 L 30.8581,-15.9829
 L 30.6245,-16.1317 L 30.4048,-16.3003 L 30.2006,-16.4874 L 30.0134,-16.6916 L 29.8448,-16.9114 L 29.696,-17.145
 L 29.5681,-17.3907 L 29.4621,-17.6466 L 29.3788,-17.9107 L 29.3189,-18.1812 L 29.2827,-18.4558 L 29.2706,-18.7325
 L 29.2827,-19.0092 L 29.3189,-19.2838 L 29.3788,-19.5542 L 29.4621,-19.8184 L 29.5681,-20.0743 L 29.696,-20.32
 L 29.8448,-20.5536 L 30.0134,-20.7733 L 30.2006,-20.9776 L 30.4048,-21.1647 L 30.6245,-21.3333 L 30.8581,-21.4821
 L 31.1038,-21.61 L 31.3597,-21.716 L 31.6239,-21.7993 L 31.8943,-21.8593 L 32.1689,-21.8954 L 32.4456,-21.9075
 L 32.7224,-21.8954 L 32.997,-21.8593 L 33.2674,-21.7993 L 33.5316,-21.716 L 33.7874,-21.61 L 34.0331,-21.4821
 L 34.2667,-21.3333 L 34.4865,-21.1647 L 34.6907,-20.9776 L 34.8778,-20.7733 L 35.0464,-20.5536 L 35.1953,-20.32
 L 35.3232,-20.0743 L 35.4292,-19.8184 L 35.5125,-19.5542 L 35.5724,-19.2838 L 35.6086,-19.0092 L 35.6206,-18.7325
 L 35.6086,-18.4558 L 35.5724,-18.1812 L 35.5125,-17.9107 L 35.4292,-17.6466 L 35.3232,-17.3907 L 35.1953,-17.145
 L 35.0464,-16.9114 L 34.8778,-16.6916 L 34.6907,-16.4874 L 34.4865,-16.3003 L 34.2667,-16.1317 L 34.0331,-15.9829
 L 33.7874,-15.855 L 33.5316,-15.749 L 33.2674,-15.6657 L 32.997,-15.6057 L 32.7224,-15.5696 L 32.4456,-15.5575
 z
M -32.7224,21.8954 L -32.997,21.8593 L -33.2674,21.7993 L -33.5316,21.716 L -33.7874,21.61 L -34.0331,21.4821
 L -34.2667,21.3333 L -34.4865,21.1647 L -34.6907,20.9776 L -34.8778,20.7733 L -35.0464,20.5536 L -35.1953,20.32
 L -35.3232,20.0743 L -35.4292,19.8184 L -35.5125,19.5542 L -35.5724,19.2838 L -35.6086,19.0092 L -35.6206,18.7325
 L -35.6086,18.4558 L -35.5724,18.1812 L -35.5125,17.9107 L -35.4292,17.6466 L -35.3232,17.3907 L -35.1953,17.145
 L -35.0464,16.9114 L -34.8778,16.6916 L -34.6907,16.4874 L -34.4865,16.3003 L -34.2667,16.1317 L -34.0331,15.9829
 L -33.7874,15.855 L -33.5316,15.749 L -33.2674,15.6657 L -32.997,15.6057 L -32.7224,15.5696 L -32.4456,15.5575
 L -32.1689,15.5696 L -31.8943,15.6057 L -31.6239,15.6657 L -31.3597,15.749 L -31.1038,15.855 L -30.8581,15.9829
 L -30.6245,16.1317 L -30.4048,16.3003 L -30.2006,16.4874 L -30.0134,16.6916 L -29.8448,16.9114 L -29.696,17.145
 L -29.5681,17.3907 L -29.4621,17.6466 L -29.3788,17.9107 L -29.3189,18.1812 L -29.2827,18.4558 L -29.2706,18.7325
 L -29.2827,19.0092 L -29.3189,19.2838 L -29.3788,19.5542 L -29.4621,19.8184 L -29.5681,20.0743 L -29.696,20.32
 L -29.8448,20.5536 L -30.0134,20.7733 L -30.2006,20.9776 L -30.4048,21.1647 L -30.6245,21.3333 L -30.8581,21.4821
 L -31.1038,21.61 L -31.3597,21.716 L -31.6239,21.7993 L -31.8943,21.8593 L -32.1689,21.8954 L -32.4456,21.9075
 z
" stroke="black" fill="lightgray" stroke-width="0.5"/></svg>
